<svg xmlns="http://www.w3.org/2000/svg" xmlns:xlink="http://www.w3.org/1999/xlink" contentStyleType="text/css" data-diagram-type="SEQUENCE" height="542px" preserveAspectRatio="none" style="width:968px;height:542px;background:#FFFFFF;" version="1.1" viewBox="0 0 968 542" width="968px" zoomAndPan="magnify"><title>OAuth &#44592;&#48152; &#47196;&#44536;&#51064;</title><defs/><g><text fill="#000000" font-family="sans-serif" font-size="14" font-weight="bold" lengthAdjust="spacing" textLength="101.1172" x="434.4546" y="27.9951">OAuth &#44592;&#48152; &#47196;&#44536;&#51064;</text><rect fill="none" height="221.8672" style="stroke:#000000;stroke-width:1.5;" width="951.0264" x="10" y="222.9922"/><g><title>Client</title><rect fill="#000000" fill-opacity="0.00000" height="343.2656" width="8" x="39.2651" y="118.5938"/><line style="stroke:#181818;stroke-width:0.5;stroke-dasharray:5.0,5.0;" x1="43" x2="43" y1="118.5938" y2="461.8594"/></g><g><title>OAuth2LoginFilter</title><rect fill="#000000" fill-opacity="0.00000" height="343.2656" width="8" x="277.6191" y="118.5938"/><line style="stroke:#181818;stroke-width:0.5;stroke-dasharray:5.0,5.0;" x1="281.397" x2="281.397" y1="118.5938" y2="461.8594"/></g><g><title>CustomOAuth2UserService</title><rect fill="#000000" fill-opacity="0.00000" height="343.2656" width="8" x="498.8916" y="118.5938"/><line style="stroke:#181818;stroke-width:0.5;stroke-dasharray:5.0,5.0;" x1="502.8789" x2="502.8789" y1="118.5938" y2="461.8594"/></g><g><title>AuthRepository</title><rect fill="#000000" fill-opacity="0.00000" height="343.2656" width="8" x="749.5029" y="118.5938"/><line style="stroke:#181818;stroke-width:0.5;stroke-dasharray:5.0,5.0;" x1="752.5605" x2="752.5605" y1="118.5938" y2="461.8594"/></g><g><title>SecurityContext</title><rect fill="#000000" fill-opacity="0.00000" height="343.2656" width="8" x="883.7358" y="118.5938"/><line style="stroke:#181818;stroke-width:0.5;stroke-dasharray:5.0,5.0;" x1="887.4453" x2="887.4453" y1="118.5938" y2="461.8594"/></g><g class="participant participant-head" data-participant="Client"><text fill="#000000" font-family="sans-serif" font-size="14" lengthAdjust="spacing" textLength="40.5303" x="20" y="115.292">Client</text><ellipse cx="43.2651" cy="50.7969" fill="#E2E2F0" rx="8" ry="8" style="stroke:#181818;stroke-width:0.5;"/><path d="M43.2651,58.7969 L43.2651,85.7969 M30.2651,66.7969 L56.2651,66.7969 M43.2651,85.7969 L30.2651,100.7969 M43.2651,85.7969 L56.2651,100.7969" fill="none" style="stroke:#181818;stroke-width:0.5;"/></g><g class="participant participant-tail" data-participant="Client"><text fill="#000000" font-family="sans-serif" font-size="14" lengthAdjust="spacing" textLength="40.5303" x="20" y="473.8545">Client</text><ellipse cx="43.2651" cy="485.6563" fill="#E2E2F0" rx="8" ry="8" style="stroke:#181818;stroke-width:0.5;"/><path d="M43.2651,493.6563 L43.2651,520.6563 M30.2651,501.6563 L56.2651,501.6563 M43.2651,520.6563 L30.2651,535.6563 M43.2651,520.6563 L56.2651,535.6563" fill="none" style="stroke:#181818;stroke-width:0.5;"/></g><g class="participant participant-head" data-participant="OAuth2LoginFilter"><rect fill="#E2E2F0" height="30.2969" rx="2.5" ry="2.5" style="stroke:#181818;stroke-width:0.5;" width="140.4443" x="211.397" y="87.2969"/><text fill="#000000" font-family="sans-serif" font-size="14" lengthAdjust="spacing" textLength="126.4443" x="218.397" y="107.292">OAuth2LoginFilter</text></g><g class="participant participant-tail" data-participant="OAuth2LoginFilter"><rect fill="#E2E2F0" height="30.2969" rx="2.5" ry="2.5" style="stroke:#181818;stroke-width:0.5;" width="140.4443" x="211.397" y="460.8594"/><text fill="#000000" font-family="sans-serif" font-size="14" lengthAdjust="spacing" textLength="126.4443" x="218.397" y="480.8545">OAuth2LoginFilter</text></g><g class="participant participant-head" data-participant="CustomOAuth2UserService"><rect fill="#E2E2F0" height="30.2969" rx="2.5" ry="2.5" style="stroke:#181818;stroke-width:0.5;" width="204.0254" x="400.8789" y="87.2969"/><text fill="#000000" font-family="sans-serif" font-size="14" lengthAdjust="spacing" textLength="190.0254" x="407.8789" y="107.292">CustomOAuth2UserService</text></g><g class="participant participant-tail" data-participant="CustomOAuth2UserService"><rect fill="#E2E2F0" height="30.2969" rx="2.5" ry="2.5" style="stroke:#181818;stroke-width:0.5;" width="204.0254" x="400.8789" y="460.8594"/><text fill="#000000" font-family="sans-serif" font-size="14" lengthAdjust="spacing" textLength="190.0254" x="407.8789" y="480.8545">CustomOAuth2UserService</text></g><g class="participant participant-head" data-participant="AuthRepository"><rect fill="#E2E2F0" height="30.2969" rx="2.5" ry="2.5" style="stroke:#181818;stroke-width:0.5;" width="121.8848" x="692.5605" y="87.2969"/><text fill="#000000" font-family="sans-serif" font-size="14" lengthAdjust="spacing" textLength="107.8848" x="699.5605" y="107.292">AuthRepository</text></g><g class="participant participant-tail" data-participant="AuthRepository"><rect fill="#E2E2F0" height="30.2969" rx="2.5" ry="2.5" style="stroke:#181818;stroke-width:0.5;" width="121.8848" x="692.5605" y="460.8594"/><text fill="#000000" font-family="sans-serif" font-size="14" lengthAdjust="spacing" textLength="107.8848" x="699.5605" y="480.8545">AuthRepository</text></g><g class="participant participant-head" data-participant="SecurityContext"><rect fill="#E2E2F0" height="30.2969" rx="2.5" ry="2.5" style="stroke:#181818;stroke-width:0.5;" width="126.5811" x="824.4453" y="87.2969"/><text fill="#000000" font-family="sans-serif" font-size="14" lengthAdjust="spacing" textLength="112.5811" x="831.4453" y="107.292">SecurityContext</text></g><g class="participant participant-tail" data-participant="SecurityContext"><rect fill="#E2E2F0" height="30.2969" rx="2.5" ry="2.5" style="stroke:#181818;stroke-width:0.5;" width="126.5811" x="824.4453" y="460.8594"/><text fill="#000000" font-family="sans-serif" font-size="14" lengthAdjust="spacing" textLength="112.5811" x="831.4453" y="480.8545">SecurityContext</text></g><g class="message" data-participant-1="Client" data-participant-2="OAuth2LoginFilter"><polygon fill="#181818" points="269.6191,145.7266,279.6191,149.7266,269.6191,153.7266,273.6191,149.7266" style="stroke:#181818;stroke-width:1;"/><line style="stroke:#181818;stroke-width:1;" x1="43.2651" x2="275.6191" y1="149.7266" y2="149.7266"/><text fill="#000000" font-family="sans-serif" font-size="13" lengthAdjust="spacing" textLength="214.354" x="50.2651" y="144.6606">GET /oauth2/authorization/kakao</text></g><g class="message" data-participant-1="OAuth2LoginFilter" data-participant-2="CustomOAuth2UserService"><polygon fill="#181818" points="490.8916,174.8594,500.8916,178.8594,490.8916,182.8594,494.8916,178.8594" style="stroke:#181818;stroke-width:1;"/><line style="stroke:#181818;stroke-width:1;" x1="281.6191" x2="496.8916" y1="178.8594" y2="178.8594"/><text fill="#000000" font-family="sans-serif" font-size="13" lengthAdjust="spacing" textLength="197.2725" x="288.6191" y="173.7935">loadUser(oAuth2UserRequest)</text></g><g class="message" data-participant-1="CustomOAuth2UserService" data-participant-2="AuthRepository"><polygon fill="#181818" points="741.5029,203.9922,751.5029,207.9922,741.5029,211.9922,745.5029,207.9922" style="stroke:#181818;stroke-width:1;"/><line style="stroke:#181818;stroke-width:1;" x1="502.8916" x2="747.5029" y1="207.9922" y2="207.9922"/><text fill="#000000" font-family="sans-serif" font-size="13" lengthAdjust="spacing" textLength="226.6113" x="509.8916" y="202.9263">findByProviderAndProviderUserId()</text></g><path d="M10,222.9922 L74.4429,222.9922 L74.4429,230.125 L64.4429,240.125 L10,240.125 L10,222.9922" fill="#EEEEEE" style="stroke:#000000;stroke-width:1.5;"/><rect fill="none" height="221.8672" style="stroke:#000000;stroke-width:1.5;" width="951.0264" x="10" y="222.9922"/><text fill="#000000" font-family="sans-serif" font-size="13" font-weight="bold" lengthAdjust="spacing" textLength="19.4429" x="25" y="236.0591">alt</text><text fill="#000000" font-family="sans-serif" font-size="11" font-weight="bold" lengthAdjust="spacing" textLength="29.8579" x="89.4429" y="235.2026">[&#51316;&#51116;&#54632;]</text><g class="message" data-participant-1="AuthRepository" data-participant-2="CustomOAuth2UserService"><polygon fill="#181818" points="513.8916,257.2578,503.8916,261.2578,513.8916,265.2578,509.8916,261.2578" style="stroke:#181818;stroke-width:1;"/><line style="stroke:#181818;stroke-width:1;stroke-dasharray:2.0,2.0;" x1="507.8916" x2="752.5029" y1="261.2578" y2="261.2578"/><text fill="#000000" font-family="sans-serif" font-size="13" lengthAdjust="spacing" textLength="30.4688" x="519.8916" y="256.1919">Auth</text></g><g class="message" data-participant-1="CustomOAuth2UserService" data-participant-2="SecurityContext"><polygon fill="#181818" points="875.7358,286.3906,885.7358,290.3906,875.7358,294.3906,879.7358,290.3906" style="stroke:#181818;stroke-width:1;"/><line style="stroke:#181818;stroke-width:1;" x1="502.8916" x2="881.7358" y1="290.3906" y2="290.3906"/><text fill="#000000" font-family="sans-serif" font-size="13" lengthAdjust="spacing" textLength="166.4736" x="509.8916" y="285.3247">saveAuthentication(Auth)</text></g><g class="message" data-participant-1="OAuth2LoginFilter" data-participant-2="Client"><polygon fill="#181818" points="54.2651,315.5234,44.2651,319.5234,54.2651,323.5234,50.2651,319.5234" style="stroke:#181818;stroke-width:1;"/><line style="stroke:#181818;stroke-width:1;stroke-dasharray:2.0,2.0;" x1="48.2651" x2="280.6191" y1="319.5234" y2="319.5234"/><text fill="#000000" font-family="sans-serif" font-size="13" lengthAdjust="spacing" textLength="43.1387" x="60.2651" y="314.4575">&#47196;&#44536;&#51064; &#49457;&#44277;</text></g><line style="stroke:#000000;stroke-width:1;stroke-dasharray:2.0,2.0;" x1="10" x2="961.0264" y1="328.5234" y2="328.5234"/><text fill="#000000" font-family="sans-serif" font-size="11" font-weight="bold" lengthAdjust="spacing" textLength="46.8896" x="15" y="338.7339">[&#52572;&#52488; &#47196;&#44536;&#51064;]</text><g class="message" data-participant-1="AuthRepository" data-participant-2="CustomOAuth2UserService"><polygon fill="#181818" points="513.8916,359.4609,503.8916,363.4609,513.8916,367.4609,509.8916,363.4609" style="stroke:#181818;stroke-width:1;"/><line style="stroke:#181818;stroke-width:1;stroke-dasharray:2.0,2.0;" x1="507.8916" x2="752.5029" y1="363.4609" y2="363.4609"/><text fill="#000000" font-family="sans-serif" font-size="13" lengthAdjust="spacing" textLength="23.7021" x="519.8916" y="358.395">null</text></g><g class="message" data-participant-1="CustomOAuth2UserService" data-participant-2="OAuth2LoginFilter"><polygon fill="#181818" points="292.6191,388.5938,282.6191,392.5938,292.6191,396.5938,288.6191,392.5938" style="stroke:#181818;stroke-width:1;"/><line style="stroke:#181818;stroke-width:1;stroke-dasharray:2.0,2.0;" x1="286.6191" x2="501.8916" y1="392.5938" y2="392.5938"/><text fill="#000000" font-family="sans-serif" font-size="13" lengthAdjust="spacing" textLength="47.271" x="298.6191" y="387.5278">&#51064;&#51613;&#51008; &#50504; &#46120;</text></g><g class="message" data-participant-1="OAuth2LoginFilter" data-participant-2="Client"><polygon fill="#181818" points="54.2651,432.8594,44.2651,436.8594,54.2651,440.8594,50.2651,436.8594" style="stroke:#181818;stroke-width:1;"/><line style="stroke:#181818;stroke-width:1;stroke-dasharray:2.0,2.0;" x1="48.2651" x2="280.6191" y1="436.8594" y2="436.8594"/><text fill="#000000" font-family="sans-serif" font-size="13" lengthAdjust="spacing" textLength="67.9771" x="60.2651" y="416.6606">redirect to</text><text fill="#000000" font-family="sans-serif" font-size="13" lengthAdjust="spacing" textLength="208.6919" x="60.2651" y="431.7935">Oauth Signup Page(Signup JWT)</text></g><!--SRC=[bL8zJm914EttLqnvLn0IImeJ96eq9X30sDXixaRSSEwUUtD4h2miB6r8BC24nb1OQ8J8RuBrFxZh-GK8QdFPspVlpPktGu8YX78nfMEOZ1-c3pSmxNSdpsFJ6pF60r8QIf50IIpccaGWOYuf8wpjgOQGMo8Yr3DeAKr8dMGr-mdg6kgM272cne5LZ5KYR8lsNw4Q1gaMr2ufINX6Z6NU8BU-Q0aAiBrPXxpY3iYxhzBYd9DGCj_aJQxO8iSABN5lvIB5GtVZgK-mYgSf9kIpPImhE3kFrJaICjneLxHgYH1rKOOVHqVS2JsVyOZ0z8VczlwbCs0mBv5RQTDTMSuAHtCnMax2M-WgRPWYU8l8Sx- -rVaX9DS-2xxmjIvWBXydJoE6KO9WHbqplFgsI_-SGQPHj6g69GzkEvcxdkbTWEdOxjU3t_rh38N6W80K7CgoMnEeYOPCOwZm1dhlvzs3kizGXgy0]--></g></svg>