<svg xmlns="http://www.w3.org/2000/svg" xmlns:xlink="http://www.w3.org/1999/xlink" contentStyleType="text/css" data-diagram-type="SEQUENCE" height="688px" preserveAspectRatio="none" style="width:1285px;height:688px;background:#FFFFFF;" version="1.1" viewBox="0 0 1285 688" width="1285px" zoomAndPan="magnify"><title>updatePassword</title><defs/><g><text fill="#000000" font-family="sans-serif" font-size="14" font-weight="bold" lengthAdjust="spacing" textLength="131.4961" x="577.8135" y="27.9951">updatePassword</text><g><title>Auth</title><rect fill="#FFFFFF" height="140.6641" style="stroke:#181818;stroke-width:1;" width="10" x="842.4888" y="281.3906"/></g><rect fill="none" height="235.8672" style="stroke:#000000;stroke-width:1.5;" width="1268.123" x="10" y="354.6563"/><g><title>User</title><rect fill="#000000" fill-opacity="0.00000" height="488.9297" width="8" x="34.9551" y="118.5938"/><line style="stroke:#181818;stroke-width:0.5;stroke-dasharray:5.0,5.0;" x1="38" x2="38" y1="118.5938" y2="607.5234"/></g><g><title>AuthController</title><rect fill="#000000" fill-opacity="0.00000" height="488.9297" width="8" x="206.8618" y="118.5938"/><line style="stroke:#181818;stroke-width:0.5;stroke-dasharray:5.0,5.0;" x1="209.8691" x2="209.8691" y1="118.5938" y2="607.5234"/></g><g><title>AuthService</title><rect fill="#000000" fill-opacity="0.00000" height="488.9297" width="8" x="545.1406" y="118.5938"/><line style="stroke:#181818;stroke-width:0.5;stroke-dasharray:5.0,5.0;" x1="548.8638" x2="548.8638" y1="118.5938" y2="607.5234"/></g><g><title>AuthRepository</title><rect fill="#000000" fill-opacity="0.00000" height="488.9297" width="8" x="753.1401" y="118.5938"/><line style="stroke:#181818;stroke-width:0.5;stroke-dasharray:5.0,5.0;" x1="756.1978" x2="756.1978" y1="118.5938" y2="607.5234"/></g><g><title>Auth</title><rect fill="#000000" fill-opacity="0.00000" height="488.9297" width="8" x="843.4888" y="118.5938"/><line style="stroke:#181818;stroke-width:0.5;stroke-dasharray:5.0,5.0;" x1="847.0825" x2="847.0825" y1="118.5938" y2="607.5234"/></g><g><title>Password</title><rect fill="#000000" fill-opacity="0.00000" height="488.9297" width="8" x="1031.0596" y="118.5938"/><line style="stroke:#181818;stroke-width:0.5;stroke-dasharray:5.0,5.0;" x1="1034.9258" x2="1034.9258" y1="118.5938" y2="607.5234"/></g><g><title>GlobalExceptionHandler</title><rect fill="#000000" fill-opacity="0.00000" height="488.9297" width="8" x="1172.6582" y="118.5938"/><line style="stroke:#181818;stroke-width:0.5;stroke-dasharray:5.0,5.0;" x1="1176.1934" x2="1176.1934" y1="118.5938" y2="607.5234"/></g><g class="participant participant-head" data-participant="User"><text fill="#000000" font-family="sans-serif" font-size="14" lengthAdjust="spacing" textLength="31.9102" x="20" y="115.292">User</text><ellipse cx="38.9551" cy="50.7969" fill="#E2E2F0" rx="8" ry="8" style="stroke:#181818;stroke-width:0.5;"/><path d="M38.9551,58.7969 L38.9551,85.7969 M25.9551,66.7969 L51.9551,66.7969 M38.9551,85.7969 L25.9551,100.7969 M38.9551,85.7969 L51.9551,100.7969" fill="none" style="stroke:#181818;stroke-width:0.5;"/></g><g class="participant participant-tail" data-participant="User"><text fill="#000000" font-family="sans-serif" font-size="14" lengthAdjust="spacing" textLength="31.9102" x="20" y="619.5186">User</text><ellipse cx="38.9551" cy="631.3203" fill="#E2E2F0" rx="8" ry="8" style="stroke:#181818;stroke-width:0.5;"/><path d="M38.9551,639.3203 L38.9551,666.3203 M25.9551,647.3203 L51.9551,647.3203 M38.9551,666.3203 L25.9551,681.3203 M38.9551,666.3203 L51.9551,681.3203" fill="none" style="stroke:#181818;stroke-width:0.5;"/></g><g class="participant participant-head" data-participant="AuthController"><rect fill="#E2E2F0" height="30.2969" rx="2.5" ry="2.5" style="stroke:#181818;stroke-width:0.5;" width="115.9854" x="152.8691" y="87.2969"/><text fill="#000000" font-family="sans-serif" font-size="14" lengthAdjust="spacing" textLength="101.9854" x="159.8691" y="107.292">AuthController</text></g><g class="participant participant-tail" data-participant="AuthController"><rect fill="#E2E2F0" height="30.2969" rx="2.5" ry="2.5" style="stroke:#181818;stroke-width:0.5;" width="115.9854" x="152.8691" y="606.5234"/><text fill="#000000" font-family="sans-serif" font-size="14" lengthAdjust="spacing" textLength="101.9854" x="159.8691" y="626.5186">AuthController</text></g><g class="participant participant-head" data-participant="AuthService"><rect fill="#E2E2F0" height="30.2969" rx="2.5" ry="2.5" style="stroke:#181818;stroke-width:0.5;" width="98.5537" x="499.8638" y="87.2969"/><text fill="#000000" font-family="sans-serif" font-size="14" lengthAdjust="spacing" textLength="84.5537" x="506.8638" y="107.292">AuthService</text></g><g class="participant participant-tail" data-participant="AuthService"><rect fill="#E2E2F0" height="30.2969" rx="2.5" ry="2.5" style="stroke:#181818;stroke-width:0.5;" width="98.5537" x="499.8638" y="606.5234"/><text fill="#000000" font-family="sans-serif" font-size="14" lengthAdjust="spacing" textLength="84.5537" x="506.8638" y="626.5186">AuthService</text></g><g class="participant participant-head" data-participant="AuthRepository"><rect fill="#E2E2F0" height="30.2969" rx="2.5" ry="2.5" style="stroke:#181818;stroke-width:0.5;" width="121.8848" x="696.1978" y="87.2969"/><text fill="#000000" font-family="sans-serif" font-size="14" lengthAdjust="spacing" textLength="107.8848" x="703.1978" y="107.292">AuthRepository</text></g><g class="participant participant-tail" data-participant="AuthRepository"><rect fill="#E2E2F0" height="30.2969" rx="2.5" ry="2.5" style="stroke:#181818;stroke-width:0.5;" width="121.8848" x="696.1978" y="606.5234"/><text fill="#000000" font-family="sans-serif" font-size="14" lengthAdjust="spacing" textLength="107.8848" x="703.1978" y="626.5186">AuthRepository</text></g><g class="participant participant-head" data-participant="Auth"><text fill="#000000" font-family="sans-serif" font-size="14" lengthAdjust="spacing" textLength="32.8125" x="828.0825" y="115.292">Auth</text><ellipse cx="847.4888" cy="86.2969" fill="#E2E2F0" rx="12" ry="12" style="stroke:#181818;stroke-width:0.5;"/><line style="stroke:#181818;stroke-width:0.5;" x1="835.4888" x2="859.4888" y1="100.2969" y2="100.2969"/></g><g class="participant participant-tail" data-participant="Auth"><text fill="#000000" font-family="sans-serif" font-size="14" lengthAdjust="spacing" textLength="32.8125" x="828.0825" y="619.5186">Auth</text><ellipse cx="847.4888" cy="638.8203" fill="#E2E2F0" rx="12" ry="12" style="stroke:#181818;stroke-width:0.5;"/><line style="stroke:#181818;stroke-width:0.5;" x1="835.4888" x2="859.4888" y1="652.8203" y2="652.8203"/></g><g class="participant participant-head" data-participant="Password"><rect fill="#E2E2F0" height="30.2969" rx="2.5" ry="2.5" style="stroke:#181818;stroke-width:0.5;" width="80.2676" x="994.9258" y="87.2969"/><text fill="#000000" font-family="sans-serif" font-size="14" lengthAdjust="spacing" textLength="66.2676" x="1001.9258" y="107.292">Password</text></g><g class="participant participant-tail" data-participant="Password"><rect fill="#E2E2F0" height="30.2969" rx="2.5" ry="2.5" style="stroke:#181818;stroke-width:0.5;" width="80.2676" x="994.9258" y="606.5234"/><text fill="#000000" font-family="sans-serif" font-size="14" lengthAdjust="spacing" textLength="66.2676" x="1001.9258" y="626.5186">Password</text></g><g class="participant participant-head" data-participant="ExceptionHandler"><rect fill="#E2E2F0" height="46.5938" rx="2.5" ry="2.5" style="stroke:#181818;stroke-width:0.5;" width="182.9297" x="1085.1934" y="71"/><text fill="#000000" font-family="sans-serif" font-size="14" lengthAdjust="spacing" textLength="168.9297" x="1092.1934" y="90.9951">GlobalExceptionHandler</text><text fill="#000000" font-family="sans-serif" font-size="14" lengthAdjust="spacing" textLength="141.0459" x="1106.1353" y="107.292">(@ControllerAdvice)</text></g><g class="participant participant-tail" data-participant="ExceptionHandler"><rect fill="#E2E2F0" height="46.5938" rx="2.5" ry="2.5" style="stroke:#181818;stroke-width:0.5;" width="182.9297" x="1085.1934" y="606.5234"/><text fill="#000000" font-family="sans-serif" font-size="14" lengthAdjust="spacing" textLength="168.9297" x="1092.1934" y="626.5186">GlobalExceptionHandler</text><text fill="#000000" font-family="sans-serif" font-size="14" lengthAdjust="spacing" textLength="141.0459" x="1106.1353" y="642.8154">(@ControllerAdvice)</text></g><g><title>Auth</title><rect fill="#FFFFFF" height="140.6641" style="stroke:#181818;stroke-width:1;" width="10" x="842.4888" y="281.3906"/></g><g class="message" data-participant-1="User" data-participant-2="AuthController"><polygon fill="#181818" points="198.8618,160.8594,208.8618,164.8594,198.8618,168.8594,202.8618,164.8594" style="stroke:#181818;stroke-width:1;"/><line style="stroke:#181818;stroke-width:1;" x1="38.9551" x2="204.8618" y1="164.8594" y2="164.8594"/><text fill="#000000" font-family="sans-serif" font-size="13" lengthAdjust="spacing" textLength="147.9067" x="45.9551" y="144.6606">PATCH /auth/password</text><text fill="#000000" font-family="sans-serif" font-size="13" lengthAdjust="spacing" textLength="129.6318" x="45.9551" y="159.7935">(currentPw, newPw)</text></g><g class="message" data-participant-1="AuthController" data-participant-2="AuthService"><polygon fill="#181818" points="537.1406,189.9922,547.1406,193.9922,537.1406,197.9922,541.1406,193.9922" style="stroke:#181818;stroke-width:1;"/><line style="stroke:#181818;stroke-width:1;" x1="210.8618" x2="543.1406" y1="193.9922" y2="193.9922"/><text fill="#000000" font-family="sans-serif" font-size="13" lengthAdjust="spacing" textLength="314.2788" x="217.8618" y="188.9263">changePassword(memberId, currentPw, newPw)</text></g><g class="message" data-participant-1="AuthService" data-participant-2="AuthRepository"><polygon fill="#181818" points="745.1401,219.125,755.1401,223.125,745.1401,227.125,749.1401,223.125" style="stroke:#181818;stroke-width:1;"/><line style="stroke:#181818;stroke-width:1;" x1="549.1406" x2="751.1401" y1="223.125" y2="223.125"/><text fill="#000000" font-family="sans-serif" font-size="13" lengthAdjust="spacing" textLength="183.9995" x="556.1406" y="218.0591">findByMemberId(memberId)</text></g><g class="message" data-participant-1="AuthRepository" data-participant-2="AuthService"><polygon fill="#181818" points="560.1406,248.2578,550.1406,252.2578,560.1406,256.2578,556.1406,252.2578" style="stroke:#181818;stroke-width:1;"/><line style="stroke:#181818;stroke-width:1;stroke-dasharray:2.0,2.0;" x1="554.1406" x2="756.1401" y1="252.2578" y2="252.2578"/><text fill="#000000" font-family="sans-serif" font-size="13" lengthAdjust="spacing" textLength="30.4688" x="566.1406" y="247.1919">Auth</text></g><g class="message" data-participant-1="AuthService" data-participant-2="Auth"><polygon fill="#181818" points="830.4888,277.3906,840.4888,281.3906,830.4888,285.3906,834.4888,281.3906" style="stroke:#181818;stroke-width:1;"/><line style="stroke:#181818;stroke-width:1;" x1="549.1406" x2="836.4888" y1="281.3906" y2="281.3906"/><text fill="#000000" font-family="sans-serif" font-size="13" lengthAdjust="spacing" textLength="236.9707" x="556.1406" y="276.3247">updatePassword(currentPw, newPw)</text></g><g class="message" data-participant-1="Auth" data-participant-2="Password"><polygon fill="#181818" points="1023.0596,306.5234,1033.0596,310.5234,1023.0596,314.5234,1027.0596,310.5234" style="stroke:#181818;stroke-width:1;"/><line style="stroke:#181818;stroke-width:1;" x1="852.4888" x2="1029.0596" y1="310.5234" y2="310.5234"/><text fill="#000000" font-family="sans-serif" font-size="13" lengthAdjust="spacing" textLength="131.9106" x="859.4888" y="305.4575">matches(currentPw)</text></g><g class="message" data-participant-1="Password" data-participant-2="Auth"><polygon fill="#181818" points="863.4888,335.6563,853.4888,339.6563,863.4888,343.6563,859.4888,339.6563" style="stroke:#181818;stroke-width:1;"/><line style="stroke:#181818;stroke-width:1;" x1="857.4888" x2="1034.0596" y1="339.6563" y2="339.6563"/><text fill="#000000" font-family="sans-serif" font-size="13" lengthAdjust="spacing" textLength="81.4722" x="869.4888" y="334.5903">true &#46608;&#45716; false</text></g><path d="M10,354.6563 L74.4429,354.6563 L74.4429,361.7891 L64.4429,371.7891 L10,371.7891 L10,354.6563" fill="#EEEEEE" style="stroke:#000000;stroke-width:1.5;"/><rect fill="none" height="235.8672" style="stroke:#000000;stroke-width:1.5;" width="1268.123" x="10" y="354.6563"/><text fill="#000000" font-family="sans-serif" font-size="13" font-weight="bold" lengthAdjust="spacing" textLength="19.4429" x="25" y="367.7231">alt</text><text fill="#000000" font-family="sans-serif" font-size="11" font-weight="bold" lengthAdjust="spacing" textLength="53.4907" x="89.4429" y="366.8667">[&#48708;&#48128;&#48264;&#54840; &#51068;&#52824;]</text><g class="message" data-participant-1="Auth" data-participant-2="Password"><polygon fill="#181818" points="1023.0596,388.9219,1033.0596,392.9219,1023.0596,396.9219,1027.0596,392.9219" style="stroke:#181818;stroke-width:1;"/><line style="stroke:#181818;stroke-width:1;" x1="852.4888" x2="1029.0596" y1="392.9219" y2="392.9219"/><text fill="#000000" font-family="sans-serif" font-size="13" lengthAdjust="spacing" textLength="158.5708" x="859.4888" y="387.856">createPassword(newPw)</text></g><g class="message" data-participant-1="Password" data-participant-2="Auth"><polygon fill="#181818" points="858.4888,418.0547,848.4888,422.0547,858.4888,426.0547,854.4888,422.0547" style="stroke:#181818;stroke-width:1;"/><line style="stroke:#181818;stroke-width:1;" x1="852.4888" x2="1034.0596" y1="422.0547" y2="422.0547"/><text fill="#000000" font-family="sans-serif" font-size="13" lengthAdjust="spacing" textLength="61.5342" x="864.4888" y="416.9888">Password</text></g><g class="message" data-participant-1="AuthService" data-participant-2="AuthRepository"><polygon fill="#181818" points="745.1401,447.1875,755.1401,451.1875,745.1401,455.1875,749.1401,451.1875" style="stroke:#181818;stroke-width:1;"/><line style="stroke:#181818;stroke-width:1;" x1="549.1406" x2="751.1401" y1="451.1875" y2="451.1875"/><text fill="#000000" font-family="sans-serif" font-size="13" lengthAdjust="spacing" textLength="71.043" x="556.1406" y="446.1216">save(Auth)</text></g><g class="message" data-participant-1="AuthService" data-participant-2="AuthController"><polygon fill="#181818" points="221.8618,476.3203,211.8618,480.3203,221.8618,484.3203,217.8618,480.3203" style="stroke:#181818;stroke-width:1;"/><line style="stroke:#181818;stroke-width:1;stroke-dasharray:2.0,2.0;" x1="215.8618" x2="548.1406" y1="480.3203" y2="480.3203"/><text fill="#000000" font-family="sans-serif" font-size="13" lengthAdjust="spacing" textLength="85.3315" x="227.8618" y="475.2544">HTTP 200 OK</text></g><g class="message" data-participant-1="AuthController" data-participant-2="User"><polygon fill="#181818" points="49.9551,505.4531,39.9551,509.4531,49.9551,513.4531,45.9551,509.4531" style="stroke:#181818;stroke-width:1;"/><line style="stroke:#181818;stroke-width:1;stroke-dasharray:2.0,2.0;" x1="43.9551" x2="209.8618" y1="509.4531" y2="509.4531"/><text fill="#000000" font-family="sans-serif" font-size="13" lengthAdjust="spacing" textLength="85.3315" x="55.9551" y="504.3872">HTTP 200 OK</text></g><line style="stroke:#000000;stroke-width:1;stroke-dasharray:2.0,2.0;" x1="10" x2="1278.123" y1="518.4531" y2="518.4531"/><text fill="#000000" font-family="sans-serif" font-size="11" font-weight="bold" lengthAdjust="spacing" textLength="60.0918" x="15" y="528.6636">[&#48708;&#48128;&#48264;&#54840; &#48520;&#51068;&#52824;]</text><g class="message" data-participant-1="Auth" data-participant-2="ExceptionHandler"><polygon fill="#181818" points="1164.6582,549.3906,1174.6582,553.3906,1164.6582,557.3906,1168.6582,553.3906" style="stroke:#181818;stroke-width:1;"/><line style="stroke:#181818;stroke-width:1;stroke-dasharray:2.0,2.0;" x1="847.4888" x2="1170.6582" y1="553.3906" y2="553.3906"/><text fill="#000000" font-family="sans-serif" font-size="13" lengthAdjust="spacing" textLength="210.3486" x="854.4888" y="548.3247">throw InvalidPasswordException</text></g><g class="message" data-participant-1="ExceptionHandler" data-participant-2="User"><polygon fill="#181818" points="49.9551,578.5234,39.9551,582.5234,49.9551,586.5234,45.9551,582.5234" style="stroke:#181818;stroke-width:1;"/><line style="stroke:#181818;stroke-width:1;stroke-dasharray:2.0,2.0;" x1="43.9551" x2="1175.6582" y1="582.5234" y2="582.5234"/><text fill="#000000" font-family="sans-serif" font-size="13" lengthAdjust="spacing" textLength="149.2334" x="55.9551" y="577.4575">HTTP 400 Bad Request</text></g><!--SRC=[XLEnJiCm4Dtz5QTEZTIA2Z4n85g4A4A82Ch6uiPNQYbrWkqqT6DWg9WO6Bhm3uW1KOa_Ila7hY5DcpI8zUwzT- -TprPQ7o4A1RVeScFYG0l6k6S33TS6DGkvjjAJ8LSMsf4T7WNAwi3tArfNgCVImwtw9OQ1aQGuOQYij9EqMe3bepUBn_SUXbO6gikLe8703THE_A3F_NBhHjKFryxQOkd3gJ6sZ03DWv9ps0UttJlgmWwd-awO3ISHBzAQFBfn0nJ6RkmmLg9cObbMKlA6NDtckwkFSDH7VIeQy8VMYfa9hPT3MWEfH6TodadaMWuh8PjRBjADLkbJh_Yw5HdfkUMO8BygAOlOAm8fZBZrXcZML8VbtVKSgoE4PFQSFBt0WFi6wP1y2ydyCNbxIDwdtxDFMBn-BUOp1b0nnTEuwJCp1r0nAhyN0855-m3_RTdmCTQNLQSChhgKRg_dmcwh1HTd6Npp6eYHtbWHnv3I5uCd7zDITg9kNJWjSQY364xLcFjIh6BcE29lSSeUziX3XmkunBi8ZQK_9zWF]--></g></svg>