<svg xmlns="http://www.w3.org/2000/svg" xmlns:xlink="http://www.w3.org/1999/xlink" contentStyleType="text/css" data-diagram-type="SEQUENCE" height="525px" preserveAspectRatio="none" style="width:1051px;height:525px;background:#FFFFFF;" version="1.1" viewBox="0 0 1051 525" width="1051px" zoomAndPan="magnify"><title>updatePassword</title><defs/><g><text fill="#000000" font-family="sans-serif" font-size="14" font-weight="bold" lengthAdjust="spacing" textLength="131.4961" x="458.9182" y="27.9951">updatePassword</text><g><title>User</title><rect fill="#000000" fill-opacity="0.00000" height="326.4609" width="8" x="19.9551" y="118.5938"/><line style="stroke:#181818;stroke-width:0.5;stroke-dasharray:5.0,5.0;" x1="23" x2="23" y1="118.5938" y2="445.0547"/></g><g><title>AuthController</title><rect fill="#000000" fill-opacity="0.00000" height="326.4609" width="8" x="290.6504" y="118.5938"/><line style="stroke:#181818;stroke-width:0.5;stroke-dasharray:5.0,5.0;" x1="293.6577" x2="293.6577" y1="118.5938" y2="445.0547"/></g><g><title>AuthService</title><rect fill="#000000" fill-opacity="0.00000" height="326.4609" width="8" x="524.5928" y="118.5938"/><line style="stroke:#181818;stroke-width:0.5;stroke-dasharray:5.0,5.0;" x1="528.3159" x2="528.3159" y1="118.5938" y2="445.0547"/></g><g><title>AuthRepository</title><rect fill="#000000" fill-opacity="0.00000" height="326.4609" width="8" x="732.5923" y="118.5938"/><line style="stroke:#181818;stroke-width:0.5;stroke-dasharray:5.0,5.0;" x1="735.6499" x2="735.6499" y1="118.5938" y2="445.0547"/></g><g><title>Auth</title><rect fill="#000000" fill-opacity="0.00000" height="326.4609" width="8" x="822.9409" y="118.5938"/><line style="stroke:#181818;stroke-width:0.5;stroke-dasharray:5.0,5.0;" x1="826.5347" x2="826.5347" y1="118.5938" y2="445.0547"/></g><g><title>Password</title><rect fill="#000000" fill-opacity="0.00000" height="326.4609" width="8" x="892.481" y="118.5938"/><line style="stroke:#181818;stroke-width:0.5;stroke-dasharray:5.0,5.0;" x1="896.3472" x2="896.3472" y1="118.5938" y2="445.0547"/></g><g><title>JWTProvider</title><rect fill="#000000" fill-opacity="0.00000" height="326.4609" width="8" x="991.9736" y="118.5938"/><line style="stroke:#181818;stroke-width:0.5;stroke-dasharray:5.0,5.0;" x1="995.6147" x2="995.6147" y1="118.5938" y2="445.0547"/></g><g class="participant participant-head" data-participant="User"><text fill="#000000" font-family="sans-serif" font-size="14" lengthAdjust="spacing" textLength="31.9102" x="5" y="115.292">User</text><ellipse cx="23.9551" cy="50.7969" fill="#E2E2F0" rx="8" ry="8" style="stroke:#181818;stroke-width:0.5;"/><path d="M23.9551,58.7969 L23.9551,85.7969 M10.9551,66.7969 L36.9551,66.7969 M23.9551,85.7969 L10.9551,100.7969 M23.9551,85.7969 L36.9551,100.7969" fill="none" style="stroke:#181818;stroke-width:0.5;"/></g><g class="participant participant-tail" data-participant="User"><text fill="#000000" font-family="sans-serif" font-size="14" lengthAdjust="spacing" textLength="31.9102" x="5" y="457.0498">User</text><ellipse cx="23.9551" cy="468.8516" fill="#E2E2F0" rx="8" ry="8" style="stroke:#181818;stroke-width:0.5;"/><path d="M23.9551,476.8516 L23.9551,503.8516 M10.9551,484.8516 L36.9551,484.8516 M23.9551,503.8516 L10.9551,518.8516 M23.9551,503.8516 L36.9551,518.8516" fill="none" style="stroke:#181818;stroke-width:0.5;"/></g><g class="participant participant-head" data-participant="AuthController"><rect fill="#E2E2F0" height="30.2969" rx="2.5" ry="2.5" style="stroke:#181818;stroke-width:0.5;" width="115.9854" x="236.6577" y="87.2969"/><text fill="#000000" font-family="sans-serif" font-size="14" lengthAdjust="spacing" textLength="101.9854" x="243.6577" y="107.292">AuthController</text></g><g class="participant participant-tail" data-participant="AuthController"><rect fill="#E2E2F0" height="30.2969" rx="2.5" ry="2.5" style="stroke:#181818;stroke-width:0.5;" width="115.9854" x="236.6577" y="444.0547"/><text fill="#000000" font-family="sans-serif" font-size="14" lengthAdjust="spacing" textLength="101.9854" x="243.6577" y="464.0498">AuthController</text></g><g class="participant participant-head" data-participant="AuthService"><rect fill="#E2E2F0" height="30.2969" rx="2.5" ry="2.5" style="stroke:#181818;stroke-width:0.5;" width="98.5537" x="479.3159" y="87.2969"/><text fill="#000000" font-family="sans-serif" font-size="14" lengthAdjust="spacing" textLength="84.5537" x="486.3159" y="107.292">AuthService</text></g><g class="participant participant-tail" data-participant="AuthService"><rect fill="#E2E2F0" height="30.2969" rx="2.5" ry="2.5" style="stroke:#181818;stroke-width:0.5;" width="98.5537" x="479.3159" y="444.0547"/><text fill="#000000" font-family="sans-serif" font-size="14" lengthAdjust="spacing" textLength="84.5537" x="486.3159" y="464.0498">AuthService</text></g><g class="participant participant-head" data-participant="AuthRepository"><rect fill="#E2E2F0" height="30.2969" rx="2.5" ry="2.5" style="stroke:#181818;stroke-width:0.5;" width="121.8848" x="675.6499" y="87.2969"/><text fill="#000000" font-family="sans-serif" font-size="14" lengthAdjust="spacing" textLength="107.8848" x="682.6499" y="107.292">AuthRepository</text></g><g class="participant participant-tail" data-participant="AuthRepository"><rect fill="#E2E2F0" height="30.2969" rx="2.5" ry="2.5" style="stroke:#181818;stroke-width:0.5;" width="121.8848" x="675.6499" y="444.0547"/><text fill="#000000" font-family="sans-serif" font-size="14" lengthAdjust="spacing" textLength="107.8848" x="682.6499" y="464.0498">AuthRepository</text></g><g class="participant participant-head" data-participant="Auth"><text fill="#000000" font-family="sans-serif" font-size="14" lengthAdjust="spacing" textLength="32.8125" x="807.5347" y="115.292">Auth</text><ellipse cx="826.9409" cy="86.2969" fill="#E2E2F0" rx="12" ry="12" style="stroke:#181818;stroke-width:0.5;"/><line style="stroke:#181818;stroke-width:0.5;" x1="814.9409" x2="838.9409" y1="100.2969" y2="100.2969"/></g><g class="participant participant-tail" data-participant="Auth"><text fill="#000000" font-family="sans-serif" font-size="14" lengthAdjust="spacing" textLength="32.8125" x="807.5347" y="457.0498">Auth</text><ellipse cx="826.9409" cy="476.3516" fill="#E2E2F0" rx="12" ry="12" style="stroke:#181818;stroke-width:0.5;"/><line style="stroke:#181818;stroke-width:0.5;" x1="814.9409" x2="838.9409" y1="490.3516" y2="490.3516"/></g><g class="participant participant-head" data-participant="Password"><rect fill="#E2E2F0" height="30.2969" rx="2.5" ry="2.5" style="stroke:#181818;stroke-width:0.5;" width="80.2676" x="856.3472" y="87.2969"/><text fill="#000000" font-family="sans-serif" font-size="14" lengthAdjust="spacing" textLength="66.2676" x="863.3472" y="107.292">Password</text></g><g class="participant participant-tail" data-participant="Password"><rect fill="#E2E2F0" height="30.2969" rx="2.5" ry="2.5" style="stroke:#181818;stroke-width:0.5;" width="80.2676" x="856.3472" y="444.0547"/><text fill="#000000" font-family="sans-serif" font-size="14" lengthAdjust="spacing" textLength="66.2676" x="863.3472" y="464.0498">Password</text></g><g class="participant participant-head" data-participant="JWTProvider"><rect fill="#E2E2F0" height="30.2969" rx="2.5" ry="2.5" style="stroke:#181818;stroke-width:0.5;" width="98.7178" x="946.6147" y="87.2969"/><text fill="#000000" font-family="sans-serif" font-size="14" lengthAdjust="spacing" textLength="84.7178" x="953.6147" y="107.292">JWTProvider</text></g><g class="participant participant-tail" data-participant="JWTProvider"><rect fill="#E2E2F0" height="30.2969" rx="2.5" ry="2.5" style="stroke:#181818;stroke-width:0.5;" width="98.7178" x="946.6147" y="444.0547"/><text fill="#000000" font-family="sans-serif" font-size="14" lengthAdjust="spacing" textLength="84.7178" x="953.6147" y="464.0498">JWTProvider</text></g><g class="message" data-participant-1="User" data-participant-2="AuthController"><polygon fill="#181818" points="282.6504,160.8594,292.6504,164.8594,282.6504,168.8594,286.6504,164.8594" style="stroke:#181818;stroke-width:1;"/><line style="stroke:#181818;stroke-width:1;" x1="23.9551" x2="288.6504" y1="164.8594" y2="164.8594"/><text fill="#000000" font-family="sans-serif" font-size="13" lengthAdjust="spacing" textLength="147.9067" x="30.9551" y="144.6606">PATCH /auth/password</text><text fill="#000000" font-family="sans-serif" font-size="13" lengthAdjust="spacing" textLength="246.6953" x="30.9551" y="159.7935">(Authorization: Bearer Token, newPw)</text></g><g class="message" data-participant-1="AuthController" data-participant-2="AuthService"><polygon fill="#181818" points="516.5928,189.9922,526.5928,193.9922,516.5928,197.9922,520.5928,193.9922" style="stroke:#181818;stroke-width:1;"/><line style="stroke:#181818;stroke-width:1;" x1="294.6504" x2="522.5928" y1="193.9922" y2="193.9922"/><text fill="#000000" font-family="sans-serif" font-size="13" lengthAdjust="spacing" textLength="209.9424" x="301.6504" y="188.9263">changePassword(token, newPw)</text></g><g class="message" data-participant-1="AuthService" data-participant-2="JWTProvider"><polygon fill="#181818" points="983.9736,219.125,993.9736,223.125,983.9736,227.125,987.9736,223.125" style="stroke:#181818;stroke-width:1;"/><line style="stroke:#181818;stroke-width:1;" x1="528.5928" x2="989.9736" y1="223.125" y2="223.125"/><text fill="#000000" font-family="sans-serif" font-size="13" lengthAdjust="spacing" textLength="234.2603" x="535.5928" y="218.0591">parsePasswordChangeToken(token)</text></g><g class="message" data-participant-1="JWTProvider" data-participant-2="AuthService"><polygon fill="#181818" points="539.5928,248.2578,529.5928,252.2578,539.5928,256.2578,535.5928,252.2578" style="stroke:#181818;stroke-width:1;"/><line style="stroke:#181818;stroke-width:1;stroke-dasharray:2.0,2.0;" x1="533.5928" x2="994.9736" y1="252.2578" y2="252.2578"/><text fill="#000000" font-family="sans-serif" font-size="13" lengthAdjust="spacing" textLength="67.0059" x="545.5928" y="247.1919">memberId</text></g><g class="message" data-participant-1="AuthService" data-participant-2="AuthRepository"><polygon fill="#181818" points="724.5923,277.3906,734.5923,281.3906,724.5923,285.3906,728.5923,281.3906" style="stroke:#181818;stroke-width:1;"/><line style="stroke:#181818;stroke-width:1;" x1="528.5928" x2="730.5923" y1="281.3906" y2="281.3906"/><text fill="#000000" font-family="sans-serif" font-size="13" lengthAdjust="spacing" textLength="183.9995" x="535.5928" y="276.3247">findByMemberId(memberId)</text></g><g class="message" data-participant-1="AuthRepository" data-participant-2="AuthService"><polygon fill="#181818" points="539.5928,306.5234,529.5928,310.5234,539.5928,314.5234,535.5928,310.5234" style="stroke:#181818;stroke-width:1;"/><line style="stroke:#181818;stroke-width:1;stroke-dasharray:2.0,2.0;" x1="533.5928" x2="735.5923" y1="310.5234" y2="310.5234"/><text fill="#000000" font-family="sans-serif" font-size="13" lengthAdjust="spacing" textLength="30.4688" x="545.5928" y="305.4575">Auth</text></g><g class="message" data-participant-1="AuthService" data-participant-2="Auth"><polygon fill="#181818" points="814.9409,335.6563,824.9409,339.6563,814.9409,343.6563,818.9409,339.6563" style="stroke:#181818;stroke-width:1;"/><line style="stroke:#181818;stroke-width:1;" x1="528.5928" x2="820.9409" y1="339.6563" y2="339.6563"/><text fill="#000000" font-family="sans-serif" font-size="13" lengthAdjust="spacing" textLength="162.8237" x="535.5928" y="334.5903">updatePassword(newPw)</text></g><g class="message" data-participant-1="AuthService" data-participant-2="AuthRepository"><polygon fill="#181818" points="724.5923,364.7891,734.5923,368.7891,724.5923,372.7891,728.5923,368.7891" style="stroke:#181818;stroke-width:1;"/><line style="stroke:#181818;stroke-width:1;" x1="528.5928" x2="730.5923" y1="368.7891" y2="368.7891"/><text fill="#000000" font-family="sans-serif" font-size="13" lengthAdjust="spacing" textLength="71.043" x="535.5928" y="363.7231">save(Auth)</text></g><g class="message" data-participant-1="AuthService" data-participant-2="AuthController"><polygon fill="#181818" points="305.6504,393.9219,295.6504,397.9219,305.6504,401.9219,301.6504,397.9219" style="stroke:#181818;stroke-width:1;"/><line style="stroke:#181818;stroke-width:1;stroke-dasharray:2.0,2.0;" x1="299.6504" x2="527.5928" y1="397.9219" y2="397.9219"/><text fill="#000000" font-family="sans-serif" font-size="13" lengthAdjust="spacing" textLength="27.5107" x="311.6504" y="392.856">void</text></g><g class="message" data-participant-1="AuthController" data-participant-2="User"><polygon fill="#181818" points="34.9551,423.0547,24.9551,427.0547,34.9551,431.0547,30.9551,427.0547" style="stroke:#181818;stroke-width:1;"/><line style="stroke:#181818;stroke-width:1;stroke-dasharray:2.0,2.0;" x1="28.9551" x2="293.6504" y1="427.0547" y2="427.0547"/><text fill="#000000" font-family="sans-serif" font-size="13" lengthAdjust="spacing" textLength="85.3315" x="40.9551" y="421.9888">HTTP 200 OK</text></g><!--SRC=[TP8_JyCm4CLtVueR4ucg5MC6f3PB0I4i269XCV51BL8xig-9mgV7DMcKnEbw_httxez9KOLmggKWvCAvrbZ9c2Z9M7XpQ5ajBAbIrK8JR4zqo8qcQwfguUaLRQDAZEelM1kdl6F7K9EYBbGds10zBZwy5zoQHacVnSxDmEfkrWDamBT5leUryFLrtTjywEJC6Qj-1IcZCzYXi1ulp0_g6z3OyZPbR6RMs_TpUE_o8FJti9U4OlM5zT9Hkrxg1t63CWy-8VpV96LZUXK57_7uYVPUHY7JVNhoIscvwvvwFha8KpOZuunmX2L__pRz4CcLYQDcd6WmR3wTeajtQuoIqG4y60wTmRueEDnkDl3yoFu0]--></g></svg>