<svg xmlns="http://www.w3.org/2000/svg" xmlns:xlink="http://www.w3.org/1999/xlink" contentStyleType="text/css" data-diagram-type="SEQUENCE" height="438px" preserveAspectRatio="none" style="width:799px;height:438px;background:#FFFFFF;" version="1.1" viewBox="0 0 799 438" width="799px" zoomAndPan="magnify"><title>&#51060;&#47700;&#51068; &#51064;&#51613; &#53076;&#46300; &#54869;&#51064;</title><defs/><g><text fill="#000000" font-family="sans-serif" font-size="14" font-weight="bold" lengthAdjust="spacing" textLength="90.2344" x="353.7009" y="27.9951">&#51060;&#47700;&#51068; &#51064;&#51613; &#53076;&#46300; &#54869;&#51064;</text><g><title>User</title><rect fill="#000000" fill-opacity="0.00000" height="239.0625" width="8" x="19.9551" y="118.5938"/><line style="stroke:#181818;stroke-width:0.5;stroke-dasharray:5.0,5.0;" x1="23" x2="23" y1="118.5938" y2="357.6563"/></g><g><title>AuthController</title><rect fill="#000000" fill-opacity="0.00000" height="239.0625" width="8" x="304.812" y="118.5938"/><line style="stroke:#181818;stroke-width:0.5;stroke-dasharray:5.0,5.0;" x1="307.8193" x2="307.8193" y1="118.5938" y2="357.6563"/></g><g><title>AuthService</title><rect fill="#000000" fill-opacity="0.00000" height="239.0625" width="8" x="443.292" y="118.5938"/><line style="stroke:#181818;stroke-width:0.5;stroke-dasharray:5.0,5.0;" x1="447.0151" x2="447.0151" y1="118.5938" y2="357.6563"/></g><g><title>PendingAuthRepository</title><rect fill="#000000" fill-opacity="0.00000" height="239.0625" width="8" x="591.7437" y="118.5938"/><line style="stroke:#181818;stroke-width:0.5;stroke-dasharray:5.0,5.0;" x1="595.5688" x2="595.5688" y1="118.5938" y2="357.6563"/></g><g><title>JWTProvider</title><rect fill="#000000" fill-opacity="0.00000" height="239.0625" width="8" x="740.2773" y="118.5938"/><line style="stroke:#181818;stroke-width:0.5;stroke-dasharray:5.0,5.0;" x1="743.9185" x2="743.9185" y1="118.5938" y2="357.6563"/></g><g class="participant participant-head" data-participant="User"><text fill="#000000" font-family="sans-serif" font-size="14" lengthAdjust="spacing" textLength="31.9102" x="5" y="115.292">User</text><ellipse cx="23.9551" cy="50.7969" fill="#E2E2F0" rx="8" ry="8" style="stroke:#181818;stroke-width:0.5;"/><path d="M23.9551,58.7969 L23.9551,85.7969 M10.9551,66.7969 L36.9551,66.7969 M23.9551,85.7969 L10.9551,100.7969 M23.9551,85.7969 L36.9551,100.7969" fill="none" style="stroke:#181818;stroke-width:0.5;"/></g><g class="participant participant-tail" data-participant="User"><text fill="#000000" font-family="sans-serif" font-size="14" lengthAdjust="spacing" textLength="31.9102" x="5" y="369.6514">User</text><ellipse cx="23.9551" cy="381.4531" fill="#E2E2F0" rx="8" ry="8" style="stroke:#181818;stroke-width:0.5;"/><path d="M23.9551,389.4531 L23.9551,416.4531 M10.9551,397.4531 L36.9551,397.4531 M23.9551,416.4531 L10.9551,431.4531 M23.9551,416.4531 L36.9551,431.4531" fill="none" style="stroke:#181818;stroke-width:0.5;"/></g><g class="participant participant-head" data-participant="AuthController"><rect fill="#E2E2F0" height="30.2969" rx="2.5" ry="2.5" style="stroke:#181818;stroke-width:0.5;" width="115.9854" x="250.8193" y="87.2969"/><text fill="#000000" font-family="sans-serif" font-size="14" lengthAdjust="spacing" textLength="101.9854" x="257.8193" y="107.292">AuthController</text></g><g class="participant participant-tail" data-participant="AuthController"><rect fill="#E2E2F0" height="30.2969" rx="2.5" ry="2.5" style="stroke:#181818;stroke-width:0.5;" width="115.9854" x="250.8193" y="356.6563"/><text fill="#000000" font-family="sans-serif" font-size="14" lengthAdjust="spacing" textLength="101.9854" x="257.8193" y="376.6514">AuthController</text></g><g class="participant participant-head" data-participant="AuthService"><rect fill="#E2E2F0" height="30.2969" rx="2.5" ry="2.5" style="stroke:#181818;stroke-width:0.5;" width="98.5537" x="398.0151" y="87.2969"/><text fill="#000000" font-family="sans-serif" font-size="14" lengthAdjust="spacing" textLength="84.5537" x="405.0151" y="107.292">AuthService</text></g><g class="participant participant-tail" data-participant="AuthService"><rect fill="#E2E2F0" height="30.2969" rx="2.5" ry="2.5" style="stroke:#181818;stroke-width:0.5;" width="98.5537" x="398.0151" y="356.6563"/><text fill="#000000" font-family="sans-serif" font-size="14" lengthAdjust="spacing" textLength="84.5537" x="405.0151" y="376.6514">AuthService</text></g><g class="participant participant-head" data-participant="PendingAuthRepository"><rect fill="#E2E2F0" height="30.2969" rx="2.5" ry="2.5" style="stroke:#181818;stroke-width:0.5;" width="178.3496" x="506.5688" y="87.2969"/><text fill="#000000" font-family="sans-serif" font-size="14" lengthAdjust="spacing" textLength="164.3496" x="513.5688" y="107.292">PendingAuthRepository</text></g><g class="participant participant-tail" data-participant="PendingAuthRepository"><rect fill="#E2E2F0" height="30.2969" rx="2.5" ry="2.5" style="stroke:#181818;stroke-width:0.5;" width="178.3496" x="506.5688" y="356.6563"/><text fill="#000000" font-family="sans-serif" font-size="14" lengthAdjust="spacing" textLength="164.3496" x="513.5688" y="376.6514">PendingAuthRepository</text></g><g class="participant participant-head" data-participant="JWTProvider"><rect fill="#E2E2F0" height="30.2969" rx="2.5" ry="2.5" style="stroke:#181818;stroke-width:0.5;" width="98.7178" x="694.9185" y="87.2969"/><text fill="#000000" font-family="sans-serif" font-size="14" lengthAdjust="spacing" textLength="84.7178" x="701.9185" y="107.292">JWTProvider</text></g><g class="participant participant-tail" data-participant="JWTProvider"><rect fill="#E2E2F0" height="30.2969" rx="2.5" ry="2.5" style="stroke:#181818;stroke-width:0.5;" width="98.7178" x="694.9185" y="356.6563"/><text fill="#000000" font-family="sans-serif" font-size="14" lengthAdjust="spacing" textLength="84.7178" x="701.9185" y="376.6514">JWTProvider</text></g><g class="message" data-participant-1="User" data-participant-2="AuthController"><polygon fill="#181818" points="296.812,145.7266,306.812,149.7266,296.812,153.7266,300.812,149.7266" style="stroke:#181818;stroke-width:1;"/><line style="stroke:#181818;stroke-width:1;" x1="23.9551" x2="302.812" y1="149.7266" y2="149.7266"/><text fill="#000000" font-family="sans-serif" font-size="13" lengthAdjust="spacing" textLength="260.8569" x="30.9551" y="144.6606">GET /auth/verify?code=verificationCode</text></g><g class="message" data-participant-1="AuthController" data-participant-2="AuthService"><polygon fill="#181818" points="435.292,174.8594,445.292,178.8594,435.292,182.8594,439.292,178.8594" style="stroke:#181818;stroke-width:1;"/><line style="stroke:#181818;stroke-width:1;" x1="308.812" x2="441.292" y1="178.8594" y2="178.8594"/><text fill="#000000" font-family="sans-serif" font-size="13" lengthAdjust="spacing" textLength="114.48" x="315.812" y="173.7935">verifyEmail(code)</text></g><g class="message" data-participant-1="AuthService" data-participant-2="PendingAuthRepository"><polygon fill="#181818" points="583.7437,203.9922,593.7437,207.9922,583.7437,211.9922,587.7437,207.9922" style="stroke:#181818;stroke-width:1;"/><line style="stroke:#181818;stroke-width:1;" x1="447.292" x2="589.7437" y1="207.9922" y2="207.9922"/><text fill="#000000" font-family="sans-serif" font-size="13" lengthAdjust="spacing" textLength="116.0669" x="454.292" y="202.9263">findByCode(code)</text></g><g class="message" data-participant-1="PendingAuthRepository" data-participant-2="AuthService"><polygon fill="#181818" points="458.292,233.125,448.292,237.125,458.292,241.125,454.292,237.125" style="stroke:#181818;stroke-width:1;"/><line style="stroke:#181818;stroke-width:1;stroke-dasharray:2.0,2.0;" x1="452.292" x2="594.7437" y1="237.125" y2="237.125"/><text fill="#000000" font-family="sans-serif" font-size="13" lengthAdjust="spacing" textLength="35.8516" x="464.292" y="232.0591">email</text></g><g class="message" data-participant-1="AuthService" data-participant-2="JWTProvider"><polygon fill="#181818" points="732.2773,262.2578,742.2773,266.2578,732.2773,270.2578,736.2773,266.2578" style="stroke:#181818;stroke-width:1;"/><line style="stroke:#181818;stroke-width:1;" x1="447.292" x2="738.2773" y1="266.2578" y2="266.2578"/><text fill="#000000" font-family="sans-serif" font-size="13" lengthAdjust="spacing" textLength="163.8965" x="454.292" y="261.1919">issueSignupToken(email)</text></g><g class="message" data-participant-1="JWTProvider" data-participant-2="AuthService"><polygon fill="#181818" points="458.292,291.3906,448.292,295.3906,458.292,299.3906,454.292,295.3906" style="stroke:#181818;stroke-width:1;"/><line style="stroke:#181818;stroke-width:1;stroke-dasharray:2.0,2.0;" x1="452.292" x2="743.2773" y1="295.3906" y2="295.3906"/><text fill="#000000" font-family="sans-serif" font-size="13" lengthAdjust="spacing" textLength="84.5063" x="464.292" y="290.3247">SignupToken</text></g><g class="message" data-participant-1="AuthService" data-participant-2="User"><polygon fill="#181818" points="34.9551,335.6563,24.9551,339.6563,34.9551,343.6563,30.9551,339.6563" style="stroke:#181818;stroke-width:1;"/><line style="stroke:#181818;stroke-width:1;stroke-dasharray:2.0,2.0;" x1="28.9551" x2="446.292" y1="339.6563" y2="339.6563"/><text fill="#000000" font-family="sans-serif" font-size="13" lengthAdjust="spacing" textLength="67.9771" x="40.9551" y="319.4575">redirect to</text><text fill="#000000" font-family="sans-serif" font-size="13" lengthAdjust="spacing" textLength="215.8838" x="40.9551" y="334.5903">Email Signup Page(SignupToken)</text></g><!--SRC=[RP2nJiCm48PtFyMDoL1rhmG8gWg9AQ91B2oMVGsd1Zjod4Xv3ig0H5OaTWO6UAA6T-0ICgH9jjFl___-EtloAK9JVnu_3atzpTDNyrv3ytCuFh_1x-iB2q98vQs3knoToAJpf2YJniDbuH_NrdXdqtJcQOkk98KdUeH6aqdQvrlCR4uChauSD_Tnv6n9cecYhOJ5-QW9Ld2zYM4fMLsMw6XNNIYhyQoRIKbFrgnP4ADSJ-eNOyn_UFCaAGrQGYZ4qC3-sOKvkIEZhwgsf0_E6nUJIcpB9ZM3gzb3ULxWbX9JPB7TemcwK2Y6hYbv41ZnsThzv0eSQdAeF7WB3wOxlCz191CC1epm3m00]--></g></svg>