<svg xmlns="http://www.w3.org/2000/svg" xmlns:xlink="http://www.w3.org/1999/xlink" contentStyleType="text/css" data-diagram-type="SEQUENCE" height="409px" preserveAspectRatio="none" style="width:918px;height:409px;background:#FFFFFF;" version="1.1" viewBox="0 0 918 409" width="918px" zoomAndPan="magnify"><title>&#51060;&#47700;&#51068; &#51064;&#51613;</title><defs/><g><text fill="#000000" font-family="sans-serif" font-size="14" font-weight="bold" lengthAdjust="spacing" textLength="46.8809" x="434.8127" y="27.9951">&#51060;&#47700;&#51068; &#51064;&#51613;</text><g><title>User</title><rect fill="#000000" fill-opacity="0.00000" height="209.9297" width="8" x="19.9551" y="118.5938"/><line style="stroke:#181818;stroke-width:0.5;stroke-dasharray:5.0,5.0;" x1="23" x2="23" y1="118.5938" y2="328.5234"/></g><g><title>AuthController</title><rect fill="#000000" fill-opacity="0.00000" height="209.9297" width="8" x="247.8989" y="118.5938"/><line style="stroke:#181818;stroke-width:0.5;stroke-dasharray:5.0,5.0;" x1="250.9063" x2="250.9063" y1="118.5938" y2="328.5234"/></g><g><title>AuthService</title><rect fill="#000000" fill-opacity="0.00000" height="209.9297" width="8" x="459.2754" y="118.5938"/><line style="stroke:#181818;stroke-width:0.5;stroke-dasharray:5.0,5.0;" x1="462.9985" x2="462.9985" y1="118.5938" y2="328.5234"/></g><g><title>EmailService</title><rect fill="#000000" fill-opacity="0.00000" height="209.9297" width="8" x="667.8652" y="118.5938"/><line style="stroke:#181818;stroke-width:0.5;stroke-dasharray:5.0,5.0;" x1="671.5737" x2="671.5737" y1="118.5938" y2="328.5234"/></g><g><title>PendingAuthRepository</title><rect fill="#000000" fill-opacity="0.00000" height="209.9297" width="8" x="819.3315" y="118.5938"/><line style="stroke:#181818;stroke-width:0.5;stroke-dasharray:5.0,5.0;" x1="823.1567" x2="823.1567" y1="118.5938" y2="328.5234"/></g><g class="participant participant-head" data-participant="User"><text fill="#000000" font-family="sans-serif" font-size="14" lengthAdjust="spacing" textLength="31.9102" x="5" y="115.292">User</text><ellipse cx="23.9551" cy="50.7969" fill="#E2E2F0" rx="8" ry="8" style="stroke:#181818;stroke-width:0.5;"/><path d="M23.9551,58.7969 L23.9551,85.7969 M10.9551,66.7969 L36.9551,66.7969 M23.9551,85.7969 L10.9551,100.7969 M23.9551,85.7969 L36.9551,100.7969" fill="none" style="stroke:#181818;stroke-width:0.5;"/></g><g class="participant participant-tail" data-participant="User"><text fill="#000000" font-family="sans-serif" font-size="14" lengthAdjust="spacing" textLength="31.9102" x="5" y="340.5186">User</text><ellipse cx="23.9551" cy="352.3203" fill="#E2E2F0" rx="8" ry="8" style="stroke:#181818;stroke-width:0.5;"/><path d="M23.9551,360.3203 L23.9551,387.3203 M10.9551,368.3203 L36.9551,368.3203 M23.9551,387.3203 L10.9551,402.3203 M23.9551,387.3203 L36.9551,402.3203" fill="none" style="stroke:#181818;stroke-width:0.5;"/></g><g class="participant participant-head" data-participant="AuthController"><rect fill="#E2E2F0" height="30.2969" rx="2.5" ry="2.5" style="stroke:#181818;stroke-width:0.5;" width="115.9854" x="193.9063" y="87.2969"/><text fill="#000000" font-family="sans-serif" font-size="14" lengthAdjust="spacing" textLength="101.9854" x="200.9063" y="107.292">AuthController</text></g><g class="participant participant-tail" data-participant="AuthController"><rect fill="#E2E2F0" height="30.2969" rx="2.5" ry="2.5" style="stroke:#181818;stroke-width:0.5;" width="115.9854" x="193.9063" y="327.5234"/><text fill="#000000" font-family="sans-serif" font-size="14" lengthAdjust="spacing" textLength="101.9854" x="200.9063" y="347.5186">AuthController</text></g><g class="participant participant-head" data-participant="AuthService"><rect fill="#E2E2F0" height="30.2969" rx="2.5" ry="2.5" style="stroke:#181818;stroke-width:0.5;" width="98.5537" x="413.9985" y="87.2969"/><text fill="#000000" font-family="sans-serif" font-size="14" lengthAdjust="spacing" textLength="84.5537" x="420.9985" y="107.292">AuthService</text></g><g class="participant participant-tail" data-participant="AuthService"><rect fill="#E2E2F0" height="30.2969" rx="2.5" ry="2.5" style="stroke:#181818;stroke-width:0.5;" width="98.5537" x="413.9985" y="327.5234"/><text fill="#000000" font-family="sans-serif" font-size="14" lengthAdjust="spacing" textLength="84.5537" x="420.9985" y="347.5186">AuthService</text></g><g class="participant participant-head" data-participant="EmailService"><rect fill="#E2E2F0" height="30.2969" rx="2.5" ry="2.5" style="stroke:#181818;stroke-width:0.5;" width="104.583" x="619.5737" y="87.2969"/><text fill="#000000" font-family="sans-serif" font-size="14" lengthAdjust="spacing" textLength="90.583" x="626.5737" y="107.292">EmailService</text></g><g class="participant participant-tail" data-participant="EmailService"><rect fill="#E2E2F0" height="30.2969" rx="2.5" ry="2.5" style="stroke:#181818;stroke-width:0.5;" width="104.583" x="619.5737" y="327.5234"/><text fill="#000000" font-family="sans-serif" font-size="14" lengthAdjust="spacing" textLength="90.583" x="626.5737" y="347.5186">EmailService</text></g><g class="participant participant-head" data-participant="PendingAuthRepository"><rect fill="#E2E2F0" height="30.2969" rx="2.5" ry="2.5" style="stroke:#181818;stroke-width:0.5;" width="178.3496" x="734.1567" y="87.2969"/><text fill="#000000" font-family="sans-serif" font-size="14" lengthAdjust="spacing" textLength="164.3496" x="741.1567" y="107.292">PendingAuthRepository</text></g><g class="participant participant-tail" data-participant="PendingAuthRepository"><rect fill="#E2E2F0" height="30.2969" rx="2.5" ry="2.5" style="stroke:#181818;stroke-width:0.5;" width="178.3496" x="734.1567" y="327.5234"/><text fill="#000000" font-family="sans-serif" font-size="14" lengthAdjust="spacing" textLength="164.3496" x="741.1567" y="347.5186">PendingAuthRepository</text></g><g class="message" data-participant-1="User" data-participant-2="AuthController"><polygon fill="#181818" points="239.8989,160.8594,249.8989,164.8594,239.8989,168.8594,243.8989,164.8594" style="stroke:#181818;stroke-width:1;"/><line style="stroke:#181818;stroke-width:1;" x1="23.9551" x2="245.8989" y1="164.8594" y2="164.8594"/><text fill="#000000" font-family="sans-serif" font-size="13" lengthAdjust="spacing" textLength="203.9438" x="30.9551" y="144.6606">POST /auth/request-verification</text><text fill="#000000" font-family="sans-serif" font-size="13" lengthAdjust="spacing" textLength="52.3936" x="30.9551" y="159.7935">{email}</text></g><g class="message" data-participant-1="AuthController" data-participant-2="AuthService"><polygon fill="#181818" points="451.2754,189.9922,461.2754,193.9922,451.2754,197.9922,455.2754,193.9922" style="stroke:#181818;stroke-width:1;"/><line style="stroke:#181818;stroke-width:1;" x1="251.8989" x2="457.2754" y1="193.9922" y2="193.9922"/><text fill="#000000" font-family="sans-serif" font-size="13" lengthAdjust="spacing" textLength="187.3765" x="258.8989" y="188.9263">sendVerificationEmail(email)</text></g><g class="message" data-participant-1="AuthService" data-participant-2="EmailService"><polygon fill="#181818" points="659.8652,219.125,669.8652,223.125,659.8652,227.125,663.8652,223.125" style="stroke:#181818;stroke-width:1;"/><line style="stroke:#181818;stroke-width:1;" x1="463.2754" x2="665.8652" y1="223.125" y2="223.125"/><text fill="#000000" font-family="sans-serif" font-size="13" lengthAdjust="spacing" textLength="184.5898" x="470.2754" y="218.0591">sendVerificationCode(email)</text></g><g class="message" data-participant-1="EmailService" data-participant-2="AuthService"><polygon fill="#181818" points="474.2754,248.2578,464.2754,252.2578,474.2754,256.2578,470.2754,252.2578" style="stroke:#181818;stroke-width:1;"/><line style="stroke:#181818;stroke-width:1;stroke-dasharray:2.0,2.0;" x1="468.2754" x2="670.8652" y1="252.2578" y2="252.2578"/><text fill="#000000" font-family="sans-serif" font-size="13" lengthAdjust="spacing" textLength="106.1328" x="480.2754" y="247.1919">verificationCode</text></g><g class="message" data-participant-1="AuthService" data-participant-2="PendingAuthRepository"><polygon fill="#181818" points="811.3315,277.3906,821.3315,281.3906,811.3315,285.3906,815.3315,281.3906" style="stroke:#181818;stroke-width:1;"/><line style="stroke:#181818;stroke-width:1;" x1="463.2754" x2="817.3315" y1="281.3906" y2="281.3906"/><text fill="#000000" font-family="sans-serif" font-size="13" lengthAdjust="spacing" textLength="190.8232" x="470.2754" y="276.3247">save(email, verificationCode)</text></g><g class="message" data-participant-1="AuthService" data-participant-2="User"><polygon fill="#181818" points="34.9551,306.5234,24.9551,310.5234,34.9551,314.5234,30.9551,310.5234" style="stroke:#181818;stroke-width:1;"/><line style="stroke:#181818;stroke-width:1;stroke-dasharray:2.0,2.0;" x1="28.9551" x2="462.2754" y1="310.5234" y2="310.5234"/><text fill="#000000" font-family="sans-serif" font-size="13" lengthAdjust="spacing" textLength="162.481" x="40.9551" y="305.4575">HTTP 200 OK (&#51060;&#47700;&#51068; &#54869;&#51064; &#50836;&#52397;)</text></g><!--SRC=[AyaioKbLU3Dto-kLKzxCtGDaxNYpR2uNLs9oINwHGcXnQX5NGM9HIMPoPa5YNec2Osb9XdD-NabHVauE5gdWrAAopEHK577NtCJC76mI0QbvAPbvwI1zGQa5-SMPG1ihkRX0TYhesg5PfM2b4E0V7AAWdmWKrYzABInDBIxHBKijoapBJ4uioSpFYychJWLPLSk5fXDg5jG9G8EAWHQ78Ua4kr03h5cJYmjPBL0hilEnw7NEJqc5QKLHgejXRHcQDWohi0O8oCx4CgWTEXY6e3iOQ0mu0AqKF4920XIC30mK_BqLD10H_7RcL60SAxoPDUNDfhMQ0000]--></g></svg>