<svg xmlns="http://www.w3.org/2000/svg" xmlns:xlink="http://www.w3.org/1999/xlink" contentStyleType="text/css" data-diagram-type="SEQUENCE" height="803px" preserveAspectRatio="none" style="width:1383px;height:803px;background:#FFFFFF;" version="1.1" viewBox="0 0 1383 803" width="1383px" zoomAndPan="magnify"><title>verifyCurrentPassword</title><defs/><g><text fill="#000000" font-family="sans-serif" font-size="14" font-weight="bold" lengthAdjust="spacing" textLength="181.5967" x="599.7153" y="27.9951">verifyCurrentPassword</text><g><title>Auth</title><rect fill="#FFFFFF" height="58.2656" style="stroke:#181818;stroke-width:1;" width="10" x="869.3354" y="447.7969"/></g><rect fill="none" height="306.7422" style="stroke:#000000;stroke-width:1.5;" width="1194.0977" x="10" y="398.9219"/><rect fill="none" height="177.6016" style="stroke:#000000;stroke-width:1.5;" width="1174.0977" x="20" y="521.0625"/><g><title>User</title><rect fill="#000000" fill-opacity="0.00000" height="604.0703" width="8" x="44.9551" y="118.5938"/><line style="stroke:#181818;stroke-width:0.5;stroke-dasharray:5.0,5.0;" x1="48" x2="48" y1="118.5938" y2="722.6641"/></g><g><title>AuthController</title><rect fill="#000000" fill-opacity="0.00000" height="604.0703" width="8" x="248.8984" y="118.5938"/><line style="stroke:#181818;stroke-width:0.5;stroke-dasharray:5.0,5.0;" x1="251.9058" x2="251.9058" y1="118.5938" y2="722.6641"/></g><g><title>AuthService</title><rect fill="#000000" fill-opacity="0.00000" height="604.0703" width="8" x="571.9873" y="118.5938"/><line style="stroke:#181818;stroke-width:0.5;stroke-dasharray:5.0,5.0;" x1="575.7104" x2="575.7104" y1="118.5938" y2="722.6641"/></g><g><title>AuthRepository</title><rect fill="#000000" fill-opacity="0.00000" height="604.0703" width="8" x="779.9868" y="118.5938"/><line style="stroke:#181818;stroke-width:0.5;stroke-dasharray:5.0,5.0;" x1="783.0444" x2="783.0444" y1="118.5938" y2="722.6641"/></g><g><title>Auth</title><rect fill="#000000" fill-opacity="0.00000" height="604.0703" width="8" x="870.3354" y="118.5938"/><line style="stroke:#181818;stroke-width:0.5;stroke-dasharray:5.0,5.0;" x1="873.9292" x2="873.9292" y1="118.5938" y2="722.6641"/></g><g><title>Password</title><rect fill="#000000" fill-opacity="0.00000" height="604.0703" width="8" x="1031.2461" y="118.5938"/><line style="stroke:#181818;stroke-width:0.5;stroke-dasharray:5.0,5.0;" x1="1035.1123" x2="1035.1123" y1="118.5938" y2="722.6641"/></g><g><title>JWTProvider</title><rect fill="#000000" fill-opacity="0.00000" height="604.0703" width="8" x="1130.7388" y="118.5938"/><line style="stroke:#181818;stroke-width:0.5;stroke-dasharray:5.0,5.0;" x1="1134.3799" x2="1134.3799" y1="118.5938" y2="722.6641"/></g><g><title>GlobalExceptionHandler</title><rect fill="#000000" fill-opacity="0.00000" height="604.0703" width="8" x="1281.5625" y="118.5938"/><line style="stroke:#181818;stroke-width:0.5;stroke-dasharray:5.0,5.0;" x1="1285.0977" x2="1285.0977" y1="118.5938" y2="722.6641"/></g><g class="participant participant-head" data-participant="User"><text fill="#000000" font-family="sans-serif" font-size="14" lengthAdjust="spacing" textLength="31.9102" x="30" y="115.292">User</text><ellipse cx="48.9551" cy="50.7969" fill="#E2E2F0" rx="8" ry="8" style="stroke:#181818;stroke-width:0.5;"/><path d="M48.9551,58.7969 L48.9551,85.7969 M35.9551,66.7969 L61.9551,66.7969 M48.9551,85.7969 L35.9551,100.7969 M48.9551,85.7969 L61.9551,100.7969" fill="none" style="stroke:#181818;stroke-width:0.5;"/></g><g class="participant participant-tail" data-participant="User"><text fill="#000000" font-family="sans-serif" font-size="14" lengthAdjust="spacing" textLength="31.9102" x="30" y="734.6592">User</text><ellipse cx="48.9551" cy="746.4609" fill="#E2E2F0" rx="8" ry="8" style="stroke:#181818;stroke-width:0.5;"/><path d="M48.9551,754.4609 L48.9551,781.4609 M35.9551,762.4609 L61.9551,762.4609 M48.9551,781.4609 L35.9551,796.4609 M48.9551,781.4609 L61.9551,796.4609" fill="none" style="stroke:#181818;stroke-width:0.5;"/></g><g class="participant participant-head" data-participant="AuthController"><rect fill="#E2E2F0" height="30.2969" rx="2.5" ry="2.5" style="stroke:#181818;stroke-width:0.5;" width="115.9854" x="194.9058" y="87.2969"/><text fill="#000000" font-family="sans-serif" font-size="14" lengthAdjust="spacing" textLength="101.9854" x="201.9058" y="107.292">AuthController</text></g><g class="participant participant-tail" data-participant="AuthController"><rect fill="#E2E2F0" height="30.2969" rx="2.5" ry="2.5" style="stroke:#181818;stroke-width:0.5;" width="115.9854" x="194.9058" y="721.6641"/><text fill="#000000" font-family="sans-serif" font-size="14" lengthAdjust="spacing" textLength="101.9854" x="201.9058" y="741.6592">AuthController</text></g><g class="participant participant-head" data-participant="AuthService"><rect fill="#E2E2F0" height="30.2969" rx="2.5" ry="2.5" style="stroke:#181818;stroke-width:0.5;" width="98.5537" x="526.7104" y="87.2969"/><text fill="#000000" font-family="sans-serif" font-size="14" lengthAdjust="spacing" textLength="84.5537" x="533.7104" y="107.292">AuthService</text></g><g class="participant participant-tail" data-participant="AuthService"><rect fill="#E2E2F0" height="30.2969" rx="2.5" ry="2.5" style="stroke:#181818;stroke-width:0.5;" width="98.5537" x="526.7104" y="721.6641"/><text fill="#000000" font-family="sans-serif" font-size="14" lengthAdjust="spacing" textLength="84.5537" x="533.7104" y="741.6592">AuthService</text></g><g class="participant participant-head" data-participant="AuthRepository"><rect fill="#E2E2F0" height="30.2969" rx="2.5" ry="2.5" style="stroke:#181818;stroke-width:0.5;" width="121.8848" x="723.0444" y="87.2969"/><text fill="#000000" font-family="sans-serif" font-size="14" lengthAdjust="spacing" textLength="107.8848" x="730.0444" y="107.292">AuthRepository</text></g><g class="participant participant-tail" data-participant="AuthRepository"><rect fill="#E2E2F0" height="30.2969" rx="2.5" ry="2.5" style="stroke:#181818;stroke-width:0.5;" width="121.8848" x="723.0444" y="721.6641"/><text fill="#000000" font-family="sans-serif" font-size="14" lengthAdjust="spacing" textLength="107.8848" x="730.0444" y="741.6592">AuthRepository</text></g><g class="participant participant-head" data-participant="Auth"><text fill="#000000" font-family="sans-serif" font-size="14" lengthAdjust="spacing" textLength="32.8125" x="854.9292" y="115.292">Auth</text><ellipse cx="874.3354" cy="86.2969" fill="#E2E2F0" rx="12" ry="12" style="stroke:#181818;stroke-width:0.5;"/><line style="stroke:#181818;stroke-width:0.5;" x1="862.3354" x2="886.3354" y1="100.2969" y2="100.2969"/></g><g class="participant participant-tail" data-participant="Auth"><text fill="#000000" font-family="sans-serif" font-size="14" lengthAdjust="spacing" textLength="32.8125" x="854.9292" y="734.6592">Auth</text><ellipse cx="874.3354" cy="753.9609" fill="#E2E2F0" rx="12" ry="12" style="stroke:#181818;stroke-width:0.5;"/><line style="stroke:#181818;stroke-width:0.5;" x1="862.3354" x2="886.3354" y1="767.9609" y2="767.9609"/></g><g class="participant participant-head" data-participant="Password"><rect fill="#E2E2F0" height="30.2969" rx="2.5" ry="2.5" style="stroke:#181818;stroke-width:0.5;" width="80.2676" x="995.1123" y="87.2969"/><text fill="#000000" font-family="sans-serif" font-size="14" lengthAdjust="spacing" textLength="66.2676" x="1002.1123" y="107.292">Password</text></g><g class="participant participant-tail" data-participant="Password"><rect fill="#E2E2F0" height="30.2969" rx="2.5" ry="2.5" style="stroke:#181818;stroke-width:0.5;" width="80.2676" x="995.1123" y="721.6641"/><text fill="#000000" font-family="sans-serif" font-size="14" lengthAdjust="spacing" textLength="66.2676" x="1002.1123" y="741.6592">Password</text></g><g class="participant participant-head" data-participant="JWTProvider"><rect fill="#E2E2F0" height="30.2969" rx="2.5" ry="2.5" style="stroke:#181818;stroke-width:0.5;" width="98.7178" x="1085.3799" y="87.2969"/><text fill="#000000" font-family="sans-serif" font-size="14" lengthAdjust="spacing" textLength="84.7178" x="1092.3799" y="107.292">JWTProvider</text></g><g class="participant participant-tail" data-participant="JWTProvider"><rect fill="#E2E2F0" height="30.2969" rx="2.5" ry="2.5" style="stroke:#181818;stroke-width:0.5;" width="98.7178" x="1085.3799" y="721.6641"/><text fill="#000000" font-family="sans-serif" font-size="14" lengthAdjust="spacing" textLength="84.7178" x="1092.3799" y="741.6592">JWTProvider</text></g><g class="participant participant-head" data-participant="ExceptionHandler"><rect fill="#E2E2F0" height="46.5938" rx="2.5" ry="2.5" style="stroke:#181818;stroke-width:0.5;" width="182.9297" x="1194.0977" y="71"/><text fill="#000000" font-family="sans-serif" font-size="14" lengthAdjust="spacing" textLength="168.9297" x="1201.0977" y="90.9951">GlobalExceptionHandler</text><text fill="#000000" font-family="sans-serif" font-size="14" lengthAdjust="spacing" textLength="141.0459" x="1215.0396" y="107.292">(@ControllerAdvice)</text></g><g class="participant participant-tail" data-participant="ExceptionHandler"><rect fill="#E2E2F0" height="46.5938" rx="2.5" ry="2.5" style="stroke:#181818;stroke-width:0.5;" width="182.9297" x="1194.0977" y="721.6641"/><text fill="#000000" font-family="sans-serif" font-size="14" lengthAdjust="spacing" textLength="168.9297" x="1201.0977" y="741.6592">GlobalExceptionHandler</text><text fill="#000000" font-family="sans-serif" font-size="14" lengthAdjust="spacing" textLength="141.0459" x="1215.0396" y="757.9561">(@ControllerAdvice)</text></g><g><title>Auth</title><rect fill="#FFFFFF" height="58.2656" style="stroke:#181818;stroke-width:1;" width="10" x="869.3354" y="447.7969"/></g><g class="message" data-participant-1="User" data-participant-2="AuthController"><polygon fill="#181818" points="240.8984,160.8594,250.8984,164.8594,240.8984,168.8594,244.8984,164.8594" style="stroke:#181818;stroke-width:1;"/><line style="stroke:#181818;stroke-width:1;" x1="48.9551" x2="246.8984" y1="164.8594" y2="164.8594"/><text fill="#000000" font-family="sans-serif" font-size="13" lengthAdjust="spacing" textLength="179.9434" x="55.9551" y="144.6606">POST /auth/password/verify</text><text fill="#000000" font-family="sans-serif" font-size="13" lengthAdjust="spacing" textLength="76.0259" x="55.9551" y="159.7935">(currentPw)</text></g><g class="message" data-participant-1="AuthController" data-participant-2="AuthService"><polygon fill="#181818" points="563.9873,189.9922,573.9873,193.9922,563.9873,197.9922,567.9873,193.9922" style="stroke:#181818;stroke-width:1;"/><line style="stroke:#181818;stroke-width:1;" x1="252.8984" x2="569.9873" y1="193.9922" y2="193.9922"/><text fill="#000000" font-family="sans-serif" font-size="13" lengthAdjust="spacing" textLength="299.0889" x="259.8984" y="188.9263">verifyCurrentPassword(memberId, currentPw)</text></g><g class="message" data-participant-1="AuthService" data-participant-2="AuthRepository"><polygon fill="#181818" points="771.9868,219.125,781.9868,223.125,771.9868,227.125,775.9868,223.125" style="stroke:#181818;stroke-width:1;"/><line style="stroke:#181818;stroke-width:1;" x1="575.9873" x2="777.9868" y1="223.125" y2="223.125"/><text fill="#000000" font-family="sans-serif" font-size="13" lengthAdjust="spacing" textLength="183.9995" x="582.9873" y="218.0591">findByMemberId(memberId)</text></g><g class="message" data-participant-1="AuthRepository" data-participant-2="AuthService"><polygon fill="#181818" points="586.9873,248.2578,576.9873,252.2578,586.9873,256.2578,582.9873,252.2578" style="stroke:#181818;stroke-width:1;"/><line style="stroke:#181818;stroke-width:1;stroke-dasharray:2.0,2.0;" x1="580.9873" x2="782.9868" y1="252.2578" y2="252.2578"/><text fill="#000000" font-family="sans-serif" font-size="13" lengthAdjust="spacing" textLength="30.4688" x="592.9873" y="247.1919">Auth</text></g><g class="message" data-participant-1="AuthService" data-participant-2="Auth"><polygon fill="#181818" points="862.3354,277.3906,872.3354,281.3906,862.3354,285.3906,866.3354,281.3906" style="stroke:#181818;stroke-width:1;"/><line style="stroke:#181818;stroke-width:1;" x1="575.9873" x2="868.3354" y1="281.3906" y2="281.3906"/><text fill="#000000" font-family="sans-serif" font-size="13" lengthAdjust="spacing" textLength="174.478" x="582.9873" y="276.3247">verifyPassword(currentPw)</text></g><g class="message" data-participant-1="Auth" data-participant-2="AuthService"><polygon fill="#181818" points="586.9873,306.5234,576.9873,310.5234,586.9873,314.5234,582.9873,310.5234" style="stroke:#181818;stroke-width:1;"/><line style="stroke:#181818;stroke-width:1;stroke-dasharray:2.0,2.0;" x1="580.9873" x2="873.3354" y1="310.5234" y2="310.5234"/><text fill="#000000" font-family="sans-serif" font-size="13" lengthAdjust="spacing" textLength="113.9658" x="592.9873" y="305.4575">token(memberId)</text></g><g class="message" data-participant-1="AuthService" data-participant-2="AuthController"><polygon fill="#181818" points="263.8984,335.6563,253.8984,339.6563,263.8984,343.6563,259.8984,339.6563" style="stroke:#181818;stroke-width:1;"/><line style="stroke:#181818;stroke-width:1;stroke-dasharray:2.0,2.0;" x1="257.8984" x2="574.9873" y1="339.6563" y2="339.6563"/><text fill="#000000" font-family="sans-serif" font-size="13" lengthAdjust="spacing" textLength="113.9658" x="269.8984" y="334.5903">token(memberId)</text></g><g class="message" data-participant-1="AuthController" data-participant-2="User"><polygon fill="#181818" points="59.9551,379.9219,49.9551,383.9219,59.9551,387.9219,55.9551,383.9219" style="stroke:#181818;stroke-width:1;"/><line style="stroke:#181818;stroke-width:1;stroke-dasharray:2.0,2.0;" x1="53.9551" x2="251.8984" y1="383.9219" y2="383.9219"/><text fill="#000000" font-family="sans-serif" font-size="13" lengthAdjust="spacing" textLength="85.3315" x="65.9551" y="363.7231">HTTP 200 OK</text><text fill="#000000" font-family="sans-serif" font-size="13" lengthAdjust="spacing" textLength="113.9658" x="65.9551" y="378.856">token(memberId)</text></g><path d="M10,398.9219 L74.4429,398.9219 L74.4429,406.0547 L64.4429,416.0547 L10,416.0547 L10,398.9219" fill="#EEEEEE" style="stroke:#000000;stroke-width:1.5;"/><rect fill="none" height="306.7422" style="stroke:#000000;stroke-width:1.5;" width="1194.0977" x="10" y="398.9219"/><text fill="#000000" font-family="sans-serif" font-size="13" font-weight="bold" lengthAdjust="spacing" textLength="19.4429" x="25" y="411.9888">alt</text><text fill="#000000" font-family="sans-serif" font-size="11" font-weight="bold" lengthAdjust="spacing" textLength="35.2612" x="89.4429" y="411.1323">[&#50948;&#50640;&#49436; &#45149;</text><text fill="#000000" font-family="sans-serif" font-size="11" font-weight="bold" lengthAdjust="spacing" textLength="81.4688" x="89.4429" y="423.937">&#50500;&#47000;&#45716;&#48516;&#47532;&#54644;&#50556;&#54616;&#45716; &#44163;&#46308;]</text><g class="message" data-participant-1="Auth" data-participant-2="User"><polygon fill="#181818" points="59.9551,443.7969,49.9551,447.7969,59.9551,451.7969,55.9551,447.7969" style="stroke:#181818;stroke-width:1;"/><line style="stroke:#181818;stroke-width:1;stroke-dasharray:2.0,2.0;" x1="53.9551" x2="868.3354" y1="447.7969" y2="447.7969"/><text fill="#000000" font-family="sans-serif" font-size="13" lengthAdjust="spacing" textLength="373.8579" x="65.9551" y="442.731">HTTP 400 Bad Request (throw InvalidPasswordException)</text></g><g class="message" data-participant-1="Auth" data-participant-2="Password"><polygon fill="#181818" points="1023.2461,472.9297,1033.2461,476.9297,1023.2461,480.9297,1027.2461,476.9297" style="stroke:#181818;stroke-width:1;"/><line style="stroke:#181818;stroke-width:1;" x1="879.3354" x2="1029.2461" y1="476.9297" y2="476.9297"/><text fill="#000000" font-family="sans-serif" font-size="13" lengthAdjust="spacing" textLength="131.9106" x="886.3354" y="471.8638">matches(currentPw)</text></g><g class="message" data-participant-1="Password" data-participant-2="Auth"><polygon fill="#181818" points="885.3354,502.0625,875.3354,506.0625,885.3354,510.0625,881.3354,506.0625" style="stroke:#181818;stroke-width:1;"/><line style="stroke:#181818;stroke-width:1;" x1="879.3354" x2="1034.2461" y1="506.0625" y2="506.0625"/><text fill="#000000" font-family="sans-serif" font-size="13" lengthAdjust="spacing" textLength="81.4722" x="891.3354" y="500.9966">true &#46608;&#45716; false</text></g><path d="M20,521.0625 L84.4429,521.0625 L84.4429,528.1953 L74.4429,538.1953 L20,538.1953 L20,521.0625" fill="#EEEEEE" style="stroke:#000000;stroke-width:1.5;"/><rect fill="none" height="177.6016" style="stroke:#000000;stroke-width:1.5;" width="1174.0977" x="20" y="521.0625"/><text fill="#000000" font-family="sans-serif" font-size="13" font-weight="bold" lengthAdjust="spacing" textLength="19.4429" x="35" y="534.1294">alt</text><text fill="#000000" font-family="sans-serif" font-size="11" font-weight="bold" lengthAdjust="spacing" textLength="53.4907" x="99.4429" y="533.2729">[&#48708;&#48128;&#48264;&#54840; &#51068;&#52824;]</text><g class="message" data-participant-1="AuthService" data-participant-2="JWTProvider"><polygon fill="#181818" points="1122.7388,555.3281,1132.7388,559.3281,1122.7388,563.3281,1126.7388,559.3281" style="stroke:#181818;stroke-width:1;"/><line style="stroke:#181818;stroke-width:1;" x1="575.9873" x2="1128.7388" y1="559.3281" y2="559.3281"/><text fill="#000000" font-family="sans-serif" font-size="13" lengthAdjust="spacing" textLength="261.5107" x="582.9873" y="554.2622">issuePasswordChangeToken(memberId)</text></g><g class="message" data-participant-1="JWTProvider" data-participant-2="AuthService"><polygon fill="#181818" points="586.9873,584.4609,576.9873,588.4609,586.9873,592.4609,582.9873,588.4609" style="stroke:#181818;stroke-width:1;"/><line style="stroke:#181818;stroke-width:1;stroke-dasharray:2.0,2.0;" x1="580.9873" x2="1133.7388" y1="588.4609" y2="588.4609"/><text fill="#000000" font-family="sans-serif" font-size="13" lengthAdjust="spacing" textLength="36.8164" x="592.9873" y="583.395">token</text></g><g class="message" data-participant-1="AuthService" data-participant-2="AuthController"><polygon fill="#181818" points="263.8984,613.5938,253.8984,617.5938,263.8984,621.5938,259.8984,617.5938" style="stroke:#181818;stroke-width:1;"/><line style="stroke:#181818;stroke-width:1;stroke-dasharray:2.0,2.0;" x1="257.8984" x2="574.9873" y1="617.5938" y2="617.5938"/><text fill="#000000" font-family="sans-serif" font-size="13" lengthAdjust="spacing" textLength="36.8164" x="269.8984" y="612.5278">token</text></g><g class="message" data-participant-1="AuthController" data-participant-2="User"><polygon fill="#181818" points="59.9551,642.7266,49.9551,646.7266,59.9551,650.7266,55.9551,646.7266" style="stroke:#181818;stroke-width:1;"/><line style="stroke:#181818;stroke-width:1;stroke-dasharray:2.0,2.0;" x1="53.9551" x2="251.8984" y1="646.7266" y2="646.7266"/><text fill="#000000" font-family="sans-serif" font-size="13" lengthAdjust="spacing" textLength="136.4238" x="65.9551" y="641.6606">HTTP 200 OK (token)</text></g><line style="stroke:#000000;stroke-width:1;stroke-dasharray:2.0,2.0;" x1="20" x2="1194.0977" y1="655.7266" y2="655.7266"/><text fill="#000000" font-family="sans-serif" font-size="11" font-weight="bold" lengthAdjust="spacing" textLength="60.0918" x="25" y="665.937">[&#48708;&#48128;&#48264;&#54840; &#48520;&#51068;&#52824;]</text><g class="message" data-participant-1="Auth" data-participant-2="User"><polygon fill="#181818" points="59.9551,686.6641,49.9551,690.6641,59.9551,694.6641,55.9551,690.6641" style="stroke:#181818;stroke-width:1;"/><line style="stroke:#181818;stroke-width:1;stroke-dasharray:2.0,2.0;" x1="53.9551" x2="873.3354" y1="690.6641" y2="690.6641"/><text fill="#000000" font-family="sans-serif" font-size="13" lengthAdjust="spacing" textLength="373.8579" x="65.9551" y="685.5981">HTTP 400 Bad Request (throw InvalidPasswordException)</text></g><!--SRC=[hLC_RnCn5D_zAPuw9H9LAiJKeQAD42q8DMeFiNHnpo_4uc8VFj-5R21kg9WgbOWCBHDYOa0LggZKJuGltm7VvNAvE5UnC7XvVk_txzcQwm0XGSNxuswi50hTer4qaeeHGdqj5RoCK96GAirz7bAXOJVMWwuKMiaWQBWwHfLm7zVgHnZAY5l4CR4iN8-BwafRHLqlFdlbzPHCE7EudhppCTHSYdqgc1K2D8ADfu4yfO5xTI9QZvUATrckhxr1I6uDDdSSHx0DlSDZ3phKbZjXgQap3yb2-MLEepOXpcI9LKPWWHgJRGrnU8hgW3q05sinMG8jCxDOVIxOtlX5ELk1j8dJkRcceWYw2RzIM4ch2IeQri6qV8F2OQzWcy9i6gXdPcUAHMp3lkVruE7M5Xm-XnFXpja76MZ8BjFiotcMNeBvS6MxiabglaxDfy_c9ZNVVymclxB9tMoIL-3FzKTpyMrff4xpoDBiKGP7-3R6I4DB3vGSmO58QC3P8e_g9RNpty0Jgd6UvXnpftgo5dP8jJ_0g1vXTRlCMwiOmKpFStrz6aGujsLkK_FplRa-cqr_GtPrbzrE2G33LLO0Pucrps6nUHJ5kE3i3gXuZPuJ8goCtBDTb-VUhPQD_zvcgsYtEqJhUDMikJch_FwVJQ5W-VaB]--></g></svg>