<svg xmlns="http://www.w3.org/2000/svg" xmlns:xlink="http://www.w3.org/1999/xlink" contentStyleType="text/css" data-diagram-type="CLASS" height="367px" preserveAspectRatio="none" style="width:421px;height:367px;background:#FFFFFF;" version="1.1" viewBox="0 0 421 367" width="421px" zoomAndPan="magnify"><defs/><g><!--cluster board--><g class="cluster" data-entity="board" data-source-line="1" data-uid="ent0002" id="cluster_board"><path d="M8.5,6 L55.5127,6 A3.75,3.75 0 0 1 58.0127,8.5 L65.0127,28.2969 L411.5,28.2969 A2.5,2.5 0 0 1 414,30.7969 L414,357.5 A2.5,2.5 0 0 1 411.5,360 L8.5,360 A2.5,2.5 0 0 1 6,357.5 L6,8.5 A2.5,2.5 0 0 1 8.5,6" fill="none" style="stroke:#000000;stroke-width:1.5;"/><line style="stroke:#000000;stroke-width:1.5;" x1="6" x2="65.0127" y1="28.2969" y2="28.2969"/><text fill="#000000" font-family="sans-serif" font-size="14" font-weight="bold" lengthAdjust="spacing" textLength="46.0127" x="10" y="20.9951">board</text></g><!--class Board--><g class="entity" data-entity="Board" data-source-line="2" data-uid="ent0003" id="entity_Board"><rect fill="#F1F1F1" height="170.3438" rx="2.5" ry="2.5" style="stroke:#181818;stroke-width:0.5;" width="375.8359" x="22" y="41"/><ellipse cx="153.082" cy="61.1328" fill="#ADD1B2" rx="11" ry="11" style="stroke:#181818;stroke-width:1;"/><path d="M157.1914,67.1328 L149.4727,67.1328 L149.4727,54.7422 L157.1914,54.7422 L157.1914,56.8984 L151.9258,56.8984 L151.9258,59.5703 L156.6914,59.5703 L156.6914,61.7266 L151.9258,61.7266 L151.9258,64.9766 L157.1914,64.9766 L157.1914,67.1328 Z " fill="#000000"/><text fill="#000000" font-family="sans-serif" font-size="12" font-style="italic" lengthAdjust="spacing" textLength="109.1719" x="171.582" y="57.1387">&#171;Aggregate Root&#187;</text><text fill="#000000" font-family="sans-serif" font-size="14" lengthAdjust="spacing" textLength="41.3916" x="205.4722" y="72.9639">Board</text><line style="stroke:#181818;stroke-width:0.5;" x1="23" x2="396.8359" y1="81.2656" y2="81.2656"/><ellipse cx="33" cy="94.9141" fill="none" rx="3" ry="3" style="stroke:#038048;stroke-width:1;"/><text fill="#000000" font-family="sans-serif" font-size="14" lengthAdjust="spacing" textLength="92.2646" x="42" y="98.2607">Long boardId</text><ellipse cx="33" cy="111.2109" fill="none" rx="3" ry="3" style="stroke:#038048;stroke-width:1;"/><text fill="#000000" font-family="sans-serif" font-size="14" lengthAdjust="spacing" textLength="128.208" x="42" y="114.5576">String boardName</text><ellipse cx="33" cy="127.5078" fill="none" rx="3" ry="3" style="stroke:#038048;stroke-width:1;"/><text fill="#000000" font-family="sans-serif" font-size="14" lengthAdjust="spacing" textLength="107.4404" x="42" y="130.8545">Creator creator</text><ellipse cx="33" cy="143.8047" fill="none" rx="3" ry="3" style="stroke:#038048;stroke-width:1;"/><text fill="#000000" font-family="sans-serif" font-size="14" lengthAdjust="spacing" textLength="139.4121" x="42" y="147.1514">createdAt dateTime</text><line style="stroke:#181818;stroke-width:1;" x1="23" x2="396.8359" y1="154.4531" y2="154.4531"/><ellipse cx="33" cy="168.1016" fill="#84BE84" rx="3" ry="3" style="stroke:#038048;stroke-width:1;"/><text fill="#000000" font-family="sans-serif" font-size="14" lengthAdjust="spacing" textLength="349.8359" x="42" y="171.4482">create(String boardName, Long creatorId) : Board</text><ellipse cx="33" cy="184.3984" fill="#84BE84" rx="3" ry="3" style="stroke:#038048;stroke-width:1;"/><text fill="#000000" font-family="sans-serif" font-size="14" lengthAdjust="spacing" textLength="55.0293" x="42" y="187.7451">delete()</text><ellipse cx="33" cy="200.6953" fill="#84BE84" rx="3" ry="3" style="stroke:#038048;stroke-width:1;"/><text fill="#000000" font-family="sans-serif" font-size="14" lengthAdjust="spacing" textLength="261.584" x="42" y="204.042">verifyBoardName(String boardName)</text></g><!--class Creator--><g class="entity" data-entity="Creator" data-source-line="13" data-uid="ent0004" id="entity_Creator"><rect fill="#F1F1F1" height="72.5625" rx="2.5" ry="2.5" style="stroke:#181818;stroke-width:0.5;" width="145.9023" x="137" y="271"/><ellipse cx="163.8389" cy="291.1328" fill="#ADD1B2" rx="11" ry="11" style="stroke:#181818;stroke-width:1;"/><path d="M166.8076,296.7734 Q166.2295,297.0703 165.5889,297.2109 Q164.9482,297.3672 164.2451,297.3672 Q161.7451,297.3672 160.417,295.7266 Q159.1045,294.0703 159.1045,290.9453 Q159.1045,287.8203 160.417,286.1641 Q161.7451,284.5078 164.2451,284.5078 Q164.9482,284.5078 165.5889,284.6641 Q166.2451,284.8203 166.8076,285.1172 L166.8076,287.8359 Q166.1826,287.2578 165.5889,286.9922 Q164.9951,286.7109 164.3701,286.7109 Q163.0264,286.7109 162.3389,287.7891 Q161.6514,288.8516 161.6514,290.9453 Q161.6514,293.0391 162.3389,294.1172 Q163.0264,295.1797 164.3701,295.1797 Q164.9951,295.1797 165.5889,294.9141 Q166.1826,294.6328 166.8076,294.0547 L166.8076,296.7734 Z " fill="#000000"/><text fill="#000000" font-family="sans-serif" font-size="12" font-style="italic" lengthAdjust="spacing" textLength="91.5938" x="178.4697" y="287.1387">&#171;Value Object&#187;</text><text fill="#000000" font-family="sans-serif" font-size="14" lengthAdjust="spacing" textLength="52.5342" x="197.9995" y="302.9639">Creator</text><line style="stroke:#181818;stroke-width:0.5;" x1="138" x2="281.9023" y1="311.2656" y2="311.2656"/><ellipse cx="148" cy="324.9141" fill="none" rx="3" ry="3" style="stroke:#038048;stroke-width:1;"/><text fill="#000000" font-family="sans-serif" font-size="14" lengthAdjust="spacing" textLength="119.9023" x="157" y="328.2607">Long : memberId</text><line style="stroke:#181818;stroke-width:0.5;" x1="138" x2="281.9023" y1="335.5625" y2="335.5625"/></g><!--link Board to Creator--><g class="link" data-entity-1="Board" data-entity-2="Creator" data-source-line="17" data-uid="lnk5" id="link_Board_Creator"><path codeLine="17" d="M210,211.23 C210,232.18 210,253.53 210,270.7" fill="none" id="Board-Creator" style="stroke:#181818;stroke-width:1;"/></g><!--SRC=[RL3H2e8m57ttAou-9UKFY0ZQan055RtFxJPMwcAkGC9_JpV7mheFEt3kFMU7yo3qJZX2M4cYM0Zl0CR1LWlTGp5naAOvvmevqGX7ANMMpLVJh7UovM349VFiIIlX-3rfq6-s2ecM2gX5lp04ibm36_4ilaHnl3nRBJ_OW0aokvOiWiJ6zqg6DOxAo3ClLEBQ5yxZnzIU3e41MfEk0nS_JI-aVY8SgXlIVvKaq61JeNAj31RiQukDOsSN31y0]--></g></svg>