<svg xmlns="http://www.w3.org/2000/svg" xmlns:xlink="http://www.w3.org/1999/xlink" contentStyleType="text/css" data-diagram-type="SEQUENCE" height="447px" preserveAspectRatio="none" style="width:748px;height:447px;background:#FFFFFF;" version="1.1" viewBox="0 0 748 447" width="748px" zoomAndPan="magnify"><title>Post.write()</title><defs/><g><text fill="#000000" font-family="sans-serif" font-size="14" font-weight="bold" lengthAdjust="spacing" textLength="93.8438" x="328.9529" y="27.9951">Post.write()</text><g><title>Post</title><rect fill="#FFFFFF" height="143.3633" style="stroke:#181818;stroke-width:1;" width="10" x="444.7808" y="205.6914"/></g><g><title>TagsVO</title><rect fill="#FFFFFF" height="29.1328" style="stroke:#181818;stroke-width:1;" width="10" x="712.7954" y="290.7891"/></g><g><title>CommandService</title><rect fill="#000000" fill-opacity="0.00000" height="248.4609" width="8" x="288.8481" y="118.5938"/><line style="stroke:#181818;stroke-width:0.5;stroke-dasharray:5.0,5.0;" x1="292" x2="292" y1="118.5938" y2="367.0547"/></g><g><title>Post</title><rect fill="#000000" fill-opacity="0.00000" height="248.4609" width="8" x="445.7808" y="118.5938"/><line style="stroke:#181818;stroke-width:0.5;stroke-dasharray:5.0,5.0;" x1="448.8853" x2="448.8853" y1="118.5938" y2="367.0547"/></g><g><title>TagsVO</title><rect fill="#000000" fill-opacity="0.00000" height="248.4609" width="8" x="713.7954" y="118.5938"/><line style="stroke:#181818;stroke-width:0.5;stroke-dasharray:5.0,5.0;" x1="716.8413" x2="716.8413" y1="118.5938" y2="367.0547"/></g><g class="participant participant-head" data-participant="CommandService"><text fill="#000000" font-family="sans-serif" font-size="14" lengthAdjust="spacing" textLength="123.6963" x="228" y="115.292">CommandService</text><ellipse cx="292.8481" cy="50.7969" fill="#E2E2F0" rx="8" ry="8" style="stroke:#181818;stroke-width:0.5;"/><path d="M292.8481,58.7969 L292.8481,85.7969 M279.8481,66.7969 L305.8481,66.7969 M292.8481,85.7969 L279.8481,100.7969 M292.8481,85.7969 L305.8481,100.7969" fill="none" style="stroke:#181818;stroke-width:0.5;"/></g><g class="participant participant-tail" data-participant="CommandService"><text fill="#000000" font-family="sans-serif" font-size="14" lengthAdjust="spacing" textLength="123.6963" x="228" y="379.0498">CommandService</text><ellipse cx="292.8481" cy="390.8516" fill="#E2E2F0" rx="8" ry="8" style="stroke:#181818;stroke-width:0.5;"/><path d="M292.8481,398.8516 L292.8481,425.8516 M279.8481,406.8516 L305.8481,406.8516 M292.8481,425.8516 L279.8481,440.8516 M292.8481,425.8516 L305.8481,440.8516" fill="none" style="stroke:#181818;stroke-width:0.5;"/></g><g class="participant participant-head" data-participant="Post"><text fill="#000000" font-family="sans-serif" font-size="14" lengthAdjust="spacing" textLength="29.791" x="431.8853" y="115.292">Post</text><ellipse cx="449.7808" cy="86.2969" fill="#E2E2F0" rx="12" ry="12" style="stroke:#181818;stroke-width:0.5;"/><line style="stroke:#181818;stroke-width:0.5;" x1="437.7808" x2="461.7808" y1="100.2969" y2="100.2969"/></g><g class="participant participant-tail" data-participant="Post"><text fill="#000000" font-family="sans-serif" font-size="14" lengthAdjust="spacing" textLength="29.791" x="431.8853" y="379.0498">Post</text><ellipse cx="449.7808" cy="398.3516" fill="#E2E2F0" rx="12" ry="12" style="stroke:#181818;stroke-width:0.5;"/><line style="stroke:#181818;stroke-width:0.5;" x1="437.7808" x2="461.7808" y1="412.3516" y2="412.3516"/></g><g class="participant participant-head" data-participant="TagsVO"><text fill="#000000" font-family="sans-serif" font-size="14" lengthAdjust="spacing" textLength="53.9082" x="687.8413" y="115.292">TagsVO</text><ellipse cx="717.7954" cy="86.2969" fill="#FFFFE0" rx="12" ry="12" style="stroke:#181818;stroke-width:0.5;"/><line style="stroke:#181818;stroke-width:0.5;" x1="705.7954" x2="729.7954" y1="100.2969" y2="100.2969"/></g><g class="participant participant-tail" data-participant="TagsVO"><text fill="#000000" font-family="sans-serif" font-size="14" lengthAdjust="spacing" textLength="53.9082" x="687.8413" y="379.0498">TagsVO</text><ellipse cx="717.7954" cy="398.3516" fill="#FFFFE0" rx="12" ry="12" style="stroke:#181818;stroke-width:0.5;"/><line style="stroke:#181818;stroke-width:0.5;" x1="705.7954" x2="729.7954" y1="412.3516" y2="412.3516"/></g><g><title>Post</title><rect fill="#FFFFFF" height="143.3633" style="stroke:#181818;stroke-width:1;" width="10" x="444.7808" y="205.6914"/></g><g><title>TagsVO</title><rect fill="#FFFFFF" height="29.1328" style="stroke:#181818;stroke-width:1;" width="10" x="712.7954" y="290.7891"/></g><g class="message" data-participant-1="CommandService" data-participant-2="Post"><polygon fill="#181818" points="432.7808,201.6914,442.7808,205.6914,432.7808,209.6914,436.7808,205.6914" style="stroke:#181818;stroke-width:1;"/><line style="stroke:#181818;stroke-width:1;" x1="292.8481" x2="438.7808" y1="205.6914" y2="205.6914"/><text fill="#000000" font-family="sans-serif" font-size="13" lengthAdjust="spacing" textLength="132.9326" x="299.8481" y="200.6255">write(createParams)</text></g><path d="M5,133.5938 L5,264.5938 L288,264.5938 L288,143.5938 L278,133.5938 L5,133.5938" fill="#FEFFDD" style="stroke:#181818;stroke-width:0.5;"/><path d="M278,133.5938 L278,143.5938 L288,143.5938 L278,133.5938" fill="#FEFFDD" style="stroke:#181818;stroke-width:0.5;"/><text fill="#000000" font-family="sans-serif" font-size="13" font-weight="bold" lengthAdjust="spacing" textLength="101.5054" x="11" y="150.6606">createParams</text><text fill="#000000" font-family="sans-serif" font-size="13" lengthAdjust="spacing" textLength="4.3799" x="112.5054" y="150.6606">:</text><ellipse cx="16.5" cy="161.3594" fill="#000000" rx="2.5" ry="2.5"/><text fill="#000000" font-family="sans-serif" font-size="13" lengthAdjust="spacing" textLength="68.3452" x="23" y="165.7935">String title</text><ellipse cx="16.5" cy="176.4922" fill="#000000" rx="2.5" ry="2.5"/><text fill="#000000" font-family="sans-serif" font-size="13" lengthAdjust="spacing" textLength="92.7012" x="23" y="180.9263">String content</text><ellipse cx="16.5" cy="191.625" fill="#000000" rx="2.5" ry="2.5"/><text fill="#000000" font-family="sans-serif" font-size="13" lengthAdjust="spacing" textLength="105.0791" x="23" y="196.0591">String hashTags</text><ellipse cx="16.5" cy="206.7578" fill="#000000" rx="2.5" ry="2.5"/><text fill="#000000" font-family="sans-serif" font-size="13" lengthAdjust="spacing" textLength="92.7202" x="23" y="211.1919">PostType type</text><text fill="#000000" font-family="sans-serif" font-size="13" lengthAdjust="spacing" textLength="117.8315" x="155.2344" y="211.1919">//GUEST, MEMBER</text><ellipse cx="16.5" cy="221.8906" fill="#000000" rx="2.5" ry="2.5"/><text fill="#000000" font-family="sans-serif" font-size="13" lengthAdjust="spacing" textLength="90.7461" x="23" y="226.3247">Long authorId</text><ellipse cx="16.5" cy="237.0234" fill="#000000" rx="2.5" ry="2.5"/><text fill="#000000" font-family="sans-serif" font-size="13" lengthAdjust="spacing" textLength="106.3232" x="23" y="241.4575">String nickname</text><ellipse cx="16.5" cy="252.1563" fill="#000000" rx="2.5" ry="2.5"/><text fill="#000000" font-family="sans-serif" font-size="13" lengthAdjust="spacing" textLength="104.876" x="23" y="256.5903">String password</text><g class="message" data-participant-1="Post" data-participant-2="TagsVO"><polygon fill="#181818" points="700.7954,286.7891,710.7954,290.7891,700.7954,294.7891,704.7954,290.7891" style="stroke:#181818;stroke-width:1;"/><line style="stroke:#181818;stroke-width:1;" x1="454.7808" x2="706.7954" y1="290.7891" y2="290.7891"/><text fill="#000000" font-family="sans-serif" font-size="13" lengthAdjust="spacing" textLength="239.0146" x="461.7808" y="285.7231">createTags(createParams.hashTags)</text></g><g class="message" data-participant-1="TagsVO" data-participant-2="Post"><polygon fill="#181818" points="465.7808,315.9219,455.7808,319.9219,465.7808,323.9219,461.7808,319.9219" style="stroke:#181818;stroke-width:1;"/><line style="stroke:#181818;stroke-width:1;stroke-dasharray:2.0,2.0;" x1="459.7808" x2="716.7954" y1="319.9219" y2="319.9219"/><text fill="#000000" font-family="sans-serif" font-size="13" lengthAdjust="spacing" textLength="101.4229" x="471.7808" y="314.856">List&lt;HashTag&gt;</text></g><g class="message" data-participant-1="Post" data-participant-2="CommandService"><polygon fill="#181818" points="303.8481,345.0547,293.8481,349.0547,303.8481,353.0547,299.8481,349.0547" style="stroke:#181818;stroke-width:1;"/><line style="stroke:#181818;stroke-width:1;stroke-dasharray:2.0,2.0;" x1="297.8481" x2="448.7808" y1="349.0547" y2="349.0547"/><text fill="#000000" font-family="sans-serif" font-size="13" lengthAdjust="spacing" textLength="27.6631" x="309.8481" y="343.9888">Post</text></g><!--SRC=[PP11RuCm38Nl_XMMTbdHMku8STY4jacjLWssqoufoI0Q95NY5V7lbn1AwPf3v2VvivyVIMe5xhMbJMyaYViL0Aj86tpINSSKBuGvoKg0K2Hf63lFTSbg-_c6qxjhPTtG8DfMzm3NDAwpaSG4mvRA24PYpmphxCelb2UdmtHGsfMj-2P83zcoCuqFMG9HGKQg6ibRdrMb5JbViswORRn1YFpGSZWA9FyXVb4SFt_aHVc0ktptcBz3jDMEOB_KQFFAvn5ALZ-ATPSTHsPjhmrt0N3qBW76gznrKnO91hzUNXsvEVjPN1iOW8bTNqBQIalfIo0ouE862MiTy2_d94Iu8Bp-0m00]--></g></svg>