<svg xmlns="http://www.w3.org/2000/svg" xmlns:xlink="http://www.w3.org/1999/xlink" contentStyleType="text/css" data-diagram-type="SEQUENCE" height="372px" preserveAspectRatio="none" style="width:604px;height:372px;background:#FFFFFF;" version="1.1" viewBox="0 0 604 372" width="604px" zoomAndPan="magnify"><title>Post.toggleLike()</title><defs/><g><text fill="#000000" font-family="sans-serif" font-size="14" font-weight="bold" lengthAdjust="spacing" textLength="136.1924" x="235.5203" y="27.9951">Post.toggleLike()</text><g><title>Post</title><rect fill="#FFFFFF" height="105.5313" style="stroke:#181818;stroke-width:1;" width="10" x="312.9902" y="149.7266"/></g><g><title>PostLike</title><rect fill="#FFFFFF" height="29.1328" style="stroke:#181818;stroke-width:1;" width="10" x="566.1323" y="178.8594"/></g><g><title>CommandService</title><rect fill="#000000" fill-opacity="0.00000" height="172.7969" width="8" x="65.8481" y="118.5938"/><line style="stroke:#181818;stroke-width:0.5;stroke-dasharray:5.0,5.0;" x1="69" x2="69" y1="118.5938" y2="291.3906"/></g><g><title>Post</title><rect fill="#000000" fill-opacity="0.00000" height="172.7969" width="8" x="313.9902" y="118.5938"/><line style="stroke:#181818;stroke-width:0.5;stroke-dasharray:5.0,5.0;" x1="317.0947" x2="317.0947" y1="118.5938" y2="291.3906"/></g><g><title>PostLike</title><rect fill="#000000" fill-opacity="0.00000" height="172.7969" width="8" x="567.1323" y="118.5938"/><line style="stroke:#181818;stroke-width:0.5;stroke-dasharray:5.0,5.0;" x1="571.0317" x2="571.0317" y1="118.5938" y2="291.3906"/></g><g class="participant participant-head" data-participant="CommandService"><text fill="#000000" font-family="sans-serif" font-size="14" lengthAdjust="spacing" textLength="123.6963" x="5" y="115.292">CommandService</text><ellipse cx="69.8481" cy="50.7969" fill="#E2E2F0" rx="8" ry="8" style="stroke:#181818;stroke-width:0.5;"/><path d="M69.8481,58.7969 L69.8481,85.7969 M56.8481,66.7969 L82.8481,66.7969 M69.8481,85.7969 L56.8481,100.7969 M69.8481,85.7969 L82.8481,100.7969" fill="none" style="stroke:#181818;stroke-width:0.5;"/></g><g class="participant participant-tail" data-participant="CommandService"><text fill="#000000" font-family="sans-serif" font-size="14" lengthAdjust="spacing" textLength="123.6963" x="5" y="303.3857">CommandService</text><ellipse cx="69.8481" cy="315.1875" fill="#E2E2F0" rx="8" ry="8" style="stroke:#181818;stroke-width:0.5;"/><path d="M69.8481,323.1875 L69.8481,350.1875 M56.8481,331.1875 L82.8481,331.1875 M69.8481,350.1875 L56.8481,365.1875 M69.8481,350.1875 L82.8481,365.1875" fill="none" style="stroke:#181818;stroke-width:0.5;"/></g><g class="participant participant-head" data-participant="Post"><text fill="#000000" font-family="sans-serif" font-size="14" lengthAdjust="spacing" textLength="29.791" x="300.0947" y="115.292">Post</text><ellipse cx="317.9902" cy="86.2969" fill="#E2E2F0" rx="12" ry="12" style="stroke:#181818;stroke-width:0.5;"/><line style="stroke:#181818;stroke-width:0.5;" x1="305.9902" x2="329.9902" y1="100.2969" y2="100.2969"/></g><g class="participant participant-tail" data-participant="Post"><text fill="#000000" font-family="sans-serif" font-size="14" lengthAdjust="spacing" textLength="29.791" x="300.0947" y="303.3857">Post</text><ellipse cx="317.9902" cy="322.6875" fill="#E2E2F0" rx="12" ry="12" style="stroke:#181818;stroke-width:0.5;"/><line style="stroke:#181818;stroke-width:0.5;" x1="305.9902" x2="329.9902" y1="336.6875" y2="336.6875"/></g><g class="participant participant-head" data-participant="PostLike"><text fill="#000000" font-family="sans-serif" font-size="14" lengthAdjust="spacing" textLength="58.2012" x="539.0317" y="115.292">PostLike</text><ellipse cx="571.1323" cy="86.2969" fill="#FFFFE0" rx="12" ry="12" style="stroke:#181818;stroke-width:0.5;"/><line style="stroke:#181818;stroke-width:0.5;" x1="559.1323" x2="583.1323" y1="100.2969" y2="100.2969"/></g><g class="participant participant-tail" data-participant="PostLike"><text fill="#000000" font-family="sans-serif" font-size="14" lengthAdjust="spacing" textLength="58.2012" x="539.0317" y="303.3857">PostLike</text><ellipse cx="571.1323" cy="322.6875" fill="#FFFFE0" rx="12" ry="12" style="stroke:#181818;stroke-width:0.5;"/><line style="stroke:#181818;stroke-width:0.5;" x1="559.1323" x2="583.1323" y1="336.6875" y2="336.6875"/></g><g><title>Post</title><rect fill="#FFFFFF" height="105.5313" style="stroke:#181818;stroke-width:1;" width="10" x="312.9902" y="149.7266"/></g><g><title>PostLike</title><rect fill="#FFFFFF" height="29.1328" style="stroke:#181818;stroke-width:1;" width="10" x="566.1323" y="178.8594"/></g><g class="message" data-participant-1="CommandService" data-participant-2="Post"><polygon fill="#181818" points="300.9902,145.7266,310.9902,149.7266,300.9902,153.7266,304.9902,149.7266" style="stroke:#181818;stroke-width:1;"/><line style="stroke:#181818;stroke-width:1;" x1="69.8481" x2="306.9902" y1="149.7266" y2="149.7266"/><text fill="#000000" font-family="sans-serif" font-size="13" lengthAdjust="spacing" textLength="224.1421" x="76.8481" y="144.6606">toggleLike(Visitor, PostTypeEnum)</text></g><g class="message" data-participant-1="Post" data-participant-2="PostLike"><polygon fill="#181818" points="554.1323,174.8594,564.1323,178.8594,554.1323,182.8594,558.1323,178.8594" style="stroke:#181818;stroke-width:1;"/><line style="stroke:#181818;stroke-width:1;" x1="322.9902" x2="560.1323" y1="178.8594" y2="178.8594"/><text fill="#000000" font-family="sans-serif" font-size="13" lengthAdjust="spacing" textLength="224.1421" x="329.9902" y="173.7935">toggleLike(Visitor, PostTypeEnum)</text></g><g class="message" data-participant-1="PostLike" data-participant-2="Post"><polygon fill="#181818" points="333.9902,203.9922,323.9902,207.9922,333.9902,211.9922,329.9902,207.9922" style="stroke:#181818;stroke-width:1;"/><line style="stroke:#181818;stroke-width:1;stroke-dasharray:2.0,2.0;" x1="327.9902" x2="570.1323" y1="207.9922" y2="207.9922"/><text fill="#000000" font-family="sans-serif" font-size="13" lengthAdjust="spacing" textLength="54.0439" x="339.9902" y="202.9263">PostLike</text></g><g class="message" data-participant-1="Post" data-participant-2="CommandService"><polygon fill="#181818" points="80.8481,251.2578,70.8481,255.2578,80.8481,259.2578,76.8481,255.2578" style="stroke:#181818;stroke-width:1;"/><line style="stroke:#181818;stroke-width:1;stroke-dasharray:2.0,2.0;" x1="74.8481" x2="316.9902" y1="255.2578" y2="255.2578"/><text fill="#000000" font-family="sans-serif" font-size="13" lengthAdjust="spacing" textLength="50.9844" x="86.8481" y="250.1919">LikeInfo</text></g><path d="M327,220.9922 L327,275.9922 L460,275.9922 L460,230.9922 L450,220.9922 L327,220.9922" fill="#FEFFDD" style="stroke:#181818;stroke-width:0.5;"/><path d="M450,220.9922 L450,230.9922 L460,230.9922 L450,220.9922" fill="#FEFFDD" style="stroke:#181818;stroke-width:0.5;"/><text fill="#000000" font-family="sans-serif" font-size="13" font-weight="bold" lengthAdjust="spacing" textLength="58.8809" x="333" y="238.0591">LikeInfo</text><text fill="#000000" font-family="sans-serif" font-size="13" lengthAdjust="spacing" textLength="101.791" x="333" y="253.1919">Boolean isLiked</text><text fill="#000000" font-family="sans-serif" font-size="13" lengthAdjust="spacing" textLength="112.252" x="333" y="268.3247">Integer likeCount</text><!--SRC=[bP0_3u903CNtVeecBfg8xeGmI1n874mqxWWL6u-hWQhXsykTYFycRxfhtw_lzPJL4AwbqPbAMHfQyOd64u0iLwanaQhARB6X-iev0LbbRRty_UuOxC_8S7dKbeoH6y0dZq7izHZYczcE6-wyfhwrRS-qj9TguWBmDTD7E03FzRpt-tk64yA01wyiGxEWNw0txjHVkuJe-gaz25ZfYDhj3T4-VfQZ-Jw6XOYXp28thbn0QfLAgj5qhqGkrlrZWMx0j_iT]--></g></svg>