<svg xmlns="http://www.w3.org/2000/svg" xmlns:xlink="http://www.w3.org/1999/xlink" contentStyleType="text/css" data-diagram-type="SEQUENCE" height="475px" preserveAspectRatio="none" style="width:902px;height:475px;background:#FFFFFF;" version="1.1" viewBox="0 0 902 475" width="902px" zoomAndPan="magnify"><title>Post.editPost(Visitor, EditParams)</title><defs/><g><text fill="#000000" font-family="sans-serif" font-size="14" font-weight="bold" lengthAdjust="spacing" textLength="271.1611" x="316.4685" y="27.9951">Post.editPost(Visitor, EditParams)</text><g><title>Post</title><rect fill="#FFFFFF" height="201.4063" style="stroke:#181818;stroke-width:1;" width="10" x="563.7612" y="167.8594"/></g><rect fill="none" height="134.1406" style="stroke:#000000;stroke-width:1.5;" width="734.0981" x="161" y="243.125"/><g><title>Client</title><rect fill="#000000" fill-opacity="0.00000" height="275.6719" width="8" x="190.2651" y="118.5938"/><line style="stroke:#181818;stroke-width:0.5;stroke-dasharray:5.0,5.0;" x1="194" x2="194" y1="118.5938" y2="394.2656"/></g><g><title>CommandService</title><rect fill="#000000" fill-opacity="0.00000" height="275.6719" width="8" x="288.3784" y="118.5938"/><line style="stroke:#181818;stroke-width:0.5;stroke-dasharray:5.0,5.0;" x1="291.5303" x2="291.5303" y1="118.5938" y2="394.2656"/></g><g><title>Post</title><rect fill="#000000" fill-opacity="0.00000" height="275.6719" width="8" x="564.7612" y="118.5938"/><line style="stroke:#181818;stroke-width:0.5;stroke-dasharray:5.0,5.0;" x1="567.8657" x2="567.8657" y1="118.5938" y2="394.2656"/></g><g><title>TagsVO</title><rect fill="#000000" fill-opacity="0.00000" height="275.6719" width="8" x="851.144" y="118.5938"/><line style="stroke:#181818;stroke-width:0.5;stroke-dasharray:5.0,5.0;" x1="854.1899" x2="854.1899" y1="118.5938" y2="394.2656"/></g><g class="participant participant-head" data-participant="Client"><text fill="#000000" font-family="sans-serif" font-size="14" lengthAdjust="spacing" textLength="40.5303" x="171" y="115.292">Client</text><ellipse cx="194.2651" cy="50.7969" fill="#E2E2F0" rx="8" ry="8" style="stroke:#181818;stroke-width:0.5;"/><path d="M194.2651,58.7969 L194.2651,85.7969 M181.2651,66.7969 L207.2651,66.7969 M194.2651,85.7969 L181.2651,100.7969 M194.2651,85.7969 L207.2651,100.7969" fill="none" style="stroke:#181818;stroke-width:0.5;"/></g><g class="participant participant-tail" data-participant="Client"><text fill="#000000" font-family="sans-serif" font-size="14" lengthAdjust="spacing" textLength="40.5303" x="171" y="406.2607">Client</text><ellipse cx="194.2651" cy="418.0625" fill="#E2E2F0" rx="8" ry="8" style="stroke:#181818;stroke-width:0.5;"/><path d="M194.2651,426.0625 L194.2651,453.0625 M181.2651,434.0625 L207.2651,434.0625 M194.2651,453.0625 L181.2651,468.0625 M194.2651,453.0625 L207.2651,468.0625" fill="none" style="stroke:#181818;stroke-width:0.5;"/></g><g class="participant participant-head" data-participant="CommandService"><text fill="#000000" font-family="sans-serif" font-size="14" lengthAdjust="spacing" textLength="123.6963" x="227.5303" y="115.292">CommandService</text><ellipse cx="292.3784" cy="50.7969" fill="#E2E2F0" rx="8" ry="8" style="stroke:#181818;stroke-width:0.5;"/><path d="M292.3784,58.7969 L292.3784,85.7969 M279.3784,66.7969 L305.3784,66.7969 M292.3784,85.7969 L279.3784,100.7969 M292.3784,85.7969 L305.3784,100.7969" fill="none" style="stroke:#181818;stroke-width:0.5;"/></g><g class="participant participant-tail" data-participant="CommandService"><text fill="#000000" font-family="sans-serif" font-size="14" lengthAdjust="spacing" textLength="123.6963" x="227.5303" y="406.2607">CommandService</text><ellipse cx="292.3784" cy="418.0625" fill="#E2E2F0" rx="8" ry="8" style="stroke:#181818;stroke-width:0.5;"/><path d="M292.3784,426.0625 L292.3784,453.0625 M279.3784,434.0625 L305.3784,434.0625 M292.3784,453.0625 L279.3784,468.0625 M292.3784,453.0625 L305.3784,468.0625" fill="none" style="stroke:#181818;stroke-width:0.5;"/></g><g class="participant participant-head" data-participant="Post"><text fill="#000000" font-family="sans-serif" font-size="14" lengthAdjust="spacing" textLength="29.791" x="550.8657" y="115.292">Post</text><ellipse cx="568.7612" cy="86.2969" fill="#E2E2F0" rx="12" ry="12" style="stroke:#181818;stroke-width:0.5;"/><line style="stroke:#181818;stroke-width:0.5;" x1="556.7612" x2="580.7612" y1="100.2969" y2="100.2969"/></g><g class="participant participant-tail" data-participant="Post"><text fill="#000000" font-family="sans-serif" font-size="14" lengthAdjust="spacing" textLength="29.791" x="550.8657" y="406.2607">Post</text><ellipse cx="568.7612" cy="425.5625" fill="#E2E2F0" rx="12" ry="12" style="stroke:#181818;stroke-width:0.5;"/><line style="stroke:#181818;stroke-width:0.5;" x1="556.7612" x2="580.7612" y1="439.5625" y2="439.5625"/></g><g class="participant participant-head" data-participant="TagsVO"><text fill="#000000" font-family="sans-serif" font-size="14" lengthAdjust="spacing" textLength="53.9082" x="825.1899" y="115.292">TagsVO</text><ellipse cx="855.144" cy="86.2969" fill="#E2E2F0" rx="12" ry="12" style="stroke:#181818;stroke-width:0.5;"/><line style="stroke:#181818;stroke-width:0.5;" x1="843.144" x2="867.144" y1="100.2969" y2="100.2969"/></g><g class="participant participant-tail" data-participant="TagsVO"><text fill="#000000" font-family="sans-serif" font-size="14" lengthAdjust="spacing" textLength="53.9082" x="825.1899" y="406.2607">TagsVO</text><ellipse cx="855.144" cy="425.5625" fill="#E2E2F0" rx="12" ry="12" style="stroke:#181818;stroke-width:0.5;"/><line style="stroke:#181818;stroke-width:0.5;" x1="843.144" x2="867.144" y1="439.5625" y2="439.5625"/></g><g><title>Post</title><rect fill="#FFFFFF" height="201.4063" style="stroke:#181818;stroke-width:1;" width="10" x="563.7612" y="167.8594"/></g><g class="message" data-participant-1="CommandService" data-participant-2="Post"><polygon fill="#181818" points="551.7612,163.8594,561.7612,167.8594,551.7612,171.8594,555.7612,167.8594" style="stroke:#181818;stroke-width:1;"/><line style="stroke:#181818;stroke-width:1;" x1="292.3784" x2="557.7612" y1="167.8594" y2="167.8594"/><text fill="#000000" font-family="sans-serif" font-size="13" lengthAdjust="spacing" textLength="252.3828" x="299.3784" y="162.7935">hasEditPermission(Visitor, EditParams)</text></g><path d="M5,133.5938 L5,188.5938 L288,188.5938 L288,143.5938 L278,133.5938 L5,133.5938" fill="#FEFFDD" style="stroke:#181818;stroke-width:0.5;"/><path d="M278,133.5938 L278,143.5938 L288,143.5938 L278,133.5938" fill="#FEFFDD" style="stroke:#181818;stroke-width:0.5;"/><text fill="#000000" font-family="sans-serif" font-size="13" font-weight="bold" lengthAdjust="spacing" textLength="83.624" x="11" y="150.6606">EditParams</text><text fill="#000000" font-family="sans-serif" font-size="13" lengthAdjust="spacing" textLength="4.3799" x="94.624" y="150.6606">:</text><ellipse cx="16.5" cy="161.3594" fill="#000000" rx="2.5" ry="2.5"/><text fill="#000000" font-family="sans-serif" font-size="13" lengthAdjust="spacing" textLength="92.7202" x="23" y="165.7935">PostType type</text><text fill="#000000" font-family="sans-serif" font-size="13" lengthAdjust="spacing" textLength="117.8315" x="155.2344" y="165.7935">//GUEST, MEMBER</text><ellipse cx="16.5" cy="176.4922" fill="#000000" rx="2.5" ry="2.5"/><text fill="#000000" font-family="sans-serif" font-size="13" lengthAdjust="spacing" textLength="104.876" x="23" y="180.9263">String password</text><g class="message" data-participant-1="Post" data-participant-2="Post"><line style="stroke:#181818;stroke-width:1;" x1="573.7612" x2="615.7612" y1="215.125" y2="215.125"/><line style="stroke:#181818;stroke-width:1;" x1="615.7612" x2="615.7612" y1="215.125" y2="228.125"/><line style="stroke:#181818;stroke-width:1;" x1="574.7612" x2="615.7612" y1="228.125" y2="228.125"/><polygon fill="#181818" points="584.7612,224.125,574.7612,228.125,584.7612,232.125,580.7612,228.125" style="stroke:#181818;stroke-width:1;"/><text fill="#000000" font-family="sans-serif" font-size="13" lengthAdjust="spacing" textLength="252.3828" x="580.7612" y="210.0591">hasEditPermission(Visitor, EditParams)</text></g><path d="M161,243.125 L225.4429,243.125 L225.4429,250.2578 L215.4429,260.2578 L161,260.2578 L161,243.125" fill="#EEEEEE" style="stroke:#000000;stroke-width:1.5;"/><rect fill="none" height="134.1406" style="stroke:#000000;stroke-width:1.5;" width="734.0981" x="161" y="243.125"/><text fill="#000000" font-family="sans-serif" font-size="13" font-weight="bold" lengthAdjust="spacing" textLength="19.4429" x="176" y="256.1919">alt</text><text fill="#000000" font-family="sans-serif" font-size="11" font-weight="bold" lengthAdjust="spacing" textLength="103.9307" x="240.4429" y="255.3354">[has permission]</text><g class="message" data-participant-1="Post" data-participant-2="TagsVO"><polygon fill="#181818" points="843.144,277.3906,853.144,281.3906,843.144,285.3906,847.144,281.3906" style="stroke:#181818;stroke-width:1;"/><line style="stroke:#181818;stroke-width:1;" x1="573.7612" x2="849.144" y1="281.3906" y2="281.3906"/><text fill="#000000" font-family="sans-serif" font-size="13" lengthAdjust="spacing" textLength="104.8315" x="580.7612" y="276.3247">editTags(String)</text></g><line style="stroke:#000000;stroke-width:1;stroke-dasharray:2.0,2.0;" x1="161" x2="895.0981" y1="290.3906" y2="290.3906"/><text fill="#000000" font-family="sans-serif" font-size="11" font-weight="bold" lengthAdjust="spacing" textLength="218.0879" x="166" y="300.6011">[no permission: not same member]</text><g class="message" data-participant-1="Post" data-participant-2="Client"><polygon fill="#181818" points="205.2651,321.3281,195.2651,325.3281,205.2651,329.3281,201.2651,325.3281" style="stroke:#181818;stroke-width:1;"/><line style="stroke:#181818;stroke-width:1;stroke-dasharray:2.0,2.0;" x1="199.2651" x2="562.7612" y1="325.3281" y2="325.3281"/><text fill="#000000" font-family="sans-serif" font-size="13" lengthAdjust="spacing" textLength="191.623" x="211.2651" y="320.2622">400 PostPermissionException</text></g><line style="stroke:#000000;stroke-width:1;stroke-dasharray:2.0,2.0;" x1="161" x2="895.0981" y1="334.3281" y2="334.3281"/><text fill="#000000" font-family="sans-serif" font-size="11" font-weight="bold" lengthAdjust="spacing" textLength="247.2905" x="166" y="344.5386">[no permission: password not matched]</text><g class="message" data-participant-1="Post" data-participant-2="Client"><polygon fill="#181818" points="205.2651,365.2656,195.2651,369.2656,205.2651,373.2656,201.2651,369.2656" style="stroke:#181818;stroke-width:1;"/><line style="stroke:#181818;stroke-width:1;stroke-dasharray:2.0,2.0;" x1="199.2651" x2="567.7612" y1="369.2656" y2="369.2656"/><text fill="#000000" font-family="sans-serif" font-size="13" lengthAdjust="spacing" textLength="244.791" x="211.2651" y="364.1997">400 PostPasswordNotMatchException</text></g><!--SRC=[bP4nJyCm48Nt-nKtbggG3anHbG5aCGKG2PrOdFXeBSLnP9yA_VVOJjC0gf1OehFzyhtdPzRS4JvRppUaDCTXiTLUitKh5757Ecdy5O1imnxUTvfwdXRM6DchYjn1jmJXGFCnmQQvbZk_VGBugSJh8gamnxtqoOMSqTvhsrzs3txw87bC2j3RC7Rqph1fYbctoPeYXsNKrCU1aEC7yOspxE5LLFKAIr7UYHTOLknqlyD1UlzXdGfn5KOeGChr_tmTHoaEPzqPD5OGKB7Vk5YCvg5IeCvJyFtsMnvZe9U6q91fo9qu0JHM7q2twtMADuSIdoqD75ql8gTh9hQHtEv9_SKzoHyjbr4yqnNzUeZG6tm1]--></g></svg>