<svg xmlns="http://www.w3.org/2000/svg" xmlns:xlink="http://www.w3.org/1999/xlink" contentStyleType="text/css" data-diagram-type="SEQUENCE" height="488px" preserveAspectRatio="none" style="width:842px;height:488px;background:#FFFFFF;" version="1.1" viewBox="0 0 842 488" width="842px" zoomAndPan="magnify"><title>Post.deletePost(Visitor, DeleteParams)</title><defs/><g><text fill="#000000" font-family="sans-serif" font-size="14" font-weight="bold" lengthAdjust="spacing" textLength="310.6729" x="272.8718" y="27.9951">Post.deletePost(Visitor, DeleteParams)</text><g><title>Post</title><rect fill="#FFFFFF" height="214.4063" style="stroke:#181818;stroke-width:1;" width="10" x="530.9565" y="167.8594"/></g><rect fill="none" height="147.1406" style="stroke:#000000;stroke-width:1.5;" width="486.2139" x="161" y="243.125"/><g><title>Client</title><rect fill="#000000" fill-opacity="0.00000" height="288.6719" width="8" x="190.2651" y="118.5938"/><line style="stroke:#181818;stroke-width:0.5;stroke-dasharray:5.0,5.0;" x1="194" x2="194" y1="118.5938" y2="407.2656"/></g><g><title>CommandService</title><rect fill="#000000" fill-opacity="0.00000" height="288.6719" width="8" x="288.3784" y="118.5938"/><line style="stroke:#181818;stroke-width:0.5;stroke-dasharray:5.0,5.0;" x1="291.5303" x2="291.5303" y1="118.5938" y2="407.2656"/></g><g><title>Post</title><rect fill="#000000" fill-opacity="0.00000" height="288.6719" width="8" x="531.9565" y="118.5938"/><line style="stroke:#181818;stroke-width:0.5;stroke-dasharray:5.0,5.0;" x1="535.061" x2="535.061" y1="118.5938" y2="407.2656"/></g><g class="participant participant-head" data-participant="Client"><text fill="#000000" font-family="sans-serif" font-size="14" lengthAdjust="spacing" textLength="40.5303" x="171" y="115.292">Client</text><ellipse cx="194.2651" cy="50.7969" fill="#E2E2F0" rx="8" ry="8" style="stroke:#181818;stroke-width:0.5;"/><path d="M194.2651,58.7969 L194.2651,85.7969 M181.2651,66.7969 L207.2651,66.7969 M194.2651,85.7969 L181.2651,100.7969 M194.2651,85.7969 L207.2651,100.7969" fill="none" style="stroke:#181818;stroke-width:0.5;"/></g><g class="participant participant-tail" data-participant="Client"><text fill="#000000" font-family="sans-serif" font-size="14" lengthAdjust="spacing" textLength="40.5303" x="171" y="419.2607">Client</text><ellipse cx="194.2651" cy="431.0625" fill="#E2E2F0" rx="8" ry="8" style="stroke:#181818;stroke-width:0.5;"/><path d="M194.2651,439.0625 L194.2651,466.0625 M181.2651,447.0625 L207.2651,447.0625 M194.2651,466.0625 L181.2651,481.0625 M194.2651,466.0625 L207.2651,481.0625" fill="none" style="stroke:#181818;stroke-width:0.5;"/></g><g class="participant participant-head" data-participant="CommandService"><text fill="#000000" font-family="sans-serif" font-size="14" lengthAdjust="spacing" textLength="123.6963" x="227.5303" y="115.292">CommandService</text><ellipse cx="292.3784" cy="50.7969" fill="#E2E2F0" rx="8" ry="8" style="stroke:#181818;stroke-width:0.5;"/><path d="M292.3784,58.7969 L292.3784,85.7969 M279.3784,66.7969 L305.3784,66.7969 M292.3784,85.7969 L279.3784,100.7969 M292.3784,85.7969 L305.3784,100.7969" fill="none" style="stroke:#181818;stroke-width:0.5;"/></g><g class="participant participant-tail" data-participant="CommandService"><text fill="#000000" font-family="sans-serif" font-size="14" lengthAdjust="spacing" textLength="123.6963" x="227.5303" y="419.2607">CommandService</text><ellipse cx="292.3784" cy="431.0625" fill="#E2E2F0" rx="8" ry="8" style="stroke:#181818;stroke-width:0.5;"/><path d="M292.3784,439.0625 L292.3784,466.0625 M279.3784,447.0625 L305.3784,447.0625 M292.3784,466.0625 L279.3784,481.0625 M292.3784,466.0625 L305.3784,481.0625" fill="none" style="stroke:#181818;stroke-width:0.5;"/></g><g class="participant participant-head" data-participant="Post"><text fill="#000000" font-family="sans-serif" font-size="14" lengthAdjust="spacing" textLength="29.791" x="518.061" y="115.292">Post</text><ellipse cx="535.9565" cy="86.2969" fill="#E2E2F0" rx="12" ry="12" style="stroke:#181818;stroke-width:0.5;"/><line style="stroke:#181818;stroke-width:0.5;" x1="523.9565" x2="547.9565" y1="100.2969" y2="100.2969"/></g><g class="participant participant-tail" data-participant="Post"><text fill="#000000" font-family="sans-serif" font-size="14" lengthAdjust="spacing" textLength="29.791" x="518.061" y="419.2607">Post</text><ellipse cx="535.9565" cy="438.5625" fill="#E2E2F0" rx="12" ry="12" style="stroke:#181818;stroke-width:0.5;"/><line style="stroke:#181818;stroke-width:0.5;" x1="523.9565" x2="547.9565" y1="452.5625" y2="452.5625"/></g><g><title>Post</title><rect fill="#FFFFFF" height="214.4063" style="stroke:#181818;stroke-width:1;" width="10" x="530.9565" y="167.8594"/></g><g class="message" data-participant-1="CommandService" data-participant-2="Post"><polygon fill="#181818" points="518.9565,163.8594,528.9565,167.8594,518.9565,171.8594,522.9565,167.8594" style="stroke:#181818;stroke-width:1;"/><line style="stroke:#181818;stroke-width:1;" x1="292.3784" x2="524.9565" y1="167.8594" y2="167.8594"/><text fill="#000000" font-family="sans-serif" font-size="13" lengthAdjust="spacing" textLength="219.5781" x="299.3784" y="162.7935">deletePost(Visitor, DeleteParams)</text></g><path d="M5,133.5938 L5,188.5938 L288,188.5938 L288,143.5938 L278,133.5938 L5,133.5938" fill="#FEFFDD" style="stroke:#181818;stroke-width:0.5;"/><path d="M278,133.5938 L278,143.5938 L288,143.5938 L278,133.5938" fill="#FEFFDD" style="stroke:#181818;stroke-width:0.5;"/><text fill="#000000" font-family="sans-serif" font-size="13" font-weight="bold" lengthAdjust="spacing" textLength="102.6797" x="11" y="150.6606">DeleteParams</text><text fill="#000000" font-family="sans-serif" font-size="13" lengthAdjust="spacing" textLength="4.3799" x="113.6797" y="150.6606">:</text><ellipse cx="16.5" cy="161.3594" fill="#000000" rx="2.5" ry="2.5"/><text fill="#000000" font-family="sans-serif" font-size="13" lengthAdjust="spacing" textLength="92.7202" x="23" y="165.7935">PostType type</text><text fill="#000000" font-family="sans-serif" font-size="13" lengthAdjust="spacing" textLength="117.8315" x="155.2344" y="165.7935">//GUEST, MEMBER</text><ellipse cx="16.5" cy="176.4922" fill="#000000" rx="2.5" ry="2.5"/><text fill="#000000" font-family="sans-serif" font-size="13" lengthAdjust="spacing" textLength="104.876" x="23" y="180.9263">String password</text><g class="message" data-participant-1="Post" data-participant-2="Post"><line style="stroke:#181818;stroke-width:1;" x1="540.9565" x2="582.9565" y1="215.125" y2="215.125"/><line style="stroke:#181818;stroke-width:1;" x1="582.9565" x2="582.9565" y1="215.125" y2="228.125"/><line style="stroke:#181818;stroke-width:1;" x1="541.9565" x2="582.9565" y1="228.125" y2="228.125"/><polygon fill="#181818" points="551.9565,224.125,541.9565,228.125,551.9565,232.125,547.9565,228.125" style="stroke:#181818;stroke-width:1;"/><text fill="#000000" font-family="sans-serif" font-size="13" lengthAdjust="spacing" textLength="287.46" x="547.9565" y="210.0591">hasDeletePermission(Visitor, DeleteParams)</text></g><path d="M161,243.125 L225.4429,243.125 L225.4429,250.2578 L215.4429,260.2578 L161,260.2578 L161,243.125" fill="#EEEEEE" style="stroke:#000000;stroke-width:1.5;"/><rect fill="none" height="147.1406" style="stroke:#000000;stroke-width:1.5;" width="486.2139" x="161" y="243.125"/><text fill="#000000" font-family="sans-serif" font-size="13" font-weight="bold" lengthAdjust="spacing" textLength="19.4429" x="176" y="256.1919">alt</text><text fill="#000000" font-family="sans-serif" font-size="11" font-weight="bold" lengthAdjust="spacing" textLength="103.9307" x="240.4429" y="255.3354">[has permission]</text><g class="message" data-participant-1="Post" data-participant-2="Post"><line style="stroke:#181818;stroke-width:1;" x1="540.9565" x2="582.9565" y1="281.3906" y2="281.3906"/><line style="stroke:#181818;stroke-width:1;" x1="582.9565" x2="582.9565" y1="281.3906" y2="294.3906"/><line style="stroke:#181818;stroke-width:1;" x1="541.9565" x2="582.9565" y1="294.3906" y2="294.3906"/><polygon fill="#181818" points="551.9565,290.3906,541.9565,294.3906,551.9565,298.3906,547.9565,294.3906" style="stroke:#181818;stroke-width:1;"/><text fill="#000000" font-family="sans-serif" font-size="13" lengthAdjust="spacing" textLength="77.2573" x="547.9565" y="276.3247">softDelete()</text></g><line style="stroke:#000000;stroke-width:1;stroke-dasharray:2.0,2.0;" x1="161" x2="647.2139" y1="303.3906" y2="303.3906"/><text fill="#000000" font-family="sans-serif" font-size="11" font-weight="bold" lengthAdjust="spacing" textLength="143.333" x="166" y="313.6011">[member not matched]</text><g class="message" data-participant-1="Post" data-participant-2="Client"><polygon fill="#181818" points="205.2651,334.3281,195.2651,338.3281,205.2651,342.3281,201.2651,338.3281" style="stroke:#181818;stroke-width:1;"/><line style="stroke:#181818;stroke-width:1;stroke-dasharray:2.0,2.0;" x1="199.2651" x2="529.9565" y1="338.3281" y2="338.3281"/><text fill="#000000" font-family="sans-serif" font-size="13" lengthAdjust="spacing" textLength="234.3364" x="211.2651" y="333.2622">400 PostDeletePermissionException</text></g><line style="stroke:#000000;stroke-width:1;stroke-dasharray:2.0,2.0;" x1="161" x2="647.2139" y1="347.3281" y2="347.3281"/><text fill="#000000" font-family="sans-serif" font-size="11" font-weight="bold" lengthAdjust="spacing" textLength="151.5991" x="166" y="357.5386">[password not matched]</text><g class="message" data-participant-1="Post" data-participant-2="Client"><polygon fill="#181818" points="205.2651,378.2656,195.2651,382.2656,205.2651,386.2656,201.2651,382.2656" style="stroke:#181818;stroke-width:1;"/><line style="stroke:#181818;stroke-width:1;stroke-dasharray:2.0,2.0;" x1="199.2651" x2="534.9565" y1="382.2656" y2="382.2656"/><text fill="#000000" font-family="sans-serif" font-size="13" lengthAdjust="spacing" textLength="244.791" x="211.2651" y="377.1997">400 PostPasswordNotMatchException</text></g><!--SRC=[ZP0nJyCm48Nt-nKtbggG3anLbG68c88gKfXOdFXAJxBZo3uL-k-navH294GNoxvxxxlp4nP3k751RZGP4ahNsIi75kSN-33Kb5SsN06e9bRntZ2rSdeuQrMhA_87RWXYW-NO0m5-z_0wx-kumlz7HJWVbD18WjR5kw6TmBhEVqhNMPslO9vassD7AEb0V9CiUtmfgkq2owAyAvvXNeddzXqx5SA7ypgkgZ5XeL_glDnUXN40USiXi6l_3iH8qcFtBPtIWjl9O9f5FPb0QCdMvDDij4gQFUdH55r3jj5tkrpsYEagnMT3dQH10-pqdGjncr7-vAHCuZDEqoJpc0zy0G00]--></g></svg>