<svg xmlns="http://www.w3.org/2000/svg" xmlns:xlink="http://www.w3.org/1999/xlink" contentStyleType="text/css" data-diagram-type="CLASS" height="811px" preserveAspectRatio="none" style="width:763px;height:811px;background:#FFFFFF;" version="1.1" viewBox="0 0 763 811" width="763px" zoomAndPan="magnify"><defs/><g><!--cluster post--><g class="cluster" data-entity="post" data-source-line="2" data-uid="ent0002" id="cluster_post"><path d="M8.5,6 L44.165,6 A3.75,3.75 0 0 1 46.665,8.5 L53.665,28.2969 L753.5,28.2969 A2.5,2.5 0 0 1 756,30.7969 L756,801.5 A2.5,2.5 0 0 1 753.5,804 L8.5,804 A2.5,2.5 0 0 1 6,801.5 L6,8.5 A2.5,2.5 0 0 1 8.5,6" fill="none" style="stroke:#000000;stroke-width:1.5;"/><line style="stroke:#000000;stroke-width:1.5;" x1="6" x2="53.665" y1="28.2969" y2="28.2969"/><text fill="#000000" font-family="sans-serif" font-size="14" font-weight="bold" lengthAdjust="spacing" textLength="34.665" x="10" y="20.9951">post</text></g><!--class Post--><g class="entity" data-entity="Post" data-source-line="3" data-uid="ent0003" id="entity_Post"><rect fill="#F1F1F1" height="251.8281" rx="2.5" ry="2.5" style="stroke:#181818;stroke-width:0.5;" width="305.7129" x="176" y="222"/><ellipse cx="272.0205" cy="242.1328" fill="#A9DCDF" rx="11" ry="11" style="stroke:#181818;stroke-width:1;"/><path d="M272.1299,237.4766 L270.9736,242.5547 L273.3018,242.5547 L272.1299,237.4766 Z M270.6455,235.2422 L273.6299,235.2422 L276.9893,247.6328 L274.5361,247.6328 L273.7705,244.5703 L270.4893,244.5703 L269.7393,247.6328 L267.3018,247.6328 L270.6455,235.2422 Z " fill="#000000"/><text fill="#000000" font-family="sans-serif" font-size="12" font-style="italic" lengthAdjust="spacing" textLength="109.1719" x="290.5205" y="238.1387">&#171;Aggregate Root&#187;</text><text fill="#000000" font-family="sans-serif" font-size="14" font-style="italic" lengthAdjust="spacing" textLength="29.791" x="330.2109" y="253.9639">Post</text><line style="stroke:#181818;stroke-width:0.5;" x1="177" x2="480.7129" y1="262.2656" y2="262.2656"/><ellipse cx="187" cy="275.9141" fill="none" rx="3" ry="3" style="stroke:#038048;stroke-width:1;"/><text fill="#000000" font-family="sans-serif" font-size="14" lengthAdjust="spacing" textLength="34.125" x="196" y="279.2607">Long</text><text fill="#000000" font-family="sans-serif" font-size="14" lengthAdjust="spacing" textLength="43.251" x="307.2549" y="279.2607">postId</text><ellipse cx="187" cy="292.2109" fill="none" rx="3" ry="3" style="stroke:#038048;stroke-width:1;"/><text fill="#000000" font-family="sans-serif" font-size="14" lengthAdjust="spacing" textLength="41.3916" x="196" y="295.5576">Board</text><text fill="#000000" font-family="sans-serif" font-size="14" lengthAdjust="spacing" textLength="40.6738" x="307.2549" y="295.5576">board</text><text fill="#000000" font-family="sans-serif" font-size="14" lengthAdjust="spacing" textLength="62.918" x="374.0078" y="295.5576">//&#50808;&#48512; BC &#53412;</text><ellipse cx="187" cy="308.5078" fill="none" rx="3" ry="3" style="stroke:#038048;stroke-width:1;"/><text fill="#000000" font-family="sans-serif" font-size="14" lengthAdjust="spacing" textLength="30.4336" x="196" y="311.8545">Title</text><text fill="#000000" font-family="sans-serif" font-size="14" lengthAdjust="spacing" textLength="27.3711" x="307.2549" y="311.8545">title</text><ellipse cx="187" cy="324.8047" fill="none" rx="3" ry="3" style="stroke:#038048;stroke-width:1;"/><text fill="#000000" font-family="sans-serif" font-size="14" lengthAdjust="spacing" textLength="55.6787" x="196" y="328.1514">Content</text><text fill="#000000" font-family="sans-serif" font-size="14" lengthAdjust="spacing" textLength="53.6006" x="307.2549" y="328.1514">content</text><ellipse cx="187" cy="341.1016" fill="none" rx="3" ry="3" style="stroke:#038048;stroke-width:1;"/><text fill="#000000" font-family="sans-serif" font-size="14" lengthAdjust="spacing" textLength="34.125" x="196" y="344.4482">Long</text><text fill="#000000" font-family="sans-serif" font-size="14" lengthAdjust="spacing" textLength="56.376" x="307.2549" y="344.4482">viewCnt</text><ellipse cx="187" cy="357.3984" fill="none" rx="3" ry="3" style="stroke:#038048;stroke-width:1;"/><text fill="#000000" font-family="sans-serif" font-size="14" lengthAdjust="spacing" textLength="68.1543" x="196" y="360.7451">DateTime</text><text fill="#000000" font-family="sans-serif" font-size="14" lengthAdjust="spacing" textLength="68.7012" x="307.2549" y="360.7451">createdAt</text><ellipse cx="187" cy="373.6953" fill="none" rx="3" ry="3" style="stroke:#038048;stroke-width:1;"/><text fill="#000000" font-family="sans-serif" font-size="14" lengthAdjust="spacing" textLength="68.1543" x="196" y="377.042">DateTime</text><text fill="#000000" font-family="sans-serif" font-size="14" lengthAdjust="spacing" textLength="73.2813" x="307.2549" y="377.042">updatedAt</text><ellipse cx="187" cy="389.9922" fill="none" rx="3" ry="3" style="stroke:#038048;stroke-width:1;"/><text fill="#000000" font-family="sans-serif" font-size="14" lengthAdjust="spacing" textLength="56.6904" x="196" y="393.3389">Boolean</text><text fill="#000000" font-family="sans-serif" font-size="14" lengthAdjust="spacing" textLength="66.0693" x="307.2549" y="393.3389">isDeleted</text><line style="stroke:#181818;stroke-width:1;" x1="177" x2="480.7129" y1="400.6406" y2="400.6406"/><ellipse cx="187" cy="414.2891" fill="#84BE84" rx="3" ry="3" style="stroke:#038048;stroke-width:1;"/><text fill="#000000" font-family="sans-serif" font-size="14" lengthAdjust="spacing" text-decoration="underline" textLength="188.6445" x="196" y="417.6357">write(CreateParams) : Post</text><ellipse cx="187" cy="430.5859" fill="#84BE84" rx="3" ry="3" style="stroke:#038048;stroke-width:1;"/><text fill="#000000" font-family="sans-serif" font-size="14" lengthAdjust="spacing" textLength="243.5986" x="196" y="433.9326">editPost(Visitor, EditParams) : void</text><ellipse cx="187" cy="446.8828" fill="#84BE84" rx="3" ry="3" style="stroke:#038048;stroke-width:1;"/><text fill="#000000" font-family="sans-serif" font-size="14" lengthAdjust="spacing" textLength="279.7129" x="196" y="450.2295">deletePost(Visitor, DeleteParams) : void</text><ellipse cx="187" cy="463.1797" fill="#84BE84" rx="3" ry="3" style="stroke:#038048;stroke-width:1;"/><text fill="#000000" font-family="sans-serif" font-size="14" lengthAdjust="spacing" textLength="222.79" x="196" y="466.5264">toggleLike(MemberId) : LikeInfo</text></g><!--class GuestPost--><g class="entity" data-entity="GuestPost" data-source-line="18" data-uid="ent0004" id="entity_GuestPost"><rect fill="#F1F1F1" height="121.4531" rx="2.5" ry="2.5" style="stroke:#181818;stroke-width:0.5;" width="340.2754" x="399" y="41"/><ellipse cx="529.4331" cy="61.1328" fill="#ADD1B2" rx="11" ry="11" style="stroke:#181818;stroke-width:1;"/><path d="M532.4019,66.7734 Q531.8237,67.0703 531.1831,67.2109 Q530.5425,67.3672 529.8394,67.3672 Q527.3394,67.3672 526.0112,65.7266 Q524.6987,64.0703 524.6987,60.9453 Q524.6987,57.8203 526.0112,56.1641 Q527.3394,54.5078 529.8394,54.5078 Q530.5425,54.5078 531.1831,54.6641 Q531.8394,54.8203 532.4019,55.1172 L532.4019,57.8359 Q531.7769,57.2578 531.1831,56.9922 Q530.5894,56.7109 529.9644,56.7109 Q528.6206,56.7109 527.9331,57.7891 Q527.2456,58.8516 527.2456,60.9453 Q527.2456,63.0391 527.9331,64.1172 Q528.6206,65.1797 529.9644,65.1797 Q530.5894,65.1797 531.1831,64.9141 Q531.7769,64.6328 532.4019,64.0547 L532.4019,66.7734 Z " fill="#000000"/><text fill="#000000" font-family="sans-serif" font-size="12" font-style="italic" lengthAdjust="spacing" textLength="72.5625" x="549.1064" y="57.1387">&#171;ImplClass&#187;</text><text fill="#000000" font-family="sans-serif" font-size="14" lengthAdjust="spacing" textLength="70.9092" x="549.9331" y="72.9639">GuestPost</text><line style="stroke:#181818;stroke-width:0.5;" x1="400" x2="738.2754" y1="81.2656" y2="81.2656"/><ellipse cx="410" cy="94.9141" fill="none" rx="3" ry="3" style="stroke:#038048;stroke-width:1;"/><text fill="#000000" font-family="sans-serif" font-size="14" lengthAdjust="spacing" textLength="114.502" x="419" y="98.2607">String nickname</text><ellipse cx="410" cy="111.2109" fill="none" rx="3" ry="3" style="stroke:#038048;stroke-width:1;"/><text fill="#000000" font-family="sans-serif" font-size="14" lengthAdjust="spacing" textLength="112.9434" x="419" y="114.5576">String password</text><line style="stroke:#181818;stroke-width:1;" x1="400" x2="738.2754" y1="121.8594" y2="121.8594"/><ellipse cx="410" cy="135.5078" fill="#84BE84" rx="3" ry="3" style="stroke:#038048;stroke-width:1;"/><text fill="#000000" font-family="sans-serif" font-size="14" lengthAdjust="spacing" textLength="309.5723" x="419" y="138.8545">hasDeletePermission(Visitor, DeleteParams)</text><ellipse cx="410" cy="151.8047" fill="#84BE84" rx="3" ry="3" style="stroke:#038048;stroke-width:1;"/><text fill="#000000" font-family="sans-serif" font-size="14" lengthAdjust="spacing" textLength="314.2754" x="419" y="155.1514">hasUpdatePermission(Visitor, DeleteParams)</text></g><!--class MemberPost--><g class="entity" data-entity="MemberPost" data-source-line="25" data-uid="ent0005" id="entity_MemberPost"><rect fill="#F1F1F1" height="105.1563" rx="2.5" ry="2.5" style="stroke:#181818;stroke-width:0.5;" width="340.2754" x="24" y="49"/><ellipse cx="146.1992" cy="69.1328" fill="#ADD1B2" rx="11" ry="11" style="stroke:#181818;stroke-width:1;"/><path d="M149.168,74.7734 Q148.5898,75.0703 147.9492,75.2109 Q147.3086,75.3672 146.6055,75.3672 Q144.1055,75.3672 142.7773,73.7266 Q141.4648,72.0703 141.4648,68.9453 Q141.4648,65.8203 142.7773,64.1641 Q144.1055,62.5078 146.6055,62.5078 Q147.3086,62.5078 147.9492,62.6641 Q148.6055,62.8203 149.168,63.1172 L149.168,65.8359 Q148.543,65.2578 147.9492,64.9922 Q147.3555,64.7109 146.7305,64.7109 Q145.3867,64.7109 144.6992,65.7891 Q144.0117,66.8516 144.0117,68.9453 Q144.0117,71.0391 144.6992,72.1172 Q145.3867,73.1797 146.7305,73.1797 Q147.3555,73.1797 147.9492,72.9141 Q148.543,72.6328 149.168,72.0547 L149.168,74.7734 Z " fill="#000000"/><text fill="#000000" font-family="sans-serif" font-size="12" font-style="italic" lengthAdjust="spacing" textLength="72.5625" x="174.1064" y="65.1387">&#171;ImplClass&#187;</text><text fill="#000000" font-family="sans-serif" font-size="14" lengthAdjust="spacing" textLength="87.377" x="166.6992" y="80.9639">MemberPost</text><line style="stroke:#181818;stroke-width:0.5;" x1="25" x2="363.2754" y1="89.2656" y2="89.2656"/><ellipse cx="35" cy="102.9141" fill="none" rx="3" ry="3" style="stroke:#038048;stroke-width:1;"/><text fill="#000000" font-family="sans-serif" font-size="14" lengthAdjust="spacing" textLength="97.7197" x="44" y="106.2607">Author author</text><line style="stroke:#181818;stroke-width:1;" x1="25" x2="363.2754" y1="113.5625" y2="113.5625"/><ellipse cx="35" cy="127.2109" fill="#84BE84" rx="3" ry="3" style="stroke:#038048;stroke-width:1;"/><text fill="#000000" font-family="sans-serif" font-size="14" lengthAdjust="spacing" textLength="309.5723" x="44" y="130.5576">hasDeletePermission(Visitor, DeleteParams)</text><ellipse cx="35" cy="143.5078" fill="#84BE84" rx="3" ry="3" style="stroke:#038048;stroke-width:1;"/><text fill="#000000" font-family="sans-serif" font-size="14" lengthAdjust="spacing" textLength="314.2754" x="44" y="146.8545">hasUpdatePermission(Visitor, DeleteParams)</text></g><!--class Board--><g class="entity" data-entity="Board" data-source-line="33" data-uid="ent0006" id="entity_Board"><rect fill="#F1F1F1" height="88.8594" rx="2.5" ry="2.5" style="stroke:#181818;stroke-width:0.5;" width="169.6299" x="22" y="542"/><ellipse cx="61.2328" cy="562.1328" fill="#F1F1F1" rx="11" ry="11" style="stroke:#181818;stroke-width:1;"/><path d="M60.7171,562.6953 Q58.8578,561.9922 58.2015,561.2266 Q57.5609,560.4453 57.5609,559.1328 Q57.5609,557.4453 58.639,556.4766 Q59.7171,555.5078 61.5921,555.5078 Q62.4515,555.5078 63.2953,555.7109 Q64.1546,555.8984 64.9984,556.2891 L64.9984,558.6797 Q64.2171,558.1172 63.389,557.8359 Q62.5765,557.5391 61.7796,557.5391 Q60.9046,557.5391 60.4203,557.8984 Q59.9515,558.2578 59.9515,558.9141 Q59.9515,559.4297 60.2953,559.7734 Q60.639,560.1016 61.7328,560.5078 L62.7953,560.9141 Q64.2796,561.4609 64.9828,562.3672 Q65.7015,563.2734 65.7015,564.6484 Q65.7015,566.5234 64.5921,567.4453 Q63.4828,568.3672 61.2328,568.3672 Q60.3109,568.3672 59.389,568.1484 Q58.4671,567.9297 57.6078,567.5078 L57.6078,564.9766 Q58.5765,565.6641 59.4984,566.0078 Q60.4203,566.3516 61.3109,566.3516 Q62.2171,566.3516 62.7171,565.9453 Q63.2171,565.5234 63.2171,564.7891 Q63.2171,564.2266 62.8734,563.8203 Q62.5453,563.3984 61.9203,563.1484 L60.7171,562.6953 Z " fill="#000000"/><text fill="#000000" font-family="sans-serif" font-size="12" font-style="italic" lengthAdjust="spacing" textLength="87.7793" x="78.6178" y="558.1387">&#171;ValueObject&#187;</text><text fill="#000000" font-family="sans-serif" font-size="14" lengthAdjust="spacing" textLength="41.3916" x="101.8117" y="573.9639">Board</text><line style="stroke:#181818;stroke-width:0.5;" x1="23" x2="190.6299" y1="582.2656" y2="582.2656"/><text fill="#000000" font-family="sans-serif" font-size="14" lengthAdjust="spacing" textLength="34.125" x="28" y="599.2607">Long</text><text fill="#000000" font-family="sans-serif" font-size="14" lengthAdjust="spacing" textLength="53.6895" x="103.6533" y="599.2607">boardId</text><text fill="#000000" font-family="sans-serif" font-size="14" lengthAdjust="spacing" textLength="41.7813" x="28" y="615.5576">String</text><text fill="#000000" font-family="sans-serif" font-size="14" lengthAdjust="spacing" textLength="81.9766" x="103.6533" y="615.5576">boardName</text><line style="stroke:#181818;stroke-width:0.5;" x1="23" x2="190.6299" y1="622.8594" y2="622.8594"/></g><!--class HashTag--><g class="entity" data-entity="HashTag" data-source-line="41" data-uid="ent0008" id="entity_HashTag"><rect fill="#F1F1F1" height="72.5625" rx="2.5" ry="2.5" style="stroke:#181818;stroke-width:0.5;" width="95.1865" x="281.5" y="707"/><ellipse cx="297.353" cy="727.1328" fill="#ADD1B2" rx="11" ry="11" style="stroke:#181818;stroke-width:1;"/><path d="M301.4624,733.1328 L293.7436,733.1328 L293.7436,720.7422 L301.4624,720.7422 L301.4624,722.8984 L296.1967,722.8984 L296.1967,725.5703 L300.9624,725.5703 L300.9624,727.7266 L296.1967,727.7266 L296.1967,730.9766 L301.4624,730.9766 L301.4624,733.1328 Z " fill="#000000"/><text fill="#000000" font-family="sans-serif" font-size="12" font-style="italic" lengthAdjust="spacing" textLength="49.8457" x="317.2652" y="723.1387">&#171;Entity&#187;</text><text fill="#000000" font-family="sans-serif" font-size="14" lengthAdjust="spacing" textLength="61.291" x="311.5425" y="738.9639">HashTag</text><line style="stroke:#181818;stroke-width:0.5;" x1="282.5" x2="375.6865" y1="747.2656" y2="747.2656"/><ellipse cx="292.5" cy="760.9141" fill="none" rx="3" ry="3" style="stroke:#038048;stroke-width:1;"/><text fill="#000000" font-family="sans-serif" font-size="14" lengthAdjust="spacing" textLength="69.1865" x="301.5" y="764.2607">String tag</text><line style="stroke:#181818;stroke-width:0.5;" x1="282.5" x2="375.6865" y1="771.5625" y2="771.5625"/></g><!--class Tags--><g class="entity" data-entity="Tags" data-source-line="44" data-uid="ent0009" id="entity_Tags"><rect fill="#F1F1F1" height="88.8594" rx="2.5" ry="2.5" style="stroke:#181818;stroke-width:0.5;" width="203.6934" x="227" y="542"/><ellipse cx="280.7998" cy="562.1328" fill="#F1F1F1" rx="11" ry="11" style="stroke:#181818;stroke-width:1;"/><path d="M280.2842,562.6953 Q278.4248,561.9922 277.7686,561.2266 Q277.1279,560.4453 277.1279,559.1328 Q277.1279,557.4453 278.2061,556.4766 Q279.2842,555.5078 281.1592,555.5078 Q282.0186,555.5078 282.8623,555.7109 Q283.7217,555.8984 284.5654,556.2891 L284.5654,558.6797 Q283.7842,558.1172 282.9561,557.8359 Q282.1436,557.5391 281.3467,557.5391 Q280.4717,557.5391 279.9873,557.8984 Q279.5186,558.2578 279.5186,558.9141 Q279.5186,559.4297 279.8623,559.7734 Q280.2061,560.1016 281.2998,560.5078 L282.3623,560.9141 Q283.8467,561.4609 284.5498,562.3672 Q285.2686,563.2734 285.2686,564.6484 Q285.2686,566.5234 284.1592,567.4453 Q283.0498,568.3672 280.7998,568.3672 Q279.8779,568.3672 278.9561,568.1484 Q278.0342,567.9297 277.1748,567.5078 L277.1748,564.9766 Q278.1436,565.6641 279.0654,566.0078 Q279.9873,566.3516 280.8779,566.3516 Q281.7842,566.3516 282.2842,565.9453 Q282.7842,565.5234 282.7842,564.7891 Q282.7842,564.2266 282.4404,563.8203 Q282.1123,563.3984 281.4873,563.1484 L280.2842,562.6953 Z " fill="#000000"/><text fill="#000000" font-family="sans-serif" font-size="12" font-style="italic" lengthAdjust="spacing" textLength="91.5938" x="299.2998" y="558.1387">&#171;Value Object&#187;</text><text fill="#000000" font-family="sans-serif" font-size="14" lengthAdjust="spacing" textLength="33.3115" x="328.4409" y="573.9639">Tags</text><line style="stroke:#181818;stroke-width:0.5;" x1="228" x2="429.6934" y1="582.2656" y2="582.2656"/><ellipse cx="238" cy="595.9141" fill="none" rx="3" ry="3" style="stroke:#038048;stroke-width:1;"/><text fill="#000000" font-family="sans-serif" font-size="14" lengthAdjust="spacing" textLength="148.374" x="247" y="599.2607">List&lt;HashTag&gt;  tags</text><line style="stroke:#181818;stroke-width:1;" x1="228" x2="429.6934" y1="606.5625" y2="606.5625"/><ellipse cx="238" cy="620.2109" fill="#84BE84" rx="3" ry="3" style="stroke:#038048;stroke-width:1;"/><text fill="#000000" font-family="sans-serif" font-size="14" lengthAdjust="spacing" text-decoration="underline" textLength="177.6934" x="247" y="623.5576">createTags(String) : Tags</text></g><!--class PostLike--><g class="entity" data-entity="PostLike" data-source-line="54" data-uid="ent0012" id="entity_PostLike"><rect fill="#F1F1F1" height="88.8594" rx="2.5" ry="2.5" style="stroke:#181818;stroke-width:0.5;" width="205.6416" x="500" y="699"/><ellipse cx="569.4702" cy="719.1328" fill="#ADD1B2" rx="11" ry="11" style="stroke:#181818;stroke-width:1;"/><path d="M573.5796,725.1328 L565.8608,725.1328 L565.8608,712.7422 L573.5796,712.7422 L573.5796,714.8984 L568.314,714.8984 L568.314,717.5703 L573.0796,717.5703 L573.0796,719.7266 L568.314,719.7266 L568.314,722.9766 L573.5796,722.9766 L573.5796,725.1328 Z " fill="#000000"/><text fill="#000000" font-family="sans-serif" font-size="12" font-style="italic" lengthAdjust="spacing" textLength="49.8457" x="594.1479" y="715.1387">&#171;Entity&#187;</text><text fill="#000000" font-family="sans-serif" font-size="14" lengthAdjust="spacing" textLength="58.2012" x="589.9702" y="730.9639">PostLike</text><line style="stroke:#181818;stroke-width:0.5;" x1="501" x2="704.6416" y1="739.2656" y2="739.2656"/><ellipse cx="511" cy="752.9141" fill="none" rx="3" ry="3" style="stroke:#038048;stroke-width:1;"/><text fill="#000000" font-family="sans-serif" font-size="14" lengthAdjust="spacing" textLength="22.3535" x="520" y="756.2607">Vid</text><text fill="#000000" font-family="sans-serif" font-size="14" lengthAdjust="spacing" textLength="21.0615" x="595.6533" y="756.2607">vid</text><ellipse cx="511" cy="769.2109" fill="none" rx="3" ry="3" style="stroke:#038048;stroke-width:1;"/><text fill="#000000" font-family="sans-serif" font-size="14" lengthAdjust="spacing" textLength="34.125" x="520" y="772.5576">Long</text><text fill="#000000" font-family="sans-serif" font-size="14" lengthAdjust="spacing" textLength="103.9883" x="595.6533" y="772.5576">likedMemberId</text><line style="stroke:#181818;stroke-width:0.5;" x1="501" x2="704.6416" y1="779.8594" y2="779.8594"/></g><!--class Likes--><g class="entity" data-entity="Likes" data-source-line="58" data-uid="ent0013" id="entity_Likes"><rect fill="#F1F1F1" height="105.1563" rx="2.5" ry="2.5" style="stroke:#181818;stroke-width:0.5;" width="273.5703" x="466" y="534"/><ellipse cx="554.7383" cy="554.1328" fill="#F1F1F1" rx="11" ry="11" style="stroke:#181818;stroke-width:1;"/><path d="M554.2227,554.6953 Q552.3633,553.9922 551.707,553.2266 Q551.0664,552.4453 551.0664,551.1328 Q551.0664,549.4453 552.1445,548.4766 Q553.2227,547.5078 555.0977,547.5078 Q555.957,547.5078 556.8008,547.7109 Q557.6602,547.8984 558.5039,548.2891 L558.5039,550.6797 Q557.7227,550.1172 556.8945,549.8359 Q556.082,549.5391 555.2852,549.5391 Q554.4102,549.5391 553.9258,549.8984 Q553.457,550.2578 553.457,550.9141 Q553.457,551.4297 553.8008,551.7734 Q554.1445,552.1016 555.2383,552.5078 L556.3008,552.9141 Q557.7852,553.4609 558.4883,554.3672 Q559.207,555.2734 559.207,556.6484 Q559.207,558.5234 558.0977,559.4453 Q556.9883,560.3672 554.7383,560.3672 Q553.8164,560.3672 552.8945,560.1484 Q551.9727,559.9297 551.1133,559.5078 L551.1133,556.9766 Q552.082,557.6641 553.0039,558.0078 Q553.9258,558.3516 554.8164,558.3516 Q555.7227,558.3516 556.2227,557.9453 Q556.7227,557.5234 556.7227,556.7891 Q556.7227,556.2266 556.3789,555.8203 Q556.0508,555.3984 555.4258,555.1484 L554.2227,554.6953 Z " fill="#000000"/><text fill="#000000" font-family="sans-serif" font-size="12" font-style="italic" lengthAdjust="spacing" textLength="91.5938" x="573.2383" y="550.1387">&#171;Value Object&#187;</text><text fill="#000000" font-family="sans-serif" font-size="14" lengthAdjust="spacing" textLength="35.7041" x="601.1831" y="565.9639">Likes</text><line style="stroke:#181818;stroke-width:0.5;" x1="467" x2="738.5703" y1="574.2656" y2="574.2656"/><ellipse cx="477" cy="587.9141" fill="none" rx="3" ry="3" style="stroke:#038048;stroke-width:1;"/><text fill="#000000" font-family="sans-serif" font-size="14" lengthAdjust="spacing" textLength="146.8291" x="486" y="591.2607">List&lt;PostLike&gt;  likes</text><line style="stroke:#181818;stroke-width:1;" x1="467" x2="738.5703" y1="598.5625" y2="598.5625"/><ellipse cx="477" cy="612.2109" fill="#84BE84" rx="3" ry="3" style="stroke:#038048;stroke-width:1;"/><text fill="#000000" font-family="sans-serif" font-size="14" lengthAdjust="spacing" textLength="225.0938" x="486" y="615.5576">isLiked(Vid, PostType) : Boolean</text><ellipse cx="477" cy="628.5078" fill="#84BE84" rx="3" ry="3" style="stroke:#038048;stroke-width:1;"/><text fill="#000000" font-family="sans-serif" font-size="14" lengthAdjust="spacing" textLength="247.5703" x="486" y="631.8545">toggleLike(Vid, PostType) : LikeInfo</text></g><!--link Post to Board--><g class="link" data-entity-1="Post" data-entity-2="Board" data-source-line="37" data-uid="lnk7" id="link_Post_Board"><path codeLine="37" d="M211.5,474.18 C188.62,498.55 166.11,522.53 147.87,541.96" fill="none" id="Post-Board" style="stroke:#181818;stroke-width:1;"/></g><!--link Post to Tags--><g class="link" data-entity-1="Post" data-entity-2="Tags" data-source-line="49" data-uid="lnk10" id="link_Post_Tags"><path codeLine="49" d="M329,474.18 C329,498.55 329,522.53 329,541.96" fill="none" id="Post-Tags" style="stroke:#181818;stroke-width:1;"/></g><!--link Tags to HashTag--><g class="link" data-entity-1="Tags" data-entity-2="HashTag" data-source-line="50" data-uid="lnk11" id="link_Tags_HashTag"><path codeLine="50" d="M329,631.09 C329,655 329,678.27 329,700.81" fill="none" id="Tags-to-HashTag" style="stroke:#181818;stroke-width:1;"/><polygon fill="#181818" points="329,706.81,333,697.81,329,701.81,325,697.81,329,706.81" style="stroke:#181818;stroke-width:1;"/><text fill="#000000" font-family="sans-serif" font-size="13" lengthAdjust="spacing" textLength="8.271" x="320.4549" y="650.8277">1</text><text fill="#000000" font-family="sans-serif" font-size="13" lengthAdjust="spacing" textLength="9.7246" x="319.2464" y="696.0563">N</text></g><!--link Post to Likes--><g class="link" data-entity-1="Post" data-entity-2="Likes" data-source-line="64" data-uid="lnk14" id="link_Post_Likes"><path codeLine="64" d="M474.02,474.18 C498.41,495.23 522.46,515.98 543.07,533.77" fill="none" id="Post-Likes" style="stroke:#181818;stroke-width:1;"/></g><!--link Likes to PostLike--><g class="link" data-entity-1="Likes" data-entity-2="PostLike" data-source-line="65" data-uid="lnk15" id="link_Likes_PostLike"><path codeLine="65" d="M603,639.11 C603,658.49 603,674.3 603,692.88" fill="none" id="Likes-to-PostLike" style="stroke:#181818;stroke-width:1;"/><polygon fill="#181818" points="603,698.88,607,689.88,603,693.88,599,689.88,603,698.88" style="stroke:#181818;stroke-width:1;"/><text fill="#000000" font-family="sans-serif" font-size="13" lengthAdjust="spacing" textLength="8.271" x="594.5096" y="659.2526">1</text><text fill="#000000" font-family="sans-serif" font-size="13" lengthAdjust="spacing" textLength="9.7246" x="593.3939" y="687.987">N</text></g><!--link GuestPost to Post--><g class="link" data-entity-1="GuestPost" data-entity-2="Post" data-source-line="68" data-uid="lnk16" id="link_GuestPost_Post"><path codeLine="68" d="M510.29,162.31 C492.53,180.41 484.9164,188.1517 464.5964,208.8617" fill="none" id="GuestPost-to-Post" style="stroke:#181818;stroke-width:1;"/><polygon fill="none" points="451.99,221.71,468.8791,213.0638,460.3136,204.6596,451.99,221.71" style="stroke:#181818;stroke-width:1;"/></g><!--link MemberPost to Post--><g class="link" data-entity-1="MemberPost" data-entity-2="Post" data-source-line="69" data-uid="lnk17" id="link_MemberPost_Post"><path codeLine="69" d="M222.47,154.05 C233.49,174.02 237.9315,182.0613 251.1515,206.0113" fill="none" id="MemberPost-to-Post" style="stroke:#181818;stroke-width:1;"/><polygon fill="none" points="259.85,221.77,256.4044,203.1118,245.8986,208.9108,259.85,221.77" style="stroke:#181818;stroke-width:1;"/></g><!--SRC=[nLHDRzD04BttLwny8QYrAgueYfIu5KGARGGXfrusti5POdkjtKcZgaH2W7hfbHv0FI7-0HJwcqho7zWFEtQ8KxYHGspFl9bzytRVPZISq0Y8bmc57ZdV8Vf7Hmeb3P7qTP0qc-qeaX1H1F9S26or7ChyTdiYZSW9dY0n3Rgip7G4bSobHlPLl-_lBpxT_lhnbdG2idptjGGFECPWmHgEvgFC1I95ID6r2jr77O5J3hEWcZhGZ0SyCNr9A45_iVQMz3HZVwOxGiH0KzURgmE8GIDMUTyleUSAAV9mFfCSeH7OfVfKqaGz98-jY2KM64SJQGovuYZa7ZaqaHNwLF2AYCokkevtJBPLe8YY67fy0erda8n0Tfa1cK0tVIKiS6x_mvWgHPvCGM6-pzqaYmCJNTlY5oYvrZZbuIIb2MmaCbqm4x9UcZ7DbUk3JBXINAHR9bchUMdtuzzggjEuaUyTfpt5iP24siV_usmV3uR7zgdjDjLsSvPfDeSqdiBnw3M4QsRBZxgpKyLgRX-An56nHquNguNlkzux-RBBg- -Bo-lb- -kxdxSseYt5yOmyfMeye96cS6W3TUS0QLHfdpFNHQeWJZQPx_QumcRUlKLC3tMlavnTJTU6MzQSuK5HjJxPAcn9U8yy7MmHxyWhnYccNdovN5nzM7p-M1tPT37cg9zvo5bnkR2DEuV4keuLBjiKnRJzkoe50IsBwLUl2rS6mlIHOdkMyk0i0wD9ValL-dy3N7C952BsLaixrbKP2uQvZ7VVRfOND_Qzl3ny_qshlEagDYmJyzy0]--></g></svg>