<svg xmlns="http://www.w3.org/2000/svg" xmlns:xlink="http://www.w3.org/1999/xlink" contentStyleType="text/css" data-diagram-type="CLASS" height="721px" preserveAspectRatio="none" style="width:473px;height:721px;background:#FFFFFF;" version="1.1" viewBox="0 0 473 721" width="473px" zoomAndPan="magnify"><defs/><g><!--cluster permissionPolicy--><g class="cluster" data-entity="permissionPolicy" data-source-line="1" data-uid="ent0002" id="cluster_permissionPolicy"><path d="M8.5,6 L143.2588,6 A3.75,3.75 0 0 1 145.7588,8.5 L152.7588,28.2969 L463.5,28.2969 A2.5,2.5 0 0 1 466,30.7969 L466,711.5 A2.5,2.5 0 0 1 463.5,714 L8.5,714 A2.5,2.5 0 0 1 6,711.5 L6,8.5 A2.5,2.5 0 0 1 8.5,6" fill="none" style="stroke:#000000;stroke-width:1.5;"/><line style="stroke:#000000;stroke-width:1.5;" x1="6" x2="152.7588" y1="28.2969" y2="28.2969"/><text fill="#000000" font-family="sans-serif" font-size="14" font-weight="bold" lengthAdjust="spacing" textLength="133.7588" x="10" y="20.9951">permissionPolicy</text></g><!--class PermissionPolicy--><g class="entity" data-entity="PermissionPolicy" data-source-line="2" data-uid="ent0003" id="entity_PermissionPolicy"><rect fill="#F1F1F1" height="170.3438" rx="2.5" ry="2.5" style="stroke:#181818;stroke-width:0.5;" width="426.6611" x="22.5" y="41"/><ellipse cx="173.0684" cy="61.1328" fill="#ADD1B2" rx="11" ry="11" style="stroke:#181818;stroke-width:1;"/><path d="M176.0371,66.7734 Q175.459,67.0703 174.8184,67.2109 Q174.1777,67.3672 173.4746,67.3672 Q170.9746,67.3672 169.6465,65.7266 Q168.334,64.0703 168.334,60.9453 Q168.334,57.8203 169.6465,56.1641 Q170.9746,54.5078 173.4746,54.5078 Q174.1777,54.5078 174.8184,54.6641 Q175.4746,54.8203 176.0371,55.1172 L176.0371,57.8359 Q175.4121,57.2578 174.8184,56.9922 Q174.2246,56.7109 173.5996,56.7109 Q172.2559,56.7109 171.5684,57.7891 Q170.8809,58.8516 170.8809,60.9453 Q170.8809,63.0391 171.5684,64.1172 Q172.2559,65.1797 173.5996,65.1797 Q174.2246,65.1797 174.8184,64.9141 Q175.4121,64.6328 176.0371,64.0547 L176.0371,66.7734 Z " fill="#000000"/><text fill="#000000" font-family="sans-serif" font-size="12" font-style="italic" lengthAdjust="spacing" textLength="109.1719" x="197.4946" y="57.1387">&#171;Aggregate Root&#187;</text><text fill="#000000" font-family="sans-serif" font-size="14" lengthAdjust="spacing" textLength="117.0244" x="193.5684" y="72.9639">PermissionPolicy</text><line style="stroke:#181818;stroke-width:0.5;" x1="23.5" x2="448.1611" y1="81.2656" y2="81.2656"/><rect fill="none" height="6" style="stroke:#C82930;stroke-width:1;" width="6" x="30.5" y="91.9141"/><text fill="#000000" font-family="sans-serif" font-size="14" lengthAdjust="spacing" textLength="92.2646" x="42.5" y="98.2607">Long boardId</text><rect fill="none" height="6" style="stroke:#C82930;stroke-width:1;" width="6" x="30.5" y="108.2109"/><text fill="#000000" font-family="sans-serif" font-size="14" lengthAdjust="spacing" textLength="348.8242" x="42.5" y="114.5576">List&lt;ManagerAssignment&gt; managerAssignments</text><line style="stroke:#181818;stroke-width:0.5;" x1="23.5" x2="448.1611" y1="121.8594" y2="121.8594"/><ellipse cx="33.5" cy="135.5078" fill="#84BE84" rx="3" ry="3" style="stroke:#038048;stroke-width:1;"/><text fill="#000000" font-family="sans-serif" font-size="14" lengthAdjust="spacing" textLength="350.3008" x="42.5" y="138.8545">ManagerAssignment findAssignment(Long userId)</text><ellipse cx="33.5" cy="151.8047" fill="#84BE84" rx="3" ry="3" style="stroke:#038048;stroke-width:1;"/><text fill="#000000" font-family="sans-serif" font-size="14" lengthAdjust="spacing" textLength="367.8281" x="42.5" y="155.1514">ManagerAssignment deleteAssignment(Long userId)</text><ellipse cx="33.5" cy="168.1016" fill="#84BE84" rx="3" ry="3" style="stroke:#038048;stroke-width:1;"/><text fill="#000000" font-family="sans-serif" font-size="14" lengthAdjust="spacing" textLength="344.9277" x="42.5" y="171.4482">boolean can(Long userId, Permission permission)</text><ellipse cx="33.5" cy="184.3984" fill="#84BE84" rx="3" ry="3" style="stroke:#038048;stroke-width:1;"/><text fill="#000000" font-family="sans-serif" font-size="14" lengthAdjust="spacing" textLength="322.2393" x="42.5" y="187.7451">assignRole(Long userId, RoleName roleName)</text><ellipse cx="33.5" cy="200.6953" fill="#84BE84" rx="3" ry="3" style="stroke:#038048;stroke-width:1;"/><text fill="#000000" font-family="sans-serif" font-size="14" lengthAdjust="spacing" textLength="400.6611" x="42.5" y="204.042">delegateRole(Long from, UserId to, RoleName roleName)</text></g><!--class ManagerAssignment--><g class="entity" data-entity="ManagerAssignment" data-source-line="12" data-uid="ent0004" id="entity_ManagerAssignment"><rect fill="#F1F1F1" height="121.4531" rx="2.5" ry="2.5" style="stroke:#181818;stroke-width:0.5;" width="355.752" x="58" y="271"/><ellipse cx="159.729" cy="291.1328" fill="#ADD1B2" rx="11" ry="11" style="stroke:#181818;stroke-width:1;"/><path d="M163.8384,297.1328 L156.1196,297.1328 L156.1196,284.7422 L163.8384,284.7422 L163.8384,286.8984 L158.5728,286.8984 L158.5728,289.5703 L163.3384,289.5703 L163.3384,291.7266 L158.5728,291.7266 L158.5728,294.9766 L163.8384,294.9766 L163.8384,297.1328 Z " fill="#000000"/><text fill="#000000" font-family="sans-serif" font-size="12" font-style="italic" lengthAdjust="spacing" textLength="49.8457" x="227.2031" y="287.1387">&#171;Entity&#187;</text><text fill="#000000" font-family="sans-serif" font-size="14" lengthAdjust="spacing" textLength="143.7939" x="180.229" y="302.9639">ManagerAssignment</text><line style="stroke:#181818;stroke-width:0.5;" x1="59" x2="412.752" y1="311.2656" y2="311.2656"/><rect fill="none" height="6" style="stroke:#C82930;stroke-width:1;" width="6" x="66" y="321.9141"/><text fill="#000000" font-family="sans-serif" font-size="14" lengthAdjust="spacing" textLength="196.9434" x="78" y="328.2607">Long managerAssignmentId</text><rect fill="none" height="6" style="stroke:#C82930;stroke-width:1;" width="6" x="66" y="338.2109"/><text fill="#000000" font-family="sans-serif" font-size="14" lengthAdjust="spacing" textLength="82.127" x="78" y="344.5576">Long userId</text><rect fill="none" height="6" style="stroke:#C82930;stroke-width:1;" width="6" x="66" y="354.5078"/><text fill="#000000" font-family="sans-serif" font-size="14" lengthAdjust="spacing" textLength="62.0703" x="78" y="360.8545">Role role</text><line style="stroke:#181818;stroke-width:0.5;" x1="59" x2="412.752" y1="368.1563" y2="368.1563"/><ellipse cx="69" cy="381.8047" fill="#84BE84" rx="3" ry="3" style="stroke:#038048;stroke-width:1;"/><text fill="#000000" font-family="sans-serif" font-size="14" lengthAdjust="spacing" textLength="329.752" x="78" y="385.1514">boolean hasPermission(Permission permission)</text></g><!--class Role--><g class="entity" data-entity="Role" data-source-line="19" data-uid="ent0005" id="entity_Role"><rect fill="#F1F1F1" height="105.1563" rx="2.5" ry="2.5" style="stroke:#181818;stroke-width:0.5;" width="355.752" x="58" y="452"/><ellipse cx="187.8291" cy="472.1328" fill="#F1F1F1" rx="11" ry="11" style="stroke:#181818;stroke-width:1;"/><path d="M187.3135,472.6953 Q185.4541,471.9922 184.7979,471.2266 Q184.1572,470.4453 184.1572,469.1328 Q184.1572,467.4453 185.2354,466.4766 Q186.3135,465.5078 188.1885,465.5078 Q189.0479,465.5078 189.8916,465.7109 Q190.751,465.8984 191.5947,466.2891 L191.5947,468.6797 Q190.8135,468.1172 189.9854,467.8359 Q189.1729,467.5391 188.376,467.5391 Q187.501,467.5391 187.0166,467.8984 Q186.5479,468.2578 186.5479,468.9141 Q186.5479,469.4297 186.8916,469.7734 Q187.2354,470.1016 188.3291,470.5078 L189.3916,470.9141 Q190.876,471.4609 191.5791,472.3672 Q192.2979,473.2734 192.2979,474.6484 Q192.2979,476.5234 191.1885,477.4453 Q190.0791,478.3672 187.8291,478.3672 Q186.9072,478.3672 185.9854,478.1484 Q185.0635,477.9297 184.2041,477.5078 L184.2041,474.9766 Q185.1729,475.6641 186.0947,476.0078 Q187.0166,476.3516 187.9072,476.3516 Q188.8135,476.3516 189.3135,475.9453 Q189.8135,475.5234 189.8135,474.7891 Q189.8135,474.2266 189.4697,473.8203 Q189.1416,473.3984 188.5166,473.1484 L187.3135,472.6953 Z " fill="#000000"/><text fill="#000000" font-family="sans-serif" font-size="12" font-style="italic" lengthAdjust="spacing" textLength="91.5938" x="206.3291" y="468.1387">&#171;Value Object&#187;</text><text fill="#000000" font-family="sans-serif" font-size="14" lengthAdjust="spacing" textLength="30.7959" x="236.728" y="483.9639">Role</text><line style="stroke:#181818;stroke-width:0.5;" x1="59" x2="412.752" y1="492.2656" y2="492.2656"/><rect fill="none" height="6" style="stroke:#C82930;stroke-width:1;" width="6" x="66" y="502.9141"/><text fill="#000000" font-family="sans-serif" font-size="14" lengthAdjust="spacing" textLength="144.6758" x="78" y="509.2607">RoleName roleName</text><rect fill="none" height="6" style="stroke:#C82930;stroke-width:1;" width="6" x="66" y="519.2109"/><text fill="#000000" font-family="sans-serif" font-size="14" lengthAdjust="spacing" textLength="211.1484" x="78" y="525.5576">Set&lt;Permission&gt; permissions</text><line style="stroke:#181818;stroke-width:0.5;" x1="59" x2="412.752" y1="532.8594" y2="532.8594"/><ellipse cx="69" cy="546.5078" fill="#84BE84" rx="3" ry="3" style="stroke:#038048;stroke-width:1;"/><text fill="#000000" font-family="sans-serif" font-size="14" lengthAdjust="spacing" textLength="329.752" x="78" y="549.8545">boolean hasPermission(Permission permission)</text></g><!--class RoleName--><g class="entity" data-entity="RoleName" data-source-line="25" data-uid="ent0006" id="entity_RoleName"><rect fill="#F1F1F1" height="64.2969" rx="2.5" ry="2.5" style="stroke:#181818;stroke-width:0.5;" width="104.0986" x="109" y="625.5"/><ellipse cx="124" cy="641.5" fill="#EB937F" rx="11" ry="11" style="stroke:#181818;stroke-width:1;"/><path d="M128.1094,647.5 L120.3906,647.5 L120.3906,635.1094 L128.1094,635.1094 L128.1094,637.2656 L122.8438,637.2656 L122.8438,639.9375 L127.6094,639.9375 L127.6094,642.0938 L122.8438,642.0938 L122.8438,645.3438 L128.1094,645.3438 L128.1094,647.5 Z " fill="#000000"/><text fill="#000000" font-family="sans-serif" font-size="14" lengthAdjust="spacing" textLength="72.0986" x="138" y="646.3467">RoleName</text><line style="stroke:#181818;stroke-width:0.5;" x1="110" x2="212.0986" y1="657.5" y2="657.5"/><text fill="#000000" font-family="sans-serif" font-size="14" lengthAdjust="spacing" textLength="90.9385" x="115" y="674.4951">POST_ADMIN</text><line style="stroke:#181818;stroke-width:0.5;" x1="110" x2="212.0986" y1="681.7969" y2="681.7969"/></g><!--class Permission--><g class="entity" data-entity="Permission" data-source-line="29" data-uid="ent0007" id="entity_Permission"><rect fill="#F1F1F1" height="80.5938" rx="2.5" ry="2.5" style="stroke:#181818;stroke-width:0.5;" width="125.0322" x="248.5" y="617"/><ellipse cx="271.0498" cy="633" fill="#EB937F" rx="11" ry="11" style="stroke:#181818;stroke-width:1;"/><path d="M275.1592,639 L267.4404,639 L267.4404,626.6094 L275.1592,626.6094 L275.1592,628.7656 L269.8936,628.7656 L269.8936,631.4375 L274.6592,631.4375 L274.6592,633.5938 L269.8936,633.5938 L269.8936,636.8438 L275.1592,636.8438 L275.1592,639 Z " fill="#000000"/><text fill="#000000" font-family="sans-serif" font-size="14" lengthAdjust="spacing" textLength="76.2549" x="286.7275" y="637.8467">Permission</text><line style="stroke:#181818;stroke-width:0.5;" x1="249.5" x2="372.5322" y1="649" y2="649"/><text fill="#000000" font-family="sans-serif" font-size="14" lengthAdjust="spacing" textLength="111.3779" x="254.5" y="665.9951">DELETE_BOARD</text><text fill="#000000" font-family="sans-serif" font-size="14" lengthAdjust="spacing" textLength="113.0322" x="254.5" y="682.292">CREATE_BOARD</text><line style="stroke:#181818;stroke-width:0.5;" x1="249.5" x2="372.5322" y1="689.5938" y2="689.5938"/></g><!--reverse link PermissionPolicy to ManagerAssignment--><g class="link" data-entity-1="PermissionPolicy" data-entity-2="ManagerAssignment" data-source-line="34" data-uid="lnk8" id="link_PermissionPolicy_ManagerAssignment"><path codeLine="34" d="M236,223.24 C236,243.25 236,252.19 236,270.84" fill="none" id="PermissionPolicy-backto-ManagerAssignment" style="stroke:#181818;stroke-width:1;"/><polygon fill="none" points="236,211.24,232,217.24,236,223.24,240,217.24,236,211.24" style="stroke:#181818;stroke-width:1;"/><text fill="#000000" font-family="sans-serif" font-size="13" lengthAdjust="spacing" textLength="8.271" x="227.6825" y="231.2677">1</text><text fill="#000000" font-family="sans-serif" font-size="13" lengthAdjust="spacing" textLength="6.5" x="229.6964" y="260.0074">*</text></g><!--link ManagerAssignment to Role--><g class="link" data-entity-1="ManagerAssignment" data-entity-2="Role" data-source-line="35" data-uid="lnk9" id="link_ManagerAssignment_Role"><path codeLine="35" d="M236,392.31 C236,411.76 236,427.17 236,445.97" fill="none" id="ManagerAssignment-to-Role" style="stroke:#181818;stroke-width:1;"/><polygon fill="#181818" points="236,451.97,240,442.97,236,446.97,232,442.97,236,451.97" style="stroke:#181818;stroke-width:1;"/><text fill="#000000" font-family="sans-serif" font-size="13" lengthAdjust="spacing" textLength="6.5" x="229.68" y="412.6827">*</text><text fill="#000000" font-family="sans-serif" font-size="13" lengthAdjust="spacing" textLength="8.271" x="227.4974" y="440.9688">1</text></g><!--link Role to RoleName--><g class="link" data-entity-1="Role" data-entity-2="RoleName" data-source-line="36" data-uid="lnk10" id="link_Role_RoleName"><path codeLine="36" d="M210.4,557.04 C199.11,579.77 188.8891,600.3564 179.1091,620.0464" fill="none" id="Role-to-RoleName" style="stroke:#181818;stroke-width:1;"/><polygon fill="#181818" points="176.44,625.42,184.026,619.1389,178.6642,620.942,176.8612,615.5802,176.44,625.42" style="stroke:#181818;stroke-width:1;"/></g><!--link Role to Permission--><g class="link" data-entity-1="Role" data-entity-2="Permission" data-source-line="37" data-uid="lnk11" id="link_Role_Permission"><path codeLine="37" d="M261.6,557.04 C271.28,576.52 279.462,593.0058 288.522,611.2558" fill="none" id="Role-to-Permission" style="stroke:#181818;stroke-width:1;"/><polygon fill="#181818" points="291.19,616.63,290.7709,606.7901,288.9667,612.1515,283.6053,610.3473,291.19,616.63" style="stroke:#181818;stroke-width:1;"/></g><!--SRC=[fPCzRuCm48PtViM9AMt3qDr2eeKXKhv4qgwHWGkb1JkopH1L-U_51ce2IPSkoBo-vpxUWnDDlsYEu9vGL8MK1MTRNXRfsOLl1o0jgPIm7Tq18K6U2yofGeWvLxwlWm4yM7AMGyAfo1PPBnLIaHLbJHaHD5boLY5JFbHZIHhW2IQnS2nOPbzdfaWjKIooXxjCXYKg_9jAE2-HCaWf6rxF1nE3DQQdgCaPD-Wrf9KrhH14T-W1tOhsoY97mQivl1aG5B_3NfpcqRHUgFED0Gc9pDN8_8cjTX6ssKxHLKt5aHyVL5e7PdVDCFr99UfKjQa8UQTbZR19FZ4TV1MJwJfzXuhOxFuWlVn7HyZgofPiUzXkTlj34AuMwwkeGQ8sBeoMqJuwl6o2E3J2Qnm50y6Wa__1VNQ1UnwuZ-vqKGqmNPwEz3pVa76x0EEWrc9hqgzcIpgN7m00]--></g></svg>