<svg xmlns="http://www.w3.org/2000/svg" xmlns:xlink="http://www.w3.org/1999/xlink" contentStyleType="text/css" data-diagram-type="SEQUENCE" height="456px" preserveAspectRatio="none" style="width:693px;height:456px;background:#FFFFFF;" version="1.1" viewBox="0 0 693 456" width="693px" zoomAndPan="magnify"><title>assignRole</title><defs/><g><text fill="#000000" font-family="sans-serif" font-size="14" font-weight="bold" lengthAdjust="spacing" textLength="85.5928" x="304.7737" y="27.9951">assignRole</text><rect fill="none" height="135.6641" style="stroke:#000000;stroke-width:1.5;" width="676.1401" x="10" y="222.9922"/><g><title>Caller</title><rect fill="#000000" fill-opacity="0.00000" height="257.0625" width="8" x="39.2515" y="118.5938"/><line style="stroke:#181818;stroke-width:0.5;stroke-dasharray:5.0,5.0;" x1="43" x2="43" y1="118.5938" y2="375.6563"/></g><g><title>PermissionPolicy</title><rect fill="#000000" fill-opacity="0.00000" height="257.0625" width="8" x="255.5728" y="118.5938"/><line style="stroke:#181818;stroke-width:0.5;stroke-dasharray:5.0,5.0;" x1="259.0605" x2="259.0605" y1="118.5938" y2="375.6563"/></g><g><title>ManagerAssignment</title><rect fill="#000000" fill-opacity="0.00000" height="257.0625" width="8" x="444.0977" y="118.5938"/><line style="stroke:#181818;stroke-width:0.5;stroke-dasharray:5.0,5.0;" x1="447.2007" x2="447.2007" y1="118.5938" y2="375.6563"/></g><g><title>Role</title><rect fill="#000000" fill-opacity="0.00000" height="257.0625" width="8" x="649.7422" y="118.5938"/><line style="stroke:#181818;stroke-width:0.5;stroke-dasharray:5.0,5.0;" x1="653.3442" x2="653.3442" y1="118.5938" y2="375.6563"/></g><g class="participant participant-head" data-participant="Caller"><text fill="#000000" font-family="sans-serif" font-size="14" lengthAdjust="spacing" textLength="40.5029" x="20" y="115.292">Caller</text><ellipse cx="43.2515" cy="50.7969" fill="#E2E2F0" rx="8" ry="8" style="stroke:#181818;stroke-width:0.5;"/><path d="M43.2515,58.7969 L43.2515,85.7969 M30.2515,66.7969 L56.2515,66.7969 M43.2515,85.7969 L30.2515,100.7969 M43.2515,85.7969 L56.2515,100.7969" fill="none" style="stroke:#181818;stroke-width:0.5;"/></g><g class="participant participant-tail" data-participant="Caller"><text fill="#000000" font-family="sans-serif" font-size="14" lengthAdjust="spacing" textLength="40.5029" x="20" y="387.6514">Caller</text><ellipse cx="43.2515" cy="399.4531" fill="#E2E2F0" rx="8" ry="8" style="stroke:#181818;stroke-width:0.5;"/><path d="M43.2515,407.4531 L43.2515,434.4531 M30.2515,415.4531 L56.2515,415.4531 M43.2515,434.4531 L30.2515,449.4531 M43.2515,434.4531 L56.2515,449.4531" fill="none" style="stroke:#181818;stroke-width:0.5;"/></g><g class="participant participant-head" data-participant="PermissionPolicy"><rect fill="#E2E2F0" height="30.2969" rx="2.5" ry="2.5" style="stroke:#181818;stroke-width:0.5;" width="131.0244" x="194.0605" y="87.2969"/><text fill="#000000" font-family="sans-serif" font-size="14" lengthAdjust="spacing" textLength="117.0244" x="201.0605" y="107.292">PermissionPolicy</text></g><g class="participant participant-tail" data-participant="PermissionPolicy"><rect fill="#E2E2F0" height="30.2969" rx="2.5" ry="2.5" style="stroke:#181818;stroke-width:0.5;" width="131.0244" x="194.0605" y="374.6563"/><text fill="#000000" font-family="sans-serif" font-size="14" lengthAdjust="spacing" textLength="117.0244" x="201.0605" y="394.6514">PermissionPolicy</text></g><g class="participant participant-head" data-participant="ManagerAssignment"><rect fill="#E2E2F0" height="30.2969" rx="2.5" ry="2.5" style="stroke:#181818;stroke-width:0.5;" width="157.7939" x="369.2007" y="87.2969"/><text fill="#000000" font-family="sans-serif" font-size="14" lengthAdjust="spacing" textLength="143.7939" x="376.2007" y="107.292">ManagerAssignment</text></g><g class="participant participant-tail" data-participant="ManagerAssignment"><rect fill="#E2E2F0" height="30.2969" rx="2.5" ry="2.5" style="stroke:#181818;stroke-width:0.5;" width="157.7939" x="369.2007" y="374.6563"/><text fill="#000000" font-family="sans-serif" font-size="14" lengthAdjust="spacing" textLength="143.7939" x="376.2007" y="394.6514">ManagerAssignment</text></g><g class="participant participant-head" data-participant="Role"><rect fill="#E2E2F0" height="30.2969" rx="2.5" ry="2.5" style="stroke:#181818;stroke-width:0.5;" width="44.7959" x="631.3442" y="87.2969"/><text fill="#000000" font-family="sans-serif" font-size="14" lengthAdjust="spacing" textLength="30.7959" x="638.3442" y="107.292">Role</text></g><g class="participant participant-tail" data-participant="Role"><rect fill="#E2E2F0" height="30.2969" rx="2.5" ry="2.5" style="stroke:#181818;stroke-width:0.5;" width="44.7959" x="631.3442" y="374.6563"/><text fill="#000000" font-family="sans-serif" font-size="14" lengthAdjust="spacing" textLength="30.7959" x="638.3442" y="394.6514">Role</text></g><g class="message" data-participant-1="Caller" data-participant-2="PermissionPolicy"><polygon fill="#181818" points="247.5728,145.7266,257.5728,149.7266,247.5728,153.7266,251.5728,149.7266" style="stroke:#181818;stroke-width:1;"/><line style="stroke:#181818;stroke-width:1;" x1="43.2515" x2="253.5728" y1="149.7266" y2="149.7266"/><text fill="#000000" font-family="sans-serif" font-size="13" lengthAdjust="spacing" textLength="192.3213" x="50.2515" y="144.6606">assignRole(userId, roleName)</text></g><g class="message" data-participant-1="PermissionPolicy" data-participant-2="ManagerAssignment"><polygon fill="#181818" points="436.0977,174.8594,446.0977,178.8594,436.0977,182.8594,440.0977,178.8594" style="stroke:#181818;stroke-width:1;"/><line style="stroke:#181818;stroke-width:1;" x1="259.5728" x2="442.0977" y1="178.8594" y2="178.8594"/><text fill="#000000" font-family="sans-serif" font-size="13" lengthAdjust="spacing" textLength="163.6616" x="266.5728" y="173.7935">create(userId, roleName)</text></g><g class="message" data-participant-1="ManagerAssignment" data-participant-2="Role"><polygon fill="#181818" points="641.7422,203.9922,651.7422,207.9922,641.7422,211.9922,645.7422,207.9922" style="stroke:#181818;stroke-width:1;"/><line style="stroke:#181818;stroke-width:1;" x1="448.0977" x2="647.7422" y1="207.9922" y2="207.9922"/><text fill="#000000" font-family="sans-serif" font-size="13" lengthAdjust="spacing" textLength="181.6445" x="455.0977" y="202.9263">findRoleByName(roleName)</text></g><path d="M10,222.9922 L74.4429,222.9922 L74.4429,230.125 L64.4429,240.125 L10,240.125 L10,222.9922" fill="#EEEEEE" style="stroke:#000000;stroke-width:1.5;"/><rect fill="none" height="135.6641" style="stroke:#000000;stroke-width:1.5;" width="676.1401" x="10" y="222.9922"/><text fill="#000000" font-family="sans-serif" font-size="13" font-weight="bold" lengthAdjust="spacing" textLength="19.4429" x="25" y="236.0591">alt</text><text fill="#000000" font-family="sans-serif" font-size="11" font-weight="bold" lengthAdjust="spacing" textLength="181.2583" x="89.4429" y="235.2026">[ManagerAssignment.create]</text><g class="message" data-participant-1="Role" data-participant-2="ManagerAssignment"><polygon fill="#181818" points="459.0977,257.2578,449.0977,261.2578,459.0977,265.2578,455.0977,261.2578" style="stroke:#181818;stroke-width:1;"/><line style="stroke:#181818;stroke-width:1;stroke-dasharray:2.0,2.0;" x1="453.0977" x2="652.7422" y1="261.2578" y2="261.2578"/><text fill="#000000" font-family="sans-serif" font-size="13" lengthAdjust="spacing" textLength="28.5962" x="465.0977" y="256.1919">Role</text></g><g class="message" data-participant-1="ManagerAssignment" data-participant-2="PermissionPolicy"><polygon fill="#181818" points="270.5728,286.3906,260.5728,290.3906,270.5728,294.3906,266.5728,290.3906" style="stroke:#181818;stroke-width:1;"/><line style="stroke:#181818;stroke-width:1;" x1="264.5728" x2="447.0977" y1="290.3906" y2="290.3906"/><text fill="#000000" font-family="sans-serif" font-size="13" lengthAdjust="spacing" textLength="164.5249" x="276.5728" y="285.3247">new ManagerAssignment</text></g><g class="message" data-participant-1="PermissionPolicy" data-participant-2="Caller"><polygon fill="#181818" points="54.2515,315.5234,44.2515,319.5234,54.2515,323.5234,50.2515,319.5234" style="stroke:#181818;stroke-width:1;"/><line style="stroke:#181818;stroke-width:1;" x1="48.2515" x2="258.5728" y1="319.5234" y2="319.5234"/><text fill="#000000" font-family="sans-serif" font-size="13" lengthAdjust="spacing" textLength="27.5107" x="60.2515" y="314.4575">void</text></g><line style="stroke:#000000;stroke-width:1;stroke-dasharray:2.0,2.0;" x1="10" x2="686.1401" y1="328.5234" y2="328.5234"/><g class="message" data-participant-1="Role" data-participant-2="Caller"><polygon fill="#181818" points="54.2515,346.6563,44.2515,350.6563,54.2515,354.6563,50.2515,350.6563" style="stroke:#181818;stroke-width:1;"/><line style="stroke:#181818;stroke-width:1;stroke-dasharray:2.0,2.0;" x1="48.2515" x2="652.7422" y1="350.6563" y2="350.6563"/><text fill="#000000" font-family="sans-serif" font-size="13" lengthAdjust="spacing" textLength="105.3901" x="60.2515" y="345.5903">throw exception</text></g><!--SRC=[RP0n3i8m34NtdC8ZI9G3T4029WPGnGsin9H8QLAvXjBRan8ag98jaVtV_zzYnH7WCDZMNuCZfL1BO3YYSyIgHnQhROzUe27kR5mClWdEwcanFAF7bdZ_0NNaPJ5DvCI4QfUXeFwBi7eCn2Up0OwV2tQqLYeJH4Xc6IcQ2QL4o9SZONQBeflrPduUfdbtzHEXAnJR9Wy5ILwLajIfCK3Hjj3UqrWu8K2fz_UCDJo3DOhSiCYIfZN8dSC8zDBKIvGhykOD]--></g></svg>