<svg xmlns="http://www.w3.org/2000/svg" xmlns:xlink="http://www.w3.org/1999/xlink" contentStyleType="text/css" data-diagram-type="SEQUENCE" height="556px" preserveAspectRatio="none" style="width:658px;height:556px;background:#FFFFFF;" version="1.1" viewBox="0 0 658 556" width="658px" zoomAndPan="magnify"><title>can</title><defs/><g><text fill="#000000" font-family="sans-serif" font-size="14" font-weight="bold" lengthAdjust="spacing" textLength="27.7129" x="316.3306" y="27.9951">can</text><rect fill="none" height="265" style="stroke:#000000;stroke-width:1.5;" width="641.374" x="10" y="193.8594"/><g><title>Caller</title><rect fill="#000000" fill-opacity="0.00000" height="357.2656" width="8" x="39.2515" y="118.5938"/><line style="stroke:#181818;stroke-width:0.5;stroke-dasharray:5.0,5.0;" x1="43" x2="43" y1="118.5938" y2="475.8594"/></g><g><title>PermissionPolicy</title><rect fill="#000000" fill-opacity="0.00000" height="357.2656" width="8" x="216.6743" y="118.5938"/><line style="stroke:#181818;stroke-width:0.5;stroke-dasharray:5.0,5.0;" x1="220.1621" x2="220.1621" y1="118.5938" y2="475.8594"/></g><g><title>ManagerAssignment</title><rect fill="#000000" fill-opacity="0.00000" height="357.2656" width="8" x="415.8252" y="118.5938"/><line style="stroke:#181818;stroke-width:0.5;stroke-dasharray:5.0,5.0;" x1="418.9282" x2="418.9282" y1="118.5938" y2="475.8594"/></g><g><title>Role</title><rect fill="#000000" fill-opacity="0.00000" height="357.2656" width="8" x="614.9761" y="118.5938"/><line style="stroke:#181818;stroke-width:0.5;stroke-dasharray:5.0,5.0;" x1="618.5781" x2="618.5781" y1="118.5938" y2="475.8594"/></g><g class="participant participant-head" data-participant="Caller"><text fill="#000000" font-family="sans-serif" font-size="14" lengthAdjust="spacing" textLength="40.5029" x="20" y="115.292">Caller</text><ellipse cx="43.2515" cy="50.7969" fill="#E2E2F0" rx="8" ry="8" style="stroke:#181818;stroke-width:0.5;"/><path d="M43.2515,58.7969 L43.2515,85.7969 M30.2515,66.7969 L56.2515,66.7969 M43.2515,85.7969 L30.2515,100.7969 M43.2515,85.7969 L56.2515,100.7969" fill="none" style="stroke:#181818;stroke-width:0.5;"/></g><g class="participant participant-tail" data-participant="Caller"><text fill="#000000" font-family="sans-serif" font-size="14" lengthAdjust="spacing" textLength="40.5029" x="20" y="487.8545">Caller</text><ellipse cx="43.2515" cy="499.6563" fill="#E2E2F0" rx="8" ry="8" style="stroke:#181818;stroke-width:0.5;"/><path d="M43.2515,507.6563 L43.2515,534.6563 M30.2515,515.6563 L56.2515,515.6563 M43.2515,534.6563 L30.2515,549.6563 M43.2515,534.6563 L56.2515,549.6563" fill="none" style="stroke:#181818;stroke-width:0.5;"/></g><g class="participant participant-head" data-participant="PermissionPolicy"><rect fill="#E2E2F0" height="30.2969" rx="2.5" ry="2.5" style="stroke:#181818;stroke-width:0.5;" width="131.0244" x="155.1621" y="87.2969"/><text fill="#000000" font-family="sans-serif" font-size="14" lengthAdjust="spacing" textLength="117.0244" x="162.1621" y="107.292">PermissionPolicy</text></g><g class="participant participant-tail" data-participant="PermissionPolicy"><rect fill="#E2E2F0" height="30.2969" rx="2.5" ry="2.5" style="stroke:#181818;stroke-width:0.5;" width="131.0244" x="155.1621" y="474.8594"/><text fill="#000000" font-family="sans-serif" font-size="14" lengthAdjust="spacing" textLength="117.0244" x="162.1621" y="494.8545">PermissionPolicy</text></g><g class="participant participant-head" data-participant="ManagerAssignment"><rect fill="#E2E2F0" height="30.2969" rx="2.5" ry="2.5" style="stroke:#181818;stroke-width:0.5;" width="157.7939" x="340.9282" y="87.2969"/><text fill="#000000" font-family="sans-serif" font-size="14" lengthAdjust="spacing" textLength="143.7939" x="347.9282" y="107.292">ManagerAssignment</text></g><g class="participant participant-tail" data-participant="ManagerAssignment"><rect fill="#E2E2F0" height="30.2969" rx="2.5" ry="2.5" style="stroke:#181818;stroke-width:0.5;" width="157.7939" x="340.9282" y="474.8594"/><text fill="#000000" font-family="sans-serif" font-size="14" lengthAdjust="spacing" textLength="143.7939" x="347.9282" y="494.8545">ManagerAssignment</text></g><g class="participant participant-head" data-participant="Role"><rect fill="#E2E2F0" height="30.2969" rx="2.5" ry="2.5" style="stroke:#181818;stroke-width:0.5;" width="44.7959" x="596.5781" y="87.2969"/><text fill="#000000" font-family="sans-serif" font-size="14" lengthAdjust="spacing" textLength="30.7959" x="603.5781" y="107.292">Role</text></g><g class="participant participant-tail" data-participant="Role"><rect fill="#E2E2F0" height="30.2969" rx="2.5" ry="2.5" style="stroke:#181818;stroke-width:0.5;" width="44.7959" x="596.5781" y="474.8594"/><text fill="#000000" font-family="sans-serif" font-size="14" lengthAdjust="spacing" textLength="30.7959" x="603.5781" y="494.8545">Role</text></g><g class="message" data-participant-1="Caller" data-participant-2="PermissionPolicy"><polygon fill="#181818" points="208.6743,145.7266,218.6743,149.7266,208.6743,153.7266,212.6743,149.7266" style="stroke:#181818;stroke-width:1;"/><line style="stroke:#181818;stroke-width:1;" x1="43.2515" x2="214.6743" y1="149.7266" y2="149.7266"/><text fill="#000000" font-family="sans-serif" font-size="13" lengthAdjust="spacing" textLength="153.4229" x="50.2515" y="144.6606">can(userId, permission)</text></g><g class="message" data-participant-1="PermissionPolicy" data-participant-2="ManagerAssignment"><polygon fill="#181818" points="407.8252,174.8594,417.8252,178.8594,407.8252,182.8594,411.8252,178.8594" style="stroke:#181818;stroke-width:1;"/><line style="stroke:#181818;stroke-width:1;" x1="220.6743" x2="413.8252" y1="178.8594" y2="178.8594"/><text fill="#000000" font-family="sans-serif" font-size="13" lengthAdjust="spacing" textLength="175.1509" x="227.6743" y="173.7935">hasPermission(permission)</text></g><path d="M10,193.8594 L74.4429,193.8594 L74.4429,200.9922 L64.4429,210.9922 L10,210.9922 L10,193.8594" fill="#EEEEEE" style="stroke:#000000;stroke-width:1.5;"/><rect fill="none" height="265" style="stroke:#000000;stroke-width:1.5;" width="641.374" x="10" y="193.8594"/><text fill="#000000" font-family="sans-serif" font-size="13" font-weight="bold" lengthAdjust="spacing" textLength="19.4429" x="25" y="206.9263">alt</text><text fill="#000000" font-family="sans-serif" font-size="11" font-weight="bold" lengthAdjust="spacing" textLength="46.8896" x="89.4429" y="206.0698">[&#54728;&#50857;&#46108; &#44428;&#54620;]</text><g class="message" data-participant-1="ManagerAssignment" data-participant-2="Role"><polygon fill="#181818" points="606.9761,228.125,616.9761,232.125,606.9761,236.125,610.9761,232.125" style="stroke:#181818;stroke-width:1;"/><line style="stroke:#181818;stroke-width:1;" x1="419.8252" x2="612.9761" y1="232.125" y2="232.125"/><text fill="#000000" font-family="sans-serif" font-size="13" lengthAdjust="spacing" textLength="175.1509" x="426.8252" y="227.0591">hasPermission(permission)</text></g><g class="message" data-participant-1="Role" data-participant-2="ManagerAssignment"><polygon fill="#181818" points="430.8252,257.2578,420.8252,261.2578,430.8252,265.2578,426.8252,261.2578" style="stroke:#181818;stroke-width:1;"/><line style="stroke:#181818;stroke-width:1;stroke-dasharray:2.0,2.0;" x1="424.8252" x2="617.9761" y1="261.2578" y2="261.2578"/><text fill="#000000" font-family="sans-serif" font-size="13" lengthAdjust="spacing" textLength="26.6792" x="436.8252" y="256.1919">true</text></g><g class="message" data-participant-1="ManagerAssignment" data-participant-2="PermissionPolicy"><polygon fill="#181818" points="231.6743,286.3906,221.6743,290.3906,231.6743,294.3906,227.6743,290.3906" style="stroke:#181818;stroke-width:1;"/><line style="stroke:#181818;stroke-width:1;stroke-dasharray:2.0,2.0;" x1="225.6743" x2="418.8252" y1="290.3906" y2="290.3906"/><text fill="#000000" font-family="sans-serif" font-size="13" lengthAdjust="spacing" textLength="26.6792" x="237.6743" y="285.3247">true</text></g><g class="message" data-participant-1="PermissionPolicy" data-participant-2="Caller"><polygon fill="#181818" points="54.2515,315.5234,44.2515,319.5234,54.2515,323.5234,50.2515,319.5234" style="stroke:#181818;stroke-width:1;"/><line style="stroke:#181818;stroke-width:1;stroke-dasharray:2.0,2.0;" x1="48.2515" x2="219.6743" y1="319.5234" y2="319.5234"/><text fill="#000000" font-family="sans-serif" font-size="13" lengthAdjust="spacing" textLength="26.6792" x="60.2515" y="314.4575">true</text></g><line style="stroke:#000000;stroke-width:1;stroke-dasharray:2.0,2.0;" x1="10" x2="651.374" y1="328.5234" y2="328.5234"/><text fill="#000000" font-family="sans-serif" font-size="11" font-weight="bold" lengthAdjust="spacing" textLength="40.2886" x="15" y="338.7339">[&#44428;&#54620; &#50630;&#51020;]</text><g class="message" data-participant-1="ManagerAssignment" data-participant-2="Role"><polygon fill="#181818" points="606.9761,359.4609,616.9761,363.4609,606.9761,367.4609,610.9761,363.4609" style="stroke:#181818;stroke-width:1;"/><line style="stroke:#181818;stroke-width:1;" x1="419.8252" x2="612.9761" y1="363.4609" y2="363.4609"/><text fill="#000000" font-family="sans-serif" font-size="13" lengthAdjust="spacing" textLength="175.1509" x="426.8252" y="358.395">hasPermission(permission)</text></g><g class="message" data-participant-1="Role" data-participant-2="ManagerAssignment"><polygon fill="#181818" points="430.8252,388.5938,420.8252,392.5938,430.8252,396.5938,426.8252,392.5938" style="stroke:#181818;stroke-width:1;"/><line style="stroke:#181818;stroke-width:1;stroke-dasharray:2.0,2.0;" x1="424.8252" x2="617.9761" y1="392.5938" y2="392.5938"/><text fill="#000000" font-family="sans-serif" font-size="13" lengthAdjust="spacing" textLength="30.9258" x="436.8252" y="387.5278">false</text></g><g class="message" data-participant-1="ManagerAssignment" data-participant-2="PermissionPolicy"><polygon fill="#181818" points="231.6743,417.7266,221.6743,421.7266,231.6743,425.7266,227.6743,421.7266" style="stroke:#181818;stroke-width:1;"/><line style="stroke:#181818;stroke-width:1;stroke-dasharray:2.0,2.0;" x1="225.6743" x2="418.8252" y1="421.7266" y2="421.7266"/><text fill="#000000" font-family="sans-serif" font-size="13" lengthAdjust="spacing" textLength="30.9258" x="237.6743" y="416.6606">false</text></g><g class="message" data-participant-1="PermissionPolicy" data-participant-2="Caller"><polygon fill="#181818" points="54.2515,446.8594,44.2515,450.8594,54.2515,454.8594,50.2515,450.8594" style="stroke:#181818;stroke-width:1;"/><line style="stroke:#181818;stroke-width:1;stroke-dasharray:2.0,2.0;" x1="48.2515" x2="219.6743" y1="450.8594" y2="450.8594"/><text fill="#000000" font-family="sans-serif" font-size="13" lengthAdjust="spacing" textLength="30.9258" x="60.2515" y="445.7935">false</text></g><!--SRC=[jP0z2i9044RxFSMK2de12q6iB0Jn1iDcZ0kRJTXT2oyW5Ybi923n05x0Gsbo1pSa_eJ4W8Nrz-RDV6E5bGGS5MF8RQXXYbAIPX5gAxY8K5bOa0w4CI9KYr0Algs5SrJeavwut5S1ALjBbw4anaed3CSD5OoAtRsD8Jtp1X2zuZvZ3TRDDxOvmHhD6-rzAb1Qo9DzThhS3odShd5-J1cqI9ovkBHJ1YKo_7A5rHjgTxVNhlXcIOTN_weWaeQguo5BTjav_bU75RfLlvHu3dItA2bItWC0]--></g></svg>