<svg xmlns="http://www.w3.org/2000/svg" xmlns:xlink="http://www.w3.org/1999/xlink" contentStyleType="text/css" data-diagram-type="SEQUENCE" height="566px" preserveAspectRatio="none" style="width:684px;height:566px;background:#FFFFFF;" version="1.1" viewBox="0 0 684 566" width="684px" zoomAndPan="magnify"><title>delegateRole</title><defs/><g><text fill="#000000" font-family="sans-serif" font-size="14" font-weight="bold" lengthAdjust="spacing" textLength="104.1592" x="291.1755" y="27.9951">delegateRole</text><rect fill="none" height="232.7344" style="stroke:#000000;stroke-width:1.5;" width="667.5103" x="10" y="235.9922"/><g><title>Caller</title><rect fill="#000000" fill-opacity="0.00000" height="367.1328" width="8" x="39.2515" y="118.5938"/><line style="stroke:#181818;stroke-width:0.5;stroke-dasharray:5.0,5.0;" x1="43" x2="43" y1="118.5938" y2="485.7266"/></g><g><title>PermissionPolicy</title><rect fill="#000000" fill-opacity="0.00000" height="367.1328" width="8" x="282.5439" y="118.5938"/><line style="stroke:#181818;stroke-width:0.5;stroke-dasharray:5.0,5.0;" x1="286.0317" x2="286.0317" y1="118.5938" y2="485.7266"/></g><g><title>ManagerAssignment</title><rect fill="#000000" fill-opacity="0.00000" height="367.1328" width="8" x="584.6133" y="118.5938"/><line style="stroke:#181818;stroke-width:0.5;stroke-dasharray:5.0,5.0;" x1="587.7163" x2="587.7163" y1="118.5938" y2="485.7266"/></g><g class="participant participant-head" data-participant="Caller"><text fill="#000000" font-family="sans-serif" font-size="14" lengthAdjust="spacing" textLength="40.5029" x="20" y="115.292">Caller</text><ellipse cx="43.2515" cy="50.7969" fill="#E2E2F0" rx="8" ry="8" style="stroke:#181818;stroke-width:0.5;"/><path d="M43.2515,58.7969 L43.2515,85.7969 M30.2515,66.7969 L56.2515,66.7969 M43.2515,85.7969 L30.2515,100.7969 M43.2515,85.7969 L56.2515,100.7969" fill="none" style="stroke:#181818;stroke-width:0.5;"/></g><g class="participant participant-tail" data-participant="Caller"><text fill="#000000" font-family="sans-serif" font-size="14" lengthAdjust="spacing" textLength="40.5029" x="20" y="497.7217">Caller</text><ellipse cx="43.2515" cy="509.5234" fill="#E2E2F0" rx="8" ry="8" style="stroke:#181818;stroke-width:0.5;"/><path d="M43.2515,517.5234 L43.2515,544.5234 M30.2515,525.5234 L56.2515,525.5234 M43.2515,544.5234 L30.2515,559.5234 M43.2515,544.5234 L56.2515,559.5234" fill="none" style="stroke:#181818;stroke-width:0.5;"/></g><g class="participant participant-head" data-participant="PermissionPolicy"><rect fill="#E2E2F0" height="30.2969" rx="2.5" ry="2.5" style="stroke:#181818;stroke-width:0.5;" width="131.0244" x="221.0317" y="87.2969"/><text fill="#000000" font-family="sans-serif" font-size="14" lengthAdjust="spacing" textLength="117.0244" x="228.0317" y="107.292">PermissionPolicy</text></g><g class="participant participant-tail" data-participant="PermissionPolicy"><rect fill="#E2E2F0" height="30.2969" rx="2.5" ry="2.5" style="stroke:#181818;stroke-width:0.5;" width="131.0244" x="221.0317" y="484.7266"/><text fill="#000000" font-family="sans-serif" font-size="14" lengthAdjust="spacing" textLength="117.0244" x="228.0317" y="504.7217">PermissionPolicy</text></g><g class="participant participant-head" data-participant="ManagerAssignment"><rect fill="#E2E2F0" height="30.2969" rx="2.5" ry="2.5" style="stroke:#181818;stroke-width:0.5;" width="157.7939" x="509.7163" y="87.2969"/><text fill="#000000" font-family="sans-serif" font-size="14" lengthAdjust="spacing" textLength="143.7939" x="516.7163" y="107.292">ManagerAssignment</text></g><g class="participant participant-tail" data-participant="ManagerAssignment"><rect fill="#E2E2F0" height="30.2969" rx="2.5" ry="2.5" style="stroke:#181818;stroke-width:0.5;" width="157.7939" x="509.7163" y="484.7266"/><text fill="#000000" font-family="sans-serif" font-size="14" lengthAdjust="spacing" textLength="143.7939" x="516.7163" y="504.7217">ManagerAssignment</text></g><g class="message" data-participant-1="Caller" data-participant-2="PermissionPolicy"><polygon fill="#181818" points="274.5439,145.7266,284.5439,149.7266,274.5439,153.7266,278.5439,149.7266" style="stroke:#181818;stroke-width:1;"/><line style="stroke:#181818;stroke-width:1;" x1="43.2515" x2="280.5439" y1="149.7266" y2="149.7266"/><text fill="#000000" font-family="sans-serif" font-size="13" lengthAdjust="spacing" textLength="219.2925" x="50.2515" y="144.6606">delegateRole(from, to, roleName)</text></g><g class="message" data-participant-1="PermissionPolicy" data-participant-2="PermissionPolicy"><line style="stroke:#181818;stroke-width:1;" x1="286.5439" x2="328.5439" y1="178.8594" y2="178.8594"/><line style="stroke:#181818;stroke-width:1;" x1="328.5439" x2="328.5439" y1="178.8594" y2="191.8594"/><line style="stroke:#181818;stroke-width:1;" x1="287.5439" x2="328.5439" y1="191.8594" y2="191.8594"/><polygon fill="#181818" points="297.5439,187.8594,287.5439,191.8594,297.5439,195.8594,293.5439,191.8594" style="stroke:#181818;stroke-width:1;"/><text fill="#000000" font-family="sans-serif" font-size="13" lengthAdjust="spacing" textLength="288.0693" x="293.5439" y="173.7935">findAssignment(from) : ManagerAssignment</text></g><g class="message" data-participant-1="PermissionPolicy" data-participant-2="ManagerAssignment"><polygon fill="#181818" points="576.6133,216.9922,586.6133,220.9922,576.6133,224.9922,580.6133,220.9922" style="stroke:#181818;stroke-width:1;"/><line style="stroke:#181818;stroke-width:1;" x1="286.5439" x2="582.6133" y1="220.9922" y2="220.9922"/><text fill="#000000" font-family="sans-serif" font-size="13" lengthAdjust="spacing" textLength="124.979" x="293.5439" y="215.9263">hasRole(roleName)</text></g><path d="M10,235.9922 L74.4429,235.9922 L74.4429,243.125 L64.4429,253.125 L10,253.125 L10,235.9922" fill="#EEEEEE" style="stroke:#000000;stroke-width:1.5;"/><rect fill="none" height="232.7344" style="stroke:#000000;stroke-width:1.5;" width="667.5103" x="10" y="235.9922"/><text fill="#000000" font-family="sans-serif" font-size="13" font-weight="bold" lengthAdjust="spacing" textLength="19.4429" x="25" y="249.0591">alt</text><text fill="#000000" font-family="sans-serif" font-size="11" font-weight="bold" lengthAdjust="spacing" textLength="40.2886" x="89.4429" y="248.2026">[&#50948;&#51076; &#44032;&#45733;]</text><g class="message" data-participant-1="ManagerAssignment" data-participant-2="PermissionPolicy"><polygon fill="#181818" points="297.5439,270.2578,287.5439,274.2578,297.5439,278.2578,293.5439,274.2578" style="stroke:#181818;stroke-width:1;"/><line style="stroke:#181818;stroke-width:1;stroke-dasharray:2.0,2.0;" x1="291.5439" x2="587.6133" y1="274.2578" y2="274.2578"/><text fill="#000000" font-family="sans-serif" font-size="13" lengthAdjust="spacing" textLength="26.6792" x="303.5439" y="269.1919">true</text></g><g class="message" data-participant-1="PermissionPolicy" data-participant-2="PermissionPolicy"><line style="stroke:#181818;stroke-width:1;stroke-dasharray:2.0,2.0;" x1="286.5439" x2="328.5439" y1="303.3906" y2="303.3906"/><line style="stroke:#181818;stroke-width:1;stroke-dasharray:2.0,2.0;" x1="328.5439" x2="328.5439" y1="303.3906" y2="316.3906"/><line style="stroke:#181818;stroke-width:1;stroke-dasharray:2.0,2.0;" x1="287.5439" x2="328.5439" y1="316.3906" y2="316.3906"/><polygon fill="#181818" points="297.5439,312.3906,287.5439,316.3906,297.5439,320.3906,293.5439,316.3906" style="stroke:#181818;stroke-width:1;"/><text fill="#000000" font-family="sans-serif" font-size="13" lengthAdjust="spacing" textLength="164.9312" x="293.5439" y="298.3247">assignRole(to, roleName)</text></g><g class="message" data-participant-1="PermissionPolicy" data-participant-2="PermissionPolicy"><line style="stroke:#181818;stroke-width:1;" x1="286.5439" x2="328.5439" y1="345.5234" y2="345.5234"/><line style="stroke:#181818;stroke-width:1;" x1="328.5439" x2="328.5439" y1="345.5234" y2="358.5234"/><line style="stroke:#181818;stroke-width:1;" x1="287.5439" x2="328.5439" y1="358.5234" y2="358.5234"/><polygon fill="#181818" points="297.5439,354.5234,287.5439,358.5234,297.5439,362.5234,293.5439,358.5234" style="stroke:#181818;stroke-width:1;"/><text fill="#000000" font-family="sans-serif" font-size="13" lengthAdjust="spacing" textLength="158.1772" x="293.5439" y="340.4575">deleteAssignment(from)</text></g><g class="message" data-participant-1="PermissionPolicy" data-participant-2="Caller"><polygon fill="#181818" points="54.2515,383.6563,44.2515,387.6563,54.2515,391.6563,50.2515,387.6563" style="stroke:#181818;stroke-width:1;"/><line style="stroke:#181818;stroke-width:1;stroke-dasharray:2.0,2.0;" x1="48.2515" x2="285.5439" y1="387.6563" y2="387.6563"/><text fill="#000000" font-family="sans-serif" font-size="13" lengthAdjust="spacing" textLength="27.5107" x="60.2515" y="382.5903">void</text></g><line style="stroke:#000000;stroke-width:1;stroke-dasharray:2.0,2.0;" x1="10" x2="677.5103" y1="396.6563" y2="396.6563"/><text fill="#000000" font-family="sans-serif" font-size="11" font-weight="bold" lengthAdjust="spacing" textLength="40.2886" x="15" y="406.8667">[&#50948;&#51076; &#48520;&#44032;]</text><g class="message" data-participant-1="ManagerAssignment" data-participant-2="PermissionPolicy"><polygon fill="#181818" points="297.5439,427.5938,287.5439,431.5938,297.5439,435.5938,293.5439,431.5938" style="stroke:#181818;stroke-width:1;"/><line style="stroke:#181818;stroke-width:1;stroke-dasharray:2.0,2.0;" x1="291.5439" x2="587.6133" y1="431.5938" y2="431.5938"/><text fill="#000000" font-family="sans-serif" font-size="13" lengthAdjust="spacing" textLength="30.9258" x="303.5439" y="426.5278">false</text></g><g class="message" data-participant-1="PermissionPolicy" data-participant-2="Caller"><polygon fill="#181818" points="54.2515,456.7266,44.2515,460.7266,54.2515,464.7266,50.2515,460.7266" style="stroke:#181818;stroke-width:1;"/><line style="stroke:#181818;stroke-width:1;" x1="48.2515" x2="285.5439" y1="460.7266" y2="460.7266"/><text fill="#000000" font-family="sans-serif" font-size="13" lengthAdjust="spacing" textLength="170.9868" x="60.2515" y="455.6606">throw ForbiddenException</text></g><!--SRC=[bP4xJWCn48RxESMKH4eka0898UX04JSOrhERaRpsQdPuTHGf46T0TFHK78ha45ZBSx6tI6dxVtmpDZ7FwDXpGyONqJC0LHOLZybxLkX8JIhfA1YkM5lfUubX5RrKTwF7CmhKi1wbzoQq70pWCm8NXvaJbwFEWrfZEqUBSzHqFAUMPm2PgHnKIt2_hKFKB5tdFAMyJ9MSQ-e7g3yev0rtJvlTymRVN- -tZo-01UkY36XwnKcVrvVbD0GE1EE5b28cLslyVoTJ25-_jCJhA0w0VS_VisxV7jAu-ynQKx9FaFuKsLhZ3Pv6lHJdE9pSLjnPaW87zm40]--></g></svg>