<svg xmlns="http://www.w3.org/2000/svg" xmlns:xlink="http://www.w3.org/1999/xlink" contentStyleType="text/css" data-diagram-type="SEQUENCE" height="482px" preserveAspectRatio="none" style="width:976px;height:482px;background:#FFFFFF;" version="1.1" viewBox="0 0 976 482" width="976px" zoomAndPan="magnify"><title>createBoard</title><defs/><g><text fill="#000000" font-family="sans-serif" font-size="14" font-weight="bold" lengthAdjust="spacing" textLength="96.9951" x="438.636" y="27.9951">createBoard</text><g><title>Board</title><rect fill="#FFFFFF" height="29.1328" style="stroke:#181818;stroke-width:1;" width="10" x="758.6221" y="238.2578"/></g><g><title>Client</title><rect fill="#000000" fill-opacity="0.00000" height="283.3281" width="8" x="24.2651" y="118.5938"/><line style="stroke:#181818;stroke-width:0.5;stroke-dasharray:5.0,5.0;" x1="28" x2="28" y1="118.5938" y2="401.9219"/></g><g><title>BoardController</title><rect fill="#000000" fill-opacity="0.00000" height="283.3281" width="8" x="193.0488" y="118.5938"/><line style="stroke:#181818;stroke-width:0.5;stroke-dasharray:5.0,5.0;" x1="196.7666" x2="196.7666" y1="118.5938" y2="401.9219"/></g><g><title>BoardCommandService</title><rect fill="#000000" fill-opacity="0.00000" height="283.3281" width="8" x="423.9634" y="118.5938"/><line style="stroke:#181818;stroke-width:0.5;stroke-dasharray:5.0,5.0;" x1="427.4194" x2="427.4194" y1="118.5938" y2="401.9219"/></g><g><title>BoardCommandRepository</title><rect fill="#000000" fill-opacity="0.00000" height="283.3281" width="8" x="624.7168" y="118.5938"/><line style="stroke:#181818;stroke-width:0.5;stroke-dasharray:5.0,5.0;" x1="628.5073" x2="628.5073" y1="118.5938" y2="401.9219"/></g><g><title>Board</title><rect fill="#000000" fill-opacity="0.00000" height="283.3281" width="8" x="759.6221" y="118.5938"/><line style="stroke:#181818;stroke-width:0.5;stroke-dasharray:5.0,5.0;" x1="762.9263" x2="762.9263" y1="118.5938" y2="401.9219"/></g><g><title>DomainEventPublisher</title><rect fill="#000000" fill-opacity="0.00000" height="283.3281" width="8" x="879.7925" y="118.5938"/><line style="stroke:#181818;stroke-width:0.5;stroke-dasharray:5.0,5.0;" x1="883.3179" x2="883.3179" y1="118.5938" y2="401.9219"/></g><g class="participant participant-head" data-participant="Client"><text fill="#000000" font-family="sans-serif" font-size="14" lengthAdjust="spacing" textLength="40.5303" x="5" y="115.292">Client</text><ellipse cx="28.2651" cy="50.7969" fill="#E2E2F0" rx="8" ry="8" style="stroke:#181818;stroke-width:0.5;"/><path d="M28.2651,58.7969 L28.2651,85.7969 M15.2651,66.7969 L41.2651,66.7969 M28.2651,85.7969 L15.2651,100.7969 M28.2651,85.7969 L41.2651,100.7969" fill="none" style="stroke:#181818;stroke-width:0.5;"/></g><g class="participant participant-tail" data-participant="Client"><text fill="#000000" font-family="sans-serif" font-size="14" lengthAdjust="spacing" textLength="40.5303" x="5" y="413.917">Client</text><ellipse cx="28.2651" cy="425.7188" fill="#E2E2F0" rx="8" ry="8" style="stroke:#181818;stroke-width:0.5;"/><path d="M28.2651,433.7188 L28.2651,460.7188 M15.2651,441.7188 L41.2651,441.7188 M28.2651,460.7188 L15.2651,475.7188 M28.2651,460.7188 L41.2651,475.7188" fill="none" style="stroke:#181818;stroke-width:0.5;"/></g><g class="participant participant-head" data-participant="BoardController"><rect fill="#E2E2F0" height="30.2969" rx="2.5" ry="2.5" style="stroke:#181818;stroke-width:0.5;" width="124.5645" x="134.7666" y="87.2969"/><text fill="#000000" font-family="sans-serif" font-size="14" lengthAdjust="spacing" textLength="110.5645" x="141.7666" y="107.292">BoardController</text></g><g class="participant participant-tail" data-participant="BoardController"><rect fill="#E2E2F0" height="30.2969" rx="2.5" ry="2.5" style="stroke:#181818;stroke-width:0.5;" width="124.5645" x="134.7666" y="400.9219"/><text fill="#000000" font-family="sans-serif" font-size="14" lengthAdjust="spacing" textLength="110.5645" x="141.7666" y="420.917">BoardController</text></g><g class="participant participant-head" data-participant="BoardCommandService"><rect fill="#E2E2F0" height="30.2969" rx="2.5" ry="2.5" style="stroke:#181818;stroke-width:0.5;" width="179.0879" x="338.4194" y="87.2969"/><text fill="#000000" font-family="sans-serif" font-size="14" lengthAdjust="spacing" textLength="165.0879" x="345.4194" y="107.292">BoardCommandService</text></g><g class="participant participant-tail" data-participant="BoardCommandService"><rect fill="#E2E2F0" height="30.2969" rx="2.5" ry="2.5" style="stroke:#181818;stroke-width:0.5;" width="179.0879" x="338.4194" y="400.9219"/><text fill="#000000" font-family="sans-serif" font-size="14" lengthAdjust="spacing" textLength="165.0879" x="345.4194" y="420.917">BoardCommandService</text></g><g class="participant participant-head" data-participant="BoardCommandRepository"><rect fill="#E2E2F0" height="30.2969" rx="2.5" ry="2.5" style="stroke:#181818;stroke-width:0.5;" width="202.4189" x="527.5073" y="87.2969"/><text fill="#000000" font-family="sans-serif" font-size="14" lengthAdjust="spacing" textLength="188.4189" x="534.5073" y="107.292">BoardCommandRepository</text></g><g class="participant participant-tail" data-participant="BoardCommandRepository"><rect fill="#E2E2F0" height="30.2969" rx="2.5" ry="2.5" style="stroke:#181818;stroke-width:0.5;" width="202.4189" x="527.5073" y="400.9219"/><text fill="#000000" font-family="sans-serif" font-size="14" lengthAdjust="spacing" textLength="188.4189" x="534.5073" y="420.917">BoardCommandRepository</text></g><g class="participant participant-head" data-participant="Board"><text fill="#000000" font-family="sans-serif" font-size="14" lengthAdjust="spacing" textLength="41.3916" x="739.9263" y="115.292">Board</text><ellipse cx="763.6221" cy="86.2969" fill="#E2E2F0" rx="12" ry="12" style="stroke:#181818;stroke-width:0.5;"/><line style="stroke:#181818;stroke-width:0.5;" x1="751.6221" x2="775.6221" y1="100.2969" y2="100.2969"/></g><g class="participant participant-tail" data-participant="Board"><text fill="#000000" font-family="sans-serif" font-size="14" lengthAdjust="spacing" textLength="41.3916" x="739.9263" y="413.917">Board</text><ellipse cx="763.6221" cy="433.2188" fill="#E2E2F0" rx="12" ry="12" style="stroke:#181818;stroke-width:0.5;"/><line style="stroke:#181818;stroke-width:0.5;" x1="751.6221" x2="775.6221" y1="447.2188" y2="447.2188"/></g><g class="participant participant-head" data-participant="DomainEventPublisher"><rect fill="#E2E2F0" height="30.2969" rx="2.5" ry="2.5" style="stroke:#181818;stroke-width:0.5;" width="172.9492" x="797.3179" y="87.2969"/><text fill="#000000" font-family="sans-serif" font-size="14" lengthAdjust="spacing" textLength="158.9492" x="804.3179" y="107.292">DomainEventPublisher</text></g><g class="participant participant-tail" data-participant="DomainEventPublisher"><rect fill="#E2E2F0" height="30.2969" rx="2.5" ry="2.5" style="stroke:#181818;stroke-width:0.5;" width="172.9492" x="797.3179" y="400.9219"/><text fill="#000000" font-family="sans-serif" font-size="14" lengthAdjust="spacing" textLength="158.9492" x="804.3179" y="420.917">DomainEventPublisher</text></g><g><title>Board</title><rect fill="#FFFFFF" height="29.1328" style="stroke:#181818;stroke-width:1;" width="10" x="758.6221" y="238.2578"/></g><g class="message" data-participant-1="Client" data-participant-2="BoardController"><polygon fill="#181818" points="185.0488,160.8594,195.0488,164.8594,185.0488,168.8594,189.0488,164.8594" style="stroke:#181818;stroke-width:1;"/><line style="stroke:#181818;stroke-width:1;" x1="28.2651" x2="191.0488" y1="164.8594" y2="164.8594"/><text fill="#000000" font-family="sans-serif" font-size="13" lengthAdjust="spacing" textLength="80.5454" x="35.2651" y="144.6606">POST /board</text><text fill="#000000" font-family="sans-serif" font-size="13" lengthAdjust="spacing" textLength="144.7837" x="35.2651" y="159.7935">(boardCreateRequest)</text></g><g class="message" data-participant-1="BoardController" data-participant-2="BoardCommandService"><polygon fill="#181818" points="415.9634,205.125,425.9634,209.125,415.9634,213.125,419.9634,209.125" style="stroke:#181818;stroke-width:1;"/><line style="stroke:#181818;stroke-width:1;" x1="197.0488" x2="421.9634" y1="209.125" y2="209.125"/><text fill="#000000" font-family="sans-serif" font-size="13" lengthAdjust="spacing" textLength="79.9868" x="204.0488" y="188.9263">createBoard</text><text fill="#000000" font-family="sans-serif" font-size="13" lengthAdjust="spacing" textLength="206.9146" x="204.0488" y="204.0591">(boardCreateCommand, userId)</text></g><g class="message" data-participant-1="BoardCommandService" data-participant-2="Board"><polygon fill="#181818" points="746.6221,234.2578,756.6221,238.2578,746.6221,242.2578,750.6221,238.2578" style="stroke:#181818;stroke-width:1;"/><line style="stroke:#181818;stroke-width:1;" x1="427.9634" x2="752.6221" y1="238.2578" y2="238.2578"/><text fill="#000000" font-family="sans-serif" font-size="13" lengthAdjust="spacing" textLength="242.3281" x="434.9634" y="233.1919">Board.create(boardCreateCommand)</text></g><g class="message" data-participant-1="Board" data-participant-2="BoardCommandService"><polygon fill="#181818" points="438.9634,263.3906,428.9634,267.3906,438.9634,271.3906,434.9634,267.3906" style="stroke:#181818;stroke-width:1;"/><line style="stroke:#181818;stroke-width:1;stroke-dasharray:2.0,2.0;" x1="432.9634" x2="762.6221" y1="267.3906" y2="267.3906"/><text fill="#000000" font-family="sans-serif" font-size="13" lengthAdjust="spacing" textLength="38.4351" x="444.9634" y="262.3247">Board</text></g><g class="message" data-participant-1="BoardCommandService" data-participant-2="BoardCommandRepository"><polygon fill="#181818" points="616.7168,292.5234,626.7168,296.5234,616.7168,300.5234,620.7168,296.5234" style="stroke:#181818;stroke-width:1;"/><line style="stroke:#181818;stroke-width:1;" x1="427.9634" x2="622.7168" y1="296.5234" y2="296.5234"/><text fill="#000000" font-family="sans-serif" font-size="13" lengthAdjust="spacing" textLength="78.3428" x="434.9634" y="291.4575">save(board)</text></g><g class="message" data-participant-1="BoardCommandService" data-participant-2="DomainEventPublisher"><polygon fill="#181818" points="871.7925,321.6563,881.7925,325.6563,871.7925,329.6563,875.7925,325.6563" style="stroke:#181818;stroke-width:1;"/><line style="stroke:#181818;stroke-width:1;" x1="427.9634" x2="877.7925" y1="325.6563" y2="325.6563"/><text fill="#000000" font-family="sans-serif" font-size="13" lengthAdjust="spacing" textLength="184.5327" x="434.9634" y="320.5903">publish(BoardCreatedEvent)</text></g><g class="message" data-participant-1="BoardCommandService" data-participant-2="BoardController"><polygon fill="#181818" points="208.0488,350.7891,198.0488,354.7891,208.0488,358.7891,204.0488,354.7891" style="stroke:#181818;stroke-width:1;"/><line style="stroke:#181818;stroke-width:1;stroke-dasharray:2.0,2.0;" x1="202.0488" x2="426.9634" y1="354.7891" y2="354.7891"/><text fill="#000000" font-family="sans-serif" font-size="13" lengthAdjust="spacing" textLength="50.521" x="214.0488" y="349.7231">BoardId</text></g><g class="message" data-participant-1="BoardController" data-participant-2="Client"><polygon fill="#181818" points="39.2651,379.9219,29.2651,383.9219,39.2651,387.9219,35.2651,383.9219" style="stroke:#181818;stroke-width:1;"/><line style="stroke:#181818;stroke-width:1;stroke-dasharray:2.0,2.0;" x1="33.2651" x2="196.0488" y1="383.9219" y2="383.9219"/><text fill="#000000" font-family="sans-serif" font-size="13" lengthAdjust="spacing" textLength="132.1201" x="45.2651" y="378.856">HTTP 201 + BoardId</text></g><!--SRC=[VP71Ri8m38RlUGeVGHjiuyXX1mhIEAs27dS9ZIKifKcNk9Lu-uMag53QdHBPlp__jfbO8vGE9UF6IgU4a2LR1vacD2ngwPXAggLXYFdC6dPMQtHZkQgIHXtHjLJYPFw0jVKKcbp4pZ3n9MKVz5jRIJAxDdZ8cvCcVmuDXKYkOF4vD0DhoB-F1RoThd7uCRFuoU9W1_njqFDSY65L3xft7c1t6nd0EkahD1xTNlNG1y8D753nNIRW26WUDqvjY7HxI8MBIMz9fN1Gzg-FfzK7ZfTjPsXwYB4xXD8w_MURVXmLHLEaqOl5o5uzNoMekqkluQieSbYzVy3BJVy7]--></g></svg>