<svg xmlns="http://www.w3.org/2000/svg" xmlns:xlink="http://www.w3.org/1999/xlink" contentStyleType="text/css" data-diagram-type="SEQUENCE" height="518px" preserveAspectRatio="none" style="width:1096px;height:518px;background:#FFFFFF;" version="1.1" viewBox="0 0 1096 518" width="1096px" zoomAndPan="magnify"><title>createBoard</title><defs/><g><text fill="#000000" font-family="sans-serif" font-size="14" font-weight="bold" lengthAdjust="spacing" textLength="96.9951" x="501.3713" y="27.9951">createBoard</text><g><title>Board</title><rect fill="#FFFFFF" height="29.1328" style="stroke:#181818;stroke-width:1;" width="10" x="584.3008" y="238.2578"/></g><g><title>Client</title><rect fill="#000000" fill-opacity="0.00000" height="319.5938" width="8" x="24.2651" y="118.5938"/><line style="stroke:#181818;stroke-width:0.5;stroke-dasharray:5.0,5.0;" x1="28" x2="28" y1="118.5938" y2="438.1875"/></g><g><title>BoardController</title><rect fill="#000000" fill-opacity="0.00000" height="319.5938" width="8" x="180.3853" y="118.5938"/><line style="stroke:#181818;stroke-width:0.5;stroke-dasharray:5.0,5.0;" x1="184.103" x2="184.103" y1="118.5938" y2="438.1875"/></g><g><title>BoardCommandService</title><rect fill="#000000" fill-opacity="0.00000" height="319.5938" width="8" x="342.2114" y="118.5938"/><line style="stroke:#181818;stroke-width:0.5;stroke-dasharray:5.0,5.0;" x1="345.6675" x2="345.6675" y1="118.5938" y2="438.1875"/></g><g><title>Board</title><rect fill="#000000" fill-opacity="0.00000" height="319.5938" width="8" x="585.3008" y="118.5938"/><line style="stroke:#181818;stroke-width:0.5;stroke-dasharray:5.0,5.0;" x1="588.605" x2="588.605" y1="118.5938" y2="438.1875"/></g><g><title>BoardCommandRepository</title><rect fill="#000000" fill-opacity="0.00000" height="319.5938" width="8" x="720.2061" y="118.5938"/><line style="stroke:#181818;stroke-width:0.5;stroke-dasharray:5.0,5.0;" x1="723.9966" x2="723.9966" y1="118.5938" y2="438.1875"/></g><g><title>DomainEventPublisher</title><rect fill="#000000" fill-opacity="0.00000" height="319.5938" width="8" x="917.8901" y="118.5938"/><line style="stroke:#181818;stroke-width:0.5;stroke-dasharray:5.0,5.0;" x1="921.4155" x2="921.4155" y1="118.5938" y2="438.1875"/></g><g class="participant participant-head" data-participant="Client"><text fill="#000000" font-family="sans-serif" font-size="14" lengthAdjust="spacing" textLength="40.5303" x="5" y="115.292">Client</text><ellipse cx="28.2651" cy="50.7969" fill="#E2E2F0" rx="8" ry="8" style="stroke:#181818;stroke-width:0.5;"/><path d="M28.2651,58.7969 L28.2651,85.7969 M15.2651,66.7969 L41.2651,66.7969 M28.2651,85.7969 L15.2651,100.7969 M28.2651,85.7969 L41.2651,100.7969" fill="none" style="stroke:#181818;stroke-width:0.5;"/></g><g class="participant participant-tail" data-participant="Client"><text fill="#000000" font-family="sans-serif" font-size="14" lengthAdjust="spacing" textLength="40.5303" x="5" y="450.1826">Client</text><ellipse cx="28.2651" cy="461.9844" fill="#E2E2F0" rx="8" ry="8" style="stroke:#181818;stroke-width:0.5;"/><path d="M28.2651,469.9844 L28.2651,496.9844 M15.2651,477.9844 L41.2651,477.9844 M28.2651,496.9844 L15.2651,511.9844 M28.2651,496.9844 L41.2651,511.9844" fill="none" style="stroke:#181818;stroke-width:0.5;"/></g><g class="participant participant-head" data-participant="BoardController"><rect fill="#E2E2F0" height="30.2969" rx="2.5" ry="2.5" style="stroke:#181818;stroke-width:0.5;" width="124.5645" x="122.103" y="87.2969"/><text fill="#000000" font-family="sans-serif" font-size="14" lengthAdjust="spacing" textLength="110.5645" x="129.103" y="107.292">BoardController</text></g><g class="participant participant-tail" data-participant="BoardController"><rect fill="#E2E2F0" height="30.2969" rx="2.5" ry="2.5" style="stroke:#181818;stroke-width:0.5;" width="124.5645" x="122.103" y="437.1875"/><text fill="#000000" font-family="sans-serif" font-size="14" lengthAdjust="spacing" textLength="110.5645" x="129.103" y="457.1826">BoardController</text></g><g class="participant participant-head" data-participant="BoardCommandService"><rect fill="#E2E2F0" height="30.2969" rx="2.5" ry="2.5" style="stroke:#181818;stroke-width:0.5;" width="179.0879" x="256.6675" y="87.2969"/><text fill="#000000" font-family="sans-serif" font-size="14" lengthAdjust="spacing" textLength="165.0879" x="263.6675" y="107.292">BoardCommandService</text></g><g class="participant participant-tail" data-participant="BoardCommandService"><rect fill="#E2E2F0" height="30.2969" rx="2.5" ry="2.5" style="stroke:#181818;stroke-width:0.5;" width="179.0879" x="256.6675" y="437.1875"/><text fill="#000000" font-family="sans-serif" font-size="14" lengthAdjust="spacing" textLength="165.0879" x="263.6675" y="457.1826">BoardCommandService</text></g><g class="participant participant-head" data-participant="Board"><text fill="#000000" font-family="sans-serif" font-size="14" lengthAdjust="spacing" textLength="41.3916" x="565.605" y="115.292">Board</text><ellipse cx="589.3008" cy="86.2969" fill="#E2E2F0" rx="12" ry="12" style="stroke:#181818;stroke-width:0.5;"/><line style="stroke:#181818;stroke-width:0.5;" x1="577.3008" x2="601.3008" y1="100.2969" y2="100.2969"/></g><g class="participant participant-tail" data-participant="Board"><text fill="#000000" font-family="sans-serif" font-size="14" lengthAdjust="spacing" textLength="41.3916" x="565.605" y="450.1826">Board</text><ellipse cx="589.3008" cy="469.4844" fill="#E2E2F0" rx="12" ry="12" style="stroke:#181818;stroke-width:0.5;"/><line style="stroke:#181818;stroke-width:0.5;" x1="577.3008" x2="601.3008" y1="483.4844" y2="483.4844"/></g><g class="participant participant-head" data-participant="BoardCommandRepository"><rect fill="#E2E2F0" height="30.2969" rx="2.5" ry="2.5" style="stroke:#181818;stroke-width:0.5;" width="202.4189" x="622.9966" y="87.2969"/><text fill="#000000" font-family="sans-serif" font-size="14" lengthAdjust="spacing" textLength="188.4189" x="629.9966" y="107.292">BoardCommandRepository</text></g><g class="participant participant-tail" data-participant="BoardCommandRepository"><rect fill="#E2E2F0" height="30.2969" rx="2.5" ry="2.5" style="stroke:#181818;stroke-width:0.5;" width="202.4189" x="622.9966" y="437.1875"/><text fill="#000000" font-family="sans-serif" font-size="14" lengthAdjust="spacing" textLength="188.4189" x="629.9966" y="457.1826">BoardCommandRepository</text></g><g class="participant participant-head" data-participant="DomainEventPublisher"><rect fill="#FFC0CB" height="30.2969" rx="2.5" ry="2.5" style="stroke:#181818;stroke-width:0.5;" width="172.9492" x="835.4155" y="87.2969"/><text fill="#000000" font-family="sans-serif" font-size="14" lengthAdjust="spacing" textLength="158.9492" x="842.4155" y="107.292">DomainEventPublisher</text></g><g class="participant participant-tail" data-participant="DomainEventPublisher"><rect fill="#FFC0CB" height="30.2969" rx="2.5" ry="2.5" style="stroke:#181818;stroke-width:0.5;" width="172.9492" x="835.4155" y="437.1875"/><text fill="#000000" font-family="sans-serif" font-size="14" lengthAdjust="spacing" textLength="158.9492" x="842.4155" y="457.1826">DomainEventPublisher</text></g><g><title>Board</title><rect fill="#FFFFFF" height="29.1328" style="stroke:#181818;stroke-width:1;" width="10" x="584.3008" y="238.2578"/></g><g class="message" data-participant-1="Client" data-participant-2="BoardController"><polygon fill="#181818" points="172.3853,160.8594,182.3853,164.8594,172.3853,168.8594,176.3853,164.8594" style="stroke:#181818;stroke-width:1;"/><line style="stroke:#181818;stroke-width:1;" x1="28.2651" x2="178.3853" y1="164.8594" y2="164.8594"/><text fill="#000000" font-family="sans-serif" font-size="13" lengthAdjust="spacing" textLength="80.5454" x="35.2651" y="144.6606">POST /board</text><text fill="#000000" font-family="sans-serif" font-size="13" lengthAdjust="spacing" textLength="86.2646" x="35.2651" y="159.7935">(boardName)</text></g><g class="message" data-participant-1="BoardController" data-participant-2="BoardCommandService"><polygon fill="#181818" points="334.2114,205.125,344.2114,209.125,334.2114,213.125,338.2114,209.125" style="stroke:#181818;stroke-width:1;"/><line style="stroke:#181818;stroke-width:1;" x1="184.3853" x2="340.2114" y1="209.125" y2="209.125"/><text fill="#000000" font-family="sans-serif" font-size="13" lengthAdjust="spacing" textLength="79.9868" x="191.3853" y="188.9263">createBoard</text><text fill="#000000" font-family="sans-serif" font-size="13" lengthAdjust="spacing" textLength="134.9702" x="191.3853" y="204.0591">(userId, boardName)</text></g><g class="message" data-participant-1="BoardCommandService" data-participant-2="Board"><polygon fill="#181818" points="572.3008,234.2578,582.3008,238.2578,572.3008,242.2578,576.3008,238.2578" style="stroke:#181818;stroke-width:1;"/><line style="stroke:#181818;stroke-width:1;" x1="346.2114" x2="578.3008" y1="238.2578" y2="238.2578"/><text fill="#000000" font-family="sans-serif" font-size="13" lengthAdjust="spacing" textLength="219.0894" x="353.2114" y="233.1919">Board.create(userId, boardName)</text></g><g class="message" data-participant-1="Board" data-participant-2="BoardCommandService"><polygon fill="#181818" points="357.2114,263.3906,347.2114,267.3906,357.2114,271.3906,353.2114,267.3906" style="stroke:#181818;stroke-width:1;"/><line style="stroke:#181818;stroke-width:1;stroke-dasharray:2.0,2.0;" x1="351.2114" x2="588.3008" y1="267.3906" y2="267.3906"/><text fill="#000000" font-family="sans-serif" font-size="13" lengthAdjust="spacing" textLength="38.4351" x="363.2114" y="262.3247">Board</text></g><g class="message" data-participant-1="BoardCommandService" data-participant-2="BoardCommandRepository"><polygon fill="#181818" points="712.2061,292.5234,722.2061,296.5234,712.2061,300.5234,716.2061,296.5234" style="stroke:#181818;stroke-width:1;"/><line style="stroke:#181818;stroke-width:1;" x1="346.2114" x2="718.2061" y1="296.5234" y2="296.5234"/><text fill="#000000" font-family="sans-serif" font-size="13" lengthAdjust="spacing" textLength="78.3428" x="353.2114" y="291.4575">save(board)</text></g><g class="message" data-participant-1="BoardCommandService" data-participant-2="DomainEventPublisher"><polygon fill="#181818" points="909.8901,339.7891,919.8901,343.7891,909.8901,347.7891,913.8901,343.7891" style="stroke:#181818;stroke-width:1;"/><line style="stroke:#181818;stroke-width:1;" x1="346.2114" x2="915.8901" y1="343.7891" y2="343.7891"/><text fill="#000000" font-family="sans-serif" font-size="13" lengthAdjust="spacing" textLength="184.5327" x="353.2114" y="338.7231">publish(BoardCreatedEvent)</text></g><path d="M926,309.5234 L926,364.5234 L1089,364.5234 L1089,319.5234 L1079,309.5234 L926,309.5234" fill="#FEFFDD" style="stroke:#181818;stroke-width:0.5;"/><path d="M1079,309.5234 L1079,319.5234 L1089,319.5234 L1079,309.5234" fill="#FEFFDD" style="stroke:#181818;stroke-width:0.5;"/><text fill="#000000" font-family="sans-serif" font-size="13" font-weight="bold" lengthAdjust="spacing" textLength="142.8477" x="932" y="326.5903">BoardCreatedEvent</text><ellipse cx="937.5" cy="337.2891" fill="#000000" rx="2.5" ry="2.5"/><text fill="#000000" font-family="sans-serif" font-size="13" lengthAdjust="spacing" textLength="85.6743" x="944" y="341.7231">Long boardId</text><ellipse cx="937.5" cy="352.4219" fill="#000000" rx="2.5" ry="2.5"/><text fill="#000000" font-family="sans-serif" font-size="13" lengthAdjust="spacing" textLength="94.7578" x="944" y="356.856">Long creatorId</text><g class="message" data-participant-1="BoardCommandService" data-participant-2="BoardController"><polygon fill="#181818" points="195.3853,387.0547,185.3853,391.0547,195.3853,395.0547,191.3853,391.0547" style="stroke:#181818;stroke-width:1;"/><line style="stroke:#181818;stroke-width:1;stroke-dasharray:2.0,2.0;" x1="189.3853" x2="345.2114" y1="391.0547" y2="391.0547"/><text fill="#000000" font-family="sans-serif" font-size="13" lengthAdjust="spacing" textLength="50.521" x="201.3853" y="385.9888">BoardId</text></g><g class="message" data-participant-1="BoardController" data-participant-2="Client"><polygon fill="#181818" points="39.2651,416.1875,29.2651,420.1875,39.2651,424.1875,35.2651,420.1875" style="stroke:#181818;stroke-width:1;"/><line style="stroke:#181818;stroke-width:1;stroke-dasharray:2.0,2.0;" x1="33.2651" x2="183.3853" y1="420.1875" y2="420.1875"/><text fill="#000000" font-family="sans-serif" font-size="13" lengthAdjust="spacing" textLength="132.1201" x="45.2651" y="415.1216">HTTP 201 + BoardId</text></g><!--SRC=[VPBDReCm48Jl-nGhzPAqJTFsY28EIICrKjMYXcCl1g-ILS56na7AszTWK1D-SiAmC-FnPopRZ30r92ojjJ0IGAHM6znaJCf28Opbb0kXB3RpZLRMw2mZCpRBSw7adap5AS5MMRPdFveKVrEXItOxdgyaRpeNhBQLwn2TaepB8ncyArZz0e3lXekmNma3ZBxsCIwJ-Zl-g5cp-1GvpG7wud__PMsNSO6ZpZYLP7Ro4KUohenTdajeday-PzJl87FbXYqTxrjCDl8gIJtRpHe3m2wd51Lv9jDd64KVOE7NC-zgJYORqHoKTeqC7uuMLaau4AoMIGZt-A7LmJFOoUwr8QGT7I0biSwPg3Lwr-isR72nJjt-8m6-nt64hyyl-D3f_m00]--></g></svg>