<svg xmlns="http://www.w3.org/2000/svg" xmlns:xlink="http://www.w3.org/1999/xlink" contentStyleType="text/css" data-diagram-type="SEQUENCE" height="636px" preserveAspectRatio="none" style="width:1110px;height:636px;background:#FFFFFF;" version="1.1" viewBox="0 0 1110 636" width="1110px" zoomAndPan="magnify"><title>deleteBoard</title><defs/><g><text fill="#000000" font-family="sans-serif" font-size="14" font-weight="bold" lengthAdjust="spacing" textLength="96.6602" x="506.1069" y="27.9951">deleteBoard</text><rect fill="none" height="286.1328" style="stroke:#000000;stroke-width:1.5;" width="1014.2266" x="10" y="252.125"/><g><title>User</title><rect fill="#000000" fill-opacity="0.00000" height="436.6641" width="8" x="34.9551" y="118.5938"/><line style="stroke:#181818;stroke-width:0.5;stroke-dasharray:5.0,5.0;" x1="38" x2="38" y1="118.5938" y2="555.2578"/></g><g><title>BoardController</title><rect fill="#000000" fill-opacity="0.00000" height="436.6641" width="8" x="225.8477" y="118.5938"/><line style="stroke:#181818;stroke-width:0.5;stroke-dasharray:5.0,5.0;" x1="229.5654" x2="229.5654" y1="118.5938" y2="555.2578"/></g><g><title>BoardCommandService</title><rect fill="#000000" fill-opacity="0.00000" height="436.6641" width="8" x="437.9414" y="118.5938"/><line style="stroke:#181818;stroke-width:0.5;stroke-dasharray:5.0,5.0;" x1="441.3975" x2="441.3975" y1="118.5938" y2="555.2578"/></g><g><title>BoardCommandRepository</title><rect fill="#000000" fill-opacity="0.00000" height="436.6641" width="8" x="638.6948" y="118.5938"/><line style="stroke:#181818;stroke-width:0.5;stroke-dasharray:5.0,5.0;" x1="642.4854" x2="642.4854" y1="118.5938" y2="555.2578"/></g><g><title>DomainEventPublisher</title><rect fill="#000000" fill-opacity="0.00000" height="436.6641" width="8" x="836.3789" y="118.5938"/><line style="stroke:#181818;stroke-width:0.5;stroke-dasharray:5.0,5.0;" x1="839.9043" x2="839.9043" y1="118.5938" y2="555.2578"/></g><g><title>&#44428;&#54620;&#44160;&#49324; API </title><rect fill="#000000" fill-opacity="0.00000" height="436.6641" width="8" x="1016.8638" y="118.5938"/><line style="stroke:#181818;stroke-width:0.5;stroke-dasharray:5.0,5.0;" x1="1020.8535" x2="1020.8535" y1="118.5938" y2="555.2578"/></g><g class="participant participant-head" data-participant="User"><text fill="#000000" font-family="sans-serif" font-size="14" lengthAdjust="spacing" textLength="31.9102" x="20" y="115.292">User</text><ellipse cx="38.9551" cy="50.7969" fill="#E2E2F0" rx="8" ry="8" style="stroke:#181818;stroke-width:0.5;"/><path d="M38.9551,58.7969 L38.9551,85.7969 M25.9551,66.7969 L51.9551,66.7969 M38.9551,85.7969 L25.9551,100.7969 M38.9551,85.7969 L51.9551,100.7969" fill="none" style="stroke:#181818;stroke-width:0.5;"/></g><g class="participant participant-tail" data-participant="User"><text fill="#000000" font-family="sans-serif" font-size="14" lengthAdjust="spacing" textLength="31.9102" x="20" y="567.2529">User</text><ellipse cx="38.9551" cy="579.0547" fill="#E2E2F0" rx="8" ry="8" style="stroke:#181818;stroke-width:0.5;"/><path d="M38.9551,587.0547 L38.9551,614.0547 M25.9551,595.0547 L51.9551,595.0547 M38.9551,614.0547 L25.9551,629.0547 M38.9551,614.0547 L51.9551,629.0547" fill="none" style="stroke:#181818;stroke-width:0.5;"/></g><g class="participant participant-head" data-participant="BoardController"><rect fill="#E2E2F0" height="30.2969" rx="2.5" ry="2.5" style="stroke:#181818;stroke-width:0.5;" width="124.5645" x="167.5654" y="87.2969"/><text fill="#000000" font-family="sans-serif" font-size="14" lengthAdjust="spacing" textLength="110.5645" x="174.5654" y="107.292">BoardController</text></g><g class="participant participant-tail" data-participant="BoardController"><rect fill="#E2E2F0" height="30.2969" rx="2.5" ry="2.5" style="stroke:#181818;stroke-width:0.5;" width="124.5645" x="167.5654" y="554.2578"/><text fill="#000000" font-family="sans-serif" font-size="14" lengthAdjust="spacing" textLength="110.5645" x="174.5654" y="574.2529">BoardController</text></g><g class="participant participant-head" data-participant="BoardCommandService"><rect fill="#E2E2F0" height="30.2969" rx="2.5" ry="2.5" style="stroke:#181818;stroke-width:0.5;" width="179.0879" x="352.3975" y="87.2969"/><text fill="#000000" font-family="sans-serif" font-size="14" lengthAdjust="spacing" textLength="165.0879" x="359.3975" y="107.292">BoardCommandService</text></g><g class="participant participant-tail" data-participant="BoardCommandService"><rect fill="#E2E2F0" height="30.2969" rx="2.5" ry="2.5" style="stroke:#181818;stroke-width:0.5;" width="179.0879" x="352.3975" y="554.2578"/><text fill="#000000" font-family="sans-serif" font-size="14" lengthAdjust="spacing" textLength="165.0879" x="359.3975" y="574.2529">BoardCommandService</text></g><g class="participant participant-head" data-participant="BoardCommandRepository"><rect fill="#E2E2F0" height="30.2969" rx="2.5" ry="2.5" style="stroke:#181818;stroke-width:0.5;" width="202.4189" x="541.4854" y="87.2969"/><text fill="#000000" font-family="sans-serif" font-size="14" lengthAdjust="spacing" textLength="188.4189" x="548.4854" y="107.292">BoardCommandRepository</text></g><g class="participant participant-tail" data-participant="BoardCommandRepository"><rect fill="#E2E2F0" height="30.2969" rx="2.5" ry="2.5" style="stroke:#181818;stroke-width:0.5;" width="202.4189" x="541.4854" y="554.2578"/><text fill="#000000" font-family="sans-serif" font-size="14" lengthAdjust="spacing" textLength="188.4189" x="548.4854" y="574.2529">BoardCommandRepository</text></g><g class="participant participant-head" data-participant="DomainEventPublisher"><rect fill="#FFC0CB" height="30.2969" rx="2.5" ry="2.5" style="stroke:#181818;stroke-width:0.5;" width="172.9492" x="753.9043" y="87.2969"/><text fill="#000000" font-family="sans-serif" font-size="14" lengthAdjust="spacing" textLength="158.9492" x="760.9043" y="107.292">DomainEventPublisher</text></g><g class="participant participant-tail" data-participant="DomainEventPublisher"><rect fill="#FFC0CB" height="30.2969" rx="2.5" ry="2.5" style="stroke:#181818;stroke-width:0.5;" width="172.9492" x="753.9043" y="554.2578"/><text fill="#000000" font-family="sans-serif" font-size="14" lengthAdjust="spacing" textLength="158.9492" x="760.9043" y="574.2529">DomainEventPublisher</text></g><g class="participant participant-head" data-participant="PermissionContextAPI"><rect fill="#87CEEB" height="46.5938" rx="2.5" ry="2.5" style="stroke:#181818;stroke-width:0.5;" width="168.0205" x="936.8535" y="71"/><text fill="#000000" font-family="sans-serif" font-size="14" lengthAdjust="spacing" textLength="60.2041" x="988.5366" y="90.9951">&#44428;&#54620;&#44160;&#49324; API</text><text fill="#000000" font-family="sans-serif" font-size="14" lengthAdjust="spacing" textLength="154.0205" x="943.8535" y="107.292">(&#50808;&#48512; Bounded Context)</text></g><g class="participant participant-tail" data-participant="PermissionContextAPI"><rect fill="#87CEEB" height="46.5938" rx="2.5" ry="2.5" style="stroke:#181818;stroke-width:0.5;" width="168.0205" x="936.8535" y="554.2578"/><text fill="#000000" font-family="sans-serif" font-size="14" lengthAdjust="spacing" textLength="60.2041" x="988.5366" y="574.2529">&#44428;&#54620;&#44160;&#49324; API</text><text fill="#000000" font-family="sans-serif" font-size="14" lengthAdjust="spacing" textLength="154.0205" x="943.8535" y="590.5498">(&#50808;&#48512; Bounded Context)</text></g><g class="message" data-participant-1="User" data-participant-2="BoardController"><polygon fill="#181818" points="217.8477,145.7266,227.8477,149.7266,217.8477,153.7266,221.8477,149.7266" style="stroke:#181818;stroke-width:1;"/><line style="stroke:#181818;stroke-width:1;" x1="38.9551" x2="223.8477" y1="149.7266" y2="149.7266"/><text fill="#000000" font-family="sans-serif" font-size="13" lengthAdjust="spacing" textLength="166.8926" x="45.9551" y="144.6606">DELETE /board/{boardId}</text></g><g class="message" data-participant-1="BoardController" data-participant-2="BoardCommandService"><polygon fill="#181818" points="429.9414,174.8594,439.9414,178.8594,429.9414,182.8594,433.9414,178.8594" style="stroke:#181818;stroke-width:1;"/><line style="stroke:#181818;stroke-width:1;" x1="229.8477" x2="435.9414" y1="178.8594" y2="178.8594"/><text fill="#000000" font-family="sans-serif" font-size="13" lengthAdjust="spacing" textLength="188.0938" x="236.8477" y="173.7935">deleteBoard(boardId, userId)</text></g><g class="message" data-participant-1="BoardCommandService" data-participant-2="PermissionContextAPI"><polygon fill="#181818" points="1008.8638,203.9922,1018.8638,207.9922,1008.8638,211.9922,1012.8638,207.9922" style="stroke:#181818;stroke-width:1;"/><line style="stroke:#181818;stroke-width:1;" x1="441.9414" x2="1014.8638" y1="207.9922" y2="207.9922"/><text fill="#000000" font-family="sans-serif" font-size="13" lengthAdjust="spacing" textLength="447.4717" x="448.9414" y="202.9263">GET /internal/permissions/boards/{boardId}/delete?userId={userId}</text></g><g class="message" data-participant-1="PermissionContextAPI" data-participant-2="BoardCommandService"><polygon fill="#181818" points="452.9414,233.125,442.9414,237.125,452.9414,241.125,448.9414,237.125" style="stroke:#181818;stroke-width:1;"/><line style="stroke:#181818;stroke-width:1;stroke-dasharray:2.0,2.0;" x1="446.9414" x2="1019.8638" y1="237.125" y2="237.125"/><text fill="#000000" font-family="sans-serif" font-size="13" lengthAdjust="spacing" textLength="157.46" x="458.9414" y="232.0591">HTTP 200 OK(true/false)</text></g><path d="M10,252.125 L74.4429,252.125 L74.4429,259.2578 L64.4429,269.2578 L10,269.2578 L10,252.125" fill="#EEEEEE" style="stroke:#000000;stroke-width:1.5;"/><rect fill="none" height="286.1328" style="stroke:#000000;stroke-width:1.5;" width="1014.2266" x="10" y="252.125"/><text fill="#000000" font-family="sans-serif" font-size="13" font-weight="bold" lengthAdjust="spacing" textLength="19.4429" x="25" y="265.1919">alt</text><text fill="#000000" font-family="sans-serif" font-size="11" font-weight="bold" lengthAdjust="spacing" textLength="143.1396" x="89.4429" y="264.3354">[hasPermission = true]</text><g class="message" data-participant-1="BoardCommandService" data-participant-2="BoardCommandRepository"><polygon fill="#181818" points="630.6948,286.3906,640.6948,290.3906,630.6948,294.3906,634.6948,290.3906" style="stroke:#181818;stroke-width:1;"/><line style="stroke:#181818;stroke-width:1;" x1="441.9414" x2="636.6948" y1="290.3906" y2="290.3906"/><text fill="#000000" font-family="sans-serif" font-size="13" lengthAdjust="spacing" textLength="113.3755" x="448.9414" y="285.3247">findById(boardId)</text></g><g class="message" data-participant-1="BoardCommandRepository" data-participant-2="BoardCommandService"><polygon fill="#181818" points="452.9414,315.5234,442.9414,319.5234,452.9414,323.5234,448.9414,319.5234" style="stroke:#181818;stroke-width:1;"/><line style="stroke:#181818;stroke-width:1;stroke-dasharray:2.0,2.0;" x1="446.9414" x2="641.6948" y1="319.5234" y2="319.5234"/><text fill="#000000" font-family="sans-serif" font-size="13" lengthAdjust="spacing" textLength="38.4351" x="458.9414" y="314.4575">Board</text></g><g class="message" data-participant-1="BoardCommandService" data-participant-2="BoardCommandRepository"><polygon fill="#181818" points="630.6948,344.6563,640.6948,348.6563,630.6948,352.6563,634.6948,348.6563" style="stroke:#181818;stroke-width:1;"/><line style="stroke:#181818;stroke-width:1;" x1="441.9414" x2="636.6948" y1="348.6563" y2="348.6563"/><text fill="#000000" font-family="sans-serif" font-size="13" lengthAdjust="spacing" textLength="89.5337" x="448.9414" y="343.5903">delete(Board)</text></g><g class="message" data-participant-1="BoardCommandService" data-participant-2="DomainEventPublisher"><polygon fill="#181818" points="828.3789,384.3555,838.3789,388.3555,828.3789,392.3555,832.3789,388.3555" style="stroke:#181818;stroke-width:1;"/><line style="stroke:#181818;stroke-width:1;" x1="441.9414" x2="834.3789" y1="388.3555" y2="388.3555"/><text fill="#000000" font-family="sans-serif" font-size="13" lengthAdjust="spacing" textLength="183.7646" x="448.9414" y="383.2896">publish(BoardDeletedEvent)</text></g><path d="M845,361.6563 L845,401.6563 L1008,401.6563 L1008,371.6563 L998,361.6563 L845,361.6563" fill="#FEFFDD" style="stroke:#181818;stroke-width:0.5;"/><path d="M998,361.6563 L998,371.6563 L1008,371.6563 L998,361.6563" fill="#FEFFDD" style="stroke:#181818;stroke-width:0.5;"/><text fill="#000000" font-family="sans-serif" font-size="13" font-weight="bold" lengthAdjust="spacing" textLength="142.8477" x="851" y="378.7231">BoardCreatedEvent</text><ellipse cx="856.5" cy="389.4219" fill="#000000" rx="2.5" ry="2.5"/><text fill="#000000" font-family="sans-serif" font-size="13" lengthAdjust="spacing" textLength="85.6743" x="863" y="393.856">Long boardId</text><g class="message" data-participant-1="BoardCommandService" data-participant-2="BoardController"><polygon fill="#181818" points="240.8477,424.0547,230.8477,428.0547,240.8477,432.0547,236.8477,428.0547" style="stroke:#181818;stroke-width:1;"/><line style="stroke:#181818;stroke-width:1;stroke-dasharray:2.0,2.0;" x1="234.8477" x2="440.9414" y1="428.0547" y2="428.0547"/><text fill="#000000" font-family="sans-serif" font-size="13" lengthAdjust="spacing" textLength="27.5107" x="246.8477" y="422.9888">void</text></g><g class="message" data-participant-1="BoardController" data-participant-2="User"><polygon fill="#181818" points="49.9551,453.1875,39.9551,457.1875,49.9551,461.1875,45.9551,457.1875" style="stroke:#181818;stroke-width:1;"/><line style="stroke:#181818;stroke-width:1;stroke-dasharray:2.0,2.0;" x1="43.9551" x2="228.8477" y1="457.1875" y2="457.1875"/><text fill="#000000" font-family="sans-serif" font-size="13" lengthAdjust="spacing" textLength="140.0864" x="55.9551" y="452.1216">HTTP 204 No Content</text></g><line style="stroke:#000000;stroke-width:1;stroke-dasharray:2.0,2.0;" x1="10" x2="1024.2266" y1="466.1875" y2="466.1875"/><text fill="#000000" font-family="sans-serif" font-size="11" font-weight="bold" lengthAdjust="spacing" textLength="147.1519" x="15" y="476.3979">[hasPermission = false]</text><g class="message" data-participant-1="BoardCommandService" data-participant-2="BoardController"><polygon fill="#181818" points="240.8477,497.125,230.8477,501.125,240.8477,505.125,236.8477,501.125" style="stroke:#181818;stroke-width:1;"/><line style="stroke:#181818;stroke-width:1;stroke-dasharray:2.0,2.0;" x1="234.8477" x2="440.9414" y1="501.125" y2="501.125"/><text fill="#000000" font-family="sans-serif" font-size="13" lengthAdjust="spacing" textLength="170.9868" x="246.8477" y="496.0591">throw ForbiddenException</text></g><g class="message" data-participant-1="BoardController" data-participant-2="User"><polygon fill="#181818" points="49.9551,526.2578,39.9551,530.2578,49.9551,534.2578,45.9551,530.2578" style="stroke:#181818;stroke-width:1;"/><line style="stroke:#181818;stroke-width:1;stroke-dasharray:2.0,2.0;" x1="43.9551" x2="228.8477" y1="530.2578" y2="530.2578"/><text fill="#000000" font-family="sans-serif" font-size="13" lengthAdjust="spacing" textLength="131.9551" x="55.9551" y="525.1919">HTTP 403 Forbidden</text></g><!--SRC=[bLBDJXin4BxFKupWaaL56r5E4QGgP4iZ44HjUkFYZGTYuTWhsnk841BYt6iFbVe8FVM0-amKtg7UTPeDOLSg9rkUxsyyuuIJX9maEThJp700DdBQu1TB1Z9cd1Y9Z2c7PNLVAsUqbFMroOGf_fdCL8oeiVw9Ccs5jvWzW_JqX0cLJ4cvGPvAOSTaS3qJwWAUuGPa9i9QeLMHXQxS-q4VcSMrX_klJzz-FFowVRpxYSNZgMezVl_zv_xMs-UA4ySv8rh3TNinIsLE04MVkDbTRGyxs4kEac62SLfKuklowFCRM4LMvEN-lS3IhxRcx3UOUxy-Zm3gE5wgjhyE7YH3Z8L_C8h9E5k0R8Xdgtnni7qNZ7Qlmta3jSARZU4_3eS3t6gtyUImvKnEyHcJbdnk9XsEcQtaS1SB020sj5G_VUzn9XJVc_KNlnEjQ2o1cuFEj_Rrxk6VMcKzQkRNBcO7it0Fz5ufnKjG14exGYFEnmvsqcwGDSJ-0NRYj0iRUAJLESuR1r8S2rfJZDe5dMh1AqArZnvSRlLYYDjuhCFoAmVan_XYWELmNsNknaPVuWTjKi4vgUHgH9dpOlyHQBlzjY8MhGFy1G00]--></g></svg>