<svg xmlns="http://www.w3.org/2000/svg" xmlns:xlink="http://www.w3.org/1999/xlink" contentStyleType="text/css" data-diagram-type="SEQUENCE" height="482px" preserveAspectRatio="none" style="width:1265px;height:482px;background:#FFFFFF;" version="1.1" viewBox="0 0 1265 482" width="1265px" zoomAndPan="magnify"><defs/><g><g><title>User</title><rect fill="#000000" fill-opacity="0.00000" height="320.7266" width="8" x="19.9551" y="81.2969"/><line style="stroke:#181818;stroke-width:0.5;stroke-dasharray:5.0,5.0;" x1="23" x2="23" y1="81.2969" y2="402.0234"/></g><g><title>BoardController</title><rect fill="#000000" fill-opacity="0.00000" height="320.7266" width="8" x="641.771" y="81.2969"/><line style="stroke:#181818;stroke-width:0.5;stroke-dasharray:5.0,5.0;" x1="645.4888" x2="645.4888" y1="81.2969" y2="402.0234"/></g><g><title>BoardQueryService</title><rect fill="#000000" fill-opacity="0.00000" height="320.7266" width="8" x="959.0898" y="81.2969"/><line style="stroke:#181818;stroke-width:0.5;stroke-dasharray:5.0,5.0;" x1="962.25" x2="962.25" y1="81.2969" y2="402.0234"/></g><g><title>BoardQueryRepository</title><rect fill="#000000" fill-opacity="0.00000" height="320.7266" width="8" x="1168.6255" y="81.2969"/><line style="stroke:#181818;stroke-width:0.5;stroke-dasharray:5.0,5.0;" x1="1172.1201" x2="1172.1201" y1="81.2969" y2="402.0234"/></g><g class="participant participant-head" data-participant="User"><text fill="#000000" font-family="sans-serif" font-size="14" lengthAdjust="spacing" textLength="31.9102" x="5" y="77.9951">User</text><ellipse cx="23.9551" cy="13.5" fill="#E2E2F0" rx="8" ry="8" style="stroke:#181818;stroke-width:0.5;"/><path d="M23.9551,21.5 L23.9551,48.5 M10.9551,29.5 L36.9551,29.5 M23.9551,48.5 L10.9551,63.5 M23.9551,48.5 L36.9551,63.5" fill="none" style="stroke:#181818;stroke-width:0.5;"/></g><g class="participant participant-tail" data-participant="User"><text fill="#000000" font-family="sans-serif" font-size="14" lengthAdjust="spacing" textLength="31.9102" x="5" y="414.0186">User</text><ellipse cx="23.9551" cy="425.8203" fill="#E2E2F0" rx="8" ry="8" style="stroke:#181818;stroke-width:0.5;"/><path d="M23.9551,433.8203 L23.9551,460.8203 M10.9551,441.8203 L36.9551,441.8203 M23.9551,460.8203 L10.9551,475.8203 M23.9551,460.8203 L36.9551,475.8203" fill="none" style="stroke:#181818;stroke-width:0.5;"/></g><g class="participant participant-head" data-participant="BoardController"><rect fill="#E2E2F0" height="30.2969" rx="2.5" ry="2.5" style="stroke:#181818;stroke-width:0.5;" width="124.5645" x="583.4888" y="50"/><text fill="#000000" font-family="sans-serif" font-size="14" lengthAdjust="spacing" textLength="110.5645" x="590.4888" y="69.9951">BoardController</text></g><g class="participant participant-tail" data-participant="BoardController"><rect fill="#E2E2F0" height="30.2969" rx="2.5" ry="2.5" style="stroke:#181818;stroke-width:0.5;" width="124.5645" x="583.4888" y="401.0234"/><text fill="#000000" font-family="sans-serif" font-size="14" lengthAdjust="spacing" textLength="110.5645" x="590.4888" y="421.0186">BoardController</text></g><g class="participant participant-head" data-participant="BoardQueryService"><rect fill="#E2E2F0" height="30.2969" rx="2.5" ry="2.5" style="stroke:#181818;stroke-width:0.5;" width="149.6797" x="888.25" y="50"/><text fill="#000000" font-family="sans-serif" font-size="14" lengthAdjust="spacing" textLength="135.6797" x="895.25" y="69.9951">BoardQueryService</text></g><g class="participant participant-tail" data-participant="BoardQueryService"><rect fill="#E2E2F0" height="30.2969" rx="2.5" ry="2.5" style="stroke:#181818;stroke-width:0.5;" width="149.6797" x="888.25" y="401.0234"/><text fill="#000000" font-family="sans-serif" font-size="14" lengthAdjust="spacing" textLength="135.6797" x="895.25" y="421.0186">BoardQueryService</text></g><g class="participant participant-head" data-participant="BoardQueryRepository"><rect fill="#E2E2F0" height="30.2969" rx="2.5" ry="2.5" style="stroke:#181818;stroke-width:0.5;" width="173.0107" x="1086.1201" y="50"/><text fill="#000000" font-family="sans-serif" font-size="14" lengthAdjust="spacing" textLength="159.0107" x="1093.1201" y="69.9951">BoardQueryRepository</text></g><g class="participant participant-tail" data-participant="BoardQueryRepository"><rect fill="#E2E2F0" height="30.2969" rx="2.5" ry="2.5" style="stroke:#181818;stroke-width:0.5;" width="173.0107" x="1086.1201" y="401.0234"/><text fill="#000000" font-family="sans-serif" font-size="14" lengthAdjust="spacing" textLength="159.0107" x="1093.1201" y="421.0186">BoardQueryRepository</text></g><g class="message" data-participant-1="User" data-participant-2="BoardController"><polygon fill="#181818" points="633.771,123.5625,643.771,127.5625,633.771,131.5625,637.771,127.5625" style="stroke:#181818;stroke-width:1;"/><line style="stroke:#181818;stroke-width:1;" x1="23.9551" x2="639.771" y1="127.5625" y2="127.5625"/><text fill="#000000" font-family="sans-serif" font-size="13" lengthAdjust="spacing" textLength="86.1821" x="30.9551" y="107.3638">GET /boards?</text><text fill="#000000" font-family="sans-serif" font-size="13" lengthAdjust="spacing" textLength="597.8159" x="30.9551" y="122.4966">page={page}&amp;size={size}&amp;searchType={type}&amp;keyword={kw}&amp;nickname={nickname}</text></g><g class="message" data-participant-1="BoardController" data-participant-2="BoardQueryService"><polygon fill="#181818" points="951.0898,152.6953,961.0898,156.6953,951.0898,160.6953,955.0898,156.6953" style="stroke:#181818;stroke-width:1;"/><line style="stroke:#181818;stroke-width:1;" x1="645.771" x2="957.0898" y1="156.6953" y2="156.6953"/><text fill="#000000" font-family="sans-serif" font-size="13" lengthAdjust="spacing" textLength="293.3188" x="652.771" y="151.6294">getBoards(SearchCondition searchCondition)</text></g><g class="message" data-participant-1="BoardQueryService" data-participant-2="BoardQueryRepository"><polygon fill="#181818" points="1160.6255,181.8281,1170.6255,185.8281,1160.6255,189.8281,1164.6255,185.8281" style="stroke:#181818;stroke-width:1;"/><line style="stroke:#181818;stroke-width:1;" x1="963.0898" x2="1166.6255" y1="185.8281" y2="185.8281"/><text fill="#000000" font-family="sans-serif" font-size="13" lengthAdjust="spacing" textLength="185.5356" x="970.0898" y="180.7622">findBoards(searchCondition)</text></g><g class="message" data-participant-1="BoardQueryRepository" data-participant-2="BoardQueryService"><polygon fill="#181818" points="974.0898,210.9609,964.0898,214.9609,974.0898,218.9609,970.0898,214.9609" style="stroke:#181818;stroke-width:1;"/><line style="stroke:#181818;stroke-width:1;stroke-dasharray:2.0,2.0;" x1="968.0898" x2="1171.6255" y1="214.9609" y2="214.9609"/><text fill="#000000" font-family="sans-serif" font-size="13" lengthAdjust="spacing" textLength="111.2427" x="980.0898" y="209.895">BoardPageResult</text></g><g class="message" data-participant-1="BoardQueryService" data-participant-2="BoardController"><polygon fill="#181818" points="656.771,240.0938,646.771,244.0938,656.771,248.0938,652.771,244.0938" style="stroke:#181818;stroke-width:1;"/><line style="stroke:#181818;stroke-width:1;stroke-dasharray:2.0,2.0;" x1="650.771" x2="962.0898" y1="244.0938" y2="244.0938"/><text fill="#000000" font-family="sans-serif" font-size="13" lengthAdjust="spacing" textLength="124.1792" x="662.771" y="239.0278">BoardListResponse</text></g><g class="message" data-participant-1="BoardController" data-participant-2="User"><polygon fill="#181818" points="34.9551,269.2266,24.9551,273.2266,34.9551,277.2266,30.9551,273.2266" style="stroke:#181818;stroke-width:1;"/><line style="stroke:#181818;stroke-width:1;stroke-dasharray:2.0,2.0;" x1="28.9551" x2="644.771" y1="273.2266" y2="273.2266"/><text fill="#000000" font-family="sans-serif" font-size="13" lengthAdjust="spacing" textLength="193.9463" x="40.9551" y="268.1606">HTTP 200 OK + JSON (&#44172;&#49884;&#44544; &#47785;&#47197;)</text></g><path d="M650,286.2266 L650,386.2266 L1114,386.2266 L1114,296.2266 L1104,286.2266 L650,286.2266" fill="#FEFFDD" style="stroke:#181818;stroke-width:0.5;"/><path d="M1104,286.2266 L1104,296.2266 L1114,296.2266 L1104,286.2266" fill="#FEFFDD" style="stroke:#181818;stroke-width:0.5;"/><text fill="#000000" font-family="sans-serif" font-size="13" font-weight="bold" lengthAdjust="spacing" textLength="120.6689" x="656" y="303.2935">SearchCondition</text><ellipse cx="661.5" cy="313.9922" fill="#000000" rx="2.5" ry="2.5"/><text fill="#000000" font-family="sans-serif" font-size="13" lengthAdjust="spacing" textLength="62.061" x="668" y="318.4263">page : int</text><ellipse cx="661.5" cy="329.125" fill="#000000" rx="2.5" ry="2.5"/><text fill="#000000" font-family="sans-serif" font-size="13" lengthAdjust="spacing" textLength="54.7993" x="668" y="333.5591">size : int</text><ellipse cx="661.5" cy="344.2578" fill="#000000" rx="2.5" ry="2.5"/><text fill="#000000" font-family="sans-serif" font-size="13" lengthAdjust="spacing" textLength="76.8574" x="668" y="348.6919">title : String</text><text fill="#000000" font-family="sans-serif" font-size="13" lengthAdjust="spacing" textLength="196.5869" x="656" y="363.8247">1. nickname : String (&#51089;&#49457;&#51088; &#45769;&#45348;&#51076;)</text><text fill="#000000" font-family="sans-serif" font-size="13" lengthAdjust="spacing" textLength="443.1553" x="656" y="378.9575">2. memberId : Long (&#47564;&#50557; &#51060; &#48169;&#49885;&#51060;&#47732; nickname&#51004;&#47196; Member B.C. &#50640;&#49436; &#44032;&#51256;&#50752;&#50556; &#54632;)</text><!--SRC=[TL8xJq8n5DxxAyv4G0Eeen5CCCONFi7DvN9lmGPeRzgYGKF2m69mm84O4o2Ic2XEQXWOz0znwt-mlH5KmENadE_q-ywhbYqPXsE1EN8jBebDN8jAI32BEskCIiuAXLcvmnBcvHJcPyJ6_sIFiCi4qV9bX4m12CSdTM4PDjRJ4CqOMAp22NMj78vT6bi927AXVMErZorkdwRBhaQajfL07fVF6NTYb_dpIe0IEq-jeawEl0gQh3Kg_xjrtK0EInyMmPHVGpCS8WcZ8Fx68OIc-Nz4VoRMkbb2dM_XAQ6PbF0_3VhOWTx84HQbWfpPnSpL-aYI2Ac9BgC2e-cTQA9_csNOJASFO6bX0VPtO1wsK_jx41o-NQjwQpYeWlVSyxhj4A9COk0aTog1PQU-oKecFh74bMWcZkR075JN85Jgm5nq74WY2oPAIKve3Yr6O7J1CGX1rRbHjLVLQO1Nl_9g3wfJ2w6b21HnCOFvbgEV9fbvw3rUg-O7g7OVl9UUghUrv_NwOqtLUlUwBTZrUP28h4L0tJPKhGN3bwgw7wYxgcg-msVpAOGmTS2C-mK0]--></g></svg>