<svg xmlns="http://www.w3.org/2000/svg" xmlns:xlink="http://www.w3.org/1999/xlink" contentStyleType="text/css" data-diagram-type="SEQUENCE" height="537px" preserveAspectRatio="none" style="width:1100px;height:537px;background:#FFFFFF;" version="1.1" viewBox="0 0 1100 537" width="1100px" zoomAndPan="magnify"><defs/><g><g><title>User</title><rect fill="#000000" fill-opacity="0.00000" height="375.8594" width="8" x="19.9551" y="81.2969"/><line style="stroke:#181818;stroke-width:0.5;stroke-dasharray:5.0,5.0;" x1="23" x2="23" y1="81.2969" y2="457.1563"/></g><g><title>BoardController</title><rect fill="#000000" fill-opacity="0.00000" height="375.8594" width="8" x="477.4111" y="81.2969"/><line style="stroke:#181818;stroke-width:0.5;stroke-dasharray:5.0,5.0;" x1="481.1289" x2="481.1289" y1="81.2969" y2="457.1563"/></g><g><title>BoardQueryService</title><rect fill="#000000" fill-opacity="0.00000" height="375.8594" width="8" x="794.73" y="81.2969"/><line style="stroke:#181818;stroke-width:0.5;stroke-dasharray:5.0,5.0;" x1="797.8901" x2="797.8901" y1="81.2969" y2="457.1563"/></g><g><title>BoardQueryRepository</title><rect fill="#000000" fill-opacity="0.00000" height="375.8594" width="8" x="1004.2656" y="81.2969"/><line style="stroke:#181818;stroke-width:0.5;stroke-dasharray:5.0,5.0;" x1="1007.7603" x2="1007.7603" y1="81.2969" y2="457.1563"/></g><g class="participant participant-head" data-participant="User"><text fill="#000000" font-family="sans-serif" font-size="14" lengthAdjust="spacing" textLength="31.9102" x="5" y="77.9951">User</text><ellipse cx="23.9551" cy="13.5" fill="#E2E2F0" rx="8" ry="8" style="stroke:#181818;stroke-width:0.5;"/><path d="M23.9551,21.5 L23.9551,48.5 M10.9551,29.5 L36.9551,29.5 M23.9551,48.5 L10.9551,63.5 M23.9551,48.5 L36.9551,63.5" fill="none" style="stroke:#181818;stroke-width:0.5;"/></g><g class="participant participant-tail" data-participant="User"><text fill="#000000" font-family="sans-serif" font-size="14" lengthAdjust="spacing" textLength="31.9102" x="5" y="469.1514">User</text><ellipse cx="23.9551" cy="480.9531" fill="#E2E2F0" rx="8" ry="8" style="stroke:#181818;stroke-width:0.5;"/><path d="M23.9551,488.9531 L23.9551,515.9531 M10.9551,496.9531 L36.9551,496.9531 M23.9551,515.9531 L10.9551,530.9531 M23.9551,515.9531 L36.9551,530.9531" fill="none" style="stroke:#181818;stroke-width:0.5;"/></g><g class="participant participant-head" data-participant="BoardController"><rect fill="#E2E2F0" height="30.2969" rx="2.5" ry="2.5" style="stroke:#181818;stroke-width:0.5;" width="124.5645" x="419.1289" y="50"/><text fill="#000000" font-family="sans-serif" font-size="14" lengthAdjust="spacing" textLength="110.5645" x="426.1289" y="69.9951">BoardController</text></g><g class="participant participant-tail" data-participant="BoardController"><rect fill="#E2E2F0" height="30.2969" rx="2.5" ry="2.5" style="stroke:#181818;stroke-width:0.5;" width="124.5645" x="419.1289" y="456.1563"/><text fill="#000000" font-family="sans-serif" font-size="14" lengthAdjust="spacing" textLength="110.5645" x="426.1289" y="476.1514">BoardController</text></g><g class="participant participant-head" data-participant="BoardQueryService"><rect fill="#E2E2F0" height="30.2969" rx="2.5" ry="2.5" style="stroke:#181818;stroke-width:0.5;" width="149.6797" x="723.8901" y="50"/><text fill="#000000" font-family="sans-serif" font-size="14" lengthAdjust="spacing" textLength="135.6797" x="730.8901" y="69.9951">BoardQueryService</text></g><g class="participant participant-tail" data-participant="BoardQueryService"><rect fill="#E2E2F0" height="30.2969" rx="2.5" ry="2.5" style="stroke:#181818;stroke-width:0.5;" width="149.6797" x="723.8901" y="456.1563"/><text fill="#000000" font-family="sans-serif" font-size="14" lengthAdjust="spacing" textLength="135.6797" x="730.8901" y="476.1514">BoardQueryService</text></g><g class="participant participant-head" data-participant="BoardQueryRepository"><rect fill="#E2E2F0" height="30.2969" rx="2.5" ry="2.5" style="stroke:#181818;stroke-width:0.5;" width="173.0107" x="921.7603" y="50"/><text fill="#000000" font-family="sans-serif" font-size="14" lengthAdjust="spacing" textLength="159.0107" x="928.7603" y="69.9951">BoardQueryRepository</text></g><g class="participant participant-tail" data-participant="BoardQueryRepository"><rect fill="#E2E2F0" height="30.2969" rx="2.5" ry="2.5" style="stroke:#181818;stroke-width:0.5;" width="173.0107" x="921.7603" y="456.1563"/><text fill="#000000" font-family="sans-serif" font-size="14" lengthAdjust="spacing" textLength="159.0107" x="928.7603" y="476.1514">BoardQueryRepository</text></g><g class="message" data-participant-1="User" data-participant-2="BoardController"><polygon fill="#181818" points="469.4111,123.5625,479.4111,127.5625,469.4111,131.5625,473.4111,127.5625" style="stroke:#181818;stroke-width:1;"/><line style="stroke:#181818;stroke-width:1;" x1="23.9551" x2="475.4111" y1="127.5625" y2="127.5625"/><text fill="#000000" font-family="sans-serif" font-size="13" lengthAdjust="spacing" textLength="86.1821" x="30.9551" y="107.3638">GET /boards?</text><text fill="#000000" font-family="sans-serif" font-size="13" lengthAdjust="spacing" textLength="433.4561" x="30.9551" y="122.4966">page={page}&amp;size={size}&amp;searchType={type}&amp;keyword={kw}</text></g><g class="message" data-participant-1="BoardController" data-participant-2="BoardQueryService"><polygon fill="#181818" points="786.73,152.6953,796.73,156.6953,786.73,160.6953,790.73,156.6953" style="stroke:#181818;stroke-width:1;"/><line style="stroke:#181818;stroke-width:1;" x1="481.4111" x2="792.73" y1="156.6953" y2="156.6953"/><text fill="#000000" font-family="sans-serif" font-size="13" lengthAdjust="spacing" textLength="293.3188" x="488.4111" y="151.6294">getBoards(SearchCondition searchCondition)</text></g><path d="M486,169.6953 L486,254.6953 L685,254.6953 L685,179.6953 L675,169.6953 L486,169.6953" fill="#FEFFDD" style="stroke:#181818;stroke-width:0.5;"/><path d="M675,169.6953 L675,179.6953 L685,179.6953 L675,169.6953" fill="#FEFFDD" style="stroke:#181818;stroke-width:0.5;"/><text fill="#000000" font-family="sans-serif" font-size="13" font-weight="bold" lengthAdjust="spacing" textLength="120.6689" x="492" y="186.7622">SearchCondition</text><ellipse cx="497.5" cy="197.4609" fill="#000000" rx="2.5" ry="2.5"/><text fill="#000000" font-family="sans-serif" font-size="13" lengthAdjust="spacing" textLength="53.5488" x="504" y="201.895">int page</text><ellipse cx="497.5" cy="212.5938" fill="#000000" rx="2.5" ry="2.5"/><text fill="#000000" font-family="sans-serif" font-size="13" lengthAdjust="spacing" textLength="46.2871" x="504" y="217.0278">int size</text><ellipse cx="497.5" cy="227.7266" fill="#000000" rx="2.5" ry="2.5"/><text fill="#000000" font-family="sans-serif" font-size="13" lengthAdjust="spacing" textLength="118.2822" x="504" y="232.1606">String searchType</text><text fill="#000000" font-family="sans-serif" font-size="13" lengthAdjust="spacing" textLength="34.1758" x="636.2344" y="232.1606">//title</text><ellipse cx="497.5" cy="242.8594" fill="#000000" rx="2.5" ry="2.5"/><text fill="#000000" font-family="sans-serif" font-size="13" lengthAdjust="spacing" textLength="98.3315" x="504" y="247.2935">String keyword</text><g class="message" data-participant-1="BoardQueryService" data-participant-2="BoardQueryRepository"><polygon fill="#181818" points="996.2656,277.4922,1006.2656,281.4922,996.2656,285.4922,1000.2656,281.4922" style="stroke:#181818;stroke-width:1;"/><line style="stroke:#181818;stroke-width:1;" x1="798.73" x2="1002.2656" y1="281.4922" y2="281.4922"/><text fill="#000000" font-family="sans-serif" font-size="13" lengthAdjust="spacing" textLength="185.5356" x="805.73" y="276.4263">findBoards(searchCondition)</text></g><g class="message" data-participant-1="BoardQueryRepository" data-participant-2="BoardQueryService"><polygon fill="#181818" points="809.73,306.625,799.73,310.625,809.73,314.625,805.73,310.625" style="stroke:#181818;stroke-width:1;"/><line style="stroke:#181818;stroke-width:1;stroke-dasharray:2.0,2.0;" x1="803.73" x2="1007.2656" y1="310.625" y2="310.625"/><text fill="#000000" font-family="sans-serif" font-size="13" lengthAdjust="spacing" textLength="87.0771" x="815.73" y="305.5591">List &lt;Board&gt;</text></g><g class="message" data-participant-1="BoardQueryService" data-participant-2="BoardController"><polygon fill="#181818" points="492.4111,335.7578,482.4111,339.7578,492.4111,343.7578,488.4111,339.7578" style="stroke:#181818;stroke-width:1;"/><line style="stroke:#181818;stroke-width:1;stroke-dasharray:2.0,2.0;" x1="486.4111" x2="797.73" y1="339.7578" y2="339.7578"/><text fill="#000000" font-family="sans-serif" font-size="13" lengthAdjust="spacing" textLength="101.9116" x="498.4111" y="334.6919">BoardListResult</text></g><path d="M656,352.7578 L656,377.7578 L793,377.7578 L793,362.7578 L783,352.7578 L656,352.7578" fill="#FEFFDD" style="stroke:#181818;stroke-width:0.5;"/><path d="M783,352.7578 L783,362.7578 L793,362.7578 L783,352.7578" fill="#FEFFDD" style="stroke:#181818;stroke-width:0.5;"/><text fill="#000000" font-family="sans-serif" font-size="13" font-weight="bold" lengthAdjust="spacing" textLength="116.5112" x="662" y="369.8247">BoardListResult</text><g class="message" data-participant-1="BoardController" data-participant-2="User"><polygon fill="#181818" points="34.9551,400.0234,24.9551,404.0234,34.9551,408.0234,30.9551,404.0234" style="stroke:#181818;stroke-width:1;"/><line style="stroke:#181818;stroke-width:1;stroke-dasharray:2.0,2.0;" x1="28.9551" x2="480.4111" y1="404.0234" y2="404.0234"/><text fill="#000000" font-family="sans-serif" font-size="13" lengthAdjust="spacing" textLength="228.668" x="40.9551" y="398.9575">HTTP 200 OK + BoardListResponse</text></g><path d="M28,417.0234 L28,442.0234 L189,442.0234 L189,427.0234 L179,417.0234 L28,417.0234" fill="#FEFFDD" style="stroke:#181818;stroke-width:0.5;"/><path d="M179,417.0234 L179,427.0234 L189,427.0234 L179,417.0234" fill="#FEFFDD" style="stroke:#181818;stroke-width:0.5;"/><text fill="#000000" font-family="sans-serif" font-size="13" font-weight="bold" lengthAdjust="spacing" textLength="140.6323" x="34" y="434.0903">BoardListResponse</text><!--SRC=[TL9DQyCm3BtxL-XKza59sR6a6MoC3JROrcItNj94JKM37Mnr9IlzxxEzZYPkUX6oPEdfFIalM6duCgX5askcWffSCZoeN9UFIh9MTJsK-zoYRbFKtrJWXUmS6sN8jc-5S00mJiA-C8NdfmoYfGkRUrZ89gzmjdVsC3BqOtrdhO-vBjPPszW8MtiORR3TALtEzflTGOHz_w6wOrgm2jc7pLNg-zcAafYK1DD_Nmkf645JjMPGgpCzucKIT8YZPI9kWAm4RlgZwuQtRigQP0Kd4h3WA6BYkfCz4X8eIt3eGfnJwF4w2MofhKYMHsvdN0PBnXSqUYF34FjCCZZ2u1fzn9NEqMnh_fElnjL9lTx5MFs22gzVGBsxK8lgZsWABrds0NUJ2Ro_mcqFk57IOB0vVze1dF_N0_m5]--></g></svg>