<svg xmlns="http://www.w3.org/2000/svg" xmlns:xlink="http://www.w3.org/1999/xlink" contentStyleType="text/css" data-diagram-type="SEQUENCE" height="782px" preserveAspectRatio="none" style="width:1437px;height:782px;background:#FFFFFF;" version="1.1" viewBox="0 0 1437 782" width="1437px" zoomAndPan="magnify"><title>delegateRole</title><defs/><g><text fill="#000000" font-family="sans-serif" font-size="14" font-weight="bold" lengthAdjust="spacing" textLength="104.1592" x="668.0313" y="27.9951">delegateRole</text><rect fill="none" height="190.6016" style="stroke:#000000;stroke-width:1.5;" width="1347.7715" x="10" y="493.7188"/><g><title>Permission Client</title><rect fill="#000000" fill-opacity="0.00000" height="582.7266" width="8" x="79.6177" y="118.5938"/><line style="stroke:#181818;stroke-width:0.5;stroke-dasharray:5.0,5.0;" x1="83" x2="83" y1="118.5938" y2="701.3203"/></g><g><title>PermissionController</title><rect fill="#000000" fill-opacity="0.00000" height="582.7266" width="8" x="405.6392" y="118.5938"/><line style="stroke:#181818;stroke-width:0.5;stroke-dasharray:5.0,5.0;" x1="408.9253" x2="408.9253" y1="118.5938" y2="701.3203"/></g><g><title>PermissionCommandService</title><rect fill="#000000" fill-opacity="0.00000" height="582.7266" width="8" x="738.0146" y="118.5938"/><line style="stroke:#181818;stroke-width:0.5;stroke-dasharray:5.0,5.0;" x1="741.0391" x2="741.0391" y1="118.5938" y2="701.3203"/></g><g><title>PermissionCommandRepository</title><rect fill="#000000" fill-opacity="0.00000" height="582.7266" width="8" x="973.6313" y="118.5938"/><line style="stroke:#181818;stroke-width:0.5;stroke-dasharray:5.0,5.0;" x1="976.9902" x2="976.9902" y1="118.5938" y2="701.3203"/></g><g><title>PermissionPolicy</title><rect fill="#000000" fill-opacity="0.00000" height="582.7266" width="8" x="1163.7847" y="118.5938"/><line style="stroke:#181818;stroke-width:0.5;stroke-dasharray:5.0,5.0;" x1="1167.2725" x2="1167.2725" y1="118.5938" y2="701.3203"/></g><g><title>MemberContext</title><rect fill="#000000" fill-opacity="0.00000" height="582.7266" width="8" x="1348.7715" y="118.5938"/><line style="stroke:#181818;stroke-width:0.5;stroke-dasharray:5.0,5.0;" x1="1352.4331" x2="1352.4331" y1="118.5938" y2="701.3203"/></g><g class="participant participant-head" data-participant="PermissionClient"><text fill="#000000" font-family="sans-serif" font-size="14" lengthAdjust="spacing" textLength="121.2354" x="20" y="115.292">Permission Client</text><ellipse cx="83.6177" cy="50.7969" fill="#E2E2F0" rx="8" ry="8" style="stroke:#181818;stroke-width:0.5;"/><path d="M83.6177,58.7969 L83.6177,85.7969 M70.6177,66.7969 L96.6177,66.7969 M83.6177,85.7969 L70.6177,100.7969 M83.6177,85.7969 L96.6177,100.7969" fill="none" style="stroke:#181818;stroke-width:0.5;"/></g><g class="participant participant-tail" data-participant="PermissionClient"><text fill="#000000" font-family="sans-serif" font-size="14" lengthAdjust="spacing" textLength="121.2354" x="20" y="713.3154">Permission Client</text><ellipse cx="83.6177" cy="725.1172" fill="#E2E2F0" rx="8" ry="8" style="stroke:#181818;stroke-width:0.5;"/><path d="M83.6177,733.1172 L83.6177,760.1172 M70.6177,741.1172 L96.6177,741.1172 M83.6177,760.1172 L70.6177,775.1172 M83.6177,760.1172 L96.6177,775.1172" fill="none" style="stroke:#181818;stroke-width:0.5;"/></g><g class="participant participant-head" data-participant="PermissionController"><rect fill="#E2E2F0" height="30.2969" rx="2.5" ry="2.5" style="stroke:#181818;stroke-width:0.5;" width="159.4277" x="329.9253" y="87.2969"/><text fill="#000000" font-family="sans-serif" font-size="14" lengthAdjust="spacing" textLength="145.4277" x="336.9253" y="107.292">PermissionController</text></g><g class="participant participant-tail" data-participant="PermissionController"><rect fill="#E2E2F0" height="30.2969" rx="2.5" ry="2.5" style="stroke:#181818;stroke-width:0.5;" width="159.4277" x="329.9253" y="700.3203"/><text fill="#000000" font-family="sans-serif" font-size="14" lengthAdjust="spacing" textLength="145.4277" x="336.9253" y="720.3154">PermissionController</text></g><g class="participant participant-head" data-participant="PermissionCommandService"><rect fill="#E2E2F0" height="30.2969" rx="2.5" ry="2.5" style="stroke:#181818;stroke-width:0.5;" width="213.9512" x="635.0391" y="87.2969"/><text fill="#000000" font-family="sans-serif" font-size="14" lengthAdjust="spacing" textLength="199.9512" x="642.0391" y="107.292">PermissionCommandService</text></g><g class="participant participant-tail" data-participant="PermissionCommandService"><rect fill="#E2E2F0" height="30.2969" rx="2.5" ry="2.5" style="stroke:#181818;stroke-width:0.5;" width="213.9512" x="635.0391" y="700.3203"/><text fill="#000000" font-family="sans-serif" font-size="14" lengthAdjust="spacing" textLength="199.9512" x="642.0391" y="720.3154">PermissionCommandService</text></g><g class="participant participant-head" data-participant="PermissionCommandRepository"><rect fill="#E2E2F0" height="30.2969" rx="2.5" ry="2.5" style="stroke:#181818;stroke-width:0.5;" width="237.2822" x="858.9902" y="87.2969"/><text fill="#000000" font-family="sans-serif" font-size="14" lengthAdjust="spacing" textLength="223.2822" x="865.9902" y="107.292">PermissionCommandRepository</text></g><g class="participant participant-tail" data-participant="PermissionCommandRepository"><rect fill="#E2E2F0" height="30.2969" rx="2.5" ry="2.5" style="stroke:#181818;stroke-width:0.5;" width="237.2822" x="858.9902" y="700.3203"/><text fill="#000000" font-family="sans-serif" font-size="14" lengthAdjust="spacing" textLength="223.2822" x="865.9902" y="720.3154">PermissionCommandRepository</text></g><g class="participant participant-head" data-participant="PermissionPolicy"><text fill="#000000" font-family="sans-serif" font-size="14" lengthAdjust="spacing" textLength="117.0244" x="1106.2725" y="115.292">PermissionPolicy</text><ellipse cx="1167.7847" cy="86.2969" fill="#E2E2F0" rx="12" ry="12" style="stroke:#181818;stroke-width:0.5;"/><line style="stroke:#181818;stroke-width:0.5;" x1="1155.7847" x2="1179.7847" y1="100.2969" y2="100.2969"/></g><g class="participant participant-tail" data-participant="PermissionPolicy"><text fill="#000000" font-family="sans-serif" font-size="14" lengthAdjust="spacing" textLength="117.0244" x="1106.2725" y="713.3154">PermissionPolicy</text><ellipse cx="1167.7847" cy="732.6172" fill="#E2E2F0" rx="12" ry="12" style="stroke:#181818;stroke-width:0.5;"/><line style="stroke:#181818;stroke-width:0.5;" x1="1155.7847" x2="1179.7847" y1="746.6172" y2="746.6172"/></g><g class="participant participant-head" data-participant="MemberContext"><rect fill="#87CEEB" height="46.5938" rx="2.5" ry="2.5" style="stroke:#181818;stroke-width:0.5;" width="126.6768" x="1289.4331" y="71"/><text fill="#000000" font-family="sans-serif" font-size="14" lengthAdjust="spacing" textLength="112.6768" x="1296.4331" y="90.9951">MemberContext</text><text fill="#000000" font-family="sans-serif" font-size="14" lengthAdjust="spacing" textLength="105.7656" x="1299.8887" y="107.292">(OuterContext)</text></g><g class="participant participant-tail" data-participant="MemberContext"><rect fill="#87CEEB" height="46.5938" rx="2.5" ry="2.5" style="stroke:#181818;stroke-width:0.5;" width="126.6768" x="1289.4331" y="700.3203"/><text fill="#000000" font-family="sans-serif" font-size="14" lengthAdjust="spacing" textLength="112.6768" x="1296.4331" y="720.3154">MemberContext</text><text fill="#000000" font-family="sans-serif" font-size="14" lengthAdjust="spacing" textLength="105.7656" x="1299.8887" y="736.6123">(OuterContext)</text></g><g class="message" data-participant-1="PermissionClient" data-participant-2="PermissionController"><polygon fill="#181818" points="397.6392,178.9922,407.6392,182.9922,397.6392,186.9922,401.6392,182.9922" style="stroke:#181818;stroke-width:1;"/><line style="stroke:#181818;stroke-width:1;" x1="83.6177" x2="403.6392" y1="182.9922" y2="182.9922"/><text fill="#000000" font-family="sans-serif" font-size="13" lengthAdjust="spacing" textLength="302.0215" x="90.6177" y="162.7935">POST /permissions/boards/{boardId}/delegate</text><text fill="#000000" font-family="sans-serif" font-size="13" lengthAdjust="spacing" textLength="131.1108" x="90.6177" y="177.9263">(DelegateRoleForm)</text></g><path d="M414,133.5938 L414,203.5938 L672,203.5938 L672,143.5938 L662,133.5938 L414,133.5938" fill="#FEFFDD" style="stroke:#181818;stroke-width:0.5;"/><path d="M662,133.5938 L662,143.5938 L672,143.5938 L662,133.5938" fill="#FEFFDD" style="stroke:#181818;stroke-width:0.5;"/><text fill="#000000" font-family="sans-serif" font-size="13" font-weight="bold" lengthAdjust="spacing" textLength="135.9731" x="420" y="150.6606">DelegateRoleForm</text><text fill="#000000" font-family="sans-serif" font-size="13" lengthAdjust="spacing" textLength="4.3799" x="555.9731" y="150.6606">:</text><ellipse cx="425.5" cy="161.3594" fill="#000000" rx="2.5" ry="2.5"/><text fill="#000000" font-family="sans-serif" font-size="13" lengthAdjust="spacing" textLength="108.0752" x="432" y="165.7935">Long fromUserId</text><ellipse cx="425.5" cy="176.4922" fill="#000000" rx="2.5" ry="2.5"/><text fill="#000000" font-family="sans-serif" font-size="13" lengthAdjust="spacing" textLength="150.4902" x="432" y="180.9263">String toUserNickname</text><ellipse cx="425.5" cy="191.625" fill="#000000" rx="2.5" ry="2.5"/><text fill="#000000" font-family="sans-serif" font-size="13" lengthAdjust="spacing" textLength="89.521" x="432" y="196.0591">Role roleType</text><text fill="#000000" font-family="sans-serif" font-size="13" lengthAdjust="spacing" textLength="93.2026" x="564.2344" y="196.0591">//POST_ADMIN</text><g class="message" data-participant-1="PermissionController" data-participant-2="PermissionCommandService"><polygon fill="#181818" points="730.0146,251.957,740.0146,255.957,730.0146,259.957,734.0146,255.957" style="stroke:#181818;stroke-width:1;"/><line style="stroke:#181818;stroke-width:1;" x1="409.6392" x2="736.0146" y1="255.957" y2="255.957"/><text fill="#000000" font-family="sans-serif" font-size="13" lengthAdjust="spacing" textLength="308.3755" x="416.6392" y="250.8911">delegateRole(boardId, DelegateRoleCommand)</text></g><path d="M747,214.125 L747,284.125 L1005,284.125 L1005,224.125 L995,214.125 L747,214.125" fill="#FEFFDD" style="stroke:#181818;stroke-width:0.5;"/><path d="M995,214.125 L995,224.125 L1005,224.125 L995,214.125" fill="#FEFFDD" style="stroke:#181818;stroke-width:0.5;"/><text fill="#000000" font-family="sans-serif" font-size="13" font-weight="bold" lengthAdjust="spacing" textLength="171.1011" x="753" y="231.1919">DelegateRoleCommand</text><text fill="#000000" font-family="sans-serif" font-size="13" lengthAdjust="spacing" textLength="4.3799" x="924.1011" y="231.1919">:</text><ellipse cx="758.5" cy="241.8906" fill="#000000" rx="2.5" ry="2.5"/><text fill="#000000" font-family="sans-serif" font-size="13" lengthAdjust="spacing" textLength="108.0752" x="765" y="246.3247">Long fromUserId</text><ellipse cx="758.5" cy="257.0234" fill="#000000" rx="2.5" ry="2.5"/><text fill="#000000" font-family="sans-serif" font-size="13" lengthAdjust="spacing" textLength="150.4902" x="765" y="261.4575">String toUserNickname</text><ellipse cx="758.5" cy="272.1563" fill="#000000" rx="2.5" ry="2.5"/><text fill="#000000" font-family="sans-serif" font-size="13" lengthAdjust="spacing" textLength="89.521" x="765" y="276.5903">Role roleType</text><text fill="#000000" font-family="sans-serif" font-size="13" lengthAdjust="spacing" textLength="93.2026" x="897.2344" y="276.5903">//POST_ADMIN</text><g class="message" data-participant-1="PermissionCommandService" data-participant-2="MemberContext"><polygon fill="#181818" points="1340.7715,306.7891,1350.7715,310.7891,1340.7715,314.7891,1344.7715,310.7891" style="stroke:#181818;stroke-width:1;"/><line style="stroke:#181818;stroke-width:1;" x1="742.0146" x2="1346.7715" y1="310.7891" y2="310.7891"/><text fill="#000000" font-family="sans-serif" font-size="13" lengthAdjust="spacing" textLength="313.1045" x="749.0146" y="305.7231">GET /internal/users?nickname=toUserNickname</text></g><g class="message" data-participant-1="MemberContext" data-participant-2="PermissionCommandService"><polygon fill="#181818" points="753.0146,335.9219,743.0146,339.9219,753.0146,343.9219,749.0146,339.9219" style="stroke:#181818;stroke-width:1;"/><line style="stroke:#181818;stroke-width:1;stroke-dasharray:2.0,2.0;" x1="747.0146" x2="1351.7715" y1="339.9219" y2="339.9219"/><text fill="#000000" font-family="sans-serif" font-size="13" lengthAdjust="spacing" textLength="131.4854" x="759.0146" y="334.856">HTTP 200 (toUserId)</text></g><g class="message" data-participant-1="PermissionCommandService" data-participant-2="PermissionCommandRepository"><polygon fill="#181818" points="965.6313,365.0547,975.6313,369.0547,965.6313,373.0547,969.6313,369.0547" style="stroke:#181818;stroke-width:1;"/><line style="stroke:#181818;stroke-width:1;" x1="742.0146" x2="971.6313" y1="369.0547" y2="369.0547"/><text fill="#000000" font-family="sans-serif" font-size="13" lengthAdjust="spacing" textLength="151.8105" x="749.0146" y="363.9888">findByBoardId(boardId)</text></g><g class="message" data-participant-1="PermissionCommandRepository" data-participant-2="PermissionCommandService"><polygon fill="#181818" points="753.0146,394.1875,743.0146,398.1875,753.0146,402.1875,749.0146,398.1875" style="stroke:#181818;stroke-width:1;"/><line style="stroke:#181818;stroke-width:1;stroke-dasharray:2.0,2.0;" x1="747.0146" x2="976.6313" y1="398.1875" y2="398.1875"/><text fill="#000000" font-family="sans-serif" font-size="13" lengthAdjust="spacing" textLength="108.6655" x="759.0146" y="393.1216">PermissionPolicy</text></g><g class="message" data-participant-1="PermissionCommandService" data-participant-2="PermissionPolicy"><polygon fill="#181818" points="1155.7847,449.0195,1165.7847,453.0195,1155.7847,457.0195,1159.7847,453.0195" style="stroke:#181818;stroke-width:1;"/><line style="stroke:#181818;stroke-width:1;" x1="742.0146" x2="1161.7847" y1="453.0195" y2="453.0195"/><text fill="#000000" font-family="sans-serif" font-size="13" lengthAdjust="spacing" textLength="206.2861" x="749.0146" y="447.9536">delegateRole(delegateRoleInfo)</text></g><path d="M1172,411.1875 L1172,481.1875 L1430,481.1875 L1430,421.1875 L1420,411.1875 L1172,411.1875" fill="#FEFFDD" style="stroke:#181818;stroke-width:0.5;"/><path d="M1420,411.1875 L1420,421.1875 L1430,421.1875 L1420,411.1875" fill="#FEFFDD" style="stroke:#181818;stroke-width:0.5;"/><text fill="#000000" font-family="sans-serif" font-size="13" font-weight="bold" lengthAdjust="spacing" textLength="126.8833" x="1178" y="428.2544">DelegateRoleInfo</text><text fill="#000000" font-family="sans-serif" font-size="13" lengthAdjust="spacing" textLength="4.3799" x="1304.8833" y="428.2544">:</text><ellipse cx="1183.5" cy="438.9531" fill="#000000" rx="2.5" ry="2.5"/><text fill="#000000" font-family="sans-serif" font-size="13" lengthAdjust="spacing" textLength="108.0752" x="1190" y="443.3872">Long fromUserId</text><ellipse cx="1183.5" cy="454.0859" fill="#000000" rx="2.5" ry="2.5"/><text fill="#000000" font-family="sans-serif" font-size="13" lengthAdjust="spacing" textLength="90.5874" x="1190" y="458.52">Long toUserId</text><ellipse cx="1183.5" cy="469.2188" fill="#000000" rx="2.5" ry="2.5"/><text fill="#000000" font-family="sans-serif" font-size="13" lengthAdjust="spacing" textLength="89.521" x="1190" y="473.6528">Role roleType</text><text fill="#000000" font-family="sans-serif" font-size="13" lengthAdjust="spacing" textLength="93.2026" x="1322.2344" y="473.6528">//POST_ADMIN</text><path d="M10,493.7188 L74.4429,493.7188 L74.4429,500.8516 L64.4429,510.8516 L10,510.8516 L10,493.7188" fill="#EEEEEE" style="stroke:#000000;stroke-width:1.5;"/><rect fill="none" height="190.6016" style="stroke:#000000;stroke-width:1.5;" width="1347.7715" x="10" y="493.7188"/><text fill="#000000" font-family="sans-serif" font-size="13" font-weight="bold" lengthAdjust="spacing" textLength="19.4429" x="25" y="506.7856">alt</text><text fill="#000000" font-family="sans-serif" font-size="11" font-weight="bold" lengthAdjust="spacing" textLength="40.2886" x="89.4429" y="505.9292">[&#44428;&#54620; &#51080;&#51020;]</text><g class="message" data-participant-1="PermissionPolicy" data-participant-2="PermissionCommandService"><polygon fill="#181818" points="753.0146,527.9844,743.0146,531.9844,753.0146,535.9844,749.0146,531.9844" style="stroke:#181818;stroke-width:1;"/><line style="stroke:#181818;stroke-width:1;stroke-dasharray:2.0,2.0;" x1="747.0146" x2="1166.7847" y1="531.9844" y2="531.9844"/><text fill="#000000" font-family="sans-serif" font-size="13" lengthAdjust="spacing" textLength="57.3892" x="759.0146" y="526.9185">&#49457;&#44277; (void)</text></g><g class="message" data-participant-1="PermissionCommandService" data-participant-2="PermissionController"><polygon fill="#181818" points="420.6392,557.1172,410.6392,561.1172,420.6392,565.1172,416.6392,561.1172" style="stroke:#181818;stroke-width:1;"/><line style="stroke:#181818;stroke-width:1;stroke-dasharray:2.0,2.0;" x1="414.6392" x2="741.0146" y1="561.1172" y2="561.1172"/><text fill="#000000" font-family="sans-serif" font-size="13" lengthAdjust="spacing" textLength="57.3892" x="426.6392" y="556.0513">&#49457;&#44277; (void)</text></g><g class="message" data-participant-1="PermissionController" data-participant-2="PermissionClient"><polygon fill="#181818" points="94.6177,586.25,84.6177,590.25,94.6177,594.25,90.6177,590.25" style="stroke:#181818;stroke-width:1;"/><line style="stroke:#181818;stroke-width:1;stroke-dasharray:2.0,2.0;" x1="88.6177" x2="408.6392" y1="590.25" y2="590.25"/><text fill="#000000" font-family="sans-serif" font-size="13" lengthAdjust="spacing" textLength="85.3315" x="100.6177" y="585.1841">HTTP 200 OK</text></g><line style="stroke:#000000;stroke-width:1;stroke-dasharray:2.0,2.0;" x1="10" x2="1357.7715" y1="599.25" y2="599.25"/><text fill="#000000" font-family="sans-serif" font-size="11" font-weight="bold" lengthAdjust="spacing" textLength="40.2886" x="15" y="609.4604">[&#44428;&#54620; &#50630;&#51020;]</text><g class="message" data-participant-1="PermissionPolicy" data-participant-2="PermissionPolicy"><line style="stroke:#181818;stroke-width:1;" x1="1167.7847" x2="1209.7847" y1="634.1875" y2="634.1875"/><line style="stroke:#181818;stroke-width:1;" x1="1209.7847" x2="1209.7847" y1="634.1875" y2="647.1875"/><line style="stroke:#181818;stroke-width:1;" x1="1168.7847" x2="1209.7847" y1="647.1875" y2="647.1875"/><polygon fill="#181818" points="1178.7847,643.1875,1168.7847,647.1875,1178.7847,651.1875,1174.7847,647.1875" style="stroke:#181818;stroke-width:1;"/><text fill="#000000" font-family="sans-serif" font-size="13" lengthAdjust="spacing" textLength="170.9868" x="1174.7847" y="629.1216">throw ForbiddenException</text></g><g class="message" data-participant-1="PermissionPolicy" data-participant-2="PermissionClient"><polygon fill="#181818" points="94.6177,672.3203,84.6177,676.3203,94.6177,680.3203,90.6177,676.3203" style="stroke:#181818;stroke-width:1;"/><line style="stroke:#181818;stroke-width:1;stroke-dasharray:2.0,2.0;" x1="88.6177" x2="1166.7847" y1="676.3203" y2="676.3203"/><text fill="#000000" font-family="sans-serif" font-size="13" lengthAdjust="spacing" textLength="131.9551" x="100.6177" y="671.2544">HTTP 403 Forbidden</text></g><!--SRC=[lLHDRzD04BtlhnY5In8HEG9EKGcYj805RQ8ct2gXjJr9LrtlMhkRKglYXX27NX4Nu3yW13-g2l-1SPqFEwdTSk5axUoRcVVUZDS99n4Yb3Zb3e-qHCPuwBI18PfOM2kqUYO5AWVSGcCTX3pQO0atJeGYuGGfv6ZbZ9OIJIKWZhcAHcZEH8Zre2DCj1L4AcNKKhYq01bgASAKbGeSO1oWoIZWUSwx53bMpS7ChOwj1jopfsaWPwITRSdkz6-K1JqO3aPZy9BLfVK2pKralOlhhn-zzvR6KikzWiVFjObRJ6c7OCJqnB6TeBzvl-C5_HvhlzPg2XEZupSMZH-nziWPGI6diy2X24yLZv6ripGWQZXE4mI0O-Tv6S6tJ_SE_4FoBOAiNqdWMio6oE9eI6XnFPeBRVUXI7YHKgTf0VaViahqILfv7thmOf_c9kXa59VUZ1hQ9shHyl460rPExjGxzN8y7iA3RXUQUHcVBAcbLhFhL6uYLBIRxkQEBvrliRgaMmXk_pXtOvUZDtUXUF3LHDVDFxkl6lvrOEdOFmoTImTNlo__VFuAy- -Vvjyk6MnpliMH-OSVLpz_GVDC2x8Mgg6TwfUWhiRw7oldvwzBOMK6hnXAYoj1NpvM2RfnCEx4w7T0BqSWeWZL_dc8YIF07ImfKNdKVRYkaddD_W80]--></g></svg>