<svg xmlns="http://www.w3.org/2000/svg" xmlns:xlink="http://www.w3.org/1999/xlink" contentStyleType="text/css" data-diagram-type="SEQUENCE" height="739px" preserveAspectRatio="none" style="width:1437px;height:739px;background:#FFFFFF;" version="1.1" viewBox="0 0 1437 739" width="1437px" zoomAndPan="magnify"><title>delegateRole</title><defs/><g><text fill="#000000" font-family="sans-serif" font-size="14" font-weight="bold" lengthAdjust="spacing" textLength="104.1592" x="668.0313" y="27.9951">delegateRole</text><rect fill="none" height="148.4688" style="stroke:#000000;stroke-width:1.5;" width="1229.2969" x="10" y="493.7188"/><g><title>Permission Client</title><rect fill="#000000" fill-opacity="0.00000" height="540.5938" width="8" x="79.6177" y="118.5938"/><line style="stroke:#181818;stroke-width:0.5;stroke-dasharray:5.0,5.0;" x1="83" x2="83" y1="118.5938" y2="659.1875"/></g><g><title>PermissionController</title><rect fill="#000000" fill-opacity="0.00000" height="540.5938" width="8" x="405.6392" y="118.5938"/><line style="stroke:#181818;stroke-width:0.5;stroke-dasharray:5.0,5.0;" x1="408.9253" x2="408.9253" y1="118.5938" y2="659.1875"/></g><g><title>PermissionCommandService</title><rect fill="#000000" fill-opacity="0.00000" height="540.5938" width="8" x="738.0146" y="118.5938"/><line style="stroke:#181818;stroke-width:0.5;stroke-dasharray:5.0,5.0;" x1="741.0391" x2="741.0391" y1="118.5938" y2="659.1875"/></g><g><title>PermissionCommandRepository</title><rect fill="#000000" fill-opacity="0.00000" height="540.5938" width="8" x="973.6313" y="118.5938"/><line style="stroke:#181818;stroke-width:0.5;stroke-dasharray:5.0,5.0;" x1="976.9902" x2="976.9902" y1="118.5938" y2="659.1875"/></g><g><title>PermissionPolicy</title><rect fill="#000000" fill-opacity="0.00000" height="540.5938" width="8" x="1163.7847" y="118.5938"/><line style="stroke:#181818;stroke-width:0.5;stroke-dasharray:5.0,5.0;" x1="1167.2725" x2="1167.2725" y1="118.5938" y2="659.1875"/></g><g><title>MemberFetchService</title><rect fill="#000000" fill-opacity="0.00000" height="540.5938" width="8" x="1316.3232" y="118.5938"/><line style="stroke:#181818;stroke-width:0.5;stroke-dasharray:5.0,5.0;" x1="1320.2969" x2="1320.2969" y1="118.5938" y2="659.1875"/></g><g class="participant participant-head" data-participant="PermissionClient"><text fill="#000000" font-family="sans-serif" font-size="14" lengthAdjust="spacing" textLength="121.2354" x="20" y="115.292">Permission Client</text><ellipse cx="83.6177" cy="50.7969" fill="#E2E2F0" rx="8" ry="8" style="stroke:#181818;stroke-width:0.5;"/><path d="M83.6177,58.7969 L83.6177,85.7969 M70.6177,66.7969 L96.6177,66.7969 M83.6177,85.7969 L70.6177,100.7969 M83.6177,85.7969 L96.6177,100.7969" fill="none" style="stroke:#181818;stroke-width:0.5;"/></g><g class="participant participant-tail" data-participant="PermissionClient"><text fill="#000000" font-family="sans-serif" font-size="14" lengthAdjust="spacing" textLength="121.2354" x="20" y="671.1826">Permission Client</text><ellipse cx="83.6177" cy="682.9844" fill="#E2E2F0" rx="8" ry="8" style="stroke:#181818;stroke-width:0.5;"/><path d="M83.6177,690.9844 L83.6177,717.9844 M70.6177,698.9844 L96.6177,698.9844 M83.6177,717.9844 L70.6177,732.9844 M83.6177,717.9844 L96.6177,732.9844" fill="none" style="stroke:#181818;stroke-width:0.5;"/></g><g class="participant participant-head" data-participant="PermissionController"><rect fill="#E2E2F0" height="30.2969" rx="2.5" ry="2.5" style="stroke:#181818;stroke-width:0.5;" width="159.4277" x="329.9253" y="87.2969"/><text fill="#000000" font-family="sans-serif" font-size="14" lengthAdjust="spacing" textLength="145.4277" x="336.9253" y="107.292">PermissionController</text></g><g class="participant participant-tail" data-participant="PermissionController"><rect fill="#E2E2F0" height="30.2969" rx="2.5" ry="2.5" style="stroke:#181818;stroke-width:0.5;" width="159.4277" x="329.9253" y="658.1875"/><text fill="#000000" font-family="sans-serif" font-size="14" lengthAdjust="spacing" textLength="145.4277" x="336.9253" y="678.1826">PermissionController</text></g><g class="participant participant-head" data-participant="PermissionCommandService"><rect fill="#E2E2F0" height="30.2969" rx="2.5" ry="2.5" style="stroke:#181818;stroke-width:0.5;" width="213.9512" x="635.0391" y="87.2969"/><text fill="#000000" font-family="sans-serif" font-size="14" lengthAdjust="spacing" textLength="199.9512" x="642.0391" y="107.292">PermissionCommandService</text></g><g class="participant participant-tail" data-participant="PermissionCommandService"><rect fill="#E2E2F0" height="30.2969" rx="2.5" ry="2.5" style="stroke:#181818;stroke-width:0.5;" width="213.9512" x="635.0391" y="658.1875"/><text fill="#000000" font-family="sans-serif" font-size="14" lengthAdjust="spacing" textLength="199.9512" x="642.0391" y="678.1826">PermissionCommandService</text></g><g class="participant participant-head" data-participant="PermissionCommandRepository"><rect fill="#E2E2F0" height="30.2969" rx="2.5" ry="2.5" style="stroke:#181818;stroke-width:0.5;" width="237.2822" x="858.9902" y="87.2969"/><text fill="#000000" font-family="sans-serif" font-size="14" lengthAdjust="spacing" textLength="223.2822" x="865.9902" y="107.292">PermissionCommandRepository</text></g><g class="participant participant-tail" data-participant="PermissionCommandRepository"><rect fill="#E2E2F0" height="30.2969" rx="2.5" ry="2.5" style="stroke:#181818;stroke-width:0.5;" width="237.2822" x="858.9902" y="658.1875"/><text fill="#000000" font-family="sans-serif" font-size="14" lengthAdjust="spacing" textLength="223.2822" x="865.9902" y="678.1826">PermissionCommandRepository</text></g><g class="participant participant-head" data-participant="PermissionPolicy"><text fill="#000000" font-family="sans-serif" font-size="14" lengthAdjust="spacing" textLength="117.0244" x="1106.2725" y="115.292">PermissionPolicy</text><ellipse cx="1167.7847" cy="86.2969" fill="#E2E2F0" rx="12" ry="12" style="stroke:#181818;stroke-width:0.5;"/><line style="stroke:#181818;stroke-width:0.5;" x1="1155.7847" x2="1179.7847" y1="100.2969" y2="100.2969"/></g><g class="participant participant-tail" data-participant="PermissionPolicy"><text fill="#000000" font-family="sans-serif" font-size="14" lengthAdjust="spacing" textLength="117.0244" x="1106.2725" y="671.1826">PermissionPolicy</text><ellipse cx="1167.7847" cy="690.4844" fill="#E2E2F0" rx="12" ry="12" style="stroke:#181818;stroke-width:0.5;"/><line style="stroke:#181818;stroke-width:0.5;" x1="1155.7847" x2="1179.7847" y1="704.4844" y2="704.4844"/></g><g class="participant participant-head" data-participant="MemberFetchService"><rect fill="#87CEEB" height="30.2969" rx="2.5" ry="2.5" style="stroke:#181818;stroke-width:0.5;" width="162.0527" x="1239.2969" y="87.2969"/><text fill="#000000" font-family="sans-serif" font-size="14" lengthAdjust="spacing" textLength="148.0527" x="1246.2969" y="107.292">MemberFetchService</text></g><g class="participant participant-tail" data-participant="MemberFetchService"><rect fill="#87CEEB" height="30.2969" rx="2.5" ry="2.5" style="stroke:#181818;stroke-width:0.5;" width="162.0527" x="1239.2969" y="658.1875"/><text fill="#000000" font-family="sans-serif" font-size="14" lengthAdjust="spacing" textLength="148.0527" x="1246.2969" y="678.1826">MemberFetchService</text></g><g class="message" data-participant-1="PermissionClient" data-participant-2="PermissionController"><polygon fill="#181818" points="397.6392,178.9922,407.6392,182.9922,397.6392,186.9922,401.6392,182.9922" style="stroke:#181818;stroke-width:1;"/><line style="stroke:#181818;stroke-width:1;" x1="83.6177" x2="403.6392" y1="182.9922" y2="182.9922"/><text fill="#000000" font-family="sans-serif" font-size="13" lengthAdjust="spacing" textLength="302.0215" x="90.6177" y="162.7935">POST /permissions/boards/{boardId}/delegate</text><text fill="#000000" font-family="sans-serif" font-size="13" lengthAdjust="spacing" textLength="131.1108" x="90.6177" y="177.9263">(DelegateRoleForm)</text></g><path d="M414,133.5938 L414,203.5938 L672,203.5938 L672,143.5938 L662,133.5938 L414,133.5938" fill="#FEFFDD" style="stroke:#181818;stroke-width:0.5;"/><path d="M662,133.5938 L662,143.5938 L672,143.5938 L662,133.5938" fill="#FEFFDD" style="stroke:#181818;stroke-width:0.5;"/><text fill="#000000" font-family="sans-serif" font-size="13" font-weight="bold" lengthAdjust="spacing" textLength="135.9731" x="420" y="150.6606">DelegateRoleForm</text><text fill="#000000" font-family="sans-serif" font-size="13" lengthAdjust="spacing" textLength="4.3799" x="555.9731" y="150.6606">:</text><ellipse cx="425.5" cy="161.3594" fill="#000000" rx="2.5" ry="2.5"/><text fill="#000000" font-family="sans-serif" font-size="13" lengthAdjust="spacing" textLength="108.0752" x="432" y="165.7935">Long fromUserId</text><ellipse cx="425.5" cy="176.4922" fill="#000000" rx="2.5" ry="2.5"/><text fill="#000000" font-family="sans-serif" font-size="13" lengthAdjust="spacing" textLength="150.4902" x="432" y="180.9263">String toUserNickname</text><ellipse cx="425.5" cy="191.625" fill="#000000" rx="2.5" ry="2.5"/><text fill="#000000" font-family="sans-serif" font-size="13" lengthAdjust="spacing" textLength="89.521" x="432" y="196.0591">Role roleType</text><text fill="#000000" font-family="sans-serif" font-size="13" lengthAdjust="spacing" textLength="93.2026" x="564.2344" y="196.0591">//POST_ADMIN</text><g class="message" data-participant-1="PermissionController" data-participant-2="PermissionCommandService"><polygon fill="#181818" points="730.0146,251.957,740.0146,255.957,730.0146,259.957,734.0146,255.957" style="stroke:#181818;stroke-width:1;"/><line style="stroke:#181818;stroke-width:1;" x1="409.6392" x2="736.0146" y1="255.957" y2="255.957"/><text fill="#000000" font-family="sans-serif" font-size="13" lengthAdjust="spacing" textLength="308.3755" x="416.6392" y="250.8911">delegateRole(boardId, DelegateRoleCommand)</text></g><path d="M747,214.125 L747,284.125 L1005,284.125 L1005,224.125 L995,214.125 L747,214.125" fill="#FEFFDD" style="stroke:#181818;stroke-width:0.5;"/><path d="M995,214.125 L995,224.125 L1005,224.125 L995,214.125" fill="#FEFFDD" style="stroke:#181818;stroke-width:0.5;"/><text fill="#000000" font-family="sans-serif" font-size="13" font-weight="bold" lengthAdjust="spacing" textLength="171.1011" x="753" y="231.1919">DelegateRoleCommand</text><text fill="#000000" font-family="sans-serif" font-size="13" lengthAdjust="spacing" textLength="4.3799" x="924.1011" y="231.1919">:</text><ellipse cx="758.5" cy="241.8906" fill="#000000" rx="2.5" ry="2.5"/><text fill="#000000" font-family="sans-serif" font-size="13" lengthAdjust="spacing" textLength="108.0752" x="765" y="246.3247">Long fromUserId</text><ellipse cx="758.5" cy="257.0234" fill="#000000" rx="2.5" ry="2.5"/><text fill="#000000" font-family="sans-serif" font-size="13" lengthAdjust="spacing" textLength="150.4902" x="765" y="261.4575">String toUserNickname</text><ellipse cx="758.5" cy="272.1563" fill="#000000" rx="2.5" ry="2.5"/><text fill="#000000" font-family="sans-serif" font-size="13" lengthAdjust="spacing" textLength="89.521" x="765" y="276.5903">Role roleType</text><text fill="#000000" font-family="sans-serif" font-size="13" lengthAdjust="spacing" textLength="93.2026" x="897.2344" y="276.5903">//POST_ADMIN</text><g class="message" data-participant-1="PermissionCommandService" data-participant-2="MemberFetchService"><polygon fill="#181818" points="1308.3232,306.7891,1318.3232,310.7891,1308.3232,314.7891,1312.3232,310.7891" style="stroke:#181818;stroke-width:1;"/><line style="stroke:#181818;stroke-width:1;" x1="742.0146" x2="1314.3232" y1="310.7891" y2="310.7891"/><text fill="#000000" font-family="sans-serif" font-size="13" lengthAdjust="spacing" textLength="179.4546" x="749.0146" y="305.7231">fetchMemberId(toUserNick)</text></g><g class="message" data-participant-1="MemberFetchService" data-participant-2="PermissionCommandService"><polygon fill="#181818" points="753.0146,335.9219,743.0146,339.9219,753.0146,343.9219,749.0146,339.9219" style="stroke:#181818;stroke-width:1;"/><line style="stroke:#181818;stroke-width:1;stroke-dasharray:2.0,2.0;" x1="747.0146" x2="1319.3232" y1="339.9219" y2="339.9219"/><text fill="#000000" font-family="sans-serif" font-size="13" lengthAdjust="spacing" textLength="54.7676" x="759.0146" y="334.856">toUserId</text></g><g class="message" data-participant-1="PermissionCommandService" data-participant-2="PermissionCommandRepository"><polygon fill="#181818" points="965.6313,365.0547,975.6313,369.0547,965.6313,373.0547,969.6313,369.0547" style="stroke:#181818;stroke-width:1;"/><line style="stroke:#181818;stroke-width:1;" x1="742.0146" x2="971.6313" y1="369.0547" y2="369.0547"/><text fill="#000000" font-family="sans-serif" font-size="13" lengthAdjust="spacing" textLength="151.8105" x="749.0146" y="363.9888">findByBoardId(boardId)</text></g><g class="message" data-participant-1="PermissionCommandRepository" data-participant-2="PermissionCommandService"><polygon fill="#181818" points="753.0146,394.1875,743.0146,398.1875,753.0146,402.1875,749.0146,398.1875" style="stroke:#181818;stroke-width:1;"/><line style="stroke:#181818;stroke-width:1;stroke-dasharray:2.0,2.0;" x1="747.0146" x2="976.6313" y1="398.1875" y2="398.1875"/><text fill="#000000" font-family="sans-serif" font-size="13" lengthAdjust="spacing" textLength="108.6655" x="759.0146" y="393.1216">PermissionPolicy</text></g><g class="message" data-participant-1="PermissionCommandService" data-participant-2="PermissionPolicy"><polygon fill="#181818" points="1155.7847,449.0195,1165.7847,453.0195,1155.7847,457.0195,1159.7847,453.0195" style="stroke:#181818;stroke-width:1;"/><line style="stroke:#181818;stroke-width:1;" x1="742.0146" x2="1161.7847" y1="453.0195" y2="453.0195"/><text fill="#000000" font-family="sans-serif" font-size="13" lengthAdjust="spacing" textLength="206.2861" x="749.0146" y="447.9536">delegateRole(delegateRoleInfo)</text></g><path d="M1172,411.1875 L1172,481.1875 L1430,481.1875 L1430,421.1875 L1420,411.1875 L1172,411.1875" fill="#FEFFDD" style="stroke:#181818;stroke-width:0.5;"/><path d="M1420,411.1875 L1420,421.1875 L1430,421.1875 L1420,411.1875" fill="#FEFFDD" style="stroke:#181818;stroke-width:0.5;"/><text fill="#000000" font-family="sans-serif" font-size="13" font-weight="bold" lengthAdjust="spacing" textLength="126.8833" x="1178" y="428.2544">DelegateRoleInfo</text><text fill="#000000" font-family="sans-serif" font-size="13" lengthAdjust="spacing" textLength="4.3799" x="1304.8833" y="428.2544">:</text><ellipse cx="1183.5" cy="438.9531" fill="#000000" rx="2.5" ry="2.5"/><text fill="#000000" font-family="sans-serif" font-size="13" lengthAdjust="spacing" textLength="108.0752" x="1190" y="443.3872">Long fromUserId</text><ellipse cx="1183.5" cy="454.0859" fill="#000000" rx="2.5" ry="2.5"/><text fill="#000000" font-family="sans-serif" font-size="13" lengthAdjust="spacing" textLength="90.5874" x="1190" y="458.52">Long toUserId</text><ellipse cx="1183.5" cy="469.2188" fill="#000000" rx="2.5" ry="2.5"/><text fill="#000000" font-family="sans-serif" font-size="13" lengthAdjust="spacing" textLength="89.521" x="1190" y="473.6528">Role roleType</text><text fill="#000000" font-family="sans-serif" font-size="13" lengthAdjust="spacing" textLength="93.2026" x="1322.2344" y="473.6528">//POST_ADMIN</text><path d="M10,493.7188 L74.4429,493.7188 L74.4429,500.8516 L64.4429,510.8516 L10,510.8516 L10,493.7188" fill="#EEEEEE" style="stroke:#000000;stroke-width:1.5;"/><rect fill="none" height="148.4688" style="stroke:#000000;stroke-width:1.5;" width="1229.2969" x="10" y="493.7188"/><text fill="#000000" font-family="sans-serif" font-size="13" font-weight="bold" lengthAdjust="spacing" textLength="19.4429" x="25" y="506.7856">alt</text><text fill="#000000" font-family="sans-serif" font-size="11" font-weight="bold" lengthAdjust="spacing" textLength="40.2886" x="89.4429" y="505.9292">[&#44428;&#54620; &#51080;&#51020;]</text><g class="message" data-participant-1="PermissionPolicy" data-participant-2="PermissionCommandService"><polygon fill="#181818" points="753.0146,527.9844,743.0146,531.9844,753.0146,535.9844,749.0146,531.9844" style="stroke:#181818;stroke-width:1;"/><line style="stroke:#181818;stroke-width:1;stroke-dasharray:2.0,2.0;" x1="747.0146" x2="1166.7847" y1="531.9844" y2="531.9844"/><text fill="#000000" font-family="sans-serif" font-size="13" lengthAdjust="spacing" textLength="57.3892" x="759.0146" y="526.9185">&#49457;&#44277; (void)</text></g><g class="message" data-participant-1="PermissionCommandService" data-participant-2="PermissionController"><polygon fill="#181818" points="420.6392,557.1172,410.6392,561.1172,420.6392,565.1172,416.6392,561.1172" style="stroke:#181818;stroke-width:1;"/><line style="stroke:#181818;stroke-width:1;stroke-dasharray:2.0,2.0;" x1="414.6392" x2="741.0146" y1="561.1172" y2="561.1172"/><text fill="#000000" font-family="sans-serif" font-size="13" lengthAdjust="spacing" textLength="57.3892" x="426.6392" y="556.0513">&#49457;&#44277; (void)</text></g><g class="message" data-participant-1="PermissionController" data-participant-2="PermissionClient"><polygon fill="#181818" points="94.6177,586.25,84.6177,590.25,94.6177,594.25,90.6177,590.25" style="stroke:#181818;stroke-width:1;"/><line style="stroke:#181818;stroke-width:1;stroke-dasharray:2.0,2.0;" x1="88.6177" x2="408.6392" y1="590.25" y2="590.25"/><text fill="#000000" font-family="sans-serif" font-size="13" lengthAdjust="spacing" textLength="85.3315" x="100.6177" y="585.1841">HTTP 200 OK</text></g><line style="stroke:#000000;stroke-width:1;stroke-dasharray:2.0,2.0;" x1="10" x2="1239.2969" y1="599.25" y2="599.25"/><text fill="#000000" font-family="sans-serif" font-size="11" font-weight="bold" lengthAdjust="spacing" textLength="40.2886" x="15" y="609.4604">[&#44428;&#54620; &#50630;&#51020;]</text><g class="message" data-participant-1="PermissionPolicy" data-participant-2="PermissionClient"><polygon fill="#181818" points="94.6177,630.1875,84.6177,634.1875,94.6177,638.1875,90.6177,634.1875" style="stroke:#181818;stroke-width:1;"/><line style="stroke:#181818;stroke-width:1;" x1="88.6177" x2="1166.7847" y1="634.1875" y2="634.1875"/><text fill="#000000" font-family="sans-serif" font-size="13" lengthAdjust="spacing" textLength="170.9868" x="100.6177" y="629.1216">throw ForbiddenException</text></g><!--SRC=[lLHDJnin4BtFhnZHIn8rMiGnGf5AAUggV4GalI5LtlKaiV3QAzkbh10tLFN05VLI-0zL1JyAfV-XNZOacuzTEFLaUURD-Bqtjfrmaf2Jf15pTAmb0R3OQOCzCecmLcZrNWfI3fd5ZNaGY-W6fCmu4OkKUKYfHYjdj9HaAW59mXJlapaJCTM3ZYdLLdXI6VWZXSjAa9wM8ivWeS419H6PFNBnUDeVtzZJB99VlJfO4TRkhYME7UmTzGSOfBEa3IBD3BV1nTCQyilWsReJrTWjkRYdJT84fHsX4QEnW-sekvpV3g9k1rhxMermQ7JosP89ERJwpWWVSZeF78huLB64e9MNeQT6WombH3nnGP0J_F9kzo0yzCvmpCzR43WNioIoRBuNMhu0ZQcsjrWcF2sfqpI5_0zP2_Izj3KJx-0mtnQPa3VcvpO1rk3RzGuLvLv7BO-QgviJ4ehlP3k5lSysDw6kw0LMg-_WTUmAzFBWovjG3NNTiFDyrQIV0ZF3NZzX9Xq-Fbp_lVc5axiVazjhm5NEBpWokVhz-ESU6sTQU6kn6jgkVlPrFUOFQh6- -4ew-74mwE7MvYOUVGAIbcQ2Vdwl4hIsZniR_GtzDn49pabzE8yfTHwGsmN_0000]--></g></svg>