<svg xmlns="http://www.w3.org/2000/svg" xmlns:xlink="http://www.w3.org/1999/xlink" contentStyleType="text/css" data-diagram-type="SEQUENCE" height="356px" preserveAspectRatio="none" style="width:876px;height:356px;background:#FFFFFF;" version="1.1" viewBox="0 0 876 356" width="876px" zoomAndPan="magnify"><defs/><g><g><title>User</title><rect fill="#000000" fill-opacity="0.00000" height="194.7969" width="8" x="19.9551" y="81.2969"/><line style="stroke:#181818;stroke-width:0.5;stroke-dasharray:5.0,5.0;" x1="23" x2="23" y1="81.2969" y2="276.0938"/></g><g><title>MemberController</title><rect fill="#000000" fill-opacity="0.00000" height="194.7969" width="8" x="337.8198" y="81.2969"/><line style="stroke:#181818;stroke-width:0.5;stroke-dasharray:5.0,5.0;" x1="341.4404" x2="341.4404" y1="81.2969" y2="276.0938"/></g><g><title>MemberQueryService</title><rect fill="#000000" fill-opacity="0.00000" height="194.7969" width="8" x="554.7949" y="81.2969"/><line style="stroke:#181818;stroke-width:0.5;stroke-dasharray:5.0,5.0;" x1="557.8579" x2="557.8579" y1="81.2969" y2="276.0938"/></g><g><title>MemberQueryRepository</title><rect fill="#000000" fill-opacity="0.00000" height="194.7969" width="8" x="771.77" y="81.2969"/><line style="stroke:#181818;stroke-width:0.5;stroke-dasharray:5.0,5.0;" x1="775.1675" x2="775.1675" y1="81.2969" y2="276.0938"/></g><g class="participant participant-head" data-participant="User"><text fill="#000000" font-family="sans-serif" font-size="14" lengthAdjust="spacing" textLength="31.9102" x="5" y="77.9951">User</text><ellipse cx="23.9551" cy="13.5" fill="#E2E2F0" rx="8" ry="8" style="stroke:#181818;stroke-width:0.5;"/><path d="M23.9551,21.5 L23.9551,48.5 M10.9551,29.5 L36.9551,29.5 M23.9551,48.5 L10.9551,63.5 M23.9551,48.5 L36.9551,63.5" fill="none" style="stroke:#181818;stroke-width:0.5;"/></g><g class="participant participant-tail" data-participant="User"><text fill="#000000" font-family="sans-serif" font-size="14" lengthAdjust="spacing" textLength="31.9102" x="5" y="288.0889">User</text><ellipse cx="23.9551" cy="299.8906" fill="#E2E2F0" rx="8" ry="8" style="stroke:#181818;stroke-width:0.5;"/><path d="M23.9551,307.8906 L23.9551,334.8906 M10.9551,315.8906 L36.9551,315.8906 M23.9551,334.8906 L10.9551,349.8906 M23.9551,334.8906 L36.9551,349.8906" fill="none" style="stroke:#181818;stroke-width:0.5;"/></g><g class="participant participant-head" data-participant="MemberController"><rect fill="#E2E2F0" height="30.2969" rx="2.5" ry="2.5" style="stroke:#181818;stroke-width:0.5;" width="140.7588" x="271.4404" y="50"/><text fill="#000000" font-family="sans-serif" font-size="14" lengthAdjust="spacing" textLength="126.7588" x="278.4404" y="69.9951">MemberController</text></g><g class="participant participant-tail" data-participant="MemberController"><rect fill="#E2E2F0" height="30.2969" rx="2.5" ry="2.5" style="stroke:#181818;stroke-width:0.5;" width="140.7588" x="271.4404" y="275.0938"/><text fill="#000000" font-family="sans-serif" font-size="14" lengthAdjust="spacing" textLength="126.7588" x="278.4404" y="295.0889">MemberController</text></g><g class="participant participant-head" data-participant="MemberQueryService"><rect fill="#E2E2F0" height="30.2969" rx="2.5" ry="2.5" style="stroke:#181818;stroke-width:0.5;" width="165.874" x="475.8579" y="50"/><text fill="#000000" font-family="sans-serif" font-size="14" lengthAdjust="spacing" textLength="151.874" x="482.8579" y="69.9951">MemberQueryService</text></g><g class="participant participant-tail" data-participant="MemberQueryService"><rect fill="#E2E2F0" height="30.2969" rx="2.5" ry="2.5" style="stroke:#181818;stroke-width:0.5;" width="165.874" x="475.8579" y="275.0938"/><text fill="#000000" font-family="sans-serif" font-size="14" lengthAdjust="spacing" textLength="151.874" x="482.8579" y="295.0889">MemberQueryService</text></g><g class="participant participant-head" data-participant="MemberQueryRepository"><rect fill="#E2E2F0" height="30.2969" rx="2.5" ry="2.5" style="stroke:#181818;stroke-width:0.5;" width="189.2051" x="681.1675" y="50"/><text fill="#000000" font-family="sans-serif" font-size="14" lengthAdjust="spacing" textLength="175.2051" x="688.1675" y="69.9951">MemberQueryRepository</text></g><g class="participant participant-tail" data-participant="MemberQueryRepository"><rect fill="#E2E2F0" height="30.2969" rx="2.5" ry="2.5" style="stroke:#181818;stroke-width:0.5;" width="189.2051" x="681.1675" y="275.0938"/><text fill="#000000" font-family="sans-serif" font-size="14" lengthAdjust="spacing" textLength="175.2051" x="688.1675" y="295.0889">MemberQueryRepository</text></g><g class="message" data-participant-1="User" data-participant-2="MemberController"><polygon fill="#181818" points="329.8198,108.4297,339.8198,112.4297,329.8198,116.4297,333.8198,112.4297" style="stroke:#181818;stroke-width:1;"/><line style="stroke:#181818;stroke-width:1;" x1="23.9551" x2="335.8198" y1="112.4297" y2="112.4297"/><text fill="#000000" font-family="sans-serif" font-size="13" lengthAdjust="spacing" textLength="293.8647" x="30.9551" y="107.3638">GET /user/exists/nickname={userNickname}</text></g><g class="message" data-participant-1="MemberController" data-participant-2="MemberQueryService"><polygon fill="#181818" points="546.7949,137.5625,556.7949,141.5625,546.7949,145.5625,550.7949,141.5625" style="stroke:#181818;stroke-width:1;"/><line style="stroke:#181818;stroke-width:1;" x1="341.8198" x2="552.7949" y1="141.5625" y2="141.5625"/><text fill="#000000" font-family="sans-serif" font-size="13" lengthAdjust="spacing" textLength="192.9751" x="348.8198" y="136.4966">existsByNickname(nickname)</text></g><g class="message" data-participant-1="MemberQueryService" data-participant-2="MemberQueryRepository"><polygon fill="#181818" points="763.77,166.6953,773.77,170.6953,763.77,174.6953,767.77,170.6953" style="stroke:#181818;stroke-width:1;"/><line style="stroke:#181818;stroke-width:1;" x1="558.7949" x2="769.77" y1="170.6953" y2="170.6953"/><text fill="#000000" font-family="sans-serif" font-size="13" lengthAdjust="spacing" textLength="192.9751" x="565.7949" y="165.6294">existsByNickname(nickname)</text></g><g class="message" data-participant-1="MemberQueryRepository" data-participant-2="MemberQueryService"><polygon fill="#181818" points="569.7949,195.8281,559.7949,199.8281,569.7949,203.8281,565.7949,199.8281" style="stroke:#181818;stroke-width:1;"/><line style="stroke:#181818;stroke-width:1;stroke-dasharray:2.0,2.0;" x1="563.7949" x2="774.77" y1="199.8281" y2="199.8281"/><text fill="#000000" font-family="sans-serif" font-size="13" lengthAdjust="spacing" textLength="70.2495" x="575.7949" y="194.7622">true / false</text></g><g class="message" data-participant-1="MemberQueryService" data-participant-2="MemberController"><polygon fill="#181818" points="352.8198,224.9609,342.8198,228.9609,352.8198,232.9609,348.8198,228.9609" style="stroke:#181818;stroke-width:1;"/><line style="stroke:#181818;stroke-width:1;stroke-dasharray:2.0,2.0;" x1="346.8198" x2="557.7949" y1="228.9609" y2="228.9609"/><text fill="#000000" font-family="sans-serif" font-size="13" lengthAdjust="spacing" textLength="70.2495" x="358.8198" y="223.895">true / false</text></g><g class="message" data-participant-1="MemberController" data-participant-2="User"><polygon fill="#181818" points="34.9551,254.0938,24.9551,258.0938,34.9551,262.0938,30.9551,258.0938" style="stroke:#181818;stroke-width:1;"/><line style="stroke:#181818;stroke-width:1;stroke-dasharray:2.0,2.0;" x1="28.9551" x2="340.8198" y1="258.0938" y2="258.0938"/><text fill="#000000" font-family="sans-serif" font-size="13" lengthAdjust="spacing" textLength="267.5156" x="40.9551" y="253.0278">HTTP 200 OK + JSON (exists: true / false)</text></g><!--SRC=[VP3H2e8m58RlznJdKWcPT2dKHH55aLRQ0omvmKYTR3EIwDtJp4gSNMu_ttT-VXPh8U6eK9ASISrZdhDCmnRJ4ygvoBGKIM8CzmNACaHvvJ4EnGVCXUBLXPAG-WOuqvuQF5Wk8g15bLEySQKLpNXyoLYAatlzwxzV3z9ZFxxVDfMnySpA5hLQeqs80UXglgt_cyo8CzH9omA1mfab2iqjpEjqkFu25VIQreDL5ErWxBeGR604wp3mmMhgToNs4m00]--></g></svg>