<svg xmlns="http://www.w3.org/2000/svg" xmlns:xlink="http://www.w3.org/1999/xlink" contentStyleType="text/css" data-diagram-type="SEQUENCE" height="527px" preserveAspectRatio="none" style="width:762px;height:527px;background:#FFFFFF;" version="1.1" viewBox="0 0 762 527" width="762px" zoomAndPan="magnify"><title>get getMyProfile</title><defs/><g><text fill="#000000" font-family="sans-serif" font-size="14" font-weight="bold" lengthAdjust="spacing" textLength="132.3164" x="316.1682" y="27.9951">get getMyProfile</text><rect fill="none" height="206.7344" style="stroke:#000000;stroke-width:1.5;" width="745.6528" x="10" y="222.9922"/><g><title>User</title><rect fill="#000000" fill-opacity="0.00000" height="328.1328" width="8" x="34.9551" y="118.5938"/><line style="stroke:#181818;stroke-width:0.5;stroke-dasharray:5.0,5.0;" x1="38" x2="38" y1="118.5938" y2="446.7266"/></g><g><title>MemberController</title><rect fill="#000000" fill-opacity="0.00000" height="328.1328" width="8" x="254.8945" y="118.5938"/><line style="stroke:#181818;stroke-width:0.5;stroke-dasharray:5.0,5.0;" x1="258.5151" x2="258.5151" y1="118.5938" y2="446.7266"/></g><g><title>MemberQueryService</title><rect fill="#000000" fill-opacity="0.00000" height="328.1328" width="8" x="459.5107" y="118.5938"/><line style="stroke:#181818;stroke-width:0.5;stroke-dasharray:5.0,5.0;" x1="462.5737" x2="462.5737" y1="118.5938" y2="446.7266"/></g><g><title>MemberQueryRepository</title><rect fill="#000000" fill-opacity="0.00000" height="328.1328" width="8" x="647.0503" y="118.5938"/><line style="stroke:#181818;stroke-width:0.5;stroke-dasharray:5.0,5.0;" x1="650.4478" x2="650.4478" y1="118.5938" y2="446.7266"/></g><g class="participant participant-head" data-participant="User"><text fill="#000000" font-family="sans-serif" font-size="14" lengthAdjust="spacing" textLength="31.9102" x="20" y="115.292">User</text><ellipse cx="38.9551" cy="50.7969" fill="#E2E2F0" rx="8" ry="8" style="stroke:#181818;stroke-width:0.5;"/><path d="M38.9551,58.7969 L38.9551,85.7969 M25.9551,66.7969 L51.9551,66.7969 M38.9551,85.7969 L25.9551,100.7969 M38.9551,85.7969 L51.9551,100.7969" fill="none" style="stroke:#181818;stroke-width:0.5;"/></g><g class="participant participant-tail" data-participant="User"><text fill="#000000" font-family="sans-serif" font-size="14" lengthAdjust="spacing" textLength="31.9102" x="20" y="458.7217">User</text><ellipse cx="38.9551" cy="470.5234" fill="#E2E2F0" rx="8" ry="8" style="stroke:#181818;stroke-width:0.5;"/><path d="M38.9551,478.5234 L38.9551,505.5234 M25.9551,486.5234 L51.9551,486.5234 M38.9551,505.5234 L25.9551,520.5234 M38.9551,505.5234 L51.9551,520.5234" fill="none" style="stroke:#181818;stroke-width:0.5;"/></g><g class="participant participant-head" data-participant="MemberController"><rect fill="#E2E2F0" height="30.2969" rx="2.5" ry="2.5" style="stroke:#181818;stroke-width:0.5;" width="140.7588" x="188.5151" y="87.2969"/><text fill="#000000" font-family="sans-serif" font-size="14" lengthAdjust="spacing" textLength="126.7588" x="195.5151" y="107.292">MemberController</text></g><g class="participant participant-tail" data-participant="MemberController"><rect fill="#E2E2F0" height="30.2969" rx="2.5" ry="2.5" style="stroke:#181818;stroke-width:0.5;" width="140.7588" x="188.5151" y="445.7266"/><text fill="#000000" font-family="sans-serif" font-size="14" lengthAdjust="spacing" textLength="126.7588" x="195.5151" y="465.7217">MemberController</text></g><g class="participant participant-head" data-participant="MemberQueryService"><rect fill="#E2E2F0" height="30.2969" rx="2.5" ry="2.5" style="stroke:#181818;stroke-width:0.5;" width="165.874" x="380.5737" y="87.2969"/><text fill="#000000" font-family="sans-serif" font-size="14" lengthAdjust="spacing" textLength="151.874" x="387.5737" y="107.292">MemberQueryService</text></g><g class="participant participant-tail" data-participant="MemberQueryService"><rect fill="#E2E2F0" height="30.2969" rx="2.5" ry="2.5" style="stroke:#181818;stroke-width:0.5;" width="165.874" x="380.5737" y="445.7266"/><text fill="#000000" font-family="sans-serif" font-size="14" lengthAdjust="spacing" textLength="151.874" x="387.5737" y="465.7217">MemberQueryService</text></g><g class="participant participant-head" data-participant="MemberQueryRepository"><rect fill="#E2E2F0" height="30.2969" rx="2.5" ry="2.5" style="stroke:#181818;stroke-width:0.5;" width="189.2051" x="556.4478" y="87.2969"/><text fill="#000000" font-family="sans-serif" font-size="14" lengthAdjust="spacing" textLength="175.2051" x="563.4478" y="107.292">MemberQueryRepository</text></g><g class="participant participant-tail" data-participant="MemberQueryRepository"><rect fill="#E2E2F0" height="30.2969" rx="2.5" ry="2.5" style="stroke:#181818;stroke-width:0.5;" width="189.2051" x="556.4478" y="445.7266"/><text fill="#000000" font-family="sans-serif" font-size="14" lengthAdjust="spacing" textLength="175.2051" x="563.4478" y="465.7217">MemberQueryRepository</text></g><g class="message" data-participant-1="User" data-participant-2="MemberController"><polygon fill="#181818" points="246.8945,145.7266,256.8945,149.7266,246.8945,153.7266,250.8945,149.7266" style="stroke:#181818;stroke-width:1;"/><line style="stroke:#181818;stroke-width:1;" x1="38.9551" x2="252.8945" y1="149.7266" y2="149.7266"/><text fill="#000000" font-family="sans-serif" font-size="13" lengthAdjust="spacing" textLength="94.9102" x="45.9551" y="144.6606">GET /users/me</text></g><g class="message" data-participant-1="MemberController" data-participant-2="MemberQueryService"><polygon fill="#181818" points="451.5107,174.8594,461.5107,178.8594,451.5107,182.8594,455.5107,178.8594" style="stroke:#181818;stroke-width:1;"/><line style="stroke:#181818;stroke-width:1;" x1="258.8945" x2="457.5107" y1="178.8594" y2="178.8594"/><text fill="#000000" font-family="sans-serif" font-size="13" lengthAdjust="spacing" textLength="168.1304" x="265.8945" y="173.7935">getProfileById(memberId)</text></g><g class="message" data-participant-1="MemberQueryService" data-participant-2="MemberQueryRepository"><polygon fill="#181818" points="639.0503,203.9922,649.0503,207.9922,639.0503,211.9922,643.0503,207.9922" style="stroke:#181818;stroke-width:1;"/><line style="stroke:#181818;stroke-width:1;" x1="463.5107" x2="645.0503" y1="207.9922" y2="207.9922"/><text fill="#000000" font-family="sans-serif" font-size="13" lengthAdjust="spacing" textLength="130.5269" x="470.5107" y="202.9263">findById(memberId)</text></g><path d="M10,222.9922 L74.4429,222.9922 L74.4429,230.125 L64.4429,240.125 L10,240.125 L10,222.9922" fill="#EEEEEE" style="stroke:#000000;stroke-width:1.5;"/><rect fill="none" height="206.7344" style="stroke:#000000;stroke-width:1.5;" width="745.6528" x="10" y="222.9922"/><text fill="#000000" font-family="sans-serif" font-size="13" font-weight="bold" lengthAdjust="spacing" textLength="19.4429" x="25" y="236.0591">alt</text><text fill="#000000" font-family="sans-serif" font-size="11" font-weight="bold" lengthAdjust="spacing" textLength="101.1914" x="89.4429" y="235.2026">[Member exists]</text><g class="message" data-participant-1="MemberQueryRepository" data-participant-2="MemberQueryService"><polygon fill="#181818" points="474.5107,257.2578,464.5107,261.2578,474.5107,265.2578,470.5107,261.2578" style="stroke:#181818;stroke-width:1;"/><line style="stroke:#181818;stroke-width:1;stroke-dasharray:2.0,2.0;" x1="468.5107" x2="650.0503" y1="261.2578" y2="261.2578"/><text fill="#000000" font-family="sans-serif" font-size="13" lengthAdjust="spacing" textLength="53.4727" x="480.5107" y="256.1919">Member</text></g><g class="message" data-participant-1="MemberQueryService" data-participant-2="MemberController"><polygon fill="#181818" points="269.8945,286.3906,259.8945,290.3906,269.8945,294.3906,265.8945,290.3906" style="stroke:#181818;stroke-width:1;"/><line style="stroke:#181818;stroke-width:1;stroke-dasharray:2.0,2.0;" x1="263.8945" x2="462.5107" y1="290.3906" y2="290.3906"/><text fill="#000000" font-family="sans-serif" font-size="13" lengthAdjust="spacing" textLength="157.4282" x="275.8945" y="285.3247">MemberProfileResponse</text></g><g class="message" data-participant-1="MemberController" data-participant-2="User"><polygon fill="#181818" points="49.9551,315.5234,39.9551,319.5234,49.9551,323.5234,45.9551,319.5234" style="stroke:#181818;stroke-width:1;"/><line style="stroke:#181818;stroke-width:1;stroke-dasharray:2.0,2.0;" x1="43.9551" x2="257.8945" y1="319.5234" y2="319.5234"/><text fill="#000000" font-family="sans-serif" font-size="13" lengthAdjust="spacing" textLength="156.2666" x="55.9551" y="314.4575">HTTP 200 OK + JSON &#51025;&#45813;</text></g><line style="stroke:#000000;stroke-width:1;stroke-dasharray:2.0,2.0;" x1="10" x2="755.6528" y1="328.5234" y2="328.5234"/><text fill="#000000" font-family="sans-serif" font-size="11" font-weight="bold" lengthAdjust="spacing" textLength="124.8672" x="15" y="338.7339">[Member not found]</text><g class="message" data-participant-1="MemberQueryRepository" data-participant-2="MemberQueryService"><polygon fill="#181818" points="474.5107,359.4609,464.5107,363.4609,474.5107,367.4609,470.5107,363.4609" style="stroke:#181818;stroke-width:1;"/><line style="stroke:#181818;stroke-width:1;stroke-dasharray:2.0,2.0;" x1="468.5107" x2="650.0503" y1="363.4609" y2="363.4609"/><text fill="#000000" font-family="sans-serif" font-size="13" lengthAdjust="spacing" textLength="23.7021" x="480.5107" y="358.395">null</text></g><g class="message" data-participant-1="MemberQueryService" data-participant-2="MemberController"><polygon fill="#181818" points="269.8945,388.5938,259.8945,392.5938,269.8945,396.5938,265.8945,392.5938" style="stroke:#181818;stroke-width:1;"/><line style="stroke:#181818;stroke-width:1;stroke-dasharray:2.0,2.0;" x1="263.8945" x2="462.5107" y1="392.5938" y2="392.5938"/><text fill="#000000" font-family="sans-serif" font-size="13" lengthAdjust="spacing" textLength="180.6162" x="275.8945" y="387.5278">MemberNotFoundException</text></g><g class="message" data-participant-1="MemberController" data-participant-2="User"><polygon fill="#181818" points="49.9551,417.7266,39.9551,421.7266,49.9551,425.7266,45.9551,421.7266" style="stroke:#181818;stroke-width:1;"/><line style="stroke:#181818;stroke-width:1;stroke-dasharray:2.0,2.0;" x1="43.9551" x2="257.8945" y1="421.7266" y2="421.7266"/><text fill="#000000" font-family="sans-serif" font-size="13" lengthAdjust="spacing" textLength="195.9395" x="55.9551" y="416.6606">HTTP 404 Not Found + &#50640;&#47084; &#47700;&#49884;&#51648;</text></g><!--SRC=[bP2zJiCm4CVtUueRGQXgX3frO00LAAWVjE41Gdn1bXmxiXtKREnTG49Y0J4Y95QUAda8dBJbgwvG1o- - -t_ypd8h2A_9rczGZBLAk220ABPAuwKX3LcaBOzv5acB0qglI1yfQRKImZkyo4aNKz8tFAPDumbbod2NK03K6TWwMBF6BfxqGcpdRcxQAS7QmfVePwIJEP8bns7HPpjfizDdkm2UzTyctyMSJy8b- -iGYHK8qemRQy2lRcqgj_ZqDl4VOV6r19gGoPGqlcCuTNFABfw6uHZtWm17vxY7PzFH4Ald-tB-0K32qAg_L1OJbKksBOBCXTWQOAZiSHtMcyMKMQxa_mYTe8DEXetEaLIFT-NBEvPl3zNygNgz1PBi4m00]--></g></svg>