<svg xmlns="http://www.w3.org/2000/svg" xmlns:xlink="http://www.w3.org/1999/xlink" contentStyleType="text/css" data-diagram-type="SEQUENCE" height="394px" preserveAspectRatio="none" style="width:684px;height:394px;background:#FFFFFF;" version="1.1" viewBox="0 0 684 394" width="684px" zoomAndPan="magnify"><title>get getMyProfile</title><defs/><g><text fill="#000000" font-family="sans-serif" font-size="14" font-weight="bold" lengthAdjust="spacing" textLength="132.3164" x="275.0889" y="27.9951">get getMyProfile</text><g><title>User</title><rect fill="#000000" fill-opacity="0.00000" height="194.7969" width="8" x="19.9551" y="118.5938"/><line style="stroke:#181818;stroke-width:0.5;stroke-dasharray:5.0,5.0;" x1="23" x2="23" y1="118.5938" y2="313.3906"/></g><g><title>MemberController</title><rect fill="#000000" fill-opacity="0.00000" height="194.7969" width="8" x="200.2217" y="118.5938"/><line style="stroke:#181818;stroke-width:0.5;stroke-dasharray:5.0,5.0;" x1="203.8423" x2="203.8423" y1="118.5938" y2="313.3906"/></g><g><title>MemberQueryService</title><rect fill="#000000" fill-opacity="0.00000" height="194.7969" width="8" x="392.3521" y="118.5938"/><line style="stroke:#181818;stroke-width:0.5;stroke-dasharray:5.0,5.0;" x1="395.415" x2="395.415" y1="118.5938" y2="313.3906"/></g><g><title>MemberQueryRepository</title><rect fill="#000000" fill-opacity="0.00000" height="194.7969" width="8" x="579.8916" y="118.5938"/><line style="stroke:#181818;stroke-width:0.5;stroke-dasharray:5.0,5.0;" x1="583.2891" x2="583.2891" y1="118.5938" y2="313.3906"/></g><g class="participant participant-head" data-participant="User"><text fill="#000000" font-family="sans-serif" font-size="14" lengthAdjust="spacing" textLength="31.9102" x="5" y="115.292">User</text><ellipse cx="23.9551" cy="50.7969" fill="#E2E2F0" rx="8" ry="8" style="stroke:#181818;stroke-width:0.5;"/><path d="M23.9551,58.7969 L23.9551,85.7969 M10.9551,66.7969 L36.9551,66.7969 M23.9551,85.7969 L10.9551,100.7969 M23.9551,85.7969 L36.9551,100.7969" fill="none" style="stroke:#181818;stroke-width:0.5;"/></g><g class="participant participant-tail" data-participant="User"><text fill="#000000" font-family="sans-serif" font-size="14" lengthAdjust="spacing" textLength="31.9102" x="5" y="325.3857">User</text><ellipse cx="23.9551" cy="337.1875" fill="#E2E2F0" rx="8" ry="8" style="stroke:#181818;stroke-width:0.5;"/><path d="M23.9551,345.1875 L23.9551,372.1875 M10.9551,353.1875 L36.9551,353.1875 M23.9551,372.1875 L10.9551,387.1875 M23.9551,372.1875 L36.9551,387.1875" fill="none" style="stroke:#181818;stroke-width:0.5;"/></g><g class="participant participant-head" data-participant="MemberController"><rect fill="#E2E2F0" height="30.2969" rx="2.5" ry="2.5" style="stroke:#181818;stroke-width:0.5;" width="140.7588" x="133.8423" y="87.2969"/><text fill="#000000" font-family="sans-serif" font-size="14" lengthAdjust="spacing" textLength="126.7588" x="140.8423" y="107.292">MemberController</text></g><g class="participant participant-tail" data-participant="MemberController"><rect fill="#E2E2F0" height="30.2969" rx="2.5" ry="2.5" style="stroke:#181818;stroke-width:0.5;" width="140.7588" x="133.8423" y="312.3906"/><text fill="#000000" font-family="sans-serif" font-size="14" lengthAdjust="spacing" textLength="126.7588" x="140.8423" y="332.3857">MemberController</text></g><g class="participant participant-head" data-participant="MemberQueryService"><rect fill="#E2E2F0" height="30.2969" rx="2.5" ry="2.5" style="stroke:#181818;stroke-width:0.5;" width="165.874" x="313.415" y="87.2969"/><text fill="#000000" font-family="sans-serif" font-size="14" lengthAdjust="spacing" textLength="151.874" x="320.415" y="107.292">MemberQueryService</text></g><g class="participant participant-tail" data-participant="MemberQueryService"><rect fill="#E2E2F0" height="30.2969" rx="2.5" ry="2.5" style="stroke:#181818;stroke-width:0.5;" width="165.874" x="313.415" y="312.3906"/><text fill="#000000" font-family="sans-serif" font-size="14" lengthAdjust="spacing" textLength="151.874" x="320.415" y="332.3857">MemberQueryService</text></g><g class="participant participant-head" data-participant="MemberQueryRepository"><rect fill="#E2E2F0" height="30.2969" rx="2.5" ry="2.5" style="stroke:#181818;stroke-width:0.5;" width="189.2051" x="489.2891" y="87.2969"/><text fill="#000000" font-family="sans-serif" font-size="14" lengthAdjust="spacing" textLength="175.2051" x="496.2891" y="107.292">MemberQueryRepository</text></g><g class="participant participant-tail" data-participant="MemberQueryRepository"><rect fill="#E2E2F0" height="30.2969" rx="2.5" ry="2.5" style="stroke:#181818;stroke-width:0.5;" width="189.2051" x="489.2891" y="312.3906"/><text fill="#000000" font-family="sans-serif" font-size="14" lengthAdjust="spacing" textLength="175.2051" x="496.2891" y="332.3857">MemberQueryRepository</text></g><g class="message" data-participant-1="User" data-participant-2="MemberController"><polygon fill="#181818" points="192.2217,145.7266,202.2217,149.7266,192.2217,153.7266,196.2217,149.7266" style="stroke:#181818;stroke-width:1;"/><line style="stroke:#181818;stroke-width:1;" x1="23.9551" x2="198.2217" y1="149.7266" y2="149.7266"/><text fill="#000000" font-family="sans-serif" font-size="13" lengthAdjust="spacing" textLength="94.9102" x="30.9551" y="144.6606">GET /users/me</text></g><g class="message" data-participant-1="MemberController" data-participant-2="MemberQueryService"><polygon fill="#181818" points="384.3521,174.8594,394.3521,178.8594,384.3521,182.8594,388.3521,178.8594" style="stroke:#181818;stroke-width:1;"/><line style="stroke:#181818;stroke-width:1;" x1="204.2217" x2="390.3521" y1="178.8594" y2="178.8594"/><text fill="#000000" font-family="sans-serif" font-size="13" lengthAdjust="spacing" textLength="168.1304" x="211.2217" y="173.7935">getProfileById(memberId)</text></g><g class="message" data-participant-1="MemberQueryService" data-participant-2="MemberQueryRepository"><polygon fill="#181818" points="571.8916,203.9922,581.8916,207.9922,571.8916,211.9922,575.8916,207.9922" style="stroke:#181818;stroke-width:1;"/><line style="stroke:#181818;stroke-width:1;" x1="396.3521" x2="577.8916" y1="207.9922" y2="207.9922"/><text fill="#000000" font-family="sans-serif" font-size="13" lengthAdjust="spacing" textLength="130.5269" x="403.3521" y="202.9263">findById(memberId)</text></g><g class="message" data-participant-1="MemberQueryRepository" data-participant-2="MemberQueryService"><polygon fill="#181818" points="407.3521,233.125,397.3521,237.125,407.3521,241.125,403.3521,237.125" style="stroke:#181818;stroke-width:1;"/><line style="stroke:#181818;stroke-width:1;stroke-dasharray:2.0,2.0;" x1="401.3521" x2="582.8916" y1="237.125" y2="237.125"/><text fill="#000000" font-family="sans-serif" font-size="13" lengthAdjust="spacing" textLength="53.4727" x="413.3521" y="232.0591">Member</text></g><g class="message" data-participant-1="MemberQueryService" data-participant-2="MemberController"><polygon fill="#181818" points="215.2217,262.2578,205.2217,266.2578,215.2217,270.2578,211.2217,266.2578" style="stroke:#181818;stroke-width:1;"/><line style="stroke:#181818;stroke-width:1;stroke-dasharray:2.0,2.0;" x1="209.2217" x2="395.3521" y1="266.2578" y2="266.2578"/><text fill="#000000" font-family="sans-serif" font-size="13" lengthAdjust="spacing" textLength="157.4282" x="221.2217" y="261.1919">MemberProfileResponse</text></g><g class="message" data-participant-1="MemberController" data-participant-2="User"><polygon fill="#181818" points="34.9551,291.3906,24.9551,295.3906,34.9551,299.3906,30.9551,295.3906" style="stroke:#181818;stroke-width:1;"/><line style="stroke:#181818;stroke-width:1;stroke-dasharray:2.0,2.0;" x1="28.9551" x2="203.2217" y1="295.3906" y2="295.3906"/><text fill="#000000" font-family="sans-serif" font-size="13" lengthAdjust="spacing" textLength="156.2666" x="40.9551" y="290.3247">HTTP 200 OK + JSON &#51025;&#45813;</text></g><!--SRC=[TL1B3e8m4DtFAMQfCKRYaeKBZL4q-CK380oc2L3I5XFEuCe3U0nFfOUmYF57MNGpxr_5L4nu85K-jrW97h6O0Fn0SO4xIG8oNoWMiCnF5RgKx4cCUAe4ZsCZkCv955iIHnPG4xoXZ4kc4mg0CWExWversZWPUzZBDIvx2K6Dy1PzHsgPNlBQCIoSi9KyEKxO1Z3GVqq-nRHFnDBmpy5CxJOrgOvW3ZPlhawl_XkI6K-bQRjMFt_EngddhR1lMRYSOmTds-K2xvVpxNHz0000]--></g></svg>