<svg xmlns="http://www.w3.org/2000/svg" xmlns:xlink="http://www.w3.org/1999/xlink" contentStyleType="text/css" data-diagram-type="SEQUENCE" height="789px" preserveAspectRatio="none" style="width:1657px;height:789px;background:#FFFFFF;" version="1.1" viewBox="0 0 1657 789" width="1657px" zoomAndPan="magnify"><title>Update Nickname</title><defs/><g><text fill="#000000" font-family="sans-serif" font-size="14" font-weight="bold" lengthAdjust="spacing" textLength="139.542" x="759.9648" y="27.9951">Update Nickname</text><g><title>Member</title><rect fill="#FFFFFF" height="286.3281" style="stroke:#181818;stroke-width:1;" width="10" x="899.3721" y="207.9922"/></g><rect fill="none" height="352.3984" style="stroke:#000000;stroke-width:1.5;" width="1640.4717" x="10" y="339.5234"/><g><title>User</title><rect fill="#000000" fill-opacity="0.00000" height="590.3281" width="8" x="34.9551" y="118.5938"/><line style="stroke:#181818;stroke-width:0.5;stroke-dasharray:5.0,5.0;" x1="38" x2="38" y1="118.5938" y2="708.9219"/></g><g><title>MemberController</title><rect fill="#000000" fill-opacity="0.00000" height="590.3281" width="8" x="248.8325" y="118.5938"/><line style="stroke:#181818;stroke-width:0.5;stroke-dasharray:5.0,5.0;" x1="252.4531" x2="252.4531" y1="118.5938" y2="708.9219"/></g><g><title>MemberCommandService</title><rect fill="#000000" fill-opacity="0.00000" height="590.3281" width="8" x="532.3247" y="118.5938"/><line style="stroke:#181818;stroke-width:0.5;stroke-dasharray:5.0,5.0;" x1="535.6836" x2="535.6836" y1="118.5938" y2="708.9219"/></g><g><title>MemberCommandRepository</title><rect fill="#000000" fill-opacity="0.00000" height="590.3281" width="8" x="749.2725" y="118.5938"/><line style="stroke:#181818;stroke-width:0.5;stroke-dasharray:5.0,5.0;" x1="752.9658" x2="752.9658" y1="118.5938" y2="708.9219"/></g><g><title>Member</title><rect fill="#000000" fill-opacity="0.00000" height="590.3281" width="8" x="900.3721" y="118.5938"/><line style="stroke:#181818;stroke-width:0.5;stroke-dasharray:5.0,5.0;" x1="903.5791" x2="903.5791" y1="118.5938" y2="708.9219"/></g><g><title>NicknameValidator</title><rect fill="#000000" fill-opacity="0.00000" height="590.3281" width="8" x="1148.3408" y="118.5938"/><line style="stroke:#181818;stroke-width:0.5;stroke-dasharray:5.0,5.0;" x1="1151.7998" x2="1151.7998" y1="118.5938" y2="708.9219"/></g><g><title>NicknameDuplicateRepository</title><rect fill="#000000" fill-opacity="0.00000" height="590.3281" width="8" x="1340.7021" y="118.5938"/><line style="stroke:#181818;stroke-width:0.5;stroke-dasharray:5.0,5.0;" x1="1343.8818" x2="1343.8818" y1="118.5938" y2="708.9219"/></g><g><title>DomainEventPublisher</title><rect fill="#000000" fill-opacity="0.00000" height="590.3281" width="8" x="1549.9971" y="118.5938"/><line style="stroke:#181818;stroke-width:0.5;stroke-dasharray:5.0,5.0;" x1="1553.5225" x2="1553.5225" y1="118.5938" y2="708.9219"/></g><g class="participant participant-head" data-participant="User"><text fill="#000000" font-family="sans-serif" font-size="14" lengthAdjust="spacing" textLength="31.9102" x="20" y="115.292">User</text><ellipse cx="38.9551" cy="50.7969" fill="#E2E2F0" rx="8" ry="8" style="stroke:#181818;stroke-width:0.5;"/><path d="M38.9551,58.7969 L38.9551,85.7969 M25.9551,66.7969 L51.9551,66.7969 M38.9551,85.7969 L25.9551,100.7969 M38.9551,85.7969 L51.9551,100.7969" fill="none" style="stroke:#181818;stroke-width:0.5;"/></g><g class="participant participant-tail" data-participant="User"><text fill="#000000" font-family="sans-serif" font-size="14" lengthAdjust="spacing" textLength="31.9102" x="20" y="720.917">User</text><ellipse cx="38.9551" cy="732.7188" fill="#E2E2F0" rx="8" ry="8" style="stroke:#181818;stroke-width:0.5;"/><path d="M38.9551,740.7188 L38.9551,767.7188 M25.9551,748.7188 L51.9551,748.7188 M38.9551,767.7188 L25.9551,782.7188 M38.9551,767.7188 L51.9551,782.7188" fill="none" style="stroke:#181818;stroke-width:0.5;"/></g><g class="participant participant-head" data-participant="MemberController"><rect fill="#E2E2F0" height="30.2969" rx="2.5" ry="2.5" style="stroke:#181818;stroke-width:0.5;" width="140.7588" x="182.4531" y="87.2969"/><text fill="#000000" font-family="sans-serif" font-size="14" lengthAdjust="spacing" textLength="126.7588" x="189.4531" y="107.292">MemberController</text></g><g class="participant participant-tail" data-participant="MemberController"><rect fill="#E2E2F0" height="30.2969" rx="2.5" ry="2.5" style="stroke:#181818;stroke-width:0.5;" width="140.7588" x="182.4531" y="707.9219"/><text fill="#000000" font-family="sans-serif" font-size="14" lengthAdjust="spacing" textLength="126.7588" x="189.4531" y="727.917">MemberController</text></g><g class="participant participant-head" data-participant="MemberCommandService"><rect fill="#E2E2F0" height="30.2969" rx="2.5" ry="2.5" style="stroke:#181818;stroke-width:0.5;" width="195.2822" x="438.6836" y="87.2969"/><text fill="#000000" font-family="sans-serif" font-size="14" lengthAdjust="spacing" textLength="181.2822" x="445.6836" y="107.292">MemberCommandService</text></g><g class="participant participant-tail" data-participant="MemberCommandService"><rect fill="#E2E2F0" height="30.2969" rx="2.5" ry="2.5" style="stroke:#181818;stroke-width:0.5;" width="195.2822" x="438.6836" y="707.9219"/><text fill="#000000" font-family="sans-serif" font-size="14" lengthAdjust="spacing" textLength="181.2822" x="445.6836" y="727.917">MemberCommandService</text></g><g class="participant participant-head" data-participant="MemberCommandRepository"><rect fill="#E2E2F0" height="30.2969" rx="2.5" ry="2.5" style="stroke:#181818;stroke-width:0.5;" width="218.6133" x="643.9658" y="87.2969"/><text fill="#000000" font-family="sans-serif" font-size="14" lengthAdjust="spacing" textLength="204.6133" x="650.9658" y="107.292">MemberCommandRepository</text></g><g class="participant participant-tail" data-participant="MemberCommandRepository"><rect fill="#E2E2F0" height="30.2969" rx="2.5" ry="2.5" style="stroke:#181818;stroke-width:0.5;" width="218.6133" x="643.9658" y="707.9219"/><text fill="#000000" font-family="sans-serif" font-size="14" lengthAdjust="spacing" textLength="204.6133" x="650.9658" y="727.917">MemberCommandRepository</text></g><g class="participant participant-head" data-participant="Member"><text fill="#000000" font-family="sans-serif" font-size="14" lengthAdjust="spacing" textLength="57.5859" x="872.5791" y="115.292">Member</text><ellipse cx="904.3721" cy="86.2969" fill="#E2E2F0" rx="12" ry="12" style="stroke:#181818;stroke-width:0.5;"/><line style="stroke:#181818;stroke-width:0.5;" x1="892.3721" x2="916.3721" y1="100.2969" y2="100.2969"/></g><g class="participant participant-tail" data-participant="Member"><text fill="#000000" font-family="sans-serif" font-size="14" lengthAdjust="spacing" textLength="57.5859" x="872.5791" y="720.917">Member</text><ellipse cx="904.3721" cy="740.2188" fill="#E2E2F0" rx="12" ry="12" style="stroke:#181818;stroke-width:0.5;"/><line style="stroke:#181818;stroke-width:0.5;" x1="892.3721" x2="916.3721" y1="754.2188" y2="754.2188"/></g><g class="participant participant-head" data-participant="NicknameValidator"><text fill="#000000" font-family="sans-serif" font-size="14" lengthAdjust="spacing" textLength="133.082" x="1082.7998" y="115.292">NicknameValidator</text><ellipse cx="1152.3408" cy="86.2969" fill="#E2E2F0" rx="12" ry="12" style="stroke:#181818;stroke-width:0.5;"/><line style="stroke:#181818;stroke-width:0.5;" x1="1140.3408" x2="1164.3408" y1="100.2969" y2="100.2969"/></g><g class="participant participant-tail" data-participant="NicknameValidator"><text fill="#000000" font-family="sans-serif" font-size="14" lengthAdjust="spacing" textLength="133.082" x="1082.7998" y="720.917">NicknameValidator</text><ellipse cx="1152.3408" cy="740.2188" fill="#E2E2F0" rx="12" ry="12" style="stroke:#181818;stroke-width:0.5;"/><line style="stroke:#181818;stroke-width:0.5;" x1="1140.3408" x2="1164.3408" y1="754.2188" y2="754.2188"/></g><g class="participant participant-head" data-participant="NicknameDuplicateRepository"><rect fill="#E2E2F0" height="30.2969" rx="2.5" ry="2.5" style="stroke:#181818;stroke-width:0.5;" width="225.6406" x="1231.8818" y="87.2969"/><text fill="#000000" font-family="sans-serif" font-size="14" lengthAdjust="spacing" textLength="211.6406" x="1238.8818" y="107.292">NicknameDuplicateRepository</text></g><g class="participant participant-tail" data-participant="NicknameDuplicateRepository"><rect fill="#E2E2F0" height="30.2969" rx="2.5" ry="2.5" style="stroke:#181818;stroke-width:0.5;" width="225.6406" x="1231.8818" y="707.9219"/><text fill="#000000" font-family="sans-serif" font-size="14" lengthAdjust="spacing" textLength="211.6406" x="1238.8818" y="727.917">NicknameDuplicateRepository</text></g><g class="participant participant-head" data-participant="DomainEventPublisher"><rect fill="#87CEEB" height="30.2969" rx="2.5" ry="2.5" style="stroke:#181818;stroke-width:0.5;" width="172.9492" x="1467.5225" y="87.2969"/><text fill="#000000" font-family="sans-serif" font-size="14" lengthAdjust="spacing" textLength="158.9492" x="1474.5225" y="107.292">DomainEventPublisher</text></g><g class="participant participant-tail" data-participant="DomainEventPublisher"><rect fill="#87CEEB" height="30.2969" rx="2.5" ry="2.5" style="stroke:#181818;stroke-width:0.5;" width="172.9492" x="1467.5225" y="707.9219"/><text fill="#000000" font-family="sans-serif" font-size="14" lengthAdjust="spacing" textLength="158.9492" x="1474.5225" y="727.917">DomainEventPublisher</text></g><g><title>Member</title><rect fill="#FFFFFF" height="286.3281" style="stroke:#181818;stroke-width:1;" width="10" x="899.3721" y="207.9922"/></g><g class="message" data-participant-1="User" data-participant-2="MemberController"><polygon fill="#181818" points="240.8325,145.7266,250.8325,149.7266,240.8325,153.7266,244.8325,149.7266" style="stroke:#181818;stroke-width:1;"/><line style="stroke:#181818;stroke-width:1;" x1="38.9551" x2="246.8325" y1="149.7266" y2="149.7266"/><text fill="#000000" font-family="sans-serif" font-size="13" lengthAdjust="spacing" textLength="189.8774" x="45.9551" y="144.6606">PATCH /users/me (nickname)</text></g><g class="message" data-participant-1="MemberController" data-participant-2="MemberCommandService"><polygon fill="#181818" points="524.3247,174.8594,534.3247,178.8594,524.3247,182.8594,528.3247,178.8594" style="stroke:#181818;stroke-width:1;"/><line style="stroke:#181818;stroke-width:1;" x1="252.8325" x2="530.3247" y1="178.8594" y2="178.8594"/><text fill="#000000" font-family="sans-serif" font-size="13" lengthAdjust="spacing" textLength="259.4922" x="259.8325" y="173.7935">updateNickname(memberId, nickname)</text></g><g class="message" data-participant-1="MemberCommandService" data-participant-2="MemberCommandRepository"><polygon fill="#181818" points="741.2725,203.9922,751.2725,207.9922,741.2725,211.9922,745.2725,207.9922" style="stroke:#181818;stroke-width:1;"/><line style="stroke:#181818;stroke-width:1;" x1="536.3247" x2="747.2725" y1="207.9922" y2="207.9922"/><text fill="#000000" font-family="sans-serif" font-size="13" lengthAdjust="spacing" textLength="130.5269" x="543.3247" y="202.9263">findById(memberId)</text></g><g class="message" data-participant-1="MemberCommandRepository" data-participant-2="MemberCommandService"><polygon fill="#181818" points="547.3247,233.125,537.3247,237.125,547.3247,241.125,543.3247,237.125" style="stroke:#181818;stroke-width:1;"/><line style="stroke:#181818;stroke-width:1;stroke-dasharray:2.0,2.0;" x1="541.3247" x2="752.2725" y1="237.125" y2="237.125"/><text fill="#000000" font-family="sans-serif" font-size="13" lengthAdjust="spacing" textLength="53.4727" x="553.3247" y="232.0591">Member</text></g><g class="message" data-participant-1="MemberCommandService" data-participant-2="Member"><polygon fill="#181818" points="887.3721,262.2578,897.3721,266.2578,887.3721,270.2578,891.3721,266.2578" style="stroke:#181818;stroke-width:1;"/><line style="stroke:#181818;stroke-width:1;" x1="536.3247" x2="893.3721" y1="266.2578" y2="266.2578"/><text fill="#000000" font-family="sans-serif" font-size="13" lengthAdjust="spacing" textLength="212.5767" x="543.3247" y="261.1919">updateNickname(newNickname)</text></g><g class="message" data-participant-1="Member" data-participant-2="NicknameValidator"><polygon fill="#181818" points="1140.3408,291.3906,1150.3408,295.3906,1140.3408,299.3906,1144.3408,295.3906" style="stroke:#181818;stroke-width:1;"/><line style="stroke:#181818;stroke-width:1;" x1="909.3721" x2="1146.3408" y1="295.3906" y2="295.3906"/><text fill="#000000" font-family="sans-serif" font-size="13" lengthAdjust="spacing" textLength="218.9688" x="916.3721" y="290.3247">validateNickname(newNickname)</text></g><g class="message" data-participant-1="NicknameValidator" data-participant-2="NicknameDuplicateRepository"><polygon fill="#181818" points="1332.7021,320.5234,1342.7021,324.5234,1332.7021,328.5234,1336.7021,324.5234" style="stroke:#181818;stroke-width:1;"/><line style="stroke:#181818;stroke-width:1;" x1="1152.3408" x2="1338.7021" y1="324.5234" y2="324.5234"/><text fill="#000000" font-family="sans-serif" font-size="13" lengthAdjust="spacing" textLength="159.9165" x="1159.3408" y="319.4575">isExisted(newNickname)</text></g><path d="M10,339.5234 L74.4429,339.5234 L74.4429,346.6563 L64.4429,356.6563 L10,356.6563 L10,339.5234" fill="#EEEEEE" style="stroke:#000000;stroke-width:1.5;"/><rect fill="none" height="352.3984" style="stroke:#000000;stroke-width:1.5;" width="1640.4717" x="10" y="339.5234"/><text fill="#000000" font-family="sans-serif" font-size="13" font-weight="bold" lengthAdjust="spacing" textLength="19.4429" x="25" y="352.5903">alt</text><text fill="#000000" font-family="sans-serif" font-size="11" font-weight="bold" lengthAdjust="spacing" textLength="100.7563" x="89.4429" y="351.7339">[&#45769;&#45348;&#51076;&#51060; &#50976;&#54952;&#54616;&#44256; &#51473;&#48373; &#50500;&#45784;]</text><g class="message" data-participant-1="NicknameDuplicateRepository" data-participant-2="NicknameValidator"><polygon fill="#181818" points="1163.3408,373.7891,1153.3408,377.7891,1163.3408,381.7891,1159.3408,377.7891" style="stroke:#181818;stroke-width:1;"/><line style="stroke:#181818;stroke-width:1;stroke-dasharray:2.0,2.0;" x1="1157.3408" x2="1343.7021" y1="377.7891" y2="377.7891"/><text fill="#000000" font-family="sans-serif" font-size="13" lengthAdjust="spacing" textLength="80.5391" x="1169.3408" y="372.7231">false (&#51473;&#48373; &#50500;&#45784;)</text></g><g class="message" data-participant-1="NicknameValidator" data-participant-2="Member"><polygon fill="#181818" points="920.3721,402.9219,910.3721,406.9219,920.3721,410.9219,916.3721,406.9219" style="stroke:#181818;stroke-width:1;"/><line style="stroke:#181818;stroke-width:1;stroke-dasharray:2.0,2.0;" x1="914.3721" x2="1151.3408" y1="406.9219" y2="406.9219"/><text fill="#000000" font-family="sans-serif" font-size="13" lengthAdjust="spacing" textLength="18.7573" x="926.3721" y="401.856">OK</text></g><g class="message" data-participant-1="Member" data-participant-2="MemberCommandService"><polygon fill="#181818" points="547.3247,432.0547,537.3247,436.0547,547.3247,440.0547,543.3247,436.0547" style="stroke:#181818;stroke-width:1;"/><line style="stroke:#181818;stroke-width:1;stroke-dasharray:2.0,2.0;" x1="541.3247" x2="898.3721" y1="436.0547" y2="436.0547"/><text fill="#000000" font-family="sans-serif" font-size="13" lengthAdjust="spacing" textLength="15.6025" x="553.3247" y="430.9888">&#50756;&#47308;</text></g><g class="message" data-participant-1="MemberCommandService" data-participant-2="DomainEventPublisher"><polygon fill="#181818" points="1541.9971,461.1875,1551.9971,465.1875,1541.9971,469.1875,1545.9971,465.1875" style="stroke:#181818;stroke-width:1;"/><line style="stroke:#181818;stroke-width:1;" x1="536.3247" x2="1547.9971" y1="465.1875" y2="465.1875"/><text fill="#000000" font-family="sans-serif" font-size="13" lengthAdjust="spacing" textLength="157.4536" x="543.3247" y="460.1216">NicknameUpdatedEvent</text></g><g class="message" data-participant-1="MemberCommandService" data-participant-2="MemberCommandRepository"><polygon fill="#181818" points="741.2725,490.3203,751.2725,494.3203,741.2725,498.3203,745.2725,494.3203" style="stroke:#181818;stroke-width:1;"/><line style="stroke:#181818;stroke-width:1;" x1="536.3247" x2="747.2725" y1="494.3203" y2="494.3203"/><text fill="#000000" font-family="sans-serif" font-size="13" lengthAdjust="spacing" textLength="94.0469" x="543.3247" y="489.2544">save(Member)</text></g><g class="message" data-participant-1="MemberCommandService" data-participant-2="MemberController"><polygon fill="#181818" points="263.8325,519.4531,253.8325,523.4531,263.8325,527.4531,259.8325,523.4531" style="stroke:#181818;stroke-width:1;"/><line style="stroke:#181818;stroke-width:1;stroke-dasharray:2.0,2.0;" x1="257.8325" x2="535.3247" y1="523.4531" y2="523.4531"/><text fill="#000000" font-family="sans-serif" font-size="13" lengthAdjust="spacing" textLength="18.7573" x="269.8325" y="518.3872">OK</text></g><g class="message" data-participant-1="MemberController" data-participant-2="User"><polygon fill="#181818" points="49.9551,548.5859,39.9551,552.5859,49.9551,556.5859,45.9551,552.5859" style="stroke:#181818;stroke-width:1;"/><line style="stroke:#181818;stroke-width:1;stroke-dasharray:2.0,2.0;" x1="43.9551" x2="251.8325" y1="552.5859" y2="552.5859"/><text fill="#000000" font-family="sans-serif" font-size="13" lengthAdjust="spacing" textLength="47.7026" x="55.9551" y="547.52">200 OK</text></g><line style="stroke:#000000;stroke-width:1;stroke-dasharray:2.0,2.0;" x1="10" x2="1650.4717" y1="561.5859" y2="561.5859"/><text fill="#000000" font-family="sans-serif" font-size="11" font-weight="bold" lengthAdjust="spacing" textLength="107.3574" x="15" y="571.7964">[&#45769;&#45348;&#51076;&#51060; &#50976;&#54952;&#54616;&#51648; &#50506;&#44144;&#45208; &#51473;&#48373;]</text><g class="message" data-participant-1="NicknameDuplicateRepository" data-participant-2="NicknameValidator"><polygon fill="#181818" points="1163.3408,592.5234,1153.3408,596.5234,1163.3408,600.5234,1159.3408,596.5234" style="stroke:#181818;stroke-width:1;"/><line style="stroke:#181818;stroke-width:1;stroke-dasharray:2.0,2.0;" x1="1157.3408" x2="1343.7021" y1="596.5234" y2="596.5234"/><text fill="#000000" font-family="sans-serif" font-size="13" lengthAdjust="spacing" textLength="103.8286" x="1169.3408" y="591.4575">true (&#46608;&#45716; &#50976;&#54952;&#49457; &#49892;&#54056;)</text></g><g class="message" data-participant-1="NicknameValidator" data-participant-2="MemberCommandService"><polygon fill="#181818" points="547.3247,621.6563,537.3247,625.6563,547.3247,629.6563,543.3247,625.6563" style="stroke:#181818;stroke-width:1;"/><line style="stroke:#181818;stroke-width:1;stroke-dasharray:2.0,2.0;" x1="541.3247" x2="1151.3408" y1="625.6563" y2="625.6563"/><text fill="#000000" font-family="sans-serif" font-size="13" lengthAdjust="spacing" textLength="213.6938" x="553.3247" y="620.5903">throw InvalidNicknameException</text></g><g class="message" data-participant-1="MemberCommandService" data-participant-2="MemberController"><polygon fill="#181818" points="263.8325,650.7891,253.8325,654.7891,263.8325,658.7891,259.8325,654.7891" style="stroke:#181818;stroke-width:1;"/><line style="stroke:#181818;stroke-width:1;stroke-dasharray:2.0,2.0;" x1="257.8325" x2="535.3247" y1="654.7891" y2="654.7891"/><text fill="#000000" font-family="sans-serif" font-size="13" lengthAdjust="spacing" textLength="172.2944" x="269.8325" y="649.7231">InvalidNicknameException</text></g><g class="message" data-participant-1="MemberController" data-participant-2="User"><polygon fill="#181818" points="49.9551,679.9219,39.9551,683.9219,49.9551,687.9219,45.9551,683.9219" style="stroke:#181818;stroke-width:1;"/><line style="stroke:#181818;stroke-width:1;stroke-dasharray:2.0,2.0;" x1="43.9551" x2="251.8325" y1="683.9219" y2="683.9219"/><text fill="#000000" font-family="sans-serif" font-size="13" lengthAdjust="spacing" textLength="111.6045" x="55.9551" y="678.856">400 Bad Request</text></g><!--SRC=[fLF1RjD04BtlLup49P68MY5EEI3HDX8HebI5Sjzuf-ggwxNnhjtcXf0lD3s0HAM0eAhKIFH8LVYfUlCFh1t7sBKTf9AJbNdpPjvxivfhWR3dCweHjhbpAAcBX517Um7iAGo8JmFD7UvJgU45kYCCDZsf0q-8bgBhKibUOH1n1zi1k-XxYjifOu9ISps6xBV0LFvQRlM62cxNzAfJbzMjq1VSiIfAn6NSbkTIBWUHPTu9HuAh0mpWWJeSZqHe1QTIeVUafX3wiFFqzUOpM0ijGgsv21sPZ-oI6hh4KBR1ieIPnSjjEsw66hA7K6UhTDvb_2lFakvpoJR6GrRGTTFaU9I6cJlPrjnhNpNl_CS-TKqIZxRlY4dXjVniPxJuRkcjTvHe6eAsX5mDZhdIoAfCX0eDoUH34i_CUMo-_mBpxMB-zMf-DhszkG0p-vJS_0Pp5YUJALareTSYP9yAPK-YGjGeeEpRo-U5FUqfc2znSddQ6aBZFVUB7HSlccNrUnoMeX5s5kKkORZog0h2vkTJY2q_4mlDNbmV7gslfn22gO_DIPaVxwop9xVNFvFtqpopUuMbWz1cbKm_9YUVSteJNuEPpEQdLwjJgyMZ3mBl28Ook-Hbv-3OGLzpJ_wdPwsqgvnyR9tSe0nsyMs8IbjB9ID_0000]--></g></svg>