<svg xmlns="http://www.w3.org/2000/svg" xmlns:xlink="http://www.w3.org/1999/xlink" contentStyleType="text/css" data-diagram-type="SEQUENCE" height="585px" preserveAspectRatio="none" style="width:1136px;height:585px;background:#FFFFFF;" version="1.1" viewBox="0 0 1136 585" width="1136px" zoomAndPan="magnify"><title>Update Nickname</title><defs/><g><text fill="#000000" font-family="sans-serif" font-size="14" font-weight="bold" lengthAdjust="spacing" textLength="139.542" x="499.2861" y="27.9951">Update Nickname</text><g><title>Member</title><rect fill="#FFFFFF" height="140.6641" style="stroke:#181818;stroke-width:1;" width="10" x="899.3721" y="207.9922"/></g><rect fill="none" height="206.7344" style="stroke:#000000;stroke-width:1.5;" width="1119.1143" x="10" y="281.2578"/><g><title>User</title><rect fill="#000000" fill-opacity="0.00000" height="386.3984" width="8" x="34.9551" y="118.5938"/><line style="stroke:#181818;stroke-width:0.5;stroke-dasharray:5.0,5.0;" x1="38" x2="38" y1="118.5938" y2="504.9922"/></g><g><title>MemberController</title><rect fill="#000000" fill-opacity="0.00000" height="386.3984" width="8" x="248.8325" y="118.5938"/><line style="stroke:#181818;stroke-width:0.5;stroke-dasharray:5.0,5.0;" x1="252.4531" x2="252.4531" y1="118.5938" y2="504.9922"/></g><g><title>MemberCommandService</title><rect fill="#000000" fill-opacity="0.00000" height="386.3984" width="8" x="532.3247" y="118.5938"/><line style="stroke:#181818;stroke-width:0.5;stroke-dasharray:5.0,5.0;" x1="535.6836" x2="535.6836" y1="118.5938" y2="504.9922"/></g><g><title>MemberCommandRepository</title><rect fill="#000000" fill-opacity="0.00000" height="386.3984" width="8" x="749.2725" y="118.5938"/><line style="stroke:#181818;stroke-width:0.5;stroke-dasharray:5.0,5.0;" x1="752.9658" x2="752.9658" y1="118.5938" y2="504.9922"/></g><g><title>Member</title><rect fill="#000000" fill-opacity="0.00000" height="386.3984" width="8" x="900.3721" y="118.5938"/><line style="stroke:#181818;stroke-width:0.5;stroke-dasharray:5.0,5.0;" x1="903.5791" x2="903.5791" y1="118.5938" y2="504.9922"/></g><g><title>DomainEventPublisher</title><rect fill="#000000" fill-opacity="0.00000" height="386.3984" width="8" x="1028.6396" y="118.5938"/><line style="stroke:#181818;stroke-width:0.5;stroke-dasharray:5.0,5.0;" x1="1032.165" x2="1032.165" y1="118.5938" y2="504.9922"/></g><g class="participant participant-head" data-participant="User"><text fill="#000000" font-family="sans-serif" font-size="14" lengthAdjust="spacing" textLength="31.9102" x="20" y="115.292">User</text><ellipse cx="38.9551" cy="50.7969" fill="#E2E2F0" rx="8" ry="8" style="stroke:#181818;stroke-width:0.5;"/><path d="M38.9551,58.7969 L38.9551,85.7969 M25.9551,66.7969 L51.9551,66.7969 M38.9551,85.7969 L25.9551,100.7969 M38.9551,85.7969 L51.9551,100.7969" fill="none" style="stroke:#181818;stroke-width:0.5;"/></g><g class="participant participant-tail" data-participant="User"><text fill="#000000" font-family="sans-serif" font-size="14" lengthAdjust="spacing" textLength="31.9102" x="20" y="516.9873">User</text><ellipse cx="38.9551" cy="528.7891" fill="#E2E2F0" rx="8" ry="8" style="stroke:#181818;stroke-width:0.5;"/><path d="M38.9551,536.7891 L38.9551,563.7891 M25.9551,544.7891 L51.9551,544.7891 M38.9551,563.7891 L25.9551,578.7891 M38.9551,563.7891 L51.9551,578.7891" fill="none" style="stroke:#181818;stroke-width:0.5;"/></g><g class="participant participant-head" data-participant="MemberController"><rect fill="#E2E2F0" height="30.2969" rx="2.5" ry="2.5" style="stroke:#181818;stroke-width:0.5;" width="140.7588" x="182.4531" y="87.2969"/><text fill="#000000" font-family="sans-serif" font-size="14" lengthAdjust="spacing" textLength="126.7588" x="189.4531" y="107.292">MemberController</text></g><g class="participant participant-tail" data-participant="MemberController"><rect fill="#E2E2F0" height="30.2969" rx="2.5" ry="2.5" style="stroke:#181818;stroke-width:0.5;" width="140.7588" x="182.4531" y="503.9922"/><text fill="#000000" font-family="sans-serif" font-size="14" lengthAdjust="spacing" textLength="126.7588" x="189.4531" y="523.9873">MemberController</text></g><g class="participant participant-head" data-participant="MemberCommandService"><rect fill="#E2E2F0" height="30.2969" rx="2.5" ry="2.5" style="stroke:#181818;stroke-width:0.5;" width="195.2822" x="438.6836" y="87.2969"/><text fill="#000000" font-family="sans-serif" font-size="14" lengthAdjust="spacing" textLength="181.2822" x="445.6836" y="107.292">MemberCommandService</text></g><g class="participant participant-tail" data-participant="MemberCommandService"><rect fill="#E2E2F0" height="30.2969" rx="2.5" ry="2.5" style="stroke:#181818;stroke-width:0.5;" width="195.2822" x="438.6836" y="503.9922"/><text fill="#000000" font-family="sans-serif" font-size="14" lengthAdjust="spacing" textLength="181.2822" x="445.6836" y="523.9873">MemberCommandService</text></g><g class="participant participant-head" data-participant="MemberCommandRepository"><rect fill="#E2E2F0" height="30.2969" rx="2.5" ry="2.5" style="stroke:#181818;stroke-width:0.5;" width="218.6133" x="643.9658" y="87.2969"/><text fill="#000000" font-family="sans-serif" font-size="14" lengthAdjust="spacing" textLength="204.6133" x="650.9658" y="107.292">MemberCommandRepository</text></g><g class="participant participant-tail" data-participant="MemberCommandRepository"><rect fill="#E2E2F0" height="30.2969" rx="2.5" ry="2.5" style="stroke:#181818;stroke-width:0.5;" width="218.6133" x="643.9658" y="503.9922"/><text fill="#000000" font-family="sans-serif" font-size="14" lengthAdjust="spacing" textLength="204.6133" x="650.9658" y="523.9873">MemberCommandRepository</text></g><g class="participant participant-head" data-participant="Member"><text fill="#000000" font-family="sans-serif" font-size="14" lengthAdjust="spacing" textLength="57.5859" x="872.5791" y="115.292">Member</text><ellipse cx="904.3721" cy="86.2969" fill="#E2E2F0" rx="12" ry="12" style="stroke:#181818;stroke-width:0.5;"/><line style="stroke:#181818;stroke-width:0.5;" x1="892.3721" x2="916.3721" y1="100.2969" y2="100.2969"/></g><g class="participant participant-tail" data-participant="Member"><text fill="#000000" font-family="sans-serif" font-size="14" lengthAdjust="spacing" textLength="57.5859" x="872.5791" y="516.9873">Member</text><ellipse cx="904.3721" cy="536.2891" fill="#E2E2F0" rx="12" ry="12" style="stroke:#181818;stroke-width:0.5;"/><line style="stroke:#181818;stroke-width:0.5;" x1="892.3721" x2="916.3721" y1="550.2891" y2="550.2891"/></g><g class="participant participant-head" data-participant="DomainEventPublisher"><rect fill="#87CEEB" height="30.2969" rx="2.5" ry="2.5" style="stroke:#181818;stroke-width:0.5;" width="172.9492" x="946.165" y="87.2969"/><text fill="#000000" font-family="sans-serif" font-size="14" lengthAdjust="spacing" textLength="158.9492" x="953.165" y="107.292">DomainEventPublisher</text></g><g class="participant participant-tail" data-participant="DomainEventPublisher"><rect fill="#87CEEB" height="30.2969" rx="2.5" ry="2.5" style="stroke:#181818;stroke-width:0.5;" width="172.9492" x="946.165" y="503.9922"/><text fill="#000000" font-family="sans-serif" font-size="14" lengthAdjust="spacing" textLength="158.9492" x="953.165" y="523.9873">DomainEventPublisher</text></g><g><title>Member</title><rect fill="#FFFFFF" height="140.6641" style="stroke:#181818;stroke-width:1;" width="10" x="899.3721" y="207.9922"/></g><g class="message" data-participant-1="User" data-participant-2="MemberController"><polygon fill="#181818" points="240.8325,145.7266,250.8325,149.7266,240.8325,153.7266,244.8325,149.7266" style="stroke:#181818;stroke-width:1;"/><line style="stroke:#181818;stroke-width:1;" x1="38.9551" x2="246.8325" y1="149.7266" y2="149.7266"/><text fill="#000000" font-family="sans-serif" font-size="13" lengthAdjust="spacing" textLength="189.8774" x="45.9551" y="144.6606">PATCH /users/me (nickname)</text></g><g class="message" data-participant-1="MemberController" data-participant-2="MemberCommandService"><polygon fill="#181818" points="524.3247,174.8594,534.3247,178.8594,524.3247,182.8594,528.3247,178.8594" style="stroke:#181818;stroke-width:1;"/><line style="stroke:#181818;stroke-width:1;" x1="252.8325" x2="530.3247" y1="178.8594" y2="178.8594"/><text fill="#000000" font-family="sans-serif" font-size="13" lengthAdjust="spacing" textLength="259.4922" x="259.8325" y="173.7935">updateNickname(memberId, nickname)</text></g><g class="message" data-participant-1="MemberCommandService" data-participant-2="MemberCommandRepository"><polygon fill="#181818" points="741.2725,203.9922,751.2725,207.9922,741.2725,211.9922,745.2725,207.9922" style="stroke:#181818;stroke-width:1;"/><line style="stroke:#181818;stroke-width:1;" x1="536.3247" x2="747.2725" y1="207.9922" y2="207.9922"/><text fill="#000000" font-family="sans-serif" font-size="13" lengthAdjust="spacing" textLength="130.5269" x="543.3247" y="202.9263">findById(memberId)</text></g><g class="message" data-participant-1="MemberCommandRepository" data-participant-2="MemberCommandService"><polygon fill="#181818" points="547.3247,233.125,537.3247,237.125,547.3247,241.125,543.3247,237.125" style="stroke:#181818;stroke-width:1;"/><line style="stroke:#181818;stroke-width:1;stroke-dasharray:2.0,2.0;" x1="541.3247" x2="752.2725" y1="237.125" y2="237.125"/><text fill="#000000" font-family="sans-serif" font-size="13" lengthAdjust="spacing" textLength="53.4727" x="553.3247" y="232.0591">Member</text></g><g class="message" data-participant-1="MemberCommandService" data-participant-2="Member"><polygon fill="#181818" points="887.3721,262.2578,897.3721,266.2578,887.3721,270.2578,891.3721,266.2578" style="stroke:#181818;stroke-width:1;"/><line style="stroke:#181818;stroke-width:1;" x1="536.3247" x2="893.3721" y1="266.2578" y2="266.2578"/><text fill="#000000" font-family="sans-serif" font-size="13" lengthAdjust="spacing" textLength="212.5767" x="543.3247" y="261.1919">updateNickname(newNickname)</text></g><path d="M10,281.2578 L74.4429,281.2578 L74.4429,288.3906 L64.4429,298.3906 L10,298.3906 L10,281.2578" fill="#EEEEEE" style="stroke:#000000;stroke-width:1.5;"/><rect fill="none" height="206.7344" style="stroke:#000000;stroke-width:1.5;" width="1119.1143" x="10" y="281.2578"/><text fill="#000000" font-family="sans-serif" font-size="13" font-weight="bold" lengthAdjust="spacing" textLength="19.4429" x="25" y="294.3247">alt</text><text fill="#000000" font-family="sans-serif" font-size="11" font-weight="bold" lengthAdjust="spacing" textLength="100.7563" x="89.4429" y="293.4683">[&#45769;&#45348;&#51076;&#51060; &#50976;&#54952;&#54616;&#44256; &#51473;&#48373; &#50500;&#45784;]</text><g class="message" data-participant-1="Member" data-participant-2="MemberCommandService"><polygon fill="#181818" points="547.3247,315.5234,537.3247,319.5234,547.3247,323.5234,543.3247,319.5234" style="stroke:#181818;stroke-width:1;"/><line style="stroke:#181818;stroke-width:1;stroke-dasharray:2.0,2.0;" x1="541.3247" x2="898.3721" y1="319.5234" y2="319.5234"/><text fill="#000000" font-family="sans-serif" font-size="13" lengthAdjust="spacing" textLength="15.6025" x="553.3247" y="314.4575">&#50756;&#47308;</text></g><g class="message" data-participant-1="MemberCommandService" data-participant-2="DomainEventPublisher"><polygon fill="#181818" points="1020.6396,344.6563,1030.6396,348.6563,1020.6396,352.6563,1024.6396,348.6563" style="stroke:#181818;stroke-width:1;"/><line style="stroke:#181818;stroke-width:1;" x1="536.3247" x2="1026.6396" y1="348.6563" y2="348.6563"/><text fill="#000000" font-family="sans-serif" font-size="13" lengthAdjust="spacing" textLength="157.4536" x="543.3247" y="343.5903">NicknameUpdatedEvent</text></g><g class="message" data-participant-1="MemberCommandService" data-participant-2="MemberCommandRepository"><polygon fill="#181818" points="741.2725,373.7891,751.2725,377.7891,741.2725,381.7891,745.2725,377.7891" style="stroke:#181818;stroke-width:1;"/><line style="stroke:#181818;stroke-width:1;" x1="536.3247" x2="747.2725" y1="377.7891" y2="377.7891"/><text fill="#000000" font-family="sans-serif" font-size="13" lengthAdjust="spacing" textLength="94.0469" x="543.3247" y="372.7231">save(Member)</text></g><g class="message" data-participant-1="MemberCommandService" data-participant-2="MemberController"><polygon fill="#181818" points="263.8325,402.9219,253.8325,406.9219,263.8325,410.9219,259.8325,406.9219" style="stroke:#181818;stroke-width:1;"/><line style="stroke:#181818;stroke-width:1;stroke-dasharray:2.0,2.0;" x1="257.8325" x2="535.3247" y1="406.9219" y2="406.9219"/><text fill="#000000" font-family="sans-serif" font-size="13" lengthAdjust="spacing" textLength="18.7573" x="269.8325" y="401.856">OK</text></g><g class="message" data-participant-1="MemberController" data-participant-2="User"><polygon fill="#181818" points="49.9551,432.0547,39.9551,436.0547,49.9551,440.0547,45.9551,436.0547" style="stroke:#181818;stroke-width:1;"/><line style="stroke:#181818;stroke-width:1;stroke-dasharray:2.0,2.0;" x1="43.9551" x2="251.8325" y1="436.0547" y2="436.0547"/><text fill="#000000" font-family="sans-serif" font-size="13" lengthAdjust="spacing" textLength="47.7026" x="55.9551" y="430.9888">200 OK</text></g><line style="stroke:#000000;stroke-width:1;stroke-dasharray:2.0,2.0;" x1="10" x2="1129.1143" y1="445.0547" y2="445.0547"/><text fill="#000000" font-family="sans-serif" font-size="11" font-weight="bold" lengthAdjust="spacing" textLength="107.3574" x="15" y="455.2651">[&#45769;&#45348;&#51076;&#51060; &#50976;&#54952;&#54616;&#51648; &#50506;&#44144;&#45208; &#51473;&#48373;]</text><g class="message" data-participant-1="Member" data-participant-2="User"><polygon fill="#181818" points="49.9551,475.9922,39.9551,479.9922,49.9551,483.9922,45.9551,479.9922" style="stroke:#181818;stroke-width:1;"/><line style="stroke:#181818;stroke-width:1;stroke-dasharray:2.0,2.0;" x1="43.9551" x2="903.3721" y1="479.9922" y2="479.9922"/><text fill="#000000" font-family="sans-serif" font-size="13" lengthAdjust="spacing" textLength="111.6045" x="55.9551" y="474.9263">400 Bad Request</text></g><!--SRC=[ZLB1Ji905BplLxp42oGIYF74mKJGH694Wl812_kC6zejThSrt8pfHV7YWGID6X99zAX1VugMVt1RAe9GTAzltkpCl55S6GYr5gCAeSmRJK5D98Gsb6L3JQ9DMjHMlC5RL2WuGBEETj4IohOC8s5ecbIm8xHTti1aG1LRbkJwbpP1eRXgG_GccBcr7SkaNEow6bPnwWQNfsZ3ccoswuQZfOOY8REre0toKDa-Bkv1rj48cJKHKY8sc2OBw1c6MGEQnOd2-SucPKQe4bk7HRQvpT-CFuurwGaNhD0kiIbTEioSk-4PuWoIbZF9KkFDF_GiUX9uNfwQ8THGu7UkV6yGF7d1umS43_tn_UkusniD-n0CRltX9mHTp-_qufzMQGhkFF_v9b7IqklcfrMSD9D5Sy9mPKR_2bvI5rEJSTBTbfVfS7z9QJGqwbyUDdAv44BGa9YGNl1oeMEx7hs_-PUzECVP06EcJSrKe0ogUEQWL9fICF85]--></g></svg>