<svg xmlns="http://www.w3.org/2000/svg" xmlns:xlink="http://www.w3.org/1999/xlink" contentStyleType="text/css" data-diagram-type="SEQUENCE" height="715px" preserveAspectRatio="none" style="width:1231px;height:715px;background:#FFFFFF;" version="1.1" viewBox="0 0 1231 715" width="1231px" zoomAndPan="magnify"><title>Withdraw Member with Auth API</title><defs/><g><text fill="#000000" font-family="sans-serif" font-size="14" font-weight="bold" lengthAdjust="spacing" textLength="258.2959" x="487.7659" y="27.9951">Withdraw Member with Auth API</text><rect fill="none" height="336.2656" style="stroke:#000000;stroke-width:1.5;" width="1214.8276" x="10" y="281.2578"/><g><title>User</title><rect fill="#000000" fill-opacity="0.00000" height="515.9297" width="8" x="34.9551" y="118.5938"/><line style="stroke:#181818;stroke-width:0.5;stroke-dasharray:5.0,5.0;" x1="38" x2="38" y1="118.5938" y2="634.5234"/></g><g><title>MemberController</title><rect fill="#000000" fill-opacity="0.00000" height="515.9297" width="8" x="258.957" y="118.5938"/><line style="stroke:#181818;stroke-width:0.5;stroke-dasharray:5.0,5.0;" x1="262.5776" x2="262.5776" y1="118.5938" y2="634.5234"/></g><g><title>MemberCommandService</title><rect fill="#000000" fill-opacity="0.00000" height="515.9297" width="8" x="502.0527" y="118.5938"/><line style="stroke:#181818;stroke-width:0.5;stroke-dasharray:5.0,5.0;" x1="505.4116" x2="505.4116" y1="118.5938" y2="634.5234"/></g><g><title>MemberCommandRepository</title><rect fill="#000000" fill-opacity="0.00000" height="515.9297" width="8" x="719.0005" y="118.5938"/><line style="stroke:#181818;stroke-width:0.5;stroke-dasharray:5.0,5.0;" x1="722.6938" x2="722.6938" y1="118.5938" y2="634.5234"/></g><g><title>Member</title><rect fill="#000000" fill-opacity="0.00000" height="515.9297" width="8" x="870.1001" y="118.5938"/><line style="stroke:#181818;stroke-width:0.5;stroke-dasharray:5.0,5.0;" x1="873.3071" x2="873.3071" y1="118.5938" y2="634.5234"/></g><g><title>DomainEventPublisher</title><rect fill="#000000" fill-opacity="0.00000" height="515.9297" width="8" x="998.3677" y="118.5938"/><line style="stroke:#181818;stroke-width:0.5;stroke-dasharray:5.0,5.0;" x1="1001.8931" x2="1001.8931" y1="118.5938" y2="634.5234"/></g><g><title>AuthController</title><rect fill="#000000" fill-opacity="0.00000" height="515.9297" width="8" x="1152.835" y="118.5938"/><line style="stroke:#181818;stroke-width:0.5;stroke-dasharray:5.0,5.0;" x1="1155.8423" x2="1155.8423" y1="118.5938" y2="634.5234"/></g><g class="participant participant-head" data-participant="User"><text fill="#000000" font-family="sans-serif" font-size="14" lengthAdjust="spacing" textLength="31.9102" x="20" y="115.292">User</text><ellipse cx="38.9551" cy="50.7969" fill="#E2E2F0" rx="8" ry="8" style="stroke:#181818;stroke-width:0.5;"/><path d="M38.9551,58.7969 L38.9551,85.7969 M25.9551,66.7969 L51.9551,66.7969 M38.9551,85.7969 L25.9551,100.7969 M38.9551,85.7969 L51.9551,100.7969" fill="none" style="stroke:#181818;stroke-width:0.5;"/></g><g class="participant participant-tail" data-participant="User"><text fill="#000000" font-family="sans-serif" font-size="14" lengthAdjust="spacing" textLength="31.9102" x="20" y="646.5186">User</text><ellipse cx="38.9551" cy="658.3203" fill="#E2E2F0" rx="8" ry="8" style="stroke:#181818;stroke-width:0.5;"/><path d="M38.9551,666.3203 L38.9551,693.3203 M25.9551,674.3203 L51.9551,674.3203 M38.9551,693.3203 L25.9551,708.3203 M38.9551,693.3203 L51.9551,708.3203" fill="none" style="stroke:#181818;stroke-width:0.5;"/></g><g class="participant participant-head" data-participant="MemberController"><rect fill="#E2E2F0" height="30.2969" rx="2.5" ry="2.5" style="stroke:#181818;stroke-width:0.5;" width="140.7588" x="192.5776" y="87.2969"/><text fill="#000000" font-family="sans-serif" font-size="14" lengthAdjust="spacing" textLength="126.7588" x="199.5776" y="107.292">MemberController</text></g><g class="participant participant-tail" data-participant="MemberController"><rect fill="#E2E2F0" height="30.2969" rx="2.5" ry="2.5" style="stroke:#181818;stroke-width:0.5;" width="140.7588" x="192.5776" y="633.5234"/><text fill="#000000" font-family="sans-serif" font-size="14" lengthAdjust="spacing" textLength="126.7588" x="199.5776" y="653.5186">MemberController</text></g><g class="participant participant-head" data-participant="MemberCommandService"><rect fill="#E2E2F0" height="30.2969" rx="2.5" ry="2.5" style="stroke:#181818;stroke-width:0.5;" width="195.2822" x="408.4116" y="87.2969"/><text fill="#000000" font-family="sans-serif" font-size="14" lengthAdjust="spacing" textLength="181.2822" x="415.4116" y="107.292">MemberCommandService</text></g><g class="participant participant-tail" data-participant="MemberCommandService"><rect fill="#E2E2F0" height="30.2969" rx="2.5" ry="2.5" style="stroke:#181818;stroke-width:0.5;" width="195.2822" x="408.4116" y="633.5234"/><text fill="#000000" font-family="sans-serif" font-size="14" lengthAdjust="spacing" textLength="181.2822" x="415.4116" y="653.5186">MemberCommandService</text></g><g class="participant participant-head" data-participant="MemberCommandRepository"><rect fill="#E2E2F0" height="30.2969" rx="2.5" ry="2.5" style="stroke:#181818;stroke-width:0.5;" width="218.6133" x="613.6938" y="87.2969"/><text fill="#000000" font-family="sans-serif" font-size="14" lengthAdjust="spacing" textLength="204.6133" x="620.6938" y="107.292">MemberCommandRepository</text></g><g class="participant participant-tail" data-participant="MemberCommandRepository"><rect fill="#E2E2F0" height="30.2969" rx="2.5" ry="2.5" style="stroke:#181818;stroke-width:0.5;" width="218.6133" x="613.6938" y="633.5234"/><text fill="#000000" font-family="sans-serif" font-size="14" lengthAdjust="spacing" textLength="204.6133" x="620.6938" y="653.5186">MemberCommandRepository</text></g><g class="participant participant-head" data-participant="Member"><text fill="#000000" font-family="sans-serif" font-size="14" lengthAdjust="spacing" textLength="57.5859" x="842.3071" y="115.292">Member</text><ellipse cx="874.1001" cy="86.2969" fill="#E2E2F0" rx="12" ry="12" style="stroke:#181818;stroke-width:0.5;"/><line style="stroke:#181818;stroke-width:0.5;" x1="862.1001" x2="886.1001" y1="100.2969" y2="100.2969"/></g><g class="participant participant-tail" data-participant="Member"><text fill="#000000" font-family="sans-serif" font-size="14" lengthAdjust="spacing" textLength="57.5859" x="842.3071" y="646.5186">Member</text><ellipse cx="874.1001" cy="665.8203" fill="#E2E2F0" rx="12" ry="12" style="stroke:#181818;stroke-width:0.5;"/><line style="stroke:#181818;stroke-width:0.5;" x1="862.1001" x2="886.1001" y1="679.8203" y2="679.8203"/></g><g class="participant participant-head" data-participant="DomainEventPublisher"><rect fill="#87CEEB" height="30.2969" rx="2.5" ry="2.5" style="stroke:#181818;stroke-width:0.5;" width="172.9492" x="915.8931" y="87.2969"/><text fill="#000000" font-family="sans-serif" font-size="14" lengthAdjust="spacing" textLength="158.9492" x="922.8931" y="107.292">DomainEventPublisher</text></g><g class="participant participant-tail" data-participant="DomainEventPublisher"><rect fill="#87CEEB" height="30.2969" rx="2.5" ry="2.5" style="stroke:#181818;stroke-width:0.5;" width="172.9492" x="915.8931" y="633.5234"/><text fill="#000000" font-family="sans-serif" font-size="14" lengthAdjust="spacing" textLength="158.9492" x="922.8931" y="653.5186">DomainEventPublisher</text></g><g class="participant participant-head" data-participant="AuthController"><rect fill="#E2E2F0" height="30.2969" rx="2.5" ry="2.5" style="stroke:#181818;stroke-width:0.5;" width="115.9854" x="1098.8423" y="87.2969"/><text fill="#000000" font-family="sans-serif" font-size="14" lengthAdjust="spacing" textLength="101.9854" x="1105.8423" y="107.292">AuthController</text></g><g class="participant participant-tail" data-participant="AuthController"><rect fill="#E2E2F0" height="30.2969" rx="2.5" ry="2.5" style="stroke:#181818;stroke-width:0.5;" width="115.9854" x="1098.8423" y="633.5234"/><text fill="#000000" font-family="sans-serif" font-size="14" lengthAdjust="spacing" textLength="101.9854" x="1105.8423" y="653.5186">AuthController</text></g><g class="message" data-participant-1="User" data-participant-2="MemberController"><polygon fill="#181818" points="250.957,145.7266,260.957,149.7266,250.957,153.7266,254.957,149.7266" style="stroke:#181818;stroke-width:1;"/><line style="stroke:#181818;stroke-width:1;" x1="38.9551" x2="256.957" y1="149.7266" y2="149.7266"/><text fill="#000000" font-family="sans-serif" font-size="13" lengthAdjust="spacing" textLength="118.5171" x="45.9551" y="144.6606">DELETE /users/me</text></g><g class="message" data-participant-1="MemberController" data-participant-2="MemberCommandService"><polygon fill="#181818" points="494.0527,174.8594,504.0527,178.8594,494.0527,182.8594,498.0527,178.8594" style="stroke:#181818;stroke-width:1;"/><line style="stroke:#181818;stroke-width:1;" x1="262.957" x2="500.0527" y1="178.8594" y2="178.8594"/><text fill="#000000" font-family="sans-serif" font-size="13" lengthAdjust="spacing" textLength="219.0957" x="269.957" y="173.7935">withdrawMemberById(memberId)</text></g><g class="message" data-participant-1="MemberCommandService" data-participant-2="MemberCommandRepository"><polygon fill="#181818" points="711.0005,203.9922,721.0005,207.9922,711.0005,211.9922,715.0005,207.9922" style="stroke:#181818;stroke-width:1;"/><line style="stroke:#181818;stroke-width:1;" x1="506.0527" x2="717.0005" y1="207.9922" y2="207.9922"/><text fill="#000000" font-family="sans-serif" font-size="13" lengthAdjust="spacing" textLength="130.5269" x="513.0527" y="202.9263">findById(memberId)</text></g><g class="message" data-participant-1="MemberCommandRepository" data-participant-2="MemberCommandService"><polygon fill="#181818" points="517.0527,233.125,507.0527,237.125,517.0527,241.125,513.0527,237.125" style="stroke:#181818;stroke-width:1;"/><line style="stroke:#181818;stroke-width:1;stroke-dasharray:2.0,2.0;" x1="511.0527" x2="722.0005" y1="237.125" y2="237.125"/><text fill="#000000" font-family="sans-serif" font-size="13" lengthAdjust="spacing" textLength="53.4727" x="523.0527" y="232.0591">Member</text></g><g class="message" data-participant-1="MemberCommandService" data-participant-2="AuthController"><polygon fill="#181818" points="1144.835,262.2578,1154.835,266.2578,1144.835,270.2578,1148.835,266.2578" style="stroke:#181818;stroke-width:1;"/><line style="stroke:#181818;stroke-width:1;" x1="506.0527" x2="1150.835" y1="266.2578" y2="266.2578"/><text fill="#000000" font-family="sans-serif" font-size="13" lengthAdjust="spacing" textLength="296.3784" x="513.0527" y="261.1919">DELETE /internal/auth/members/{memberId}</text></g><path d="M10,281.2578 L74.4429,281.2578 L74.4429,288.3906 L64.4429,298.3906 L10,298.3906 L10,281.2578" fill="#EEEEEE" style="stroke:#000000;stroke-width:1.5;"/><rect fill="none" height="336.2656" style="stroke:#000000;stroke-width:1.5;" width="1214.8276" x="10" y="281.2578"/><text fill="#000000" font-family="sans-serif" font-size="13" font-weight="bold" lengthAdjust="spacing" textLength="19.4429" x="25" y="294.3247">alt</text><text fill="#000000" font-family="sans-serif" font-size="11" font-weight="bold" lengthAdjust="spacing" textLength="74.3521" x="89.4429" y="293.4683">[&#51064;&#51613; &#49464;&#49496; &#49325;&#51228; &#49457;&#44277;]</text><g class="message" data-participant-1="AuthController" data-participant-2="MemberCommandService"><polygon fill="#181818" points="517.0527,315.5234,507.0527,319.5234,517.0527,323.5234,513.0527,319.5234" style="stroke:#181818;stroke-width:1;"/><line style="stroke:#181818;stroke-width:1;stroke-dasharray:2.0,2.0;" x1="511.0527" x2="1155.835" y1="319.5234" y2="319.5234"/><text fill="#000000" font-family="sans-serif" font-size="13" lengthAdjust="spacing" textLength="85.3315" x="523.0527" y="314.4575">HTTP 200 OK</text></g><g class="message" data-participant-1="MemberCommandService" data-participant-2="Member"><polygon fill="#181818" points="862.1001,344.6563,872.1001,348.6563,862.1001,352.6563,866.1001,348.6563" style="stroke:#181818;stroke-width:1;"/><line style="stroke:#181818;stroke-width:1;" x1="506.0527" x2="868.1001" y1="348.6563" y2="348.6563"/><text fill="#000000" font-family="sans-serif" font-size="13" lengthAdjust="spacing" textLength="69.9194" x="513.0527" y="343.5903">withdraw()</text></g><g class="message" data-participant-1="MemberCommandService" data-participant-2="MemberCommandRepository"><polygon fill="#181818" points="711.0005,373.7891,721.0005,377.7891,711.0005,381.7891,715.0005,377.7891" style="stroke:#181818;stroke-width:1;"/><line style="stroke:#181818;stroke-width:1;" x1="506.0527" x2="717.0005" y1="377.7891" y2="377.7891"/><text fill="#000000" font-family="sans-serif" font-size="13" lengthAdjust="spacing" textLength="95.4941" x="513.0527" y="372.7231">save(member)</text></g><g class="message" data-participant-1="MemberCommandService" data-participant-2="DomainEventPublisher"><polygon fill="#181818" points="990.3677,402.9219,1000.3677,406.9219,990.3677,410.9219,994.3677,406.9219" style="stroke:#181818;stroke-width:1;"/><line style="stroke:#181818;stroke-width:1;" x1="506.0527" x2="996.3677" y1="406.9219" y2="406.9219"/><text fill="#000000" font-family="sans-serif" font-size="13" lengthAdjust="spacing" textLength="211.2817" x="513.0527" y="401.856">publish(memberWithdrawEvent)</text></g><g class="message" data-participant-1="MemberCommandService" data-participant-2="MemberController"><polygon fill="#181818" points="273.957,432.0547,263.957,436.0547,273.957,440.0547,269.957,436.0547" style="stroke:#181818;stroke-width:1;"/><line style="stroke:#181818;stroke-width:1;stroke-dasharray:2.0,2.0;" x1="267.957" x2="505.0527" y1="436.0547" y2="436.0547"/><text fill="#000000" font-family="sans-serif" font-size="13" lengthAdjust="spacing" textLength="35.3374" x="279.957" y="430.9888">&#53448;&#53748; &#49457;&#44277;</text></g><g class="message" data-participant-1="MemberController" data-participant-2="User"><polygon fill="#181818" points="49.9551,461.1875,39.9551,465.1875,49.9551,469.1875,45.9551,465.1875" style="stroke:#181818;stroke-width:1;"/><line style="stroke:#181818;stroke-width:1;stroke-dasharray:2.0,2.0;" x1="43.9551" x2="261.957" y1="465.1875" y2="465.1875"/><text fill="#000000" font-family="sans-serif" font-size="13" lengthAdjust="spacing" textLength="140.0864" x="55.9551" y="460.1216">HTTP 204 No Content</text></g><g class="message" data-participant-1="User" data-participant-2="User"><line style="stroke:#181818;stroke-width:1;" x1="38.9551" x2="80.9551" y1="494.3203" y2="494.3203"/><line style="stroke:#181818;stroke-width:1;" x1="80.9551" x2="80.9551" y1="494.3203" y2="507.3203"/><line style="stroke:#181818;stroke-width:1;" x1="39.9551" x2="80.9551" y1="507.3203" y2="507.3203"/><polygon fill="#181818" points="49.9551,503.3203,39.9551,507.3203,49.9551,511.3203,45.9551,507.3203" style="stroke:#181818;stroke-width:1;"/><text fill="#000000" font-family="sans-serif" font-size="13" lengthAdjust="spacing" textLength="130.019" x="45.9551" y="489.2544">redirect(main page)</text></g><line style="stroke:#000000;stroke-width:1;stroke-dasharray:2.0,2.0;" x1="10" x2="1224.8276" y1="516.3203" y2="516.3203"/><text fill="#000000" font-family="sans-serif" font-size="11" font-weight="bold" lengthAdjust="spacing" textLength="74.3521" x="15" y="526.5308">[&#51064;&#51613; &#49464;&#49496; &#49325;&#51228; &#49892;&#54056;]</text><g class="message" data-participant-1="AuthController" data-participant-2="MemberCommandService"><polygon fill="#181818" points="517.0527,547.2578,507.0527,551.2578,517.0527,555.2578,513.0527,551.2578" style="stroke:#181818;stroke-width:1;"/><line style="stroke:#181818;stroke-width:1;stroke-dasharray:2.0,2.0;" x1="511.0527" x2="1155.835" y1="551.2578" y2="551.2578"/><text fill="#000000" font-family="sans-serif" font-size="13" lengthAdjust="spacing" textLength="98.7759" x="523.0527" y="546.1919">HTTP 500 Error</text></g><g class="message" data-participant-1="MemberCommandService" data-participant-2="MemberController"><polygon fill="#181818" points="273.957,576.3906,263.957,580.3906,273.957,584.3906,269.957,580.3906" style="stroke:#181818;stroke-width:1;"/><line style="stroke:#181818;stroke-width:1;stroke-dasharray:2.0,2.0;" x1="267.957" x2="505.0527" y1="580.3906" y2="580.3906"/><text fill="#000000" font-family="sans-serif" font-size="13" lengthAdjust="spacing" textLength="35.3374" x="279.957" y="575.3247">&#53448;&#53748; &#51473;&#45800;</text></g><g class="message" data-participant-1="MemberController" data-participant-2="User"><polygon fill="#181818" points="49.9551,605.5234,39.9551,609.5234,49.9551,613.5234,45.9551,609.5234" style="stroke:#181818;stroke-width:1;"/><line style="stroke:#181818;stroke-width:1;stroke-dasharray:2.0,2.0;" x1="43.9551" x2="261.957" y1="609.5234" y2="609.5234"/><text fill="#000000" font-family="sans-serif" font-size="13" lengthAdjust="spacing" textLength="200.002" x="55.9551" y="604.4575">HTTP 500 Internal Server Error</text></g><!--SRC=[dLGzImD14EttLmnO60kv8DfO26eE37u5ZLXlSgjPl2_sDWb1RFn0GGk5Y1eIi8YImXHgX1J-8hFt7znBBl5ovXHjZbtclPatCs-FKwuJsAOyfp5SX5LYP0Y3ehp3VDxxf988uIot66mvX24RCqwprCOczy6BbicPfUiHGSF0fhP9M85cIJHWWzYMGsML4Y8cfxpaXuSO2Sl0r5GB4f7APtJgvAJKCMUlbD7pmxazwG5To9CEatFV5CCi9DGLDQs2afSGHp48-eO9y8BDI6xH7rill51AQZ6ZUqng4mYD98MJVJKky-rGKmjbYG9FHglo9uV6GTJQuh46uhWjJcwXyzHoAmtthjnvU0THFNQlMw51YPjB49MoU6b6YXyc1EP7JKwOYNK5IuJIQy1HzlkT74WNwJoaI1msnNrLtfu_NjzGAFKF7IwbqocOYiTXVVcNAGUM59lunqOSN23-DgBf8tqv2tRlxDFxJwmBYyersgBkqPbxskgFQOH19QthyC5afc7D0WyXQmtCxqCOqIWZMHxpH8EDTudqAj4T4h6SyxfxqVZhScRaSbJ6BFQlHkjNdVF6xtrwHPA-xS1BBKEzel8dedq2]--></g></svg>