<svg xmlns="http://www.w3.org/2000/svg" xmlns:xlink="http://www.w3.org/1999/xlink" contentStyleType="text/css" data-diagram-type="SEQUENCE" height="600px" preserveAspectRatio="none" style="width:1302px;height:600px;background:#FFFFFF;" version="1.1" viewBox="0 0 1302 600" width="1302px" zoomAndPan="magnify"><title>Get post detailed</title><defs/><g><text fill="#000000" font-family="sans-serif" font-size="14" font-weight="bold" lengthAdjust="spacing" textLength="136.8623" x="583.6252" y="27.9951">Get post detailed</text><rect fill="none" height="192.4063" style="stroke:#000000;stroke-width:1.5;" width="1285.1128" x="10" y="310.3906"/><g><title>Client</title><rect fill="#000000" fill-opacity="0.00000" height="401.2031" width="8" x="39.2651" y="118.5938"/><line style="stroke:#181818;stroke-width:0.5;stroke-dasharray:5.0,5.0;" x1="43" x2="43" y1="118.5938" y2="519.7969"/></g><g><title>PostQueryController</title><rect fill="#000000" fill-opacity="0.00000" height="401.2031" width="8" x="311.1602" y="118.5938"/><line style="stroke:#181818;stroke-width:0.5;stroke-dasharray:5.0,5.0;" x1="314.4048" x2="314.4048" y1="118.5938" y2="519.7969"/></g><g><title>PostQueryService</title><rect fill="#000000" fill-opacity="0.00000" height="401.2031" width="8" x="591.9546" y="118.5938"/><line style="stroke:#181818;stroke-width:0.5;stroke-dasharray:5.0,5.0;" x1="595.915" x2="595.915" y1="118.5938" y2="519.7969"/></g><g><title>PostQueryRepository</title><rect fill="#000000" fill-opacity="0.00000" height="401.2031" width="8" x="807.2476" y="118.5938"/><line style="stroke:#181818;stroke-width:0.5;stroke-dasharray:5.0,5.0;" x1="810.5425" x2="810.5425" y1="118.5938" y2="519.7969"/></g><g><title>CommentQueryRepository</title><rect fill="#000000" fill-opacity="0.00000" height="401.2031" width="8" x="998.0581" y="118.5938"/><line style="stroke:#181818;stroke-width:0.5;stroke-dasharray:5.0,5.0;" x1="1001.9526" x2="1001.9526" y1="118.5938" y2="519.7969"/></g><g><title>DomainEventPublisher</title><rect fill="#000000" fill-opacity="0.00000" height="401.2031" width="8" x="1194.6382" y="118.5938"/><line style="stroke:#181818;stroke-width:0.5;stroke-dasharray:5.0,5.0;" x1="1198.1636" x2="1198.1636" y1="118.5938" y2="519.7969"/></g><g class="participant participant-head" data-participant="Client"><text fill="#000000" font-family="sans-serif" font-size="14" lengthAdjust="spacing" textLength="40.5303" x="20" y="115.292">Client</text><ellipse cx="43.2651" cy="50.7969" fill="#E2E2F0" rx="8" ry="8" style="stroke:#181818;stroke-width:0.5;"/><path d="M43.2651,58.7969 L43.2651,85.7969 M30.2651,66.7969 L56.2651,66.7969 M43.2651,85.7969 L30.2651,100.7969 M43.2651,85.7969 L56.2651,100.7969" fill="none" style="stroke:#181818;stroke-width:0.5;"/></g><g class="participant participant-tail" data-participant="Client"><text fill="#000000" font-family="sans-serif" font-size="14" lengthAdjust="spacing" textLength="40.5303" x="20" y="531.792">Client</text><ellipse cx="43.2651" cy="543.5938" fill="#E2E2F0" rx="8" ry="8" style="stroke:#181818;stroke-width:0.5;"/><path d="M43.2651,551.5938 L43.2651,578.5938 M30.2651,559.5938 L56.2651,559.5938 M43.2651,578.5938 L30.2651,593.5938 M43.2651,578.5938 L56.2651,593.5938" fill="none" style="stroke:#181818;stroke-width:0.5;"/></g><g class="participant participant-head" data-participant="PostQueryController"><rect fill="#E2E2F0" height="30.2969" rx="2.5" ry="2.5" style="stroke:#181818;stroke-width:0.5;" width="155.5107" x="237.4048" y="87.2969"/><text fill="#000000" font-family="sans-serif" font-size="14" lengthAdjust="spacing" textLength="141.5107" x="244.4048" y="107.292">PostQueryController</text></g><g class="participant participant-tail" data-participant="PostQueryController"><rect fill="#E2E2F0" height="30.2969" rx="2.5" ry="2.5" style="stroke:#181818;stroke-width:0.5;" width="155.5107" x="237.4048" y="518.7969"/><text fill="#000000" font-family="sans-serif" font-size="14" lengthAdjust="spacing" textLength="141.5107" x="244.4048" y="538.792">PostQueryController</text></g><g class="participant participant-head" data-participant="PostQueryService"><rect fill="#E2E2F0" height="30.2969" rx="2.5" ry="2.5" style="stroke:#181818;stroke-width:0.5;" width="138.0791" x="526.915" y="87.2969"/><text fill="#000000" font-family="sans-serif" font-size="14" lengthAdjust="spacing" textLength="124.0791" x="533.915" y="107.292">PostQueryService</text></g><g class="participant participant-tail" data-participant="PostQueryService"><rect fill="#E2E2F0" height="30.2969" rx="2.5" ry="2.5" style="stroke:#181818;stroke-width:0.5;" width="138.0791" x="526.915" y="518.7969"/><text fill="#000000" font-family="sans-serif" font-size="14" lengthAdjust="spacing" textLength="124.0791" x="533.915" y="538.792">PostQueryService</text></g><g class="participant participant-head" data-participant="PostQueryRepository"><rect fill="#E2E2F0" height="30.2969" rx="2.5" ry="2.5" style="stroke:#181818;stroke-width:0.5;" width="161.4102" x="730.5425" y="87.2969"/><text fill="#000000" font-family="sans-serif" font-size="14" lengthAdjust="spacing" textLength="147.4102" x="737.5425" y="107.292">PostQueryRepository</text></g><g class="participant participant-tail" data-participant="PostQueryRepository"><rect fill="#E2E2F0" height="30.2969" rx="2.5" ry="2.5" style="stroke:#181818;stroke-width:0.5;" width="161.4102" x="730.5425" y="518.7969"/><text fill="#000000" font-family="sans-serif" font-size="14" lengthAdjust="spacing" textLength="147.4102" x="737.5425" y="538.792">PostQueryRepository</text></g><g class="participant participant-head" data-participant="CommentQueryRepository"><rect fill="#FFFF00" height="30.2969" rx="2.5" ry="2.5" style="stroke:#181818;stroke-width:0.5;" width="200.2109" x="901.9526" y="87.2969"/><text fill="#000000" font-family="sans-serif" font-size="14" lengthAdjust="spacing" textLength="186.2109" x="908.9526" y="107.292">CommentQueryRepository</text></g><g class="participant participant-tail" data-participant="CommentQueryRepository"><rect fill="#FFFF00" height="30.2969" rx="2.5" ry="2.5" style="stroke:#181818;stroke-width:0.5;" width="200.2109" x="901.9526" y="518.7969"/><text fill="#000000" font-family="sans-serif" font-size="14" lengthAdjust="spacing" textLength="186.2109" x="908.9526" y="538.792">CommentQueryRepository</text></g><g class="participant participant-head" data-participant="DomainEventPublisher"><rect fill="#87CEEB" height="30.2969" rx="2.5" ry="2.5" style="stroke:#181818;stroke-width:0.5;" width="172.9492" x="1112.1636" y="87.2969"/><text fill="#000000" font-family="sans-serif" font-size="14" lengthAdjust="spacing" textLength="158.9492" x="1119.1636" y="107.292">DomainEventPublisher</text></g><g class="participant participant-tail" data-participant="DomainEventPublisher"><rect fill="#87CEEB" height="30.2969" rx="2.5" ry="2.5" style="stroke:#181818;stroke-width:0.5;" width="172.9492" x="1112.1636" y="518.7969"/><text fill="#000000" font-family="sans-serif" font-size="14" lengthAdjust="spacing" textLength="158.9492" x="1119.1636" y="538.792">DomainEventPublisher</text></g><g class="message" data-participant-1="Client" data-participant-2="PostQueryController"><polygon fill="#181818" points="303.1602,145.7266,313.1602,149.7266,303.1602,153.7266,307.1602,149.7266" style="stroke:#181818;stroke-width:1;"/><line style="stroke:#181818;stroke-width:1;" x1="43.2651" x2="309.1602" y1="149.7266" y2="149.7266"/><text fill="#000000" font-family="sans-serif" font-size="13" lengthAdjust="spacing" textLength="247.895" x="50.2651" y="144.6606">GET /posts/{postId}?board={bname}</text></g><g class="message" data-participant-1="PostQueryController" data-participant-2="PostQueryService"><polygon fill="#181818" points="583.9546,174.8594,593.9546,178.8594,583.9546,182.8594,587.9546,178.8594" style="stroke:#181818;stroke-width:1;"/><line style="stroke:#181818;stroke-width:1;" x1="315.1602" x2="589.9546" y1="178.8594" y2="178.8594"/><text fill="#000000" font-family="sans-serif" font-size="13" lengthAdjust="spacing" textLength="256.7944" x="322.1602" y="173.7935">getPostDetailed(Visitor, postId, bname)</text></g><g class="message" data-participant-1="PostQueryService" data-participant-2="PostQueryRepository"><polygon fill="#181818" points="799.2476,203.9922,809.2476,207.9922,799.2476,211.9922,803.2476,207.9922" style="stroke:#181818;stroke-width:1;"/><line style="stroke:#181818;stroke-width:1;" x1="595.9546" x2="805.2476" y1="207.9922" y2="207.9922"/><text fill="#000000" font-family="sans-serif" font-size="13" lengthAdjust="spacing" textLength="191.293" x="602.9546" y="202.9263">fetchDetailed(postId, bname)</text></g><g class="message" data-participant-1="PostQueryRepository" data-participant-2="PostQueryService"><polygon fill="#181818" points="606.9546,233.125,596.9546,237.125,606.9546,241.125,602.9546,237.125" style="stroke:#181818;stroke-width:1;"/><line style="stroke:#181818;stroke-width:1;stroke-dasharray:2.0,2.0;" x1="600.9546" x2="810.2476" y1="237.125" y2="237.125"/><text fill="#000000" font-family="sans-serif" font-size="13" lengthAdjust="spacing" textLength="94.1421" x="612.9546" y="232.0591">PostDetailDTO</text></g><g class="message" data-participant-1="PostQueryService" data-participant-2="CommentQueryRepository"><polygon fill="#181818" points="990.0581,262.2578,1000.0581,266.2578,990.0581,270.2578,994.0581,266.2578" style="stroke:#181818;stroke-width:1;"/><line style="stroke:#181818;stroke-width:1;" x1="595.9546" x2="996.0581" y1="266.2578" y2="266.2578"/><text fill="#000000" font-family="sans-serif" font-size="13" lengthAdjust="spacing" textLength="210.5137" x="602.9546" y="261.1919">fetchCommentList(postId, page)</text></g><g class="message" data-participant-1="CommentQueryRepository" data-participant-2="PostQueryService"><polygon fill="#181818" points="606.9546,291.3906,596.9546,295.3906,606.9546,299.3906,602.9546,295.3906" style="stroke:#181818;stroke-width:1;"/><line style="stroke:#181818;stroke-width:1;stroke-dasharray:2.0,2.0;" x1="600.9546" x2="1001.0581" y1="295.3906" y2="295.3906"/><text fill="#000000" font-family="sans-serif" font-size="13" lengthAdjust="spacing" textLength="114.6006" x="612.9546" y="290.3247">CommentListDTO</text></g><path d="M10,310.3906 L74.4429,310.3906 L74.4429,317.5234 L64.4429,327.5234 L10,327.5234 L10,310.3906" fill="#EEEEEE" style="stroke:#000000;stroke-width:1.5;"/><rect fill="none" height="192.4063" style="stroke:#000000;stroke-width:1.5;" width="1285.1128" x="10" y="310.3906"/><text fill="#000000" font-family="sans-serif" font-size="13" font-weight="bold" lengthAdjust="spacing" textLength="19.4429" x="25" y="323.4575">alt</text><text fill="#000000" font-family="sans-serif" font-size="11" font-weight="bold" lengthAdjust="spacing" textLength="166.8745" x="89.4429" y="322.6011">[Post exists &amp; not deleted]</text><g class="message" data-participant-1="PostQueryService" data-participant-2="DomainEventPublisher"><polygon fill="#181818" points="1186.6382,344.6563,1196.6382,348.6563,1186.6382,352.6563,1190.6382,348.6563" style="stroke:#181818;stroke-width:1;"/><line style="stroke:#181818;stroke-width:1;" x1="595.9546" x2="1192.6382" y1="348.6563" y2="348.6563"/><text fill="#000000" font-family="sans-serif" font-size="13" lengthAdjust="spacing" textLength="262.3042" x="602.9546" y="343.5903">publish(PostDetailQueriedEvent(postId))</text></g><g class="message" data-participant-1="PostQueryService" data-participant-2="PostQueryController"><polygon fill="#181818" points="326.1602,373.7891,316.1602,377.7891,326.1602,381.7891,322.1602,377.7891" style="stroke:#181818;stroke-width:1;"/><line style="stroke:#181818;stroke-width:1;stroke-dasharray:2.0,2.0;" x1="320.1602" x2="594.9546" y1="377.7891" y2="377.7891"/><text fill="#000000" font-family="sans-serif" font-size="13" lengthAdjust="spacing" textLength="106.7104" x="332.1602" y="372.7231">PostDetailResult</text></g><g class="message" data-participant-1="PostQueryController" data-participant-2="Client"><polygon fill="#181818" points="54.2651,402.9219,44.2651,406.9219,54.2651,410.9219,50.2651,406.9219" style="stroke:#181818;stroke-width:1;"/><line style="stroke:#181818;stroke-width:1;stroke-dasharray:2.0,2.0;" x1="48.2651" x2="314.1602" y1="406.9219" y2="406.9219"/><text fill="#000000" font-family="sans-serif" font-size="13" lengthAdjust="spacing" textLength="195.8379" x="60.2651" y="401.856">200 OK + PostDetailResponse</text></g><line style="stroke:#000000;stroke-width:1;stroke-dasharray:2.0,2.0;" x1="10" x2="1295.1128" y1="415.9219" y2="415.9219"/><text fill="#000000" font-family="sans-serif" font-size="11" font-weight="bold" lengthAdjust="spacing" textLength="101.6641" x="15" y="426.1323">[Post not found]</text><g class="message" data-participant-1="PostQueryController" data-participant-2="Client"><polygon fill="#181818" points="54.2651,446.8594,44.2651,450.8594,54.2651,454.8594,50.2651,450.8594" style="stroke:#181818;stroke-width:1;"/><line style="stroke:#181818;stroke-width:1;stroke-dasharray:2.0,2.0;" x1="48.2651" x2="314.1602" y1="450.8594" y2="450.8594"/><text fill="#000000" font-family="sans-serif" font-size="13" lengthAdjust="spacing" textLength="153.4355" x="60.2651" y="445.7935">404_POST_NOT_FOUND</text></g><line style="stroke:#000000;stroke-width:1;stroke-dasharray:2.0,2.0;" x1="10" x2="1295.1128" y1="459.8594" y2="459.8594"/><text fill="#000000" font-family="sans-serif" font-size="11" font-weight="bold" lengthAdjust="spacing" textLength="88.4673" x="15" y="470.0698">[Post deleted]</text><g class="message" data-participant-1="PostQueryController" data-participant-2="Client"><polygon fill="#181818" points="54.2651,490.7969,44.2651,494.7969,54.2651,498.7969,50.2651,494.7969" style="stroke:#181818;stroke-width:1;"/><line style="stroke:#181818;stroke-width:1;stroke-dasharray:2.0,2.0;" x1="48.2651" x2="314.1602" y1="494.7969" y2="494.7969"/><text fill="#000000" font-family="sans-serif" font-size="13" lengthAdjust="spacing" textLength="131.9233" x="60.2651" y="489.731">410_POST_DELETED</text></g><!--SRC=[ZPDXJzim48Q_-rVSX3Ie1asP-5G9qDHaC0sH0c5VApSvWZN7ZkmBK27- - -maeYauqg98YNBtFlVUvKo29C854jJQ4XH8N4Wi6Cz96rX8WOfOpGs9NDHS4InTsas3PhFGYeoM4aquVeVcIUGO3jwYAoTSYSrEVA6hoXNya09x6vHIF- -anhhYGYLFBdtPhAMmZsXWp_xTh6M3Z7NEuUWiP1ZcS95a4FcMRVJg7x-Aj_ErvgOuVLqhNk4R2-c6kBu_nogH_DUudzt17z7wFeGEV0WjSS8-IOUuGRjpU43A7zzvOvY1v2ZiR6ihpj9W_P69znRww9MmzEwYvgKpCQ8RyJ7WU2DSTgi0-EA-MFWAIllTaqXkzS1T8Ql1Fpw7kdi_sFRgXGABDhEtFPcCO4SNP8kxHTj8sjKFTy9FiTksENoVpI3z3TzsvRLM5XbAYrtRlji7tQZY_w0divFLChtBLjTfjlgPtb_70rPmQgEaurb7YfEh94iSntbW-r-4ocLJ84odKNUZdzqbLuKKgepQW-6P-4BjeVbHbWPBJXXzcdehmcdTL9Bz0m00]--></g></svg>