<svg xmlns="http://www.w3.org/2000/svg" xmlns:xlink="http://www.w3.org/1999/xlink" contentStyleType="text/css" data-diagram-type="CLASS" height="432px" preserveAspectRatio="none" style="width:711px;height:432px;background:#FFFFFF;" version="1.1" viewBox="0 0 711 432" width="711px" zoomAndPan="magnify"><defs/><g><!--cluster Auth--><g class="cluster" data-entity="Auth" data-source-line="1" data-uid="ent0002" id="cluster_Auth"><path d="M8.5,6 L46.9609,6 A3.75,3.75 0 0 1 49.4609,8.5 L56.4609,28.2969 L701.5,28.2969 A2.5,2.5 0 0 1 704,30.7969 L704,422.5 A2.5,2.5 0 0 1 701.5,425 L8.5,425 A2.5,2.5 0 0 1 6,422.5 L6,8.5 A2.5,2.5 0 0 1 8.5,6" fill="none" style="stroke:#000000;stroke-width:1.5;"/><line style="stroke:#000000;stroke-width:1.5;" x1="6" x2="56.4609" y1="28.2969" y2="28.2969"/><text fill="#000000" font-family="sans-serif" font-size="14" font-weight="bold" lengthAdjust="spacing" textLength="37.4609" x="10" y="20.9951">Auth</text></g><!--class Auth--><g class="entity" data-entity="Auth" data-source-line="2" data-uid="ent0003" id="entity_Auth"><rect fill="#F1F1F1" height="186.6406" rx="2.5" ry="2.5" style="stroke:#181818;stroke-width:0.5;" width="441.1396" x="22.5" y="41"/><ellipse cx="186.2339" cy="61.1328" fill="#ADD1B2" rx="11" ry="11" style="stroke:#181818;stroke-width:1;"/><path d="M190.3433,67.1328 L182.6245,67.1328 L182.6245,54.7422 L190.3433,54.7422 L190.3433,56.8984 L185.0776,56.8984 L185.0776,59.5703 L189.8433,59.5703 L189.8433,61.7266 L185.0776,61.7266 L185.0776,64.9766 L190.3433,64.9766 L190.3433,67.1328 Z " fill="#000000"/><text fill="#000000" font-family="sans-serif" font-size="12" font-style="italic" lengthAdjust="spacing" textLength="109.1719" x="204.7339" y="57.1387">&#171;Aggregate Root&#187;</text><text fill="#000000" font-family="sans-serif" font-size="14" lengthAdjust="spacing" textLength="32.8125" x="242.9136" y="72.9639">Auth</text><line style="stroke:#181818;stroke-width:0.5;" x1="23.5" x2="462.6396" y1="81.2656" y2="81.2656"/><ellipse cx="33.5" cy="94.9141" fill="none" rx="3" ry="3" style="stroke:#038048;stroke-width:1;"/><text fill="#000000" font-family="sans-serif" font-size="14" lengthAdjust="spacing" textLength="83.4053" x="42.5" y="98.2607">Long authId</text><ellipse cx="33.5" cy="111.2109" fill="none" rx="3" ry="3" style="stroke:#038048;stroke-width:1;"/><text fill="#000000" font-family="sans-serif" font-size="14" lengthAdjust="spacing" textLength="110.7354" x="42.5" y="114.5576">Long memberId</text><ellipse cx="33.5" cy="127.5078" fill="none" rx="3" ry="3" style="stroke:#038048;stroke-width:1;"/><text fill="#000000" font-family="sans-serif" font-size="14" lengthAdjust="spacing" textLength="154.0957" x="42.5" y="130.8545">AuthProvider provider</text><ellipse cx="33.5" cy="143.8047" fill="none" rx="3" ry="3" style="stroke:#038048;stroke-width:1;"/><text fill="#000000" font-family="sans-serif" font-size="14" lengthAdjust="spacing" textLength="81.9014" x="42.5" y="147.1514">Email email</text><ellipse cx="33.5" cy="160.1016" fill="none" rx="3" ry="3" style="stroke:#038048;stroke-width:1;"/><text fill="#000000" font-family="sans-serif" font-size="14" lengthAdjust="spacing" textLength="137.4297" x="42.5" y="163.4482">Password password</text><line style="stroke:#181818;stroke-width:1;" x1="23.5" x2="462.6396" y1="170.75" y2="170.75"/><ellipse cx="33.5" cy="184.3984" fill="#84BE84" rx="3" ry="3" style="stroke:#038048;stroke-width:1;"/><text fill="#000000" font-family="sans-serif" font-size="14" lengthAdjust="spacing" textLength="287.7793" x="42.5" y="187.7451">registerLocal(Email, String rawPassword)</text><ellipse cx="33.5" cy="200.6953" fill="#84BE84" rx="3" ry="3" style="stroke:#038048;stroke-width:1;"/><text fill="#000000" font-family="sans-serif" font-size="14" lengthAdjust="spacing" textLength="406.499" x="42.5" y="204.042">registerOAuth(AuthProvider, String providerUserId, Email)</text><ellipse cx="33.5" cy="216.9922" fill="#84BE84" rx="3" ry="3" style="stroke:#038048;stroke-width:1;"/><text fill="#000000" font-family="sans-serif" font-size="14" lengthAdjust="spacing" textLength="415.1396" x="42.5" y="220.3389">updatePassword(String rawPassword, String newPassword)</text></g><!--class AuthProvider--><g class="entity" data-entity="AuthProvider" data-source-line="14" data-uid="ent0004" id="entity_AuthProvider"><rect fill="#F1F1F1" height="105.1563" rx="2.5" ry="2.5" style="stroke:#181818;stroke-width:0.5;" width="123.0068" x="22.5" y="296"/><ellipse cx="37.5" cy="316.1328" fill="#ADD1B2" rx="11" ry="11" style="stroke:#181818;stroke-width:1;"/><path d="M40.4688,321.7734 Q39.8906,322.0703 39.25,322.2109 Q38.6094,322.3672 37.9063,322.3672 Q35.4063,322.3672 34.0781,320.7266 Q32.7656,319.0703 32.7656,315.9453 Q32.7656,312.8203 34.0781,311.1641 Q35.4063,309.5078 37.9063,309.5078 Q38.6094,309.5078 39.25,309.6641 Q39.9063,309.8203 40.4688,310.1172 L40.4688,312.8359 Q39.8438,312.2578 39.25,311.9922 Q38.6563,311.7109 38.0313,311.7109 Q36.6875,311.7109 36,312.7891 Q35.3125,313.8516 35.3125,315.9453 Q35.3125,318.0391 36,319.1172 Q36.6875,320.1797 38.0313,320.1797 Q38.6563,320.1797 39.25,319.9141 Q39.8438,319.6328 40.4688,319.0547 L40.4688,321.7734 Z " fill="#000000"/><text fill="#000000" font-family="sans-serif" font-size="12" font-style="italic" lengthAdjust="spacing" textLength="49.2949" x="72.356" y="312.1387">&#171;Enum&#187;</text><text fill="#000000" font-family="sans-serif" font-size="14" lengthAdjust="spacing" textLength="91.0068" x="51.5" y="327.9639">AuthProvider</text><line style="stroke:#181818;stroke-width:0.5;" x1="23.5" x2="144.5068" y1="336.2656" y2="336.2656"/><text fill="#000000" font-family="sans-serif" font-size="14" lengthAdjust="spacing" textLength="45.9717" x="28.5" y="353.2607">LOCAL</text><text fill="#000000" font-family="sans-serif" font-size="14" lengthAdjust="spacing" textLength="60.3818" x="28.5" y="369.5576">GOOGLE</text><text fill="#000000" font-family="sans-serif" font-size="14" lengthAdjust="spacing" textLength="48.5352" x="28.5" y="385.8545">KAKAO</text><line style="stroke:#181818;stroke-width:0.5;" x1="23.5" x2="144.5068" y1="393.1563" y2="393.1563"/></g><!--class Email--><g class="entity" data-entity="Email" data-source-line="20" data-uid="ent0005" id="entity_Email"><rect fill="#F1F1F1" height="88.8594" rx="2.5" ry="2.5" style="stroke:#181818;stroke-width:0.5;" width="119.5938" x="181" y="304"/><ellipse cx="196" cy="324.1328" fill="#ADD1B2" rx="11" ry="11" style="stroke:#181818;stroke-width:1;"/><path d="M198.9688,329.7734 Q198.3906,330.0703 197.75,330.2109 Q197.1094,330.3672 196.4063,330.3672 Q193.9063,330.3672 192.5781,328.7266 Q191.2656,327.0703 191.2656,323.9453 Q191.2656,320.8203 192.5781,319.1641 Q193.9063,317.5078 196.4063,317.5078 Q197.1094,317.5078 197.75,317.6641 Q198.4063,317.8203 198.9688,318.1172 L198.9688,320.8359 Q198.3438,320.2578 197.75,319.9922 Q197.1563,319.7109 196.5313,319.7109 Q195.1875,319.7109 194.5,320.7891 Q193.8125,321.8516 193.8125,323.9453 Q193.8125,326.0391 194.5,327.1172 Q195.1875,328.1797 196.5313,328.1797 Q197.1563,328.1797 197.75,327.9141 Q198.3438,327.6328 198.9688,327.0547 L198.9688,329.7734 Z " fill="#000000"/><text fill="#000000" font-family="sans-serif" font-size="12" font-style="italic" lengthAdjust="spacing" textLength="91.5938" x="208" y="320.1387">&#171;Value Object&#187;</text><text fill="#000000" font-family="sans-serif" font-size="14" lengthAdjust="spacing" textLength="38.8418" x="234.376" y="335.9639">Email</text><line style="stroke:#181818;stroke-width:0.5;" x1="182" x2="299.5938" y1="344.2656" y2="344.2656"/><ellipse cx="192" cy="357.9141" fill="none" rx="3" ry="3" style="stroke:#038048;stroke-width:1;"/><text fill="#000000" font-family="sans-serif" font-size="14" lengthAdjust="spacing" textLength="84.4717" x="201" y="361.2607">String value</text><line style="stroke:#181818;stroke-width:1;" x1="182" x2="299.5938" y1="368.5625" y2="368.5625"/><ellipse cx="192" cy="382.2109" fill="#84BE84" rx="3" ry="3" style="stroke:#038048;stroke-width:1;"/><text fill="#000000" font-family="sans-serif" font-size="14" lengthAdjust="spacing" textLength="67.1357" x="201" y="385.5576">validate()</text></g><!--class Password--><g class="entity" data-entity="Password" data-source-line="26" data-uid="ent0006" id="entity_Password"><rect fill="#F1F1F1" height="121.4531" rx="2.5" ry="2.5" style="stroke:#181818;stroke-width:0.5;" width="351.582" x="336" y="288"/><ellipse cx="463.7441" cy="308.1328" fill="#ADD1B2" rx="11" ry="11" style="stroke:#181818;stroke-width:1;"/><path d="M466.7129,313.7734 Q466.1348,314.0703 465.4941,314.2109 Q464.8535,314.3672 464.1504,314.3672 Q461.6504,314.3672 460.3223,312.7266 Q459.0098,311.0703 459.0098,307.9453 Q459.0098,304.8203 460.3223,303.1641 Q461.6504,301.5078 464.1504,301.5078 Q464.8535,301.5078 465.4941,301.6641 Q466.1504,301.8203 466.7129,302.1172 L466.7129,304.8359 Q466.0879,304.2578 465.4941,303.9922 Q464.9004,303.7109 464.2754,303.7109 Q462.9316,303.7109 462.2441,304.7891 Q461.5566,305.8516 461.5566,307.9453 Q461.5566,310.0391 462.2441,311.1172 Q462.9316,312.1797 464.2754,312.1797 Q464.9004,312.1797 465.4941,311.9141 Q466.0879,311.6328 466.7129,311.0547 L466.7129,313.7734 Z " fill="#000000"/><text fill="#000000" font-family="sans-serif" font-size="12" font-style="italic" lengthAdjust="spacing" textLength="91.5938" x="482.2441" y="304.1387">&#171;Value Object&#187;</text><text fill="#000000" font-family="sans-serif" font-size="14" lengthAdjust="spacing" textLength="66.2676" x="494.9072" y="319.9639">Password</text><line style="stroke:#181818;stroke-width:0.5;" x1="337" x2="686.582" y1="328.2656" y2="328.2656"/><ellipse cx="347" cy="341.9141" fill="none" rx="3" ry="3" style="stroke:#038048;stroke-width:1;"/><text fill="#000000" font-family="sans-serif" font-size="14" lengthAdjust="spacing" textLength="183.5996" x="356" y="345.2607">String encryptedPassword</text><line style="stroke:#181818;stroke-width:1;" x1="337" x2="686.582" y1="352.5625" y2="352.5625"/><ellipse cx="347" cy="366.2109" fill="#84BE84" rx="3" ry="3" style="stroke:#038048;stroke-width:1;"/><text fill="#000000" font-family="sans-serif" font-size="14" lengthAdjust="spacing" textLength="325.582" x="356" y="369.5576">static encrypt(String rawPassword) : Password</text><ellipse cx="347" cy="382.5078" fill="#84BE84" rx="3" ry="3" style="stroke:#038048;stroke-width:1;"/><text fill="#000000" font-family="sans-serif" font-size="14" lengthAdjust="spacing" textLength="255.3906" x="356" y="385.8545">static generateRandom() : Password</text><ellipse cx="347" cy="398.8047" fill="#84BE84" rx="3" ry="3" style="stroke:#038048;stroke-width:1;"/><text fill="#000000" font-family="sans-serif" font-size="14" lengthAdjust="spacing" textLength="278.9814" x="356" y="402.1514">matches(String rawPassword) : boolean</text></g><!--link Auth to AuthProvider--><g class="link" data-entity-1="Auth" data-entity-2="AuthProvider" data-source-line="34" data-uid="lnk7" id="link_Auth_AuthProvider"><path codeLine="34" d="M173.49,228.18 C156.11,251.35 141.6792,270.5894 126.3992,290.9694" fill="none" id="Auth-to-AuthProvider" style="stroke:#181818;stroke-width:1;"/><polygon fill="#181818" points="122.8,295.77,131.3992,290.9686,125.7994,291.7695,124.9985,286.1697,122.8,295.77" style="stroke:#181818;stroke-width:1;"/></g><!--link Auth to Email--><g class="link" data-entity-1="Auth" data-entity-2="Email" data-source-line="35" data-uid="lnk8" id="link_Auth_Email"><path codeLine="35" d="M242.13,228.18 C241.88,254.47 241.6775,275.8803 241.4675,297.7803" fill="none" id="Auth-to-Email" style="stroke:#181818;stroke-width:1;"/><polygon fill="#181818" points="241.41,303.78,245.4961,294.8188,241.4579,298.7802,237.4965,294.7421,241.41,303.78" style="stroke:#181818;stroke-width:1;"/></g><!--link Auth to Password--><g class="link" data-entity-1="Auth" data-entity-2="Password" data-source-line="36" data-uid="lnk9" id="link_Auth_Password"><path codeLine="36" d="M360.6,228.18 C386.33,248.46 408.1778,265.6758 431.7378,284.2458" fill="none" id="Auth-to-Password" style="stroke:#181818;stroke-width:1;"/><polygon fill="#181818" points="436.45,287.96,431.8578,279.2473,432.5232,284.8649,426.9056,285.5302,436.45,287.96" style="stroke:#181818;stroke-width:1;"/></g><!--SRC=[XL91QiCm4Bpd5KjE3eq_K4p051DA30ufxNqZBuvQMpAod11A_bv9jepLfFGYbj7ExEn8BR8lh0YMQQzFI_XU093GN5_10f0aQLKfgb0J7AJKcurh0NZAfQW0JSzhEGCQQewaF6GbzagUUKaAsh4Ohh86UGrapm7OOzTTf2gX7Gi7n_5mQopmJfFA9SCwSkGrl6d5pKo55qzUXTs5DH3DNKmax-QzitRNu2H7Uj-MPb-l6TsFcLG41QDl2tEmsY0Gh9uacUYRARkyU4bpLssBOfjdhjobkxG8DOQCakG3wvwWE7uIcpt0QE5iBuEi3CBj0j4lIrF2_oYIOEhQQYhtZrwYqwWvyqqFmbd1CmHCJwb8a3A-3YXAsKJtVGrgTgBk3ysZb3MXy3kvxnd7co3fEPwDVsi2fc6t7m00]--></g></svg>