<svg xmlns="http://www.w3.org/2000/svg" xmlns:xlink="http://www.w3.org/1999/xlink" contentStyleType="text/css" data-diagram-type="CLASS" height="465px" preserveAspectRatio="none" style="width:711px;height:465px;background:#FFFFFF;" version="1.1" viewBox="0 0 711 465" width="711px" zoomAndPan="magnify"><defs/><g><!--cluster Auth--><g class="cluster" data-entity="Auth" data-source-line="1" data-uid="ent0002" id="cluster_Auth"><path d="M8.5,6 L46.9609,6 A3.75,3.75 0 0 1 49.4609,8.5 L56.4609,28.2969 L701.5,28.2969 A2.5,2.5 0 0 1 704,30.7969 L704,455.5 A2.5,2.5 0 0 1 701.5,458 L8.5,458 A2.5,2.5 0 0 1 6,455.5 L6,8.5 A2.5,2.5 0 0 1 8.5,6" fill="none" style="stroke:#000000;stroke-width:1.5;"/><line style="stroke:#000000;stroke-width:1.5;" x1="6" x2="56.4609" y1="28.2969" y2="28.2969"/><text fill="#000000" font-family="sans-serif" font-size="14" font-weight="bold" lengthAdjust="spacing" textLength="37.4609" x="10" y="20.9951">Auth</text></g><!--class Auth--><g class="entity" data-entity="Auth" data-source-line="2" data-uid="ent0003" id="entity_Auth"><rect fill="#F1F1F1" height="202.9375" rx="2.5" ry="2.5" style="stroke:#181818;stroke-width:0.5;" width="432.499" x="25" y="41"/><ellipse cx="184.4136" cy="61.1328" fill="#ADD1B2" rx="11" ry="11" style="stroke:#181818;stroke-width:1;"/><path d="M188.5229,67.1328 L180.8042,67.1328 L180.8042,54.7422 L188.5229,54.7422 L188.5229,56.8984 L183.2573,56.8984 L183.2573,59.5703 L188.0229,59.5703 L188.0229,61.7266 L183.2573,61.7266 L183.2573,64.9766 L188.5229,64.9766 L188.5229,67.1328 Z " fill="#000000"/><text fill="#000000" font-family="sans-serif" font-size="12" font-style="italic" lengthAdjust="spacing" textLength="109.1719" x="202.9136" y="57.1387">&#171;Aggregate Root&#187;</text><text fill="#000000" font-family="sans-serif" font-size="14" lengthAdjust="spacing" textLength="32.8125" x="241.0933" y="72.9639">Auth</text><line style="stroke:#181818;stroke-width:0.5;" x1="26" x2="456.499" y1="81.2656" y2="81.2656"/><ellipse cx="36" cy="94.9141" fill="none" rx="3" ry="3" style="stroke:#038048;stroke-width:1;"/><text fill="#000000" font-family="sans-serif" font-size="14" lengthAdjust="spacing" textLength="83.4053" x="45" y="98.2607">Long authId</text><ellipse cx="36" cy="111.2109" fill="none" rx="3" ry="3" style="stroke:#038048;stroke-width:1;"/><text fill="#000000" font-family="sans-serif" font-size="14" lengthAdjust="spacing" textLength="110.7354" x="45" y="114.5576">Long memberId</text><ellipse cx="36" cy="127.5078" fill="none" rx="3" ry="3" style="stroke:#038048;stroke-width:1;"/><text fill="#000000" font-family="sans-serif" font-size="14" lengthAdjust="spacing" textLength="154.0957" x="45" y="130.8545">AuthProvider provider</text><ellipse cx="36" cy="143.8047" fill="none" rx="3" ry="3" style="stroke:#038048;stroke-width:1;"/><text fill="#000000" font-family="sans-serif" font-size="14" lengthAdjust="spacing" textLength="81.9014" x="45" y="147.1514">Email email</text><ellipse cx="36" cy="160.1016" fill="none" rx="3" ry="3" style="stroke:#038048;stroke-width:1;"/><text fill="#000000" font-family="sans-serif" font-size="14" lengthAdjust="spacing" textLength="137.4297" x="45" y="163.4482">Password password</text><line style="stroke:#181818;stroke-width:1;" x1="26" x2="456.499" y1="170.75" y2="170.75"/><ellipse cx="36" cy="184.3984" fill="#84BE84" rx="3" ry="3" style="stroke:#038048;stroke-width:1;"/><text fill="#000000" font-family="sans-serif" font-size="14" lengthAdjust="spacing" textLength="287.7793" x="45" y="187.7451">registerLocal(Email, String rawPassword)</text><ellipse cx="36" cy="200.6953" fill="#84BE84" rx="3" ry="3" style="stroke:#038048;stroke-width:1;"/><text fill="#000000" font-family="sans-serif" font-size="14" lengthAdjust="spacing" textLength="406.499" x="45" y="204.042">registerOAuth(AuthProvider, String providerUserId, Email)</text><ellipse cx="36" cy="216.9922" fill="#84BE84" rx="3" ry="3" style="stroke:#038048;stroke-width:1;"/><text fill="#000000" font-family="sans-serif" font-size="14" lengthAdjust="spacing" textLength="264.8037" x="45" y="220.3389">updatePassword(String rawPassword)</text><ellipse cx="36" cy="233.2891" fill="#84BE84" rx="3" ry="3" style="stroke:#038048;stroke-width:1;"/><text fill="#000000" font-family="sans-serif" font-size="14" lengthAdjust="spacing" textLength="269.377" x="45" y="236.6357">isPasswordMatch(String rawPassword)</text></g><!--class AuthProvider--><g class="entity" data-entity="AuthProvider" data-source-line="15" data-uid="ent0004" id="entity_AuthProvider"><rect fill="#F1F1F1" height="105.1563" rx="2.5" ry="2.5" style="stroke:#181818;stroke-width:0.5;" width="123.0068" x="22.5" y="320.5"/><ellipse cx="37.5" cy="340.6328" fill="#ADD1B2" rx="11" ry="11" style="stroke:#181818;stroke-width:1;"/><path d="M40.4688,346.2734 Q39.8906,346.5703 39.25,346.7109 Q38.6094,346.8672 37.9063,346.8672 Q35.4063,346.8672 34.0781,345.2266 Q32.7656,343.5703 32.7656,340.4453 Q32.7656,337.3203 34.0781,335.6641 Q35.4063,334.0078 37.9063,334.0078 Q38.6094,334.0078 39.25,334.1641 Q39.9063,334.3203 40.4688,334.6172 L40.4688,337.3359 Q39.8438,336.7578 39.25,336.4922 Q38.6563,336.2109 38.0313,336.2109 Q36.6875,336.2109 36,337.2891 Q35.3125,338.3516 35.3125,340.4453 Q35.3125,342.5391 36,343.6172 Q36.6875,344.6797 38.0313,344.6797 Q38.6563,344.6797 39.25,344.4141 Q39.8438,344.1328 40.4688,343.5547 L40.4688,346.2734 Z " fill="#000000"/><text fill="#000000" font-family="sans-serif" font-size="12" font-style="italic" lengthAdjust="spacing" textLength="49.2949" x="72.356" y="336.6387">&#171;Enum&#187;</text><text fill="#000000" font-family="sans-serif" font-size="14" lengthAdjust="spacing" textLength="91.0068" x="51.5" y="352.4639">AuthProvider</text><line style="stroke:#181818;stroke-width:0.5;" x1="23.5" x2="144.5068" y1="360.7656" y2="360.7656"/><text fill="#000000" font-family="sans-serif" font-size="14" lengthAdjust="spacing" textLength="45.9717" x="28.5" y="377.7607">LOCAL</text><text fill="#000000" font-family="sans-serif" font-size="14" lengthAdjust="spacing" textLength="60.3818" x="28.5" y="394.0576">GOOGLE</text><text fill="#000000" font-family="sans-serif" font-size="14" lengthAdjust="spacing" textLength="48.5352" x="28.5" y="410.3545">KAKAO</text><line style="stroke:#181818;stroke-width:0.5;" x1="23.5" x2="144.5068" y1="417.6563" y2="417.6563"/></g><!--class Email--><g class="entity" data-entity="Email" data-source-line="21" data-uid="ent0005" id="entity_Email"><rect fill="#F1F1F1" height="88.8594" rx="2.5" ry="2.5" style="stroke:#181818;stroke-width:0.5;" width="119.5938" x="181" y="328.5"/><ellipse cx="196" cy="348.6328" fill="#ADD1B2" rx="11" ry="11" style="stroke:#181818;stroke-width:1;"/><path d="M198.9688,354.2734 Q198.3906,354.5703 197.75,354.7109 Q197.1094,354.8672 196.4063,354.8672 Q193.9063,354.8672 192.5781,353.2266 Q191.2656,351.5703 191.2656,348.4453 Q191.2656,345.3203 192.5781,343.6641 Q193.9063,342.0078 196.4063,342.0078 Q197.1094,342.0078 197.75,342.1641 Q198.4063,342.3203 198.9688,342.6172 L198.9688,345.3359 Q198.3438,344.7578 197.75,344.4922 Q197.1563,344.2109 196.5313,344.2109 Q195.1875,344.2109 194.5,345.2891 Q193.8125,346.3516 193.8125,348.4453 Q193.8125,350.5391 194.5,351.6172 Q195.1875,352.6797 196.5313,352.6797 Q197.1563,352.6797 197.75,352.4141 Q198.3438,352.1328 198.9688,351.5547 L198.9688,354.2734 Z " fill="#000000"/><text fill="#000000" font-family="sans-serif" font-size="12" font-style="italic" lengthAdjust="spacing" textLength="91.5938" x="208" y="344.6387">&#171;Value Object&#187;</text><text fill="#000000" font-family="sans-serif" font-size="14" lengthAdjust="spacing" textLength="38.8418" x="234.376" y="360.4639">Email</text><line style="stroke:#181818;stroke-width:0.5;" x1="182" x2="299.5938" y1="368.7656" y2="368.7656"/><ellipse cx="192" cy="382.4141" fill="none" rx="3" ry="3" style="stroke:#038048;stroke-width:1;"/><text fill="#000000" font-family="sans-serif" font-size="14" lengthAdjust="spacing" textLength="84.4717" x="201" y="385.7607">String value</text><line style="stroke:#181818;stroke-width:1;" x1="182" x2="299.5938" y1="393.0625" y2="393.0625"/><ellipse cx="192" cy="406.7109" fill="#84BE84" rx="3" ry="3" style="stroke:#038048;stroke-width:1;"/><text fill="#000000" font-family="sans-serif" font-size="14" lengthAdjust="spacing" textLength="67.1357" x="201" y="410.0576">validate()</text></g><!--class Password--><g class="entity" data-entity="Password" data-source-line="27" data-uid="ent0006" id="entity_Password"><rect fill="#F1F1F1" height="137.75" rx="2.5" ry="2.5" style="stroke:#181818;stroke-width:0.5;" width="351.582" x="336" y="304"/><ellipse cx="463.7441" cy="324.1328" fill="#ADD1B2" rx="11" ry="11" style="stroke:#181818;stroke-width:1;"/><path d="M466.7129,329.7734 Q466.1348,330.0703 465.4941,330.2109 Q464.8535,330.3672 464.1504,330.3672 Q461.6504,330.3672 460.3223,328.7266 Q459.0098,327.0703 459.0098,323.9453 Q459.0098,320.8203 460.3223,319.1641 Q461.6504,317.5078 464.1504,317.5078 Q464.8535,317.5078 465.4941,317.6641 Q466.1504,317.8203 466.7129,318.1172 L466.7129,320.8359 Q466.0879,320.2578 465.4941,319.9922 Q464.9004,319.7109 464.2754,319.7109 Q462.9316,319.7109 462.2441,320.7891 Q461.5566,321.8516 461.5566,323.9453 Q461.5566,326.0391 462.2441,327.1172 Q462.9316,328.1797 464.2754,328.1797 Q464.9004,328.1797 465.4941,327.9141 Q466.0879,327.6328 466.7129,327.0547 L466.7129,329.7734 Z " fill="#000000"/><text fill="#000000" font-family="sans-serif" font-size="12" font-style="italic" lengthAdjust="spacing" textLength="91.5938" x="482.2441" y="320.1387">&#171;Value Object&#187;</text><text fill="#000000" font-family="sans-serif" font-size="14" lengthAdjust="spacing" textLength="66.2676" x="494.9072" y="335.9639">Password</text><line style="stroke:#181818;stroke-width:0.5;" x1="337" x2="686.582" y1="344.2656" y2="344.2656"/><ellipse cx="347" cy="357.9141" fill="none" rx="3" ry="3" style="stroke:#038048;stroke-width:1;"/><text fill="#000000" font-family="sans-serif" font-size="14" lengthAdjust="spacing" textLength="183.5996" x="356" y="361.2607">String encryptedPassword</text><line style="stroke:#181818;stroke-width:1;" x1="337" x2="686.582" y1="368.5625" y2="368.5625"/><ellipse cx="347" cy="382.2109" fill="#84BE84" rx="3" ry="3" style="stroke:#038048;stroke-width:1;"/><text fill="#000000" font-family="sans-serif" font-size="14" lengthAdjust="spacing" textLength="325.582" x="356" y="385.5576">static encrypt(String rawPassword) : Password</text><ellipse cx="347" cy="398.5078" fill="#84BE84" rx="3" ry="3" style="stroke:#038048;stroke-width:1;"/><text fill="#000000" font-family="sans-serif" font-size="14" lengthAdjust="spacing" textLength="255.3906" x="356" y="401.8545">static generateRandom() : Password</text><ellipse cx="347" cy="414.8047" fill="#84BE84" rx="3" ry="3" style="stroke:#038048;stroke-width:1;"/><text fill="#000000" font-family="sans-serif" font-size="14" lengthAdjust="spacing" textLength="278.9814" x="356" y="418.1514">matches(String rawPassword) : boolean</text><ellipse cx="347" cy="431.1016" fill="#84BE84" rx="3" ry="3" style="stroke:#038048;stroke-width:1;"/><text fill="#000000" font-family="sans-serif" font-size="14" lengthAdjust="spacing" textLength="205.4199" x="356" y="434.4482">validate(String rawPassword)</text></g><!--link Auth to AuthProvider--><g class="link" data-entity-1="Auth" data-entity-2="AuthProvider" data-source-line="36" data-uid="lnk7" id="link_Auth_AuthProvider"><path codeLine="36" d="M171.91,244.06 C153.81,270.4 138.427,292.7743 122.897,315.3843" fill="none" id="Auth-to-AuthProvider" style="stroke:#181818;stroke-width:1;"/><polygon fill="#181818" points="119.5,320.33,127.8927,315.1761,122.3309,316.2086,121.2984,310.6467,119.5,320.33" style="stroke:#181818;stroke-width:1;"/></g><!--link Auth to Email--><g class="link" data-entity-1="Auth" data-entity-2="Email" data-source-line="37" data-uid="lnk8" id="link_Auth_Email"><path codeLine="37" d="M241,244.06 C241,273.63 241,298.45 241,322.42" fill="none" id="Auth-to-Email" style="stroke:#181818;stroke-width:1;"/><polygon fill="#181818" points="241,328.42,245,319.42,241,323.42,237,319.42,241,328.42" style="stroke:#181818;stroke-width:1;"/></g><!--link Auth to Password--><g class="link" data-entity-1="Auth" data-entity-2="Password" data-source-line="38" data-uid="lnk9" id="link_Auth_Password"><path codeLine="38" d="M360.26,244.06 C384.26,264.29 404.3637,281.2415 426.6637,300.0515" fill="none" id="Auth-to-Password" style="stroke:#181818;stroke-width:1;"/><polygon fill="#181818" points="431.25,303.92,426.9496,295.0596,427.4281,300.6962,421.7915,301.1747,431.25,303.92" style="stroke:#181818;stroke-width:1;"/></g><!--SRC=[XLBHQeCm57tlLrpwv5ZzWI6232cZ3gLZUq_ZnMRJH9BOKaR_VKaqebtTNiBbt7DkJivDI-WNgH3MIQUFQ_XU0I3NJ5_00X15ILL9h8X6s0kXuzXH01upmIiWXlDIJe06cmDA3zaHXHGdLgA4TYZwLjeGLWFQimSAejHPo1BQeN1m6FPTOu4fZJ8JbDI14s_WJKjcxfJaxCKFStPk3GHJ5wF8ktbNrku6tCX1thMbUQ-V6InUmvG7NeccnmNYTMKEMXi4Pdb4KSgxPWmqov-Jp5NRFDzcgIjtoIx9vpFwuABeWzGTGdxuH3hPoc3XP9kp00t2xAk26qjZxFzCH4xbfTLO5lVMepJHZ7hIlI3W2MPABwcGepI-zeINeWb-yneRBQg5cGSXQYJyver_BCBzwZ2CPxkOukdm9KTWj7Fz0G00]--></g></svg>