<svg xmlns="http://www.w3.org/2000/svg" xmlns:xlink="http://www.w3.org/1999/xlink" contentStyleType="text/css" data-diagram-type="SEQUENCE" height="1037px" preserveAspectRatio="none" style="width:2102px;height:1037px;background:#FFFFFF;" version="1.1" viewBox="0 0 2102 1037" width="2102px" zoomAndPan="magnify"><title>OAuth &#44592;&#48152; &#54924;&#50896;&#44032;&#51077;</title><defs/><g><text fill="#000000" font-family="sans-serif" font-size="14" font-weight="bold" lengthAdjust="spacing" textLength="109.5186" x="997.47" y="27.9951">OAuth &#44592;&#48152; &#54924;&#50896;&#44032;&#51077;</text><g><title>Auth</title><rect fill="#FFFFFF" height="58.2656" style="stroke:#181818;stroke-width:1;" width="10" x="625.0005" y="618.6563"/></g><rect fill="none" height="206.7344" style="stroke:#000000;stroke-width:1.5;" width="2085.4585" x="10" y="222.9922"/><g><title>User</title><rect fill="#000000" fill-opacity="0.00000" height="838.5234" width="8" x="34.9551" y="118.5938"/><line style="stroke:#181818;stroke-width:0.5;stroke-dasharray:5.0,5.0;" x1="38" x2="38" y1="118.5938" y2="957.1172"/></g><g><title>OAuth2LoginFilter</title><rect fill="#000000" fill-opacity="0.00000" height="838.5234" width="8" x="273.3091" y="118.5938"/><line style="stroke:#181818;stroke-width:0.5;stroke-dasharray:5.0,5.0;" x1="277.0869" x2="277.0869" y1="118.5938" y2="957.1172"/></g><g><title>CustomOAuth2UserService</title><rect fill="#000000" fill-opacity="0.00000" height="838.5234" width="8" x="494.5815" y="118.5938"/><line style="stroke:#181818;stroke-width:0.5;stroke-dasharray:5.0,5.0;" x1="498.5688" x2="498.5688" y1="118.5938" y2="957.1172"/></g><g><title>Auth</title><rect fill="#000000" fill-opacity="0.00000" height="838.5234" width="8" x="626.0005" y="118.5938"/><line style="stroke:#181818;stroke-width:0.5;stroke-dasharray:5.0,5.0;" x1="629.5942" x2="629.5942" y1="118.5938" y2="957.1172"/></g><g><title>MemberController</title><rect fill="#000000" fill-opacity="0.00000" height="838.5234" width="8" x="725.7861" y="118.5938"/><line style="stroke:#181818;stroke-width:0.5;stroke-dasharray:5.0,5.0;" x1="729.4067" x2="729.4067" y1="118.5938" y2="957.1172"/></g><g><title>MemberService</title><rect fill="#000000" fill-opacity="0.00000" height="838.5234" width="8" x="1031.5015" y="118.5938"/><line style="stroke:#181818;stroke-width:0.5;stroke-dasharray:5.0,5.0;" x1="1034.8379" x2="1034.8379" y1="118.5938" y2="957.1172"/></g><g><title>AuthService</title><rect fill="#000000" fill-opacity="0.00000" height="838.5234" width="8" x="1359.7637" y="118.5938"/><line style="stroke:#181818;stroke-width:0.5;stroke-dasharray:5.0,5.0;" x1="1363.4868" x2="1363.4868" y1="118.5938" y2="957.1172"/></g><g><title>AuthClient</title><rect fill="#000000" fill-opacity="0.00000" height="838.5234" width="8" x="1462.7119" y="118.5938"/><line style="stroke:#181818;stroke-width:0.5;stroke-dasharray:5.0,5.0;" x1="1466.0405" x2="1466.0405" y1="118.5938" y2="957.1172"/></g><g><title>Email</title><rect fill="#000000" fill-opacity="0.00000" height="838.5234" width="8" x="1542.8042" y="118.5938"/><line style="stroke:#181818;stroke-width:0.5;stroke-dasharray:5.0,5.0;" x1="1546.3833" x2="1546.3833" y1="118.5938" y2="957.1172"/></g><g><title>AuthRepository</title><rect fill="#000000" fill-opacity="0.00000" height="838.5234" width="8" x="1640.1675" y="118.5938"/><line style="stroke:#181818;stroke-width:0.5;stroke-dasharray:5.0,5.0;" x1="1643.2251" x2="1643.2251" y1="118.5938" y2="957.1172"/></g><g><title>MemberRepository</title><rect fill="#000000" fill-opacity="0.00000" height="838.5234" width="8" x="1784.439" y="118.5938"/><line style="stroke:#181818;stroke-width:0.5;stroke-dasharray:5.0,5.0;" x1="1788.1099" x2="1788.1099" y1="118.5938" y2="957.1172"/></g><g><title>SecurityContext</title><rect fill="#000000" fill-opacity="0.00000" height="838.5234" width="8" x="1931.0586" y="118.5938"/><line style="stroke:#181818;stroke-width:0.5;stroke-dasharray:5.0,5.0;" x1="1934.7681" x2="1934.7681" y1="118.5938" y2="957.1172"/></g><g><title>Frontend</title><rect fill="#000000" fill-opacity="0.00000" height="838.5234" width="8" x="2042.9038" y="118.5938"/><line style="stroke:#181818;stroke-width:0.5;stroke-dasharray:5.0,5.0;" x1="2046.3491" x2="2046.3491" y1="118.5938" y2="957.1172"/></g><g class="participant participant-head" data-participant="User"><text fill="#000000" font-family="sans-serif" font-size="14" lengthAdjust="spacing" textLength="31.9102" x="20" y="115.292">User</text><ellipse cx="38.9551" cy="50.7969" fill="#E2E2F0" rx="8" ry="8" style="stroke:#181818;stroke-width:0.5;"/><path d="M38.9551,58.7969 L38.9551,85.7969 M25.9551,66.7969 L51.9551,66.7969 M38.9551,85.7969 L25.9551,100.7969 M38.9551,85.7969 L51.9551,100.7969" fill="none" style="stroke:#181818;stroke-width:0.5;"/></g><g class="participant participant-tail" data-participant="User"><text fill="#000000" font-family="sans-serif" font-size="14" lengthAdjust="spacing" textLength="31.9102" x="20" y="969.1123">User</text><ellipse cx="38.9551" cy="980.9141" fill="#E2E2F0" rx="8" ry="8" style="stroke:#181818;stroke-width:0.5;"/><path d="M38.9551,988.9141 L38.9551,1015.9141 M25.9551,996.9141 L51.9551,996.9141 M38.9551,1015.9141 L25.9551,1030.9141 M38.9551,1015.9141 L51.9551,1030.9141" fill="none" style="stroke:#181818;stroke-width:0.5;"/></g><g class="participant participant-head" data-participant="OAuth2LoginFilter"><rect fill="#E2E2F0" height="30.2969" rx="2.5" ry="2.5" style="stroke:#181818;stroke-width:0.5;" width="140.4443" x="207.0869" y="87.2969"/><text fill="#000000" font-family="sans-serif" font-size="14" lengthAdjust="spacing" textLength="126.4443" x="214.0869" y="107.292">OAuth2LoginFilter</text></g><g class="participant participant-tail" data-participant="OAuth2LoginFilter"><rect fill="#E2E2F0" height="30.2969" rx="2.5" ry="2.5" style="stroke:#181818;stroke-width:0.5;" width="140.4443" x="207.0869" y="956.1172"/><text fill="#000000" font-family="sans-serif" font-size="14" lengthAdjust="spacing" textLength="126.4443" x="214.0869" y="976.1123">OAuth2LoginFilter</text></g><g class="participant participant-head" data-participant="CustomOAuth2UserService"><rect fill="#E2E2F0" height="30.2969" rx="2.5" ry="2.5" style="stroke:#181818;stroke-width:0.5;" width="204.0254" x="396.5688" y="87.2969"/><text fill="#000000" font-family="sans-serif" font-size="14" lengthAdjust="spacing" textLength="190.0254" x="403.5688" y="107.292">CustomOAuth2UserService</text></g><g class="participant participant-tail" data-participant="CustomOAuth2UserService"><rect fill="#E2E2F0" height="30.2969" rx="2.5" ry="2.5" style="stroke:#181818;stroke-width:0.5;" width="204.0254" x="396.5688" y="956.1172"/><text fill="#000000" font-family="sans-serif" font-size="14" lengthAdjust="spacing" textLength="190.0254" x="403.5688" y="976.1123">CustomOAuth2UserService</text></g><g class="participant participant-head" data-participant="Auth"><text fill="#000000" font-family="sans-serif" font-size="14" lengthAdjust="spacing" textLength="32.8125" x="610.5942" y="115.292">Auth</text><ellipse cx="630.0005" cy="86.2969" fill="#E2E2F0" rx="12" ry="12" style="stroke:#181818;stroke-width:0.5;"/><line style="stroke:#181818;stroke-width:0.5;" x1="618.0005" x2="642.0005" y1="100.2969" y2="100.2969"/></g><g class="participant participant-tail" data-participant="Auth"><text fill="#000000" font-family="sans-serif" font-size="14" lengthAdjust="spacing" textLength="32.8125" x="610.5942" y="969.1123">Auth</text><ellipse cx="630.0005" cy="988.4141" fill="#E2E2F0" rx="12" ry="12" style="stroke:#181818;stroke-width:0.5;"/><line style="stroke:#181818;stroke-width:0.5;" x1="618.0005" x2="642.0005" y1="1002.4141" y2="1002.4141"/></g><g class="participant participant-head" data-participant="MemberController"><rect fill="#E2E2F0" height="30.2969" rx="2.5" ry="2.5" style="stroke:#181818;stroke-width:0.5;" width="140.7588" x="659.4067" y="87.2969"/><text fill="#000000" font-family="sans-serif" font-size="14" lengthAdjust="spacing" textLength="126.7588" x="666.4067" y="107.292">MemberController</text></g><g class="participant participant-tail" data-participant="MemberController"><rect fill="#E2E2F0" height="30.2969" rx="2.5" ry="2.5" style="stroke:#181818;stroke-width:0.5;" width="140.7588" x="659.4067" y="956.1172"/><text fill="#000000" font-family="sans-serif" font-size="14" lengthAdjust="spacing" textLength="126.7588" x="666.4067" y="976.1123">MemberController</text></g><g class="participant participant-head" data-participant="MemberService"><rect fill="#E2E2F0" height="30.2969" rx="2.5" ry="2.5" style="stroke:#181818;stroke-width:0.5;" width="123.3271" x="973.8379" y="87.2969"/><text fill="#000000" font-family="sans-serif" font-size="14" lengthAdjust="spacing" textLength="109.3271" x="980.8379" y="107.292">MemberService</text></g><g class="participant participant-tail" data-participant="MemberService"><rect fill="#E2E2F0" height="30.2969" rx="2.5" ry="2.5" style="stroke:#181818;stroke-width:0.5;" width="123.3271" x="973.8379" y="956.1172"/><text fill="#000000" font-family="sans-serif" font-size="14" lengthAdjust="spacing" textLength="109.3271" x="980.8379" y="976.1123">MemberService</text></g><g class="participant participant-head" data-participant="AuthService"><rect fill="#E2E2F0" height="30.2969" rx="2.5" ry="2.5" style="stroke:#181818;stroke-width:0.5;" width="98.5537" x="1314.4868" y="87.2969"/><text fill="#000000" font-family="sans-serif" font-size="14" lengthAdjust="spacing" textLength="84.5537" x="1321.4868" y="107.292">AuthService</text></g><g class="participant participant-tail" data-participant="AuthService"><rect fill="#E2E2F0" height="30.2969" rx="2.5" ry="2.5" style="stroke:#181818;stroke-width:0.5;" width="98.5537" x="1314.4868" y="956.1172"/><text fill="#000000" font-family="sans-serif" font-size="14" lengthAdjust="spacing" textLength="84.5537" x="1321.4868" y="976.1123">AuthService</text></g><g class="participant participant-head" data-participant="AuthClient"><rect fill="#E2E2F0" height="30.2969" rx="2.5" ry="2.5" style="stroke:#181818;stroke-width:0.5;" width="87.3428" x="1423.0405" y="87.2969"/><text fill="#000000" font-family="sans-serif" font-size="14" lengthAdjust="spacing" textLength="73.3428" x="1430.0405" y="107.292">AuthClient</text></g><g class="participant participant-tail" data-participant="AuthClient"><rect fill="#E2E2F0" height="30.2969" rx="2.5" ry="2.5" style="stroke:#181818;stroke-width:0.5;" width="87.3428" x="1423.0405" y="956.1172"/><text fill="#000000" font-family="sans-serif" font-size="14" lengthAdjust="spacing" textLength="73.3428" x="1430.0405" y="976.1123">AuthClient</text></g><g class="participant participant-head" data-participant="Email"><rect fill="#E2E2F0" height="30.2969" rx="2.5" ry="2.5" style="stroke:#181818;stroke-width:0.5;" width="52.8418" x="1520.3833" y="87.2969"/><text fill="#000000" font-family="sans-serif" font-size="14" lengthAdjust="spacing" textLength="38.8418" x="1527.3833" y="107.292">Email</text></g><g class="participant participant-tail" data-participant="Email"><rect fill="#E2E2F0" height="30.2969" rx="2.5" ry="2.5" style="stroke:#181818;stroke-width:0.5;" width="52.8418" x="1520.3833" y="956.1172"/><text fill="#000000" font-family="sans-serif" font-size="14" lengthAdjust="spacing" textLength="38.8418" x="1527.3833" y="976.1123">Email</text></g><g class="participant participant-head" data-participant="AuthRepository"><rect fill="#E2E2F0" height="30.2969" rx="2.5" ry="2.5" style="stroke:#181818;stroke-width:0.5;" width="121.8848" x="1583.2251" y="87.2969"/><text fill="#000000" font-family="sans-serif" font-size="14" lengthAdjust="spacing" textLength="107.8848" x="1590.2251" y="107.292">AuthRepository</text></g><g class="participant participant-tail" data-participant="AuthRepository"><rect fill="#E2E2F0" height="30.2969" rx="2.5" ry="2.5" style="stroke:#181818;stroke-width:0.5;" width="121.8848" x="1583.2251" y="956.1172"/><text fill="#000000" font-family="sans-serif" font-size="14" lengthAdjust="spacing" textLength="107.8848" x="1590.2251" y="976.1123">AuthRepository</text></g><g class="participant participant-head" data-participant="MemberRepository"><rect fill="#E2E2F0" height="30.2969" rx="2.5" ry="2.5" style="stroke:#181818;stroke-width:0.5;" width="146.6582" x="1715.1099" y="87.2969"/><text fill="#000000" font-family="sans-serif" font-size="14" lengthAdjust="spacing" textLength="132.6582" x="1722.1099" y="107.292">MemberRepository</text></g><g class="participant participant-tail" data-participant="MemberRepository"><rect fill="#E2E2F0" height="30.2969" rx="2.5" ry="2.5" style="stroke:#181818;stroke-width:0.5;" width="146.6582" x="1715.1099" y="956.1172"/><text fill="#000000" font-family="sans-serif" font-size="14" lengthAdjust="spacing" textLength="132.6582" x="1722.1099" y="976.1123">MemberRepository</text></g><g class="participant participant-head" data-participant="SecurityContext"><rect fill="#E2E2F0" height="30.2969" rx="2.5" ry="2.5" style="stroke:#181818;stroke-width:0.5;" width="126.5811" x="1871.7681" y="87.2969"/><text fill="#000000" font-family="sans-serif" font-size="14" lengthAdjust="spacing" textLength="112.5811" x="1878.7681" y="107.292">SecurityContext</text></g><g class="participant participant-tail" data-participant="SecurityContext"><rect fill="#E2E2F0" height="30.2969" rx="2.5" ry="2.5" style="stroke:#181818;stroke-width:0.5;" width="126.5811" x="1871.7681" y="956.1172"/><text fill="#000000" font-family="sans-serif" font-size="14" lengthAdjust="spacing" textLength="112.5811" x="1878.7681" y="976.1123">SecurityContext</text></g><g class="participant participant-head" data-participant="Frontend"><rect fill="#E2E2F0" height="30.2969" rx="2.5" ry="2.5" style="stroke:#181818;stroke-width:0.5;" width="77.1094" x="2008.3491" y="87.2969"/><text fill="#000000" font-family="sans-serif" font-size="14" lengthAdjust="spacing" textLength="63.1094" x="2015.3491" y="107.292">Frontend</text></g><g class="participant participant-tail" data-participant="Frontend"><rect fill="#E2E2F0" height="30.2969" rx="2.5" ry="2.5" style="stroke:#181818;stroke-width:0.5;" width="77.1094" x="2008.3491" y="956.1172"/><text fill="#000000" font-family="sans-serif" font-size="14" lengthAdjust="spacing" textLength="63.1094" x="2015.3491" y="976.1123">Frontend</text></g><g><title>Auth</title><rect fill="#FFFFFF" height="58.2656" style="stroke:#181818;stroke-width:1;" width="10" x="625.0005" y="618.6563"/></g><g class="message" data-participant-1="User" data-participant-2="OAuth2LoginFilter"><polygon fill="#181818" points="265.3091,145.7266,275.3091,149.7266,265.3091,153.7266,269.3091,149.7266" style="stroke:#181818;stroke-width:1;"/><line style="stroke:#181818;stroke-width:1;" x1="38.9551" x2="271.3091" y1="149.7266" y2="149.7266"/><text fill="#000000" font-family="sans-serif" font-size="13" lengthAdjust="spacing" textLength="214.354" x="45.9551" y="144.6606">GET /oauth2/authorization/kakao</text></g><g class="message" data-participant-1="OAuth2LoginFilter" data-participant-2="CustomOAuth2UserService"><polygon fill="#181818" points="486.5815,174.8594,496.5815,178.8594,486.5815,182.8594,490.5815,178.8594" style="stroke:#181818;stroke-width:1;"/><line style="stroke:#181818;stroke-width:1;" x1="277.3091" x2="492.5815" y1="178.8594" y2="178.8594"/><text fill="#000000" font-family="sans-serif" font-size="13" lengthAdjust="spacing" textLength="197.2725" x="284.3091" y="173.7935">loadUser(oAuth2UserRequest)</text></g><g class="message" data-participant-1="CustomOAuth2UserService" data-participant-2="AuthRepository"><polygon fill="#181818" points="1632.1675,203.9922,1642.1675,207.9922,1632.1675,211.9922,1636.1675,207.9922" style="stroke:#181818;stroke-width:1;"/><line style="stroke:#181818;stroke-width:1;" x1="498.5815" x2="1638.1675" y1="207.9922" y2="207.9922"/><text fill="#000000" font-family="sans-serif" font-size="13" lengthAdjust="spacing" textLength="226.6113" x="505.5815" y="202.9263">findByProviderAndProviderUserId()</text></g><path d="M10,222.9922 L74.4429,222.9922 L74.4429,230.125 L64.4429,240.125 L10,240.125 L10,222.9922" fill="#EEEEEE" style="stroke:#000000;stroke-width:1.5;"/><rect fill="none" height="206.7344" style="stroke:#000000;stroke-width:1.5;" width="2085.4585" x="10" y="222.9922"/><text fill="#000000" font-family="sans-serif" font-size="13" font-weight="bold" lengthAdjust="spacing" textLength="19.4429" x="25" y="236.0591">alt</text><text fill="#000000" font-family="sans-serif" font-size="11" font-weight="bold" lengthAdjust="spacing" textLength="29.8579" x="89.4429" y="235.2026">[&#51316;&#51116;&#54632;]</text><g class="message" data-participant-1="AuthRepository" data-participant-2="CustomOAuth2UserService"><polygon fill="#181818" points="509.5815,257.2578,499.5815,261.2578,509.5815,265.2578,505.5815,261.2578" style="stroke:#181818;stroke-width:1;"/><line style="stroke:#181818;stroke-width:1;stroke-dasharray:2.0,2.0;" x1="503.5815" x2="1643.1675" y1="261.2578" y2="261.2578"/><text fill="#000000" font-family="sans-serif" font-size="13" lengthAdjust="spacing" textLength="30.4688" x="515.5815" y="256.1919">Auth</text></g><g class="message" data-participant-1="CustomOAuth2UserService" data-participant-2="SecurityContext"><polygon fill="#181818" points="1923.0586,286.3906,1933.0586,290.3906,1923.0586,294.3906,1927.0586,290.3906" style="stroke:#181818;stroke-width:1;"/><line style="stroke:#181818;stroke-width:1;" x1="498.5815" x2="1929.0586" y1="290.3906" y2="290.3906"/><text fill="#000000" font-family="sans-serif" font-size="13" lengthAdjust="spacing" textLength="166.4736" x="505.5815" y="285.3247">saveAuthentication(Auth)</text></g><g class="message" data-participant-1="OAuth2LoginFilter" data-participant-2="User"><polygon fill="#181818" points="49.9551,315.5234,39.9551,319.5234,49.9551,323.5234,45.9551,319.5234" style="stroke:#181818;stroke-width:1;"/><line style="stroke:#181818;stroke-width:1;stroke-dasharray:2.0,2.0;" x1="43.9551" x2="276.3091" y1="319.5234" y2="319.5234"/><text fill="#000000" font-family="sans-serif" font-size="13" lengthAdjust="spacing" textLength="43.1387" x="55.9551" y="314.4575">&#47196;&#44536;&#51064; &#49457;&#44277;</text></g><line style="stroke:#000000;stroke-width:1;stroke-dasharray:2.0,2.0;" x1="10" x2="2095.4585" y1="328.5234" y2="328.5234"/><text fill="#000000" font-family="sans-serif" font-size="11" font-weight="bold" lengthAdjust="spacing" textLength="46.8896" x="15" y="338.7339">[&#52572;&#52488; &#47196;&#44536;&#51064;]</text><g class="message" data-participant-1="AuthRepository" data-participant-2="CustomOAuth2UserService"><polygon fill="#181818" points="509.5815,359.4609,499.5815,363.4609,509.5815,367.4609,505.5815,363.4609" style="stroke:#181818;stroke-width:1;"/><line style="stroke:#181818;stroke-width:1;stroke-dasharray:2.0,2.0;" x1="503.5815" x2="1643.1675" y1="363.4609" y2="363.4609"/><text fill="#000000" font-family="sans-serif" font-size="13" lengthAdjust="spacing" textLength="23.7021" x="515.5815" y="358.395">null</text></g><g class="message" data-participant-1="CustomOAuth2UserService" data-participant-2="OAuth2LoginFilter"><polygon fill="#181818" points="288.3091,388.5938,278.3091,392.5938,288.3091,396.5938,284.3091,392.5938" style="stroke:#181818;stroke-width:1;"/><line style="stroke:#181818;stroke-width:1;stroke-dasharray:2.0,2.0;" x1="282.3091" x2="497.5815" y1="392.5938" y2="392.5938"/><text fill="#000000" font-family="sans-serif" font-size="13" lengthAdjust="spacing" textLength="47.271" x="294.3091" y="387.5278">&#51064;&#51613;&#51008; &#50504; &#46120;</text></g><g class="message" data-participant-1="OAuth2LoginFilter" data-participant-2="Frontend"><polygon fill="#181818" points="2034.9038,417.7266,2044.9038,421.7266,2034.9038,425.7266,2038.9038,421.7266" style="stroke:#181818;stroke-width:1;"/><line style="stroke:#181818;stroke-width:1;" x1="277.3091" x2="2040.9038" y1="421.7266" y2="421.7266"/><text fill="#000000" font-family="sans-serif" font-size="13" lengthAdjust="spacing" textLength="155.0859" x="284.3091" y="416.6606">redirect to /signup-form</text></g><g class="message" data-participant-1="User" data-participant-2="MemberController"><polygon fill="#181818" points="717.7861,468.9922,727.7861,472.9922,717.7861,476.9922,721.7861,472.9922" style="stroke:#181818;stroke-width:1;"/><line style="stroke:#181818;stroke-width:1;" x1="38.9551" x2="723.7861" y1="472.9922" y2="472.9922"/><text fill="#000000" font-family="sans-serif" font-size="13" lengthAdjust="spacing" textLength="152.2168" x="45.9551" y="452.7935">POST /members/signup</text><text fill="#000000" font-family="sans-serif" font-size="13" lengthAdjust="spacing" textLength="287.6758" x="45.9551" y="467.9263">(accessToken, nickname, birthYear, gender)</text></g><g class="message" data-participant-1="MemberController" data-participant-2="MemberService"><polygon fill="#181818" points="1023.5015,498.125,1033.5015,502.125,1023.5015,506.125,1027.5015,502.125" style="stroke:#181818;stroke-width:1;"/><line style="stroke:#181818;stroke-width:1;" x1="729.7861" x2="1029.5015" y1="502.125" y2="502.125"/><text fill="#000000" font-family="sans-serif" font-size="13" lengthAdjust="spacing" textLength="281.7153" x="736.7861" y="497.0591">registerSocialMember(token, nickname, ...)</text></g><g class="message" data-participant-1="MemberService" data-participant-2="AuthClient"><polygon fill="#181818" points="1454.7119,527.2578,1464.7119,531.2578,1454.7119,535.2578,1458.7119,531.2578" style="stroke:#181818;stroke-width:1;"/><line style="stroke:#181818;stroke-width:1;" x1="1035.5015" x2="1460.7119" y1="531.2578" y2="531.2578"/><text fill="#000000" font-family="sans-serif" font-size="13" lengthAdjust="spacing" textLength="131.4536" x="1042.5015" y="526.1919">getSocialInfo(token)</text></g><g class="message" data-participant-1="AuthClient" data-participant-2="MemberService"><polygon fill="#181818" points="1046.5015,556.3906,1036.5015,560.3906,1046.5015,564.3906,1042.5015,560.3906" style="stroke:#181818;stroke-width:1;"/><line style="stroke:#181818;stroke-width:1;stroke-dasharray:2.0,2.0;" x1="1040.5015" x2="1465.7119" y1="560.3906" y2="560.3906"/><text fill="#000000" font-family="sans-serif" font-size="13" lengthAdjust="spacing" textLength="202.998" x="1052.5015" y="555.3247">provider, providerUserId, email</text></g><g class="message" data-participant-1="MemberService" data-participant-2="AuthService"><polygon fill="#181818" points="1351.7637,585.5234,1361.7637,589.5234,1351.7637,593.5234,1355.7637,589.5234" style="stroke:#181818;stroke-width:1;"/><line style="stroke:#181818;stroke-width:1;" x1="1035.5015" x2="1357.7637" y1="589.5234" y2="589.5234"/><text fill="#000000" font-family="sans-serif" font-size="13" lengthAdjust="spacing" textLength="304.2622" x="1042.5015" y="584.4575">registerOAuth(provider, providerUserId, email)</text></g><g class="message" data-participant-1="AuthService" data-participant-2="Auth"><polygon fill="#181818" points="646.0005,614.6563,636.0005,618.6563,646.0005,622.6563,642.0005,618.6563" style="stroke:#181818;stroke-width:1;"/><line style="stroke:#181818;stroke-width:1;" x1="640.0005" x2="1362.7637" y1="618.6563" y2="618.6563"/><text fill="#000000" font-family="sans-serif" font-size="13" lengthAdjust="spacing" textLength="354.1548" x="652.0005" y="613.5903">Auth.createOAuth(provider, providerUserId, rawEmail)</text></g><g class="message" data-participant-1="Auth" data-participant-2="Email"><polygon fill="#181818" points="1534.8042,643.7891,1544.8042,647.7891,1534.8042,651.7891,1538.8042,647.7891" style="stroke:#181818;stroke-width:1;"/><line style="stroke:#181818;stroke-width:1;" x1="635.0005" x2="1540.8042" y1="647.7891" y2="647.7891"/><text fill="#000000" font-family="sans-serif" font-size="13" lengthAdjust="spacing" textLength="122.8843" x="642.0005" y="642.7231">Email.of(rawEmail)</text></g><g class="message" data-participant-1="Email" data-participant-2="Auth"><polygon fill="#181818" points="641.0005,672.9219,631.0005,676.9219,641.0005,680.9219,637.0005,676.9219" style="stroke:#181818;stroke-width:1;"/><line style="stroke:#181818;stroke-width:1;stroke-dasharray:2.0,2.0;" x1="635.0005" x2="1545.8042" y1="676.9219" y2="676.9219"/><text fill="#000000" font-family="sans-serif" font-size="13" lengthAdjust="spacing" textLength="36.0674" x="647.0005" y="671.856">Email</text></g><g class="message" data-participant-1="AuthService" data-participant-2="AuthRepository"><polygon fill="#181818" points="1632.1675,702.0547,1642.1675,706.0547,1632.1675,710.0547,1636.1675,706.0547" style="stroke:#181818;stroke-width:1;"/><line style="stroke:#181818;stroke-width:1;" x1="1363.7637" x2="1638.1675" y1="706.0547" y2="706.0547"/><text fill="#000000" font-family="sans-serif" font-size="13" lengthAdjust="spacing" textLength="71.043" x="1370.7637" y="700.9888">save(Auth)</text></g><g class="message" data-participant-1="MemberService" data-participant-2="MemberRepository"><polygon fill="#181818" points="1776.439,731.1875,1786.439,735.1875,1776.439,739.1875,1780.439,735.1875" style="stroke:#181818;stroke-width:1;"/><line style="stroke:#181818;stroke-width:1;" x1="1035.5015" x2="1782.439" y1="735.1875" y2="735.1875"/><text fill="#000000" font-family="sans-serif" font-size="13" lengthAdjust="spacing" textLength="226.3765" x="1042.5015" y="730.1216">save(nickname, birthYear, gender)</text></g><g class="message" data-participant-1="MemberRepository" data-participant-2="MemberService"><polygon fill="#181818" points="1046.5015,760.3203,1036.5015,764.3203,1046.5015,768.3203,1042.5015,764.3203" style="stroke:#181818;stroke-width:1;"/><line style="stroke:#181818;stroke-width:1;stroke-dasharray:2.0,2.0;" x1="1040.5015" x2="1787.439" y1="764.3203" y2="764.3203"/><text fill="#000000" font-family="sans-serif" font-size="13" lengthAdjust="spacing" textLength="67.0059" x="1052.5015" y="759.2544">memberId</text></g><g class="message" data-participant-1="MemberService" data-participant-2="AuthService"><polygon fill="#181818" points="1351.7637,789.4531,1361.7637,793.4531,1351.7637,797.4531,1355.7637,793.4531" style="stroke:#181818;stroke-width:1;"/><line style="stroke:#181818;stroke-width:1;" x1="1035.5015" x2="1357.7637" y1="793.4531" y2="793.4531"/><text fill="#000000" font-family="sans-serif" font-size="13" lengthAdjust="spacing" textLength="203.5059" x="1042.5015" y="788.3872">linkMember(authId, memberId)</text></g><g class="message" data-participant-1="AuthService" data-participant-2="AuthRepository"><polygon fill="#181818" points="1632.1675,818.5859,1642.1675,822.5859,1632.1675,826.5859,1636.1675,822.5859" style="stroke:#181818;stroke-width:1;"/><line style="stroke:#181818;stroke-width:1;" x1="1363.7637" x2="1638.1675" y1="822.5859" y2="822.5859"/><text fill="#000000" font-family="sans-serif" font-size="13" lengthAdjust="spacing" textLength="105.1489" x="1370.7637" y="817.52">findById(authId)</text></g><g class="message" data-participant-1="AuthService" data-participant-2="Auth"><polygon fill="#181818" points="641.0005,847.7188,631.0005,851.7188,641.0005,855.7188,637.0005,851.7188" style="stroke:#181818;stroke-width:1;"/><line style="stroke:#181818;stroke-width:1;" x1="635.0005" x2="1362.7637" y1="851.7188" y2="851.7188"/><text fill="#000000" font-family="sans-serif" font-size="13" lengthAdjust="spacing" textLength="153.6133" x="647.0005" y="846.6528">linkMember(memberId)</text></g><g class="message" data-participant-1="AuthService" data-participant-2="AuthRepository"><polygon fill="#181818" points="1632.1675,876.8516,1642.1675,880.8516,1632.1675,884.8516,1636.1675,880.8516" style="stroke:#181818;stroke-width:1;"/><line style="stroke:#181818;stroke-width:1;" x1="1363.7637" x2="1638.1675" y1="880.8516" y2="880.8516"/><text fill="#000000" font-family="sans-serif" font-size="13" lengthAdjust="spacing" textLength="71.043" x="1370.7637" y="875.7856">save(Auth)</text></g><g class="message" data-participant-1="AuthService" data-participant-2="SecurityContext"><polygon fill="#181818" points="1923.0586,905.9844,1933.0586,909.9844,1923.0586,913.9844,1927.0586,909.9844" style="stroke:#181818;stroke-width:1;"/><line style="stroke:#181818;stroke-width:1;" x1="1363.7637" x2="1929.0586" y1="909.9844" y2="909.9844"/><text fill="#000000" font-family="sans-serif" font-size="13" lengthAdjust="spacing" textLength="166.4736" x="1370.7637" y="904.9185">saveAuthentication(Auth)</text></g><g class="message" data-participant-1="MemberService" data-participant-2="MemberController"><polygon fill="#181818" points="740.7861,935.1172,730.7861,939.1172,740.7861,943.1172,736.7861,939.1172" style="stroke:#181818;stroke-width:1;"/><line style="stroke:#181818;stroke-width:1;stroke-dasharray:2.0,2.0;" x1="734.7861" x2="1034.5015" y1="939.1172" y2="939.1172"/><text fill="#000000" font-family="sans-serif" font-size="13" lengthAdjust="spacing" textLength="118.3076" x="746.7861" y="934.0513">HTTP 201 Created</text></g><!--SRC=[bLGxJnj14ExtLqnv9_cHK58W4GiIIub0s2aYfLdkncRbzQwpjtP2Aef4If621WabW4GJKQHm553ycypn7x9xUyRSdS-6ne-T-RvvVJEQQOwmipdK1p2TZ6_7ft3tutlyytWwFeellX920oqLl8rGaG5LcWLiG8LsYBNNiil4DkCwPsqC8otxpiT2MwX6BC2CZpNkuK16p0Gu92WqquV9QyRj3VRtKJMaq4fodelZZ6NiPUyDpaoqpFDMdpA-BBrYr19Z2uEXCfNOZF6J9iJM3zMDOiTW7LvkjQ4kgJNKxQTKx3FLJ8fwZ_Qe94MC8Iffhg7ZaeRsnPFtnZtyCCH8-wGCPGYpfHgU3XFXYyDT9KSiHBKfmjbF2so6dayern1VNiSNl-zEhWZaAQfBqqnc3B0aermJ3IQY8xIULYP1qYBF_lKDpu8c6OgaxUjmUtas_JU9poSGV_ap_Nj3a4S8ySrPVFrjRdng1MB8-R8AIiPj8iM_pkFp8uXFJFJZgyNPRy2sieMBq60KXanXe45Bg4UiAuQ3QaUglbcOS2wk_9OOuEvEouYhdnYY5FbUU3G8C8hQieUY0e85FK7xM85zflJ1EwIg0bt3ZCed1SxxEFD6AEooo2JTaW6Zt5azdIUlrMe-8LbigZktYuQfYzgHD4L7EWgVFF2eBeW-I6LPkV_b15e1JFPvSSXYziaCl1LiBfiSLwhcMg2GQbp5e-Z7BKTbhYeR6OJRXOJ9C2P6GvbyrsJ7cmESgJeFwovMY5ccHJbcLjlkKRevnUxa3zlC_n4ooQrEVb9EXirmvKWu4xrKHlOWsgxDiFxAujpTCWVAGSiczY36uxaVDYxd-uHhbIz_yUg-QhTtOUtPSsWaiWh_0m00]--></g></svg>