<svg xmlns="http://www.w3.org/2000/svg" xmlns:xlink="http://www.w3.org/1999/xlink" contentStyleType="text/css" data-diagram-type="SEQUENCE" height="630px" preserveAspectRatio="none" style="width:1400px;height:630px;background:#FFFFFF;" version="1.1" viewBox="0 0 1400 630" width="1400px" zoomAndPan="magnify"><title>Add comment</title><defs/><g><text fill="#000000" font-family="sans-serif" font-size="14" font-weight="bold" lengthAdjust="spacing" textLength="108.999" x="646.7961" y="27.9951">Add comment</text><g><title>Comment</title><rect fill="#FFFFFF" height="29.1328" style="stroke:#181818;stroke-width:1;" width="10" x="1158.3462" y="305.5234"/></g><rect fill="none" height="294.1328" style="stroke:#000000;stroke-width:1.5;" width="1383.5913" x="10" y="238.125"/><g><title>Client</title><rect fill="#000000" fill-opacity="0.00000" height="430.6641" width="8" x="39.2651" y="118.5938"/><line style="stroke:#181818;stroke-width:0.5;stroke-dasharray:5.0,5.0;" x1="43" x2="43" y1="118.5938" y2="549.2578"/></g><g><title>CommentCommandController</title><rect fill="#000000" fill-opacity="0.00000" height="430.6641" width="8" x="333.2944" y="118.5938"/><line style="stroke:#181818;stroke-width:0.5;stroke-dasharray:5.0,5.0;" x1="336.4346" x2="336.4346" y1="118.5938" y2="549.2578"/></g><g><title>CommentCommandService</title><rect fill="#000000" fill-opacity="0.00000" height="430.6641" width="8" x="597.877" y="118.5938"/><line style="stroke:#181818;stroke-width:0.5;stroke-dasharray:5.0,5.0;" x1="601.7329" x2="601.7329" y1="118.5938" y2="549.2578"/></g><g><title>PostQueryRepository</title><rect fill="#000000" fill-opacity="0.00000" height="430.6641" width="8" x="791.7261" y="118.5938"/><line style="stroke:#181818;stroke-width:0.5;stroke-dasharray:5.0,5.0;" x1="795.021" x2="795.021" y1="118.5938" y2="549.2578"/></g><g><title>CommentCommandRepository</title><rect fill="#000000" fill-opacity="0.00000" height="430.6641" width="8" x="997.2407" y="118.5938"/><line style="stroke:#181818;stroke-width:0.5;stroke-dasharray:5.0,5.0;" x1="1000.4312" x2="1000.4312" y1="118.5938" y2="549.2578"/></g><g><title>Comment</title><rect fill="#000000" fill-opacity="0.00000" height="430.6641" width="8" x="1159.3462" y="118.5938"/><line style="stroke:#181818;stroke-width:0.5;stroke-dasharray:5.0,5.0;" x1="1163.0503" x2="1163.0503" y1="118.5938" y2="549.2578"/></g><g><title>DomainEventPublisher</title><rect fill="#000000" fill-opacity="0.00000" height="430.6641" width="8" x="1293.1167" y="118.5938"/><line style="stroke:#181818;stroke-width:0.5;stroke-dasharray:5.0,5.0;" x1="1296.6421" x2="1296.6421" y1="118.5938" y2="549.2578"/></g><g class="participant participant-head" data-participant="Client"><text fill="#000000" font-family="sans-serif" font-size="14" lengthAdjust="spacing" textLength="40.5303" x="20" y="115.292">Client</text><ellipse cx="43.2651" cy="50.7969" fill="#E2E2F0" rx="8" ry="8" style="stroke:#181818;stroke-width:0.5;"/><path d="M43.2651,58.7969 L43.2651,85.7969 M30.2651,66.7969 L56.2651,66.7969 M43.2651,85.7969 L30.2651,100.7969 M43.2651,85.7969 L56.2651,100.7969" fill="none" style="stroke:#181818;stroke-width:0.5;"/></g><g class="participant participant-tail" data-participant="Client"><text fill="#000000" font-family="sans-serif" font-size="14" lengthAdjust="spacing" textLength="40.5303" x="20" y="561.2529">Client</text><ellipse cx="43.2651" cy="573.0547" fill="#E2E2F0" rx="8" ry="8" style="stroke:#181818;stroke-width:0.5;"/><path d="M43.2651,581.0547 L43.2651,608.0547 M30.2651,589.0547 L56.2651,589.0547 M43.2651,608.0547 L30.2651,623.0547 M43.2651,608.0547 L56.2651,623.0547" fill="none" style="stroke:#181818;stroke-width:0.5;"/></g><g class="participant participant-head" data-participant="CommentCommandController"><rect fill="#E2E2F0" height="30.2969" rx="2.5" ry="2.5" style="stroke:#181818;stroke-width:0.5;" width="223.7197" x="225.4346" y="87.2969"/><text fill="#000000" font-family="sans-serif" font-size="14" lengthAdjust="spacing" textLength="209.7197" x="232.4346" y="107.292">CommentCommandController</text></g><g class="participant participant-tail" data-participant="CommentCommandController"><rect fill="#E2E2F0" height="30.2969" rx="2.5" ry="2.5" style="stroke:#181818;stroke-width:0.5;" width="223.7197" x="225.4346" y="548.2578"/><text fill="#000000" font-family="sans-serif" font-size="14" lengthAdjust="spacing" textLength="209.7197" x="232.4346" y="568.2529">CommentCommandController</text></g><g class="participant participant-head" data-participant="CommentCommandService"><rect fill="#E2E2F0" height="30.2969" rx="2.5" ry="2.5" style="stroke:#181818;stroke-width:0.5;" width="206.2881" x="498.7329" y="87.2969"/><text fill="#000000" font-family="sans-serif" font-size="14" lengthAdjust="spacing" textLength="192.2881" x="505.7329" y="107.292">CommentCommandService</text></g><g class="participant participant-tail" data-participant="CommentCommandService"><rect fill="#E2E2F0" height="30.2969" rx="2.5" ry="2.5" style="stroke:#181818;stroke-width:0.5;" width="206.2881" x="498.7329" y="548.2578"/><text fill="#000000" font-family="sans-serif" font-size="14" lengthAdjust="spacing" textLength="192.2881" x="505.7329" y="568.2529">CommentCommandService</text></g><g class="participant participant-head" data-participant="PostQueryRepository"><rect fill="#FFFF00" height="30.2969" rx="2.5" ry="2.5" style="stroke:#181818;stroke-width:0.5;" width="161.4102" x="715.021" y="87.2969"/><text fill="#000000" font-family="sans-serif" font-size="14" lengthAdjust="spacing" textLength="147.4102" x="722.021" y="107.292">PostQueryRepository</text></g><g class="participant participant-tail" data-participant="PostQueryRepository"><rect fill="#FFFF00" height="30.2969" rx="2.5" ry="2.5" style="stroke:#181818;stroke-width:0.5;" width="161.4102" x="715.021" y="548.2578"/><text fill="#000000" font-family="sans-serif" font-size="14" lengthAdjust="spacing" textLength="147.4102" x="722.021" y="568.2529">PostQueryRepository</text></g><g class="participant participant-head" data-participant="CommentCommandRepository"><rect fill="#E2E2F0" height="30.2969" rx="2.5" ry="2.5" style="stroke:#181818;stroke-width:0.5;" width="229.6191" x="886.4312" y="87.2969"/><text fill="#000000" font-family="sans-serif" font-size="14" lengthAdjust="spacing" textLength="215.6191" x="893.4312" y="107.292">CommentCommandRepository</text></g><g class="participant participant-tail" data-participant="CommentCommandRepository"><rect fill="#E2E2F0" height="30.2969" rx="2.5" ry="2.5" style="stroke:#181818;stroke-width:0.5;" width="229.6191" x="886.4312" y="548.2578"/><text fill="#000000" font-family="sans-serif" font-size="14" lengthAdjust="spacing" textLength="215.6191" x="893.4312" y="568.2529">CommentCommandRepository</text></g><g class="participant participant-head" data-participant="Comment"><text fill="#000000" font-family="sans-serif" font-size="14" lengthAdjust="spacing" textLength="68.5918" x="1126.0503" y="115.292">Comment</text><ellipse cx="1163.3462" cy="86.2969" fill="#E2E2F0" rx="12" ry="12" style="stroke:#181818;stroke-width:0.5;"/><line style="stroke:#181818;stroke-width:0.5;" x1="1151.3462" x2="1175.3462" y1="100.2969" y2="100.2969"/></g><g class="participant participant-tail" data-participant="Comment"><text fill="#000000" font-family="sans-serif" font-size="14" lengthAdjust="spacing" textLength="68.5918" x="1126.0503" y="561.2529">Comment</text><ellipse cx="1163.3462" cy="580.5547" fill="#E2E2F0" rx="12" ry="12" style="stroke:#181818;stroke-width:0.5;"/><line style="stroke:#181818;stroke-width:0.5;" x1="1151.3462" x2="1175.3462" y1="594.5547" y2="594.5547"/></g><g class="participant participant-head" data-participant="DomainEventPublisher"><rect fill="#87CEEB" height="30.2969" rx="2.5" ry="2.5" style="stroke:#181818;stroke-width:0.5;" width="172.9492" x="1210.6421" y="87.2969"/><text fill="#000000" font-family="sans-serif" font-size="14" lengthAdjust="spacing" textLength="158.9492" x="1217.6421" y="107.292">DomainEventPublisher</text></g><g class="participant participant-tail" data-participant="DomainEventPublisher"><rect fill="#87CEEB" height="30.2969" rx="2.5" ry="2.5" style="stroke:#181818;stroke-width:0.5;" width="172.9492" x="1210.6421" y="548.2578"/><text fill="#000000" font-family="sans-serif" font-size="14" lengthAdjust="spacing" textLength="158.9492" x="1217.6421" y="568.2529">DomainEventPublisher</text></g><g><title>Comment</title><rect fill="#FFFFFF" height="29.1328" style="stroke:#181818;stroke-width:1;" width="10" x="1158.3462" y="305.5234"/></g><g class="message" data-participant-1="Client" data-participant-2="CommentCommandController"><polygon fill="#181818" points="325.2944,160.8594,335.2944,164.8594,325.2944,168.8594,329.2944,164.8594" style="stroke:#181818;stroke-width:1;"/><line style="stroke:#181818;stroke-width:1;" x1="43.2651" x2="331.2944" y1="164.8594" y2="164.8594"/><text fill="#000000" font-family="sans-serif" font-size="13" lengthAdjust="spacing" textLength="34.2646" x="50.2651" y="144.6606">POST</text><text fill="#000000" font-family="sans-serif" font-size="13" lengthAdjust="spacing" textLength="187.5732" x="50.2651" y="159.7935">/comments?postId={postId}</text></g><g class="message" data-participant-1="CommentCommandController" data-participant-2="CommentCommandService"><polygon fill="#181818" points="589.877,189.9922,599.877,193.9922,589.877,197.9922,593.877,193.9922" style="stroke:#181818;stroke-width:1;"/><line style="stroke:#181818;stroke-width:1;" x1="337.2944" x2="595.877" y1="193.9922" y2="193.9922"/><text fill="#000000" font-family="sans-serif" font-size="13" lengthAdjust="spacing" textLength="240.5825" x="344.2944" y="188.9263">createComment(userId, postId, cmd)</text></g><g class="message" data-participant-1="CommentCommandService" data-participant-2="PostQueryRepository"><polygon fill="#181818" points="783.7261,219.125,793.7261,223.125,783.7261,227.125,787.7261,223.125" style="stroke:#181818;stroke-width:1;"/><line style="stroke:#181818;stroke-width:1;" x1="601.877" x2="789.7261" y1="223.125" y2="223.125"/><text fill="#000000" font-family="sans-serif" font-size="13" lengthAdjust="spacing" textLength="110.1763" x="608.877" y="218.0591">existById(postId)</text></g><path d="M10,238.125 L74.4429,238.125 L74.4429,245.2578 L64.4429,255.2578 L10,255.2578 L10,238.125" fill="#EEEEEE" style="stroke:#000000;stroke-width:1.5;"/><rect fill="none" height="294.1328" style="stroke:#000000;stroke-width:1.5;" width="1383.5913" x="10" y="238.125"/><text fill="#000000" font-family="sans-serif" font-size="13" font-weight="bold" lengthAdjust="spacing" textLength="19.4429" x="25" y="251.1919">alt</text><text fill="#000000" font-family="sans-serif" font-size="11" font-weight="bold" lengthAdjust="spacing" textLength="71.4409" x="89.4429" y="250.3354">[Post exist]</text><g class="message" data-participant-1="PostQueryRepository" data-participant-2="CommentCommandService"><polygon fill="#181818" points="612.877,272.3906,602.877,276.3906,612.877,280.3906,608.877,276.3906" style="stroke:#181818;stroke-width:1;"/><line style="stroke:#181818;stroke-width:1;stroke-dasharray:2.0,2.0;" x1="606.877" x2="794.7261" y1="276.3906" y2="276.3906"/><text fill="#000000" font-family="sans-serif" font-size="13" lengthAdjust="spacing" textLength="26.6792" x="618.877" y="271.3247">true</text></g><g class="message" data-participant-1="CommentCommandService" data-participant-2="Comment"><polygon fill="#181818" points="1146.3462,301.5234,1156.3462,305.5234,1146.3462,309.5234,1150.3462,305.5234" style="stroke:#181818;stroke-width:1;"/><line style="stroke:#181818;stroke-width:1;" x1="601.877" x2="1152.3462" y1="305.5234" y2="305.5234"/><text fill="#000000" font-family="sans-serif" font-size="13" lengthAdjust="spacing" textLength="235.4346" x="608.877" y="300.4575">Comment.write(userId, PostId, cmd)</text></g><g class="message" data-participant-1="Comment" data-participant-2="CommentCommandService"><polygon fill="#181818" points="612.877,330.6563,602.877,334.6563,612.877,338.6563,608.877,334.6563" style="stroke:#181818;stroke-width:1;"/><line style="stroke:#181818;stroke-width:1;stroke-dasharray:2.0,2.0;" x1="606.877" x2="1162.3462" y1="334.6563" y2="334.6563"/><text fill="#000000" font-family="sans-serif" font-size="13" lengthAdjust="spacing" textLength="119.5581" x="618.877" y="329.5903">Comment Created</text></g><g class="message" data-participant-1="CommentCommandService" data-participant-2="CommentCommandRepository"><polygon fill="#181818" points="989.2407,359.7891,999.2407,363.7891,989.2407,367.7891,993.2407,363.7891" style="stroke:#181818;stroke-width:1;"/><line style="stroke:#181818;stroke-width:1;" x1="601.877" x2="995.2407" y1="363.7891" y2="363.7891"/><text fill="#000000" font-family="sans-serif" font-size="13" lengthAdjust="spacing" textLength="104.2666" x="608.877" y="358.7231">save(Comment)</text></g><g class="message" data-participant-1="CommentCommandRepository" data-participant-2="CommentCommandService"><polygon fill="#181818" points="612.877,388.9219,602.877,392.9219,612.877,396.9219,608.877,392.9219" style="stroke:#181818;stroke-width:1;"/><line style="stroke:#181818;stroke-width:1;stroke-dasharray:2.0,2.0;" x1="606.877" x2="1000.2407" y1="392.9219" y2="392.9219"/><text fill="#000000" font-family="sans-serif" font-size="13" lengthAdjust="spacing" textLength="130.1714" x="618.877" y="387.856">CommentDetailDTO</text></g><g class="message" data-participant-1="CommentCommandService" data-participant-2="DomainEventPublisher"><polygon fill="#181818" points="1285.1167,418.0547,1295.1167,422.0547,1285.1167,426.0547,1289.1167,422.0547" style="stroke:#181818;stroke-width:1;"/><line style="stroke:#181818;stroke-width:1;" x1="601.877" x2="1291.1167" y1="422.0547" y2="422.0547"/><text fill="#000000" font-family="sans-serif" font-size="13" lengthAdjust="spacing" textLength="209.79" x="608.877" y="416.9888">publish(CommentCreatedEvent)</text></g><g class="message" data-participant-1="CommentCommandService" data-participant-2="CommentCommandController"><polygon fill="#181818" points="348.2944,447.1875,338.2944,451.1875,348.2944,455.1875,344.2944,451.1875" style="stroke:#181818;stroke-width:1;"/><line style="stroke:#181818;stroke-width:1;stroke-dasharray:2.0,2.0;" x1="342.2944" x2="600.877" y1="451.1875" y2="451.1875"/><text fill="#000000" font-family="sans-serif" font-size="13" lengthAdjust="spacing" textLength="147.9258" x="354.2944" y="446.1216">CommentCreateResult</text></g><g class="message" data-participant-1="CommentCommandController" data-participant-2="Client"><polygon fill="#181818" points="54.2651,476.3203,44.2651,480.3203,54.2651,484.3203,50.2651,480.3203" style="stroke:#181818;stroke-width:1;"/><line style="stroke:#181818;stroke-width:1;stroke-dasharray:2.0,2.0;" x1="48.2651" x2="336.2944" y1="480.3203" y2="480.3203"/><text fill="#000000" font-family="sans-serif" font-size="13" lengthAdjust="spacing" textLength="270.0293" x="60.2651" y="475.2544">201 Created + CommentCreateResponse</text></g><line style="stroke:#000000;stroke-width:1;stroke-dasharray:2.0,2.0;" x1="10" x2="1393.5913" y1="489.3203" y2="489.3203"/><text fill="#000000" font-family="sans-serif" font-size="11" font-weight="bold" lengthAdjust="spacing" textLength="95.917" x="15" y="499.5308">[Post not exist]</text><g class="message" data-participant-1="PostQueryRepository" data-participant-2="Client"><polygon fill="#181818" points="54.2651,520.2578,44.2651,524.2578,54.2651,528.2578,50.2651,524.2578" style="stroke:#181818;stroke-width:1;"/><line style="stroke:#181818;stroke-width:1;stroke-dasharray:2.0,2.0;" x1="48.2651" x2="794.7261" y1="524.2578" y2="524.2578"/><text fill="#000000" font-family="sans-serif" font-size="13" lengthAdjust="spacing" textLength="112.3091" x="60.2651" y="519.1919">POST_NOT_EXIST</text></g><!--SRC=[ZLFHJi8m57tlLrpZ0n2LgOyaQXH8v4KGUF31n9Jr1XkxTcdlqCNuxtRhfXBOS5cohZttzDpJKvAa46w5WDWa2MfYZCTaB0oLBFvIRad6CkMQO1WGnOThCJIQh54ARGjeWNOZOzn2p8oZnmnjFiVKEEato-4uHwNCUmlJBvZvIKavb4y5sYeScOHBFTxu-LcsKjAzeeLZzvQlL8QCiT0Qd5qtTWG3c4qNosSTLQwu6xyxJSJLP_X-iSRI7ThA0yyPM-I4rMetSsWduXG2uod4YUWnjh_Ma-wpRG3u8HtTvHFH3JGznbMmE2onVMLdBHh95XurggWMFB0QzT-j9FnfPlQt6PyakV4T_vnINTqceCOCIxC44xX3Sr3UJcOyh-CRx5RhFTO8_8Uq4HANQhISjWZPcy41f65SwwXwB67DPzyUr2sgERfCKKiu2wuG_m70vVb5RJESx12bHZiV1LGEGw2qEHYgchguFIyFq-NB-6coMFeRAnZh74aTgqmWzFjHUB5e_DvBL5AlevNXjXIB7nGLSRvThosklPfesw-o0ljfbYZM-GO0]--></g></svg>