<svg xmlns="http://www.w3.org/2000/svg" xmlns:xlink="http://www.w3.org/1999/xlink" contentStyleType="text/css" data-diagram-type="SEQUENCE" height="740px" preserveAspectRatio="none" style="width:1229px;height:740px;background:#FFFFFF;" version="1.1" viewBox="0 0 1229 740" width="1229px" zoomAndPan="magnify"><title>Delete comment</title><defs/><g><text fill="#000000" font-family="sans-serif" font-size="14" font-weight="bold" lengthAdjust="spacing" textLength="129.7188" x="551.1248" y="27.9951">Delete comment</text><g><title>Comment</title><rect fill="#FFFFFF" height="53.2656" style="stroke:#181818;stroke-width:1;" width="10" x="987.7231" y="281.3906"/></g><g><title>Comment</title><rect fill="#FFFFFF" height="30" style="stroke:#181818;stroke-width:1;" width="10" x="987.7231" y="363.7891"/></g><rect fill="none" height="265.8672" style="stroke:#000000;stroke-width:1.5;" width="1212.9683" x="10" y="296.3906"/><g><title>Client</title><rect fill="#000000" fill-opacity="0.00000" height="541.1953" width="8" x="39.2651" y="118.5938"/><line style="stroke:#181818;stroke-width:0.5;stroke-dasharray:5.0,5.0;" x1="43" x2="43" y1="118.5938" y2="659.7891"/></g><g><title>CommentCommandController</title><rect fill="#000000" fill-opacity="0.00000" height="541.1953" width="8" x="299.5503" y="118.5938"/><line style="stroke:#181818;stroke-width:0.5;stroke-dasharray:5.0,5.0;" x1="302.6904" x2="302.6904" y1="118.5938" y2="659.7891"/></g><g><title>CommentCommandService</title><rect fill="#000000" fill-opacity="0.00000" height="541.1953" width="8" x="598.6641" y="118.5938"/><line style="stroke:#181818;stroke-width:0.5;stroke-dasharray:5.0,5.0;" x1="602.52" x2="602.52" y1="118.5938" y2="659.7891"/></g><g><title>CommentCommandRepository</title><rect fill="#000000" fill-opacity="0.00000" height="541.1953" width="8" x="826.6177" y="118.5938"/><line style="stroke:#181818;stroke-width:0.5;stroke-dasharray:5.0,5.0;" x1="829.8081" x2="829.8081" y1="118.5938" y2="659.7891"/></g><g><title>Comment</title><rect fill="#000000" fill-opacity="0.00000" height="541.1953" width="8" x="988.7231" y="118.5938"/><line style="stroke:#181818;stroke-width:0.5;stroke-dasharray:5.0,5.0;" x1="992.4272" x2="992.4272" y1="118.5938" y2="659.7891"/></g><g><title>DomainEventPublisher</title><rect fill="#000000" fill-opacity="0.00000" height="541.1953" width="8" x="1122.4937" y="118.5938"/><line style="stroke:#181818;stroke-width:0.5;stroke-dasharray:5.0,5.0;" x1="1126.019" x2="1126.019" y1="118.5938" y2="659.7891"/></g><g class="participant participant-head" data-participant="Client"><text fill="#000000" font-family="sans-serif" font-size="14" lengthAdjust="spacing" textLength="40.5303" x="20" y="115.292">Client</text><ellipse cx="43.2651" cy="50.7969" fill="#E2E2F0" rx="8" ry="8" style="stroke:#181818;stroke-width:0.5;"/><path d="M43.2651,58.7969 L43.2651,85.7969 M30.2651,66.7969 L56.2651,66.7969 M43.2651,85.7969 L30.2651,100.7969 M43.2651,85.7969 L56.2651,100.7969" fill="none" style="stroke:#181818;stroke-width:0.5;"/></g><g class="participant participant-tail" data-participant="Client"><text fill="#000000" font-family="sans-serif" font-size="14" lengthAdjust="spacing" textLength="40.5303" x="20" y="671.7842">Client</text><ellipse cx="43.2651" cy="683.5859" fill="#E2E2F0" rx="8" ry="8" style="stroke:#181818;stroke-width:0.5;"/><path d="M43.2651,691.5859 L43.2651,718.5859 M30.2651,699.5859 L56.2651,699.5859 M43.2651,718.5859 L30.2651,733.5859 M43.2651,718.5859 L56.2651,733.5859" fill="none" style="stroke:#181818;stroke-width:0.5;"/></g><g class="participant participant-head" data-participant="CommentCommandController"><rect fill="#E2E2F0" height="30.2969" rx="2.5" ry="2.5" style="stroke:#181818;stroke-width:0.5;" width="223.7197" x="191.6904" y="87.2969"/><text fill="#000000" font-family="sans-serif" font-size="14" lengthAdjust="spacing" textLength="209.7197" x="198.6904" y="107.292">CommentCommandController</text></g><g class="participant participant-tail" data-participant="CommentCommandController"><rect fill="#E2E2F0" height="30.2969" rx="2.5" ry="2.5" style="stroke:#181818;stroke-width:0.5;" width="223.7197" x="191.6904" y="658.7891"/><text fill="#000000" font-family="sans-serif" font-size="14" lengthAdjust="spacing" textLength="209.7197" x="198.6904" y="678.7842">CommentCommandController</text></g><g class="participant participant-head" data-participant="CommentCommandService"><rect fill="#E2E2F0" height="30.2969" rx="2.5" ry="2.5" style="stroke:#181818;stroke-width:0.5;" width="206.2881" x="499.52" y="87.2969"/><text fill="#000000" font-family="sans-serif" font-size="14" lengthAdjust="spacing" textLength="192.2881" x="506.52" y="107.292">CommentCommandService</text></g><g class="participant participant-tail" data-participant="CommentCommandService"><rect fill="#E2E2F0" height="30.2969" rx="2.5" ry="2.5" style="stroke:#181818;stroke-width:0.5;" width="206.2881" x="499.52" y="658.7891"/><text fill="#000000" font-family="sans-serif" font-size="14" lengthAdjust="spacing" textLength="192.2881" x="506.52" y="678.7842">CommentCommandService</text></g><g class="participant participant-head" data-participant="CommentCommandRepository"><rect fill="#E2E2F0" height="30.2969" rx="2.5" ry="2.5" style="stroke:#181818;stroke-width:0.5;" width="229.6191" x="715.8081" y="87.2969"/><text fill="#000000" font-family="sans-serif" font-size="14" lengthAdjust="spacing" textLength="215.6191" x="722.8081" y="107.292">CommentCommandRepository</text></g><g class="participant participant-tail" data-participant="CommentCommandRepository"><rect fill="#E2E2F0" height="30.2969" rx="2.5" ry="2.5" style="stroke:#181818;stroke-width:0.5;" width="229.6191" x="715.8081" y="658.7891"/><text fill="#000000" font-family="sans-serif" font-size="14" lengthAdjust="spacing" textLength="215.6191" x="722.8081" y="678.7842">CommentCommandRepository</text></g><g class="participant participant-head" data-participant="Comment"><text fill="#000000" font-family="sans-serif" font-size="14" lengthAdjust="spacing" textLength="68.5918" x="955.4272" y="115.292">Comment</text><ellipse cx="992.7231" cy="86.2969" fill="#E2E2F0" rx="12" ry="12" style="stroke:#181818;stroke-width:0.5;"/><line style="stroke:#181818;stroke-width:0.5;" x1="980.7231" x2="1004.7231" y1="100.2969" y2="100.2969"/></g><g class="participant participant-tail" data-participant="Comment"><text fill="#000000" font-family="sans-serif" font-size="14" lengthAdjust="spacing" textLength="68.5918" x="955.4272" y="671.7842">Comment</text><ellipse cx="992.7231" cy="691.0859" fill="#E2E2F0" rx="12" ry="12" style="stroke:#181818;stroke-width:0.5;"/><line style="stroke:#181818;stroke-width:0.5;" x1="980.7231" x2="1004.7231" y1="705.0859" y2="705.0859"/></g><g class="participant participant-head" data-participant="DomainEventPublisher"><rect fill="#E2E2F0" height="30.2969" rx="2.5" ry="2.5" style="stroke:#181818;stroke-width:0.5;" width="172.9492" x="1040.019" y="87.2969"/><text fill="#000000" font-family="sans-serif" font-size="14" lengthAdjust="spacing" textLength="158.9492" x="1047.019" y="107.292">DomainEventPublisher</text></g><g class="participant participant-tail" data-participant="DomainEventPublisher"><rect fill="#E2E2F0" height="30.2969" rx="2.5" ry="2.5" style="stroke:#181818;stroke-width:0.5;" width="172.9492" x="1040.019" y="658.7891"/><text fill="#000000" font-family="sans-serif" font-size="14" lengthAdjust="spacing" textLength="158.9492" x="1047.019" y="678.7842">DomainEventPublisher</text></g><g><title>Comment</title><rect fill="#FFFFFF" height="53.2656" style="stroke:#181818;stroke-width:1;" width="10" x="987.7231" y="281.3906"/></g><g><title>Comment</title><rect fill="#FFFFFF" height="30" style="stroke:#181818;stroke-width:1;" width="10" x="987.7231" y="363.7891"/></g><g class="message" data-participant-1="Client" data-participant-2="CommentCommandController"><polygon fill="#181818" points="291.5503,160.8594,301.5503,164.8594,291.5503,168.8594,295.5503,164.8594" style="stroke:#181818;stroke-width:1;"/><line style="stroke:#181818;stroke-width:1;" x1="43.2651" x2="297.5503" y1="164.8594" y2="164.8594"/><text fill="#000000" font-family="sans-serif" font-size="13" lengthAdjust="spacing" textLength="49.8354" x="50.2651" y="144.6606">DELETE</text><text fill="#000000" font-family="sans-serif" font-size="13" lengthAdjust="spacing" textLength="167.686" x="50.2651" y="159.7935">/comments/{commentId}</text></g><g class="message" data-participant-1="CommentCommandController" data-participant-2="CommentCommandService"><polygon fill="#181818" points="590.6641,189.9922,600.6641,193.9922,590.6641,197.9922,594.6641,193.9922" style="stroke:#181818;stroke-width:1;"/><line style="stroke:#181818;stroke-width:1;" x1="303.5503" x2="596.6641" y1="193.9922" y2="193.9922"/><text fill="#000000" font-family="sans-serif" font-size="13" lengthAdjust="spacing" textLength="275.1138" x="310.5503" y="188.9263">createComment(Visitor, commentId, cmd)</text></g><g class="message" data-participant-1="CommentCommandService" data-participant-2="CommentCommandRepository"><polygon fill="#181818" points="818.6177,219.125,828.6177,223.125,818.6177,227.125,822.6177,223.125" style="stroke:#181818;stroke-width:1;"/><line style="stroke:#181818;stroke-width:1;" x1="602.6641" x2="824.6177" y1="223.125" y2="223.125"/><text fill="#000000" font-family="sans-serif" font-size="13" lengthAdjust="spacing" textLength="137.3696" x="609.6641" y="218.0591">findById(commentId)</text></g><g class="message" data-participant-1="CommentCommandRepository" data-participant-2="CommentCommandService"><polygon fill="#181818" points="613.6641,248.2578,603.6641,252.2578,613.6641,256.2578,609.6641,252.2578" style="stroke:#181818;stroke-width:1;"/><line style="stroke:#181818;stroke-width:1;stroke-dasharray:2.0,2.0;" x1="607.6641" x2="829.6177" y1="252.2578" y2="252.2578"/><text fill="#000000" font-family="sans-serif" font-size="13" lengthAdjust="spacing" textLength="63.6924" x="619.6641" y="247.1919">Comment</text></g><g class="message" data-participant-1="CommentCommandService" data-participant-2="Comment"><polygon fill="#181818" points="975.7231,277.3906,985.7231,281.3906,975.7231,285.3906,979.7231,281.3906" style="stroke:#181818;stroke-width:1;"/><line style="stroke:#181818;stroke-width:1;" x1="602.6641" x2="981.7231" y1="281.3906" y2="281.3906"/><text fill="#000000" font-family="sans-serif" font-size="13" lengthAdjust="spacing" textLength="224.2563" x="609.6641" y="276.3247">hasDeletePermission(Visitor, cmd)</text></g><path d="M10,296.3906 L74.4429,296.3906 L74.4429,303.5234 L64.4429,313.5234 L10,313.5234 L10,296.3906" fill="#EEEEEE" style="stroke:#000000;stroke-width:1.5;"/><rect fill="none" height="265.8672" style="stroke:#000000;stroke-width:1.5;" width="1212.9683" x="10" y="296.3906"/><text fill="#000000" font-family="sans-serif" font-size="13" font-weight="bold" lengthAdjust="spacing" textLength="19.4429" x="25" y="309.4575">alt</text><text fill="#000000" font-family="sans-serif" font-size="11" font-weight="bold" lengthAdjust="spacing" textLength="111.6865" x="89.4429" y="308.6011">[Enalbe to delete]</text><g class="message" data-participant-1="Comment" data-participant-2="CommentCommandService"><polygon fill="#181818" points="613.6641,330.6563,603.6641,334.6563,613.6641,338.6563,609.6641,334.6563" style="stroke:#181818;stroke-width:1;"/><line style="stroke:#181818;stroke-width:1;stroke-dasharray:2.0,2.0;" x1="607.6641" x2="991.7231" y1="334.6563" y2="334.6563"/><text fill="#000000" font-family="sans-serif" font-size="13" lengthAdjust="spacing" textLength="26.6792" x="619.6641" y="329.5903">true</text></g><g class="message" data-participant-1="CommentCommandService" data-participant-2="Comment"><polygon fill="#181818" points="975.7231,359.7891,985.7231,363.7891,975.7231,367.7891,979.7231,363.7891" style="stroke:#181818;stroke-width:1;"/><line style="stroke:#181818;stroke-width:1;" x1="602.6641" x2="981.7231" y1="363.7891" y2="363.7891"/><text fill="#000000" font-family="sans-serif" font-size="13" lengthAdjust="spacing" textLength="77.2573" x="609.6641" y="358.7231">softDelete()</text></g><g class="message" data-participant-1="CommentCommandService" data-participant-2="CommentCommandRepository"><polygon fill="#181818" points="818.6177,418.9219,828.6177,422.9219,818.6177,426.9219,822.6177,422.9219" style="stroke:#181818;stroke-width:1;"/><line style="stroke:#181818;stroke-width:1;" x1="602.6641" x2="824.6177" y1="422.9219" y2="422.9219"/><text fill="#000000" font-family="sans-serif" font-size="13" lengthAdjust="spacing" textLength="104.2666" x="609.6641" y="417.856">save(Comment)</text></g><g class="message" data-participant-1="CommentCommandService" data-participant-2="DomainEventPublisher"><polygon fill="#181818" points="1114.4937,448.0547,1124.4937,452.0547,1114.4937,456.0547,1118.4937,452.0547" style="stroke:#181818;stroke-width:1;"/><line style="stroke:#181818;stroke-width:1;" x1="602.6641" x2="1120.4937" y1="452.0547" y2="452.0547"/><text fill="#000000" font-family="sans-serif" font-size="13" lengthAdjust="spacing" textLength="151.8994" x="609.6641" y="446.9888">CommentDeletedEvent</text></g><g class="message" data-participant-1="CommentCommandService" data-participant-2="CommentCommandController"><polygon fill="#181818" points="314.5503,477.1875,304.5503,481.1875,314.5503,485.1875,310.5503,481.1875" style="stroke:#181818;stroke-width:1;"/><line style="stroke:#181818;stroke-width:1;stroke-dasharray:2.0,2.0;" x1="308.5503" x2="601.6641" y1="481.1875" y2="481.1875"/><text fill="#000000" font-family="sans-serif" font-size="13" lengthAdjust="spacing" textLength="147.1577" x="320.5503" y="476.1216">CommentDeleteResult</text></g><g class="message" data-participant-1="CommentCommandController" data-participant-2="Client"><polygon fill="#181818" points="54.2651,506.3203,44.2651,510.3203,54.2651,514.3203,50.2651,510.3203" style="stroke:#181818;stroke-width:1;"/><line style="stroke:#181818;stroke-width:1;stroke-dasharray:2.0,2.0;" x1="48.2651" x2="302.5503" y1="510.3203" y2="510.3203"/><text fill="#000000" font-family="sans-serif" font-size="13" lengthAdjust="spacing" textLength="236.2852" x="60.2651" y="505.2544">200 OK + CommentDeleteResponse</text></g><line style="stroke:#000000;stroke-width:1;stroke-dasharray:2.0,2.0;" x1="10" x2="1222.9683" y1="519.3203" y2="519.3203"/><text fill="#000000" font-family="sans-serif" font-size="11" font-weight="bold" lengthAdjust="spacing" textLength="113.1045" x="15" y="529.5308">[Unable to delete]</text><g class="message" data-participant-1="Comment" data-participant-2="Client"><polygon fill="#181818" points="54.2651,550.2578,44.2651,554.2578,54.2651,558.2578,50.2651,554.2578" style="stroke:#181818;stroke-width:1;"/><line style="stroke:#181818;stroke-width:1;stroke-dasharray:2.0,2.0;" x1="48.2651" x2="991.7231" y1="554.2578" y2="554.2578"/><text fill="#000000" font-family="sans-serif" font-size="13" lengthAdjust="spacing" textLength="106.3994" x="60.2651" y="549.1919">403 FORBIDDEN</text></g><path d="M308,574.2578 L308,644.2578 L454,644.2578 L454,584.2578 L444,574.2578 L308,574.2578" fill="#FEFFDD" style="stroke:#181818;stroke-width:0.5;"/><path d="M444,574.2578 L444,584.2578 L454,584.2578 L444,574.2578" fill="#FEFFDD" style="stroke:#181818;stroke-width:0.5;"/><text fill="#000000" font-family="sans-serif" font-size="13" font-weight="bold" lengthAdjust="spacing" textLength="48.2676" x="314" y="591.3247">Visitor</text><ellipse cx="319.5" cy="602.0234" fill="#000000" rx="2.5" ry="2.5"/><text fill="#000000" font-family="sans-serif" font-size="13" lengthAdjust="spacing" textLength="113.2168" x="326" y="606.4575">Member or Guest</text><ellipse cx="319.5" cy="617.1563" fill="#000000" rx="2.5" ry="2.5"/><text fill="#000000" font-family="sans-serif" font-size="13" lengthAdjust="spacing" textLength="52.1714" x="326" y="621.5903">visitorId</text><ellipse cx="319.5" cy="632.2891" fill="#000000" rx="2.5" ry="2.5"/><text fill="#000000" font-family="sans-serif" font-size="13" lengthAdjust="spacing" textLength="67.0059" x="326" y="636.7231">memberId</text><!--SRC=[dLHTRvim57tthxXxMhgE46rzggf8Qs1Rj8zMsRgdlXXyGomP6za6BPhsttV194sKGASY92xslUUS-s5xwHL2WWezGcxA4hLdZEVUM5WesVvLt7gPoufh3ulWqNwu5WkZlJLAeHrn-e6saJcEUAomCauIuvRHelHRw9xUwIWmCIMNEcre_RxEb7GRucP1A4JpGNrm3KdwDVsPFkgupzB5VtfhAVworr4KmK4-Wq0d97r-n91Rv1xxtSalsUNq5lOiP9RY8b3jgd8UwuJagKJ4ivPQt6wNOh97xa4F2ZaO7eqaiAluSwB8TSDT69fxjALqJXfza76R9isGRAWUUrIkFAIQgmp16n1Tz8vgL9QtDJA19u3_8TEPjGyw9sSKlG3pN3ySRt3Ixr-mq8fkH8VHpitnKmE2OX4ms13A-BWVGQtGrSgF37MB5GxHDS2xsGpkli3b2KPbj4E6oY4yQ9wfmKRkeAvcx-7ZtUfscIJfTphSWZ5jgDfM5XiFPZrydznaytwSRk9ipjx0DompKahNqgSQdQUL9kml1TbbjqicSK1BGMru9NMkQe4mdSRXnRQWdub8ILt4cU6seyJVFgPs-Wz5OR6WQOYF-z15uBIgIyN-0G00]--></g></svg>