<svg xmlns="http://www.w3.org/2000/svg" xmlns:xlink="http://www.w3.org/1999/xlink" contentStyleType="text/css" data-diagram-type="SEQUENCE" height="631px" preserveAspectRatio="none" style="width:1234px;height:631px;background:#FFFFFF;" version="1.1" viewBox="0 0 1234 631" width="1234px" zoomAndPan="magnify"><title>checkBoardDeletePermission</title><defs/><g><text fill="#000000" font-family="sans-serif" font-size="14" font-weight="bold" lengthAdjust="spacing" textLength="230.7266" x="502.8318" y="27.9951">checkBoardDeletePermission</text><rect fill="none" height="219.7344" style="stroke:#000000;stroke-width:1.5;" width="1217.3901" x="10" y="297.5547"/><g><title>BoardContext</title><rect fill="#000000" fill-opacity="0.00000" height="399.3984" width="8" x="67.2412" y="134.8906"/><line style="stroke:#181818;stroke-width:0.5;stroke-dasharray:5.0,5.0;" x1="71" x2="71" y1="134.8906" y2="534.2891"/></g><g><title>PermissionController</title><rect fill="#000000" fill-opacity="0.00000" height="399.3984" width="8" x="489.9946" y="134.8906"/><line style="stroke:#181818;stroke-width:0.5;stroke-dasharray:5.0,5.0;" x1="493.2808" x2="493.2808" y1="134.8906" y2="534.2891"/></g><g><title>PermissionService</title><rect fill="#000000" fill-opacity="0.00000" height="399.3984" width="8" x="812.7153" y="134.8906"/><line style="stroke:#181818;stroke-width:0.5;stroke-dasharray:5.0,5.0;" x1="815.7173" x2="815.7173" y1="134.8906" y2="534.2891"/></g><g><title>PermissionRepository</title><rect fill="#000000" fill-opacity="0.00000" height="399.3984" width="8" x="997.7021" y="134.8906"/><line style="stroke:#181818;stroke-width:0.5;stroke-dasharray:5.0,5.0;" x1="1001.0386" x2="1001.0386" y1="134.8906" y2="534.2891"/></g><g><title>PermissionPolicy</title><rect fill="#000000" fill-opacity="0.00000" height="399.3984" width="8" x="1151.8779" y="134.8906"/><line style="stroke:#181818;stroke-width:0.5;stroke-dasharray:5.0,5.0;" x1="1155.3657" x2="1155.3657" y1="134.8906" y2="534.2891"/></g><g class="participant participant-head" data-participant="BoardContext"><text fill="#000000" font-family="sans-serif" font-size="14" lengthAdjust="spacing" textLength="96.4824" x="20" y="115.292">BoardContext</text><text fill="#000000" font-family="sans-serif" font-size="14" lengthAdjust="spacing" textLength="57.3809" x="39.5508" y="131.5889">(&#50808;&#48512; &#54840;&#52636;&#51088;)</text><ellipse cx="71.2412" cy="50.7969" fill="#E2E2F0" rx="8" ry="8" style="stroke:#181818;stroke-width:0.5;"/><path d="M71.2412,58.7969 L71.2412,85.7969 M58.2412,66.7969 L84.2412,66.7969 M71.2412,85.7969 L58.2412,100.7969 M71.2412,85.7969 L84.2412,100.7969" fill="none" style="stroke:#181818;stroke-width:0.5;"/></g><g class="participant participant-tail" data-participant="BoardContext"><text fill="#000000" font-family="sans-serif" font-size="14" lengthAdjust="spacing" textLength="96.4824" x="20" y="546.2842">BoardContext</text><text fill="#000000" font-family="sans-serif" font-size="14" lengthAdjust="spacing" textLength="57.3809" x="39.5508" y="562.5811">(&#50808;&#48512; &#54840;&#52636;&#51088;)</text><ellipse cx="71.2412" cy="574.3828" fill="#E2E2F0" rx="8" ry="8" style="stroke:#181818;stroke-width:0.5;"/><path d="M71.2412,582.3828 L71.2412,609.3828 M58.2412,590.3828 L84.2412,590.3828 M71.2412,609.3828 L58.2412,624.3828 M71.2412,609.3828 L84.2412,624.3828" fill="none" style="stroke:#181818;stroke-width:0.5;"/></g><g class="participant participant-head" data-participant="PermissionController"><rect fill="#E2E2F0" height="30.2969" rx="2.5" ry="2.5" style="stroke:#181818;stroke-width:0.5;" width="159.4277" x="414.2808" y="103.5938"/><text fill="#000000" font-family="sans-serif" font-size="14" lengthAdjust="spacing" textLength="145.4277" x="421.2808" y="123.5889">PermissionController</text></g><g class="participant participant-tail" data-participant="PermissionController"><rect fill="#E2E2F0" height="30.2969" rx="2.5" ry="2.5" style="stroke:#181818;stroke-width:0.5;" width="159.4277" x="414.2808" y="533.2891"/><text fill="#000000" font-family="sans-serif" font-size="14" lengthAdjust="spacing" textLength="145.4277" x="421.2808" y="553.2842">PermissionController</text></g><g class="participant participant-head" data-participant="PermissionService"><rect fill="#E2E2F0" height="30.2969" rx="2.5" ry="2.5" style="stroke:#181818;stroke-width:0.5;" width="141.9961" x="745.7173" y="103.5938"/><text fill="#000000" font-family="sans-serif" font-size="14" lengthAdjust="spacing" textLength="127.9961" x="752.7173" y="123.5889">PermissionService</text></g><g class="participant participant-tail" data-participant="PermissionService"><rect fill="#E2E2F0" height="30.2969" rx="2.5" ry="2.5" style="stroke:#181818;stroke-width:0.5;" width="141.9961" x="745.7173" y="533.2891"/><text fill="#000000" font-family="sans-serif" font-size="14" lengthAdjust="spacing" textLength="127.9961" x="752.7173" y="553.2842">PermissionService</text></g><g class="participant participant-head" data-participant="PermissionRepository"><rect fill="#E2E2F0" height="30.2969" rx="2.5" ry="2.5" style="stroke:#181818;stroke-width:0.5;" width="165.3271" x="919.0386" y="103.5938"/><text fill="#000000" font-family="sans-serif" font-size="14" lengthAdjust="spacing" textLength="151.3271" x="926.0386" y="123.5889">PermissionRepository</text></g><g class="participant participant-tail" data-participant="PermissionRepository"><rect fill="#E2E2F0" height="30.2969" rx="2.5" ry="2.5" style="stroke:#181818;stroke-width:0.5;" width="165.3271" x="919.0386" y="533.2891"/><text fill="#000000" font-family="sans-serif" font-size="14" lengthAdjust="spacing" textLength="151.3271" x="926.0386" y="553.2842">PermissionRepository</text></g><g class="participant participant-head" data-participant="PermissionPolicy"><text fill="#000000" font-family="sans-serif" font-size="14" lengthAdjust="spacing" textLength="117.0244" x="1094.3657" y="131.5889">PermissionPolicy</text><ellipse cx="1155.8779" cy="102.5938" fill="#E2E2F0" rx="12" ry="12" style="stroke:#181818;stroke-width:0.5;"/><line style="stroke:#181818;stroke-width:0.5;" x1="1143.8779" x2="1167.8779" y1="116.5938" y2="116.5938"/></g><g class="participant participant-tail" data-participant="PermissionPolicy"><text fill="#000000" font-family="sans-serif" font-size="14" lengthAdjust="spacing" textLength="117.0244" x="1094.3657" y="546.2842">PermissionPolicy</text><ellipse cx="1155.8779" cy="565.5859" fill="#E2E2F0" rx="12" ry="12" style="stroke:#181818;stroke-width:0.5;"/><line style="stroke:#181818;stroke-width:0.5;" x1="1143.8779" x2="1167.8779" y1="579.5859" y2="579.5859"/></g><g class="message" data-participant-1="BoardContext" data-participant-2="PermissionController"><polygon fill="#181818" points="481.9946,162.0234,491.9946,166.0234,481.9946,170.0234,485.9946,166.0234" style="stroke:#181818;stroke-width:1;"/><line style="stroke:#181818;stroke-width:1;" x1="71.2412" x2="487.9946" y1="166.0234" y2="166.0234"/><text fill="#000000" font-family="sans-serif" font-size="13" lengthAdjust="spacing" textLength="398.7534" x="78.2412" y="160.9575">GET /internal/boards/{boardId}/permissions/delete?userId=..</text></g><g class="message" data-participant-1="PermissionController" data-participant-2="PermissionService"><polygon fill="#181818" points="804.7153,191.1563,814.7153,195.1563,804.7153,199.1563,808.7153,195.1563" style="stroke:#181818;stroke-width:1;"/><line style="stroke:#181818;stroke-width:1;" x1="493.9946" x2="810.7153" y1="195.1563" y2="195.1563"/><text fill="#000000" font-family="sans-serif" font-size="13" lengthAdjust="spacing" textLength="298.7207" x="500.9946" y="190.0903">checkBoardDeletePermission(userId, boardId)</text></g><g class="message" data-participant-1="PermissionService" data-participant-2="PermissionRepository"><polygon fill="#181818" points="989.7021,220.2891,999.7021,224.2891,989.7021,228.2891,993.7021,224.2891" style="stroke:#181818;stroke-width:1;"/><line style="stroke:#181818;stroke-width:1;" x1="816.7153" x2="995.7021" y1="224.2891" y2="224.2891"/><text fill="#000000" font-family="sans-serif" font-size="13" lengthAdjust="spacing" textLength="151.8105" x="823.7153" y="219.2231">findByBoardId(boardId)</text></g><g class="message" data-participant-1="PermissionRepository" data-participant-2="PermissionService"><polygon fill="#181818" points="827.7153,249.4219,817.7153,253.4219,827.7153,257.4219,823.7153,253.4219" style="stroke:#181818;stroke-width:1;"/><line style="stroke:#181818;stroke-width:1;stroke-dasharray:2.0,2.0;" x1="821.7153" x2="1000.7021" y1="253.4219" y2="253.4219"/><text fill="#000000" font-family="sans-serif" font-size="13" lengthAdjust="spacing" textLength="108.6655" x="833.7153" y="248.356">PermissionPolicy</text></g><g class="message" data-participant-1="PermissionService" data-participant-2="PermissionPolicy"><polygon fill="#181818" points="1143.8779,278.5547,1153.8779,282.5547,1143.8779,286.5547,1147.8779,282.5547" style="stroke:#181818;stroke-width:1;"/><line style="stroke:#181818;stroke-width:1;" x1="816.7153" x2="1149.8779" y1="282.5547" y2="282.5547"/><text fill="#000000" font-family="sans-serif" font-size="13" lengthAdjust="spacing" textLength="155.0859" x="823.7153" y="277.4888">canDeleteBoard(userId)</text></g><path d="M10,297.5547 L74.4429,297.5547 L74.4429,304.6875 L64.4429,314.6875 L10,314.6875 L10,297.5547" fill="#EEEEEE" style="stroke:#000000;stroke-width:1.5;"/><rect fill="none" height="219.7344" style="stroke:#000000;stroke-width:1.5;" width="1217.3901" x="10" y="297.5547"/><text fill="#000000" font-family="sans-serif" font-size="13" font-weight="bold" lengthAdjust="spacing" textLength="19.4429" x="25" y="310.6216">alt</text><text fill="#000000" font-family="sans-serif" font-size="11" font-weight="bold" lengthAdjust="spacing" textLength="40.2886" x="89.4429" y="309.7651">[&#49325;&#51228; &#44032;&#45733;]</text><g class="message" data-participant-1="PermissionPolicy" data-participant-2="PermissionService"><polygon fill="#181818" points="827.7153,331.8203,817.7153,335.8203,827.7153,339.8203,823.7153,335.8203" style="stroke:#181818;stroke-width:1;"/><line style="stroke:#181818;stroke-width:1;stroke-dasharray:2.0,2.0;" x1="821.7153" x2="1154.8779" y1="335.8203" y2="335.8203"/><text fill="#000000" font-family="sans-serif" font-size="13" lengthAdjust="spacing" textLength="26.6792" x="833.7153" y="330.7544">true</text></g><g class="message" data-participant-1="PermissionService" data-participant-2="PermissionController"><polygon fill="#181818" points="504.9946,360.9531,494.9946,364.9531,504.9946,368.9531,500.9946,364.9531" style="stroke:#181818;stroke-width:1;"/><line style="stroke:#181818;stroke-width:1;stroke-dasharray:2.0,2.0;" x1="498.9946" x2="815.7153" y1="364.9531" y2="364.9531"/><text fill="#000000" font-family="sans-serif" font-size="13" lengthAdjust="spacing" textLength="26.6792" x="510.9946" y="359.8872">true</text></g><g class="message" data-participant-1="PermissionController" data-participant-2="BoardContext"><polygon fill="#181818" points="82.2412,390.0859,72.2412,394.0859,82.2412,398.0859,78.2412,394.0859" style="stroke:#181818;stroke-width:1;"/><line style="stroke:#181818;stroke-width:1;stroke-dasharray:2.0,2.0;" x1="76.2412" x2="492.9946" y1="394.0859" y2="394.0859"/><text fill="#000000" font-family="sans-serif" font-size="13" lengthAdjust="spacing" textLength="200.8652" x="88.2412" y="389.02">HTTP 200 OK (canDelete: true)</text></g><line style="stroke:#000000;stroke-width:1;stroke-dasharray:2.0,2.0;" x1="10" x2="1227.3901" y1="403.0859" y2="403.0859"/><text fill="#000000" font-family="sans-serif" font-size="11" font-weight="bold" lengthAdjust="spacing" textLength="40.2886" x="15" y="413.2964">[&#49325;&#51228; &#48520;&#44032;]</text><g class="message" data-participant-1="PermissionPolicy" data-participant-2="PermissionService"><polygon fill="#181818" points="827.7153,434.0234,817.7153,438.0234,827.7153,442.0234,823.7153,438.0234" style="stroke:#181818;stroke-width:1;"/><line style="stroke:#181818;stroke-width:1;stroke-dasharray:2.0,2.0;" x1="821.7153" x2="1154.8779" y1="438.0234" y2="438.0234"/><text fill="#000000" font-family="sans-serif" font-size="13" lengthAdjust="spacing" textLength="30.9258" x="833.7153" y="432.9575">false</text></g><g class="message" data-participant-1="PermissionService" data-participant-2="PermissionService"><line style="stroke:#181818;stroke-width:1;" x1="816.7153" x2="858.7153" y1="467.1563" y2="467.1563"/><line style="stroke:#181818;stroke-width:1;" x1="858.7153" x2="858.7153" y1="467.1563" y2="480.1563"/><line style="stroke:#181818;stroke-width:1;" x1="817.7153" x2="858.7153" y1="480.1563" y2="480.1563"/><polygon fill="#181818" points="827.7153,476.1563,817.7153,480.1563,827.7153,484.1563,823.7153,480.1563" style="stroke:#181818;stroke-width:1;"/><text fill="#000000" font-family="sans-serif" font-size="13" lengthAdjust="spacing" textLength="170.9868" x="823.7153" y="462.0903">throw ForbiddenException</text></g><g class="message" data-participant-1="PermissionService" data-participant-2="BoardContext"><polygon fill="#181818" points="82.2412,505.2891,72.2412,509.2891,82.2412,513.2891,78.2412,509.2891" style="stroke:#181818;stroke-width:1;"/><line style="stroke:#181818;stroke-width:1;stroke-dasharray:2.0,2.0;" x1="76.2412" x2="815.7153" y1="509.2891" y2="509.2891"/><text fill="#000000" font-family="sans-serif" font-size="13" lengthAdjust="spacing" textLength="131.9551" x="88.2412" y="504.2231">HTTP 403 Forbidden</text></g><!--SRC=[bPF1IiD048Rl-nH3JodOfgYdWWhLgiM3HNlqiascT37kXirM6qGediIJHuKYNZmAdagVoSPtS9FKj25Pn5DWP_v__cysgvZo49mXEfSjGQLxW1ugxAAyOa7012U4Eaf8I8hxWYiSAw01LDOFBhWLlSmNimbyFy-ZsJHwVQfMY4-bOWxpALUmCembKdWUIaF3ESfhvg2XUeQ-29XE51BaYgbmhTOL7dD2Gd9PQxkbmw49H-qUs4ntIKuzkn-B0lis-NRSEzlFL87j9blP6mKeE-vElKvABNEZbXXwZdcvLcgu0SkXLKAA1ZdN5Rus7Z3kji9MghKoZzBkcY5SSNj_94ZROYpAKvuam1954r1FGNJ_4RrDuUjpidXy9r2Kc-8eES9SVvR1V8y5pVgLQ5dkTsZ2SQ_NXSr60qvFmCeWKfigGI_0t_YBsOCc-4_y0TNoylm6tg4KDt0eP9-vBlBss45VnS_Ej8CocEt6rif2Fmlt1m00]--></g></svg>