<svg xmlns="http://www.w3.org/2000/svg" xmlns:xlink="http://www.w3.org/1999/xlink" contentStyleType="text/css" data-diagram-type="CLASS" height="1422px" preserveAspectRatio="none" style="width:1690px;height:1422px;background:#FFFFFF;" version="1.1" viewBox="0 0 1690 1422" width="1690px" zoomAndPan="magnify"><defs/><g><!--cluster board context--><g class="cluster" data-entity="board context" data-source-line="2" data-uid="ent0002" id="cluster_board context"><path d="M8.5,6 L120.1807,6 A3.75,3.75 0 0 1 122.6807,8.5 L129.6807,28.2969 L1680.5,28.2969 A2.5,2.5 0 0 1 1683,30.7969 L1683,1412.5 A2.5,2.5 0 0 1 1680.5,1415 L8.5,1415 A2.5,2.5 0 0 1 6,1412.5 L6,8.5 A2.5,2.5 0 0 1 8.5,6" fill="none" style="stroke:#000000;stroke-width:1.5;"/><line style="stroke:#000000;stroke-width:1.5;" x1="6" x2="129.6807" y1="28.2969" y2="28.2969"/><text fill="#000000" font-family="sans-serif" font-size="14" font-weight="bold" lengthAdjust="spacing" textLength="110.6807" x="10" y="20.9951">board context</text></g><!--cluster board--><g class="cluster" data-entity="board" data-source-line="1" data-uid="ent0003" id="cluster_board"><path d="M1197.5,1021 L1244.5127,1021 A3.75,3.75 0 0 1 1247.0127,1023.5 L1254.0127,1043.2969 L1656.5,1043.2969 A2.5,2.5 0 0 1 1659,1045.7969 L1659,1388.5 A2.5,2.5 0 0 1 1656.5,1391 L1197.5,1391 A2.5,2.5 0 0 1 1195,1388.5 L1195,1023.5 A2.5,2.5 0 0 1 1197.5,1021" fill="none" style="stroke:#000000;stroke-width:1.5;"/><line style="stroke:#000000;stroke-width:1.5;" x1="1195" x2="1254.0127" y1="1043.2969" y2="1043.2969"/><text fill="#000000" font-family="sans-serif" font-size="14" font-weight="bold" lengthAdjust="spacing" textLength="46.0127" x="1199" y="1035.9951">board</text></g><!--cluster post--><g class="cluster" data-entity="post" data-source-line="2" data-uid="ent0009" id="cluster_post"><path d="M423.5,363 L459.165,363 A3.75,3.75 0 0 1 461.665,365.5 L468.665,385.2969 L1168.5,385.2969 A2.5,2.5 0 0 1 1171,387.7969 L1171,1199 A2.5,2.5 0 0 1 1168.5,1201.5 L423.5,1201.5 A2.5,2.5 0 0 1 421,1199 L421,365.5 A2.5,2.5 0 0 1 423.5,363" fill="none" style="stroke:#000000;stroke-width:1.5;"/><line style="stroke:#000000;stroke-width:1.5;" x1="421" x2="468.665" y1="385.2969" y2="385.2969"/><text fill="#000000" font-family="sans-serif" font-size="14" font-weight="bold" lengthAdjust="spacing" textLength="34.665" x="425" y="377.9951">post</text></g><!--cluster comment--><g class="cluster" data-entity="comment" data-source-line="1" data-uid="ent0025" id="cluster_comment"><path d="M32.5,49 L106.7471,49 A3.75,3.75 0 0 1 109.2471,51.5 L116.2471,71.2969 L394.5,71.2969 A2.5,2.5 0 0 1 397,73.7969 L397,508.5 A2.5,2.5 0 0 1 394.5,511 L32.5,511 A2.5,2.5 0 0 1 30,508.5 L30,51.5 A2.5,2.5 0 0 1 32.5,49" fill="none" style="stroke:#000000;stroke-width:1.5;"/><line style="stroke:#000000;stroke-width:1.5;" x1="30" x2="116.2471" y1="71.2969" y2="71.2969"/><text fill="#000000" font-family="sans-serif" font-size="14" font-weight="bold" lengthAdjust="spacing" textLength="73.2471" x="34" y="63.9951">comment</text></g><!--class Board--><g class="entity" data-entity="Board" data-source-line="2" data-uid="ent0004" id="entity_Board"><rect fill="#F1F1F1" height="170.3438" rx="2.5" ry="2.5" style="stroke:#181818;stroke-width:0.5;" width="430.6465" x="1211.5" y="1056"/><ellipse cx="1369.9873" cy="1076.1328" fill="#ADD1B2" rx="11" ry="11" style="stroke:#181818;stroke-width:1;"/><path d="M1374.0967,1082.1328 L1366.3779,1082.1328 L1366.3779,1069.7422 L1374.0967,1069.7422 L1374.0967,1071.8984 L1368.8311,1071.8984 L1368.8311,1074.5703 L1373.5967,1074.5703 L1373.5967,1076.7266 L1368.8311,1076.7266 L1368.8311,1079.9766 L1374.0967,1079.9766 L1374.0967,1082.1328 Z " fill="#000000"/><text fill="#000000" font-family="sans-serif" font-size="12" font-style="italic" lengthAdjust="spacing" textLength="109.1719" x="1388.4873" y="1072.1387">&#171;Aggregate Root&#187;</text><text fill="#000000" font-family="sans-serif" font-size="14" lengthAdjust="spacing" textLength="41.3916" x="1422.3774" y="1087.9639">Board</text><line style="stroke:#181818;stroke-width:0.5;" x1="1212.5" x2="1641.1465" y1="1096.2656" y2="1096.2656"/><ellipse cx="1222.5" cy="1109.9141" fill="none" rx="3" ry="3" style="stroke:#038048;stroke-width:1;"/><text fill="#000000" font-family="sans-serif" font-size="14" lengthAdjust="spacing" textLength="92.2646" x="1231.5" y="1113.2607">Long boardId</text><ellipse cx="1222.5" cy="1126.2109" fill="none" rx="3" ry="3" style="stroke:#038048;stroke-width:1;"/><text fill="#000000" font-family="sans-serif" font-size="14" lengthAdjust="spacing" textLength="169.1211" x="1231.5" y="1129.5576">BoardName boardName</text><ellipse cx="1222.5" cy="1142.5078" fill="none" rx="3" ry="3" style="stroke:#038048;stroke-width:1;"/><text fill="#000000" font-family="sans-serif" font-size="14" lengthAdjust="spacing" textLength="107.4404" x="1231.5" y="1145.8545">Creator creator</text><ellipse cx="1222.5" cy="1158.8047" fill="none" rx="3" ry="3" style="stroke:#038048;stroke-width:1;"/><text fill="#000000" font-family="sans-serif" font-size="14" lengthAdjust="spacing" textLength="139.4121" x="1231.5" y="1162.1514">createdAt dateTime</text><line style="stroke:#181818;stroke-width:1;" x1="1212.5" x2="1641.1465" y1="1169.4531" y2="1169.4531"/><ellipse cx="1222.5" cy="1183.1016" fill="#84BE84" rx="3" ry="3" style="stroke:#038048;stroke-width:1;"/><text fill="#000000" font-family="sans-serif" font-size="14" lengthAdjust="spacing" textLength="404.6465" x="1231.5" y="1186.4482">create(boardName : String, creatorId : MemberId) : Board</text><ellipse cx="1222.5" cy="1199.3984" fill="#84BE84" rx="3" ry="3" style="stroke:#038048;stroke-width:1;"/><text fill="#000000" font-family="sans-serif" font-size="14" lengthAdjust="spacing" textLength="55.0293" x="1231.5" y="1202.7451">delete()</text><ellipse cx="1222.5" cy="1215.6953" fill="#84BE84" rx="3" ry="3" style="stroke:#038048;stroke-width:1;"/><text fill="#000000" font-family="sans-serif" font-size="14" lengthAdjust="spacing" textLength="317.7275" x="1231.5" y="1219.042">validateBoardName() : BoardName.validate()</text></g><!--class BoardName--><g class="entity" data-entity="BoardName" data-source-line="14" data-uid="ent0005" id="entity_BoardName"><rect fill="#F1F1F1" height="88.8594" rx="2.5" ry="2.5" style="stroke:#181818;stroke-width:0.5;" width="163.375" x="1254.5" y="1286"/><ellipse cx="1289.2016" cy="1306.1328" fill="#ADD1B2" rx="11" ry="11" style="stroke:#181818;stroke-width:1;"/><path d="M1292.1703,1311.7734 Q1291.5922,1312.0703 1290.9516,1312.2109 Q1290.3109,1312.3672 1289.6078,1312.3672 Q1287.1078,1312.3672 1285.7797,1310.7266 Q1284.4672,1309.0703 1284.4672,1305.9453 Q1284.4672,1302.8203 1285.7797,1301.1641 Q1287.1078,1299.5078 1289.6078,1299.5078 Q1290.3109,1299.5078 1290.9516,1299.6641 Q1291.6078,1299.8203 1292.1703,1300.1172 L1292.1703,1302.8359 Q1291.5453,1302.2578 1290.9516,1301.9922 Q1290.3578,1301.7109 1289.7328,1301.7109 Q1288.3891,1301.7109 1287.7016,1302.7891 Q1287.0141,1303.8516 1287.0141,1305.9453 Q1287.0141,1308.0391 1287.7016,1309.1172 Q1288.3891,1310.1797 1289.7328,1310.1797 Q1290.3578,1310.1797 1290.9516,1309.9141 Q1291.5453,1309.6328 1292.1703,1309.0547 L1292.1703,1311.7734 Z " fill="#000000"/><text fill="#000000" font-family="sans-serif" font-size="12" font-style="italic" lengthAdjust="spacing" textLength="91.5938" x="1305.5797" y="1302.1387">&#171;Value Object&#187;</text><text fill="#000000" font-family="sans-serif" font-size="14" lengthAdjust="spacing" textLength="82.6943" x="1310.0294" y="1317.9639">BoardName</text><line style="stroke:#181818;stroke-width:0.5;" x1="1255.5" x2="1416.875" y1="1326.2656" y2="1326.2656"/><ellipse cx="1265.5" cy="1339.9141" fill="none" rx="3" ry="3" style="stroke:#038048;stroke-width:1;"/><text fill="#000000" font-family="sans-serif" font-size="14" lengthAdjust="spacing" textLength="137.375" x="1274.5" y="1343.2607">String : boardName</text><line style="stroke:#181818;stroke-width:1;" x1="1255.5" x2="1416.875" y1="1350.5625" y2="1350.5625"/><ellipse cx="1265.5" cy="1364.2109" fill="#84BE84" rx="3" ry="3" style="stroke:#038048;stroke-width:1;"/><text fill="#000000" font-family="sans-serif" font-size="14" lengthAdjust="spacing" textLength="67.1357" x="1274.5" y="1367.5576">validate()</text></g><!--class Creator--><g class="entity" data-entity="Creator" data-source-line="19" data-uid="ent0006" id="entity_Creator"><rect fill="#F1F1F1" height="72.5625" rx="2.5" ry="2.5" style="stroke:#181818;stroke-width:0.5;" width="145.9023" x="1453" y="1294"/><ellipse cx="1479.8389" cy="1314.1328" fill="#ADD1B2" rx="11" ry="11" style="stroke:#181818;stroke-width:1;"/><path d="M1482.8076,1319.7734 Q1482.2295,1320.0703 1481.5889,1320.2109 Q1480.9482,1320.3672 1480.2451,1320.3672 Q1477.7451,1320.3672 1476.417,1318.7266 Q1475.1045,1317.0703 1475.1045,1313.9453 Q1475.1045,1310.8203 1476.417,1309.1641 Q1477.7451,1307.5078 1480.2451,1307.5078 Q1480.9482,1307.5078 1481.5889,1307.6641 Q1482.2451,1307.8203 1482.8076,1308.1172 L1482.8076,1310.8359 Q1482.1826,1310.2578 1481.5889,1309.9922 Q1480.9951,1309.7109 1480.3701,1309.7109 Q1479.0264,1309.7109 1478.3389,1310.7891 Q1477.6514,1311.8516 1477.6514,1313.9453 Q1477.6514,1316.0391 1478.3389,1317.1172 Q1479.0264,1318.1797 1480.3701,1318.1797 Q1480.9951,1318.1797 1481.5889,1317.9141 Q1482.1826,1317.6328 1482.8076,1317.0547 L1482.8076,1319.7734 Z " fill="#000000"/><text fill="#000000" font-family="sans-serif" font-size="12" font-style="italic" lengthAdjust="spacing" textLength="91.5938" x="1494.4697" y="1310.1387">&#171;Value Object&#187;</text><text fill="#000000" font-family="sans-serif" font-size="14" lengthAdjust="spacing" textLength="52.5342" x="1513.9995" y="1325.9639">Creator</text><line style="stroke:#181818;stroke-width:0.5;" x1="1454" x2="1597.9023" y1="1334.2656" y2="1334.2656"/><ellipse cx="1464" cy="1347.9141" fill="none" rx="3" ry="3" style="stroke:#038048;stroke-width:1;"/><text fill="#000000" font-family="sans-serif" font-size="14" lengthAdjust="spacing" textLength="119.9023" x="1473" y="1351.2607">Long : memberId</text><line style="stroke:#181818;stroke-width:0.5;" x1="1454" x2="1597.9023" y1="1358.5625" y2="1358.5625"/></g><!--class Post--><g class="entity" data-entity="Post" data-source-line="3" data-uid="ent0010" id="entity_Post"><rect fill="#F1F1F1" height="251.8281" rx="2.5" ry="2.5" style="stroke:#181818;stroke-width:0.5;" width="305.7129" x="557" y="579"/><ellipse cx="653.0205" cy="599.1328" fill="#A9DCDF" rx="11" ry="11" style="stroke:#181818;stroke-width:1;"/><path d="M653.1299,594.4766 L651.9736,599.5547 L654.3018,599.5547 L653.1299,594.4766 Z M651.6455,592.2422 L654.6299,592.2422 L657.9893,604.6328 L655.5361,604.6328 L654.7705,601.5703 L651.4893,601.5703 L650.7393,604.6328 L648.3018,604.6328 L651.6455,592.2422 Z " fill="#000000"/><text fill="#000000" font-family="sans-serif" font-size="12" font-style="italic" lengthAdjust="spacing" textLength="109.1719" x="671.5205" y="595.1387">&#171;Aggregate Root&#187;</text><text fill="#000000" font-family="sans-serif" font-size="14" font-style="italic" lengthAdjust="spacing" textLength="29.791" x="711.2109" y="610.9639">Post</text><line style="stroke:#181818;stroke-width:0.5;" x1="558" x2="861.7129" y1="619.2656" y2="619.2656"/><ellipse cx="568" cy="632.9141" fill="none" rx="3" ry="3" style="stroke:#038048;stroke-width:1;"/><text fill="#000000" font-family="sans-serif" font-size="14" lengthAdjust="spacing" textLength="34.125" x="577" y="636.2607">Long</text><text fill="#000000" font-family="sans-serif" font-size="14" lengthAdjust="spacing" textLength="43.251" x="688.2549" y="636.2607">postId</text><ellipse cx="568" cy="649.2109" fill="none" rx="3" ry="3" style="stroke:#038048;stroke-width:1;"/><text fill="#000000" font-family="sans-serif" font-size="14" lengthAdjust="spacing" textLength="41.3916" x="577" y="652.5576">Board</text><text fill="#000000" font-family="sans-serif" font-size="14" lengthAdjust="spacing" textLength="40.6738" x="688.2549" y="652.5576">board</text><text fill="#000000" font-family="sans-serif" font-size="14" lengthAdjust="spacing" textLength="62.918" x="755.0078" y="652.5576">//&#50808;&#48512; BC &#53412;</text><ellipse cx="568" cy="665.5078" fill="none" rx="3" ry="3" style="stroke:#038048;stroke-width:1;"/><text fill="#000000" font-family="sans-serif" font-size="14" lengthAdjust="spacing" textLength="30.4336" x="577" y="668.8545">Title</text><text fill="#000000" font-family="sans-serif" font-size="14" lengthAdjust="spacing" textLength="27.3711" x="688.2549" y="668.8545">title</text><ellipse cx="568" cy="681.8047" fill="none" rx="3" ry="3" style="stroke:#038048;stroke-width:1;"/><text fill="#000000" font-family="sans-serif" font-size="14" lengthAdjust="spacing" textLength="55.6787" x="577" y="685.1514">Content</text><text fill="#000000" font-family="sans-serif" font-size="14" lengthAdjust="spacing" textLength="53.6006" x="688.2549" y="685.1514">content</text><ellipse cx="568" cy="698.1016" fill="none" rx="3" ry="3" style="stroke:#038048;stroke-width:1;"/><text fill="#000000" font-family="sans-serif" font-size="14" lengthAdjust="spacing" textLength="34.125" x="577" y="701.4482">Long</text><text fill="#000000" font-family="sans-serif" font-size="14" lengthAdjust="spacing" textLength="56.376" x="688.2549" y="701.4482">viewCnt</text><ellipse cx="568" cy="714.3984" fill="none" rx="3" ry="3" style="stroke:#038048;stroke-width:1;"/><text fill="#000000" font-family="sans-serif" font-size="14" lengthAdjust="spacing" textLength="68.1543" x="577" y="717.7451">DateTime</text><text fill="#000000" font-family="sans-serif" font-size="14" lengthAdjust="spacing" textLength="68.7012" x="688.2549" y="717.7451">createdAt</text><ellipse cx="568" cy="730.6953" fill="none" rx="3" ry="3" style="stroke:#038048;stroke-width:1;"/><text fill="#000000" font-family="sans-serif" font-size="14" lengthAdjust="spacing" textLength="68.1543" x="577" y="734.042">DateTime</text><text fill="#000000" font-family="sans-serif" font-size="14" lengthAdjust="spacing" textLength="73.2813" x="688.2549" y="734.042">updatedAt</text><ellipse cx="568" cy="746.9922" fill="none" rx="3" ry="3" style="stroke:#038048;stroke-width:1;"/><text fill="#000000" font-family="sans-serif" font-size="14" lengthAdjust="spacing" textLength="56.6904" x="577" y="750.3389">Boolean</text><text fill="#000000" font-family="sans-serif" font-size="14" lengthAdjust="spacing" textLength="66.0693" x="688.2549" y="750.3389">isDeleted</text><line style="stroke:#181818;stroke-width:1;" x1="558" x2="861.7129" y1="757.6406" y2="757.6406"/><ellipse cx="568" cy="771.2891" fill="#84BE84" rx="3" ry="3" style="stroke:#038048;stroke-width:1;"/><text fill="#000000" font-family="sans-serif" font-size="14" lengthAdjust="spacing" text-decoration="underline" textLength="188.6445" x="577" y="774.6357">write(CreateParams) : Post</text><ellipse cx="568" cy="787.5859" fill="#84BE84" rx="3" ry="3" style="stroke:#038048;stroke-width:1;"/><text fill="#000000" font-family="sans-serif" font-size="14" lengthAdjust="spacing" textLength="243.5986" x="577" y="790.9326">editPost(Visitor, EditParams) : void</text><ellipse cx="568" cy="803.8828" fill="#84BE84" rx="3" ry="3" style="stroke:#038048;stroke-width:1;"/><text fill="#000000" font-family="sans-serif" font-size="14" lengthAdjust="spacing" textLength="279.7129" x="577" y="807.2295">deletePost(Visitor, DeleteParams) : void</text><ellipse cx="568" cy="820.1797" fill="#84BE84" rx="3" ry="3" style="stroke:#038048;stroke-width:1;"/><text fill="#000000" font-family="sans-serif" font-size="14" lengthAdjust="spacing" textLength="222.79" x="577" y="823.5264">toggleLike(MemberId) : LikeInfo</text></g><!--class GuestPost--><g class="entity" data-entity="GuestPost" data-source-line="18" data-uid="ent0011" id="entity_GuestPost"><rect fill="#F1F1F1" height="121.4531" rx="2.5" ry="2.5" style="stroke:#181818;stroke-width:0.5;" width="340.2754" x="813" y="398"/><ellipse cx="943.4331" cy="418.1328" fill="#ADD1B2" rx="11" ry="11" style="stroke:#181818;stroke-width:1;"/><path d="M946.4019,423.7734 Q945.8237,424.0703 945.1831,424.2109 Q944.5425,424.3672 943.8394,424.3672 Q941.3394,424.3672 940.0112,422.7266 Q938.6987,421.0703 938.6987,417.9453 Q938.6987,414.8203 940.0112,413.1641 Q941.3394,411.5078 943.8394,411.5078 Q944.5425,411.5078 945.1831,411.6641 Q945.8394,411.8203 946.4019,412.1172 L946.4019,414.8359 Q945.7769,414.2578 945.1831,413.9922 Q944.5894,413.7109 943.9644,413.7109 Q942.6206,413.7109 941.9331,414.7891 Q941.2456,415.8516 941.2456,417.9453 Q941.2456,420.0391 941.9331,421.1172 Q942.6206,422.1797 943.9644,422.1797 Q944.5894,422.1797 945.1831,421.9141 Q945.7769,421.6328 946.4019,421.0547 L946.4019,423.7734 Z " fill="#000000"/><text fill="#000000" font-family="sans-serif" font-size="12" font-style="italic" lengthAdjust="spacing" textLength="72.5625" x="963.1064" y="414.1387">&#171;ImplClass&#187;</text><text fill="#000000" font-family="sans-serif" font-size="14" lengthAdjust="spacing" textLength="70.9092" x="963.9331" y="429.9639">GuestPost</text><line style="stroke:#181818;stroke-width:0.5;" x1="814" x2="1152.2754" y1="438.2656" y2="438.2656"/><ellipse cx="824" cy="451.9141" fill="none" rx="3" ry="3" style="stroke:#038048;stroke-width:1;"/><text fill="#000000" font-family="sans-serif" font-size="14" lengthAdjust="spacing" textLength="114.502" x="833" y="455.2607">String nickname</text><ellipse cx="824" cy="468.2109" fill="none" rx="3" ry="3" style="stroke:#038048;stroke-width:1;"/><text fill="#000000" font-family="sans-serif" font-size="14" lengthAdjust="spacing" textLength="112.9434" x="833" y="471.5576">String password</text><line style="stroke:#181818;stroke-width:1;" x1="814" x2="1152.2754" y1="478.8594" y2="478.8594"/><ellipse cx="824" cy="492.5078" fill="#84BE84" rx="3" ry="3" style="stroke:#038048;stroke-width:1;"/><text fill="#000000" font-family="sans-serif" font-size="14" lengthAdjust="spacing" textLength="309.5723" x="833" y="495.8545">hasDeletePermission(Visitor, DeleteParams)</text><ellipse cx="824" cy="508.8047" fill="#84BE84" rx="3" ry="3" style="stroke:#038048;stroke-width:1;"/><text fill="#000000" font-family="sans-serif" font-size="14" lengthAdjust="spacing" textLength="314.2754" x="833" y="512.1514">hasUpdatePermission(Visitor, DeleteParams)</text></g><!--class MemberPost--><g class="entity" data-entity="MemberPost" data-source-line="25" data-uid="ent0012" id="entity_MemberPost"><rect fill="#F1F1F1" height="105.1563" rx="2.5" ry="2.5" style="stroke:#181818;stroke-width:0.5;" width="340.2754" x="438" y="406"/><ellipse cx="560.1992" cy="426.1328" fill="#ADD1B2" rx="11" ry="11" style="stroke:#181818;stroke-width:1;"/><path d="M563.168,431.7734 Q562.5898,432.0703 561.9492,432.2109 Q561.3086,432.3672 560.6055,432.3672 Q558.1055,432.3672 556.7773,430.7266 Q555.4648,429.0703 555.4648,425.9453 Q555.4648,422.8203 556.7773,421.1641 Q558.1055,419.5078 560.6055,419.5078 Q561.3086,419.5078 561.9492,419.6641 Q562.6055,419.8203 563.168,420.1172 L563.168,422.8359 Q562.543,422.2578 561.9492,421.9922 Q561.3555,421.7109 560.7305,421.7109 Q559.3867,421.7109 558.6992,422.7891 Q558.0117,423.8516 558.0117,425.9453 Q558.0117,428.0391 558.6992,429.1172 Q559.3867,430.1797 560.7305,430.1797 Q561.3555,430.1797 561.9492,429.9141 Q562.543,429.6328 563.168,429.0547 L563.168,431.7734 Z " fill="#000000"/><text fill="#000000" font-family="sans-serif" font-size="12" font-style="italic" lengthAdjust="spacing" textLength="72.5625" x="588.1064" y="422.1387">&#171;ImplClass&#187;</text><text fill="#000000" font-family="sans-serif" font-size="14" lengthAdjust="spacing" textLength="87.377" x="580.6992" y="437.9639">MemberPost</text><line style="stroke:#181818;stroke-width:0.5;" x1="439" x2="777.2754" y1="446.2656" y2="446.2656"/><ellipse cx="449" cy="459.9141" fill="none" rx="3" ry="3" style="stroke:#038048;stroke-width:1;"/><text fill="#000000" font-family="sans-serif" font-size="14" lengthAdjust="spacing" textLength="97.7197" x="458" y="463.2607">Author author</text><line style="stroke:#181818;stroke-width:1;" x1="439" x2="777.2754" y1="470.5625" y2="470.5625"/><ellipse cx="449" cy="484.2109" fill="#84BE84" rx="3" ry="3" style="stroke:#038048;stroke-width:1;"/><text fill="#000000" font-family="sans-serif" font-size="14" lengthAdjust="spacing" textLength="309.5723" x="458" y="487.5576">hasDeletePermission(Visitor, DeleteParams)</text><ellipse cx="449" cy="500.5078" fill="#84BE84" rx="3" ry="3" style="stroke:#038048;stroke-width:1;"/><text fill="#000000" font-family="sans-serif" font-size="14" lengthAdjust="spacing" textLength="314.2754" x="458" y="503.8545">hasUpdatePermission(Visitor, DeleteParams)</text></g><!--class Board--><g class="entity" data-entity="Board" data-source-line="33" data-uid="ent0013" id="entity_Board"><rect fill="#F1F1F1" height="88.8594" rx="2.5" ry="2.5" style="stroke:#181818;stroke-width:0.5;" width="169.6299" x="985" y="899"/><ellipse cx="1024.2328" cy="919.1328" fill="#F1F1F1" rx="11" ry="11" style="stroke:#181818;stroke-width:1;"/><path d="M1023.7171,919.6953 Q1021.8578,918.9922 1021.2015,918.2266 Q1020.5609,917.4453 1020.5609,916.1328 Q1020.5609,914.4453 1021.639,913.4766 Q1022.7171,912.5078 1024.5921,912.5078 Q1025.4515,912.5078 1026.2953,912.7109 Q1027.1546,912.8984 1027.9984,913.2891 L1027.9984,915.6797 Q1027.2171,915.1172 1026.389,914.8359 Q1025.5765,914.5391 1024.7796,914.5391 Q1023.9046,914.5391 1023.4203,914.8984 Q1022.9515,915.2578 1022.9515,915.9141 Q1022.9515,916.4297 1023.2953,916.7734 Q1023.639,917.1016 1024.7328,917.5078 L1025.7953,917.9141 Q1027.2796,918.4609 1027.9828,919.3672 Q1028.7015,920.2734 1028.7015,921.6484 Q1028.7015,923.5234 1027.5921,924.4453 Q1026.4828,925.3672 1024.2328,925.3672 Q1023.3109,925.3672 1022.389,925.1484 Q1021.4671,924.9297 1020.6078,924.5078 L1020.6078,921.9766 Q1021.5765,922.6641 1022.4984,923.0078 Q1023.4203,923.3516 1024.3109,923.3516 Q1025.2171,923.3516 1025.7171,922.9453 Q1026.2171,922.5234 1026.2171,921.7891 Q1026.2171,921.2266 1025.8734,920.8203 Q1025.5453,920.3984 1024.9203,920.1484 L1023.7171,919.6953 Z " fill="#000000"/><text fill="#000000" font-family="sans-serif" font-size="12" font-style="italic" lengthAdjust="spacing" textLength="87.7793" x="1041.6178" y="915.1387">&#171;ValueObject&#187;</text><text fill="#000000" font-family="sans-serif" font-size="14" lengthAdjust="spacing" textLength="41.3916" x="1064.8117" y="930.9639">Board</text><line style="stroke:#181818;stroke-width:0.5;" x1="986" x2="1153.6299" y1="939.2656" y2="939.2656"/><text fill="#000000" font-family="sans-serif" font-size="14" lengthAdjust="spacing" textLength="34.125" x="991" y="956.2607">Long</text><text fill="#000000" font-family="sans-serif" font-size="14" lengthAdjust="spacing" textLength="53.6895" x="1066.6533" y="956.2607">boardId</text><text fill="#000000" font-family="sans-serif" font-size="14" lengthAdjust="spacing" textLength="41.7813" x="991" y="972.5576">String</text><text fill="#000000" font-family="sans-serif" font-size="14" lengthAdjust="spacing" textLength="81.9766" x="1066.6533" y="972.5576">boardName</text><line style="stroke:#181818;stroke-width:0.5;" x1="986" x2="1153.6299" y1="979.8594" y2="979.8594"/></g><!--class HashTag--><g class="entity" data-entity="HashTag" data-source-line="41" data-uid="ent0015" id="entity_HashTag"><rect fill="#F1F1F1" height="72.5625" rx="2.5" ry="2.5" style="stroke:#181818;stroke-width:0.5;" width="95.1865" x="491.5" y="1104.5"/><ellipse cx="507.353" cy="1124.6328" fill="#ADD1B2" rx="11" ry="11" style="stroke:#181818;stroke-width:1;"/><path d="M511.4624,1130.6328 L503.7436,1130.6328 L503.7436,1118.2422 L511.4624,1118.2422 L511.4624,1120.3984 L506.1967,1120.3984 L506.1967,1123.0703 L510.9624,1123.0703 L510.9624,1125.2266 L506.1967,1125.2266 L506.1967,1128.4766 L511.4624,1128.4766 L511.4624,1130.6328 Z " fill="#000000"/><text fill="#000000" font-family="sans-serif" font-size="12" font-style="italic" lengthAdjust="spacing" textLength="49.8457" x="527.2652" y="1120.6387">&#171;Entity&#187;</text><text fill="#000000" font-family="sans-serif" font-size="14" lengthAdjust="spacing" textLength="61.291" x="521.5425" y="1136.4639">HashTag</text><line style="stroke:#181818;stroke-width:0.5;" x1="492.5" x2="585.6865" y1="1144.7656" y2="1144.7656"/><ellipse cx="502.5" cy="1158.4141" fill="none" rx="3" ry="3" style="stroke:#038048;stroke-width:1;"/><text fill="#000000" font-family="sans-serif" font-size="14" lengthAdjust="spacing" textLength="69.1865" x="511.5" y="1161.7607">String tag</text><line style="stroke:#181818;stroke-width:0.5;" x1="492.5" x2="585.6865" y1="1169.0625" y2="1169.0625"/></g><!--class Tags--><g class="entity" data-entity="Tags" data-source-line="44" data-uid="ent0016" id="entity_Tags"><rect fill="#F1F1F1" height="88.8594" rx="2.5" ry="2.5" style="stroke:#181818;stroke-width:0.5;" width="203.6934" x="437" y="899"/><ellipse cx="490.7998" cy="919.1328" fill="#F1F1F1" rx="11" ry="11" style="stroke:#181818;stroke-width:1;"/><path d="M490.2842,919.6953 Q488.4248,918.9922 487.7686,918.2266 Q487.1279,917.4453 487.1279,916.1328 Q487.1279,914.4453 488.2061,913.4766 Q489.2842,912.5078 491.1592,912.5078 Q492.0186,912.5078 492.8623,912.7109 Q493.7217,912.8984 494.5654,913.2891 L494.5654,915.6797 Q493.7842,915.1172 492.9561,914.8359 Q492.1436,914.5391 491.3467,914.5391 Q490.4717,914.5391 489.9873,914.8984 Q489.5186,915.2578 489.5186,915.9141 Q489.5186,916.4297 489.8623,916.7734 Q490.2061,917.1016 491.2998,917.5078 L492.3623,917.9141 Q493.8467,918.4609 494.5498,919.3672 Q495.2686,920.2734 495.2686,921.6484 Q495.2686,923.5234 494.1592,924.4453 Q493.0498,925.3672 490.7998,925.3672 Q489.8779,925.3672 488.9561,925.1484 Q488.0342,924.9297 487.1748,924.5078 L487.1748,921.9766 Q488.1436,922.6641 489.0654,923.0078 Q489.9873,923.3516 490.8779,923.3516 Q491.7842,923.3516 492.2842,922.9453 Q492.7842,922.5234 492.7842,921.7891 Q492.7842,921.2266 492.4404,920.8203 Q492.1123,920.3984 491.4873,920.1484 L490.2842,919.6953 Z " fill="#000000"/><text fill="#000000" font-family="sans-serif" font-size="12" font-style="italic" lengthAdjust="spacing" textLength="91.5938" x="509.2998" y="915.1387">&#171;Value Object&#187;</text><text fill="#000000" font-family="sans-serif" font-size="14" lengthAdjust="spacing" textLength="33.3115" x="538.4409" y="930.9639">Tags</text><line style="stroke:#181818;stroke-width:0.5;" x1="438" x2="639.6934" y1="939.2656" y2="939.2656"/><ellipse cx="448" cy="952.9141" fill="none" rx="3" ry="3" style="stroke:#038048;stroke-width:1;"/><text fill="#000000" font-family="sans-serif" font-size="14" lengthAdjust="spacing" textLength="148.374" x="457" y="956.2607">List&lt;HashTag&gt;  tags</text><line style="stroke:#181818;stroke-width:1;" x1="438" x2="639.6934" y1="963.5625" y2="963.5625"/><ellipse cx="448" cy="977.2109" fill="#84BE84" rx="3" ry="3" style="stroke:#038048;stroke-width:1;"/><text fill="#000000" font-family="sans-serif" font-size="14" lengthAdjust="spacing" text-decoration="underline" textLength="177.6934" x="457" y="980.5576">createTags(String) : Tags</text></g><!--class PostLike--><g class="entity" data-entity="PostLike" data-source-line="54" data-uid="ent0019" id="entity_PostLike"><rect fill="#F1F1F1" height="88.8594" rx="2.5" ry="2.5" style="stroke:#181818;stroke-width:0.5;" width="205.6416" x="710" y="1096.5"/><ellipse cx="779.4702" cy="1116.6328" fill="#ADD1B2" rx="11" ry="11" style="stroke:#181818;stroke-width:1;"/><path d="M783.5796,1122.6328 L775.8608,1122.6328 L775.8608,1110.2422 L783.5796,1110.2422 L783.5796,1112.3984 L778.314,1112.3984 L778.314,1115.0703 L783.0796,1115.0703 L783.0796,1117.2266 L778.314,1117.2266 L778.314,1120.4766 L783.5796,1120.4766 L783.5796,1122.6328 Z " fill="#000000"/><text fill="#000000" font-family="sans-serif" font-size="12" font-style="italic" lengthAdjust="spacing" textLength="49.8457" x="804.1479" y="1112.6387">&#171;Entity&#187;</text><text fill="#000000" font-family="sans-serif" font-size="14" lengthAdjust="spacing" textLength="58.2012" x="799.9702" y="1128.4639">PostLike</text><line style="stroke:#181818;stroke-width:0.5;" x1="711" x2="914.6416" y1="1136.7656" y2="1136.7656"/><ellipse cx="721" cy="1150.4141" fill="none" rx="3" ry="3" style="stroke:#038048;stroke-width:1;"/><text fill="#000000" font-family="sans-serif" font-size="14" lengthAdjust="spacing" textLength="22.3535" x="730" y="1153.7607">Vid</text><text fill="#000000" font-family="sans-serif" font-size="14" lengthAdjust="spacing" textLength="21.0615" x="805.6533" y="1153.7607">vid</text><ellipse cx="721" cy="1166.7109" fill="none" rx="3" ry="3" style="stroke:#038048;stroke-width:1;"/><text fill="#000000" font-family="sans-serif" font-size="14" lengthAdjust="spacing" textLength="34.125" x="730" y="1170.0576">Long</text><text fill="#000000" font-family="sans-serif" font-size="14" lengthAdjust="spacing" textLength="103.9883" x="805.6533" y="1170.0576">likedMemberId</text><line style="stroke:#181818;stroke-width:0.5;" x1="711" x2="914.6416" y1="1177.3594" y2="1177.3594"/></g><!--class Likes--><g class="entity" data-entity="Likes" data-source-line="58" data-uid="ent0020" id="entity_Likes"><rect fill="#F1F1F1" height="105.1563" rx="2.5" ry="2.5" style="stroke:#181818;stroke-width:0.5;" width="273.5703" x="676" y="891"/><ellipse cx="764.7383" cy="911.1328" fill="#F1F1F1" rx="11" ry="11" style="stroke:#181818;stroke-width:1;"/><path d="M764.2227,911.6953 Q762.3633,910.9922 761.707,910.2266 Q761.0664,909.4453 761.0664,908.1328 Q761.0664,906.4453 762.1445,905.4766 Q763.2227,904.5078 765.0977,904.5078 Q765.957,904.5078 766.8008,904.7109 Q767.6602,904.8984 768.5039,905.2891 L768.5039,907.6797 Q767.7227,907.1172 766.8945,906.8359 Q766.082,906.5391 765.2852,906.5391 Q764.4102,906.5391 763.9258,906.8984 Q763.457,907.2578 763.457,907.9141 Q763.457,908.4297 763.8008,908.7734 Q764.1445,909.1016 765.2383,909.5078 L766.3008,909.9141 Q767.7852,910.4609 768.4883,911.3672 Q769.207,912.2734 769.207,913.6484 Q769.207,915.5234 768.0977,916.4453 Q766.9883,917.3672 764.7383,917.3672 Q763.8164,917.3672 762.8945,917.1484 Q761.9727,916.9297 761.1133,916.5078 L761.1133,913.9766 Q762.082,914.6641 763.0039,915.0078 Q763.9258,915.3516 764.8164,915.3516 Q765.7227,915.3516 766.2227,914.9453 Q766.7227,914.5234 766.7227,913.7891 Q766.7227,913.2266 766.3789,912.8203 Q766.0508,912.3984 765.4258,912.1484 L764.2227,911.6953 Z " fill="#000000"/><text fill="#000000" font-family="sans-serif" font-size="12" font-style="italic" lengthAdjust="spacing" textLength="91.5938" x="783.2383" y="907.1387">&#171;Value Object&#187;</text><text fill="#000000" font-family="sans-serif" font-size="14" lengthAdjust="spacing" textLength="35.7041" x="811.1831" y="922.9639">Likes</text><line style="stroke:#181818;stroke-width:0.5;" x1="677" x2="948.5703" y1="931.2656" y2="931.2656"/><ellipse cx="687" cy="944.9141" fill="none" rx="3" ry="3" style="stroke:#038048;stroke-width:1;"/><text fill="#000000" font-family="sans-serif" font-size="14" lengthAdjust="spacing" textLength="146.8291" x="696" y="948.2607">List&lt;PostLike&gt;  likes</text><line style="stroke:#181818;stroke-width:1;" x1="677" x2="948.5703" y1="955.5625" y2="955.5625"/><ellipse cx="687" cy="969.2109" fill="#84BE84" rx="3" ry="3" style="stroke:#038048;stroke-width:1;"/><text fill="#000000" font-family="sans-serif" font-size="14" lengthAdjust="spacing" textLength="225.0938" x="696" y="972.5576">isLiked(Vid, PostType) : Boolean</text><ellipse cx="687" cy="985.5078" fill="#84BE84" rx="3" ry="3" style="stroke:#038048;stroke-width:1;"/><text fill="#000000" font-family="sans-serif" font-size="14" lengthAdjust="spacing" textLength="247.5703" x="696" y="988.8545">toggleLike(Vid, PostType) : LikeInfo</text></g><!--class Comment--><g class="entity" data-entity="Comment" data-source-line="2" data-uid="ent0026" id="entity_Comment"><rect fill="#F1F1F1" height="137.75" rx="2.5" ry="2.5" style="stroke:#181818;stroke-width:0.5;" width="210.5361" x="169.5" y="200"/><ellipse cx="217.9321" cy="220.1328" fill="#A9DCDF" rx="11" ry="11" style="stroke:#181818;stroke-width:1;"/><path d="M218.0415,215.4766 L216.8853,220.5547 L219.2134,220.5547 L218.0415,215.4766 Z M216.5571,213.2422 L219.5415,213.2422 L222.9009,225.6328 L220.4478,225.6328 L219.6821,222.5703 L216.4009,222.5703 L215.6509,225.6328 L213.2134,225.6328 L216.5571,213.2422 Z " fill="#000000"/><text fill="#000000" font-family="sans-serif" font-size="12" font-style="italic" lengthAdjust="spacing" textLength="109.1719" x="236.4321" y="216.1387">&#171;Aggregate Root&#187;</text><text fill="#000000" font-family="sans-serif" font-size="14" font-style="italic" lengthAdjust="spacing" textLength="68.5918" x="256.7222" y="231.9639">Comment</text><line style="stroke:#181818;stroke-width:0.5;" x1="170.5" x2="379.0361" y1="240.2656" y2="240.2656"/><ellipse cx="180.5" cy="253.9141" fill="none" rx="3" ry="3" style="stroke:#038048;stroke-width:1;"/><text fill="#000000" font-family="sans-serif" font-size="14" lengthAdjust="spacing" textLength="38.958" x="189.5" y="257.2607">Post :</text><text fill="#000000" font-family="sans-serif" font-size="14" lengthAdjust="spacing" textLength="30.2354" x="300.7549" y="257.2607">post</text><ellipse cx="180.5" cy="270.2109" fill="none" rx="3" ry="3" style="stroke:#038048;stroke-width:1;"/><text fill="#000000" font-family="sans-serif" font-size="14" lengthAdjust="spacing" textLength="64.8457" x="189.5" y="273.5576">Content :</text><text fill="#000000" font-family="sans-serif" font-size="14" lengthAdjust="spacing" textLength="53.6006" x="300.7549" y="273.5576">content</text><ellipse cx="180.5" cy="286.5078" fill="none" rx="3" ry="3" style="stroke:#038048;stroke-width:1;"/><text fill="#000000" font-family="sans-serif" font-size="14" lengthAdjust="spacing" textLength="77.3213" x="189.5" y="289.8545">DateTime :</text><text fill="#000000" font-family="sans-serif" font-size="14" lengthAdjust="spacing" textLength="68.7012" x="300.7549" y="289.8545">createdAt</text><ellipse cx="180.5" cy="302.8047" fill="none" rx="3" ry="3" style="stroke:#038048;stroke-width:1;"/><text fill="#000000" font-family="sans-serif" font-size="14" lengthAdjust="spacing" textLength="77.3213" x="189.5" y="306.1514">DateTime :</text><text fill="#000000" font-family="sans-serif" font-size="14" lengthAdjust="spacing" textLength="73.2813" x="300.7549" y="306.1514">updatedAt</text><ellipse cx="180.5" cy="319.1016" fill="none" rx="3" ry="3" style="stroke:#038048;stroke-width:1;"/><text fill="#000000" font-family="sans-serif" font-size="14" lengthAdjust="spacing" textLength="65.8574" x="189.5" y="322.4482">Boolean :</text><text fill="#000000" font-family="sans-serif" font-size="14" lengthAdjust="spacing" textLength="66.0693" x="300.7549" y="322.4482">isDeleted</text><line style="stroke:#181818;stroke-width:0.5;" x1="170.5" x2="379.0361" y1="329.75" y2="329.75"/></g><!--class GuestComment--><g class="entity" data-entity="GuestComment" data-source-line="9" data-uid="ent0027" id="entity_GuestComment"><rect fill="#F1F1F1" height="56.2656" rx="2.5" ry="2.5" style="stroke:#181818;stroke-width:0.5;" width="141.71" x="239" y="84"/><ellipse cx="254" cy="104.1328" fill="#ADD1B2" rx="11" ry="11" style="stroke:#181818;stroke-width:1;"/><path d="M256.9688,109.7734 Q256.3906,110.0703 255.75,110.2109 Q255.1094,110.3672 254.4063,110.3672 Q251.9063,110.3672 250.5781,108.7266 Q249.2656,107.0703 249.2656,103.9453 Q249.2656,100.8203 250.5781,99.1641 Q251.9063,97.5078 254.4063,97.5078 Q255.1094,97.5078 255.75,97.6641 Q256.4063,97.8203 256.9688,98.1172 L256.9688,100.8359 Q256.3438,100.2578 255.75,99.9922 Q255.1563,99.7109 254.5313,99.7109 Q253.1875,99.7109 252.5,100.7891 Q251.8125,101.8516 251.8125,103.9453 Q251.8125,106.0391 252.5,107.1172 Q253.1875,108.1797 254.5313,108.1797 Q255.1563,108.1797 255.75,107.9141 Q256.3438,107.6328 256.9688,107.0547 L256.9688,109.7734 Z " fill="#000000"/><text fill="#000000" font-family="sans-serif" font-size="12" font-style="italic" lengthAdjust="spacing" textLength="72.5625" x="286.5737" y="100.1387">&#171;ImplClass&#187;</text><text fill="#000000" font-family="sans-serif" font-size="14" lengthAdjust="spacing" textLength="109.71" x="268" y="115.9639">GuestComment</text><line style="stroke:#181818;stroke-width:0.5;" x1="240" x2="379.71" y1="124.2656" y2="124.2656"/><line style="stroke:#181818;stroke-width:0.5;" x1="240" x2="379.71" y1="132.2656" y2="132.2656"/></g><!--class MemberComment--><g class="entity" data-entity="MemberComment" data-source-line="11" data-uid="ent0028" id="entity_MemberComment"><rect fill="#F1F1F1" height="56.2656" rx="2.5" ry="2.5" style="stroke:#181818;stroke-width:0.5;" width="158.1777" x="46" y="84"/><ellipse cx="61" cy="104.1328" fill="#ADD1B2" rx="11" ry="11" style="stroke:#181818;stroke-width:1;"/><path d="M63.9688,109.7734 Q63.3906,110.0703 62.75,110.2109 Q62.1094,110.3672 61.4063,110.3672 Q58.9063,110.3672 57.5781,108.7266 Q56.2656,107.0703 56.2656,103.9453 Q56.2656,100.8203 57.5781,99.1641 Q58.9063,97.5078 61.4063,97.5078 Q62.1094,97.5078 62.75,97.6641 Q63.4063,97.8203 63.9688,98.1172 L63.9688,100.8359 Q63.3438,100.2578 62.75,99.9922 Q62.1563,99.7109 61.5313,99.7109 Q60.1875,99.7109 59.5,100.7891 Q58.8125,101.8516 58.8125,103.9453 Q58.8125,106.0391 59.5,107.1172 Q60.1875,108.1797 61.5313,108.1797 Q62.1563,108.1797 62.75,107.9141 Q63.3438,107.6328 63.9688,107.0547 L63.9688,109.7734 Z " fill="#000000"/><text fill="#000000" font-family="sans-serif" font-size="12" font-style="italic" lengthAdjust="spacing" textLength="72.5625" x="101.8076" y="100.1387">&#171;ImplClass&#187;</text><text fill="#000000" font-family="sans-serif" font-size="14" lengthAdjust="spacing" textLength="126.1777" x="75" y="115.9639">MemberComment</text><line style="stroke:#181818;stroke-width:0.5;" x1="47" x2="203.1777" y1="124.2656" y2="124.2656"/><line style="stroke:#181818;stroke-width:0.5;" x1="47" x2="203.1777" y1="132.2656" y2="132.2656"/></g><!--class Post--><g class="entity" data-entity="Post" data-source-line="16" data-uid="ent0031" id="entity_Post"><rect fill="#F1F1F1" height="72.5625" rx="2.5" ry="2.5" style="stroke:#181818;stroke-width:0.5;" width="119.5938" x="238" y="422"/><ellipse cx="253" cy="442.1328" fill="#F1F1F1" rx="11" ry="11" style="stroke:#181818;stroke-width:1;"/><path d="M252.4844,442.6953 Q250.625,441.9922 249.9688,441.2266 Q249.3281,440.4453 249.3281,439.1328 Q249.3281,437.4453 250.4063,436.4766 Q251.4844,435.5078 253.3594,435.5078 Q254.2188,435.5078 255.0625,435.7109 Q255.9219,435.8984 256.7656,436.2891 L256.7656,438.6797 Q255.9844,438.1172 255.1563,437.8359 Q254.3438,437.5391 253.5469,437.5391 Q252.6719,437.5391 252.1875,437.8984 Q251.7188,438.2578 251.7188,438.9141 Q251.7188,439.4297 252.0625,439.7734 Q252.4063,440.1016 253.5,440.5078 L254.5625,440.9141 Q256.0469,441.4609 256.75,442.3672 Q257.4688,443.2734 257.4688,444.6484 Q257.4688,446.5234 256.3594,447.4453 Q255.25,448.3672 253,448.3672 Q252.0781,448.3672 251.1563,448.1484 Q250.2344,447.9297 249.375,447.5078 L249.375,444.9766 Q250.3438,445.6641 251.2656,446.0078 Q252.1875,446.3516 253.0781,446.3516 Q253.9844,446.3516 254.4844,445.9453 Q254.9844,445.5234 254.9844,444.7891 Q254.9844,444.2266 254.6406,443.8203 Q254.3125,443.3984 253.6875,443.1484 L252.4844,442.6953 Z " fill="#000000"/><text fill="#000000" font-family="sans-serif" font-size="12" font-style="italic" lengthAdjust="spacing" textLength="91.5938" x="265" y="438.1387">&#171;Value Object&#187;</text><text fill="#000000" font-family="sans-serif" font-size="14" lengthAdjust="spacing" textLength="29.791" x="295.9014" y="453.9639">Post</text><line style="stroke:#181818;stroke-width:0.5;" x1="239" x2="356.5938" y1="462.2656" y2="462.2656"/><ellipse cx="249" cy="475.9141" fill="none" rx="3" ry="3" style="stroke:#038048;stroke-width:1;"/><text fill="#000000" font-family="sans-serif" font-size="14" lengthAdjust="spacing" textLength="90.9932" x="258" y="479.2607">Long : postId</text><line style="stroke:#181818;stroke-width:0.5;" x1="239" x2="356.5938" y1="486.5625" y2="486.5625"/></g><!--link Board to BoardName--><g class="link" data-entity-1="Board" data-entity-2="BoardName" data-source-line="23" data-uid="lnk7" id="link_Board_BoardName"><path codeLine="23" d="M1386.16,1226.15 C1376.14,1246.79 1365.82,1268.06 1357.16,1285.89" fill="none" id="Board-BoardName" style="stroke:#181818;stroke-width:1;"/></g><!--link Board to Creator--><g class="link" data-entity-1="Board" data-entity-2="Creator" data-source-line="24" data-uid="lnk8" id="link_Board_Creator"><path codeLine="24" d="M1471.43,1226.15 C1483.97,1249.91 1496.96,1274.49 1507.11,1293.72" fill="none" id="Board-Creator" style="stroke:#181818;stroke-width:1;"/></g><!--link Post to Board--><g class="link" data-entity-1="Post" data-entity-2="Board" data-source-line="37" data-uid="lnk14" id="link_Post_Board"><path codeLine="37" d="M863.19,806.64 C912.19,838.82 963.89,872.79 1003.34,898.71" fill="none" id="Post-Board" style="stroke:#181818;stroke-width:1;"/></g><!--link Post to Tags--><g class="link" data-entity-1="Post" data-entity-2="Tags" data-source-line="49" data-uid="lnk17" id="link_Post_Tags"><path codeLine="49" d="M619.49,831.18 C601.87,855.55 584.53,879.53 570.48,898.96" fill="none" id="Post-Tags" style="stroke:#181818;stroke-width:1;"/></g><!--link Tags to HashTag--><g class="link" data-entity-1="Tags" data-entity-2="HashTag" data-source-line="50" data-uid="lnk18" id="link_Tags_HashTag"><path codeLine="50" d="M539,988.37 C539,1023.39 539,1065.81 539,1098.43" fill="none" id="Tags-to-HashTag" style="stroke:#181818;stroke-width:1;"/><polygon fill="#181818" points="539,1104.43,543,1095.43,539,1099.43,535,1095.43,539,1104.43" style="stroke:#181818;stroke-width:1;"/><text fill="#000000" font-family="sans-serif" font-size="13" lengthAdjust="spacing" textLength="8.271" x="530.4781" y="1007.8207">1</text><text fill="#000000" font-family="sans-serif" font-size="13" lengthAdjust="spacing" textLength="9.7246" x="529.2199" y="1093.4241">N</text></g><!--link Post to Likes--><g class="link" data-entity-1="Post" data-entity-2="Likes" data-source-line="64" data-uid="lnk21" id="link_Post_Likes"><path codeLine="64" d="M764.52,831.18 C773.68,852.23 782.72,872.98 790.47,890.77" fill="none" id="Post-Likes" style="stroke:#181818;stroke-width:1;"/></g><!--link Likes to PostLike--><g class="link" data-entity-1="Likes" data-entity-2="PostLike" data-source-line="65" data-uid="lnk22" id="link_Likes_PostLike"><path codeLine="65" d="M813,996.12 C813,1027.34 813,1060.71 813,1090.38" fill="none" id="Likes-to-PostLike" style="stroke:#181818;stroke-width:1;"/><polygon fill="#181818" points="813,1096.38,817,1087.38,813,1091.38,809,1087.38,813,1096.38" style="stroke:#181818;stroke-width:1;"/><text fill="#000000" font-family="sans-serif" font-size="13" lengthAdjust="spacing" textLength="8.271" x="804.5096" y="1016.2639">1</text><text fill="#000000" font-family="sans-serif" font-size="13" lengthAdjust="spacing" textLength="9.7246" x="803.3939" y="1085.487">N</text></g><!--link GuestPost to Post--><g class="link" data-entity-1="GuestPost" data-entity-2="Post" data-source-line="68" data-uid="lnk23" id="link_GuestPost_Post"><path codeLine="68" d="M916.22,519.31 C895.93,537.48 886.2477,546.1503 863.0377,566.9403" fill="none" id="GuestPost-to-Post" style="stroke:#181818;stroke-width:1;"/><polygon fill="none" points="849.63,578.95,867.0409,571.4095,859.0344,562.471,849.63,578.95" style="stroke:#181818;stroke-width:1;"/></g><!--link MemberPost to Post--><g class="link" data-entity-1="MemberPost" data-entity-2="Post" data-source-line="69" data-uid="lnk24" id="link_MemberPost_Post"><path codeLine="69" d="M629.51,511.05 C637.84,531.02 640.8246,538.2097 650.8246,562.1597" fill="none" id="MemberPost-to-Post" style="stroke:#181818;stroke-width:1;"/><polygon fill="none" points="657.76,578.77,656.3614,559.848,645.2879,564.4715,657.76,578.77" style="stroke:#181818;stroke-width:1;"/></g><!--link GuestComment to Comment--><g class="link" data-entity-1="GuestComment" data-entity-2="Comment" data-source-line="13" data-uid="lnk29" id="link_GuestComment_Comment"><path codeLine="13" d="M303.82,140.35 C300.07,156.95 299.0739,161.3719 294.3239,182.4119" fill="none" id="GuestComment-to-Comment" style="stroke:#181818;stroke-width:1;"/><polygon fill="none" points="290.36,199.97,300.1766,183.7332,288.4712,181.0906,290.36,199.97" style="stroke:#181818;stroke-width:1;"/></g><!--link MemberComment to Comment--><g class="link" data-entity-1="MemberComment" data-entity-2="Comment" data-source-line="14" data-uid="lnk30" id="link_MemberComment_Comment"><path codeLine="14" d="M151.47,140.35 C167.54,156.95 176.296,165.9917 196.646,187.0317" fill="none" id="MemberComment-to-Comment" style="stroke:#181818;stroke-width:1;"/><polygon fill="none" points="209.16,199.97,200.9588,182.8604,192.3332,191.203,209.16,199.97" style="stroke:#181818;stroke-width:1;"/></g><!--link Comment to Post--><g class="link" data-entity-1="Comment" data-entity-2="Post" data-source-line="19" data-uid="lnk32" id="link_Comment_Post"><path codeLine="19" d="M283.37,338.22 C286.85,366.6 290.74,398.35 293.64,421.96" fill="none" id="Comment-Post" style="stroke:#181818;stroke-width:1;"/></g><!--link Board to Board--><g class="link" data-entity-1="Board" data-entity-2="Board" data-source-line="8" data-uid="lnk33" id="link_Board_Board"><path codeLine="8" d="M1149.67,988.13 C1186.15,1008.11 1225.4078,1029.5975 1267.9978,1052.9275" fill="none" id="Board-to-Board" style="stroke:#181818;stroke-width:1;stroke-dasharray:7.0,7.0;"/><polygon fill="#181818" points="1273.26,1055.81,1267.2884,1047.978,1268.8748,1053.4079,1263.445,1054.9943,1273.26,1055.81" style="stroke:#181818;stroke-width:1;"/></g><!--link Post to Post--><g class="link" data-entity-1="Post" data-entity-2="Post" data-source-line="9" data-uid="lnk34" id="link_Post_Post"><path codeLine="9" d="M357.91,495.05 C409.91,525.91 482.3399,568.8984 551.4599,609.9084" fill="none" id="Post-to-Post" style="stroke:#181818;stroke-width:1;stroke-dasharray:7.0,7.0;"/><polygon fill="#181818" points="556.62,612.97,550.9209,604.9376,552.3199,610.4187,546.8388,611.8177,556.62,612.97" style="stroke:#181818;stroke-width:1;"/></g><!--SRC=[AqXCpavCJrLGIifFB4fHICxFAqcjA56gvk9I00B5pBpadDAKL0MmB5HI7ynnJ4ylIarFB4dLAoZDpS6ZkY2_k0Ik69L7I6joVcvkQXwwUh06a3bwJc0tw-dPGRH1-61fg4wz0A0oi0AmUX2FgnO0]--></g></svg>