<svg xmlns="http://www.w3.org/2000/svg" xmlns:xlink="http://www.w3.org/1999/xlink" contentStyleType="text/css" data-diagram-type="CLASS" height="1139px" preserveAspectRatio="none" style="width:1587px;height:1139px;background:#FFFFFF;" version="1.1" viewBox="0 0 1587 1139" width="1587px" zoomAndPan="magnify"><defs/><g><!--cluster context map--><g class="cluster" data-entity="context map" data-source-line="2" data-uid="ent0002" id="cluster_context map"><path d="M8.5,6 L108.2246,6 A3.75,3.75 0 0 1 110.7246,8.5 L117.7246,28.2969 L1577.5,28.2969 A2.5,2.5 0 0 1 1580,30.7969 L1580,1129.5 A2.5,2.5 0 0 1 1577.5,1132 L8.5,1132 A2.5,2.5 0 0 1 6,1129.5 L6,8.5 A2.5,2.5 0 0 1 8.5,6" fill="none" style="stroke:#000000;stroke-width:1.5;"/><line style="stroke:#000000;stroke-width:1.5;" x1="6" x2="117.7246" y1="28.2969" y2="28.2969"/><text fill="#000000" font-family="sans-serif" font-size="14" font-weight="bold" lengthAdjust="spacing" textLength="98.7246" x="10" y="20.9951">context map</text></g><!--cluster board context--><g class="cluster" data-entity="board context" data-source-line="3" data-uid="ent0003" id="cluster_board context"><path d="M274.5,49 L386.1807,49 A3.75,3.75 0 0 1 388.6807,51.5 L395.6807,71.2969 L1209.5,71.2969 A2.5,2.5 0 0 1 1212,73.7969 L1212,791.5 A2.5,2.5 0 0 1 1209.5,794 L274.5,794 A2.5,2.5 0 0 1 272,791.5 L272,51.5 A2.5,2.5 0 0 1 274.5,49" fill="none" style="stroke:#000000;stroke-width:1.5;"/><line style="stroke:#000000;stroke-width:1.5;" x1="272" x2="395.6807" y1="71.2969" y2="71.2969"/><text fill="#000000" font-family="sans-serif" font-size="14" font-weight="bold" lengthAdjust="spacing" textLength="110.6807" x="276" y="63.9951">board context</text></g><!--cluster board--><g class="cluster" data-entity="board" data-source-line="4" data-uid="ent0004" id="cluster_board"><path d="M1020.5,92 L1067.5127,92 A3.75,3.75 0 0 1 1070.0127,94.5 L1077.0127,114.2969 L1185.5,114.2969 A2.5,2.5 0 0 1 1188,116.7969 L1188,327.5 A2.5,2.5 0 0 1 1185.5,330 L1020.5,330 A2.5,2.5 0 0 1 1018,327.5 L1018,94.5 A2.5,2.5 0 0 1 1020.5,92" fill="none" style="stroke:#000000;stroke-width:1.5;"/><line style="stroke:#000000;stroke-width:1.5;" x1="1018" x2="1077.0127" y1="114.2969" y2="114.2969"/><text fill="#000000" font-family="sans-serif" font-size="14" font-weight="bold" lengthAdjust="spacing" textLength="46.0127" x="1022" y="106.9951">board</text></g><!--cluster post--><g class="cluster" data-entity="post" data-source-line="12" data-uid="ent0008" id="cluster_post"><path d="M298.5,223 L334.165,223 A3.75,3.75 0 0 1 336.665,225.5 L343.665,245.2969 L600.5,245.2969 A2.5,2.5 0 0 1 603,247.7969 L603,767.5 A2.5,2.5 0 0 1 600.5,770 L298.5,770 A2.5,2.5 0 0 1 296,767.5 L296,225.5 A2.5,2.5 0 0 1 298.5,223" fill="none" style="stroke:#000000;stroke-width:1.5;"/><line style="stroke:#000000;stroke-width:1.5;" x1="296" x2="343.665" y1="245.2969" y2="245.2969"/><text fill="#000000" font-family="sans-serif" font-size="14" font-weight="bold" lengthAdjust="spacing" textLength="34.665" x="300" y="237.9951">post</text></g><!--cluster comment--><g class="cluster" data-entity="comment" data-source-line="35" data-uid="ent0020" id="cluster_comment"><path d="M629.5,92 L703.7471,92 A3.75,3.75 0 0 1 706.2471,94.5 L713.2471,114.2969 L991.5,114.2969 A2.5,2.5 0 0 1 994,116.7969 L994,327.5 A2.5,2.5 0 0 1 991.5,330 L629.5,330 A2.5,2.5 0 0 1 627,327.5 L627,94.5 A2.5,2.5 0 0 1 629.5,92" fill="none" style="stroke:#000000;stroke-width:1.5;"/><line style="stroke:#000000;stroke-width:1.5;" x1="627" x2="713.2471" y1="114.2969" y2="114.2969"/><text fill="#000000" font-family="sans-serif" font-size="14" font-weight="bold" lengthAdjust="spacing" textLength="73.2471" x="631" y="106.9951">comment</text></g><!--cluster userBoardRole--><g class="cluster" data-entity="userBoardRole" data-source-line="44" data-uid="ent0024" id="cluster_userBoardRole"><path d="M366.5,92 L483.5537,92 A3.75,3.75 0 0 1 486.0537,94.5 L493.0537,114.2969 L531.5,114.2969 A2.5,2.5 0 0 1 534,116.7969 L534,196.5 A2.5,2.5 0 0 1 531.5,199 L366.5,199 A2.5,2.5 0 0 1 364,196.5 L364,94.5 A2.5,2.5 0 0 1 366.5,92" fill="none" style="stroke:#000000;stroke-width:1.5;"/><line style="stroke:#000000;stroke-width:1.5;" x1="364" x2="493.0537" y1="114.2969" y2="114.2969"/><text fill="#000000" font-family="sans-serif" font-size="14" font-weight="bold" lengthAdjust="spacing" textLength="116.0537" x="368" y="106.9951">userBoardRole</text></g><!--cluster member context--><g class="cluster" data-entity="member context" data-source-line="56" data-uid="ent0030" id="cluster_member context"><path d="M274.5,818 L405.2598,818 A3.75,3.75 0 0 1 407.7598,820.5 L414.7598,840.2969 L624.5,840.2969 A2.5,2.5 0 0 1 627,842.7969 L627,1105.5 A2.5,2.5 0 0 1 624.5,1108 L274.5,1108 A2.5,2.5 0 0 1 272,1105.5 L272,820.5 A2.5,2.5 0 0 1 274.5,818" fill="none" style="stroke:#000000;stroke-width:1.5;"/><line style="stroke:#000000;stroke-width:1.5;" x1="272" x2="414.7598" y1="840.2969" y2="840.2969"/><text fill="#000000" font-family="sans-serif" font-size="14" font-weight="bold" lengthAdjust="spacing" textLength="129.7598" x="276" y="832.9951">member context</text></g><!--cluster member--><g class="cluster" data-entity="member" data-source-line="57" data-uid="ent0031" id="cluster_member"><path d="M298.5,861 L364.5918,861 A3.75,3.75 0 0 1 367.0918,863.5 L374.0918,883.2969 L600.5,883.2969 A2.5,2.5 0 0 1 603,885.7969 L603,1081.5 A2.5,2.5 0 0 1 600.5,1084 L298.5,1084 A2.5,2.5 0 0 1 296,1081.5 L296,863.5 A2.5,2.5 0 0 1 298.5,861" fill="none" style="stroke:#000000;stroke-width:1.5;"/><line style="stroke:#000000;stroke-width:1.5;" x1="296" x2="374.0918" y1="883.2969" y2="883.2969"/><text fill="#000000" font-family="sans-serif" font-size="14" font-weight="bold" lengthAdjust="spacing" textLength="65.0918" x="300" y="875.9951">member</text></g><!--cluster permission context--><g class="cluster" data-entity="permission context" data-source-line="69" data-uid="ent0037" id="cluster_permission context"><path d="M1238.5,354 L1391.0254,354 A3.75,3.75 0 0 1 1393.5254,356.5 L1400.5254,376.2969 L1553.5,376.2969 A2.5,2.5 0 0 1 1556,378.7969 L1556,985.5 A2.5,2.5 0 0 1 1553.5,988 L1238.5,988 A2.5,2.5 0 0 1 1236,985.5 L1236,356.5 A2.5,2.5 0 0 1 1238.5,354" fill="none" style="stroke:#000000;stroke-width:1.5;"/><line style="stroke:#000000;stroke-width:1.5;" x1="1236" x2="1400.5254" y1="376.2969" y2="376.2969"/><text fill="#000000" font-family="sans-serif" font-size="14" font-weight="bold" lengthAdjust="spacing" textLength="151.5254" x="1240" y="368.9951">permission context</text></g><!--cluster permission--><g class="cluster" data-entity="permission" data-source-line="70" data-uid="ent0038" id="cluster_permission"><path d="M1262.5,397 L1350.3574,397 A3.75,3.75 0 0 1 1352.8574,399.5 L1359.8574,419.2969 L1529.5,419.2969 A2.5,2.5 0 0 1 1532,421.7969 L1532,961.5 A2.5,2.5 0 0 1 1529.5,964 L1262.5,964 A2.5,2.5 0 0 1 1260,961.5 L1260,399.5 A2.5,2.5 0 0 1 1262.5,397" fill="none" style="stroke:#000000;stroke-width:1.5;"/><line style="stroke:#000000;stroke-width:1.5;" x1="1260" x2="1359.8574" y1="419.2969" y2="419.2969"/><text fill="#000000" font-family="sans-serif" font-size="14" font-weight="bold" lengthAdjust="spacing" textLength="86.8574" x="1264" y="411.9951">permission</text></g><!--cluster auth context--><g class="cluster" data-entity="auth context" data-source-line="94" data-uid="ent0048" id="cluster_auth context"><path d="M32.5,620 L134.2412,620 A3.75,3.75 0 0 1 136.7412,622.5 L143.7412,642.2969 L245.5,642.2969 A2.5,2.5 0 0 1 248,644.7969 L248,989.5 A2.5,2.5 0 0 1 245.5,992 L32.5,992 A2.5,2.5 0 0 1 30,989.5 L30,622.5 A2.5,2.5 0 0 1 32.5,620" fill="none" style="stroke:#000000;stroke-width:1.5;"/><line style="stroke:#000000;stroke-width:1.5;" x1="30" x2="143.7412" y1="642.2969" y2="642.2969"/><text fill="#000000" font-family="sans-serif" font-size="14" font-weight="bold" lengthAdjust="spacing" textLength="100.7412" x="34" y="634.9951">auth context</text></g><!--cluster auth--><g class="cluster" data-entity="auth" data-source-line="95" data-uid="ent0049" id="cluster_auth"><path d="M56.5,663 L93.5732,663 A3.75,3.75 0 0 1 96.0732,665.5 L103.0732,685.2969 L221.5,685.2969 A2.5,2.5 0 0 1 224,687.7969 L224,965.5 A2.5,2.5 0 0 1 221.5,968 L56.5,968 A2.5,2.5 0 0 1 54,965.5 L54,665.5 A2.5,2.5 0 0 1 56.5,663" fill="none" style="stroke:#000000;stroke-width:1.5;"/><line style="stroke:#000000;stroke-width:1.5;" x1="54" x2="103.0732" y1="685.2969" y2="685.2969"/><text fill="#000000" font-family="sans-serif" font-size="14" font-weight="bold" lengthAdjust="spacing" textLength="36.0732" x="58" y="677.9951">auth</text></g><!--class Board--><g class="entity" data-entity="Board" data-source-line="5" data-uid="ent0005" id="entity_Board"><rect fill="#F1F1F1" height="56.2656" rx="2.5" ry="2.5" style="stroke:#181818;stroke-width:0.5;" width="137.1719" x="1034.5" y="258"/><ellipse cx="1049.5" cy="278.1328" fill="#A9DCDF" rx="11" ry="11" style="stroke:#181818;stroke-width:1;"/><path d="M1049.6094,273.4766 L1048.4531,278.5547 L1050.7813,278.5547 L1049.6094,273.4766 Z M1048.125,271.2422 L1051.1094,271.2422 L1054.4688,283.6328 L1052.0156,283.6328 L1051.25,280.5703 L1047.9688,280.5703 L1047.2188,283.6328 L1044.7813,283.6328 L1048.125,271.2422 Z " fill="#000000"/><text fill="#000000" font-family="sans-serif" font-size="12" font-style="italic" lengthAdjust="spacing" textLength="109.1719" x="1061.5" y="274.1387">&#171;Aggregate Root&#187;</text><text fill="#000000" font-family="sans-serif" font-size="14" font-style="italic" lengthAdjust="spacing" textLength="41.3916" x="1095.3901" y="289.9639">Board</text><line style="stroke:#181818;stroke-width:0.5;" x1="1035.5" x2="1170.6719" y1="298.2656" y2="298.2656"/><line style="stroke:#181818;stroke-width:0.5;" x1="1035.5" x2="1170.6719" y1="306.2656" y2="306.2656"/></g><!--class Manager--><g class="entity" data-entity="Manager" data-source-line="7" data-uid="ent0006" id="entity_Manager"><rect fill="#F1F1F1" height="56.2656" rx="2.5" ry="2.5" style="stroke:#181818;stroke-width:0.5;" width="119.5938" x="1043" y="127"/><ellipse cx="1058" cy="147.1328" fill="#F1F1F1" rx="11" ry="11" style="stroke:#181818;stroke-width:1;"/><path d="M1057.4844,147.6953 Q1055.625,146.9922 1054.9688,146.2266 Q1054.3281,145.4453 1054.3281,144.1328 Q1054.3281,142.4453 1055.4063,141.4766 Q1056.4844,140.5078 1058.3594,140.5078 Q1059.2188,140.5078 1060.0625,140.7109 Q1060.9219,140.8984 1061.7656,141.2891 L1061.7656,143.6797 Q1060.9844,143.1172 1060.1563,142.8359 Q1059.3438,142.5391 1058.5469,142.5391 Q1057.6719,142.5391 1057.1875,142.8984 Q1056.7188,143.2578 1056.7188,143.9141 Q1056.7188,144.4297 1057.0625,144.7734 Q1057.4063,145.1016 1058.5,145.5078 L1059.5625,145.9141 Q1061.0469,146.4609 1061.75,147.3672 Q1062.4688,148.2734 1062.4688,149.6484 Q1062.4688,151.5234 1061.3594,152.4453 Q1060.25,153.3672 1058,153.3672 Q1057.0781,153.3672 1056.1563,153.1484 Q1055.2344,152.9297 1054.375,152.5078 L1054.375,149.9766 Q1055.3438,150.6641 1056.2656,151.0078 Q1057.1875,151.3516 1058.0781,151.3516 Q1058.9844,151.3516 1059.4844,150.9453 Q1059.9844,150.5234 1059.9844,149.7891 Q1059.9844,149.2266 1059.6406,148.8203 Q1059.3125,148.3984 1058.6875,148.1484 L1057.4844,147.6953 Z " fill="#000000"/><text fill="#000000" font-family="sans-serif" font-size="12" font-style="italic" lengthAdjust="spacing" textLength="91.5938" x="1070" y="143.1387">&#171;Value Object&#187;</text><text fill="#000000" font-family="sans-serif" font-size="14" lengthAdjust="spacing" textLength="61.3662" x="1085.1138" y="158.9639">Manager</text><line style="stroke:#181818;stroke-width:0.5;" x1="1044" x2="1161.5938" y1="167.2656" y2="167.2656"/><line style="stroke:#181818;stroke-width:0.5;" x1="1044" x2="1161.5938" y1="175.2656" y2="175.2656"/></g><!--class Post--><g class="entity" data-entity="Post" data-source-line="13" data-uid="ent0009" id="entity_Post"><rect fill="#F1F1F1" height="56.2656" rx="2.5" ry="2.5" style="stroke:#181818;stroke-width:0.5;" width="137.1719" x="449.5" y="432"/><ellipse cx="464.5" cy="452.1328" fill="#A9DCDF" rx="11" ry="11" style="stroke:#181818;stroke-width:1;"/><path d="M464.6094,447.4766 L463.4531,452.5547 L465.7813,452.5547 L464.6094,447.4766 Z M463.125,445.2422 L466.1094,445.2422 L469.4688,457.6328 L467.0156,457.6328 L466.25,454.5703 L462.9688,454.5703 L462.2188,457.6328 L459.7813,457.6328 L463.125,445.2422 Z " fill="#000000"/><text fill="#000000" font-family="sans-serif" font-size="12" font-style="italic" lengthAdjust="spacing" textLength="109.1719" x="476.5" y="448.1387">&#171;Aggregate Root&#187;</text><text fill="#000000" font-family="sans-serif" font-size="14" font-style="italic" lengthAdjust="spacing" textLength="29.791" x="516.1904" y="463.9639">Post</text><line style="stroke:#181818;stroke-width:0.5;" x1="450.5" x2="585.6719" y1="472.2656" y2="472.2656"/><line style="stroke:#181818;stroke-width:0.5;" x1="450.5" x2="585.6719" y1="480.2656" y2="480.2656"/></g><!--class GuestPost--><g class="entity" data-entity="GuestPost" data-source-line="15" data-uid="ent0010" id="entity_GuestPost"><rect fill="#F1F1F1" height="56.2656" rx="2.5" ry="2.5" style="stroke:#181818;stroke-width:0.5;" width="102.9092" x="466.5" y="258"/><ellipse cx="481.5" cy="278.1328" fill="#ADD1B2" rx="11" ry="11" style="stroke:#181818;stroke-width:1;"/><path d="M484.4688,283.7734 Q483.8906,284.0703 483.25,284.2109 Q482.6094,284.3672 481.9063,284.3672 Q479.4063,284.3672 478.0781,282.7266 Q476.7656,281.0703 476.7656,277.9453 Q476.7656,274.8203 478.0781,273.1641 Q479.4063,271.5078 481.9063,271.5078 Q482.6094,271.5078 483.25,271.6641 Q483.9063,271.8203 484.4688,272.1172 L484.4688,274.8359 Q483.8438,274.2578 483.25,273.9922 Q482.6563,273.7109 482.0313,273.7109 Q480.6875,273.7109 480,274.7891 Q479.3125,275.8516 479.3125,277.9453 Q479.3125,280.0391 480,281.1172 Q480.6875,282.1797 482.0313,282.1797 Q482.6563,282.1797 483.25,281.9141 Q483.8438,281.6328 484.4688,281.0547 L484.4688,283.7734 Z " fill="#000000"/><text fill="#000000" font-family="sans-serif" font-size="12" font-style="italic" lengthAdjust="spacing" textLength="72.5625" x="494.6733" y="274.1387">&#171;ImplClass&#187;</text><text fill="#000000" font-family="sans-serif" font-size="14" lengthAdjust="spacing" textLength="70.9092" x="495.5" y="289.9639">GuestPost</text><line style="stroke:#181818;stroke-width:0.5;" x1="467.5" x2="568.4092" y1="298.2656" y2="298.2656"/><line style="stroke:#181818;stroke-width:0.5;" x1="467.5" x2="568.4092" y1="306.2656" y2="306.2656"/></g><!--class MemberPost--><g class="entity" data-entity="MemberPost" data-source-line="17" data-uid="ent0011" id="entity_MemberPost"><rect fill="#F1F1F1" height="56.2656" rx="2.5" ry="2.5" style="stroke:#181818;stroke-width:0.5;" width="119.377" x="312.5" y="258"/><ellipse cx="327.5" cy="278.1328" fill="#ADD1B2" rx="11" ry="11" style="stroke:#181818;stroke-width:1;"/><path d="M330.4688,283.7734 Q329.8906,284.0703 329.25,284.2109 Q328.6094,284.3672 327.9063,284.3672 Q325.4063,284.3672 324.0781,282.7266 Q322.7656,281.0703 322.7656,277.9453 Q322.7656,274.8203 324.0781,273.1641 Q325.4063,271.5078 327.9063,271.5078 Q328.6094,271.5078 329.25,271.6641 Q329.9063,271.8203 330.4688,272.1172 L330.4688,274.8359 Q329.8438,274.2578 329.25,273.9922 Q328.6563,273.7109 328.0313,273.7109 Q326.6875,273.7109 326,274.7891 Q325.3125,275.8516 325.3125,277.9453 Q325.3125,280.0391 326,281.1172 Q326.6875,282.1797 328.0313,282.1797 Q328.6563,282.1797 329.25,281.9141 Q329.8438,281.6328 330.4688,281.0547 L330.4688,283.7734 Z " fill="#000000"/><text fill="#000000" font-family="sans-serif" font-size="12" font-style="italic" lengthAdjust="spacing" textLength="72.5625" x="348.9072" y="274.1387">&#171;ImplClass&#187;</text><text fill="#000000" font-family="sans-serif" font-size="14" lengthAdjust="spacing" textLength="87.377" x="341.5" y="289.9639">MemberPost</text><line style="stroke:#181818;stroke-width:0.5;" x1="313.5" x2="430.877" y1="298.2656" y2="298.2656"/><line style="stroke:#181818;stroke-width:0.5;" x1="313.5" x2="430.877" y1="306.2656" y2="306.2656"/></g><!--class HashTag--><g class="entity" data-entity="HashTag" data-source-line="20" data-uid="ent0012" id="entity_HashTag"><rect fill="#F1F1F1" height="56.2656" rx="2.5" ry="2.5" style="stroke:#181818;stroke-width:0.5;" width="93.291" x="338.5" y="698"/><ellipse cx="353.5" cy="718.1328" fill="#ADD1B2" rx="11" ry="11" style="stroke:#181818;stroke-width:1;"/><path d="M357.6094,724.1328 L349.8906,724.1328 L349.8906,711.7422 L357.6094,711.7422 L357.6094,713.8984 L352.3438,713.8984 L352.3438,716.5703 L357.1094,716.5703 L357.1094,718.7266 L352.3438,718.7266 L352.3438,721.9766 L357.6094,721.9766 L357.6094,724.1328 Z " fill="#000000"/><text fill="#000000" font-family="sans-serif" font-size="12" font-style="italic" lengthAdjust="spacing" textLength="49.8457" x="373.2227" y="714.1387">&#171;Entity&#187;</text><text fill="#000000" font-family="sans-serif" font-size="14" lengthAdjust="spacing" textLength="61.291" x="367.5" y="729.9639">HashTag</text><line style="stroke:#181818;stroke-width:0.5;" x1="339.5" x2="430.791" y1="738.2656" y2="738.2656"/><line style="stroke:#181818;stroke-width:0.5;" x1="339.5" x2="430.791" y1="746.2656" y2="746.2656"/></g><!--class Tags--><g class="entity" data-entity="Tags" data-source-line="22" data-uid="ent0013" id="entity_Tags"><rect fill="#F1F1F1" height="56.2656" rx="2.5" ry="2.5" style="stroke:#181818;stroke-width:0.5;" width="119.5938" x="312" y="548"/><ellipse cx="327" cy="568.1328" fill="#F1F1F1" rx="11" ry="11" style="stroke:#181818;stroke-width:1;"/><path d="M326.4844,568.6953 Q324.625,567.9922 323.9688,567.2266 Q323.3281,566.4453 323.3281,565.1328 Q323.3281,563.4453 324.4063,562.4766 Q325.4844,561.5078 327.3594,561.5078 Q328.2188,561.5078 329.0625,561.7109 Q329.9219,561.8984 330.7656,562.2891 L330.7656,564.6797 Q329.9844,564.1172 329.1563,563.8359 Q328.3438,563.5391 327.5469,563.5391 Q326.6719,563.5391 326.1875,563.8984 Q325.7188,564.2578 325.7188,564.9141 Q325.7188,565.4297 326.0625,565.7734 Q326.4063,566.1016 327.5,566.5078 L328.5625,566.9141 Q330.0469,567.4609 330.75,568.3672 Q331.4688,569.2734 331.4688,570.6484 Q331.4688,572.5234 330.3594,573.4453 Q329.25,574.3672 327,574.3672 Q326.0781,574.3672 325.1563,574.1484 Q324.2344,573.9297 323.375,573.5078 L323.375,570.9766 Q324.3438,571.6641 325.2656,572.0078 Q326.1875,572.3516 327.0781,572.3516 Q327.9844,572.3516 328.4844,571.9453 Q328.9844,571.5234 328.9844,570.7891 Q328.9844,570.2266 328.6406,569.8203 Q328.3125,569.3984 327.6875,569.1484 L326.4844,568.6953 Z " fill="#000000"/><text fill="#000000" font-family="sans-serif" font-size="12" font-style="italic" lengthAdjust="spacing" textLength="91.5938" x="339" y="564.1387">&#171;Value Object&#187;</text><text fill="#000000" font-family="sans-serif" font-size="14" lengthAdjust="spacing" textLength="33.3115" x="368.1411" y="579.9639">Tags</text><line style="stroke:#181818;stroke-width:0.5;" x1="313" x2="430.5938" y1="588.2656" y2="588.2656"/><line style="stroke:#181818;stroke-width:0.5;" x1="313" x2="430.5938" y1="596.2656" y2="596.2656"/></g><!--class PostLike--><g class="entity" data-entity="PostLike" data-source-line="27" data-uid="ent0016" id="entity_PostLike"><rect fill="#F1F1F1" height="56.2656" rx="2.5" ry="2.5" style="stroke:#181818;stroke-width:0.5;" width="90.2012" x="474" y="698"/><ellipse cx="489" cy="718.1328" fill="#ADD1B2" rx="11" ry="11" style="stroke:#181818;stroke-width:1;"/><path d="M493.1094,724.1328 L485.3906,724.1328 L485.3906,711.7422 L493.1094,711.7422 L493.1094,713.8984 L487.8438,713.8984 L487.8438,716.5703 L492.6094,716.5703 L492.6094,718.7266 L487.8438,718.7266 L487.8438,721.9766 L493.1094,721.9766 L493.1094,724.1328 Z " fill="#000000"/><text fill="#000000" font-family="sans-serif" font-size="12" font-style="italic" lengthAdjust="spacing" textLength="49.8457" x="507.1777" y="714.1387">&#171;Entity&#187;</text><text fill="#000000" font-family="sans-serif" font-size="14" lengthAdjust="spacing" textLength="58.2012" x="503" y="729.9639">PostLike</text><line style="stroke:#181818;stroke-width:0.5;" x1="475" x2="563.2012" y1="738.2656" y2="738.2656"/><line style="stroke:#181818;stroke-width:0.5;" x1="475" x2="563.2012" y1="746.2656" y2="746.2656"/></g><!--class Likes--><g class="entity" data-entity="Likes" data-source-line="29" data-uid="ent0017" id="entity_Likes"><rect fill="#F1F1F1" height="56.2656" rx="2.5" ry="2.5" style="stroke:#181818;stroke-width:0.5;" width="119.5938" x="467" y="548"/><ellipse cx="482" cy="568.1328" fill="#F1F1F1" rx="11" ry="11" style="stroke:#181818;stroke-width:1;"/><path d="M481.4844,568.6953 Q479.625,567.9922 478.9688,567.2266 Q478.3281,566.4453 478.3281,565.1328 Q478.3281,563.4453 479.4063,562.4766 Q480.4844,561.5078 482.3594,561.5078 Q483.2188,561.5078 484.0625,561.7109 Q484.9219,561.8984 485.7656,562.2891 L485.7656,564.6797 Q484.9844,564.1172 484.1563,563.8359 Q483.3438,563.5391 482.5469,563.5391 Q481.6719,563.5391 481.1875,563.8984 Q480.7188,564.2578 480.7188,564.9141 Q480.7188,565.4297 481.0625,565.7734 Q481.4063,566.1016 482.5,566.5078 L483.5625,566.9141 Q485.0469,567.4609 485.75,568.3672 Q486.4688,569.2734 486.4688,570.6484 Q486.4688,572.5234 485.3594,573.4453 Q484.25,574.3672 482,574.3672 Q481.0781,574.3672 480.1563,574.1484 Q479.2344,573.9297 478.375,573.5078 L478.375,570.9766 Q479.3438,571.6641 480.2656,572.0078 Q481.1875,572.3516 482.0781,572.3516 Q482.9844,572.3516 483.4844,571.9453 Q483.9844,571.5234 483.9844,570.7891 Q483.9844,570.2266 483.6406,569.8203 Q483.3125,569.3984 482.6875,569.1484 L481.4844,568.6953 Z " fill="#000000"/><text fill="#000000" font-family="sans-serif" font-size="12" font-style="italic" lengthAdjust="spacing" textLength="91.5938" x="494" y="564.1387">&#171;Value Object&#187;</text><text fill="#000000" font-family="sans-serif" font-size="14" lengthAdjust="spacing" textLength="35.7041" x="521.9448" y="579.9639">Likes</text><line style="stroke:#181818;stroke-width:0.5;" x1="468" x2="585.5938" y1="588.2656" y2="588.2656"/><line style="stroke:#181818;stroke-width:0.5;" x1="468" x2="585.5938" y1="596.2656" y2="596.2656"/></g><!--class Comment--><g class="entity" data-entity="Comment" data-source-line="36" data-uid="ent0021" id="entity_Comment"><rect fill="#F1F1F1" height="56.2656" rx="2.5" ry="2.5" style="stroke:#181818;stroke-width:0.5;" width="137.1719" x="653.5" y="258"/><ellipse cx="668.5" cy="278.1328" fill="#A9DCDF" rx="11" ry="11" style="stroke:#181818;stroke-width:1;"/><path d="M668.6094,273.4766 L667.4531,278.5547 L669.7813,278.5547 L668.6094,273.4766 Z M667.125,271.2422 L670.1094,271.2422 L673.4688,283.6328 L671.0156,283.6328 L670.25,280.5703 L666.9688,280.5703 L666.2188,283.6328 L663.7813,283.6328 L667.125,271.2422 Z " fill="#000000"/><text fill="#000000" font-family="sans-serif" font-size="12" font-style="italic" lengthAdjust="spacing" textLength="109.1719" x="680.5" y="274.1387">&#171;Aggregate Root&#187;</text><text fill="#000000" font-family="sans-serif" font-size="14" font-style="italic" lengthAdjust="spacing" textLength="68.5918" x="700.79" y="289.9639">Comment</text><line style="stroke:#181818;stroke-width:0.5;" x1="654.5" x2="789.6719" y1="298.2656" y2="298.2656"/><line style="stroke:#181818;stroke-width:0.5;" x1="654.5" x2="789.6719" y1="306.2656" y2="306.2656"/></g><!--class GuestComment--><g class="entity" data-entity="GuestComment" data-source-line="38" data-uid="ent0022" id="entity_GuestComment"><rect fill="#F1F1F1" height="56.2656" rx="2.5" ry="2.5" style="stroke:#181818;stroke-width:0.5;" width="141.71" x="836" y="127"/><ellipse cx="851" cy="147.1328" fill="#ADD1B2" rx="11" ry="11" style="stroke:#181818;stroke-width:1;"/><path d="M853.9688,152.7734 Q853.3906,153.0703 852.75,153.2109 Q852.1094,153.3672 851.4063,153.3672 Q848.9063,153.3672 847.5781,151.7266 Q846.2656,150.0703 846.2656,146.9453 Q846.2656,143.8203 847.5781,142.1641 Q848.9063,140.5078 851.4063,140.5078 Q852.1094,140.5078 852.75,140.6641 Q853.4063,140.8203 853.9688,141.1172 L853.9688,143.8359 Q853.3438,143.2578 852.75,142.9922 Q852.1563,142.7109 851.5313,142.7109 Q850.1875,142.7109 849.5,143.7891 Q848.8125,144.8516 848.8125,146.9453 Q848.8125,149.0391 849.5,150.1172 Q850.1875,151.1797 851.5313,151.1797 Q852.1563,151.1797 852.75,150.9141 Q853.3438,150.6328 853.9688,150.0547 L853.9688,152.7734 Z " fill="#000000"/><text fill="#000000" font-family="sans-serif" font-size="12" font-style="italic" lengthAdjust="spacing" textLength="72.5625" x="883.5737" y="143.1387">&#171;ImplClass&#187;</text><text fill="#000000" font-family="sans-serif" font-size="14" lengthAdjust="spacing" textLength="109.71" x="865" y="158.9639">GuestComment</text><line style="stroke:#181818;stroke-width:0.5;" x1="837" x2="976.71" y1="167.2656" y2="167.2656"/><line style="stroke:#181818;stroke-width:0.5;" x1="837" x2="976.71" y1="175.2656" y2="175.2656"/></g><!--class MemberComment--><g class="entity" data-entity="MemberComment" data-source-line="40" data-uid="ent0023" id="entity_MemberComment"><rect fill="#F1F1F1" height="56.2656" rx="2.5" ry="2.5" style="stroke:#181818;stroke-width:0.5;" width="158.1777" x="643" y="127"/><ellipse cx="658" cy="147.1328" fill="#ADD1B2" rx="11" ry="11" style="stroke:#181818;stroke-width:1;"/><path d="M660.9688,152.7734 Q660.3906,153.0703 659.75,153.2109 Q659.1094,153.3672 658.4063,153.3672 Q655.9063,153.3672 654.5781,151.7266 Q653.2656,150.0703 653.2656,146.9453 Q653.2656,143.8203 654.5781,142.1641 Q655.9063,140.5078 658.4063,140.5078 Q659.1094,140.5078 659.75,140.6641 Q660.4063,140.8203 660.9688,141.1172 L660.9688,143.8359 Q660.3438,143.2578 659.75,142.9922 Q659.1563,142.7109 658.5313,142.7109 Q657.1875,142.7109 656.5,143.7891 Q655.8125,144.8516 655.8125,146.9453 Q655.8125,149.0391 656.5,150.1172 Q657.1875,151.1797 658.5313,151.1797 Q659.1563,151.1797 659.75,150.9141 Q660.3438,150.6328 660.9688,150.0547 L660.9688,152.7734 Z " fill="#000000"/><text fill="#000000" font-family="sans-serif" font-size="12" font-style="italic" lengthAdjust="spacing" textLength="72.5625" x="698.8076" y="143.1387">&#171;ImplClass&#187;</text><text fill="#000000" font-family="sans-serif" font-size="14" lengthAdjust="spacing" textLength="126.1777" x="672" y="158.9639">MemberComment</text><line style="stroke:#181818;stroke-width:0.5;" x1="644" x2="800.1777" y1="167.2656" y2="167.2656"/><line style="stroke:#181818;stroke-width:0.5;" x1="644" x2="800.1777" y1="175.2656" y2="175.2656"/></g><!--class UserBoardRole--><g class="entity" data-entity="UserBoardRole" data-source-line="45" data-uid="ent0025" id="entity_UserBoardRole"><rect fill="#F1F1F1" height="56.2656" rx="2.5" ry="2.5" style="stroke:#181818;stroke-width:0.5;" width="137.1719" x="380.5" y="127"/><ellipse cx="395.5" cy="147.1328" fill="#A9DCDF" rx="11" ry="11" style="stroke:#181818;stroke-width:1;"/><path d="M395.6094,142.4766 L394.4531,147.5547 L396.7813,147.5547 L395.6094,142.4766 Z M394.125,140.2422 L397.1094,140.2422 L400.4688,152.6328 L398.0156,152.6328 L397.25,149.5703 L393.9688,149.5703 L393.2188,152.6328 L390.7813,152.6328 L394.125,140.2422 Z " fill="#000000"/><text fill="#000000" font-family="sans-serif" font-size="12" font-style="italic" lengthAdjust="spacing" textLength="109.1719" x="407.5" y="143.1387">&#171;Aggregate Root&#187;</text><text fill="#000000" font-family="sans-serif" font-size="14" font-style="italic" lengthAdjust="spacing" textLength="104.0977" x="410.0371" y="158.9639">UserBoardRole</text><line style="stroke:#181818;stroke-width:0.5;" x1="381.5" x2="516.6719" y1="167.2656" y2="167.2656"/><line style="stroke:#181818;stroke-width:0.5;" x1="381.5" x2="516.6719" y1="175.2656" y2="175.2656"/></g><!--class Member--><g class="entity" data-entity="Member" data-source-line="58" data-uid="ent0032" id="entity_Member"><rect fill="#F1F1F1" height="56.2656" rx="2.5" ry="2.5" style="stroke:#181818;stroke-width:0.5;" width="137.1719" x="312.5" y="896"/><ellipse cx="327.5" cy="916.1328" fill="#A9DCDF" rx="11" ry="11" style="stroke:#181818;stroke-width:1;"/><path d="M327.6094,911.4766 L326.4531,916.5547 L328.7813,916.5547 L327.6094,911.4766 Z M326.125,909.2422 L329.1094,909.2422 L332.4688,921.6328 L330.0156,921.6328 L329.25,918.5703 L325.9688,918.5703 L325.2188,921.6328 L322.7813,921.6328 L326.125,909.2422 Z " fill="#000000"/><text fill="#000000" font-family="sans-serif" font-size="12" font-style="italic" lengthAdjust="spacing" textLength="109.1719" x="339.5" y="912.1387">&#171;Aggregate Root&#187;</text><text fill="#000000" font-family="sans-serif" font-size="14" font-style="italic" lengthAdjust="spacing" textLength="57.5859" x="365.293" y="927.9639">Member</text><line style="stroke:#181818;stroke-width:0.5;" x1="313.5" x2="448.6719" y1="936.2656" y2="936.2656"/><line style="stroke:#181818;stroke-width:0.5;" x1="313.5" x2="448.6719" y1="944.2656" y2="944.2656"/></g><!--class NickName--><g class="entity" data-entity="NickName" data-source-line="60" data-uid="ent0033" id="entity_NickName"><rect fill="#F1F1F1" height="56.2656" rx="2.5" ry="2.5" style="stroke:#181818;stroke-width:0.5;" width="119.5938" x="312" y="1012"/><ellipse cx="327" cy="1032.1328" fill="#F1F1F1" rx="11" ry="11" style="stroke:#181818;stroke-width:1;"/><path d="M326.4844,1032.6953 Q324.625,1031.9922 323.9688,1031.2266 Q323.3281,1030.4453 323.3281,1029.1328 Q323.3281,1027.4453 324.4063,1026.4766 Q325.4844,1025.5078 327.3594,1025.5078 Q328.2188,1025.5078 329.0625,1025.7109 Q329.9219,1025.8984 330.7656,1026.2891 L330.7656,1028.6797 Q329.9844,1028.1172 329.1563,1027.8359 Q328.3438,1027.5391 327.5469,1027.5391 Q326.6719,1027.5391 326.1875,1027.8984 Q325.7188,1028.2578 325.7188,1028.9141 Q325.7188,1029.4297 326.0625,1029.7734 Q326.4063,1030.1016 327.5,1030.5078 L328.5625,1030.9141 Q330.0469,1031.4609 330.75,1032.3672 Q331.4688,1033.2734 331.4688,1034.6484 Q331.4688,1036.5234 330.3594,1037.4453 Q329.25,1038.3672 327,1038.3672 Q326.0781,1038.3672 325.1563,1038.1484 Q324.2344,1037.9297 323.375,1037.5078 L323.375,1034.9766 Q324.3438,1035.6641 325.2656,1036.0078 Q326.1875,1036.3516 327.0781,1036.3516 Q327.9844,1036.3516 328.4844,1035.9453 Q328.9844,1035.5234 328.9844,1034.7891 Q328.9844,1034.2266 328.6406,1033.8203 Q328.3125,1033.3984 327.6875,1033.1484 L326.4844,1032.6953 Z " fill="#000000"/><text fill="#000000" font-family="sans-serif" font-size="12" font-style="italic" lengthAdjust="spacing" textLength="91.5938" x="339" y="1028.1387">&#171;Value Object&#187;</text><text fill="#000000" font-family="sans-serif" font-size="14" lengthAdjust="spacing" textLength="71.4697" x="349.062" y="1043.9639">NickName</text><line style="stroke:#181818;stroke-width:0.5;" x1="313" x2="430.5938" y1="1052.2656" y2="1052.2656"/><line style="stroke:#181818;stroke-width:0.5;" x1="313" x2="430.5938" y1="1060.2656" y2="1060.2656"/></g><!--class BirthYear--><g class="entity" data-entity="BirthYear" data-source-line="62" data-uid="ent0034" id="entity_BirthYear"><rect fill="#F1F1F1" height="56.2656" rx="2.5" ry="2.5" style="stroke:#181818;stroke-width:0.5;" width="119.5938" x="467" y="1012"/><ellipse cx="482" cy="1032.1328" fill="#F1F1F1" rx="11" ry="11" style="stroke:#181818;stroke-width:1;"/><path d="M481.4844,1032.6953 Q479.625,1031.9922 478.9688,1031.2266 Q478.3281,1030.4453 478.3281,1029.1328 Q478.3281,1027.4453 479.4063,1026.4766 Q480.4844,1025.5078 482.3594,1025.5078 Q483.2188,1025.5078 484.0625,1025.7109 Q484.9219,1025.8984 485.7656,1026.2891 L485.7656,1028.6797 Q484.9844,1028.1172 484.1563,1027.8359 Q483.3438,1027.5391 482.5469,1027.5391 Q481.6719,1027.5391 481.1875,1027.8984 Q480.7188,1028.2578 480.7188,1028.9141 Q480.7188,1029.4297 481.0625,1029.7734 Q481.4063,1030.1016 482.5,1030.5078 L483.5625,1030.9141 Q485.0469,1031.4609 485.75,1032.3672 Q486.4688,1033.2734 486.4688,1034.6484 Q486.4688,1036.5234 485.3594,1037.4453 Q484.25,1038.3672 482,1038.3672 Q481.0781,1038.3672 480.1563,1038.1484 Q479.2344,1037.9297 478.375,1037.5078 L478.375,1034.9766 Q479.3438,1035.6641 480.2656,1036.0078 Q481.1875,1036.3516 482.0781,1036.3516 Q482.9844,1036.3516 483.4844,1035.9453 Q483.9844,1035.5234 483.9844,1034.7891 Q483.9844,1034.2266 483.6406,1033.8203 Q483.3125,1033.3984 482.6875,1033.1484 L481.4844,1032.6953 Z " fill="#000000"/><text fill="#000000" font-family="sans-serif" font-size="12" font-style="italic" lengthAdjust="spacing" textLength="91.5938" x="494" y="1028.1387">&#171;Value Object&#187;</text><text fill="#000000" font-family="sans-serif" font-size="14" lengthAdjust="spacing" textLength="65.1123" x="507.2407" y="1043.9639">BirthYear</text><line style="stroke:#181818;stroke-width:0.5;" x1="468" x2="585.5938" y1="1052.2656" y2="1052.2656"/><line style="stroke:#181818;stroke-width:0.5;" x1="468" x2="585.5938" y1="1060.2656" y2="1060.2656"/></g><!--class PermissionPolicy--><g class="entity" data-entity="PermissionPolicy" data-source-line="71" data-uid="ent0039" id="entity_PermissionPolicy"><rect fill="#F1F1F1" height="56.2656" rx="2.5" ry="2.5" style="stroke:#181818;stroke-width:0.5;" width="149.0244" x="1282.5" y="432"/><ellipse cx="1297.5" cy="452.1328" fill="#A9DCDF" rx="11" ry="11" style="stroke:#181818;stroke-width:1;"/><path d="M1297.6094,447.4766 L1296.4531,452.5547 L1298.7813,452.5547 L1297.6094,447.4766 Z M1296.125,445.2422 L1299.1094,445.2422 L1302.4688,457.6328 L1300.0156,457.6328 L1299.25,454.5703 L1295.9688,454.5703 L1295.2188,457.6328 L1292.7813,457.6328 L1296.125,445.2422 Z " fill="#000000"/><text fill="#000000" font-family="sans-serif" font-size="12" font-style="italic" lengthAdjust="spacing" textLength="109.1719" x="1315.4263" y="448.1387">&#171;Aggregate Root&#187;</text><text fill="#000000" font-family="sans-serif" font-size="14" font-style="italic" lengthAdjust="spacing" textLength="117.0244" x="1311.5" y="463.9639">PermissionPolicy</text><line style="stroke:#181818;stroke-width:0.5;" x1="1283.5" x2="1430.5244" y1="472.2656" y2="472.2656"/><line style="stroke:#181818;stroke-width:0.5;" x1="1283.5" x2="1430.5244" y1="480.2656" y2="480.2656"/></g><!--class ManagerAssignment--><g class="entity" data-entity="ManagerAssignment" data-source-line="74" data-uid="ent0040" id="entity_ManagerAssignment"><rect fill="#F1F1F1" height="56.2656" rx="2.5" ry="2.5" style="stroke:#181818;stroke-width:0.5;" width="175.7939" x="1276" y="548"/><ellipse cx="1291" cy="568.1328" fill="#ADD1B2" rx="11" ry="11" style="stroke:#181818;stroke-width:1;"/><path d="M1295.1094,574.1328 L1287.3906,574.1328 L1287.3906,561.7422 L1295.1094,561.7422 L1295.1094,563.8984 L1289.8438,563.8984 L1289.8438,566.5703 L1294.6094,566.5703 L1294.6094,568.7266 L1289.8438,568.7266 L1289.8438,571.9766 L1295.1094,571.9766 L1295.1094,574.1328 Z " fill="#000000"/><text fill="#000000" font-family="sans-serif" font-size="12" font-style="italic" lengthAdjust="spacing" textLength="49.8457" x="1351.9741" y="564.1387">&#171;Entity&#187;</text><text fill="#000000" font-family="sans-serif" font-size="14" lengthAdjust="spacing" textLength="143.7939" x="1305" y="579.9639">ManagerAssignment</text><line style="stroke:#181818;stroke-width:0.5;" x1="1277" x2="1450.7939" y1="588.2656" y2="588.2656"/><line style="stroke:#181818;stroke-width:0.5;" x1="1277" x2="1450.7939" y1="596.2656" y2="596.2656"/></g><!--class Role--><g class="entity" data-entity="Role" data-source-line="77" data-uid="ent0041" id="entity_Role"><rect fill="#F1F1F1" height="56.2656" rx="2.5" ry="2.5" style="stroke:#181818;stroke-width:0.5;" width="119.5938" x="1304" y="698"/><ellipse cx="1319" cy="718.1328" fill="#F1F1F1" rx="11" ry="11" style="stroke:#181818;stroke-width:1;"/><path d="M1318.4844,718.6953 Q1316.625,717.9922 1315.9688,717.2266 Q1315.3281,716.4453 1315.3281,715.1328 Q1315.3281,713.4453 1316.4063,712.4766 Q1317.4844,711.5078 1319.3594,711.5078 Q1320.2188,711.5078 1321.0625,711.7109 Q1321.9219,711.8984 1322.7656,712.2891 L1322.7656,714.6797 Q1321.9844,714.1172 1321.1563,713.8359 Q1320.3438,713.5391 1319.5469,713.5391 Q1318.6719,713.5391 1318.1875,713.8984 Q1317.7188,714.2578 1317.7188,714.9141 Q1317.7188,715.4297 1318.0625,715.7734 Q1318.4063,716.1016 1319.5,716.5078 L1320.5625,716.9141 Q1322.0469,717.4609 1322.75,718.3672 Q1323.4688,719.2734 1323.4688,720.6484 Q1323.4688,722.5234 1322.3594,723.4453 Q1321.25,724.3672 1319,724.3672 Q1318.0781,724.3672 1317.1563,724.1484 Q1316.2344,723.9297 1315.375,723.5078 L1315.375,720.9766 Q1316.3438,721.6641 1317.2656,722.0078 Q1318.1875,722.3516 1319.0781,722.3516 Q1319.9844,722.3516 1320.4844,721.9453 Q1320.9844,721.5234 1320.9844,720.7891 Q1320.9844,720.2266 1320.6406,719.8203 Q1320.3125,719.3984 1319.6875,719.1484 L1318.4844,718.6953 Z " fill="#000000"/><text fill="#000000" font-family="sans-serif" font-size="12" font-style="italic" lengthAdjust="spacing" textLength="91.5938" x="1331" y="714.1387">&#171;Value Object&#187;</text><text fill="#000000" font-family="sans-serif" font-size="14" lengthAdjust="spacing" textLength="30.7959" x="1361.3989" y="729.9639">Role</text><line style="stroke:#181818;stroke-width:0.5;" x1="1305" x2="1422.5938" y1="738.2656" y2="738.2656"/><line style="stroke:#181818;stroke-width:0.5;" x1="1305" x2="1422.5938" y1="746.2656" y2="746.2656"/></g><!--class RoleType--><g class="entity" data-entity="RoleType" data-source-line="80" data-uid="ent0042" id="entity_RoleType"><rect fill="#F1F1F1" height="48" rx="2.5" ry="2.5" style="stroke:#181818;stroke-width:0.5;" width="97.1328" x="1275.5" y="900"/><ellipse cx="1290.5" cy="916" fill="#EB937F" rx="11" ry="11" style="stroke:#181818;stroke-width:1;"/><path d="M1294.6094,922 L1286.8906,922 L1286.8906,909.6094 L1294.6094,909.6094 L1294.6094,911.7656 L1289.3438,911.7656 L1289.3438,914.4375 L1294.1094,914.4375 L1294.1094,916.5938 L1289.3438,916.5938 L1289.3438,919.8438 L1294.6094,919.8438 L1294.6094,922 Z " fill="#000000"/><text fill="#000000" font-family="sans-serif" font-size="14" lengthAdjust="spacing" textLength="65.1328" x="1304.5" y="920.8467">RoleType</text><line style="stroke:#181818;stroke-width:0.5;" x1="1276.5" x2="1371.6328" y1="932" y2="932"/><line style="stroke:#181818;stroke-width:0.5;" x1="1276.5" x2="1371.6328" y1="940" y2="940"/></g><!--class Permission--><g class="entity" data-entity="Permission" data-source-line="83" data-uid="ent0043" id="entity_Permission"><rect fill="#F1F1F1" height="48" rx="2.5" ry="2.5" style="stroke:#181818;stroke-width:0.5;" width="108.2549" x="1408" y="900"/><ellipse cx="1423" cy="916" fill="#EB937F" rx="11" ry="11" style="stroke:#181818;stroke-width:1;"/><path d="M1427.1094,922 L1419.3906,922 L1419.3906,909.6094 L1427.1094,909.6094 L1427.1094,911.7656 L1421.8438,911.7656 L1421.8438,914.4375 L1426.6094,914.4375 L1426.6094,916.5938 L1421.8438,916.5938 L1421.8438,919.8438 L1427.1094,919.8438 L1427.1094,922 Z " fill="#000000"/><text fill="#000000" font-family="sans-serif" font-size="14" lengthAdjust="spacing" textLength="76.2549" x="1437" y="920.8467">Permission</text><line style="stroke:#181818;stroke-width:0.5;" x1="1409" x2="1515.2549" y1="932" y2="932"/><line style="stroke:#181818;stroke-width:0.5;" x1="1409" x2="1515.2549" y1="940" y2="940"/></g><!--class Auth--><g class="entity" data-entity="Auth" data-source-line="96" data-uid="ent0050" id="entity_Auth"><rect fill="#F1F1F1" height="56.2656" rx="2.5" ry="2.5" style="stroke:#181818;stroke-width:0.5;" width="137.1719" x="70.5" y="698"/><ellipse cx="85.5" cy="718.1328" fill="#ADD1B2" rx="11" ry="11" style="stroke:#181818;stroke-width:1;"/><path d="M89.6094,724.1328 L81.8906,724.1328 L81.8906,711.7422 L89.6094,711.7422 L89.6094,713.8984 L84.3438,713.8984 L84.3438,716.5703 L89.1094,716.5703 L89.1094,718.7266 L84.3438,718.7266 L84.3438,721.9766 L89.6094,721.9766 L89.6094,724.1328 Z " fill="#000000"/><text fill="#000000" font-family="sans-serif" font-size="12" font-style="italic" lengthAdjust="spacing" textLength="109.1719" x="97.5" y="714.1387">&#171;Aggregate Root&#187;</text><text fill="#000000" font-family="sans-serif" font-size="14" lengthAdjust="spacing" textLength="32.8125" x="135.6797" y="729.9639">Auth</text><line style="stroke:#181818;stroke-width:0.5;" x1="71.5" x2="206.6719" y1="738.2656" y2="738.2656"/><line style="stroke:#181818;stroke-width:0.5;" x1="71.5" x2="206.6719" y1="746.2656" y2="746.2656"/></g><!--class Password--><g class="entity" data-entity="Password" data-source-line="98" data-uid="ent0051" id="entity_Password"><rect fill="#F1F1F1" height="56.2656" rx="2.5" ry="2.5" style="stroke:#181818;stroke-width:0.5;" width="119.5938" x="79" y="896"/><ellipse cx="94" cy="916.1328" fill="#F1F1F1" rx="11" ry="11" style="stroke:#181818;stroke-width:1;"/><path d="M93.4844,916.6953 Q91.625,915.9922 90.9688,915.2266 Q90.3281,914.4453 90.3281,913.1328 Q90.3281,911.4453 91.4063,910.4766 Q92.4844,909.5078 94.3594,909.5078 Q95.2188,909.5078 96.0625,909.7109 Q96.9219,909.8984 97.7656,910.2891 L97.7656,912.6797 Q96.9844,912.1172 96.1563,911.8359 Q95.3438,911.5391 94.5469,911.5391 Q93.6719,911.5391 93.1875,911.8984 Q92.7188,912.2578 92.7188,912.9141 Q92.7188,913.4297 93.0625,913.7734 Q93.4063,914.1016 94.5,914.5078 L95.5625,914.9141 Q97.0469,915.4609 97.75,916.3672 Q98.4688,917.2734 98.4688,918.6484 Q98.4688,920.5234 97.3594,921.4453 Q96.25,922.3672 94,922.3672 Q93.0781,922.3672 92.1563,922.1484 Q91.2344,921.9297 90.375,921.5078 L90.375,918.9766 Q91.3438,919.6641 92.2656,920.0078 Q93.1875,920.3516 94.0781,920.3516 Q94.9844,920.3516 95.4844,919.9453 Q95.9844,919.5234 95.9844,918.7891 Q95.9844,918.2266 95.6406,917.8203 Q95.3125,917.3984 94.6875,917.1484 L93.4844,916.6953 Z " fill="#000000"/><text fill="#000000" font-family="sans-serif" font-size="12" font-style="italic" lengthAdjust="spacing" textLength="91.5938" x="106" y="912.1387">&#171;Value Object&#187;</text><text fill="#000000" font-family="sans-serif" font-size="14" lengthAdjust="spacing" textLength="66.2676" x="118.6631" y="927.9639">Password</text><line style="stroke:#181818;stroke-width:0.5;" x1="80" x2="197.5938" y1="936.2656" y2="936.2656"/><line style="stroke:#181818;stroke-width:0.5;" x1="80" x2="197.5938" y1="944.2656" y2="944.2656"/></g><!--link Manager to Board--><g class="link" data-entity-1="Manager" data-entity-2="Board" data-source-line="9" data-uid="lnk7" id="link_Manager_Board"><path codeLine="9" d="M1103,183.04 C1103,205.06 1103,235.99 1103,257.99" fill="none" id="Manager-Board" style="stroke:#181818;stroke-width:1;"/></g><!--link Post to Tags--><g class="link" data-entity-1="Post" data-entity-2="Tags" data-source-line="24" data-uid="lnk14" id="link_Post_Tags"><path codeLine="24" d="M483.4,488.02 C460.21,506.12 429.79,529.87 406.6,547.98" fill="none" id="Post-Tags" style="stroke:#181818;stroke-width:1;"/></g><!--link Tags to HashTag--><g class="link" data-entity-1="Tags" data-entity-2="HashTag" data-source-line="25" data-uid="lnk15" id="link_Tags_HashTag"><path codeLine="25" d="M374.38,604.15 C376.72,630.77 379.7452,665.153 382.0852,691.803" fill="none" id="Tags-to-HashTag" style="stroke:#181818;stroke-width:1;"/><polygon fill="#181818" points="382.61,697.78,385.8075,688.4646,382.1727,692.7992,377.8381,689.1644,382.61,697.78" style="stroke:#181818;stroke-width:1;"/><text fill="#000000" font-family="sans-serif" font-size="13" lengthAdjust="spacing" textLength="8.271" x="366.0837" y="624.4456">1</text><text fill="#000000" font-family="sans-serif" font-size="13" lengthAdjust="spacing" textLength="9.7246" x="372.1502" y="687.0186">N</text></g><!--link Post to Likes--><g class="link" data-entity-1="Post" data-entity-2="Likes" data-source-line="31" data-uid="lnk18" id="link_Post_Likes"><path codeLine="31" d="M520.13,488.02 C521.56,506.06 523.42,529.7 524.85,547.78" fill="none" id="Post-Likes" style="stroke:#181818;stroke-width:1;"/></g><!--link Likes to PostLike--><g class="link" data-entity-1="Likes" data-entity-2="PostLike" data-source-line="32" data-uid="lnk19" id="link_Likes_PostLike"><path codeLine="32" d="M525.53,604.15 C524.09,630.77 522.2337,665.1387 520.7937,691.7887" fill="none" id="Likes-to-PostLike" style="stroke:#181818;stroke-width:1;"/><polygon fill="#181818" points="520.47,697.78,524.9498,689.0089,520.7398,692.7873,516.9614,688.5773,520.47,697.78" style="stroke:#181818;stroke-width:1;"/><text fill="#000000" font-family="sans-serif" font-size="13" lengthAdjust="spacing" textLength="8.271" x="516.3434" y="624.4456">1</text><text fill="#000000" font-family="sans-serif" font-size="13" lengthAdjust="spacing" textLength="9.7246" x="510.8644" y="687.0186">N</text></g><!--link GuestPost to Post--><g class="link" data-entity-1="GuestPost" data-entity-2="Post" data-source-line="49" data-uid="lnk26" id="link_GuestPost_Post"><path codeLine="49" d="M518,314.25 C518,346.46 518,381.72 518,413.87" fill="none" id="GuestPost-to-Post" style="stroke:#181818;stroke-width:1;"/><polygon fill="none" points="518,431.87,524,413.87,512,413.87,518,431.87" style="stroke:#181818;stroke-width:1;"/></g><!--link MemberPost to Post--><g class="link" data-entity-1="MemberPost" data-entity-2="Post" data-source-line="50" data-uid="lnk27" id="link_MemberPost_Post"><path codeLine="50" d="M395.13,314.25 C422.47,346.46 456.0316,385.9972 483.3216,418.1472" fill="none" id="MemberPost-to-Post" style="stroke:#181818;stroke-width:1;"/><polygon fill="none" points="494.97,431.87,487.8959,414.2644,478.7474,422.03,494.97,431.87" style="stroke:#181818;stroke-width:1;"/></g><!--link GuestComment to Comment--><g class="link" data-entity-1="GuestComment" data-entity-2="Comment" data-source-line="51" data-uid="lnk28" id="link_GuestComment_Comment"><path codeLine="51" d="M868.22,183.04 C836.64,205.06 807.0564,225.6966 775.4964,247.6966" fill="none" id="GuestComment-to-Comment" style="stroke:#181818;stroke-width:1;"/><polygon fill="none" points="760.73,257.99,778.9275,252.6187,772.0652,242.7745,760.73,257.99" style="stroke:#181818;stroke-width:1;"/></g><!--link MemberComment to Comment--><g class="link" data-entity-1="MemberComment" data-entity-2="Comment" data-source-line="52" data-uid="lnk29" id="link_MemberComment_Comment"><path codeLine="52" d="M722,183.04 C722,205.06 722,217.99 722,239.99" fill="none" id="MemberComment-to-Comment" style="stroke:#181818;stroke-width:1;"/><polygon fill="none" points="722,257.99,728,239.99,716,239.99,722,257.99" style="stroke:#181818;stroke-width:1;"/></g><!--link Member to NickName--><g class="link" data-entity-1="Member" data-entity-2="NickName" data-source-line="64" data-uid="lnk35" id="link_Member_NickName"><path codeLine="64" d="M378.87,952.02 C377.44,970.06 375.58,993.7 374.15,1011.78" fill="none" id="Member-NickName" style="stroke:#181818;stroke-width:1;"/></g><!--link Member to BirthYear--><g class="link" data-entity-1="Member" data-entity-2="BirthYear" data-source-line="65" data-uid="lnk36" id="link_Member_BirthYear"><path codeLine="65" d="M415.6,952.02 C438.79,970.12 469.21,993.87 492.4,1011.98" fill="none" id="Member-BirthYear" style="stroke:#181818;stroke-width:1;"/></g><!--link Role to Permission--><g class="link" data-entity-1="Role" data-entity-2="Permission" data-source-line="86" data-uid="lnk44" id="link_Role_Permission"><path codeLine="86" d="M1377.63,754.25 C1397.03,793.07 1429.6073,858.2131 1447.7873,894.5831" fill="none" id="Role-to-Permission" style="stroke:#181818;stroke-width:1;"/><polygon fill="#181818" points="1450.47,899.95,1450.0239,890.1113,1448.2344,895.4776,1442.8681,893.6882,1450.47,899.95" style="stroke:#181818;stroke-width:1;"/><text fill="#000000" font-family="sans-serif" font-size="13" lengthAdjust="spacing" textLength="8.271" x="1371.8106" y="774.1227">1</text><text fill="#000000" font-family="sans-serif" font-size="13" lengthAdjust="spacing" textLength="9.7246" x="1437.4225" y="888.9492">N</text></g><!--link PermissionPolicy to ManagerAssignment--><g class="link" data-entity-1="PermissionPolicy" data-entity-2="ManagerAssignment" data-source-line="88" data-uid="lnk45" id="link_PermissionPolicy_ManagerAssignment"><path codeLine="88" d="M1358.66,488.02 C1359.77,506.06 1361.22,529.7 1362.33,547.78" fill="none" id="PermissionPolicy-ManagerAssignment" style="stroke:#181818;stroke-width:1;"/><text fill="#000000" font-family="sans-serif" font-size="13" lengthAdjust="spacing" textLength="8.271" x="1350.1474" y="508.2855">1</text><text fill="#000000" font-family="sans-serif" font-size="13" lengthAdjust="spacing" textLength="9.7246" x="1352.0821" y="537.0186">N</text></g><!--link ManagerAssignment to Role--><g class="link" data-entity-1="ManagerAssignment" data-entity-2="Role" data-source-line="89" data-uid="lnk46" id="link_ManagerAssignment_Role"><path codeLine="89" d="M1364,604.15 C1364,630.77 1364,671.13 1364,697.78" fill="none" id="ManagerAssignment-Role" style="stroke:#181818;stroke-width:1;"/><text fill="#000000" font-family="sans-serif" font-size="13" lengthAdjust="spacing" textLength="9.7246" x="1354.067" y="624.4456">N</text><text fill="#000000" font-family="sans-serif" font-size="13" lengthAdjust="spacing" textLength="8.271" x="1355.1991" y="687.0186">1</text></g><!--link Role to RoleType--><g class="link" data-entity-1="Role" data-entity-2="RoleType" data-source-line="90" data-uid="lnk47" id="link_Role_RoleType"><path codeLine="90" d="M1358.44,754.25 C1350.52,793.07 1336.13,863.58 1328.7,899.95" fill="none" id="Role-RoleType" style="stroke:#181818;stroke-width:1;"/></g><!--link Auth to Password--><g class="link" data-entity-1="Auth" data-entity-2="Password" data-source-line="101" data-uid="lnk52" id="link_Auth_Password"><path codeLine="101" d="M139,754.25 C139,791.7 139,858.65 139,895.98" fill="none" id="Auth-Password" style="stroke:#181818;stroke-width:1;"/></g><!--reverse link Board to Post--><g class="link" data-entity-1="Board" data-entity-2="Post" data-source-line="106" data-uid="lnk53" id="link_Board_Post"><path codeLine="106" d="M1044.9245,316.6632 C1027.3145,325.0632 1012.79,331.28 994,338 C852.48,388.58 680.21,426.87 586.6,445.81" fill="none" id="Board-backto-Post" style="stroke:#181818;stroke-width:1;stroke-dasharray:7.0,7.0;"/><polygon fill="#181818" points="1050.34,314.08,1040.4947,314.3445,1045.8271,316.2327,1043.9389,321.5651,1050.34,314.08" style="stroke:#181818;stroke-width:1;"/></g><!--link MemberPost to Member--><g class="link" data-entity-1="MemberPost" data-entity-2="Member" data-source-line="108" data-uid="lnk54" id="link_MemberPost_Member"><path codeLine="108" d="M361.13,314.23 C343.08,361.07 307.66,460.33 295,548 C283.5,627.62 317.9,791.82 321,802 C331.31,835.87 347.3137,866.6933 361.1837,890.5433" fill="none" id="MemberPost-to-Member" style="stroke:#181818;stroke-width:1;stroke-dasharray:7.0,7.0;"/><polygon fill="#181818" points="364.2,895.73,363.1333,885.9391,361.6864,891.4078,356.2177,889.9608,364.2,895.73" style="stroke:#181818;stroke-width:1;"/></g><!--link PostLike to Member--><g class="link" data-entity-1="PostLike" data-entity-2="Member" data-source-line="109" data-uid="lnk55" id="link_PostLike_Member"><path codeLine="109" d="M499.81,754.25 C473.45,791.7 429.753,853.7432 403.483,891.0732" fill="none" id="PostLike-to-Member" style="stroke:#181818;stroke-width:1;stroke-dasharray:7.0,7.0;"/><polygon fill="#181818" points="400.03,895.98,408.4807,890.9218,402.9075,891.891,401.9383,886.3178,400.03,895.98" style="stroke:#181818;stroke-width:1;"/></g><!--link MemberComment to Member--><g class="link" data-entity-1="MemberComment" data-entity-2="Member" data-source-line="110" data-uid="lnk56" id="link_MemberComment_Member"><path codeLine="110" d="M642.82,181.85 C609.58,191.55 570.29,201.54 534,207 C520.92,208.97 305.37,205.66 296,215 C111.3,399.25 209.87,555.74 296,802 C308.54,837.86 331.0438,868.1803 351.1338,891.1903" fill="none" id="MemberComment-to-Member" style="stroke:#181818;stroke-width:1;stroke-dasharray:7.0,7.0;"/><polygon fill="#181818" points="355.08,895.71,352.1739,886.2997,351.7915,891.9436,346.1476,891.5612,355.08,895.71" style="stroke:#181818;stroke-width:1;"/></g><!--link Comment to Post--><g class="link" data-entity-1="Comment" data-entity-2="Post" data-source-line="111" data-uid="lnk57" id="link_Comment_Post"><path codeLine="111" d="M689.68,314.25 C651.48,346.46 592.8976,395.8529 554.7576,428.0029" fill="none" id="Comment-to-Post" style="stroke:#181818;stroke-width:1;stroke-dasharray:7.0,7.0;"/><polygon fill="#181818" points="550.17,431.87,559.6294,429.1278,553.993,428.6474,554.4733,423.011,550.17,431.87" style="stroke:#181818;stroke-width:1;"/></g><!--link Comment to Comment--><g class="link" data-entity-1="Comment" data-entity-2="Comment" data-source-line="112" data-uid="lnk58" id="link_Comment_Comment"><path codeLine="112" d="M790.68,261.72 C810.34,262.67 825.5,270.77 825.5,286 C825.5,301.23 816.333,309.0404 796.673,309.9904" fill="none" id="Comment-to-Comment" style="stroke:#181818;stroke-width:1;"/><polygon fill="#181818" points="790.68,310.28,799.8626,313.841,795.6742,310.0387,799.4765,305.8503,790.68,310.28" style="stroke:#181818;stroke-width:1;"/></g><!--link Board to PermissionPolicy--><g class="link" data-entity-1="Board" data-entity-2="PermissionPolicy" data-source-line="113" data-uid="lnk59" id="link_Board_PermissionPolicy"><path codeLine="113" d="M1142.97,314.06 C1190.47,346.23 1264.3019,396.2257 1311.8819,428.4457" fill="none" id="Board-to-PermissionPolicy" style="stroke:#181818;stroke-width:1;stroke-dasharray:7.0,7.0;"/><polygon fill="#181818" points="1316.85,431.81,1311.6407,423.4516,1312.7099,429.0065,1307.155,430.0757,1316.85,431.81" style="stroke:#181818;stroke-width:1;"/></g><!--link Auth to Member--><g class="link" data-entity-1="Auth" data-entity-2="Member" data-source-line="115" data-uid="lnk60" id="link_Auth_Member"><path codeLine="115" d="M172.39,754.05 C218.55,791.43 296.7178,854.7332 342.8978,892.1432" fill="none" id="Auth-to-Member" style="stroke:#181818;stroke-width:1;stroke-dasharray:7.0,7.0;"/><polygon fill="#181818" points="347.56,895.92,343.0846,887.1467,343.6749,892.7727,338.0489,893.3629,347.56,895.92" style="stroke:#181818;stroke-width:1;"/></g><!--SRC=[dLQzRjim4Dxr58IMJZRGFH3W14LRe76C82tGaLO9MRKe2YA5r6WpjLlMPYaozHaAjCzKEEyGyaX9f4JBahqOv7VV_Nmy7bNWU8iJWiAOvO9y4OZY8aHV0oH_HOsj6Iu_8MCHQh1lO07gXzTSb3WMw1pOPsUB92b9WWL1ruo9A7BDxvoLf5QIUebpwR-Kv0yugmYwMdycyH5gpPdDTEIWDUidNZ0k3kMzajZ4jECCSuvULuGBmtvBY-n2xOuXNXAw9kKqvekdXp_x-yUdxu____vp49ABLEpG6ymtDpYH7b_1nYZX9O5FKXsIbf8heWE0f_1bAC48XSkmpiSjOl_xVl_mO__hfwy2vVjTkYNJIb2Cqse0feDeNtOLTKw3tHKpIcKDXnhiGiEdzrZhu8GscqJsLLTnKi8DksOPELJZUzjeGgLMmFOwpMRV8b2-mQmRqmSTZG0sYmxTQn9OMJGbKx0VceJQmb6ZqK97EoA2VM2cavTfl5rYIWQRsSCxJqkn-KXmEPfeCfHte8xf1Hl7WUi4v6fdAobfoddAyaOmv56iDRDXTn8t9YkMfV7E8o7gDf9la9YdOI5T9Rbf_dgY33imYfecTiKy5hgYmBlP5MI4QLlhi36auaoaXkWQziJJ9E3q1F6zf9PSYgEeqeEAtqz8WdMjljwmZXrNOZFO5ygWCrNCCIuKTKGBU0vm9QVSBOFFaU5tmLb2G5bQpUwN1l_cGsS-rsCew0oe-Jmoow1-RU1Lw-oxCwa3sjlDh6ldbplXT3vWska1dHkKPGK8xfu1]--></g></svg>