<svg xmlns="http://www.w3.org/2000/svg" xmlns:xlink="http://www.w3.org/1999/xlink" contentStyleType="text/css" data-diagram-type="CLASS" height="1124px" preserveAspectRatio="none" style="width:1724px;height:1124px;background:#FFFFFF;" version="1.1" viewBox="0 0 1724 1124" width="1724px" zoomAndPan="magnify"><defs/><g><!--cluster context map--><g class="cluster" data-entity="context map" data-source-line="2" data-uid="ent0002" id="cluster_context map"><path d="M8.5,6 L108.2246,6 A3.75,3.75 0 0 1 110.7246,8.5 L117.7246,28.2969 L1714.5,28.2969 A2.5,2.5 0 0 1 1717,30.7969 L1717,1114.5 A2.5,2.5 0 0 1 1714.5,1117 L8.5,1117 A2.5,2.5 0 0 1 6,1114.5 L6,8.5 A2.5,2.5 0 0 1 8.5,6" fill="none" style="stroke:#000000;stroke-width:1.5;"/><line style="stroke:#000000;stroke-width:1.5;" x1="6" x2="117.7246" y1="28.2969" y2="28.2969"/><text fill="#000000" font-family="sans-serif" font-size="14" font-weight="bold" lengthAdjust="spacing" textLength="98.7246" x="10" y="20.9951">context map</text></g><!--cluster board context--><g class="cluster" data-entity="board context" data-source-line="3" data-uid="ent0003" id="cluster_board context"><path d="M274.5,49 L386.1807,49 A3.75,3.75 0 0 1 388.6807,51.5 L395.6807,71.2969 L1346.5,71.2969 A2.5,2.5 0 0 1 1349,73.7969 L1349,776.5 A2.5,2.5 0 0 1 1346.5,779 L274.5,779 A2.5,2.5 0 0 1 272,776.5 L272,51.5 A2.5,2.5 0 0 1 274.5,49" fill="none" style="stroke:#000000;stroke-width:1.5;"/><line style="stroke:#000000;stroke-width:1.5;" x1="272" x2="395.6807" y1="71.2969" y2="71.2969"/><text fill="#000000" font-family="sans-serif" font-size="14" font-weight="bold" lengthAdjust="spacing" textLength="110.6807" x="276" y="63.9951">board context</text></g><!--cluster board--><g class="cluster" data-entity="board" data-source-line="4" data-uid="ent0004" id="cluster_board"><path d="M1020.5,92 L1067.5127,92 A3.75,3.75 0 0 1 1070.0127,94.5 L1077.0127,114.2969 L1322.5,114.2969 A2.5,2.5 0 0 1 1325,116.7969 L1325,312.5 A2.5,2.5 0 0 1 1322.5,315 L1020.5,315 A2.5,2.5 0 0 1 1018,312.5 L1018,94.5 A2.5,2.5 0 0 1 1020.5,92" fill="none" style="stroke:#000000;stroke-width:1.5;"/><line style="stroke:#000000;stroke-width:1.5;" x1="1018" x2="1077.0127" y1="114.2969" y2="114.2969"/><text fill="#000000" font-family="sans-serif" font-size="14" font-weight="bold" lengthAdjust="spacing" textLength="46.0127" x="1022" y="106.9951">board</text></g><!--cluster post--><g class="cluster" data-entity="post" data-source-line="15" data-uid="ent0010" id="cluster_post"><path d="M298.5,208 L334.165,208 A3.75,3.75 0 0 1 336.665,210.5 L343.665,230.2969 L600.5,230.2969 A2.5,2.5 0 0 1 603,232.7969 L603,752.5 A2.5,2.5 0 0 1 600.5,755 L298.5,755 A2.5,2.5 0 0 1 296,752.5 L296,210.5 A2.5,2.5 0 0 1 298.5,208" fill="none" style="stroke:#000000;stroke-width:1.5;"/><line style="stroke:#000000;stroke-width:1.5;" x1="296" x2="343.665" y1="230.2969" y2="230.2969"/><text fill="#000000" font-family="sans-serif" font-size="14" font-weight="bold" lengthAdjust="spacing" textLength="34.665" x="300" y="222.9951">post</text></g><!--cluster comment--><g class="cluster" data-entity="comment" data-source-line="38" data-uid="ent0022" id="cluster_comment"><path d="M629.5,92 L703.7471,92 A3.75,3.75 0 0 1 706.2471,94.5 L713.2471,114.2969 L991.5,114.2969 A2.5,2.5 0 0 1 994,116.7969 L994,312.5 A2.5,2.5 0 0 1 991.5,315 L629.5,315 A2.5,2.5 0 0 1 627,312.5 L627,94.5 A2.5,2.5 0 0 1 629.5,92" fill="none" style="stroke:#000000;stroke-width:1.5;"/><line style="stroke:#000000;stroke-width:1.5;" x1="627" x2="713.2471" y1="114.2969" y2="114.2969"/><text fill="#000000" font-family="sans-serif" font-size="14" font-weight="bold" lengthAdjust="spacing" textLength="73.2471" x="631" y="106.9951">comment</text></g><!--cluster member context--><g class="cluster" data-entity="member context" data-source-line="54" data-uid="ent0030" id="cluster_member context"><path d="M274.5,803 L405.2598,803 A3.75,3.75 0 0 1 407.7598,805.5 L414.7598,825.2969 L624.5,825.2969 A2.5,2.5 0 0 1 627,827.7969 L627,1090.5 A2.5,2.5 0 0 1 624.5,1093 L274.5,1093 A2.5,2.5 0 0 1 272,1090.5 L272,805.5 A2.5,2.5 0 0 1 274.5,803" fill="none" style="stroke:#000000;stroke-width:1.5;"/><line style="stroke:#000000;stroke-width:1.5;" x1="272" x2="414.7598" y1="825.2969" y2="825.2969"/><text fill="#000000" font-family="sans-serif" font-size="14" font-weight="bold" lengthAdjust="spacing" textLength="129.7598" x="276" y="817.9951">member context</text></g><!--cluster member--><g class="cluster" data-entity="member" data-source-line="55" data-uid="ent0031" id="cluster_member"><path d="M298.5,846 L364.5918,846 A3.75,3.75 0 0 1 367.0918,848.5 L374.0918,868.2969 L600.5,868.2969 A2.5,2.5 0 0 1 603,870.7969 L603,1066.5 A2.5,2.5 0 0 1 600.5,1069 L298.5,1069 A2.5,2.5 0 0 1 296,1066.5 L296,848.5 A2.5,2.5 0 0 1 298.5,846" fill="none" style="stroke:#000000;stroke-width:1.5;"/><line style="stroke:#000000;stroke-width:1.5;" x1="296" x2="374.0918" y1="868.2969" y2="868.2969"/><text fill="#000000" font-family="sans-serif" font-size="14" font-weight="bold" lengthAdjust="spacing" textLength="65.0918" x="300" y="860.9951">member</text></g><!--cluster permission context--><g class="cluster" data-entity="permission context" data-source-line="67" data-uid="ent0037" id="cluster_permission context"><path d="M1375.5,339 L1528.0254,339 A3.75,3.75 0 0 1 1530.5254,341.5 L1537.5254,361.2969 L1690.5,361.2969 A2.5,2.5 0 0 1 1693,363.7969 L1693,970.5 A2.5,2.5 0 0 1 1690.5,973 L1375.5,973 A2.5,2.5 0 0 1 1373,970.5 L1373,341.5 A2.5,2.5 0 0 1 1375.5,339" fill="none" style="stroke:#000000;stroke-width:1.5;"/><line style="stroke:#000000;stroke-width:1.5;" x1="1373" x2="1537.5254" y1="361.2969" y2="361.2969"/><text fill="#000000" font-family="sans-serif" font-size="14" font-weight="bold" lengthAdjust="spacing" textLength="151.5254" x="1377" y="353.9951">permission context</text></g><!--cluster permission--><g class="cluster" data-entity="permission" data-source-line="68" data-uid="ent0038" id="cluster_permission"><path d="M1399.5,382 L1487.3574,382 A3.75,3.75 0 0 1 1489.8574,384.5 L1496.8574,404.2969 L1666.5,404.2969 A2.5,2.5 0 0 1 1669,406.7969 L1669,946.5 A2.5,2.5 0 0 1 1666.5,949 L1399.5,949 A2.5,2.5 0 0 1 1397,946.5 L1397,384.5 A2.5,2.5 0 0 1 1399.5,382" fill="none" style="stroke:#000000;stroke-width:1.5;"/><line style="stroke:#000000;stroke-width:1.5;" x1="1397" x2="1496.8574" y1="404.2969" y2="404.2969"/><text fill="#000000" font-family="sans-serif" font-size="14" font-weight="bold" lengthAdjust="spacing" textLength="86.8574" x="1401" y="396.9951">permission</text></g><!--cluster auth context--><g class="cluster" data-entity="auth context" data-source-line="92" data-uid="ent0048" id="cluster_auth context"><path d="M32.5,605 L134.2412,605 A3.75,3.75 0 0 1 136.7412,607.5 L143.7412,627.2969 L245.5,627.2969 A2.5,2.5 0 0 1 248,629.7969 L248,974.5 A2.5,2.5 0 0 1 245.5,977 L32.5,977 A2.5,2.5 0 0 1 30,974.5 L30,607.5 A2.5,2.5 0 0 1 32.5,605" fill="none" style="stroke:#000000;stroke-width:1.5;"/><line style="stroke:#000000;stroke-width:1.5;" x1="30" x2="143.7412" y1="627.2969" y2="627.2969"/><text fill="#000000" font-family="sans-serif" font-size="14" font-weight="bold" lengthAdjust="spacing" textLength="100.7412" x="34" y="619.9951">auth context</text></g><!--cluster auth--><g class="cluster" data-entity="auth" data-source-line="93" data-uid="ent0049" id="cluster_auth"><path d="M56.5,648 L93.5732,648 A3.75,3.75 0 0 1 96.0732,650.5 L103.0732,670.2969 L221.5,670.2969 A2.5,2.5 0 0 1 224,672.7969 L224,950.5 A2.5,2.5 0 0 1 221.5,953 L56.5,953 A2.5,2.5 0 0 1 54,950.5 L54,650.5 A2.5,2.5 0 0 1 56.5,648" fill="none" style="stroke:#000000;stroke-width:1.5;"/><line style="stroke:#000000;stroke-width:1.5;" x1="54" x2="103.0732" y1="670.2969" y2="670.2969"/><text fill="#000000" font-family="sans-serif" font-size="14" font-weight="bold" lengthAdjust="spacing" textLength="36.0732" x="58" y="662.9951">auth</text></g><!--class Board--><g class="entity" data-entity="Board" data-source-line="5" data-uid="ent0005" id="entity_Board"><rect fill="#F1F1F1" height="56.2656" rx="2.5" ry="2.5" style="stroke:#181818;stroke-width:0.5;" width="137.1719" x="1102.5" y="243"/><ellipse cx="1117.5" cy="263.1328" fill="#A9DCDF" rx="11" ry="11" style="stroke:#181818;stroke-width:1;"/><path d="M1117.6094,258.4766 L1116.4531,263.5547 L1118.7813,263.5547 L1117.6094,258.4766 Z M1116.125,256.2422 L1119.1094,256.2422 L1122.4688,268.6328 L1120.0156,268.6328 L1119.25,265.5703 L1115.9688,265.5703 L1115.2188,268.6328 L1112.7813,268.6328 L1116.125,256.2422 Z " fill="#000000"/><text fill="#000000" font-family="sans-serif" font-size="12" font-style="italic" lengthAdjust="spacing" textLength="109.1719" x="1129.5" y="259.1387">&#171;Aggregate Root&#187;</text><text fill="#000000" font-family="sans-serif" font-size="14" font-style="italic" lengthAdjust="spacing" textLength="41.3916" x="1163.3901" y="274.9639">Board</text><line style="stroke:#181818;stroke-width:0.5;" x1="1103.5" x2="1238.6719" y1="283.2656" y2="283.2656"/><line style="stroke:#181818;stroke-width:0.5;" x1="1103.5" x2="1238.6719" y1="291.2656" y2="291.2656"/></g><!--class BoardName--><g class="entity" data-entity="BoardName" data-source-line="7" data-uid="ent0006" id="entity_BoardName"><rect fill="#F1F1F1" height="56.2656" rx="2.5" ry="2.5" style="stroke:#181818;stroke-width:0.5;" width="119.5938" x="1189" y="127"/><ellipse cx="1204" cy="147.1328" fill="#F1F1F1" rx="11" ry="11" style="stroke:#181818;stroke-width:1;"/><path d="M1203.4844,147.6953 Q1201.625,146.9922 1200.9688,146.2266 Q1200.3281,145.4453 1200.3281,144.1328 Q1200.3281,142.4453 1201.4063,141.4766 Q1202.4844,140.5078 1204.3594,140.5078 Q1205.2188,140.5078 1206.0625,140.7109 Q1206.9219,140.8984 1207.7656,141.2891 L1207.7656,143.6797 Q1206.9844,143.1172 1206.1563,142.8359 Q1205.3438,142.5391 1204.5469,142.5391 Q1203.6719,142.5391 1203.1875,142.8984 Q1202.7188,143.2578 1202.7188,143.9141 Q1202.7188,144.4297 1203.0625,144.7734 Q1203.4063,145.1016 1204.5,145.5078 L1205.5625,145.9141 Q1207.0469,146.4609 1207.75,147.3672 Q1208.4688,148.2734 1208.4688,149.6484 Q1208.4688,151.5234 1207.3594,152.4453 Q1206.25,153.3672 1204,153.3672 Q1203.0781,153.3672 1202.1563,153.1484 Q1201.2344,152.9297 1200.375,152.5078 L1200.375,149.9766 Q1201.3438,150.6641 1202.2656,151.0078 Q1203.1875,151.3516 1204.0781,151.3516 Q1204.9844,151.3516 1205.4844,150.9453 Q1205.9844,150.5234 1205.9844,149.7891 Q1205.9844,149.2266 1205.6406,148.8203 Q1205.3125,148.3984 1204.6875,148.1484 L1203.4844,147.6953 Z " fill="#000000"/><text fill="#000000" font-family="sans-serif" font-size="12" font-style="italic" lengthAdjust="spacing" textLength="91.5938" x="1216" y="143.1387">&#171;Value Object&#187;</text><text fill="#000000" font-family="sans-serif" font-size="14" lengthAdjust="spacing" textLength="82.6943" x="1220.4497" y="158.9639">BoardName</text><line style="stroke:#181818;stroke-width:0.5;" x1="1190" x2="1307.5938" y1="167.2656" y2="167.2656"/><line style="stroke:#181818;stroke-width:0.5;" x1="1190" x2="1307.5938" y1="175.2656" y2="175.2656"/></g><!--class Creator--><g class="entity" data-entity="Creator" data-source-line="9" data-uid="ent0007" id="entity_Creator"><rect fill="#F1F1F1" height="56.2656" rx="2.5" ry="2.5" style="stroke:#181818;stroke-width:0.5;" width="119.5938" x="1034" y="127"/><ellipse cx="1049" cy="147.1328" fill="#F1F1F1" rx="11" ry="11" style="stroke:#181818;stroke-width:1;"/><path d="M1048.4844,147.6953 Q1046.625,146.9922 1045.9688,146.2266 Q1045.3281,145.4453 1045.3281,144.1328 Q1045.3281,142.4453 1046.4063,141.4766 Q1047.4844,140.5078 1049.3594,140.5078 Q1050.2188,140.5078 1051.0625,140.7109 Q1051.9219,140.8984 1052.7656,141.2891 L1052.7656,143.6797 Q1051.9844,143.1172 1051.1563,142.8359 Q1050.3438,142.5391 1049.5469,142.5391 Q1048.6719,142.5391 1048.1875,142.8984 Q1047.7188,143.2578 1047.7188,143.9141 Q1047.7188,144.4297 1048.0625,144.7734 Q1048.4063,145.1016 1049.5,145.5078 L1050.5625,145.9141 Q1052.0469,146.4609 1052.75,147.3672 Q1053.4688,148.2734 1053.4688,149.6484 Q1053.4688,151.5234 1052.3594,152.4453 Q1051.25,153.3672 1049,153.3672 Q1048.0781,153.3672 1047.1563,153.1484 Q1046.2344,152.9297 1045.375,152.5078 L1045.375,149.9766 Q1046.3438,150.6641 1047.2656,151.0078 Q1048.1875,151.3516 1049.0781,151.3516 Q1049.9844,151.3516 1050.4844,150.9453 Q1050.9844,150.5234 1050.9844,149.7891 Q1050.9844,149.2266 1050.6406,148.8203 Q1050.3125,148.3984 1049.6875,148.1484 L1048.4844,147.6953 Z " fill="#000000"/><text fill="#000000" font-family="sans-serif" font-size="12" font-style="italic" lengthAdjust="spacing" textLength="91.5938" x="1061" y="143.1387">&#171;Value Object&#187;</text><text fill="#000000" font-family="sans-serif" font-size="14" lengthAdjust="spacing" textLength="52.5342" x="1080.5298" y="158.9639">Creator</text><line style="stroke:#181818;stroke-width:0.5;" x1="1035" x2="1152.5938" y1="167.2656" y2="167.2656"/><line style="stroke:#181818;stroke-width:0.5;" x1="1035" x2="1152.5938" y1="175.2656" y2="175.2656"/></g><!--class Post--><g class="entity" data-entity="Post" data-source-line="16" data-uid="ent0011" id="entity_Post"><rect fill="#F1F1F1" height="56.2656" rx="2.5" ry="2.5" style="stroke:#181818;stroke-width:0.5;" width="137.1719" x="449.5" y="417"/><ellipse cx="464.5" cy="437.1328" fill="#A9DCDF" rx="11" ry="11" style="stroke:#181818;stroke-width:1;"/><path d="M464.6094,432.4766 L463.4531,437.5547 L465.7813,437.5547 L464.6094,432.4766 Z M463.125,430.2422 L466.1094,430.2422 L469.4688,442.6328 L467.0156,442.6328 L466.25,439.5703 L462.9688,439.5703 L462.2188,442.6328 L459.7813,442.6328 L463.125,430.2422 Z " fill="#000000"/><text fill="#000000" font-family="sans-serif" font-size="12" font-style="italic" lengthAdjust="spacing" textLength="109.1719" x="476.5" y="433.1387">&#171;Aggregate Root&#187;</text><text fill="#000000" font-family="sans-serif" font-size="14" font-style="italic" lengthAdjust="spacing" textLength="29.791" x="516.1904" y="448.9639">Post</text><line style="stroke:#181818;stroke-width:0.5;" x1="450.5" x2="585.6719" y1="457.2656" y2="457.2656"/><line style="stroke:#181818;stroke-width:0.5;" x1="450.5" x2="585.6719" y1="465.2656" y2="465.2656"/></g><!--class GuestPost--><g class="entity" data-entity="GuestPost" data-source-line="18" data-uid="ent0012" id="entity_GuestPost"><rect fill="#F1F1F1" height="56.2656" rx="2.5" ry="2.5" style="stroke:#181818;stroke-width:0.5;" width="102.9092" x="466.5" y="243"/><ellipse cx="481.5" cy="263.1328" fill="#ADD1B2" rx="11" ry="11" style="stroke:#181818;stroke-width:1;"/><path d="M484.4688,268.7734 Q483.8906,269.0703 483.25,269.2109 Q482.6094,269.3672 481.9063,269.3672 Q479.4063,269.3672 478.0781,267.7266 Q476.7656,266.0703 476.7656,262.9453 Q476.7656,259.8203 478.0781,258.1641 Q479.4063,256.5078 481.9063,256.5078 Q482.6094,256.5078 483.25,256.6641 Q483.9063,256.8203 484.4688,257.1172 L484.4688,259.8359 Q483.8438,259.2578 483.25,258.9922 Q482.6563,258.7109 482.0313,258.7109 Q480.6875,258.7109 480,259.7891 Q479.3125,260.8516 479.3125,262.9453 Q479.3125,265.0391 480,266.1172 Q480.6875,267.1797 482.0313,267.1797 Q482.6563,267.1797 483.25,266.9141 Q483.8438,266.6328 484.4688,266.0547 L484.4688,268.7734 Z " fill="#000000"/><text fill="#000000" font-family="sans-serif" font-size="12" font-style="italic" lengthAdjust="spacing" textLength="72.5625" x="494.6733" y="259.1387">&#171;ImplClass&#187;</text><text fill="#000000" font-family="sans-serif" font-size="14" lengthAdjust="spacing" textLength="70.9092" x="495.5" y="274.9639">GuestPost</text><line style="stroke:#181818;stroke-width:0.5;" x1="467.5" x2="568.4092" y1="283.2656" y2="283.2656"/><line style="stroke:#181818;stroke-width:0.5;" x1="467.5" x2="568.4092" y1="291.2656" y2="291.2656"/></g><!--class MemberPost--><g class="entity" data-entity="MemberPost" data-source-line="20" data-uid="ent0013" id="entity_MemberPost"><rect fill="#F1F1F1" height="56.2656" rx="2.5" ry="2.5" style="stroke:#181818;stroke-width:0.5;" width="119.377" x="312.5" y="243"/><ellipse cx="327.5" cy="263.1328" fill="#ADD1B2" rx="11" ry="11" style="stroke:#181818;stroke-width:1;"/><path d="M330.4688,268.7734 Q329.8906,269.0703 329.25,269.2109 Q328.6094,269.3672 327.9063,269.3672 Q325.4063,269.3672 324.0781,267.7266 Q322.7656,266.0703 322.7656,262.9453 Q322.7656,259.8203 324.0781,258.1641 Q325.4063,256.5078 327.9063,256.5078 Q328.6094,256.5078 329.25,256.6641 Q329.9063,256.8203 330.4688,257.1172 L330.4688,259.8359 Q329.8438,259.2578 329.25,258.9922 Q328.6563,258.7109 328.0313,258.7109 Q326.6875,258.7109 326,259.7891 Q325.3125,260.8516 325.3125,262.9453 Q325.3125,265.0391 326,266.1172 Q326.6875,267.1797 328.0313,267.1797 Q328.6563,267.1797 329.25,266.9141 Q329.8438,266.6328 330.4688,266.0547 L330.4688,268.7734 Z " fill="#000000"/><text fill="#000000" font-family="sans-serif" font-size="12" font-style="italic" lengthAdjust="spacing" textLength="72.5625" x="348.9072" y="259.1387">&#171;ImplClass&#187;</text><text fill="#000000" font-family="sans-serif" font-size="14" lengthAdjust="spacing" textLength="87.377" x="341.5" y="274.9639">MemberPost</text><line style="stroke:#181818;stroke-width:0.5;" x1="313.5" x2="430.877" y1="283.2656" y2="283.2656"/><line style="stroke:#181818;stroke-width:0.5;" x1="313.5" x2="430.877" y1="291.2656" y2="291.2656"/></g><!--class HashTag--><g class="entity" data-entity="HashTag" data-source-line="23" data-uid="ent0014" id="entity_HashTag"><rect fill="#F1F1F1" height="56.2656" rx="2.5" ry="2.5" style="stroke:#181818;stroke-width:0.5;" width="93.291" x="338.5" y="683"/><ellipse cx="353.5" cy="703.1328" fill="#ADD1B2" rx="11" ry="11" style="stroke:#181818;stroke-width:1;"/><path d="M357.6094,709.1328 L349.8906,709.1328 L349.8906,696.7422 L357.6094,696.7422 L357.6094,698.8984 L352.3438,698.8984 L352.3438,701.5703 L357.1094,701.5703 L357.1094,703.7266 L352.3438,703.7266 L352.3438,706.9766 L357.6094,706.9766 L357.6094,709.1328 Z " fill="#000000"/><text fill="#000000" font-family="sans-serif" font-size="12" font-style="italic" lengthAdjust="spacing" textLength="49.8457" x="373.2227" y="699.1387">&#171;Entity&#187;</text><text fill="#000000" font-family="sans-serif" font-size="14" lengthAdjust="spacing" textLength="61.291" x="367.5" y="714.9639">HashTag</text><line style="stroke:#181818;stroke-width:0.5;" x1="339.5" x2="430.791" y1="723.2656" y2="723.2656"/><line style="stroke:#181818;stroke-width:0.5;" x1="339.5" x2="430.791" y1="731.2656" y2="731.2656"/></g><!--class Tags--><g class="entity" data-entity="Tags" data-source-line="25" data-uid="ent0015" id="entity_Tags"><rect fill="#F1F1F1" height="56.2656" rx="2.5" ry="2.5" style="stroke:#181818;stroke-width:0.5;" width="119.5938" x="312" y="533"/><ellipse cx="327" cy="553.1328" fill="#F1F1F1" rx="11" ry="11" style="stroke:#181818;stroke-width:1;"/><path d="M326.4844,553.6953 Q324.625,552.9922 323.9688,552.2266 Q323.3281,551.4453 323.3281,550.1328 Q323.3281,548.4453 324.4063,547.4766 Q325.4844,546.5078 327.3594,546.5078 Q328.2188,546.5078 329.0625,546.7109 Q329.9219,546.8984 330.7656,547.2891 L330.7656,549.6797 Q329.9844,549.1172 329.1563,548.8359 Q328.3438,548.5391 327.5469,548.5391 Q326.6719,548.5391 326.1875,548.8984 Q325.7188,549.2578 325.7188,549.9141 Q325.7188,550.4297 326.0625,550.7734 Q326.4063,551.1016 327.5,551.5078 L328.5625,551.9141 Q330.0469,552.4609 330.75,553.3672 Q331.4688,554.2734 331.4688,555.6484 Q331.4688,557.5234 330.3594,558.4453 Q329.25,559.3672 327,559.3672 Q326.0781,559.3672 325.1563,559.1484 Q324.2344,558.9297 323.375,558.5078 L323.375,555.9766 Q324.3438,556.6641 325.2656,557.0078 Q326.1875,557.3516 327.0781,557.3516 Q327.9844,557.3516 328.4844,556.9453 Q328.9844,556.5234 328.9844,555.7891 Q328.9844,555.2266 328.6406,554.8203 Q328.3125,554.3984 327.6875,554.1484 L326.4844,553.6953 Z " fill="#000000"/><text fill="#000000" font-family="sans-serif" font-size="12" font-style="italic" lengthAdjust="spacing" textLength="91.5938" x="339" y="549.1387">&#171;Value Object&#187;</text><text fill="#000000" font-family="sans-serif" font-size="14" lengthAdjust="spacing" textLength="33.3115" x="368.1411" y="564.9639">Tags</text><line style="stroke:#181818;stroke-width:0.5;" x1="313" x2="430.5938" y1="573.2656" y2="573.2656"/><line style="stroke:#181818;stroke-width:0.5;" x1="313" x2="430.5938" y1="581.2656" y2="581.2656"/></g><!--class PostLike--><g class="entity" data-entity="PostLike" data-source-line="30" data-uid="ent0018" id="entity_PostLike"><rect fill="#F1F1F1" height="56.2656" rx="2.5" ry="2.5" style="stroke:#181818;stroke-width:0.5;" width="90.2012" x="474" y="683"/><ellipse cx="489" cy="703.1328" fill="#ADD1B2" rx="11" ry="11" style="stroke:#181818;stroke-width:1;"/><path d="M493.1094,709.1328 L485.3906,709.1328 L485.3906,696.7422 L493.1094,696.7422 L493.1094,698.8984 L487.8438,698.8984 L487.8438,701.5703 L492.6094,701.5703 L492.6094,703.7266 L487.8438,703.7266 L487.8438,706.9766 L493.1094,706.9766 L493.1094,709.1328 Z " fill="#000000"/><text fill="#000000" font-family="sans-serif" font-size="12" font-style="italic" lengthAdjust="spacing" textLength="49.8457" x="507.1777" y="699.1387">&#171;Entity&#187;</text><text fill="#000000" font-family="sans-serif" font-size="14" lengthAdjust="spacing" textLength="58.2012" x="503" y="714.9639">PostLike</text><line style="stroke:#181818;stroke-width:0.5;" x1="475" x2="563.2012" y1="723.2656" y2="723.2656"/><line style="stroke:#181818;stroke-width:0.5;" x1="475" x2="563.2012" y1="731.2656" y2="731.2656"/></g><!--class Likes--><g class="entity" data-entity="Likes" data-source-line="32" data-uid="ent0019" id="entity_Likes"><rect fill="#F1F1F1" height="56.2656" rx="2.5" ry="2.5" style="stroke:#181818;stroke-width:0.5;" width="119.5938" x="467" y="533"/><ellipse cx="482" cy="553.1328" fill="#F1F1F1" rx="11" ry="11" style="stroke:#181818;stroke-width:1;"/><path d="M481.4844,553.6953 Q479.625,552.9922 478.9688,552.2266 Q478.3281,551.4453 478.3281,550.1328 Q478.3281,548.4453 479.4063,547.4766 Q480.4844,546.5078 482.3594,546.5078 Q483.2188,546.5078 484.0625,546.7109 Q484.9219,546.8984 485.7656,547.2891 L485.7656,549.6797 Q484.9844,549.1172 484.1563,548.8359 Q483.3438,548.5391 482.5469,548.5391 Q481.6719,548.5391 481.1875,548.8984 Q480.7188,549.2578 480.7188,549.9141 Q480.7188,550.4297 481.0625,550.7734 Q481.4063,551.1016 482.5,551.5078 L483.5625,551.9141 Q485.0469,552.4609 485.75,553.3672 Q486.4688,554.2734 486.4688,555.6484 Q486.4688,557.5234 485.3594,558.4453 Q484.25,559.3672 482,559.3672 Q481.0781,559.3672 480.1563,559.1484 Q479.2344,558.9297 478.375,558.5078 L478.375,555.9766 Q479.3438,556.6641 480.2656,557.0078 Q481.1875,557.3516 482.0781,557.3516 Q482.9844,557.3516 483.4844,556.9453 Q483.9844,556.5234 483.9844,555.7891 Q483.9844,555.2266 483.6406,554.8203 Q483.3125,554.3984 482.6875,554.1484 L481.4844,553.6953 Z " fill="#000000"/><text fill="#000000" font-family="sans-serif" font-size="12" font-style="italic" lengthAdjust="spacing" textLength="91.5938" x="494" y="549.1387">&#171;Value Object&#187;</text><text fill="#000000" font-family="sans-serif" font-size="14" lengthAdjust="spacing" textLength="35.7041" x="521.9448" y="564.9639">Likes</text><line style="stroke:#181818;stroke-width:0.5;" x1="468" x2="585.5938" y1="573.2656" y2="573.2656"/><line style="stroke:#181818;stroke-width:0.5;" x1="468" x2="585.5938" y1="581.2656" y2="581.2656"/></g><!--class Comment--><g class="entity" data-entity="Comment" data-source-line="39" data-uid="ent0023" id="entity_Comment"><rect fill="#F1F1F1" height="56.2656" rx="2.5" ry="2.5" style="stroke:#181818;stroke-width:0.5;" width="137.1719" x="653.5" y="243"/><ellipse cx="668.5" cy="263.1328" fill="#A9DCDF" rx="11" ry="11" style="stroke:#181818;stroke-width:1;"/><path d="M668.6094,258.4766 L667.4531,263.5547 L669.7813,263.5547 L668.6094,258.4766 Z M667.125,256.2422 L670.1094,256.2422 L673.4688,268.6328 L671.0156,268.6328 L670.25,265.5703 L666.9688,265.5703 L666.2188,268.6328 L663.7813,268.6328 L667.125,256.2422 Z " fill="#000000"/><text fill="#000000" font-family="sans-serif" font-size="12" font-style="italic" lengthAdjust="spacing" textLength="109.1719" x="680.5" y="259.1387">&#171;Aggregate Root&#187;</text><text fill="#000000" font-family="sans-serif" font-size="14" font-style="italic" lengthAdjust="spacing" textLength="68.5918" x="700.79" y="274.9639">Comment</text><line style="stroke:#181818;stroke-width:0.5;" x1="654.5" x2="789.6719" y1="283.2656" y2="283.2656"/><line style="stroke:#181818;stroke-width:0.5;" x1="654.5" x2="789.6719" y1="291.2656" y2="291.2656"/></g><!--class GuestComment--><g class="entity" data-entity="GuestComment" data-source-line="41" data-uid="ent0024" id="entity_GuestComment"><rect fill="#F1F1F1" height="56.2656" rx="2.5" ry="2.5" style="stroke:#181818;stroke-width:0.5;" width="141.71" x="836" y="127"/><ellipse cx="851" cy="147.1328" fill="#ADD1B2" rx="11" ry="11" style="stroke:#181818;stroke-width:1;"/><path d="M853.9688,152.7734 Q853.3906,153.0703 852.75,153.2109 Q852.1094,153.3672 851.4063,153.3672 Q848.9063,153.3672 847.5781,151.7266 Q846.2656,150.0703 846.2656,146.9453 Q846.2656,143.8203 847.5781,142.1641 Q848.9063,140.5078 851.4063,140.5078 Q852.1094,140.5078 852.75,140.6641 Q853.4063,140.8203 853.9688,141.1172 L853.9688,143.8359 Q853.3438,143.2578 852.75,142.9922 Q852.1563,142.7109 851.5313,142.7109 Q850.1875,142.7109 849.5,143.7891 Q848.8125,144.8516 848.8125,146.9453 Q848.8125,149.0391 849.5,150.1172 Q850.1875,151.1797 851.5313,151.1797 Q852.1563,151.1797 852.75,150.9141 Q853.3438,150.6328 853.9688,150.0547 L853.9688,152.7734 Z " fill="#000000"/><text fill="#000000" font-family="sans-serif" font-size="12" font-style="italic" lengthAdjust="spacing" textLength="72.5625" x="883.5737" y="143.1387">&#171;ImplClass&#187;</text><text fill="#000000" font-family="sans-serif" font-size="14" lengthAdjust="spacing" textLength="109.71" x="865" y="158.9639">GuestComment</text><line style="stroke:#181818;stroke-width:0.5;" x1="837" x2="976.71" y1="167.2656" y2="167.2656"/><line style="stroke:#181818;stroke-width:0.5;" x1="837" x2="976.71" y1="175.2656" y2="175.2656"/></g><!--class MemberComment--><g class="entity" data-entity="MemberComment" data-source-line="43" data-uid="ent0025" id="entity_MemberComment"><rect fill="#F1F1F1" height="56.2656" rx="2.5" ry="2.5" style="stroke:#181818;stroke-width:0.5;" width="158.1777" x="643" y="127"/><ellipse cx="658" cy="147.1328" fill="#ADD1B2" rx="11" ry="11" style="stroke:#181818;stroke-width:1;"/><path d="M660.9688,152.7734 Q660.3906,153.0703 659.75,153.2109 Q659.1094,153.3672 658.4063,153.3672 Q655.9063,153.3672 654.5781,151.7266 Q653.2656,150.0703 653.2656,146.9453 Q653.2656,143.8203 654.5781,142.1641 Q655.9063,140.5078 658.4063,140.5078 Q659.1094,140.5078 659.75,140.6641 Q660.4063,140.8203 660.9688,141.1172 L660.9688,143.8359 Q660.3438,143.2578 659.75,142.9922 Q659.1563,142.7109 658.5313,142.7109 Q657.1875,142.7109 656.5,143.7891 Q655.8125,144.8516 655.8125,146.9453 Q655.8125,149.0391 656.5,150.1172 Q657.1875,151.1797 658.5313,151.1797 Q659.1563,151.1797 659.75,150.9141 Q660.3438,150.6328 660.9688,150.0547 L660.9688,152.7734 Z " fill="#000000"/><text fill="#000000" font-family="sans-serif" font-size="12" font-style="italic" lengthAdjust="spacing" textLength="72.5625" x="698.8076" y="143.1387">&#171;ImplClass&#187;</text><text fill="#000000" font-family="sans-serif" font-size="14" lengthAdjust="spacing" textLength="126.1777" x="672" y="158.9639">MemberComment</text><line style="stroke:#181818;stroke-width:0.5;" x1="644" x2="800.1777" y1="167.2656" y2="167.2656"/><line style="stroke:#181818;stroke-width:0.5;" x1="644" x2="800.1777" y1="175.2656" y2="175.2656"/></g><!--class Member--><g class="entity" data-entity="Member" data-source-line="56" data-uid="ent0032" id="entity_Member"><rect fill="#F1F1F1" height="56.2656" rx="2.5" ry="2.5" style="stroke:#181818;stroke-width:0.5;" width="137.1719" x="312.5" y="881"/><ellipse cx="327.5" cy="901.1328" fill="#A9DCDF" rx="11" ry="11" style="stroke:#181818;stroke-width:1;"/><path d="M327.6094,896.4766 L326.4531,901.5547 L328.7813,901.5547 L327.6094,896.4766 Z M326.125,894.2422 L329.1094,894.2422 L332.4688,906.6328 L330.0156,906.6328 L329.25,903.5703 L325.9688,903.5703 L325.2188,906.6328 L322.7813,906.6328 L326.125,894.2422 Z " fill="#000000"/><text fill="#000000" font-family="sans-serif" font-size="12" font-style="italic" lengthAdjust="spacing" textLength="109.1719" x="339.5" y="897.1387">&#171;Aggregate Root&#187;</text><text fill="#000000" font-family="sans-serif" font-size="14" font-style="italic" lengthAdjust="spacing" textLength="57.5859" x="365.293" y="912.9639">Member</text><line style="stroke:#181818;stroke-width:0.5;" x1="313.5" x2="448.6719" y1="921.2656" y2="921.2656"/><line style="stroke:#181818;stroke-width:0.5;" x1="313.5" x2="448.6719" y1="929.2656" y2="929.2656"/></g><!--class NickName--><g class="entity" data-entity="NickName" data-source-line="58" data-uid="ent0033" id="entity_NickName"><rect fill="#F1F1F1" height="56.2656" rx="2.5" ry="2.5" style="stroke:#181818;stroke-width:0.5;" width="119.5938" x="312" y="997"/><ellipse cx="327" cy="1017.1328" fill="#F1F1F1" rx="11" ry="11" style="stroke:#181818;stroke-width:1;"/><path d="M326.4844,1017.6953 Q324.625,1016.9922 323.9688,1016.2266 Q323.3281,1015.4453 323.3281,1014.1328 Q323.3281,1012.4453 324.4063,1011.4766 Q325.4844,1010.5078 327.3594,1010.5078 Q328.2188,1010.5078 329.0625,1010.7109 Q329.9219,1010.8984 330.7656,1011.2891 L330.7656,1013.6797 Q329.9844,1013.1172 329.1563,1012.8359 Q328.3438,1012.5391 327.5469,1012.5391 Q326.6719,1012.5391 326.1875,1012.8984 Q325.7188,1013.2578 325.7188,1013.9141 Q325.7188,1014.4297 326.0625,1014.7734 Q326.4063,1015.1016 327.5,1015.5078 L328.5625,1015.9141 Q330.0469,1016.4609 330.75,1017.3672 Q331.4688,1018.2734 331.4688,1019.6484 Q331.4688,1021.5234 330.3594,1022.4453 Q329.25,1023.3672 327,1023.3672 Q326.0781,1023.3672 325.1563,1023.1484 Q324.2344,1022.9297 323.375,1022.5078 L323.375,1019.9766 Q324.3438,1020.6641 325.2656,1021.0078 Q326.1875,1021.3516 327.0781,1021.3516 Q327.9844,1021.3516 328.4844,1020.9453 Q328.9844,1020.5234 328.9844,1019.7891 Q328.9844,1019.2266 328.6406,1018.8203 Q328.3125,1018.3984 327.6875,1018.1484 L326.4844,1017.6953 Z " fill="#000000"/><text fill="#000000" font-family="sans-serif" font-size="12" font-style="italic" lengthAdjust="spacing" textLength="91.5938" x="339" y="1013.1387">&#171;Value Object&#187;</text><text fill="#000000" font-family="sans-serif" font-size="14" lengthAdjust="spacing" textLength="71.4697" x="349.062" y="1028.9639">NickName</text><line style="stroke:#181818;stroke-width:0.5;" x1="313" x2="430.5938" y1="1037.2656" y2="1037.2656"/><line style="stroke:#181818;stroke-width:0.5;" x1="313" x2="430.5938" y1="1045.2656" y2="1045.2656"/></g><!--class BirthYear--><g class="entity" data-entity="BirthYear" data-source-line="60" data-uid="ent0034" id="entity_BirthYear"><rect fill="#F1F1F1" height="56.2656" rx="2.5" ry="2.5" style="stroke:#181818;stroke-width:0.5;" width="119.5938" x="467" y="997"/><ellipse cx="482" cy="1017.1328" fill="#F1F1F1" rx="11" ry="11" style="stroke:#181818;stroke-width:1;"/><path d="M481.4844,1017.6953 Q479.625,1016.9922 478.9688,1016.2266 Q478.3281,1015.4453 478.3281,1014.1328 Q478.3281,1012.4453 479.4063,1011.4766 Q480.4844,1010.5078 482.3594,1010.5078 Q483.2188,1010.5078 484.0625,1010.7109 Q484.9219,1010.8984 485.7656,1011.2891 L485.7656,1013.6797 Q484.9844,1013.1172 484.1563,1012.8359 Q483.3438,1012.5391 482.5469,1012.5391 Q481.6719,1012.5391 481.1875,1012.8984 Q480.7188,1013.2578 480.7188,1013.9141 Q480.7188,1014.4297 481.0625,1014.7734 Q481.4063,1015.1016 482.5,1015.5078 L483.5625,1015.9141 Q485.0469,1016.4609 485.75,1017.3672 Q486.4688,1018.2734 486.4688,1019.6484 Q486.4688,1021.5234 485.3594,1022.4453 Q484.25,1023.3672 482,1023.3672 Q481.0781,1023.3672 480.1563,1023.1484 Q479.2344,1022.9297 478.375,1022.5078 L478.375,1019.9766 Q479.3438,1020.6641 480.2656,1021.0078 Q481.1875,1021.3516 482.0781,1021.3516 Q482.9844,1021.3516 483.4844,1020.9453 Q483.9844,1020.5234 483.9844,1019.7891 Q483.9844,1019.2266 483.6406,1018.8203 Q483.3125,1018.3984 482.6875,1018.1484 L481.4844,1017.6953 Z " fill="#000000"/><text fill="#000000" font-family="sans-serif" font-size="12" font-style="italic" lengthAdjust="spacing" textLength="91.5938" x="494" y="1013.1387">&#171;Value Object&#187;</text><text fill="#000000" font-family="sans-serif" font-size="14" lengthAdjust="spacing" textLength="65.1123" x="507.2407" y="1028.9639">BirthYear</text><line style="stroke:#181818;stroke-width:0.5;" x1="468" x2="585.5938" y1="1037.2656" y2="1037.2656"/><line style="stroke:#181818;stroke-width:0.5;" x1="468" x2="585.5938" y1="1045.2656" y2="1045.2656"/></g><!--class PermissionPolicy--><g class="entity" data-entity="PermissionPolicy" data-source-line="69" data-uid="ent0039" id="entity_PermissionPolicy"><rect fill="#F1F1F1" height="56.2656" rx="2.5" ry="2.5" style="stroke:#181818;stroke-width:0.5;" width="149.0244" x="1419.5" y="417"/><ellipse cx="1434.5" cy="437.1328" fill="#A9DCDF" rx="11" ry="11" style="stroke:#181818;stroke-width:1;"/><path d="M1434.6094,432.4766 L1433.4531,437.5547 L1435.7813,437.5547 L1434.6094,432.4766 Z M1433.125,430.2422 L1436.1094,430.2422 L1439.4688,442.6328 L1437.0156,442.6328 L1436.25,439.5703 L1432.9688,439.5703 L1432.2188,442.6328 L1429.7813,442.6328 L1433.125,430.2422 Z " fill="#000000"/><text fill="#000000" font-family="sans-serif" font-size="12" font-style="italic" lengthAdjust="spacing" textLength="109.1719" x="1452.4263" y="433.1387">&#171;Aggregate Root&#187;</text><text fill="#000000" font-family="sans-serif" font-size="14" font-style="italic" lengthAdjust="spacing" textLength="117.0244" x="1448.5" y="448.9639">PermissionPolicy</text><line style="stroke:#181818;stroke-width:0.5;" x1="1420.5" x2="1567.5244" y1="457.2656" y2="457.2656"/><line style="stroke:#181818;stroke-width:0.5;" x1="1420.5" x2="1567.5244" y1="465.2656" y2="465.2656"/></g><!--class ManagerAssignment--><g class="entity" data-entity="ManagerAssignment" data-source-line="72" data-uid="ent0040" id="entity_ManagerAssignment"><rect fill="#F1F1F1" height="56.2656" rx="2.5" ry="2.5" style="stroke:#181818;stroke-width:0.5;" width="175.7939" x="1413" y="533"/><ellipse cx="1428" cy="553.1328" fill="#ADD1B2" rx="11" ry="11" style="stroke:#181818;stroke-width:1;"/><path d="M1432.1094,559.1328 L1424.3906,559.1328 L1424.3906,546.7422 L1432.1094,546.7422 L1432.1094,548.8984 L1426.8438,548.8984 L1426.8438,551.5703 L1431.6094,551.5703 L1431.6094,553.7266 L1426.8438,553.7266 L1426.8438,556.9766 L1432.1094,556.9766 L1432.1094,559.1328 Z " fill="#000000"/><text fill="#000000" font-family="sans-serif" font-size="12" font-style="italic" lengthAdjust="spacing" textLength="49.8457" x="1488.9741" y="549.1387">&#171;Entity&#187;</text><text fill="#000000" font-family="sans-serif" font-size="14" lengthAdjust="spacing" textLength="143.7939" x="1442" y="564.9639">ManagerAssignment</text><line style="stroke:#181818;stroke-width:0.5;" x1="1414" x2="1587.7939" y1="573.2656" y2="573.2656"/><line style="stroke:#181818;stroke-width:0.5;" x1="1414" x2="1587.7939" y1="581.2656" y2="581.2656"/></g><!--class Role--><g class="entity" data-entity="Role" data-source-line="75" data-uid="ent0041" id="entity_Role"><rect fill="#F1F1F1" height="56.2656" rx="2.5" ry="2.5" style="stroke:#181818;stroke-width:0.5;" width="119.5938" x="1441" y="683"/><ellipse cx="1456" cy="703.1328" fill="#F1F1F1" rx="11" ry="11" style="stroke:#181818;stroke-width:1;"/><path d="M1455.4844,703.6953 Q1453.625,702.9922 1452.9688,702.2266 Q1452.3281,701.4453 1452.3281,700.1328 Q1452.3281,698.4453 1453.4063,697.4766 Q1454.4844,696.5078 1456.3594,696.5078 Q1457.2188,696.5078 1458.0625,696.7109 Q1458.9219,696.8984 1459.7656,697.2891 L1459.7656,699.6797 Q1458.9844,699.1172 1458.1563,698.8359 Q1457.3438,698.5391 1456.5469,698.5391 Q1455.6719,698.5391 1455.1875,698.8984 Q1454.7188,699.2578 1454.7188,699.9141 Q1454.7188,700.4297 1455.0625,700.7734 Q1455.4063,701.1016 1456.5,701.5078 L1457.5625,701.9141 Q1459.0469,702.4609 1459.75,703.3672 Q1460.4688,704.2734 1460.4688,705.6484 Q1460.4688,707.5234 1459.3594,708.4453 Q1458.25,709.3672 1456,709.3672 Q1455.0781,709.3672 1454.1563,709.1484 Q1453.2344,708.9297 1452.375,708.5078 L1452.375,705.9766 Q1453.3438,706.6641 1454.2656,707.0078 Q1455.1875,707.3516 1456.0781,707.3516 Q1456.9844,707.3516 1457.4844,706.9453 Q1457.9844,706.5234 1457.9844,705.7891 Q1457.9844,705.2266 1457.6406,704.8203 Q1457.3125,704.3984 1456.6875,704.1484 L1455.4844,703.6953 Z " fill="#000000"/><text fill="#000000" font-family="sans-serif" font-size="12" font-style="italic" lengthAdjust="spacing" textLength="91.5938" x="1468" y="699.1387">&#171;Value Object&#187;</text><text fill="#000000" font-family="sans-serif" font-size="14" lengthAdjust="spacing" textLength="30.7959" x="1498.3989" y="714.9639">Role</text><line style="stroke:#181818;stroke-width:0.5;" x1="1442" x2="1559.5938" y1="723.2656" y2="723.2656"/><line style="stroke:#181818;stroke-width:0.5;" x1="1442" x2="1559.5938" y1="731.2656" y2="731.2656"/></g><!--class RoleType--><g class="entity" data-entity="RoleType" data-source-line="78" data-uid="ent0042" id="entity_RoleType"><rect fill="#F1F1F1" height="48" rx="2.5" ry="2.5" style="stroke:#181818;stroke-width:0.5;" width="97.1328" x="1412.5" y="885"/><ellipse cx="1427.5" cy="901" fill="#EB937F" rx="11" ry="11" style="stroke:#181818;stroke-width:1;"/><path d="M1431.6094,907 L1423.8906,907 L1423.8906,894.6094 L1431.6094,894.6094 L1431.6094,896.7656 L1426.3438,896.7656 L1426.3438,899.4375 L1431.1094,899.4375 L1431.1094,901.5938 L1426.3438,901.5938 L1426.3438,904.8438 L1431.6094,904.8438 L1431.6094,907 Z " fill="#000000"/><text fill="#000000" font-family="sans-serif" font-size="14" lengthAdjust="spacing" textLength="65.1328" x="1441.5" y="905.8467">RoleType</text><line style="stroke:#181818;stroke-width:0.5;" x1="1413.5" x2="1508.6328" y1="917" y2="917"/><line style="stroke:#181818;stroke-width:0.5;" x1="1413.5" x2="1508.6328" y1="925" y2="925"/></g><!--class Permission--><g class="entity" data-entity="Permission" data-source-line="81" data-uid="ent0043" id="entity_Permission"><rect fill="#F1F1F1" height="48" rx="2.5" ry="2.5" style="stroke:#181818;stroke-width:0.5;" width="108.2549" x="1545" y="885"/><ellipse cx="1560" cy="901" fill="#EB937F" rx="11" ry="11" style="stroke:#181818;stroke-width:1;"/><path d="M1564.1094,907 L1556.3906,907 L1556.3906,894.6094 L1564.1094,894.6094 L1564.1094,896.7656 L1558.8438,896.7656 L1558.8438,899.4375 L1563.6094,899.4375 L1563.6094,901.5938 L1558.8438,901.5938 L1558.8438,904.8438 L1564.1094,904.8438 L1564.1094,907 Z " fill="#000000"/><text fill="#000000" font-family="sans-serif" font-size="14" lengthAdjust="spacing" textLength="76.2549" x="1574" y="905.8467">Permission</text><line style="stroke:#181818;stroke-width:0.5;" x1="1546" x2="1652.2549" y1="917" y2="917"/><line style="stroke:#181818;stroke-width:0.5;" x1="1546" x2="1652.2549" y1="925" y2="925"/></g><!--class Auth--><g class="entity" data-entity="Auth" data-source-line="94" data-uid="ent0050" id="entity_Auth"><rect fill="#F1F1F1" height="56.2656" rx="2.5" ry="2.5" style="stroke:#181818;stroke-width:0.5;" width="137.1719" x="70.5" y="683"/><ellipse cx="85.5" cy="703.1328" fill="#ADD1B2" rx="11" ry="11" style="stroke:#181818;stroke-width:1;"/><path d="M89.6094,709.1328 L81.8906,709.1328 L81.8906,696.7422 L89.6094,696.7422 L89.6094,698.8984 L84.3438,698.8984 L84.3438,701.5703 L89.1094,701.5703 L89.1094,703.7266 L84.3438,703.7266 L84.3438,706.9766 L89.6094,706.9766 L89.6094,709.1328 Z " fill="#000000"/><text fill="#000000" font-family="sans-serif" font-size="12" font-style="italic" lengthAdjust="spacing" textLength="109.1719" x="97.5" y="699.1387">&#171;Aggregate Root&#187;</text><text fill="#000000" font-family="sans-serif" font-size="14" lengthAdjust="spacing" textLength="32.8125" x="135.6797" y="714.9639">Auth</text><line style="stroke:#181818;stroke-width:0.5;" x1="71.5" x2="206.6719" y1="723.2656" y2="723.2656"/><line style="stroke:#181818;stroke-width:0.5;" x1="71.5" x2="206.6719" y1="731.2656" y2="731.2656"/></g><!--class Password--><g class="entity" data-entity="Password" data-source-line="96" data-uid="ent0051" id="entity_Password"><rect fill="#F1F1F1" height="56.2656" rx="2.5" ry="2.5" style="stroke:#181818;stroke-width:0.5;" width="119.5938" x="79" y="881"/><ellipse cx="94" cy="901.1328" fill="#F1F1F1" rx="11" ry="11" style="stroke:#181818;stroke-width:1;"/><path d="M93.4844,901.6953 Q91.625,900.9922 90.9688,900.2266 Q90.3281,899.4453 90.3281,898.1328 Q90.3281,896.4453 91.4063,895.4766 Q92.4844,894.5078 94.3594,894.5078 Q95.2188,894.5078 96.0625,894.7109 Q96.9219,894.8984 97.7656,895.2891 L97.7656,897.6797 Q96.9844,897.1172 96.1563,896.8359 Q95.3438,896.5391 94.5469,896.5391 Q93.6719,896.5391 93.1875,896.8984 Q92.7188,897.2578 92.7188,897.9141 Q92.7188,898.4297 93.0625,898.7734 Q93.4063,899.1016 94.5,899.5078 L95.5625,899.9141 Q97.0469,900.4609 97.75,901.3672 Q98.4688,902.2734 98.4688,903.6484 Q98.4688,905.5234 97.3594,906.4453 Q96.25,907.3672 94,907.3672 Q93.0781,907.3672 92.1563,907.1484 Q91.2344,906.9297 90.375,906.5078 L90.375,903.9766 Q91.3438,904.6641 92.2656,905.0078 Q93.1875,905.3516 94.0781,905.3516 Q94.9844,905.3516 95.4844,904.9453 Q95.9844,904.5234 95.9844,903.7891 Q95.9844,903.2266 95.6406,902.8203 Q95.3125,902.3984 94.6875,902.1484 L93.4844,901.6953 Z " fill="#000000"/><text fill="#000000" font-family="sans-serif" font-size="12" font-style="italic" lengthAdjust="spacing" textLength="91.5938" x="106" y="897.1387">&#171;Value Object&#187;</text><text fill="#000000" font-family="sans-serif" font-size="14" lengthAdjust="spacing" textLength="66.2676" x="118.6631" y="912.9639">Password</text><line style="stroke:#181818;stroke-width:0.5;" x1="80" x2="197.5938" y1="921.2656" y2="921.2656"/><line style="stroke:#181818;stroke-width:0.5;" x1="80" x2="197.5938" y1="929.2656" y2="929.2656"/></g><!--link BoardName to Board--><g class="link" data-entity-1="BoardName" data-entity-2="Board" data-source-line="11" data-uid="lnk8" id="link_BoardName_Board"><path codeLine="11" d="M1230.52,183.02 C1218.17,201.06 1201.99,224.7 1189.62,242.78" fill="none" id="BoardName-Board" style="stroke:#181818;stroke-width:1;"/></g><!--link Creator to Board--><g class="link" data-entity-1="Creator" data-entity-2="Board" data-source-line="12" data-uid="lnk9" id="link_Creator_Board"><path codeLine="12" d="M1112.25,183.02 C1124.43,201.06 1140.4,224.7 1152.62,242.78" fill="none" id="Creator-Board" style="stroke:#181818;stroke-width:1;"/></g><!--link Post to Tags--><g class="link" data-entity-1="Post" data-entity-2="Tags" data-source-line="27" data-uid="lnk16" id="link_Post_Tags"><path codeLine="27" d="M483.4,473.02 C460.21,491.12 429.79,514.87 406.6,532.98" fill="none" id="Post-Tags" style="stroke:#181818;stroke-width:1;"/></g><!--link Tags to HashTag--><g class="link" data-entity-1="Tags" data-entity-2="HashTag" data-source-line="28" data-uid="lnk17" id="link_Tags_HashTag"><path codeLine="28" d="M374.38,589.15 C376.72,615.77 379.7452,650.153 382.0852,676.803" fill="none" id="Tags-to-HashTag" style="stroke:#181818;stroke-width:1;"/><polygon fill="#181818" points="382.61,682.78,385.8075,673.4646,382.1727,677.7992,377.8381,674.1644,382.61,682.78" style="stroke:#181818;stroke-width:1;"/><text fill="#000000" font-family="sans-serif" font-size="13" lengthAdjust="spacing" textLength="8.271" x="366.0837" y="609.4456">1</text><text fill="#000000" font-family="sans-serif" font-size="13" lengthAdjust="spacing" textLength="9.7246" x="372.1502" y="672.0186">N</text></g><!--link Post to Likes--><g class="link" data-entity-1="Post" data-entity-2="Likes" data-source-line="34" data-uid="lnk20" id="link_Post_Likes"><path codeLine="34" d="M520.13,473.02 C521.56,491.06 523.42,514.7 524.85,532.78" fill="none" id="Post-Likes" style="stroke:#181818;stroke-width:1;"/></g><!--link Likes to PostLike--><g class="link" data-entity-1="Likes" data-entity-2="PostLike" data-source-line="35" data-uid="lnk21" id="link_Likes_PostLike"><path codeLine="35" d="M525.53,589.15 C524.09,615.77 522.2337,650.1387 520.7937,676.7887" fill="none" id="Likes-to-PostLike" style="stroke:#181818;stroke-width:1;"/><polygon fill="#181818" points="520.47,682.78,524.9498,674.0089,520.7398,677.7873,516.9614,673.5773,520.47,682.78" style="stroke:#181818;stroke-width:1;"/><text fill="#000000" font-family="sans-serif" font-size="13" lengthAdjust="spacing" textLength="8.271" x="516.3434" y="609.4456">1</text><text fill="#000000" font-family="sans-serif" font-size="13" lengthAdjust="spacing" textLength="9.7246" x="510.8644" y="672.0186">N</text></g><!--link GuestPost to Post--><g class="link" data-entity-1="GuestPost" data-entity-2="Post" data-source-line="47" data-uid="lnk26" id="link_GuestPost_Post"><path codeLine="47" d="M518,299.25 C518,331.46 518,366.72 518,398.87" fill="none" id="GuestPost-to-Post" style="stroke:#181818;stroke-width:1;"/><polygon fill="none" points="518,416.87,524,398.87,512,398.87,518,416.87" style="stroke:#181818;stroke-width:1;"/></g><!--link MemberPost to Post--><g class="link" data-entity-1="MemberPost" data-entity-2="Post" data-source-line="48" data-uid="lnk27" id="link_MemberPost_Post"><path codeLine="48" d="M395.13,299.25 C422.47,331.46 456.0316,370.9972 483.3216,403.1472" fill="none" id="MemberPost-to-Post" style="stroke:#181818;stroke-width:1;"/><polygon fill="none" points="494.97,416.87,487.8959,399.2644,478.7474,407.03,494.97,416.87" style="stroke:#181818;stroke-width:1;"/></g><!--link GuestComment to Comment--><g class="link" data-entity-1="GuestComment" data-entity-2="Comment" data-source-line="49" data-uid="lnk28" id="link_GuestComment_Comment"><path codeLine="49" d="M863.16,183.02 C833.77,201.12 810.5529,215.4249 781.1729,233.5349" fill="none" id="GuestComment-to-Comment" style="stroke:#181818;stroke-width:1;"/><polygon fill="none" points="765.85,242.98,784.3212,238.6425,778.0245,228.4273,765.85,242.98" style="stroke:#181818;stroke-width:1;"/></g><!--link MemberComment to Comment--><g class="link" data-entity-1="MemberComment" data-entity-2="Comment" data-source-line="50" data-uid="lnk29" id="link_MemberComment_Comment"><path codeLine="50" d="M722,183.02 C722,201.06 722,206.7 722,224.78" fill="none" id="MemberComment-to-Comment" style="stroke:#181818;stroke-width:1;"/><polygon fill="none" points="722,242.78,728,224.78,716,224.78,722,242.78" style="stroke:#181818;stroke-width:1;"/></g><!--link Member to NickName--><g class="link" data-entity-1="Member" data-entity-2="NickName" data-source-line="62" data-uid="lnk35" id="link_Member_NickName"><path codeLine="62" d="M378.87,937.02 C377.44,955.06 375.58,978.7 374.15,996.78" fill="none" id="Member-NickName" style="stroke:#181818;stroke-width:1;"/></g><!--link Member to BirthYear--><g class="link" data-entity-1="Member" data-entity-2="BirthYear" data-source-line="63" data-uid="lnk36" id="link_Member_BirthYear"><path codeLine="63" d="M415.6,937.02 C438.79,955.12 469.21,978.87 492.4,996.98" fill="none" id="Member-BirthYear" style="stroke:#181818;stroke-width:1;"/></g><!--link Role to Permission--><g class="link" data-entity-1="Role" data-entity-2="Permission" data-source-line="84" data-uid="lnk44" id="link_Role_Permission"><path codeLine="84" d="M1514.63,739.25 C1534.03,778.07 1566.6073,843.2131 1584.7873,879.5831" fill="none" id="Role-to-Permission" style="stroke:#181818;stroke-width:1;"/><polygon fill="#181818" points="1587.47,884.95,1587.0239,875.1113,1585.2344,880.4776,1579.8681,878.6882,1587.47,884.95" style="stroke:#181818;stroke-width:1;"/><text fill="#000000" font-family="sans-serif" font-size="13" lengthAdjust="spacing" textLength="8.271" x="1508.8106" y="759.1227">1</text><text fill="#000000" font-family="sans-serif" font-size="13" lengthAdjust="spacing" textLength="9.7246" x="1574.4225" y="873.9492">N</text></g><!--link PermissionPolicy to ManagerAssignment--><g class="link" data-entity-1="PermissionPolicy" data-entity-2="ManagerAssignment" data-source-line="86" data-uid="lnk45" id="link_PermissionPolicy_ManagerAssignment"><path codeLine="86" d="M1495.66,473.02 C1496.77,491.06 1498.22,514.7 1499.33,532.78" fill="none" id="PermissionPolicy-ManagerAssignment" style="stroke:#181818;stroke-width:1;"/><text fill="#000000" font-family="sans-serif" font-size="13" lengthAdjust="spacing" textLength="8.271" x="1487.1474" y="493.2855">1</text><text fill="#000000" font-family="sans-serif" font-size="13" lengthAdjust="spacing" textLength="9.7246" x="1489.0821" y="522.0186">N</text></g><!--link ManagerAssignment to Role--><g class="link" data-entity-1="ManagerAssignment" data-entity-2="Role" data-source-line="87" data-uid="lnk46" id="link_ManagerAssignment_Role"><path codeLine="87" d="M1501,589.15 C1501,615.77 1501,656.13 1501,682.78" fill="none" id="ManagerAssignment-Role" style="stroke:#181818;stroke-width:1;"/><text fill="#000000" font-family="sans-serif" font-size="13" lengthAdjust="spacing" textLength="9.7246" x="1491.067" y="609.4456">N</text><text fill="#000000" font-family="sans-serif" font-size="13" lengthAdjust="spacing" textLength="8.271" x="1492.1991" y="672.0186">1</text></g><!--link Role to RoleType--><g class="link" data-entity-1="Role" data-entity-2="RoleType" data-source-line="88" data-uid="lnk47" id="link_Role_RoleType"><path codeLine="88" d="M1495.44,739.25 C1487.52,778.07 1473.13,848.58 1465.7,884.95" fill="none" id="Role-RoleType" style="stroke:#181818;stroke-width:1;"/></g><!--link Auth to Password--><g class="link" data-entity-1="Auth" data-entity-2="Password" data-source-line="99" data-uid="lnk52" id="link_Auth_Password"><path codeLine="99" d="M139,739.25 C139,776.7 139,843.65 139,880.98" fill="none" id="Auth-Password" style="stroke:#181818;stroke-width:1;"/></g><!--reverse link Board to Post--><g class="link" data-entity-1="Board" data-entity-2="Post" data-source-line="103" data-uid="lnk53" id="link_Board_Post"><path codeLine="103" d="M1096.45,294.0499 C1063.74,303.5899 1029.8,313.29 994,323 C849.57,362.15 679.46,404.49 586.76,427.25" fill="none" id="Board-backto-Post" style="stroke:#181818;stroke-width:1;stroke-dasharray:7.0,7.0;"/><polygon fill="#181818" points="1102.21,292.37,1092.45,291.0499,1097.41,293.7699,1094.6899,298.7299,1102.21,292.37" style="stroke:#181818;stroke-width:1;"/></g><!--link MemberPost to Member--><g class="link" data-entity-1="MemberPost" data-entity-2="Member" data-source-line="105" data-uid="lnk54" id="link_MemberPost_Member"><path codeLine="105" d="M361.13,299.23 C343.08,346.07 307.66,445.33 295,533 C283.5,612.62 317.9,776.82 321,787 C331.31,820.87 347.3137,851.6933 361.1837,875.5433" fill="none" id="MemberPost-to-Member" style="stroke:#181818;stroke-width:1;stroke-dasharray:7.0,7.0;"/><polygon fill="#181818" points="364.2,880.73,363.1333,870.9391,361.6864,876.4078,356.2177,874.9608,364.2,880.73" style="stroke:#181818;stroke-width:1;"/></g><!--link PostLike to Member--><g class="link" data-entity-1="PostLike" data-entity-2="Member" data-source-line="106" data-uid="lnk55" id="link_PostLike_Member"><path codeLine="106" d="M499.81,739.25 C473.45,776.7 429.753,838.7432 403.483,876.0732" fill="none" id="PostLike-to-Member" style="stroke:#181818;stroke-width:1;stroke-dasharray:7.0,7.0;"/><polygon fill="#181818" points="400.03,880.98,408.4807,875.9218,402.9075,876.891,401.9383,871.3178,400.03,880.98" style="stroke:#181818;stroke-width:1;"/></g><!--link MemberComment to Member--><g class="link" data-entity-1="MemberComment" data-entity-2="Member" data-source-line="107" data-uid="lnk56" id="link_MemberComment_Member"><path codeLine="107" d="M642.55,158.67 C525.8,163.41 319.17,175.22 296,200 C117.8,390.54 209.87,540.74 296,787 C308.54,822.86 331.0438,853.1803 351.1338,876.1903" fill="none" id="MemberComment-to-Member" style="stroke:#181818;stroke-width:1;stroke-dasharray:7.0,7.0;"/><polygon fill="#181818" points="355.08,880.71,352.1739,871.2997,351.7915,876.9436,346.1476,876.5612,355.08,880.71" style="stroke:#181818;stroke-width:1;"/></g><!--link Comment to Post--><g class="link" data-entity-1="Comment" data-entity-2="Post" data-source-line="108" data-uid="lnk57" id="link_Comment_Post"><path codeLine="108" d="M689.68,299.25 C651.48,331.46 592.8976,380.8529 554.7576,413.0029" fill="none" id="Comment-to-Post" style="stroke:#181818;stroke-width:1;stroke-dasharray:7.0,7.0;"/><polygon fill="#181818" points="550.17,416.87,559.6294,414.1278,553.993,413.6474,554.4733,408.011,550.17,416.87" style="stroke:#181818;stroke-width:1;"/></g><!--link Comment to Comment--><g class="link" data-entity-1="Comment" data-entity-2="Comment" data-source-line="109" data-uid="lnk58" id="link_Comment_Comment"><path codeLine="109" d="M790.68,249.33 C810.34,250.18 825.5,257.41 825.5,271 C825.5,284.59 816.3344,291.5608 796.6744,292.4108" fill="none" id="Comment-to-Comment" style="stroke:#181818;stroke-width:1;"/><polygon fill="#181818" points="790.68,292.67,799.8444,296.2775,795.6753,292.454,799.4988,288.285,790.68,292.67" style="stroke:#181818;stroke-width:1;"/></g><!--link Board to PermissionPolicy--><g class="link" data-entity-1="Board" data-entity-2="PermissionPolicy" data-source-line="110" data-uid="lnk59" id="link_Board_PermissionPolicy"><path codeLine="110" d="M1221.82,299.06 C1282.32,331.28 1377.4338,381.9303 1437.9138,414.1303" fill="none" id="Board-to-PermissionPolicy" style="stroke:#181818;stroke-width:1;stroke-dasharray:7.0,7.0;"/><polygon fill="#181818" points="1443.21,416.95,1437.1456,409.1897,1438.7965,414.6002,1433.386,416.2512,1443.21,416.95" style="stroke:#181818;stroke-width:1;"/></g><!--link Auth to Member--><g class="link" data-entity-1="Auth" data-entity-2="Member" data-source-line="112" data-uid="lnk60" id="link_Auth_Member"><path codeLine="112" d="M172.39,739.05 C218.55,776.43 296.7178,839.7332 342.8978,877.1432" fill="none" id="Auth-to-Member" style="stroke:#181818;stroke-width:1;stroke-dasharray:7.0,7.0;"/><polygon fill="#181818" points="347.56,880.92,343.0846,872.1467,343.6749,877.7727,338.0489,878.3629,347.56,880.92" style="stroke:#181818;stroke-width:1;"/></g><!--SRC=[dLRBZjCm5DtdAwniPjLAx4UHEXK29APJZKP8BDrWfQ5n73cEe8AkO3TRPeDcnJSWmJUXpZ_WPsB7dZHfTiwvvpwERqzJmNG7CmJYb9GCVMO0moe6NoB0dyfW6mBf1w0ZOWNw0HOW7hYf6OKf0rUIVNcvo3AACiWGk2M49OaRVd1EdDeOwWfYnEdlOD4WSBFvYD9nv2L5a14wYTeLdCtKmO5DIWyyHBue5QdPSvgiEJPHahI0TGrUDQXcclq6LyLIl1r3l4PuW-WqviNJm-_Z_UFJjyT_V_uw22fPplRWDQotTp3Z6L_A5wFkXHFgIPSYc-QI2w83o4pnYvY32OXNiUd77UBuw_xuyFtuyqTe0f7xRRv3qqOGZFDca4m7KRdiAKnFWzkL4epv3Cyjs5B1v-zOb-2CDPj4jgRhjdis-vf88LhCMc0VT5gMi3xqwC6GoEgYrHVB-27JKn7E1RJogsedrBVrqukrojFTIRyByAvoohRl4QIZYRf3lfAcPX1i4qTk4YbNPtM8uhokSrAsWe60ObsO3Rl6s8QiIP6d-u24eBz8eT_rDInvIRhWgR9IxwBvWGydq8hUaiA_XLEb6onvT_iAZGZjPXqEbgqu1j4ItK1FF4MI74yGX-dB9JY2oZE8-dv373IpXdR3kdROiEtWNeY0df7fQrm8weWL25pWcflE9oA_F8PjsZdAWdmqmmwFfZzfvdFbGb7Fd-RpH1yZu_toFwRtthMa7cY_Rgskio_Nu5G_ChIt0getEPLL83hy1m00]--></g></svg>