<svg xmlns="http://www.w3.org/2000/svg" xmlns:xlink="http://www.w3.org/1999/xlink" contentStyleType="text/css" data-diagram-type="CLASS" height="1090px" preserveAspectRatio="none" style="width:1482px;height:1090px;background:#FFFFFF;" version="1.1" viewBox="0 0 1482 1090" width="1482px" zoomAndPan="magnify"><defs/><g><!--cluster context map--><g class="cluster" data-entity="context map" data-source-line="2" data-uid="ent0002" id="cluster_context map"><path d="M8.5,6 L108.2246,6 A3.75,3.75 0 0 1 110.7246,8.5 L117.7246,28.2969 L1472.5,28.2969 A2.5,2.5 0 0 1 1475,30.7969 L1475,1080.5 A2.5,2.5 0 0 1 1472.5,1083 L8.5,1083 A2.5,2.5 0 0 1 6,1080.5 L6,8.5 A2.5,2.5 0 0 1 8.5,6" fill="none" style="stroke:#000000;stroke-width:1.5;"/><line style="stroke:#000000;stroke-width:1.5;" x1="6" x2="117.7246" y1="28.2969" y2="28.2969"/><text fill="#000000" font-family="sans-serif" font-size="14" font-weight="bold" lengthAdjust="spacing" textLength="98.7246" x="10" y="20.9951">context map</text></g><!--cluster board context--><g class="cluster" data-entity="board context" data-source-line="3" data-uid="ent0003" id="cluster_board context"><path d="M376.5,49 L488.1807,49 A3.75,3.75 0 0 1 490.6807,51.5 L497.6807,71.2969 L1448.5,71.2969 A2.5,2.5 0 0 1 1451,73.7969 L1451,742.5 A2.5,2.5 0 0 1 1448.5,745 L376.5,745 A2.5,2.5 0 0 1 374,742.5 L374,51.5 A2.5,2.5 0 0 1 376.5,49" fill="none" style="stroke:#000000;stroke-width:1.5;"/><line style="stroke:#000000;stroke-width:1.5;" x1="374" x2="497.6807" y1="71.2969" y2="71.2969"/><text fill="#000000" font-family="sans-serif" font-size="14" font-weight="bold" lengthAdjust="spacing" textLength="110.6807" x="378" y="63.9951">board context</text></g><!--cluster board--><g class="cluster" data-entity="board" data-source-line="4" data-uid="ent0004" id="cluster_board"><path d="M400.5,92 L447.5127,92 A3.75,3.75 0 0 1 450.0127,94.5 L457.0127,114.2969 L702.5,114.2969 A2.5,2.5 0 0 1 705,116.7969 L705,312.5 A2.5,2.5 0 0 1 702.5,315 L400.5,315 A2.5,2.5 0 0 1 398,312.5 L398,94.5 A2.5,2.5 0 0 1 400.5,92" fill="none" style="stroke:#000000;stroke-width:1.5;"/><line style="stroke:#000000;stroke-width:1.5;" x1="398" x2="457.0127" y1="114.2969" y2="114.2969"/><text fill="#000000" font-family="sans-serif" font-size="14" font-weight="bold" lengthAdjust="spacing" textLength="46.0127" x="402" y="106.9951">board</text></g><!--cluster post--><g class="cluster" data-entity="post" data-source-line="15" data-uid="ent0010" id="cluster_post"><path d="M731.5,208 L767.165,208 A3.75,3.75 0 0 1 769.665,210.5 L776.665,230.2969 L1033.5,230.2969 A2.5,2.5 0 0 1 1036,232.7969 L1036,718.5 A2.5,2.5 0 0 1 1033.5,721 L731.5,721 A2.5,2.5 0 0 1 729,718.5 L729,210.5 A2.5,2.5 0 0 1 731.5,208" fill="none" style="stroke:#000000;stroke-width:1.5;"/><line style="stroke:#000000;stroke-width:1.5;" x1="729" x2="776.665" y1="230.2969" y2="230.2969"/><text fill="#000000" font-family="sans-serif" font-size="14" font-weight="bold" lengthAdjust="spacing" textLength="34.665" x="733" y="222.9951">post</text></g><!--cluster comment--><g class="cluster" data-entity="comment" data-source-line="38" data-uid="ent0022" id="cluster_comment"><path d="M1062.5,92 L1136.7471,92 A3.75,3.75 0 0 1 1139.2471,94.5 L1146.2471,114.2969 L1424.5,114.2969 A2.5,2.5 0 0 1 1427,116.7969 L1427,312.5 A2.5,2.5 0 0 1 1424.5,315 L1062.5,315 A2.5,2.5 0 0 1 1060,312.5 L1060,94.5 A2.5,2.5 0 0 1 1062.5,92" fill="none" style="stroke:#000000;stroke-width:1.5;"/><line style="stroke:#000000;stroke-width:1.5;" x1="1060" x2="1146.2471" y1="114.2969" y2="114.2969"/><text fill="#000000" font-family="sans-serif" font-size="14" font-weight="bold" lengthAdjust="spacing" textLength="73.2471" x="1064" y="106.9951">comment</text></g><!--cluster member context--><g class="cluster" data-entity="member context" data-source-line="54" data-uid="ent0030" id="cluster_member context"><path d="M785.5,769 L916.2598,769 A3.75,3.75 0 0 1 918.7598,771.5 L925.7598,791.2969 L1135.5,791.2969 A2.5,2.5 0 0 1 1138,793.7969 L1138,1056.5 A2.5,2.5 0 0 1 1135.5,1059 L785.5,1059 A2.5,2.5 0 0 1 783,1056.5 L783,771.5 A2.5,2.5 0 0 1 785.5,769" fill="none" style="stroke:#000000;stroke-width:1.5;"/><line style="stroke:#000000;stroke-width:1.5;" x1="783" x2="925.7598" y1="791.2969" y2="791.2969"/><text fill="#000000" font-family="sans-serif" font-size="14" font-weight="bold" lengthAdjust="spacing" textLength="129.7598" x="787" y="783.9951">member context</text></g><!--cluster member--><g class="cluster" data-entity="member" data-source-line="55" data-uid="ent0031" id="cluster_member"><path d="M809.5,812 L875.5918,812 A3.75,3.75 0 0 1 878.0918,814.5 L885.0918,834.2969 L1111.5,834.2969 A2.5,2.5 0 0 1 1114,836.7969 L1114,1032.5 A2.5,2.5 0 0 1 1111.5,1035 L809.5,1035 A2.5,2.5 0 0 1 807,1032.5 L807,814.5 A2.5,2.5 0 0 1 809.5,812" fill="none" style="stroke:#000000;stroke-width:1.5;"/><line style="stroke:#000000;stroke-width:1.5;" x1="807" x2="885.0918" y1="834.2969" y2="834.2969"/><text fill="#000000" font-family="sans-serif" font-size="14" font-weight="bold" lengthAdjust="spacing" textLength="65.0918" x="811" y="826.9951">member</text></g><!--cluster permission context--><g class="cluster" data-entity="permission context" data-source-line="67" data-uid="ent0037" id="cluster_permission context"><path d="M32.5,339 L185.0254,339 A3.75,3.75 0 0 1 187.5254,341.5 L194.5254,361.2969 L347.5,361.2969 A2.5,2.5 0 0 1 350,363.7969 L350,936.5 A2.5,2.5 0 0 1 347.5,939 L32.5,939 A2.5,2.5 0 0 1 30,936.5 L30,341.5 A2.5,2.5 0 0 1 32.5,339" fill="none" style="stroke:#000000;stroke-width:1.5;"/><line style="stroke:#000000;stroke-width:1.5;" x1="30" x2="194.5254" y1="361.2969" y2="361.2969"/><text fill="#000000" font-family="sans-serif" font-size="14" font-weight="bold" lengthAdjust="spacing" textLength="151.5254" x="34" y="353.9951">permission context</text></g><!--cluster permission--><g class="cluster" data-entity="permission" data-source-line="68" data-uid="ent0038" id="cluster_permission"><path d="M56.5,382 L144.3574,382 A3.75,3.75 0 0 1 146.8574,384.5 L153.8574,404.2969 L323.5,404.2969 A2.5,2.5 0 0 1 326,406.7969 L326,912.5 A2.5,2.5 0 0 1 323.5,915 L56.5,915 A2.5,2.5 0 0 1 54,912.5 L54,384.5 A2.5,2.5 0 0 1 56.5,382" fill="none" style="stroke:#000000;stroke-width:1.5;"/><line style="stroke:#000000;stroke-width:1.5;" x1="54" x2="153.8574" y1="404.2969" y2="404.2969"/><text fill="#000000" font-family="sans-serif" font-size="14" font-weight="bold" lengthAdjust="spacing" textLength="86.8574" x="58" y="396.9951">permission</text></g><!--class Board--><g class="entity" data-entity="Board" data-source-line="5" data-uid="ent0005" id="entity_Board"><rect fill="#F1F1F1" height="56.2656" rx="2.5" ry="2.5" style="stroke:#181818;stroke-width:0.5;" width="137.1719" x="482.5" y="243"/><ellipse cx="497.5" cy="263.1328" fill="#A9DCDF" rx="11" ry="11" style="stroke:#181818;stroke-width:1;"/><path d="M497.6094,258.4766 L496.4531,263.5547 L498.7813,263.5547 L497.6094,258.4766 Z M496.125,256.2422 L499.1094,256.2422 L502.4688,268.6328 L500.0156,268.6328 L499.25,265.5703 L495.9688,265.5703 L495.2188,268.6328 L492.7813,268.6328 L496.125,256.2422 Z " fill="#000000"/><text fill="#000000" font-family="sans-serif" font-size="12" font-style="italic" lengthAdjust="spacing" textLength="109.1719" x="509.5" y="259.1387">&#171;Aggregate Root&#187;</text><text fill="#000000" font-family="sans-serif" font-size="14" font-style="italic" lengthAdjust="spacing" textLength="41.3916" x="543.3901" y="274.9639">Board</text><line style="stroke:#181818;stroke-width:0.5;" x1="483.5" x2="618.6719" y1="283.2656" y2="283.2656"/><line style="stroke:#181818;stroke-width:0.5;" x1="483.5" x2="618.6719" y1="291.2656" y2="291.2656"/></g><!--class BoardName--><g class="entity" data-entity="BoardName" data-source-line="7" data-uid="ent0006" id="entity_BoardName"><rect fill="#F1F1F1" height="56.2656" rx="2.5" ry="2.5" style="stroke:#181818;stroke-width:0.5;" width="119.5938" x="569" y="127"/><ellipse cx="584" cy="147.1328" fill="#F1F1F1" rx="11" ry="11" style="stroke:#181818;stroke-width:1;"/><path d="M583.4844,147.6953 Q581.625,146.9922 580.9688,146.2266 Q580.3281,145.4453 580.3281,144.1328 Q580.3281,142.4453 581.4063,141.4766 Q582.4844,140.5078 584.3594,140.5078 Q585.2188,140.5078 586.0625,140.7109 Q586.9219,140.8984 587.7656,141.2891 L587.7656,143.6797 Q586.9844,143.1172 586.1563,142.8359 Q585.3438,142.5391 584.5469,142.5391 Q583.6719,142.5391 583.1875,142.8984 Q582.7188,143.2578 582.7188,143.9141 Q582.7188,144.4297 583.0625,144.7734 Q583.4063,145.1016 584.5,145.5078 L585.5625,145.9141 Q587.0469,146.4609 587.75,147.3672 Q588.4688,148.2734 588.4688,149.6484 Q588.4688,151.5234 587.3594,152.4453 Q586.25,153.3672 584,153.3672 Q583.0781,153.3672 582.1563,153.1484 Q581.2344,152.9297 580.375,152.5078 L580.375,149.9766 Q581.3438,150.6641 582.2656,151.0078 Q583.1875,151.3516 584.0781,151.3516 Q584.9844,151.3516 585.4844,150.9453 Q585.9844,150.5234 585.9844,149.7891 Q585.9844,149.2266 585.6406,148.8203 Q585.3125,148.3984 584.6875,148.1484 L583.4844,147.6953 Z " fill="#000000"/><text fill="#000000" font-family="sans-serif" font-size="12" font-style="italic" lengthAdjust="spacing" textLength="91.5938" x="596" y="143.1387">&#171;Value Object&#187;</text><text fill="#000000" font-family="sans-serif" font-size="14" lengthAdjust="spacing" textLength="82.6943" x="600.4497" y="158.9639">BoardName</text><line style="stroke:#181818;stroke-width:0.5;" x1="570" x2="687.5938" y1="167.2656" y2="167.2656"/><line style="stroke:#181818;stroke-width:0.5;" x1="570" x2="687.5938" y1="175.2656" y2="175.2656"/></g><!--class Creator--><g class="entity" data-entity="Creator" data-source-line="9" data-uid="ent0007" id="entity_Creator"><rect fill="#F1F1F1" height="56.2656" rx="2.5" ry="2.5" style="stroke:#181818;stroke-width:0.5;" width="119.5938" x="414" y="127"/><ellipse cx="429" cy="147.1328" fill="#F1F1F1" rx="11" ry="11" style="stroke:#181818;stroke-width:1;"/><path d="M428.4844,147.6953 Q426.625,146.9922 425.9688,146.2266 Q425.3281,145.4453 425.3281,144.1328 Q425.3281,142.4453 426.4063,141.4766 Q427.4844,140.5078 429.3594,140.5078 Q430.2188,140.5078 431.0625,140.7109 Q431.9219,140.8984 432.7656,141.2891 L432.7656,143.6797 Q431.9844,143.1172 431.1563,142.8359 Q430.3438,142.5391 429.5469,142.5391 Q428.6719,142.5391 428.1875,142.8984 Q427.7188,143.2578 427.7188,143.9141 Q427.7188,144.4297 428.0625,144.7734 Q428.4063,145.1016 429.5,145.5078 L430.5625,145.9141 Q432.0469,146.4609 432.75,147.3672 Q433.4688,148.2734 433.4688,149.6484 Q433.4688,151.5234 432.3594,152.4453 Q431.25,153.3672 429,153.3672 Q428.0781,153.3672 427.1563,153.1484 Q426.2344,152.9297 425.375,152.5078 L425.375,149.9766 Q426.3438,150.6641 427.2656,151.0078 Q428.1875,151.3516 429.0781,151.3516 Q429.9844,151.3516 430.4844,150.9453 Q430.9844,150.5234 430.9844,149.7891 Q430.9844,149.2266 430.6406,148.8203 Q430.3125,148.3984 429.6875,148.1484 L428.4844,147.6953 Z " fill="#000000"/><text fill="#000000" font-family="sans-serif" font-size="12" font-style="italic" lengthAdjust="spacing" textLength="91.5938" x="441" y="143.1387">&#171;Value Object&#187;</text><text fill="#000000" font-family="sans-serif" font-size="14" lengthAdjust="spacing" textLength="52.5342" x="460.5298" y="158.9639">Creator</text><line style="stroke:#181818;stroke-width:0.5;" x1="415" x2="532.5938" y1="167.2656" y2="167.2656"/><line style="stroke:#181818;stroke-width:0.5;" x1="415" x2="532.5938" y1="175.2656" y2="175.2656"/></g><!--class Post--><g class="entity" data-entity="Post" data-source-line="16" data-uid="ent0011" id="entity_Post"><rect fill="#F1F1F1" height="56.2656" rx="2.5" ry="2.5" style="stroke:#181818;stroke-width:0.5;" width="137.1719" x="813.5" y="417"/><ellipse cx="828.5" cy="437.1328" fill="#A9DCDF" rx="11" ry="11" style="stroke:#181818;stroke-width:1;"/><path d="M828.6094,432.4766 L827.4531,437.5547 L829.7813,437.5547 L828.6094,432.4766 Z M827.125,430.2422 L830.1094,430.2422 L833.4688,442.6328 L831.0156,442.6328 L830.25,439.5703 L826.9688,439.5703 L826.2188,442.6328 L823.7813,442.6328 L827.125,430.2422 Z " fill="#000000"/><text fill="#000000" font-family="sans-serif" font-size="12" font-style="italic" lengthAdjust="spacing" textLength="109.1719" x="840.5" y="433.1387">&#171;Aggregate Root&#187;</text><text fill="#000000" font-family="sans-serif" font-size="14" font-style="italic" lengthAdjust="spacing" textLength="29.791" x="880.1904" y="448.9639">Post</text><line style="stroke:#181818;stroke-width:0.5;" x1="814.5" x2="949.6719" y1="457.2656" y2="457.2656"/><line style="stroke:#181818;stroke-width:0.5;" x1="814.5" x2="949.6719" y1="465.2656" y2="465.2656"/></g><!--class GuestPost--><g class="entity" data-entity="GuestPost" data-source-line="18" data-uid="ent0012" id="entity_GuestPost"><rect fill="#F1F1F1" height="56.2656" rx="2.5" ry="2.5" style="stroke:#181818;stroke-width:0.5;" width="102.9092" x="899.5" y="243"/><ellipse cx="914.5" cy="263.1328" fill="#ADD1B2" rx="11" ry="11" style="stroke:#181818;stroke-width:1;"/><path d="M917.4688,268.7734 Q916.8906,269.0703 916.25,269.2109 Q915.6094,269.3672 914.9063,269.3672 Q912.4063,269.3672 911.0781,267.7266 Q909.7656,266.0703 909.7656,262.9453 Q909.7656,259.8203 911.0781,258.1641 Q912.4063,256.5078 914.9063,256.5078 Q915.6094,256.5078 916.25,256.6641 Q916.9063,256.8203 917.4688,257.1172 L917.4688,259.8359 Q916.8438,259.2578 916.25,258.9922 Q915.6563,258.7109 915.0313,258.7109 Q913.6875,258.7109 913,259.7891 Q912.3125,260.8516 912.3125,262.9453 Q912.3125,265.0391 913,266.1172 Q913.6875,267.1797 915.0313,267.1797 Q915.6563,267.1797 916.25,266.9141 Q916.8438,266.6328 917.4688,266.0547 L917.4688,268.7734 Z " fill="#000000"/><text fill="#000000" font-family="sans-serif" font-size="12" font-style="italic" lengthAdjust="spacing" textLength="72.5625" x="927.6733" y="259.1387">&#171;ImplClass&#187;</text><text fill="#000000" font-family="sans-serif" font-size="14" lengthAdjust="spacing" textLength="70.9092" x="928.5" y="274.9639">GuestPost</text><line style="stroke:#181818;stroke-width:0.5;" x1="900.5" x2="1001.4092" y1="283.2656" y2="283.2656"/><line style="stroke:#181818;stroke-width:0.5;" x1="900.5" x2="1001.4092" y1="291.2656" y2="291.2656"/></g><!--class MemberPost--><g class="entity" data-entity="MemberPost" data-source-line="20" data-uid="ent0013" id="entity_MemberPost"><rect fill="#F1F1F1" height="56.2656" rx="2.5" ry="2.5" style="stroke:#181818;stroke-width:0.5;" width="119.377" x="745.5" y="243"/><ellipse cx="760.5" cy="263.1328" fill="#ADD1B2" rx="11" ry="11" style="stroke:#181818;stroke-width:1;"/><path d="M763.4688,268.7734 Q762.8906,269.0703 762.25,269.2109 Q761.6094,269.3672 760.9063,269.3672 Q758.4063,269.3672 757.0781,267.7266 Q755.7656,266.0703 755.7656,262.9453 Q755.7656,259.8203 757.0781,258.1641 Q758.4063,256.5078 760.9063,256.5078 Q761.6094,256.5078 762.25,256.6641 Q762.9063,256.8203 763.4688,257.1172 L763.4688,259.8359 Q762.8438,259.2578 762.25,258.9922 Q761.6563,258.7109 761.0313,258.7109 Q759.6875,258.7109 759,259.7891 Q758.3125,260.8516 758.3125,262.9453 Q758.3125,265.0391 759,266.1172 Q759.6875,267.1797 761.0313,267.1797 Q761.6563,267.1797 762.25,266.9141 Q762.8438,266.6328 763.4688,266.0547 L763.4688,268.7734 Z " fill="#000000"/><text fill="#000000" font-family="sans-serif" font-size="12" font-style="italic" lengthAdjust="spacing" textLength="72.5625" x="781.9072" y="259.1387">&#171;ImplClass&#187;</text><text fill="#000000" font-family="sans-serif" font-size="14" lengthAdjust="spacing" textLength="87.377" x="774.5" y="274.9639">MemberPost</text><line style="stroke:#181818;stroke-width:0.5;" x1="746.5" x2="863.877" y1="283.2656" y2="283.2656"/><line style="stroke:#181818;stroke-width:0.5;" x1="746.5" x2="863.877" y1="291.2656" y2="291.2656"/></g><!--class HashTag--><g class="entity" data-entity="HashTag" data-source-line="23" data-uid="ent0014" id="entity_HashTag"><rect fill="#F1F1F1" height="56.2656" rx="2.5" ry="2.5" style="stroke:#181818;stroke-width:0.5;" width="93.291" x="758.5" y="649"/><ellipse cx="773.5" cy="669.1328" fill="#ADD1B2" rx="11" ry="11" style="stroke:#181818;stroke-width:1;"/><path d="M777.6094,675.1328 L769.8906,675.1328 L769.8906,662.7422 L777.6094,662.7422 L777.6094,664.8984 L772.3438,664.8984 L772.3438,667.5703 L777.1094,667.5703 L777.1094,669.7266 L772.3438,669.7266 L772.3438,672.9766 L777.6094,672.9766 L777.6094,675.1328 Z " fill="#000000"/><text fill="#000000" font-family="sans-serif" font-size="12" font-style="italic" lengthAdjust="spacing" textLength="49.8457" x="793.2227" y="665.1387">&#171;Entity&#187;</text><text fill="#000000" font-family="sans-serif" font-size="14" lengthAdjust="spacing" textLength="61.291" x="787.5" y="680.9639">HashTag</text><line style="stroke:#181818;stroke-width:0.5;" x1="759.5" x2="850.791" y1="689.2656" y2="689.2656"/><line style="stroke:#181818;stroke-width:0.5;" x1="759.5" x2="850.791" y1="697.2656" y2="697.2656"/></g><!--class Tags--><g class="entity" data-entity="Tags" data-source-line="25" data-uid="ent0015" id="entity_Tags"><rect fill="#F1F1F1" height="56.2656" rx="2.5" ry="2.5" style="stroke:#181818;stroke-width:0.5;" width="119.5938" x="745" y="533"/><ellipse cx="760" cy="553.1328" fill="#F1F1F1" rx="11" ry="11" style="stroke:#181818;stroke-width:1;"/><path d="M759.4844,553.6953 Q757.625,552.9922 756.9688,552.2266 Q756.3281,551.4453 756.3281,550.1328 Q756.3281,548.4453 757.4063,547.4766 Q758.4844,546.5078 760.3594,546.5078 Q761.2188,546.5078 762.0625,546.7109 Q762.9219,546.8984 763.7656,547.2891 L763.7656,549.6797 Q762.9844,549.1172 762.1563,548.8359 Q761.3438,548.5391 760.5469,548.5391 Q759.6719,548.5391 759.1875,548.8984 Q758.7188,549.2578 758.7188,549.9141 Q758.7188,550.4297 759.0625,550.7734 Q759.4063,551.1016 760.5,551.5078 L761.5625,551.9141 Q763.0469,552.4609 763.75,553.3672 Q764.4688,554.2734 764.4688,555.6484 Q764.4688,557.5234 763.3594,558.4453 Q762.25,559.3672 760,559.3672 Q759.0781,559.3672 758.1563,559.1484 Q757.2344,558.9297 756.375,558.5078 L756.375,555.9766 Q757.3438,556.6641 758.2656,557.0078 Q759.1875,557.3516 760.0781,557.3516 Q760.9844,557.3516 761.4844,556.9453 Q761.9844,556.5234 761.9844,555.7891 Q761.9844,555.2266 761.6406,554.8203 Q761.3125,554.3984 760.6875,554.1484 L759.4844,553.6953 Z " fill="#000000"/><text fill="#000000" font-family="sans-serif" font-size="12" font-style="italic" lengthAdjust="spacing" textLength="91.5938" x="772" y="549.1387">&#171;Value Object&#187;</text><text fill="#000000" font-family="sans-serif" font-size="14" lengthAdjust="spacing" textLength="33.3115" x="801.1411" y="564.9639">Tags</text><line style="stroke:#181818;stroke-width:0.5;" x1="746" x2="863.5938" y1="573.2656" y2="573.2656"/><line style="stroke:#181818;stroke-width:0.5;" x1="746" x2="863.5938" y1="581.2656" y2="581.2656"/></g><!--class PostLike--><g class="entity" data-entity="PostLike" data-source-line="30" data-uid="ent0018" id="entity_PostLike"><rect fill="#F1F1F1" height="56.2656" rx="2.5" ry="2.5" style="stroke:#181818;stroke-width:0.5;" width="90.2012" x="915" y="649"/><ellipse cx="930" cy="669.1328" fill="#ADD1B2" rx="11" ry="11" style="stroke:#181818;stroke-width:1;"/><path d="M934.1094,675.1328 L926.3906,675.1328 L926.3906,662.7422 L934.1094,662.7422 L934.1094,664.8984 L928.8438,664.8984 L928.8438,667.5703 L933.6094,667.5703 L933.6094,669.7266 L928.8438,669.7266 L928.8438,672.9766 L934.1094,672.9766 L934.1094,675.1328 Z " fill="#000000"/><text fill="#000000" font-family="sans-serif" font-size="12" font-style="italic" lengthAdjust="spacing" textLength="49.8457" x="948.1777" y="665.1387">&#171;Entity&#187;</text><text fill="#000000" font-family="sans-serif" font-size="14" lengthAdjust="spacing" textLength="58.2012" x="944" y="680.9639">PostLike</text><line style="stroke:#181818;stroke-width:0.5;" x1="916" x2="1004.2012" y1="689.2656" y2="689.2656"/><line style="stroke:#181818;stroke-width:0.5;" x1="916" x2="1004.2012" y1="697.2656" y2="697.2656"/></g><!--class Likes--><g class="entity" data-entity="Likes" data-source-line="32" data-uid="ent0019" id="entity_Likes"><rect fill="#F1F1F1" height="56.2656" rx="2.5" ry="2.5" style="stroke:#181818;stroke-width:0.5;" width="119.5938" x="900" y="533"/><ellipse cx="915" cy="553.1328" fill="#F1F1F1" rx="11" ry="11" style="stroke:#181818;stroke-width:1;"/><path d="M914.4844,553.6953 Q912.625,552.9922 911.9688,552.2266 Q911.3281,551.4453 911.3281,550.1328 Q911.3281,548.4453 912.4063,547.4766 Q913.4844,546.5078 915.3594,546.5078 Q916.2188,546.5078 917.0625,546.7109 Q917.9219,546.8984 918.7656,547.2891 L918.7656,549.6797 Q917.9844,549.1172 917.1563,548.8359 Q916.3438,548.5391 915.5469,548.5391 Q914.6719,548.5391 914.1875,548.8984 Q913.7188,549.2578 913.7188,549.9141 Q913.7188,550.4297 914.0625,550.7734 Q914.4063,551.1016 915.5,551.5078 L916.5625,551.9141 Q918.0469,552.4609 918.75,553.3672 Q919.4688,554.2734 919.4688,555.6484 Q919.4688,557.5234 918.3594,558.4453 Q917.25,559.3672 915,559.3672 Q914.0781,559.3672 913.1563,559.1484 Q912.2344,558.9297 911.375,558.5078 L911.375,555.9766 Q912.3438,556.6641 913.2656,557.0078 Q914.1875,557.3516 915.0781,557.3516 Q915.9844,557.3516 916.4844,556.9453 Q916.9844,556.5234 916.9844,555.7891 Q916.9844,555.2266 916.6406,554.8203 Q916.3125,554.3984 915.6875,554.1484 L914.4844,553.6953 Z " fill="#000000"/><text fill="#000000" font-family="sans-serif" font-size="12" font-style="italic" lengthAdjust="spacing" textLength="91.5938" x="927" y="549.1387">&#171;Value Object&#187;</text><text fill="#000000" font-family="sans-serif" font-size="14" lengthAdjust="spacing" textLength="35.7041" x="954.9448" y="564.9639">Likes</text><line style="stroke:#181818;stroke-width:0.5;" x1="901" x2="1018.5938" y1="573.2656" y2="573.2656"/><line style="stroke:#181818;stroke-width:0.5;" x1="901" x2="1018.5938" y1="581.2656" y2="581.2656"/></g><!--class Comment--><g class="entity" data-entity="Comment" data-source-line="39" data-uid="ent0023" id="entity_Comment"><rect fill="#F1F1F1" height="56.2656" rx="2.5" ry="2.5" style="stroke:#181818;stroke-width:0.5;" width="137.1719" x="1078.5" y="243"/><ellipse cx="1093.5" cy="263.1328" fill="#A9DCDF" rx="11" ry="11" style="stroke:#181818;stroke-width:1;"/><path d="M1093.6094,258.4766 L1092.4531,263.5547 L1094.7813,263.5547 L1093.6094,258.4766 Z M1092.125,256.2422 L1095.1094,256.2422 L1098.4688,268.6328 L1096.0156,268.6328 L1095.25,265.5703 L1091.9688,265.5703 L1091.2188,268.6328 L1088.7813,268.6328 L1092.125,256.2422 Z " fill="#000000"/><text fill="#000000" font-family="sans-serif" font-size="12" font-style="italic" lengthAdjust="spacing" textLength="109.1719" x="1105.5" y="259.1387">&#171;Aggregate Root&#187;</text><text fill="#000000" font-family="sans-serif" font-size="14" font-style="italic" lengthAdjust="spacing" textLength="68.5918" x="1125.79" y="274.9639">Comment</text><line style="stroke:#181818;stroke-width:0.5;" x1="1079.5" x2="1214.6719" y1="283.2656" y2="283.2656"/><line style="stroke:#181818;stroke-width:0.5;" x1="1079.5" x2="1214.6719" y1="291.2656" y2="291.2656"/></g><!--class GuestComment--><g class="entity" data-entity="GuestComment" data-source-line="41" data-uid="ent0024" id="entity_GuestComment"><rect fill="#F1F1F1" height="56.2656" rx="2.5" ry="2.5" style="stroke:#181818;stroke-width:0.5;" width="141.71" x="1076" y="127"/><ellipse cx="1091" cy="147.1328" fill="#ADD1B2" rx="11" ry="11" style="stroke:#181818;stroke-width:1;"/><path d="M1093.9688,152.7734 Q1093.3906,153.0703 1092.75,153.2109 Q1092.1094,153.3672 1091.4063,153.3672 Q1088.9063,153.3672 1087.5781,151.7266 Q1086.2656,150.0703 1086.2656,146.9453 Q1086.2656,143.8203 1087.5781,142.1641 Q1088.9063,140.5078 1091.4063,140.5078 Q1092.1094,140.5078 1092.75,140.6641 Q1093.4063,140.8203 1093.9688,141.1172 L1093.9688,143.8359 Q1093.3438,143.2578 1092.75,142.9922 Q1092.1563,142.7109 1091.5313,142.7109 Q1090.1875,142.7109 1089.5,143.7891 Q1088.8125,144.8516 1088.8125,146.9453 Q1088.8125,149.0391 1089.5,150.1172 Q1090.1875,151.1797 1091.5313,151.1797 Q1092.1563,151.1797 1092.75,150.9141 Q1093.3438,150.6328 1093.9688,150.0547 L1093.9688,152.7734 Z " fill="#000000"/><text fill="#000000" font-family="sans-serif" font-size="12" font-style="italic" lengthAdjust="spacing" textLength="72.5625" x="1123.5737" y="143.1387">&#171;ImplClass&#187;</text><text fill="#000000" font-family="sans-serif" font-size="14" lengthAdjust="spacing" textLength="109.71" x="1105" y="158.9639">GuestComment</text><line style="stroke:#181818;stroke-width:0.5;" x1="1077" x2="1216.71" y1="167.2656" y2="167.2656"/><line style="stroke:#181818;stroke-width:0.5;" x1="1077" x2="1216.71" y1="175.2656" y2="175.2656"/></g><!--class MemberComment--><g class="entity" data-entity="MemberComment" data-source-line="43" data-uid="ent0025" id="entity_MemberComment"><rect fill="#F1F1F1" height="56.2656" rx="2.5" ry="2.5" style="stroke:#181818;stroke-width:0.5;" width="158.1777" x="1253" y="127"/><ellipse cx="1268" cy="147.1328" fill="#ADD1B2" rx="11" ry="11" style="stroke:#181818;stroke-width:1;"/><path d="M1270.9688,152.7734 Q1270.3906,153.0703 1269.75,153.2109 Q1269.1094,153.3672 1268.4063,153.3672 Q1265.9063,153.3672 1264.5781,151.7266 Q1263.2656,150.0703 1263.2656,146.9453 Q1263.2656,143.8203 1264.5781,142.1641 Q1265.9063,140.5078 1268.4063,140.5078 Q1269.1094,140.5078 1269.75,140.6641 Q1270.4063,140.8203 1270.9688,141.1172 L1270.9688,143.8359 Q1270.3438,143.2578 1269.75,142.9922 Q1269.1563,142.7109 1268.5313,142.7109 Q1267.1875,142.7109 1266.5,143.7891 Q1265.8125,144.8516 1265.8125,146.9453 Q1265.8125,149.0391 1266.5,150.1172 Q1267.1875,151.1797 1268.5313,151.1797 Q1269.1563,151.1797 1269.75,150.9141 Q1270.3438,150.6328 1270.9688,150.0547 L1270.9688,152.7734 Z " fill="#000000"/><text fill="#000000" font-family="sans-serif" font-size="12" font-style="italic" lengthAdjust="spacing" textLength="72.5625" x="1308.8076" y="143.1387">&#171;ImplClass&#187;</text><text fill="#000000" font-family="sans-serif" font-size="14" lengthAdjust="spacing" textLength="126.1777" x="1282" y="158.9639">MemberComment</text><line style="stroke:#181818;stroke-width:0.5;" x1="1254" x2="1410.1777" y1="167.2656" y2="167.2656"/><line style="stroke:#181818;stroke-width:0.5;" x1="1254" x2="1410.1777" y1="175.2656" y2="175.2656"/></g><!--class Member--><g class="entity" data-entity="Member" data-source-line="56" data-uid="ent0032" id="entity_Member"><rect fill="#F1F1F1" height="56.2656" rx="2.5" ry="2.5" style="stroke:#181818;stroke-width:0.5;" width="137.1719" x="891.5" y="847"/><ellipse cx="906.5" cy="867.1328" fill="#A9DCDF" rx="11" ry="11" style="stroke:#181818;stroke-width:1;"/><path d="M906.6094,862.4766 L905.4531,867.5547 L907.7813,867.5547 L906.6094,862.4766 Z M905.125,860.2422 L908.1094,860.2422 L911.4688,872.6328 L909.0156,872.6328 L908.25,869.5703 L904.9688,869.5703 L904.2188,872.6328 L901.7813,872.6328 L905.125,860.2422 Z " fill="#000000"/><text fill="#000000" font-family="sans-serif" font-size="12" font-style="italic" lengthAdjust="spacing" textLength="109.1719" x="918.5" y="863.1387">&#171;Aggregate Root&#187;</text><text fill="#000000" font-family="sans-serif" font-size="14" font-style="italic" lengthAdjust="spacing" textLength="57.5859" x="944.293" y="878.9639">Member</text><line style="stroke:#181818;stroke-width:0.5;" x1="892.5" x2="1027.6719" y1="887.2656" y2="887.2656"/><line style="stroke:#181818;stroke-width:0.5;" x1="892.5" x2="1027.6719" y1="895.2656" y2="895.2656"/></g><!--class NickName--><g class="entity" data-entity="NickName" data-source-line="58" data-uid="ent0033" id="entity_NickName"><rect fill="#F1F1F1" height="56.2656" rx="2.5" ry="2.5" style="stroke:#181818;stroke-width:0.5;" width="119.5938" x="823" y="963"/><ellipse cx="838" cy="983.1328" fill="#F1F1F1" rx="11" ry="11" style="stroke:#181818;stroke-width:1;"/><path d="M837.4844,983.6953 Q835.625,982.9922 834.9688,982.2266 Q834.3281,981.4453 834.3281,980.1328 Q834.3281,978.4453 835.4063,977.4766 Q836.4844,976.5078 838.3594,976.5078 Q839.2188,976.5078 840.0625,976.7109 Q840.9219,976.8984 841.7656,977.2891 L841.7656,979.6797 Q840.9844,979.1172 840.1563,978.8359 Q839.3438,978.5391 838.5469,978.5391 Q837.6719,978.5391 837.1875,978.8984 Q836.7188,979.2578 836.7188,979.9141 Q836.7188,980.4297 837.0625,980.7734 Q837.4063,981.1016 838.5,981.5078 L839.5625,981.9141 Q841.0469,982.4609 841.75,983.3672 Q842.4688,984.2734 842.4688,985.6484 Q842.4688,987.5234 841.3594,988.4453 Q840.25,989.3672 838,989.3672 Q837.0781,989.3672 836.1563,989.1484 Q835.2344,988.9297 834.375,988.5078 L834.375,985.9766 Q835.3438,986.6641 836.2656,987.0078 Q837.1875,987.3516 838.0781,987.3516 Q838.9844,987.3516 839.4844,986.9453 Q839.9844,986.5234 839.9844,985.7891 Q839.9844,985.2266 839.6406,984.8203 Q839.3125,984.3984 838.6875,984.1484 L837.4844,983.6953 Z " fill="#000000"/><text fill="#000000" font-family="sans-serif" font-size="12" font-style="italic" lengthAdjust="spacing" textLength="91.5938" x="850" y="979.1387">&#171;Value Object&#187;</text><text fill="#000000" font-family="sans-serif" font-size="14" lengthAdjust="spacing" textLength="71.4697" x="860.062" y="994.9639">NickName</text><line style="stroke:#181818;stroke-width:0.5;" x1="824" x2="941.5938" y1="1003.2656" y2="1003.2656"/><line style="stroke:#181818;stroke-width:0.5;" x1="824" x2="941.5938" y1="1011.2656" y2="1011.2656"/></g><!--class BirthYear--><g class="entity" data-entity="BirthYear" data-source-line="60" data-uid="ent0034" id="entity_BirthYear"><rect fill="#F1F1F1" height="56.2656" rx="2.5" ry="2.5" style="stroke:#181818;stroke-width:0.5;" width="119.5938" x="978" y="963"/><ellipse cx="993" cy="983.1328" fill="#F1F1F1" rx="11" ry="11" style="stroke:#181818;stroke-width:1;"/><path d="M992.4844,983.6953 Q990.625,982.9922 989.9688,982.2266 Q989.3281,981.4453 989.3281,980.1328 Q989.3281,978.4453 990.4063,977.4766 Q991.4844,976.5078 993.3594,976.5078 Q994.2188,976.5078 995.0625,976.7109 Q995.9219,976.8984 996.7656,977.2891 L996.7656,979.6797 Q995.9844,979.1172 995.1563,978.8359 Q994.3438,978.5391 993.5469,978.5391 Q992.6719,978.5391 992.1875,978.8984 Q991.7188,979.2578 991.7188,979.9141 Q991.7188,980.4297 992.0625,980.7734 Q992.4063,981.1016 993.5,981.5078 L994.5625,981.9141 Q996.0469,982.4609 996.75,983.3672 Q997.4688,984.2734 997.4688,985.6484 Q997.4688,987.5234 996.3594,988.4453 Q995.25,989.3672 993,989.3672 Q992.0781,989.3672 991.1563,989.1484 Q990.2344,988.9297 989.375,988.5078 L989.375,985.9766 Q990.3438,986.6641 991.2656,987.0078 Q992.1875,987.3516 993.0781,987.3516 Q993.9844,987.3516 994.4844,986.9453 Q994.9844,986.5234 994.9844,985.7891 Q994.9844,985.2266 994.6406,984.8203 Q994.3125,984.3984 993.6875,984.1484 L992.4844,983.6953 Z " fill="#000000"/><text fill="#000000" font-family="sans-serif" font-size="12" font-style="italic" lengthAdjust="spacing" textLength="91.5938" x="1005" y="979.1387">&#171;Value Object&#187;</text><text fill="#000000" font-family="sans-serif" font-size="14" lengthAdjust="spacing" textLength="65.1123" x="1018.2407" y="994.9639">BirthYear</text><line style="stroke:#181818;stroke-width:0.5;" x1="979" x2="1096.5938" y1="1003.2656" y2="1003.2656"/><line style="stroke:#181818;stroke-width:0.5;" x1="979" x2="1096.5938" y1="1011.2656" y2="1011.2656"/></g><!--class PermissionPolicy--><g class="entity" data-entity="PermissionPolicy" data-source-line="69" data-uid="ent0039" id="entity_PermissionPolicy"><rect fill="#F1F1F1" height="56.2656" rx="2.5" ry="2.5" style="stroke:#181818;stroke-width:0.5;" width="149.0244" x="154.5" y="417"/><ellipse cx="169.5" cy="437.1328" fill="#A9DCDF" rx="11" ry="11" style="stroke:#181818;stroke-width:1;"/><path d="M169.6094,432.4766 L168.4531,437.5547 L170.7813,437.5547 L169.6094,432.4766 Z M168.125,430.2422 L171.1094,430.2422 L174.4688,442.6328 L172.0156,442.6328 L171.25,439.5703 L167.9688,439.5703 L167.2188,442.6328 L164.7813,442.6328 L168.125,430.2422 Z " fill="#000000"/><text fill="#000000" font-family="sans-serif" font-size="12" font-style="italic" lengthAdjust="spacing" textLength="109.1719" x="187.4263" y="433.1387">&#171;Aggregate Root&#187;</text><text fill="#000000" font-family="sans-serif" font-size="14" font-style="italic" lengthAdjust="spacing" textLength="117.0244" x="183.5" y="448.9639">PermissionPolicy</text><line style="stroke:#181818;stroke-width:0.5;" x1="155.5" x2="302.5244" y1="457.2656" y2="457.2656"/><line style="stroke:#181818;stroke-width:0.5;" x1="155.5" x2="302.5244" y1="465.2656" y2="465.2656"/></g><!--class ManagerAssignment--><g class="entity" data-entity="ManagerAssignment" data-source-line="72" data-uid="ent0040" id="entity_ManagerAssignment"><rect fill="#F1F1F1" height="56.2656" rx="2.5" ry="2.5" style="stroke:#181818;stroke-width:0.5;" width="175.7939" x="134" y="533"/><ellipse cx="149" cy="553.1328" fill="#ADD1B2" rx="11" ry="11" style="stroke:#181818;stroke-width:1;"/><path d="M153.1094,559.1328 L145.3906,559.1328 L145.3906,546.7422 L153.1094,546.7422 L153.1094,548.8984 L147.8438,548.8984 L147.8438,551.5703 L152.6094,551.5703 L152.6094,553.7266 L147.8438,553.7266 L147.8438,556.9766 L153.1094,556.9766 L153.1094,559.1328 Z " fill="#000000"/><text fill="#000000" font-family="sans-serif" font-size="12" font-style="italic" lengthAdjust="spacing" textLength="49.8457" x="209.9741" y="549.1387">&#171;Entity&#187;</text><text fill="#000000" font-family="sans-serif" font-size="14" lengthAdjust="spacing" textLength="143.7939" x="163" y="564.9639">ManagerAssignment</text><line style="stroke:#181818;stroke-width:0.5;" x1="135" x2="308.7939" y1="573.2656" y2="573.2656"/><line style="stroke:#181818;stroke-width:0.5;" x1="135" x2="308.7939" y1="581.2656" y2="581.2656"/></g><!--class Role--><g class="entity" data-entity="Role" data-source-line="75" data-uid="ent0041" id="entity_Role"><rect fill="#F1F1F1" height="56.2656" rx="2.5" ry="2.5" style="stroke:#181818;stroke-width:0.5;" width="119.5938" x="162" y="649"/><ellipse cx="177" cy="669.1328" fill="#F1F1F1" rx="11" ry="11" style="stroke:#181818;stroke-width:1;"/><path d="M176.4844,669.6953 Q174.625,668.9922 173.9688,668.2266 Q173.3281,667.4453 173.3281,666.1328 Q173.3281,664.4453 174.4063,663.4766 Q175.4844,662.5078 177.3594,662.5078 Q178.2188,662.5078 179.0625,662.7109 Q179.9219,662.8984 180.7656,663.2891 L180.7656,665.6797 Q179.9844,665.1172 179.1563,664.8359 Q178.3438,664.5391 177.5469,664.5391 Q176.6719,664.5391 176.1875,664.8984 Q175.7188,665.2578 175.7188,665.9141 Q175.7188,666.4297 176.0625,666.7734 Q176.4063,667.1016 177.5,667.5078 L178.5625,667.9141 Q180.0469,668.4609 180.75,669.3672 Q181.4688,670.2734 181.4688,671.6484 Q181.4688,673.5234 180.3594,674.4453 Q179.25,675.3672 177,675.3672 Q176.0781,675.3672 175.1563,675.1484 Q174.2344,674.9297 173.375,674.5078 L173.375,671.9766 Q174.3438,672.6641 175.2656,673.0078 Q176.1875,673.3516 177.0781,673.3516 Q177.9844,673.3516 178.4844,672.9453 Q178.9844,672.5234 178.9844,671.7891 Q178.9844,671.2266 178.6406,670.8203 Q178.3125,670.3984 177.6875,670.1484 L176.4844,669.6953 Z " fill="#000000"/><text fill="#000000" font-family="sans-serif" font-size="12" font-style="italic" lengthAdjust="spacing" textLength="91.5938" x="189" y="665.1387">&#171;Value Object&#187;</text><text fill="#000000" font-family="sans-serif" font-size="14" lengthAdjust="spacing" textLength="30.7959" x="219.3989" y="680.9639">Role</text><line style="stroke:#181818;stroke-width:0.5;" x1="163" x2="280.5938" y1="689.2656" y2="689.2656"/><line style="stroke:#181818;stroke-width:0.5;" x1="163" x2="280.5938" y1="697.2656" y2="697.2656"/></g><!--class RoleType--><g class="entity" data-entity="RoleType" data-source-line="78" data-uid="ent0042" id="entity_RoleType"><rect fill="#F1F1F1" height="48" rx="2.5" ry="2.5" style="stroke:#181818;stroke-width:0.5;" width="97.1328" x="69.5" y="851"/><ellipse cx="84.5" cy="867" fill="#EB937F" rx="11" ry="11" style="stroke:#181818;stroke-width:1;"/><path d="M88.6094,873 L80.8906,873 L80.8906,860.6094 L88.6094,860.6094 L88.6094,862.7656 L83.3438,862.7656 L83.3438,865.4375 L88.1094,865.4375 L88.1094,867.5938 L83.3438,867.5938 L83.3438,870.8438 L88.6094,870.8438 L88.6094,873 Z " fill="#000000"/><text fill="#000000" font-family="sans-serif" font-size="14" lengthAdjust="spacing" textLength="65.1328" x="98.5" y="871.8467">RoleType</text><line style="stroke:#181818;stroke-width:0.5;" x1="70.5" x2="165.6328" y1="883" y2="883"/><line style="stroke:#181818;stroke-width:0.5;" x1="70.5" x2="165.6328" y1="891" y2="891"/></g><!--class Permission--><g class="entity" data-entity="Permission" data-source-line="81" data-uid="ent0043" id="entity_Permission"><rect fill="#F1F1F1" height="48" rx="2.5" ry="2.5" style="stroke:#181818;stroke-width:0.5;" width="108.2549" x="202" y="851"/><ellipse cx="217" cy="867" fill="#EB937F" rx="11" ry="11" style="stroke:#181818;stroke-width:1;"/><path d="M221.1094,873 L213.3906,873 L213.3906,860.6094 L221.1094,860.6094 L221.1094,862.7656 L215.8438,862.7656 L215.8438,865.4375 L220.6094,865.4375 L220.6094,867.5938 L215.8438,867.5938 L215.8438,870.8438 L221.1094,870.8438 L221.1094,873 Z " fill="#000000"/><text fill="#000000" font-family="sans-serif" font-size="14" lengthAdjust="spacing" textLength="76.2549" x="231" y="871.8467">Permission</text><line style="stroke:#181818;stroke-width:0.5;" x1="203" x2="309.2549" y1="883" y2="883"/><line style="stroke:#181818;stroke-width:0.5;" x1="203" x2="309.2549" y1="891" y2="891"/></g><!--link BoardName to Board--><g class="link" data-entity-1="BoardName" data-entity-2="Board" data-source-line="11" data-uid="lnk8" id="link_BoardName_Board"><path codeLine="11" d="M610.52,183.02 C598.17,201.06 581.99,224.7 569.62,242.78" fill="none" id="BoardName-Board" style="stroke:#181818;stroke-width:1;"/></g><!--link Creator to Board--><g class="link" data-entity-1="Creator" data-entity-2="Board" data-source-line="12" data-uid="lnk9" id="link_Creator_Board"><path codeLine="12" d="M492.25,183.02 C504.43,201.06 520.4,224.7 532.62,242.78" fill="none" id="Creator-Board" style="stroke:#181818;stroke-width:1;"/></g><!--link Post to Tags--><g class="link" data-entity-1="Post" data-entity-2="Tags" data-source-line="27" data-uid="lnk16" id="link_Post_Tags"><path codeLine="27" d="M863.75,473.02 C851.57,491.06 835.6,514.7 823.38,532.78" fill="none" id="Post-Tags" style="stroke:#181818;stroke-width:1;"/></g><!--link Tags to HashTag--><g class="link" data-entity-1="Tags" data-entity-2="HashTag" data-source-line="28" data-uid="lnk17" id="link_Tags_HashTag"><path codeLine="28" d="M805,589.02 C805,607.06 805,624.7 805,642.78" fill="none" id="Tags-to-HashTag" style="stroke:#181818;stroke-width:1;"/><polygon fill="#181818" points="805,648.78,809,639.78,805,643.78,801,639.78,805,648.78" style="stroke:#181818;stroke-width:1;"/><text fill="#000000" font-family="sans-serif" font-size="13" lengthAdjust="spacing" textLength="8.271" x="796.1533" y="609.2855">1</text><text fill="#000000" font-family="sans-serif" font-size="13" lengthAdjust="spacing" textLength="9.7246" x="795.063" y="638.0186">N</text></g><!--link Post to Likes--><g class="link" data-entity-1="Post" data-entity-2="Likes" data-source-line="34" data-uid="lnk20" id="link_Post_Likes"><path codeLine="34" d="M900.48,473.02 C912.83,491.06 929.01,514.7 941.38,532.78" fill="none" id="Post-Likes" style="stroke:#181818;stroke-width:1;"/></g><!--link Likes to PostLike--><g class="link" data-entity-1="Likes" data-entity-2="PostLike" data-source-line="35" data-uid="lnk21" id="link_Likes_PostLike"><path codeLine="35" d="M960,589.02 C960,607.06 960,624.7 960,642.78" fill="none" id="Likes-to-PostLike" style="stroke:#181818;stroke-width:1;"/><polygon fill="#181818" points="960,648.78,964,639.78,960,643.78,956,639.78,960,648.78" style="stroke:#181818;stroke-width:1;"/><text fill="#000000" font-family="sans-serif" font-size="13" lengthAdjust="spacing" textLength="8.271" x="951.1533" y="609.2855">1</text><text fill="#000000" font-family="sans-serif" font-size="13" lengthAdjust="spacing" textLength="9.7246" x="950.0729" y="638.0186">N</text></g><!--link GuestPost to Post--><g class="link" data-entity-1="GuestPost" data-entity-2="Post" data-source-line="47" data-uid="lnk26" id="link_GuestPost_Post"><path codeLine="47" d="M940.07,299.25 C927.15,331.46 912.4829,368.0146 899.5829,400.1646" fill="none" id="GuestPost-to-Post" style="stroke:#181818;stroke-width:1;"/><polygon fill="none" points="892.88,416.87,905.1514,402.3989,894.0145,397.9303,892.88,416.87" style="stroke:#181818;stroke-width:1;"/></g><!--link MemberPost to Post--><g class="link" data-entity-1="MemberPost" data-entity-2="Post" data-source-line="48" data-uid="lnk27" id="link_MemberPost_Post"><path codeLine="48" d="M817.2,299.25 C831.62,331.46 848.1021,368.2925 862.5021,400.4425" fill="none" id="MemberPost-to-Post" style="stroke:#181818;stroke-width:1;"/><polygon fill="none" points="869.86,416.87,867.978,397.9899,857.0263,402.8952,869.86,416.87" style="stroke:#181818;stroke-width:1;"/></g><!--link GuestComment to Comment--><g class="link" data-entity-1="GuestComment" data-entity-2="Comment" data-source-line="49" data-uid="lnk28" id="link_GuestComment_Comment"><path codeLine="49" d="M1147,183.02 C1147,201.06 1147,206.7 1147,224.78" fill="none" id="GuestComment-to-Comment" style="stroke:#181818;stroke-width:1;"/><polygon fill="none" points="1147,242.78,1153,224.78,1141,224.78,1147,242.78" style="stroke:#181818;stroke-width:1;"/></g><!--link MemberComment to Comment--><g class="link" data-entity-1="MemberComment" data-entity-2="Comment" data-source-line="50" data-uid="lnk29" id="link_MemberComment_Comment"><path codeLine="50" d="M1288.16,183.02 C1258.77,201.12 1235.5529,215.4249 1206.1729,233.5349" fill="none" id="MemberComment-to-Comment" style="stroke:#181818;stroke-width:1;"/><polygon fill="none" points="1190.85,242.98,1209.3212,238.6425,1203.0245,228.4273,1190.85,242.98" style="stroke:#181818;stroke-width:1;"/></g><!--link Member to NickName--><g class="link" data-entity-1="Member" data-entity-2="NickName" data-source-line="62" data-uid="lnk35" id="link_Member_NickName"><path codeLine="62" d="M941.75,903.02 C929.57,921.06 913.6,944.7 901.38,962.78" fill="none" id="Member-NickName" style="stroke:#181818;stroke-width:1;"/></g><!--link Member to BirthYear--><g class="link" data-entity-1="Member" data-entity-2="BirthYear" data-source-line="63" data-uid="lnk36" id="link_Member_BirthYear"><path codeLine="63" d="M978.48,903.02 C990.83,921.06 1007.01,944.7 1019.38,962.78" fill="none" id="Member-BirthYear" style="stroke:#181818;stroke-width:1;"/></g><!--link Role to Permission--><g class="link" data-entity-1="Role" data-entity-2="Permission" data-source-line="84" data-uid="lnk44" id="link_Role_Permission"><path codeLine="84" d="M226.73,705.25 C233.46,744.07 244.6644,808.6683 250.9744,845.0383" fill="none" id="Role-to-Permission" style="stroke:#181818;stroke-width:1;"/><polygon fill="#181818" points="252,850.95,254.4027,841.3987,251.1453,846.0236,246.5204,842.7662,252,850.95" style="stroke:#181818;stroke-width:1;"/><text fill="#000000" font-family="sans-serif" font-size="13" lengthAdjust="spacing" textLength="8.271" x="218.9638" y="725.1227">1</text><text fill="#000000" font-family="sans-serif" font-size="13" lengthAdjust="spacing" textLength="9.7246" x="240.8821" y="839.9492">N</text></g><!--link PermissionPolicy to ManagerAssignment--><g class="link" data-entity-1="PermissionPolicy" data-entity-2="ManagerAssignment" data-source-line="86" data-uid="lnk45" id="link_PermissionPolicy_ManagerAssignment"><path codeLine="86" d="M227.34,473.02 C226.23,491.06 224.78,514.7 223.67,532.78" fill="none" id="PermissionPolicy-ManagerAssignment" style="stroke:#181818;stroke-width:1;"/><text fill="#000000" font-family="sans-serif" font-size="13" lengthAdjust="spacing" textLength="8.271" x="218.0596" y="493.2855">1</text><text fill="#000000" font-family="sans-serif" font-size="13" lengthAdjust="spacing" textLength="9.7246" x="214.1527" y="522.0186">N</text></g><!--link ManagerAssignment to Role--><g class="link" data-entity-1="ManagerAssignment" data-entity-2="Role" data-source-line="87" data-uid="lnk46" id="link_ManagerAssignment_Role"><path codeLine="87" d="M222,589.02 C222,607.06 222,630.7 222,648.78" fill="none" id="ManagerAssignment-Role" style="stroke:#181818;stroke-width:1;"/><text fill="#000000" font-family="sans-serif" font-size="13" lengthAdjust="spacing" textLength="9.7246" x="212.067" y="609.2855">N</text><text fill="#000000" font-family="sans-serif" font-size="13" lengthAdjust="spacing" textLength="8.271" x="213.1991" y="638.0186">1</text></g><!--link Role to RoleType--><g class="link" data-entity-1="Role" data-entity-2="RoleType" data-source-line="88" data-uid="lnk47" id="link_Role_RoleType"><path codeLine="88" d="M207.54,705.25 C186.94,744.07 149.53,814.58 130.23,850.95" fill="none" id="Role-RoleType" style="stroke:#181818;stroke-width:1;"/></g><!--reverse link Board to Post--><g class="link" data-entity-1="Board" data-entity-2="Post" data-source-line="92" data-uid="lnk48" id="link_Board_Post"><path codeLine="92" d="M608.4038,301.8271 C670.3938,334.0471 767.97,384.75 829.95,416.95" fill="none" id="Board-backto-Post" style="stroke:#181818;stroke-width:1;stroke-dasharray:7.0,7.0;"/><polygon fill="#181818" points="603.08,299.06,609.221,306.7599,607.5165,301.3659,612.9105,299.6615,603.08,299.06" style="stroke:#181818;stroke-width:1;"/></g><!--link MemberPost to Member--><g class="link" data-entity-1="MemberPost" data-entity-2="Member" data-source-line="94" data-uid="lnk49" id="link_MemberPost_Member"><path codeLine="94" d="M789.92,299.19 C748.96,377.08 644.93,604.95 741,753 C775.23,805.75 835.0963,835.5494 885.5963,853.2094" fill="none" id="MemberPost-to-Member" style="stroke:#181818;stroke-width:1;stroke-dasharray:7.0,7.0;"/><polygon fill="#181818" points="891.26,855.19,884.0849,848.4433,886.5403,853.5395,881.4441,855.9949,891.26,855.19" style="stroke:#181818;stroke-width:1;"/></g><!--link PostLike to Member--><g class="link" data-entity-1="PostLike" data-entity-2="Member" data-source-line="95" data-uid="lnk50" id="link_PostLike_Member"><path codeLine="95" d="M960,705.25 C960,742.7 960,803.65 960,840.98" fill="none" id="PostLike-to-Member" style="stroke:#181818;stroke-width:1;stroke-dasharray:7.0,7.0;"/><polygon fill="#181818" points="960,846.98,964,837.98,960,841.98,956,837.98,960,846.98" style="stroke:#181818;stroke-width:1;"/></g><!--link MemberComment to Member--><g class="link" data-entity-1="MemberComment" data-entity-2="Member" data-source-line="96" data-uid="lnk51" id="link_MemberComment_Member"><path codeLine="96" d="M1327.09,183.29 C1318.35,234.31 1301,347.7 1301,444 C1301,444 1301,444 1301,562 C1301,708.24 1133.6731,801.9991 1034.1031,845.2591" fill="none" id="MemberComment-to-Member" style="stroke:#181818;stroke-width:1;stroke-dasharray:7.0,7.0;"/><polygon fill="#181818" points="1028.6,847.65,1038.4485,847.7323,1033.1859,845.6576,1035.2606,840.3949,1028.6,847.65" style="stroke:#181818;stroke-width:1;"/></g><!--link Comment to Post--><g class="link" data-entity-1="Comment" data-entity-2="Post" data-source-line="97" data-uid="lnk52" id="link_Comment_Post"><path codeLine="97" d="M1105.3,299.06 C1055.74,331.23 978.5628,381.3233 928.9228,413.5433" fill="none" id="Comment-to-Post" style="stroke:#181818;stroke-width:1;stroke-dasharray:7.0,7.0;"/><polygon fill="#181818" points="923.89,416.81,933.617,415.2652,928.084,414.0878,929.2614,408.5548,923.89,416.81" style="stroke:#181818;stroke-width:1;"/></g><!--link Comment to Comment--><g class="link" data-entity-1="Comment" data-entity-2="Comment" data-source-line="98" data-uid="lnk53" id="link_Comment_Comment"><path codeLine="98" d="M1215.68,249.33 C1235.34,250.18 1250.5,257.41 1250.5,271 C1250.5,284.59 1241.3344,291.5608 1221.6744,292.4108" fill="none" id="Comment-to-Comment" style="stroke:#181818;stroke-width:1;"/><polygon fill="#181818" points="1215.68,292.67,1224.8444,296.2775,1220.6753,292.454,1224.4988,288.285,1215.68,292.67" style="stroke:#181818;stroke-width:1;"/></g><!--link Board to PermissionPolicy--><g class="link" data-entity-1="Board" data-entity-2="PermissionPolicy" data-source-line="99" data-uid="lnk54" id="link_Board_PermissionPolicy"><path codeLine="99" d="M500.33,299.06 C440.03,331.28 345.2225,381.9234 284.9325,414.1234" fill="none" id="Board-to-PermissionPolicy" style="stroke:#181818;stroke-width:1;stroke-dasharray:7.0,7.0;"/><polygon fill="#181818" points="279.64,416.95,289.4631,416.2384,284.0504,414.5945,285.6943,409.1817,279.64,416.95" style="stroke:#181818;stroke-width:1;"/></g><!--SRC=[dLMzJiCm4Dxp55OMfbPYhoBH2W4I55HLI8nkiDBGE8viLwA2Jh1rfGlgn3CWmJEXyWuuTfp4SMYJPhE_- -xdyzqbWVuC1WYuFeavUkG0myG5JmuGNwAn2O7q7cGMhW9jWnAGVd32E8K-1tt9xlLEWe2Y0784HeHmppFDbyP9KEUQEeGO2VejZEO8N4yUaD-CFA08Sa9RKOk0dOuw6B1sQO5BnnOb8Op_fycDm5fAuaUGCN0sHundx0kSH8FqjWdn2k49eksOHx_hp-rgy_ko-VdwDX0Kyv0lm3baqp4CXCTJUT7eNGI1jNeKcRIGF2KQWFJa7hi2z80xT7K-PX7RZzLs_RfzVwkh8FLz6SvGkn9Inc4rIAQ1A5_bAdHEExlB9nYB6lvhi8623- -nmi41RTQANAgkwEvEvzcJGkHOgO5jq4XPmjcXGgyrSKfPvFfYQRzhwIaBum5o-LMqFUgNzSiQQnZwixtxheRN3ocVtY586nEp34LBwfYrOExOCPr8kOfLXoWE6Gj9d0i6QXGhpCgmkHXpaniIXVwYHa9GRQIwkRw2iGX9JuIh8CvwKG_uRWUPeYCIsQ-mB_GSIzvuaQ06faMjkurbAiQ2o8cceIMU8acE9OZ1jELAEIbLU4ZZsma9KDTQrnj0__UxNJMgJcM8krqlEpfwGSf5NBatvxO2bg_pVL3CkBa5L3xIjAAJuop_0000]--></g></svg>